<svg width="280" height="76" viewBox="0 0 280 76" fill="none" xmlns="http://www.w3.org/2000/svg">
<rect width="280" height="76" fill="white"/>
<path d="M51 45.7031V30.2969C50.9988 30.0743 50.939 29.8561 50.8265 29.664C50.714 29.472 50.5529 29.313 50.3594 29.2031L36.6094 21.4688C36.4241 21.3618 36.2139 21.3055 36 21.3055C35.7861 21.3055 35.5759 21.3618 35.3906 21.4688L21.6406 29.2031C21.4471 29.313 21.286 29.472 21.1735 29.664C21.061 29.8561 21.0012 30.0743 21 30.2969V45.7031C21.0012 45.9257 21.061 46.144 21.1735 46.336C21.286 46.528 21.4471 46.687 21.6406 46.7969L35.3906 54.5313C35.5759 54.6382 35.7861 54.6945 36 54.6945C36.2139 54.6945 36.4241 54.6382 36.6094 54.5313L50.3594 46.7969C50.5529 46.687 50.714 46.528 50.8265 46.336C50.939 46.144 50.9988 45.9257 51 45.7031V45.7031Z" stroke="#191C1F" stroke-width="1.5" stroke-linecap="round" stroke-linejoin="round"/>
<path d="M43.6562 41.8281V33.7031L28.5 25.3438" stroke="#191C1F" stroke-width="1.5" stroke-linecap="round" stroke-linejoin="round"/>
<path d="M50.8281 29.6562L36.1406 38L21.1719 29.6562" stroke="#191C1F" stroke-width="1.5" stroke-linecap="round" stroke-linejoin="round"/>
<path d="M36.1406 38L36 54.6875" stroke="#191C1F" stroke-width="1.5" stroke-linecap="round" stroke-linejoin="round"/>
<path d="M73.281 31V20.878H79.749L79.742 22.166H74.807V25.295H79.196V26.569H74.807V31H73.281ZM79.9898 31L83.6438 20.878H85.2958L88.9428 31H87.4308L86.4788 28.347H82.4678L81.5088 31H79.9898ZM82.8388 26.989H86.0868L84.4628 22.334L82.8388 26.989ZM94.0766 31.14C93.5819 31.14 93.1059 31.0793 92.6486 30.958C92.1959 30.8367 91.7829 30.657 91.4096 30.419C91.0409 30.1763 90.7352 29.8753 90.4926 29.516C90.2546 29.1567 90.1052 28.7367 90.0446 28.256H91.6056C91.6849 28.62 91.8412 28.9257 92.0746 29.173C92.3126 29.4203 92.6089 29.607 92.9636 29.733C93.3229 29.859 93.7196 29.922 94.1536 29.922C94.5549 29.922 94.9259 29.859 95.2666 29.733C95.6072 29.607 95.8826 29.425 96.0926 29.187C96.3026 28.949 96.4076 28.6573 96.4076 28.312C96.4076 27.9247 96.2769 27.619 96.0156 27.395C95.7589 27.1663 95.3716 26.9843 94.8536 26.849L92.8236 26.345C92.3336 26.2283 91.9019 26.0627 91.5286 25.848C91.1552 25.6287 90.8659 25.3417 90.6606 24.987C90.4552 24.6277 90.3526 24.1843 90.3526 23.657C90.3526 23.069 90.5136 22.558 90.8356 22.124C91.1622 21.6853 91.6032 21.347 92.1586 21.109C92.7186 20.871 93.3509 20.752 94.0556 20.752C94.8629 20.752 95.5419 20.8897 96.0926 21.165C96.6479 21.4403 97.0679 21.8043 97.3526 22.257C97.6419 22.705 97.7889 23.1927 97.7936 23.72H96.2676C96.2256 23.2907 96.0972 22.95 95.8826 22.698C95.6726 22.4413 95.4042 22.257 95.0776 22.145C94.7556 22.033 94.3986 21.977 94.0066 21.977C93.3159 21.977 92.7956 22.131 92.4456 22.439C92.1002 22.7423 91.9276 23.104 91.9276 23.524C91.9276 23.9113 92.0536 24.217 92.3056 24.441C92.5622 24.665 92.9402 24.8377 93.4396 24.959L95.3996 25.442C96.0156 25.5773 96.5079 25.7803 96.8766 26.051C97.2499 26.317 97.5182 26.632 97.6816 26.996C97.8449 27.3553 97.9266 27.7497 97.9266 28.179C97.9266 28.753 97.7656 29.264 97.4436 29.712C97.1216 30.1553 96.6712 30.5053 96.0926 30.762C95.5186 31.014 94.8466 31.14 94.0766 31.14ZM102.065 31V22.243H98.8588V20.878H106.636V22.243H103.577V31H102.065ZM108.226 31V20.878H114.764L114.757 22.18H109.731V25.253H114.218V26.534H109.724V29.677L114.883 29.684V31H108.226ZM117.045 31V20.878C117.082 20.878 117.192 20.8803 117.374 20.885C117.56 20.885 117.784 20.885 118.046 20.885C118.307 20.8803 118.573 20.8803 118.844 20.885C119.119 20.885 119.364 20.8873 119.579 20.892C120.815 20.9107 121.821 21.116 122.596 21.508C123.37 21.9 123.937 22.4647 124.297 23.202C124.661 23.9347 124.843 24.8283 124.843 25.883C124.843 26.9797 124.649 27.9107 124.262 28.676C123.874 29.4367 123.282 30.0153 122.484 30.412C121.69 30.804 120.685 31 119.467 31H117.045ZM118.571 29.74H119.481C120.246 29.74 120.911 29.6163 121.476 29.369C122.045 29.117 122.486 28.711 122.799 28.151C123.111 27.5863 123.268 26.8327 123.268 25.89C123.268 24.966 123.118 24.231 122.82 23.685C122.521 23.1343 122.092 22.74 121.532 22.502C120.976 22.2593 120.307 22.138 119.523 22.138H118.571V29.74ZM130.183 31V20.878C130.221 20.878 130.33 20.8803 130.512 20.885C130.699 20.885 130.923 20.885 131.184 20.885C131.446 20.8803 131.712 20.8803 131.982 20.885C132.258 20.885 132.503 20.8873 132.717 20.892C133.954 20.9107 134.96 21.116 135.734 21.508C136.509 21.9 137.076 22.4647 137.435 23.202C137.799 23.9347 137.981 24.8283 137.981 25.883C137.981 26.9797 137.788 27.9107 137.4 28.676C137.013 29.4367 136.42 30.0153 135.622 30.412C134.829 30.804 133.823 31 132.605 31H130.183ZM131.709 29.74H132.619C133.385 29.74 134.05 29.6163 134.614 29.369C135.184 29.117 135.625 28.711 135.937 28.151C136.25 27.5863 136.406 26.8327 136.406 25.89C136.406 24.966 136.257 24.231 135.958 23.685C135.66 23.1343 135.23 22.74 134.67 22.502C134.115 22.2593 133.445 22.138 132.661 22.138H131.709V29.74ZM139.986 31V20.878H146.524L146.517 22.18H141.491V25.253H145.978V26.534H141.484V29.677L146.643 29.684V31H139.986ZM148.804 31L148.811 20.878H150.33V29.684H155.006V31H148.804ZM156.885 31V20.878H158.383V31H156.885ZM163.549 31L159.972 20.878H161.435L164.431 29.285L167.42 20.878H168.89L165.313 31H163.549ZM170.474 31V20.878H177.012L177.005 22.18H171.979V25.253H176.466V26.534H171.972V29.677L177.131 29.684V31H170.474ZM179.293 31V20.878H183.311C184.062 20.878 184.685 20.9947 185.18 21.228C185.674 21.4567 186.043 21.7833 186.286 22.208C186.528 22.6327 186.65 23.1343 186.65 23.713C186.65 24.259 186.556 24.714 186.37 25.078C186.188 25.442 185.95 25.7383 185.656 25.967C185.366 26.1957 185.061 26.3753 184.739 26.506L186.699 31H185.124L183.332 26.765H180.791V31H179.293ZM180.791 25.554H182.905C183.609 25.554 184.155 25.4023 184.543 25.099C184.93 24.791 185.124 24.3523 185.124 23.783C185.124 23.223 184.946 22.7983 184.592 22.509C184.242 22.2197 183.766 22.075 183.164 22.075H180.791V25.554ZM190.948 31V26.702L187.476 20.878H189.114L191.704 25.379L194.259 20.878H195.897L192.446 26.709V31H190.948Z" fill="#191C1F"/>
<path d="M73.337 55V44.878C73.3697 44.878 73.4677 44.8803 73.631 44.885C73.799 44.885 74.002 44.885 74.24 44.885C74.478 44.8803 74.7253 44.8803 74.982 44.885C75.2387 44.885 75.4743 44.8873 75.689 44.892C76.9303 44.9107 77.936 45.1137 78.706 45.501C79.4807 45.8837 80.0477 46.4413 80.407 47.174C80.771 47.9067 80.953 48.8073 80.953 49.876C80.953 50.996 80.757 51.9363 80.365 52.697C79.9777 53.4577 79.385 54.0317 78.587 54.419C77.7937 54.8063 76.7833 55 75.556 55H73.337ZM74.667 53.887H75.556C76.3913 53.887 77.11 53.7587 77.712 53.502C78.314 53.2407 78.776 52.8183 79.098 52.235C79.4247 51.6517 79.588 50.8723 79.588 49.897C79.588 48.9217 79.4293 48.1493 79.112 47.58C78.7993 47.0107 78.3467 46.6047 77.754 46.362C77.1613 46.1147 76.4473 45.991 75.612 45.991H74.667V53.887ZM85.837 55.14C85.165 55.14 84.5724 54.993 84.059 54.699C83.5457 54.405 83.1444 53.9827 82.855 53.432C82.5657 52.8813 82.421 52.221 82.421 51.451C82.421 50.6903 82.5517 50.023 82.813 49.449C83.0744 48.875 83.4524 48.427 83.947 48.105C84.4464 47.783 85.046 47.622 85.746 47.622C86.4274 47.622 87.0037 47.769 87.475 48.063C87.9464 48.357 88.3034 48.7723 88.546 49.309C88.7934 49.841 88.917 50.4733 88.917 51.206V51.682H83.73C83.73 52.1393 83.8047 52.5547 83.954 52.928C84.108 53.2967 84.339 53.5907 84.647 53.81C84.955 54.0293 85.3447 54.139 85.816 54.139C86.278 54.139 86.6747 54.0317 87.006 53.817C87.342 53.6023 87.5567 53.292 87.65 52.886H88.868C88.784 53.376 88.588 53.789 88.28 54.125C87.9767 54.461 87.6104 54.7153 87.181 54.888C86.7564 55.056 86.3084 55.14 85.837 55.14ZM83.737 50.807H87.671C87.671 50.3917 87.601 50.0183 87.461 49.687C87.321 49.351 87.1064 49.0873 86.817 48.896C86.5324 48.7 86.173 48.602 85.739 48.602C85.2864 48.602 84.9107 48.7117 84.612 48.931C84.3134 49.1457 84.0917 49.4233 83.947 49.764C83.8024 50.1 83.7324 50.4477 83.737 50.807ZM92.5347 55.091C92.1427 55.091 91.8254 55.0373 91.5827 54.93C91.3447 54.8227 91.1604 54.678 91.0297 54.496C90.9037 54.314 90.8174 54.1063 90.7707 53.873C90.7287 53.635 90.7077 53.39 90.7077 53.138V44.598H91.9817V53.012C91.9817 53.376 92.0517 53.649 92.1917 53.831C92.3364 54.013 92.5371 54.1133 92.7937 54.132L93.1857 54.139V54.979C93.0784 55.0117 92.9664 55.0373 92.8497 55.056C92.7331 55.0793 92.6281 55.091 92.5347 55.091ZM94.9126 55V47.762H96.1656V55H94.9126ZM94.8776 46.229V44.885H96.2006V46.229H94.8776ZM100.213 55L97.5946 47.762H98.8126L100.738 53.376H100.857L102.789 47.762H104L101.396 55H100.213ZM108.327 55.14C107.655 55.14 107.063 54.993 106.549 54.699C106.036 54.405 105.635 53.9827 105.345 53.432C105.056 52.8813 104.911 52.221 104.911 51.451C104.911 50.6903 105.042 50.023 105.303 49.449C105.565 48.875 105.943 48.427 106.437 48.105C106.937 47.783 107.536 47.622 108.236 47.622C108.918 47.622 109.494 47.769 109.965 48.063C110.437 48.357 110.794 48.7723 111.036 49.309C111.284 49.841 111.407 50.4733 111.407 51.206V51.682H106.22C106.22 52.1393 106.295 52.5547 106.444 52.928C106.598 53.2967 106.829 53.5907 107.137 53.81C107.445 54.0293 107.835 54.139 108.306 54.139C108.768 54.139 109.165 54.0317 109.496 53.817C109.832 53.6023 110.047 53.292 110.14 52.886H111.358C111.274 53.376 111.078 53.789 110.77 54.125C110.467 54.461 110.101 54.7153 109.671 54.888C109.247 55.056 108.799 55.14 108.327 55.14ZM106.227 50.807H110.161C110.161 50.3917 110.091 50.0183 109.951 49.687C109.811 49.351 109.597 49.0873 109.307 48.896C109.023 48.7 108.663 48.602 108.229 48.602C107.777 48.602 107.401 48.7117 107.102 48.931C106.804 49.1457 106.582 49.4233 106.437 49.764C106.293 50.1 106.223 50.4477 106.227 50.807ZM113.198 55V47.762H114.43V49.155C114.551 48.8097 114.722 48.525 114.941 48.301C115.16 48.0723 115.41 47.902 115.69 47.79C115.975 47.678 116.269 47.622 116.572 47.622C116.679 47.622 116.784 47.629 116.887 47.643C116.99 47.657 117.069 47.6803 117.125 47.713V48.966C117.055 48.9333 116.964 48.9123 116.852 48.903C116.745 48.889 116.654 48.882 116.579 48.882C116.29 48.8633 116.019 48.882 115.767 48.938C115.515 48.9893 115.293 49.0803 115.102 49.211C114.911 49.3417 114.759 49.5143 114.647 49.729C114.54 49.939 114.486 50.1957 114.486 50.499V55H113.198ZM119.565 57.31C119.141 57.31 118.849 57.2797 118.69 57.219C118.532 57.1583 118.452 57.128 118.452 57.128V56.288L119.194 56.302C119.46 56.3113 119.682 56.2927 119.859 56.246C120.037 56.1993 120.179 56.1363 120.286 56.057C120.394 55.9777 120.475 55.889 120.531 55.791C120.592 55.693 120.641 55.5997 120.678 55.511L120.93 54.825L118.102 47.762H119.411L121.546 53.348L123.667 47.762H124.934L121.889 55.546C121.698 56.0033 121.486 56.3603 121.252 56.617C121.024 56.8737 120.767 57.0533 120.482 57.156C120.202 57.2587 119.897 57.31 119.565 57.31ZM129.721 55V47.762H130.974V55H129.721ZM129.686 46.229V44.885H131.009V46.229H129.686ZM133.227 55V47.762H134.48V48.812C134.597 48.6113 134.758 48.4223 134.963 48.245C135.173 48.0677 135.425 47.9253 135.719 47.818C136.018 47.7107 136.361 47.657 136.748 47.657C137.206 47.657 137.626 47.748 138.008 47.93C138.396 48.112 138.704 48.3967 138.932 48.784C139.166 49.1667 139.282 49.6613 139.282 50.268V55H137.987V50.394C137.987 49.8293 137.838 49.4117 137.539 49.141C137.245 48.8657 136.863 48.728 136.391 48.728C136.065 48.728 135.759 48.7817 135.474 48.889C135.19 48.9917 134.959 49.1503 134.781 49.365C134.604 49.575 134.515 49.841 134.515 50.163V55H133.227ZM144.509 55V54.209V53.796C144.509 53.278 144.604 52.83 144.796 52.452C144.992 52.074 145.248 51.745 145.566 51.465C145.888 51.1803 146.238 50.926 146.616 50.702C146.998 50.478 147.379 50.2633 147.757 50.058C148.139 49.848 148.489 49.631 148.807 49.407C149.124 49.1783 149.378 48.9217 149.57 48.637C149.766 48.3477 149.864 48.007 149.864 47.615C149.864 47.1017 149.682 46.684 149.318 46.362C148.958 46.04 148.471 45.879 147.855 45.879C147.192 45.879 146.66 46.0657 146.259 46.439C145.857 46.8123 145.631 47.3093 145.58 47.93H144.292C144.306 47.3467 144.45 46.8147 144.726 46.334C145.001 45.8487 145.405 45.4613 145.937 45.172C146.469 44.8827 147.124 44.738 147.904 44.738C148.58 44.738 149.168 44.8593 149.668 45.102C150.167 45.34 150.552 45.676 150.823 46.11C151.098 46.5393 151.236 47.041 151.236 47.615C151.236 48.1377 151.14 48.5857 150.949 48.959C150.757 49.3323 150.503 49.6567 150.186 49.932C149.873 50.2027 149.53 50.4453 149.157 50.66C148.783 50.8747 148.408 51.0823 148.03 51.283C147.652 51.479 147.306 51.6867 146.994 51.906C146.681 52.1207 146.429 52.368 146.238 52.648C146.046 52.928 145.951 53.2617 145.951 53.649V53.852H151.292V55H144.509ZM157.398 55V52.417H152.631V51.234L157.349 44.878H158.665V51.276H160.345V52.417H158.665V55H157.398ZM153.87 51.276H157.37V46.579L153.87 51.276ZM160.974 55.539L164.474 44.878H165.482L161.975 55.539H160.974ZM167.03 55V44.878H168.325V49.19H173.785V44.878H175.08V55H173.785V50.331H168.325V55H167.03Z" fill="#5F6C72"/>
</svg>
