<svg width="47" height="20" viewBox="0 0 47 20" fill="none" xmlns="http://www.w3.org/2000/svg">
<path d="M5.033 15.14C4.15567 15.14 3.444 14.9953 2.898 14.706C2.35667 14.4167 1.96 13.992 1.708 13.432C1.46067 12.872 1.337 12.1837 1.337 11.367V4.878H2.681V11.563C2.681 12.3797 2.884 12.991 3.29 13.397C3.696 13.803 4.277 14.006 5.033 14.006C5.54167 14.006 5.97333 13.9173 6.328 13.74C6.68733 13.5627 6.96033 13.2943 7.147 12.935C7.33833 12.571 7.434 12.1137 7.434 11.563V4.878H8.736V11.5C8.736 12.2793 8.60767 12.9397 8.351 13.481C8.09433 14.0223 7.693 14.4353 7.147 14.72C6.60567 15 5.901 15.14 5.033 15.14ZM14.5697 15.14C14.0751 15.14 13.6061 15.0817 13.1627 14.965C12.7194 14.8437 12.3157 14.664 11.9517 14.426C11.5924 14.188 11.2937 13.894 11.0557 13.544C10.8224 13.1893 10.6754 12.7787 10.6147 12.312H11.9727C12.0567 12.6947 12.2224 13.0167 12.4697 13.278C12.7217 13.5393 13.0321 13.7353 13.4007 13.866C13.7741 13.9967 14.1824 14.062 14.6257 14.062C15.0551 14.062 15.4494 13.9943 15.8087 13.859C16.1727 13.7237 16.4644 13.5277 16.6837 13.271C16.9031 13.0097 17.0127 12.697 17.0127 12.333C17.0127 11.9317 16.8821 11.6097 16.6207 11.367C16.3594 11.1197 15.9557 10.9213 15.4097 10.772L13.3237 10.233C12.8524 10.1163 12.4347 9.953 12.0707 9.743C11.7114 9.52833 11.4291 9.24833 11.2237 8.903C11.0184 8.553 10.9157 8.119 10.9157 7.601C10.9157 7.027 11.0744 6.52767 11.3917 6.103C11.7091 5.67367 12.1384 5.34233 12.6797 5.109C13.2257 4.871 13.8417 4.752 14.5277 4.752C15.3211 4.752 15.9884 4.88967 16.5297 5.165C17.0757 5.44033 17.4887 5.802 17.7687 6.25C18.0487 6.698 18.1887 7.17633 18.1887 7.685H16.8587C16.8167 7.223 16.6814 6.859 16.4527 6.593C16.2241 6.32233 15.9394 6.12867 15.5987 6.012C15.2581 5.89067 14.8871 5.83 14.4857 5.83C13.7624 5.83 13.2141 5.99567 12.8407 6.327C12.4721 6.65367 12.2877 7.04333 12.2877 7.496C12.2877 7.91133 12.4207 8.238 12.6867 8.476C12.9527 8.714 13.3447 8.89833 13.8627 9.029L15.8927 9.554C16.4947 9.694 16.9731 9.897 17.3277 10.163C17.6871 10.429 17.9437 10.7393 18.0977 11.094C18.2564 11.444 18.3357 11.8243 18.3357 12.235C18.3357 12.795 18.1794 13.2943 17.8667 13.733C17.5541 14.1717 17.1154 14.517 16.5507 14.769C15.9907 15.0163 15.3304 15.14 14.5697 15.14ZM20.4776 15V4.878C20.5103 4.878 20.6083 4.88033 20.7716 4.885C20.9396 4.885 21.1426 4.885 21.3806 4.885C21.6186 4.88033 21.866 4.88033 22.1226 4.885C22.3793 4.885 22.615 4.88733 22.8296 4.892C24.071 4.91067 25.0766 5.11367 25.8466 5.501C26.6213 5.88367 27.1883 6.44133 27.5476 7.174C27.9116 7.90667 28.0936 8.80733 28.0936 9.876C28.0936 10.996 27.8976 11.9363 27.5056 12.697C27.1183 13.4577 26.5256 14.0317 25.7276 14.419C24.9343 14.8063 23.924 15 22.6966 15H20.4776ZM21.8076 13.887H22.6966C23.532 13.887 24.2506 13.7587 24.8526 13.502C25.4546 13.2407 25.9166 12.8183 26.2386 12.235C26.5653 11.6517 26.7286 10.8723 26.7286 9.897C26.7286 8.92167 26.57 8.14933 26.2526 7.58C25.94 7.01067 25.4873 6.60467 24.8946 6.362C24.302 6.11467 23.588 5.991 22.7526 5.991H21.8076V13.887Z" fill="white"/>
<g opacity="0.5">
<path d="M44.75 8.5L41 12.25L37.25 8.5" stroke="white" stroke-width="1.5" stroke-linecap="round" stroke-linejoin="round"/>
</g>
</svg>
