<svg width="209" height="20" viewBox="0 0 209 20" fill="none" xmlns="http://www.w3.org/2000/svg">
<line y1="9" x2="24" y2="9" stroke="#2DA5F3" stroke-width="2"/>
<path d="M32.294 6.411V4.878H40.19V6.411H37.152V15H35.444V6.411H32.294ZM48.3162 10.506H43.4162V15H41.7152V4.878H43.4162V9.057H48.3162V4.878H50.0172V15H48.3162V10.506ZM52.4613 15V4.878H59.1533L59.1463 6.341H54.1763V9.176H58.5653V10.618H54.1623V13.516L59.2513 13.523V15H52.4613ZM64.3559 15V4.878H67.8349C69.1182 4.878 70.0772 5.10667 70.7119 5.564C71.3512 6.01667 71.6709 6.67 71.6709 7.524C71.6709 8.042 71.5379 8.49 71.2719 8.868C71.0059 9.246 70.5369 9.56567 69.8649 9.827C70.4109 9.95767 70.8309 10.1513 71.1249 10.408C71.4235 10.66 71.6289 10.947 71.7409 11.269C71.8575 11.591 71.9159 11.9247 71.9159 12.27C71.9159 13.194 71.5939 13.88 70.9499 14.328C70.3105 14.776 69.3189 15 67.9749 15H64.3559ZM66.0569 9.19H68.1219C68.4345 9.19 68.7355 9.14333 69.0249 9.05C69.3189 8.95667 69.5592 8.805 69.7459 8.595C69.9325 8.38033 70.0259 8.09567 70.0259 7.741C70.0259 7.237 69.8322 6.859 69.4449 6.607C69.0622 6.355 68.5699 6.229 67.9679 6.229H66.0569V9.19ZM66.0569 13.642H67.9959C68.7099 13.642 69.2535 13.5137 69.6269 13.257C70.0002 12.9957 70.1869 12.62 70.1869 12.13C70.1869 11.598 69.9885 11.206 69.5919 10.954C69.1952 10.6973 68.7052 10.569 68.1219 10.569H66.0569V13.642ZM73.9945 15V4.878H80.6865L80.6795 6.341H75.7095V9.176H80.0985V10.618H75.6955V13.516L80.7845 13.523V15H73.9945ZM86.5213 15.14C85.8679 15.14 85.2403 15.0303 84.6383 14.811C84.0409 14.5917 83.5393 14.265 83.1333 13.831C82.7273 13.397 82.4846 12.8533 82.4053 12.2H84.1693C84.2813 12.7133 84.5519 13.1053 84.9813 13.376C85.4106 13.642 85.9216 13.775 86.5143 13.775C87.1396 13.775 87.6693 13.6513 88.1033 13.404C88.5373 13.1567 88.7543 12.7973 88.7543 12.326C88.7543 11.9107 88.5956 11.591 88.2783 11.367C87.9609 11.1383 87.5433 10.968 87.0253 10.856L85.1633 10.45C84.4073 10.296 83.8099 9.99733 83.3713 9.554C82.9373 9.11067 82.7156 8.52033 82.7063 7.783C82.7016 7.17167 82.8626 6.63967 83.1893 6.187C83.5159 5.72967 83.9639 5.37733 84.5333 5.13C85.1073 4.878 85.7536 4.752 86.4723 4.752C87.3123 4.752 88.0193 4.88967 88.5933 5.165C89.1673 5.44033 89.6013 5.80667 89.8953 6.264C90.1939 6.71667 90.3479 7.216 90.3573 7.762H88.6353C88.5746 7.16 88.3413 6.74 87.9353 6.502C87.5339 6.25933 87.0533 6.138 86.4933 6.138C85.9333 6.138 85.4596 6.26633 85.0723 6.523C84.6896 6.77967 84.4983 7.13667 84.4983 7.594C84.4983 7.92067 84.6056 8.18667 84.8203 8.392C85.0396 8.59267 85.4479 8.763 86.0453 8.903L87.8653 9.309C88.4299 9.421 88.8849 9.59133 89.2303 9.82C89.5756 10.044 89.8369 10.2983 90.0143 10.583C90.1963 10.8677 90.3176 11.1617 90.3783 11.465C90.4436 11.7637 90.4763 12.046 90.4763 12.312C90.4763 12.8393 90.3153 13.3177 89.9933 13.747C89.6713 14.1717 89.2139 14.51 88.6213 14.762C88.0286 15.014 87.3286 15.14 86.5213 15.14ZM91.4112 6.411V4.878H99.3072V6.411H96.2692V15H94.5612V6.411H91.4112ZM103.922 15V4.878H107.513C108.241 4.878 108.892 5.004 109.466 5.256C110.04 5.50333 110.493 5.86967 110.824 6.355C111.16 6.84033 111.328 7.43767 111.328 8.147C111.328 8.81433 111.179 9.386 110.88 9.862C110.582 10.338 110.162 10.702 109.62 10.954C109.084 11.206 108.456 11.332 107.737 11.332H105.651V15H103.922ZM105.637 9.967H107.695C108.288 9.967 108.771 9.78967 109.144 9.435C109.522 9.08033 109.711 8.61833 109.711 8.049C109.711 7.47033 109.515 7.02233 109.123 6.705C108.731 6.383 108.239 6.222 107.646 6.222H105.637V9.967ZM112.953 4.878H114.675V13.53H119.246V15H112.946L112.953 4.878ZM120.482 15L124.122 4.878H125.963L129.596 15H127.888L126.985 12.459H123.121L122.197 15H120.482ZM123.513 10.947H126.565L125.046 6.537L123.513 10.947ZM134.742 4.738C135.48 4.738 136.135 4.88967 136.709 5.193C137.288 5.49633 137.752 5.90467 138.102 6.418C138.457 6.92667 138.667 7.496 138.732 8.126H136.933C136.831 7.57067 136.593 7.10633 136.219 6.733C135.846 6.355 135.337 6.166 134.693 6.166C133.886 6.166 133.263 6.46 132.824 7.048C132.386 7.63133 132.166 8.581 132.166 9.897C132.166 11.227 132.386 12.1953 132.824 12.802C133.263 13.4087 133.886 13.712 134.693 13.712C135.123 13.712 135.491 13.6187 135.799 13.432C136.107 13.2407 136.355 12.9887 136.541 12.676C136.733 12.3587 136.863 12.0133 136.933 11.64H138.732C138.653 12.256 138.469 12.83 138.179 13.362C137.89 13.894 137.465 14.3233 136.905 14.65C136.35 14.9767 135.629 15.14 134.742 15.14C133.814 15.14 133.016 14.9277 132.348 14.503C131.686 14.0737 131.175 13.467 130.815 12.683C130.461 11.8943 130.283 10.9587 130.283 9.876C130.283 8.798 130.461 7.87633 130.815 7.111C131.17 6.341 131.679 5.753 132.341 5.347C133.009 4.941 133.809 4.738 134.742 4.738ZM140.659 15V4.878H147.351L147.344 6.341H142.374V9.176H146.763V10.618H142.36V13.516L147.449 13.523V15H140.659ZM151.622 6.411V4.878H159.518V6.411H156.48V15H154.772V6.411H151.622ZM165.007 15.14C164.074 15.14 163.266 14.9347 162.585 14.524C161.908 14.1133 161.383 13.523 161.01 12.753C160.641 11.9783 160.457 11.0473 160.457 9.96C160.457 8.868 160.644 7.93233 161.017 7.153C161.39 6.37367 161.918 5.77633 162.599 5.361C163.28 4.94567 164.083 4.738 165.007 4.738C165.926 4.738 166.722 4.94567 167.394 5.361C168.071 5.77633 168.593 6.37367 168.962 7.153C169.331 7.93233 169.515 8.868 169.515 9.96C169.515 11.0427 169.333 11.9713 168.969 12.746C168.605 13.516 168.085 14.1087 167.408 14.524C166.731 14.9347 165.931 15.14 165.007 15.14ZM165.007 13.712C165.838 13.712 166.486 13.418 166.953 12.83C167.424 12.2373 167.66 11.2877 167.66 9.981C167.66 8.651 167.422 7.68267 166.946 7.076C166.475 6.46933 165.828 6.166 165.007 6.166C164.186 6.166 163.532 6.47167 163.047 7.083C162.566 7.68967 162.326 8.65567 162.326 9.981C162.326 11.2923 162.566 12.242 163.047 12.83C163.532 13.418 164.186 13.712 165.007 13.712ZM174.538 15V4.878H178.129C178.857 4.878 179.508 5.004 180.082 5.256C180.656 5.50333 181.108 5.86967 181.44 6.355C181.776 6.84033 181.944 7.43767 181.944 8.147C181.944 8.81433 181.794 9.386 181.496 9.862C181.197 10.338 180.777 10.702 180.236 10.954C179.699 11.206 179.071 11.332 178.353 11.332H176.267V15H174.538ZM176.253 9.967H178.311C178.903 9.967 179.386 9.78967 179.76 9.435C180.138 9.08033 180.327 8.61833 180.327 8.049C180.327 7.47033 180.131 7.02233 179.739 6.705C179.347 6.383 178.854 6.222 178.262 6.222H176.253V9.967ZM183.568 4.878H185.29V13.53H189.861V15H183.561L183.568 4.878ZM191.097 15L194.737 4.878H196.578L200.211 15H198.503L197.6 12.459H193.736L192.812 15H191.097ZM194.128 10.947H197.18L195.661 6.537L194.128 10.947ZM208.362 4.878L204.883 10.723V15H203.182V10.716L199.696 4.878H201.544L204.043 9.232L206.5 4.878H208.362Z" fill="#2484C2"/>
</svg>
