<svg width="192" height="34" viewBox="0 0 192 34" fill="none" xmlns="http://www.w3.org/2000/svg">
<path d="M0.337 11V0.877999H3.592C4.824 0.877999 5.755 1.10433 6.385 1.557C7.01967 2.00967 7.337 2.663 7.337 3.517C7.337 4.05367 7.197 4.51333 6.917 4.896C6.64167 5.27867 6.15633 5.59367 5.461 5.841C5.85767 5.925 6.19133 6.04633 6.462 6.205C6.73733 6.36367 6.95667 6.55033 7.12 6.765C7.288 6.975 7.407 7.20833 7.477 7.465C7.55167 7.72167 7.589 7.99233 7.589 8.277C7.589 9.19167 7.26233 9.87533 6.609 10.328C5.96033 10.776 4.98967 11 3.697 11H0.337ZM1.632 9.922H3.683C4.52767 9.922 5.16933 9.78433 5.608 9.509C6.05133 9.229 6.273 8.79967 6.273 8.221C6.273 7.79633 6.16333 7.45333 5.944 7.192C5.72933 6.926 5.43767 6.73233 5.069 6.611C4.70033 6.48967 4.28967 6.429 3.837 6.429H1.632V9.922ZM1.632 5.33H3.837C4.103 5.33 4.36667 5.30433 4.628 5.253C4.88933 5.20167 5.12967 5.113 5.349 4.987C5.56833 4.861 5.74567 4.693 5.881 4.483C6.01633 4.26833 6.084 4 6.084 3.678C6.084 3.09 5.85767 2.656 5.405 2.376C4.957 2.09133 4.37367 1.949 3.655 1.949H1.632V5.33ZM12.4163 11.14C11.7489 11.14 11.1656 10.9977 10.6663 10.713C10.1716 10.4237 9.7866 10.0013 9.51127 9.446C9.23593 8.89067 9.09827 8.21167 9.09827 7.409C9.09827 6.653 9.2266 5.99033 9.48327 5.421C9.73993 4.85167 10.1156 4.41067 10.6103 4.098C11.1049 3.78067 11.7093 3.622 12.4233 3.622C13.0906 3.622 13.6693 3.769 14.1593 4.063C14.6493 4.35233 15.0296 4.77933 15.3003 5.344C15.5756 5.90867 15.7133 6.597 15.7133 7.409C15.7133 8.14633 15.5873 8.795 15.3353 9.355C15.0833 9.915 14.7123 10.3537 14.2223 10.671C13.7369 10.9837 13.1349 11.14 12.4163 11.14ZM12.4233 10.118C12.8526 10.118 13.2166 10.0083 13.5153 9.789C13.8139 9.56967 14.0403 9.25467 14.1943 8.844C14.3529 8.43333 14.4323 7.94567 14.4323 7.381C14.4323 6.863 14.3623 6.39867 14.2223 5.988C14.0869 5.57267 13.8723 5.24367 13.5783 5.001C13.2843 4.75833 12.8993 4.637 12.4233 4.637C11.9846 4.637 11.6136 4.74667 11.3103 4.966C11.0069 5.18067 10.7759 5.49333 10.6173 5.904C10.4633 6.31467 10.3863 6.807 10.3863 7.381C10.3863 7.88967 10.4539 8.35167 10.5893 8.767C10.7293 9.18233 10.9486 9.51133 11.2473 9.754C11.5506 9.99667 11.9426 10.118 12.4233 10.118ZM19.9973 11.14C19.4933 11.14 19.0243 11.063 18.5903 10.909C18.1609 10.7503 17.8039 10.5053 17.5193 10.174C17.2346 9.838 17.0573 9.411 16.9873 8.893H18.1633C18.2239 9.17767 18.3406 9.41567 18.5133 9.607C18.6859 9.79367 18.8983 9.936 19.1503 10.034C19.4069 10.1273 19.6869 10.174 19.9903 10.174C20.4803 10.174 20.8746 10.083 21.1733 9.901C21.4719 9.719 21.6213 9.439 21.6213 9.061C21.6213 8.795 21.5419 8.58267 21.3833 8.424C21.2293 8.26067 20.9866 8.14167 20.6553 8.067L19.1573 7.696C18.5739 7.556 18.1073 7.33667 17.7573 7.038C17.4119 6.73933 17.2369 6.32167 17.2323 5.785C17.2323 5.36033 17.3349 4.987 17.5403 4.665C17.7456 4.343 18.0513 4.08867 18.4573 3.902C18.8679 3.71533 19.3789 3.622 19.9903 3.622C20.7789 3.622 21.4136 3.79933 21.8943 4.154C22.3749 4.504 22.6269 5.01967 22.6503 5.701H21.5023C21.4556 5.35567 21.3016 5.08267 21.0403 4.882C20.7789 4.67667 20.4243 4.574 19.9763 4.574C19.5189 4.574 19.1433 4.66733 18.8493 4.854C18.5599 5.036 18.4153 5.32067 18.4153 5.708C18.4153 5.96467 18.5179 6.16767 18.7233 6.317C18.9333 6.46167 19.2366 6.583 19.6333 6.681L21.0893 7.045C21.4206 7.13367 21.6959 7.25033 21.9153 7.395C22.1346 7.53967 22.3073 7.70067 22.4333 7.878C22.5593 8.05533 22.6479 8.242 22.6993 8.438C22.7553 8.62933 22.7833 8.81367 22.7833 8.991C22.7833 9.43433 22.6736 9.817 22.4543 10.139C22.2349 10.4563 21.9176 10.7037 21.5023 10.881C21.0869 11.0537 20.5853 11.14 19.9973 11.14ZM27.5343 11.14C26.8623 11.14 26.2696 10.993 25.7563 10.699C25.243 10.405 24.8416 9.98267 24.5523 9.432C24.263 8.88133 24.1183 8.221 24.1183 7.451C24.1183 6.69033 24.249 6.023 24.5103 5.449C24.7716 4.875 25.1496 4.427 25.6443 4.105C26.1436 3.783 26.7433 3.622 27.4433 3.622C28.1246 3.622 28.701 3.769 29.1723 4.063C29.6436 4.357 30.0006 4.77233 30.2433 5.309C30.4906 5.841 30.6143 6.47333 30.6143 7.206V7.682H25.4273C25.4273 8.13933 25.502 8.55467 25.6513 8.928C25.8053 9.29667 26.0363 9.59067 26.3443 9.81C26.6523 10.0293 27.042 10.139 27.5133 10.139C27.9753 10.139 28.372 10.0317 28.7033 9.817C29.0393 9.60233 29.254 9.292 29.3473 8.886H30.5653C30.4813 9.376 30.2853 9.789 29.9773 10.125C29.674 10.461 29.3076 10.7153 28.8783 10.888C28.4536 11.056 28.0056 11.14 27.5343 11.14ZM25.4343 6.807H29.3683C29.3683 6.39167 29.2983 6.01833 29.1583 5.687C29.0183 5.351 28.8036 5.08733 28.5143 4.896C28.2296 4.7 27.8703 4.602 27.4363 4.602C26.9836 4.602 26.608 4.71167 26.3093 4.931C26.0106 5.14567 25.789 5.42333 25.6443 5.764C25.4996 6.1 25.4296 6.44767 25.4343 6.807ZM39.4233 11.14C38.9286 11.14 38.4596 11.0817 38.0163 10.965C37.5729 10.8437 37.1693 10.664 36.8053 10.426C36.4459 10.188 36.1473 9.894 35.9093 9.544C35.6759 9.18933 35.5289 8.77867 35.4683 8.312H36.8263C36.9103 8.69467 37.0759 9.01667 37.3233 9.278C37.5753 9.53933 37.8856 9.73533 38.2542 9.866C38.6276 9.99667 39.0359 10.062 39.4793 10.062C39.9086 10.062 40.3029 9.99433 40.6623 9.859C41.0263 9.72367 41.3179 9.52767 41.5373 9.271C41.7566 9.00967 41.8663 8.697 41.8663 8.333C41.8663 7.93167 41.7356 7.60967 41.4743 7.367C41.2129 7.11967 40.8093 6.92133 40.2633 6.772L38.1773 6.233C37.7059 6.11633 37.2883 5.953 36.9243 5.743C36.5649 5.52833 36.2826 5.24833 36.0773 4.903C35.8719 4.553 35.7693 4.119 35.7693 3.601C35.7693 3.027 35.9279 2.52767 36.2453 2.103C36.5626 1.67367 36.9919 1.34233 37.5333 1.109C38.0793 0.870999 38.6953 0.751999 39.3813 0.751999C40.1746 0.751999 40.8419 0.889666 41.3833 1.165C41.9293 1.44033 42.3423 1.802 42.6223 2.25C42.9023 2.698 43.0423 3.17633 43.0423 3.685H41.7123C41.6703 3.223 41.5349 2.859 41.3063 2.593C41.0776 2.32233 40.7929 2.12867 40.4523 2.012C40.1116 1.89067 39.7406 1.83 39.3393 1.83C38.6159 1.83 38.0676 1.99567 37.6943 2.327C37.3256 2.65367 37.1413 3.04333 37.1413 3.496C37.1413 3.91133 37.2743 4.238 37.5403 4.476C37.8063 4.714 38.1983 4.89833 38.7163 5.029L40.7463 5.554C41.3483 5.694 41.8266 5.897 42.1813 6.163C42.5406 6.429 42.7973 6.73933 42.9513 7.094C43.1099 7.444 43.1893 7.82433 43.1893 8.235C43.1893 8.795 43.0329 9.29433 42.7203 9.733C42.4076 10.1717 41.9689 10.517 41.4043 10.769C40.8443 11.0163 40.1839 11.14 39.4233 11.14ZM45.1062 13.254V3.762H46.3942L46.4082 5.022C46.4922 4.87267 46.5995 4.71633 46.7302 4.553C46.8655 4.38967 47.0288 4.238 47.2202 4.098C47.4162 3.958 47.6425 3.84367 47.8992 3.755C48.1605 3.66633 48.4568 3.622 48.7882 3.622C49.3668 3.622 49.8755 3.755 50.3142 4.021C50.7575 4.28233 51.1028 4.68367 51.3502 5.225C51.5975 5.76633 51.7212 6.45233 51.7212 7.283C51.7212 8.11367 51.5998 8.816 51.3572 9.39C51.1192 9.95933 50.7738 10.3933 50.3212 10.692C49.8685 10.9907 49.3225 11.14 48.6832 11.14C48.3612 11.14 48.0742 11.0933 47.8222 11C47.5748 10.9113 47.3578 10.7947 47.1712 10.65C46.9892 10.5007 46.8352 10.342 46.7092 10.174C46.5878 10.006 46.4875 9.845 46.4082 9.691V13.254H45.1062ZM48.4382 10.132C49.0355 10.132 49.5232 9.90567 49.9012 9.453C50.2792 8.99567 50.4682 8.28633 50.4682 7.325C50.4682 6.499 50.2955 5.84333 49.9502 5.358C49.6048 4.87267 49.1008 4.63 48.4382 4.63C47.7662 4.63 47.2575 4.87967 46.9122 5.379C46.5668 5.87367 46.3942 6.52233 46.3942 7.325C46.3942 7.843 46.4712 8.31433 46.6252 8.739C46.7792 9.16367 47.0078 9.502 47.3112 9.754C47.6145 10.006 47.9902 10.132 48.4382 10.132ZM56.344 11.14C55.6767 11.14 55.0933 10.9977 54.594 10.713C54.0993 10.4237 53.7143 10.0013 53.439 9.446C53.1637 8.89067 53.026 8.21167 53.026 7.409C53.026 6.653 53.1543 5.99033 53.411 5.421C53.6677 4.85167 54.0433 4.41067 54.538 4.098C55.0327 3.78067 55.637 3.622 56.351 3.622C57.0183 3.622 57.597 3.769 58.087 4.063C58.577 4.35233 58.9573 4.77933 59.228 5.344C59.5033 5.90867 59.641 6.597 59.641 7.409C59.641 8.14633 59.515 8.795 59.263 9.355C59.011 9.915 58.64 10.3537 58.15 10.671C57.6647 10.9837 57.0627 11.14 56.344 11.14ZM56.351 10.118C56.7803 10.118 57.1443 10.0083 57.443 9.789C57.7417 9.56967 57.968 9.25467 58.122 8.844C58.2807 8.43333 58.36 7.94567 58.36 7.381C58.36 6.863 58.29 6.39867 58.15 5.988C58.0147 5.57267 57.8 5.24367 57.506 5.001C57.212 4.75833 56.827 4.637 56.351 4.637C55.9123 4.637 55.5413 4.74667 55.238 4.966C54.9347 5.18067 54.7037 5.49333 54.545 5.904C54.391 6.31467 54.314 6.807 54.314 7.381C54.314 7.88967 54.3817 8.35167 54.517 8.767C54.657 9.18233 54.8763 9.51133 55.175 9.754C55.4783 9.99667 55.8703 10.118 56.351 10.118ZM61.362 11V3.762H62.594V5.155C62.7153 4.80967 62.8857 4.525 63.105 4.301C63.3243 4.07233 63.574 3.902 63.854 3.79C64.1387 3.678 64.4327 3.622 64.736 3.622C64.8433 3.622 64.9483 3.629 65.051 3.643C65.1537 3.657 65.233 3.68033 65.289 3.713V4.966C65.219 4.93333 65.128 4.91233 65.016 4.903C64.9087 4.889 64.8177 4.882 64.743 4.882C64.4537 4.86333 64.183 4.882 63.931 4.938C63.679 4.98933 63.4573 5.08033 63.266 5.211C63.0747 5.34167 62.923 5.51433 62.811 5.729C62.7037 5.939 62.65 6.19567 62.65 6.499V11H61.362ZM69.2787 11.035C68.7794 11.035 68.392 10.9673 68.1167 10.832C67.8414 10.6967 67.6477 10.496 67.5357 10.23C67.4284 9.964 67.3747 9.63733 67.3747 9.25V4.707H66.1987V3.762H67.4097L67.7247 1.655H68.6767V3.755H70.3077V4.707H68.6767V9.208C68.6767 9.46467 68.7024 9.65367 68.7537 9.775C68.8097 9.89167 68.9007 9.96633 69.0267 9.999C69.1527 10.0317 69.33 10.048 69.5587 10.048H70.3497V10.916C70.261 10.9487 70.1257 10.9767 69.9437 11C69.7664 11.0233 69.5447 11.035 69.2787 11.035ZM75.7374 11V0.877999H82.1214L82.1144 2.019H77.0394V5.323H81.6104V6.457H77.0324V9.831L82.2544 9.845V11H75.7374ZM86.101 11.14C85.6297 11.14 85.2143 11.0583 84.855 10.895C84.5003 10.727 84.2203 10.4867 84.015 10.174C83.8143 9.86133 83.714 9.48333 83.714 9.04C83.714 8.23733 83.994 7.64 84.554 7.248C85.114 6.856 86.0123 6.646 87.249 6.618L88.537 6.583V6.016C88.537 5.57267 88.404 5.22267 88.138 4.966C87.872 4.70467 87.4613 4.574 86.906 4.574C86.4907 4.57867 86.1243 4.67667 85.807 4.868C85.4897 5.05933 85.2867 5.372 85.198 5.806H84.057C84.085 5.33467 84.2157 4.938 84.449 4.616C84.687 4.28933 85.0207 4.042 85.45 3.874C85.8793 3.706 86.3857 3.622 86.969 3.622C87.599 3.622 88.1217 3.71067 88.537 3.888C88.957 4.06533 89.2697 4.32667 89.475 4.672C89.685 5.01733 89.79 5.442 89.79 5.946V11H88.684L88.586 9.642C88.3107 10.2067 87.956 10.5987 87.522 10.818C87.0927 11.0327 86.619 11.14 86.101 11.14ZM86.486 10.209C86.7333 10.209 86.976 10.1647 87.214 10.076C87.4567 9.98733 87.676 9.86833 87.872 9.719C88.0727 9.565 88.2337 9.39467 88.355 9.208C88.4763 9.01667 88.537 8.82067 88.537 8.62V7.381L87.466 7.402C86.9107 7.41133 86.4487 7.46733 86.08 7.57C85.7113 7.67267 85.4337 7.83367 85.247 8.053C85.0603 8.27233 84.967 8.55933 84.967 8.914C84.967 9.32 85.1093 9.63733 85.394 9.866C85.6787 10.0947 86.0427 10.209 86.486 10.209ZM91.8093 11V3.762H93.0413V5.155C93.1626 4.80967 93.3329 4.525 93.5523 4.301C93.7716 4.07233 94.0213 3.902 94.3013 3.79C94.5859 3.678 94.8799 3.622 95.1833 3.622C95.2906 3.622 95.3956 3.629 95.4983 3.643C95.6009 3.657 95.6803 3.68033 95.7363 3.713V4.966C95.6663 4.93333 95.5753 4.91233 95.4633 4.903C95.3559 4.889 95.2649 4.882 95.1903 4.882C94.9009 4.86333 94.6303 4.882 94.3783 4.938C94.1263 4.98933 93.9046 5.08033 93.7133 5.211C93.5219 5.34167 93.3703 5.51433 93.2583 5.729C93.1509 5.939 93.0973 6.19567 93.0973 6.499V11H91.8093ZM100.855 11.14C100.43 11.14 100.071 11.084 99.777 10.972C99.4877 10.86 99.2497 10.7177 99.063 10.545C98.8764 10.3677 98.7317 10.188 98.629 10.006C98.5264 9.81933 98.4517 9.656 98.405 9.516L98.265 11H97.278V0.598H98.58V4.91C98.6407 4.78867 98.7317 4.65567 98.853 4.511C98.979 4.36633 99.14 4.22633 99.336 4.091C99.532 3.95567 99.763 3.84367 100.029 3.755C100.3 3.66633 100.608 3.622 100.953 3.622C101.858 3.622 102.577 3.937 103.109 4.567C103.646 5.197 103.914 6.12567 103.914 7.353C103.914 8.11367 103.8 8.77867 103.571 9.348C103.342 9.91267 103.002 10.3537 102.549 10.671C102.096 10.9837 101.532 11.14 100.855 11.14ZM100.624 10.146C101.212 10.146 101.69 9.91967 102.059 9.467C102.428 9.00967 102.612 8.284 102.612 7.29C102.612 6.44533 102.439 5.792 102.094 5.33C101.753 4.86333 101.254 4.63 100.596 4.63C100.115 4.63 99.728 4.735 99.434 4.945C99.1447 5.15033 98.93 5.45133 98.79 5.848C98.6547 6.24467 98.5847 6.72533 98.58 7.29C98.58 8.30267 98.7364 9.033 99.049 9.481C99.3664 9.92433 99.8914 10.146 100.624 10.146ZM108.264 11.14C107.886 11.1353 107.529 11.0817 107.193 10.979C106.862 10.8717 106.568 10.7153 106.311 10.51C106.055 10.3047 105.852 10.0503 105.702 9.747C105.558 9.439 105.485 9.082 105.485 8.676V3.762H106.78V8.543C106.78 9.01433 106.925 9.397 107.214 9.691C107.508 9.985 107.949 10.132 108.537 10.132C109.069 10.132 109.496 9.99433 109.818 9.719C110.145 9.439 110.308 9.02367 110.308 8.473V3.762H111.596V11H110.567L110.434 9.614C110.346 9.978 110.194 10.272 109.979 10.496C109.769 10.72 109.515 10.8857 109.216 10.993C108.922 11.0957 108.605 11.1447 108.264 11.14ZM116.364 11.14C115.422 11.14 114.675 10.818 114.124 10.174C113.578 9.53 113.305 8.58967 113.305 7.353C113.305 6.60167 113.415 5.946 113.634 5.386C113.854 4.826 114.183 4.392 114.621 4.084C115.06 3.776 115.606 3.622 116.259 3.622C116.609 3.622 116.917 3.66633 117.183 3.755C117.449 3.84367 117.68 3.95567 117.876 4.091C118.072 4.22633 118.231 4.36633 118.352 4.511C118.478 4.65567 118.572 4.78867 118.632 4.91V0.598H119.941V11H118.947L118.807 9.516C118.761 9.656 118.686 9.81933 118.583 10.006C118.481 10.188 118.336 10.3677 118.149 10.545C117.967 10.7177 117.729 10.86 117.435 10.972C117.141 11.084 116.784 11.14 116.364 11.14ZM116.595 10.146C117.323 10.146 117.844 9.92433 118.156 9.481C118.474 9.033 118.632 8.30267 118.632 7.29C118.628 6.72533 118.558 6.24467 118.422 5.848C118.287 5.45133 118.072 5.15033 117.778 4.945C117.489 4.735 117.102 4.63 116.616 4.63C116.024 4.63 115.541 4.84233 115.167 5.267C114.794 5.69167 114.607 6.366 114.607 7.29C114.607 8.19533 114.775 8.89767 115.111 9.397C115.447 9.89633 115.942 10.146 116.595 10.146ZM124.683 11.14C124.179 11.14 123.71 11.063 123.276 10.909C122.846 10.7503 122.489 10.5053 122.205 10.174C121.92 9.838 121.743 9.411 121.673 8.893H122.849C122.909 9.17767 123.026 9.41567 123.199 9.607C123.371 9.79367 123.584 9.936 123.836 10.034C124.092 10.1273 124.372 10.174 124.676 10.174C125.166 10.174 125.56 10.083 125.859 9.901C126.157 9.719 126.307 9.439 126.307 9.061C126.307 8.795 126.227 8.58267 126.069 8.424C125.915 8.26067 125.672 8.14167 125.341 8.067L123.843 7.696C123.259 7.556 122.793 7.33667 122.443 7.038C122.097 6.73933 121.922 6.32167 121.918 5.785C121.918 5.36033 122.02 4.987 122.226 4.665C122.431 4.343 122.737 4.08867 123.143 3.902C123.553 3.71533 124.064 3.622 124.676 3.622C125.464 3.622 126.099 3.79933 126.58 4.154C127.06 4.504 127.312 5.01967 127.336 5.701H126.188C126.141 5.35567 125.987 5.08267 125.726 4.882C125.464 4.67667 125.11 4.574 124.662 4.574C124.204 4.574 123.829 4.66733 123.535 4.854C123.245 5.036 123.101 5.32067 123.101 5.708C123.101 5.96467 123.203 6.16767 123.409 6.317C123.619 6.46167 123.922 6.583 124.319 6.681L125.775 7.045C126.106 7.13367 126.381 7.25033 126.601 7.395C126.82 7.53967 126.993 7.70067 127.119 7.878C127.245 8.05533 127.333 8.242 127.385 8.438C127.441 8.62933 127.469 8.81367 127.469 8.991C127.469 9.43433 127.359 9.817 127.14 10.139C126.92 10.4563 126.603 10.7037 126.188 10.881C125.772 11.0537 125.271 11.14 124.683 11.14ZM130.749 7.899V6.884L134.298 6.87V7.892L130.749 7.899ZM139.192 11L136.273 0.877999H137.582L139.822 8.935L142.104 0.877999H143.119L145.394 8.935L147.676 0.877999H148.978L146.024 11H144.827L142.608 3.153L140.354 11H139.192ZM150.401 11V3.762H151.654V11H150.401ZM150.366 2.229V0.885H151.689V2.229H150.366ZM153.907 11V3.762H155.139V5.155C155.26 4.80967 155.431 4.525 155.65 4.301C155.869 4.07233 156.119 3.902 156.399 3.79C156.684 3.678 156.978 3.622 157.281 3.622C157.388 3.622 157.493 3.629 157.596 3.643C157.699 3.657 157.778 3.68033 157.834 3.713V4.966C157.764 4.93333 157.673 4.91233 157.561 4.903C157.454 4.889 157.363 4.882 157.288 4.882C156.999 4.86333 156.728 4.882 156.476 4.938C156.224 4.98933 156.002 5.08033 155.811 5.211C155.62 5.34167 155.468 5.51433 155.356 5.729C155.249 5.939 155.195 6.19567 155.195 6.499V11H153.907ZM162.325 11.14C161.653 11.14 161.061 10.993 160.547 10.699C160.034 10.405 159.633 9.98267 159.343 9.432C159.054 8.88133 158.909 8.221 158.909 7.451C158.909 6.69033 159.04 6.023 159.301 5.449C159.563 4.875 159.941 4.427 160.435 4.105C160.935 3.783 161.534 3.622 162.234 3.622C162.916 3.622 163.492 3.769 163.963 4.063C164.435 4.357 164.792 4.77233 165.034 5.309C165.282 5.841 165.405 6.47333 165.405 7.206V7.682H160.218C160.218 8.13933 160.293 8.55467 160.442 8.928C160.596 9.29667 160.827 9.59067 161.135 9.81C161.443 10.0293 161.833 10.139 162.304 10.139C162.766 10.139 163.163 10.0317 163.494 9.817C163.83 9.60233 164.045 9.292 164.138 8.886H165.356C165.272 9.376 165.076 9.789 164.768 10.125C164.465 10.461 164.099 10.7153 163.669 10.888C163.245 11.056 162.797 11.14 162.325 11.14ZM160.225 6.807H164.159C164.159 6.39167 164.089 6.01833 163.949 5.687C163.809 5.351 163.595 5.08733 163.305 4.896C163.021 4.7 162.661 4.602 162.227 4.602C161.775 4.602 161.399 4.71167 161.1 4.931C160.802 5.14567 160.58 5.42333 160.435 5.764C160.291 6.1 160.221 6.44767 160.225 6.807ZM169.023 11.091C168.631 11.091 168.314 11.0373 168.071 10.93C167.833 10.8227 167.649 10.678 167.518 10.496C167.392 10.314 167.306 10.1063 167.259 9.873C167.217 9.635 167.196 9.39 167.196 9.138V0.598H168.47V9.012C168.47 9.376 168.54 9.649 168.68 9.831C168.825 10.013 169.025 10.1133 169.282 10.132L169.674 10.139V10.979C169.567 11.0117 169.455 11.0373 169.338 11.056C169.221 11.0793 169.116 11.091 169.023 11.091ZM174.151 11.14C173.479 11.14 172.887 10.993 172.373 10.699C171.86 10.405 171.459 9.98267 171.169 9.432C170.88 8.88133 170.735 8.221 170.735 7.451C170.735 6.69033 170.866 6.023 171.127 5.449C171.389 4.875 171.767 4.427 172.261 4.105C172.761 3.783 173.36 3.622 174.06 3.622C174.742 3.622 175.318 3.769 175.789 4.063C176.261 4.357 176.618 4.77233 176.86 5.309C177.108 5.841 177.231 6.47333 177.231 7.206V7.682H172.044C172.044 8.13933 172.119 8.55467 172.268 8.928C172.422 9.29667 172.653 9.59067 172.961 9.81C173.269 10.0293 173.659 10.139 174.13 10.139C174.592 10.139 174.989 10.0317 175.32 9.817C175.656 9.60233 175.871 9.292 175.964 8.886H177.182C177.098 9.376 176.902 9.789 176.594 10.125C176.291 10.461 175.925 10.7153 175.495 10.888C175.071 11.056 174.623 11.14 174.151 11.14ZM172.051 6.807H175.985C175.985 6.39167 175.915 6.01833 175.775 5.687C175.635 5.351 175.421 5.08733 175.131 4.896C174.847 4.7 174.487 4.602 174.053 4.602C173.601 4.602 173.225 4.71167 172.926 4.931C172.628 5.14567 172.406 5.42333 172.261 5.764C172.117 6.1 172.047 6.44767 172.051 6.807ZM181.585 11.14C181.081 11.14 180.612 11.063 180.178 10.909C179.749 10.7503 179.392 10.5053 179.107 10.174C178.822 9.838 178.645 9.411 178.575 8.893H179.751C179.812 9.17767 179.928 9.41567 180.101 9.607C180.274 9.79367 180.486 9.936 180.738 10.034C180.995 10.1273 181.275 10.174 181.578 10.174C182.068 10.174 182.462 10.083 182.761 9.901C183.06 9.719 183.209 9.439 183.209 9.061C183.209 8.795 183.13 8.58267 182.971 8.424C182.817 8.26067 182.574 8.14167 182.243 8.067L180.745 7.696C180.162 7.556 179.695 7.33667 179.345 7.038C179 6.73933 178.825 6.32167 178.82 5.785C178.82 5.36033 178.923 4.987 179.128 4.665C179.333 4.343 179.639 4.08867 180.045 3.902C180.456 3.71533 180.967 3.622 181.578 3.622C182.367 3.622 183.001 3.79933 183.482 4.154C183.963 4.504 184.215 5.01967 184.238 5.701H183.09C183.043 5.35567 182.889 5.08267 182.628 4.882C182.367 4.67667 182.012 4.574 181.564 4.574C181.107 4.574 180.731 4.66733 180.437 4.854C180.148 5.036 180.003 5.32067 180.003 5.708C180.003 5.96467 180.106 6.16767 180.311 6.317C180.521 6.46167 180.824 6.583 181.221 6.681L182.677 7.045C183.008 7.13367 183.284 7.25033 183.503 7.395C183.722 7.53967 183.895 7.70067 184.021 7.878C184.147 8.05533 184.236 8.242 184.287 8.438C184.343 8.62933 184.371 8.81367 184.371 8.991C184.371 9.43433 184.261 9.817 184.042 10.139C183.823 10.4563 183.505 10.7037 183.09 10.881C182.675 11.0537 182.173 11.14 181.585 11.14ZM188.64 11.14C188.136 11.14 187.667 11.063 187.233 10.909C186.804 10.7503 186.447 10.5053 186.162 10.174C185.877 9.838 185.7 9.411 185.63 8.893H186.806C186.867 9.17767 186.983 9.41567 187.156 9.607C187.329 9.79367 187.541 9.936 187.793 10.034C188.05 10.1273 188.33 10.174 188.633 10.174C189.123 10.174 189.517 10.083 189.816 9.901C190.115 9.719 190.264 9.439 190.264 9.061C190.264 8.795 190.185 8.58267 190.026 8.424C189.872 8.26067 189.629 8.14167 189.298 8.067L187.8 7.696C187.217 7.556 186.75 7.33667 186.4 7.038C186.055 6.73933 185.88 6.32167 185.875 5.785C185.875 5.36033 185.978 4.987 186.183 4.665C186.388 4.343 186.694 4.08867 187.1 3.902C187.511 3.71533 188.022 3.622 188.633 3.622C189.422 3.622 190.056 3.79933 190.537 4.154C191.018 4.504 191.27 5.01967 191.293 5.701H190.145C190.098 5.35567 189.944 5.08267 189.683 4.882C189.422 4.67667 189.067 4.574 188.619 4.574C188.162 4.574 187.786 4.66733 187.492 4.854C187.203 5.036 187.058 5.32067 187.058 5.708C187.058 5.96467 187.161 6.16767 187.366 6.317C187.576 6.46167 187.879 6.583 188.276 6.681L189.732 7.045C190.063 7.13367 190.339 7.25033 190.558 7.395C190.777 7.53967 190.95 7.70067 191.076 7.878C191.202 8.05533 191.291 8.242 191.342 8.438C191.398 8.62933 191.426 8.81367 191.426 8.991C191.426 9.43433 191.316 9.817 191.097 10.139C190.878 10.4563 190.56 10.7037 190.145 10.881C189.73 11.0537 189.228 11.14 188.64 11.14ZM0.337 31V20.878H6.721L6.714 22.019H1.639V25.323H6.21V26.457H1.632V29.831L6.854 29.845V31H0.337ZM10.7006 31.14C10.2293 31.14 9.81394 31.0583 9.45461 30.895C9.09994 30.727 8.81994 30.4867 8.61461 30.174C8.41394 29.8613 8.31361 29.4833 8.31361 29.04C8.31361 28.2373 8.59361 27.64 9.15361 27.248C9.71361 26.856 10.6119 26.646 11.8486 26.618L13.1366 26.583V26.016C13.1366 25.5727 13.0036 25.2227 12.7376 24.966C12.4716 24.7047 12.0609 24.574 11.5056 24.574C11.0903 24.5787 10.7239 24.6767 10.4066 24.868C10.0893 25.0593 9.88628 25.372 9.79761 25.806H8.65661C8.68461 25.3347 8.81528 24.938 9.04861 24.616C9.28661 24.2893 9.62028 24.042 10.0496 23.874C10.4789 23.706 10.9853 23.622 11.5686 23.622C12.1986 23.622 12.7213 23.7107 13.1366 23.888C13.5566 24.0653 13.8693 24.3267 14.0746 24.672C14.2846 25.0173 14.3896 25.442 14.3896 25.946V31H13.2836L13.1856 29.642C12.9103 30.2067 12.5556 30.5987 12.1216 30.818C11.6923 31.0327 11.2186 31.14 10.7006 31.14ZM11.0856 30.209C11.3329 30.209 11.5756 30.1647 11.8136 30.076C12.0563 29.9873 12.2756 29.8683 12.4716 29.719C12.6723 29.565 12.8333 29.3947 12.9546 29.208C13.0759 29.0167 13.1366 28.8207 13.1366 28.62V27.381L12.0656 27.402C11.5103 27.4113 11.0483 27.4673 10.6796 27.57C10.3109 27.6727 10.0333 27.8337 9.84661 28.053C9.65994 28.2723 9.56661 28.5593 9.56661 28.914C9.56661 29.32 9.70894 29.6373 9.99361 29.866C10.2783 30.0947 10.6423 30.209 11.0856 30.209ZM16.4089 31V23.762H17.6409V25.155C17.7622 24.8097 17.9326 24.525 18.1519 24.301C18.3712 24.0723 18.6209 23.902 18.9009 23.79C19.1856 23.678 19.4796 23.622 19.7829 23.622C19.8902 23.622 19.9952 23.629 20.0979 23.643C20.2006 23.657 20.2799 23.6803 20.3359 23.713V24.966C20.2659 24.9333 20.1749 24.9123 20.0629 24.903C19.9556 24.889 19.8646 24.882 19.7899 24.882C19.5006 24.8633 19.2299 24.882 18.9779 24.938C18.7259 24.9893 18.5042 25.0803 18.3129 25.211C18.1216 25.3417 17.9699 25.5143 17.8579 25.729C17.7506 25.939 17.6969 26.1957 17.6969 26.499V31H16.4089ZM21.8776 33.254V23.762H23.1656L23.1796 25.022C23.2636 24.8727 23.371 24.7163 23.5016 24.553C23.637 24.3897 23.8003 24.238 23.9916 24.098C24.1876 23.958 24.414 23.8437 24.6706 23.755C24.932 23.6663 25.2283 23.622 25.5596 23.622C26.1383 23.622 26.647 23.755 27.0856 24.021C27.529 24.2823 27.8743 24.6837 28.1216 25.225C28.369 25.7663 28.4926 26.4523 28.4926 27.283C28.4926 28.1137 28.3713 28.816 28.1286 29.39C27.8906 29.9593 27.5453 30.3933 27.0926 30.692C26.64 30.9907 26.094 31.14 25.4546 31.14C25.1326 31.14 24.8456 31.0933 24.5936 31C24.3463 30.9113 24.1293 30.7947 23.9426 30.65C23.7606 30.5007 23.6066 30.342 23.4806 30.174C23.3593 30.006 23.259 29.845 23.1796 29.691V33.254H21.8776ZM25.2096 30.132C25.807 30.132 26.2946 29.9057 26.6726 29.453C27.0506 28.9957 27.2396 28.2863 27.2396 27.325C27.2396 26.499 27.067 25.8433 26.7216 25.358C26.3763 24.8727 25.8723 24.63 25.2096 24.63C24.5376 24.63 24.029 24.8797 23.6836 25.379C23.3383 25.8737 23.1656 26.5223 23.1656 27.325C23.1656 27.843 23.2426 28.3143 23.3966 28.739C23.5506 29.1637 23.7793 29.502 24.0826 29.754C24.386 30.006 24.7616 30.132 25.2096 30.132ZM30.2175 31V20.598H31.4775V24.826C31.5988 24.6253 31.7622 24.4387 31.9675 24.266C32.1728 24.0887 32.4225 23.9463 32.7165 23.839C33.0105 23.727 33.3512 23.671 33.7385 23.671C34.2098 23.671 34.6368 23.7597 35.0195 23.937C35.4022 24.1097 35.7055 24.357 35.9295 24.679C36.1535 25.001 36.2655 25.3837 36.2655 25.827V31H34.9705V26.086C34.9705 25.652 34.8212 25.3183 34.5225 25.085C34.2285 24.847 33.8435 24.728 33.3675 24.728C33.0455 24.728 32.7422 24.7817 32.4575 24.889C32.1728 24.9917 31.9418 25.1503 31.7645 25.365C31.5918 25.575 31.5055 25.8433 31.5055 26.17V31H30.2175ZM41.1819 31.14C40.5146 31.14 39.9312 30.9977 39.4319 30.713C38.9372 30.4237 38.5522 30.0013 38.2769 29.446C38.0016 28.8907 37.8639 28.2117 37.8639 27.409C37.8639 26.653 37.9922 25.9903 38.2489 25.421C38.5056 24.8517 38.8812 24.4107 39.3759 24.098C39.8706 23.7807 40.4749 23.622 41.1889 23.622C41.8562 23.622 42.4349 23.769 42.9249 24.063C43.4149 24.3523 43.7952 24.7793 44.0659 25.344C44.3412 25.9087 44.4789 26.597 44.4789 27.409C44.4789 28.1463 44.3529 28.795 44.1009 29.355C43.8489 29.915 43.4779 30.3537 42.9879 30.671C42.5026 30.9837 41.9006 31.14 41.1819 31.14ZM41.1889 30.118C41.6182 30.118 41.9822 30.0083 42.2809 29.789C42.5796 29.5697 42.8059 29.2547 42.9599 28.844C43.1186 28.4333 43.1979 27.9457 43.1979 27.381C43.1979 26.863 43.1279 26.3987 42.9879 25.988C42.8526 25.5727 42.6379 25.2437 42.3439 25.001C42.0499 24.7583 41.6649 24.637 41.1889 24.637C40.7502 24.637 40.3792 24.7467 40.0759 24.966C39.7726 25.1807 39.5416 25.4933 39.3829 25.904C39.2289 26.3147 39.1519 26.807 39.1519 27.381C39.1519 27.8897 39.2196 28.3517 39.3549 28.767C39.4949 29.1823 39.7142 29.5113 40.0129 29.754C40.3162 29.9967 40.7082 30.118 41.1889 30.118ZM46.1999 31V23.762H47.4529V24.812C47.5696 24.6113 47.7306 24.4223 47.9359 24.245C48.1459 24.0677 48.3979 23.9253 48.6919 23.818C48.9906 23.7107 49.3336 23.657 49.7209 23.657C50.1782 23.657 50.5982 23.748 50.9809 23.93C51.3682 24.112 51.6762 24.3967 51.9049 24.784C52.1382 25.1667 52.2549 25.6613 52.2549 26.268V31H50.9599V26.394C50.9599 25.8293 50.8106 25.4117 50.5119 25.141C50.2179 24.8657 49.8352 24.728 49.3639 24.728C49.0372 24.728 48.7316 24.7817 48.4469 24.889C48.1622 24.9917 47.9312 25.1503 47.7539 25.365C47.5766 25.575 47.4879 25.841 47.4879 26.163V31H46.1999ZM57.339 31.14C56.667 31.14 56.0743 30.993 55.561 30.699C55.0477 30.405 54.6463 29.9827 54.357 29.432C54.0677 28.8813 53.923 28.221 53.923 27.451C53.923 26.6903 54.0537 26.023 54.315 25.449C54.5763 24.875 54.9543 24.427 55.449 24.105C55.9483 23.783 56.548 23.622 57.248 23.622C57.9293 23.622 58.5057 23.769 58.977 24.063C59.4483 24.357 59.8053 24.7723 60.048 25.309C60.2953 25.841 60.419 26.4733 60.419 27.206V27.682H55.232C55.232 28.1393 55.3067 28.5547 55.456 28.928C55.61 29.2967 55.841 29.5907 56.149 29.81C56.457 30.0293 56.8467 30.139 57.318 30.139C57.78 30.139 58.1767 30.0317 58.508 29.817C58.844 29.6023 59.0587 29.292 59.152 28.886H60.37C60.286 29.376 60.09 29.789 59.782 30.125C59.4787 30.461 59.1123 30.7153 58.683 30.888C58.2583 31.056 57.8103 31.14 57.339 31.14ZM55.239 26.807H59.173C59.173 26.3917 59.103 26.0183 58.963 25.687C58.823 25.351 58.6083 25.0873 58.319 24.896C58.0343 24.7 57.675 24.602 57.241 24.602C56.7883 24.602 56.4127 24.7117 56.114 24.931C55.8153 25.1457 55.5937 25.4233 55.449 25.764C55.3043 26.1 55.2343 26.4477 55.239 26.807ZM64.7727 31.14C64.2687 31.14 63.7997 31.063 63.3657 30.909C62.9363 30.7503 62.5793 30.5053 62.2947 30.174C62.01 29.838 61.8327 29.411 61.7627 28.893H62.9387C62.9993 29.1777 63.116 29.4157 63.2887 29.607C63.4613 29.7937 63.6737 29.936 63.9257 30.034C64.1823 30.1273 64.4623 30.174 64.7657 30.174C65.2557 30.174 65.65 30.083 65.9487 29.901C66.2473 29.719 66.3967 29.439 66.3967 29.061C66.3967 28.795 66.3173 28.5827 66.1587 28.424C66.0047 28.2607 65.762 28.1417 65.4307 28.067L63.9327 27.696C63.3493 27.556 62.8827 27.3367 62.5327 27.038C62.1873 26.7393 62.0123 26.3217 62.0077 25.785C62.0077 25.3603 62.1103 24.987 62.3157 24.665C62.521 24.343 62.8267 24.0887 63.2327 23.902C63.6433 23.7153 64.1543 23.622 64.7657 23.622C65.5543 23.622 66.189 23.7993 66.6697 24.154C67.1503 24.504 67.4023 25.0197 67.4257 25.701H66.2777C66.231 25.3557 66.077 25.0827 65.8157 24.882C65.5543 24.6767 65.1997 24.574 64.7517 24.574C64.2943 24.574 63.9187 24.6673 63.6247 24.854C63.3353 25.036 63.1907 25.3207 63.1907 25.708C63.1907 25.9647 63.2933 26.1677 63.4987 26.317C63.7087 26.4617 64.012 26.583 64.4087 26.681L65.8647 27.045C66.196 27.1337 66.4713 27.2503 66.6907 27.395C66.91 27.5397 67.0827 27.7007 67.2087 27.878C67.3347 28.0553 67.4233 28.242 67.4747 28.438C67.5307 28.6293 67.5587 28.8137 67.5587 28.991C67.5587 29.4343 67.449 29.817 67.2297 30.139C67.0103 30.4563 66.693 30.7037 66.2777 30.881C65.8623 31.0537 65.3607 31.14 64.7727 31.14ZM70.8387 27.899V26.884L74.3877 26.87V27.892L70.8387 27.899ZM77.7061 31V20.878H80.9611C82.1931 20.878 83.1241 21.1043 83.7541 21.557C84.3888 22.0097 84.7061 22.663 84.7061 23.517C84.7061 24.0537 84.5661 24.5133 84.2861 24.896C84.0108 25.2787 83.5255 25.5937 82.8301 25.841C83.2268 25.925 83.5605 26.0463 83.8311 26.205C84.1065 26.3637 84.3258 26.5503 84.4891 26.765C84.6571 26.975 84.7761 27.2083 84.8461 27.465C84.9208 27.7217 84.9581 27.9923 84.9581 28.277C84.9581 29.1917 84.6315 29.8753 83.9781 30.328C83.3295 30.776 82.3588 31 81.0661 31H77.7061ZM79.0011 29.922H81.0521C81.8968 29.922 82.5385 29.7843 82.9771 29.509C83.4205 29.229 83.6421 28.7997 83.6421 28.221C83.6421 27.7963 83.5325 27.4533 83.3131 27.192C83.0985 26.926 82.8068 26.7323 82.4381 26.611C82.0695 26.4897 81.6588 26.429 81.2061 26.429H79.0011V29.922ZM79.0011 25.33H81.2061C81.4721 25.33 81.7358 25.3043 81.9971 25.253C82.2585 25.2017 82.4988 25.113 82.7181 24.987C82.9375 24.861 83.1148 24.693 83.2501 24.483C83.3855 24.2683 83.4531 24 83.4531 23.678C83.4531 23.09 83.2268 22.656 82.7741 22.376C82.3261 22.0913 81.7428 21.949 81.0241 21.949H79.0011V25.33ZM88.6597 31.091C88.2677 31.091 87.9504 31.0373 87.7077 30.93C87.4697 30.8227 87.2854 30.678 87.1547 30.496C87.0287 30.314 86.9424 30.1063 86.8957 29.873C86.8537 29.635 86.8327 29.39 86.8327 29.138V20.598H88.1067V29.012C88.1067 29.376 88.1767 29.649 88.3167 29.831C88.4614 30.013 88.6621 30.1133 88.9187 30.132L89.3107 30.139V30.979C89.2034 31.0117 89.0914 31.0373 88.9747 31.056C88.8581 31.0793 88.7531 31.091 88.6597 31.091ZM93.4986 31.14C93.1206 31.1353 92.7636 31.0817 92.4276 30.979C92.0962 30.8717 91.8022 30.7153 91.5456 30.51C91.2889 30.3047 91.0859 30.0503 90.9366 29.747C90.7919 29.439 90.7196 29.082 90.7196 28.676V23.762H92.0146V28.543C92.0146 29.0143 92.1592 29.397 92.4486 29.691C92.7426 29.985 93.1836 30.132 93.7716 30.132C94.3036 30.132 94.7306 29.9943 95.0526 29.719C95.3792 29.439 95.5426 29.0237 95.5426 28.473V23.762H96.8306V31H95.8016L95.6686 29.614C95.5799 29.978 95.4282 30.272 95.2136 30.496C95.0036 30.72 94.7492 30.8857 94.4506 30.993C94.1566 31.0957 93.8392 31.1447 93.4986 31.14ZM102.019 31.14C101.347 31.14 100.754 30.993 100.241 30.699C99.7273 30.405 99.326 29.9827 99.0367 29.432C98.7473 28.8813 98.6027 28.221 98.6027 27.451C98.6027 26.6903 98.7333 26.023 98.9947 25.449C99.256 24.875 99.634 24.427 100.129 24.105C100.628 23.783 101.228 23.622 101.928 23.622C102.609 23.622 103.185 23.769 103.657 24.063C104.128 24.357 104.485 24.7723 104.728 25.309C104.975 25.841 105.099 26.4733 105.099 27.206V27.682H99.9117C99.9117 28.1393 99.9863 28.5547 100.136 28.928C100.29 29.2967 100.521 29.5907 100.829 29.81C101.137 30.0293 101.526 30.139 101.998 30.139C102.46 30.139 102.856 30.0317 103.188 29.817C103.524 29.6023 103.738 29.292 103.832 28.886H105.05C104.966 29.376 104.77 29.789 104.462 30.125C104.158 30.461 103.792 30.7153 103.363 30.888C102.938 31.056 102.49 31.14 102.019 31.14ZM99.9187 26.807H103.853C103.853 26.3917 103.783 26.0183 103.643 25.687C103.503 25.351 103.288 25.0873 102.999 24.896C102.714 24.7 102.355 24.602 101.921 24.602C101.468 24.602 101.092 24.7117 100.794 24.931C100.495 25.1457 100.273 25.4233 100.129 25.764C99.984 26.1 99.914 26.4477 99.9187 26.807ZM109.214 31.035C108.715 31.035 108.328 30.9673 108.052 30.832C107.777 30.6967 107.583 30.496 107.471 30.23C107.364 29.964 107.31 29.6373 107.31 29.25V24.707H106.134V23.762H107.345L107.66 21.655H108.612V23.755H110.243V24.707H108.612V29.208C108.612 29.4647 108.638 29.6537 108.689 29.775C108.745 29.8917 108.836 29.9663 108.962 29.999C109.088 30.0317 109.266 30.048 109.494 30.048H110.285V30.916C110.197 30.9487 110.061 30.9767 109.879 31C109.702 31.0233 109.48 31.035 109.214 31.035ZM114.709 31.14C114.042 31.14 113.459 30.9977 112.959 30.713C112.465 30.4237 112.08 30.0013 111.804 29.446C111.529 28.8907 111.391 28.2117 111.391 27.409C111.391 26.653 111.52 25.9903 111.776 25.421C112.033 24.8517 112.409 24.4107 112.903 24.098C113.398 23.7807 114.002 23.622 114.716 23.622C115.384 23.622 115.962 23.769 116.452 24.063C116.942 24.3523 117.323 24.7793 117.593 25.344C117.869 25.9087 118.006 26.597 118.006 27.409C118.006 28.1463 117.88 28.795 117.628 29.355C117.376 29.915 117.005 30.3537 116.515 30.671C116.03 30.9837 115.428 31.14 114.709 31.14ZM114.716 30.118C115.146 30.118 115.51 30.0083 115.808 29.789C116.107 29.5697 116.333 29.2547 116.487 28.844C116.646 28.4333 116.725 27.9457 116.725 27.381C116.725 26.863 116.655 26.3987 116.515 25.988C116.38 25.5727 116.165 25.2437 115.871 25.001C115.577 24.7583 115.192 24.637 114.716 24.637C114.278 24.637 113.907 24.7467 113.603 24.966C113.3 25.1807 113.069 25.4933 112.91 25.904C112.756 26.3147 112.679 26.807 112.679 27.381C112.679 27.8897 112.747 28.3517 112.882 28.767C113.022 29.1823 113.242 29.5113 113.54 29.754C113.844 29.9967 114.236 30.118 114.716 30.118ZM122.625 31.14C121.958 31.14 121.375 30.9977 120.875 30.713C120.381 30.4237 119.996 30.0013 119.72 29.446C119.445 28.8907 119.307 28.2117 119.307 27.409C119.307 26.653 119.436 25.9903 119.692 25.421C119.949 24.8517 120.325 24.4107 120.819 24.098C121.314 23.7807 121.918 23.622 122.632 23.622C123.3 23.622 123.878 23.769 124.368 24.063C124.858 24.3523 125.239 24.7793 125.509 25.344C125.785 25.9087 125.922 26.597 125.922 27.409C125.922 28.1463 125.796 28.795 125.544 29.355C125.292 29.915 124.921 30.3537 124.431 30.671C123.946 30.9837 123.344 31.14 122.625 31.14ZM122.632 30.118C123.062 30.118 123.426 30.0083 123.724 29.789C124.023 29.5697 124.249 29.2547 124.403 28.844C124.562 28.4333 124.641 27.9457 124.641 27.381C124.641 26.863 124.571 26.3987 124.431 25.988C124.296 25.5727 124.081 25.2437 123.787 25.001C123.493 24.7583 123.108 24.637 122.632 24.637C122.194 24.637 121.823 24.7467 121.519 24.966C121.216 25.1807 120.985 25.4933 120.826 25.904C120.672 26.3147 120.595 26.807 120.595 27.381C120.595 27.8897 120.663 28.3517 120.798 28.767C120.938 29.1823 121.158 29.5113 121.456 29.754C121.76 29.9967 122.152 30.118 122.632 30.118ZM129.968 31.035C129.469 31.035 129.081 30.9673 128.806 30.832C128.531 30.6967 128.337 30.496 128.225 30.23C128.118 29.964 128.064 29.6373 128.064 29.25V24.707H126.888V23.762H128.099L128.414 21.655H129.366V23.755H130.997V24.707H129.366V29.208C129.366 29.4647 129.392 29.6537 129.443 29.775C129.499 29.8917 129.59 29.9663 129.716 29.999C129.842 30.0317 130.019 30.048 130.248 30.048H131.039V30.916C130.95 30.9487 130.815 30.9767 130.633 31C130.456 31.0233 130.234 31.035 129.968 31.035ZM132.757 31V20.598H134.017V24.826C134.138 24.6253 134.301 24.4387 134.507 24.266C134.712 24.0887 134.962 23.9463 135.256 23.839C135.55 23.727 135.89 23.671 136.278 23.671C136.749 23.671 137.176 23.7597 137.559 23.937C137.941 24.1097 138.245 24.357 138.469 24.679C138.693 25.001 138.805 25.3837 138.805 25.827V31H137.51V26.086C137.51 25.652 137.36 25.3183 137.062 25.085C136.768 24.847 136.383 24.728 135.907 24.728C135.585 24.728 135.281 24.7817 134.997 24.889C134.712 24.9917 134.481 25.1503 134.304 25.365C134.131 25.575 134.045 25.8433 134.045 26.17V31H132.757ZM144.493 31V20.878H145.788V31H144.493ZM148.192 31V23.762H149.445V24.812C149.562 24.6113 149.723 24.4223 149.928 24.245C150.138 24.0677 150.39 23.9253 150.684 23.818C150.983 23.7107 151.326 23.657 151.713 23.657C152.17 23.657 152.59 23.748 152.973 23.93C153.36 24.112 153.668 24.3967 153.897 24.784C154.13 25.1667 154.247 25.6613 154.247 26.268V31H152.952V26.394C152.952 25.8293 152.803 25.4117 152.504 25.141C152.21 24.8657 151.827 24.728 151.356 24.728C151.029 24.728 150.724 24.7817 150.439 24.889C150.154 24.9917 149.923 25.1503 149.746 25.365C149.569 25.575 149.48 25.841 149.48 26.163V31H148.192ZM159.942 31V20.878H166.326L166.319 22.019H161.244V25.323H165.815V26.457H161.237V29.831L166.459 29.845V31H159.942ZM170.306 31.14C169.835 31.14 169.419 31.0583 169.06 30.895C168.705 30.727 168.425 30.4867 168.22 30.174C168.019 29.8613 167.919 29.4833 167.919 29.04C167.919 28.2373 168.199 27.64 168.759 27.248C169.319 26.856 170.217 26.646 171.454 26.618L172.742 26.583V26.016C172.742 25.5727 172.609 25.2227 172.343 24.966C172.077 24.7047 171.666 24.574 171.111 24.574C170.696 24.5787 170.329 24.6767 170.012 24.868C169.695 25.0593 169.492 25.372 169.403 25.806H168.262C168.29 25.3347 168.421 24.938 168.654 24.616C168.892 24.2893 169.226 24.042 169.655 23.874C170.084 23.706 170.591 23.622 171.174 23.622C171.804 23.622 172.327 23.7107 172.742 23.888C173.162 24.0653 173.475 24.3267 173.68 24.672C173.89 25.0173 173.995 25.442 173.995 25.946V31H172.889L172.791 29.642C172.516 30.2067 172.161 30.5987 171.727 30.818C171.298 31.0327 170.824 31.14 170.306 31.14ZM170.691 30.209C170.938 30.209 171.181 30.1647 171.419 30.076C171.662 29.9873 171.881 29.8683 172.077 29.719C172.278 29.565 172.439 29.3947 172.56 29.208C172.681 29.0167 172.742 28.8207 172.742 28.62V27.381L171.671 27.402C171.116 27.4113 170.654 27.4673 170.285 27.57C169.916 27.6727 169.639 27.8337 169.452 28.053C169.265 28.2723 169.172 28.5593 169.172 28.914C169.172 29.32 169.314 29.6373 169.599 29.866C169.884 30.0947 170.248 30.209 170.691 30.209ZM176.014 31V23.762H177.246V25.155C177.368 24.8097 177.538 24.525 177.757 24.301C177.977 24.0723 178.226 23.902 178.506 23.79C178.791 23.678 179.085 23.622 179.388 23.622C179.496 23.622 179.601 23.629 179.703 23.643C179.806 23.657 179.885 23.6803 179.941 23.713V24.966C179.871 24.9333 179.78 24.9123 179.668 24.903C179.561 24.889 179.47 24.882 179.395 24.882C179.106 24.8633 178.835 24.882 178.583 24.938C178.331 24.9893 178.11 25.0803 177.918 25.211C177.727 25.3417 177.575 25.5143 177.463 25.729C177.356 25.939 177.302 26.1957 177.302 26.499V31H176.014ZM180.157 31V29.348H181.697V31H180.157ZM184.012 31V29.348H185.552V31H184.012ZM187.868 31V29.348H189.408V31H187.868Z" fill="#191C1F"/>
</svg>
