<svg width="63" height="12" viewBox="0 0 63 12" fill="none" xmlns="http://www.w3.org/2000/svg">
<path d="M0.337 11V0.877999H6.644L6.637 2.012H1.667V5.358H6.133V6.478H1.667V11H0.337ZM11.0764 11.14C10.4091 11.14 9.82576 10.9977 9.32642 10.713C8.83176 10.4237 8.44676 10.0013 8.17142 9.446C7.89609 8.89067 7.75842 8.21167 7.75842 7.409C7.75842 6.653 7.88676 5.99033 8.14342 5.421C8.40009 4.85167 8.77576 4.41067 9.27042 4.098C9.76509 3.78067 10.3694 3.622 11.0834 3.622C11.7508 3.622 12.3294 3.769 12.8194 4.063C13.3094 4.35233 13.6898 4.77933 13.9604 5.344C14.2358 5.90867 14.3734 6.597 14.3734 7.409C14.3734 8.14633 14.2474 8.795 13.9954 9.355C13.7434 9.915 13.3724 10.3537 12.8824 10.671C12.3971 10.9837 11.7951 11.14 11.0764 11.14ZM11.0834 10.118C11.5128 10.118 11.8768 10.0083 12.1754 9.789C12.4741 9.56967 12.7004 9.25467 12.8544 8.844C13.0131 8.43333 13.0924 7.94567 13.0924 7.381C13.0924 6.863 13.0224 6.39867 12.8824 5.988C12.7471 5.57267 12.5324 5.24367 12.2384 5.001C11.9444 4.75833 11.5594 4.637 11.0834 4.637C10.6448 4.637 10.2738 4.74667 9.97042 4.966C9.66709 5.18067 9.43609 5.49333 9.27742 5.904C9.12342 6.31467 9.04642 6.807 9.04642 7.381C9.04642 7.88967 9.11409 8.35167 9.24942 8.767C9.38942 9.18233 9.60876 9.51133 9.90742 9.754C10.2108 9.99667 10.6028 10.118 11.0834 10.118ZM17.9214 11.091C17.5294 11.091 17.2121 11.0373 16.9694 10.93C16.7314 10.8227 16.5471 10.678 16.4164 10.496C16.2904 10.314 16.2041 10.1063 16.1574 9.873C16.1154 9.635 16.0944 9.39 16.0944 9.138V0.598H17.3684V9.012C17.3684 9.376 17.4384 9.649 17.5784 9.831C17.7231 10.013 17.9238 10.1133 18.1804 10.132L18.5724 10.139V10.979C18.4651 11.0117 18.3531 11.0373 18.2364 11.056C18.1198 11.0793 18.0148 11.091 17.9214 11.091ZM21.9546 11.091C21.5626 11.091 21.2453 11.0373 21.0026 10.93C20.7646 10.8227 20.5803 10.678 20.4496 10.496C20.3236 10.314 20.2373 10.1063 20.1906 9.873C20.1486 9.635 20.1276 9.39 20.1276 9.138V0.598H21.4016V9.012C21.4016 9.376 21.4716 9.649 21.6116 9.831C21.7563 10.013 21.957 10.1133 22.2136 10.132L22.6056 10.139V10.979C22.4983 11.0117 22.3863 11.0373 22.2696 11.056C22.153 11.0793 22.048 11.091 21.9546 11.091ZM26.9221 11.14C26.2548 11.14 25.6715 10.9977 25.1721 10.713C24.6775 10.4237 24.2925 10.0013 24.0171 9.446C23.7418 8.89067 23.6041 8.21167 23.6041 7.409C23.6041 6.653 23.7325 5.99033 23.9891 5.421C24.2458 4.85167 24.6215 4.41067 25.1161 4.098C25.6108 3.78067 26.2151 3.622 26.9291 3.622C27.5965 3.622 28.1751 3.769 28.6651 4.063C29.1551 4.35233 29.5355 4.77933 29.8061 5.344C30.0815 5.90867 30.2191 6.597 30.2191 7.409C30.2191 8.14633 30.0931 8.795 29.8411 9.355C29.5891 9.915 29.2181 10.3537 28.7281 10.671C28.2428 10.9837 27.6408 11.14 26.9221 11.14ZM26.9291 10.118C27.3585 10.118 27.7225 10.0083 28.0211 9.789C28.3198 9.56967 28.5461 9.25467 28.7001 8.844C28.8588 8.43333 28.9381 7.94567 28.9381 7.381C28.9381 6.863 28.8681 6.39867 28.7281 5.988C28.5928 5.57267 28.3781 5.24367 28.0841 5.001C27.7901 4.75833 27.4051 4.637 26.9291 4.637C26.4905 4.637 26.1195 4.74667 25.8161 4.966C25.5128 5.18067 25.2818 5.49333 25.1231 5.904C24.9691 6.31467 24.8921 6.807 24.8921 7.381C24.8921 7.88967 24.9598 8.35167 25.0951 8.767C25.2351 9.18233 25.4545 9.51133 25.7531 9.754C26.0565 9.99667 26.4485 10.118 26.9291 10.118ZM33.3774 11L31.1374 3.762H32.3414L33.9934 9.327H34.1054L35.7364 3.762H36.7164L38.4104 9.313H38.5294L40.1114 3.762H41.3294L39.1314 11H37.8574L36.2124 5.659L34.6374 11H33.3774ZM48.7779 11.14C48.3999 11.1353 48.0429 11.0817 47.7069 10.979C47.3755 10.8717 47.0815 10.7153 46.8249 10.51C46.5682 10.3047 46.3652 10.0503 46.2159 9.747C46.0712 9.439 45.9989 9.082 45.9989 8.676V3.762H47.2939V8.543C47.2939 9.01433 47.4385 9.397 47.7279 9.691C48.0219 9.985 48.4629 10.132 49.0509 10.132C49.5829 10.132 50.0099 9.99433 50.3319 9.719C50.6585 9.439 50.8219 9.02367 50.8219 8.473V3.762H52.1099V11H51.0809L50.9479 9.614C50.8592 9.978 50.7075 10.272 50.4929 10.496C50.2829 10.72 50.0285 10.8857 49.7299 10.993C49.4359 11.0957 49.1185 11.1447 48.7779 11.14ZM56.843 11.14C56.339 11.14 55.87 11.063 55.436 10.909C55.0066 10.7503 54.6496 10.5053 54.365 10.174C54.0803 9.838 53.903 9.411 53.833 8.893H55.009C55.0696 9.17767 55.1863 9.41567 55.359 9.607C55.5316 9.79367 55.744 9.936 55.996 10.034C56.2526 10.1273 56.5326 10.174 56.836 10.174C57.326 10.174 57.7203 10.083 58.019 9.901C58.3176 9.719 58.467 9.439 58.467 9.061C58.467 8.795 58.3876 8.58267 58.229 8.424C58.075 8.26067 57.8323 8.14167 57.501 8.067L56.003 7.696C55.4196 7.556 54.953 7.33667 54.603 7.038C54.2576 6.73933 54.0826 6.32167 54.078 5.785C54.078 5.36033 54.1806 4.987 54.386 4.665C54.5913 4.343 54.897 4.08867 55.303 3.902C55.7136 3.71533 56.2246 3.622 56.836 3.622C57.6246 3.622 58.2593 3.79933 58.74 4.154C59.2206 4.504 59.4726 5.01967 59.496 5.701H58.348C58.3013 5.35567 58.1473 5.08267 57.886 4.882C57.6246 4.67667 57.27 4.574 56.822 4.574C56.3646 4.574 55.989 4.66733 55.695 4.854C55.4056 5.036 55.261 5.32067 55.261 5.708C55.261 5.96467 55.3636 6.16767 55.569 6.317C55.779 6.46167 56.0823 6.583 56.479 6.681L57.935 7.045C58.2663 7.13367 58.5416 7.25033 58.761 7.395C58.9803 7.53967 59.153 7.70067 59.279 7.878C59.405 8.05533 59.4936 8.242 59.545 8.438C59.601 8.62933 59.629 8.81367 59.629 8.991C59.629 9.43433 59.5193 9.817 59.3 10.139C59.0806 10.4563 58.7633 10.7037 58.348 10.881C57.9326 11.0537 57.431 11.14 56.843 11.14ZM61.02 5.694V4.049H62.567V5.694H61.02ZM61.02 10.958V9.327H62.567V10.958H61.02Z" fill="white"/>
</svg>
