<svg width="413" height="14" viewBox="0 0 413 14" fill="none" xmlns="http://www.w3.org/2000/svg">
<path d="M0.385828 11V0.877999H1.72983V6.114L6.26583 0.877999H7.81283L4.43183 4.854L8.10683 11H6.64383L3.48683 5.799L1.72983 7.808V11H0.385828ZM9.6978 11V3.762H10.9508V11H9.6978ZM9.6628 2.229V0.885H10.9858V2.229H9.6628ZM13.2038 11V3.762H14.4568V4.812C14.5735 4.61133 14.7345 4.42233 14.9398 4.245C15.1498 4.06767 15.4018 3.92533 15.6958 3.818C15.9945 3.71067 16.3375 3.657 16.7248 3.657C17.1821 3.657 17.6021 3.748 17.9848 3.93C18.3721 4.112 18.6801 4.39667 18.9088 4.784C19.1421 5.16667 19.2588 5.66133 19.2588 6.268V11H17.9638V6.394C17.9638 5.82933 17.8145 5.41167 17.5158 5.141C17.2218 4.86567 16.8391 4.728 16.3678 4.728C16.0411 4.728 15.7355 4.78167 15.4508 4.889C15.1661 4.99167 14.9351 5.15033 14.7578 5.365C14.5805 5.575 14.4918 5.841 14.4918 6.163V11H13.2038ZM24.8609 11.14C24.4362 11.14 24.0769 11.084 23.7829 10.972C23.4936 10.86 23.2556 10.7177 23.0689 10.545C22.8822 10.3677 22.7376 10.188 22.6349 10.006C22.5322 9.81933 22.4576 9.656 22.4109 9.516L22.2709 11H21.2839V0.598H22.5859V4.91C22.6466 4.78867 22.7376 4.65567 22.8589 4.511C22.9849 4.36633 23.1459 4.22633 23.3419 4.091C23.5379 3.95567 23.7689 3.84367 24.0349 3.755C24.3056 3.66633 24.6136 3.622 24.9589 3.622C25.8642 3.622 26.5829 3.937 27.1149 4.567C27.6516 5.197 27.9199 6.12567 27.9199 7.353C27.9199 8.11367 27.8056 8.77867 27.5769 9.348C27.3482 9.91267 27.0076 10.3537 26.5549 10.671C26.1022 10.9837 25.5376 11.14 24.8609 11.14ZM24.6299 10.146C25.2179 10.146 25.6962 9.91967 26.0649 9.467C26.4336 9.00967 26.6179 8.284 26.6179 7.29C26.6179 6.44533 26.4452 5.792 26.0999 5.33C25.7592 4.86333 25.2599 4.63 24.6019 4.63C24.1212 4.63 23.7339 4.735 23.4399 4.945C23.1506 5.15033 22.9359 5.45133 22.7959 5.848C22.6606 6.24467 22.5906 6.72533 22.5859 7.29C22.5859 8.30267 22.7422 9.033 23.0549 9.481C23.3722 9.92433 23.8972 10.146 24.6299 10.146ZM32.5354 11.14C31.8681 11.14 31.2847 10.9977 30.7854 10.713C30.2907 10.4237 29.9057 10.0013 29.6304 9.446C29.3551 8.89067 29.2174 8.21167 29.2174 7.409C29.2174 6.653 29.3457 5.99033 29.6024 5.421C29.8591 4.85167 30.2347 4.41067 30.7294 4.098C31.2241 3.78067 31.8284 3.622 32.5424 3.622C33.2097 3.622 33.7884 3.769 34.2784 4.063C34.7684 4.35233 35.1487 4.77933 35.4194 5.344C35.6947 5.90867 35.8324 6.597 35.8324 7.409C35.8324 8.14633 35.7064 8.795 35.4544 9.355C35.2024 9.915 34.8314 10.3537 34.3414 10.671C33.8561 10.9837 33.2541 11.14 32.5354 11.14ZM32.5424 10.118C32.9717 10.118 33.3357 10.0083 33.6344 9.789C33.9331 9.56967 34.1594 9.25467 34.3134 8.844C34.4721 8.43333 34.5514 7.94567 34.5514 7.381C34.5514 6.863 34.4814 6.39867 34.3414 5.988C34.2061 5.57267 33.9914 5.24367 33.6974 5.001C33.4034 4.75833 33.0184 4.637 32.5424 4.637C32.1037 4.637 31.7327 4.74667 31.4294 4.966C31.1261 5.18067 30.8951 5.49333 30.7364 5.904C30.5824 6.31467 30.5054 6.807 30.5054 7.381C30.5054 7.88967 30.5731 8.35167 30.7084 8.767C30.8484 9.18233 31.0677 9.51133 31.3664 9.754C31.6697 9.99667 32.0617 10.118 32.5424 10.118ZM39.1141 7.899V6.884L42.6631 6.87V7.892L39.1141 7.899ZM48.5968 11.14C47.9248 11.14 47.3321 10.993 46.8188 10.699C46.3055 10.405 45.9041 9.98267 45.6148 9.432C45.3255 8.88133 45.1808 8.221 45.1808 7.451C45.1808 6.69033 45.3115 6.023 45.5728 5.449C45.8341 4.875 46.2121 4.427 46.7068 4.105C47.2061 3.783 47.8058 3.622 48.5058 3.622C49.1871 3.622 49.7635 3.769 50.2348 4.063C50.7061 4.357 51.0631 4.77233 51.3058 5.309C51.5531 5.841 51.6768 6.47333 51.6768 7.206V7.682H46.4898C46.4898 8.13933 46.5645 8.55467 46.7138 8.928C46.8678 9.29667 47.0988 9.59067 47.4068 9.81C47.7148 10.0293 48.1045 10.139 48.5758 10.139C49.0378 10.139 49.4345 10.0317 49.7658 9.817C50.1018 9.60233 50.3165 9.292 50.4098 8.886H51.6278C51.5438 9.376 51.3478 9.789 51.0398 10.125C50.7365 10.461 50.3701 10.7153 49.9408 10.888C49.5161 11.056 49.0681 11.14 48.5968 11.14ZM46.4968 6.807H50.4308C50.4308 6.39167 50.3608 6.01833 50.2208 5.687C50.0808 5.351 49.8661 5.08733 49.5768 4.896C49.2921 4.7 48.9328 4.602 48.4988 4.602C48.0461 4.602 47.6705 4.71167 47.3718 4.931C47.0731 5.14567 46.8515 5.42333 46.7068 5.764C46.5621 6.1 46.4921 6.44767 46.4968 6.807ZM57.4575 11.14C56.5475 11.14 55.7705 10.9323 55.1265 10.517C54.4872 10.1017 53.9972 9.50433 53.6565 8.725C53.3205 7.94567 53.1525 7.00533 53.1525 5.904C53.1525 4.80733 53.3205 3.874 53.6565 3.104C53.9925 2.334 54.4802 1.74833 55.1195 1.347C55.7635 0.940999 56.5428 0.737999 57.4575 0.737999C58.1715 0.737999 58.8038 0.887333 59.3545 1.186C59.9052 1.48 60.3485 1.87433 60.6845 2.369C61.0205 2.86367 61.2188 3.40733 61.2795 4H59.9005C59.8258 3.60333 59.6835 3.244 59.4735 2.922C59.2635 2.6 58.9882 2.34333 58.6475 2.152C58.3068 1.96067 57.8985 1.865 57.4225 1.865C56.8112 1.865 56.2932 2.00967 55.8685 2.299C55.4485 2.58367 55.1288 3.02467 54.9095 3.622C54.6948 4.21933 54.5875 4.98467 54.5875 5.918C54.5875 7.32733 54.8278 8.36333 55.3085 9.026C55.7938 9.684 56.4985 10.013 57.4225 10.013C57.8985 10.013 58.3068 9.91267 58.6475 9.712C58.9882 9.51133 59.2635 9.243 59.4735 8.907C59.6835 8.571 59.8258 8.207 59.9005 7.815H61.2795C61.2282 8.24433 61.1115 8.65967 60.9295 9.061C60.7522 9.45767 60.5072 9.81233 60.1945 10.125C59.8818 10.4377 59.4968 10.685 59.0395 10.867C58.5868 11.049 58.0595 11.14 57.4575 11.14ZM65.9905 11.14C65.3232 11.14 64.7398 10.9977 64.2405 10.713C63.7458 10.4237 63.3608 10.0013 63.0855 9.446C62.8102 8.89067 62.6725 8.21167 62.6725 7.409C62.6725 6.653 62.8008 5.99033 63.0575 5.421C63.3142 4.85167 63.6898 4.41067 64.1845 4.098C64.6792 3.78067 65.2835 3.622 65.9975 3.622C66.6648 3.622 67.2435 3.769 67.7335 4.063C68.2235 4.35233 68.6038 4.77933 68.8745 5.344C69.1498 5.90867 69.2875 6.597 69.2875 7.409C69.2875 8.14633 69.1615 8.795 68.9095 9.355C68.6575 9.915 68.2865 10.3537 67.7965 10.671C67.3112 10.9837 66.7092 11.14 65.9905 11.14ZM65.9975 10.118C66.4268 10.118 66.7908 10.0083 67.0895 9.789C67.3882 9.56967 67.6145 9.25467 67.7685 8.844C67.9272 8.43333 68.0065 7.94567 68.0065 7.381C68.0065 6.863 67.9365 6.39867 67.7965 5.988C67.6612 5.57267 67.4465 5.24367 67.1525 5.001C66.8585 4.75833 66.4735 4.637 65.9975 4.637C65.5588 4.637 65.1878 4.74667 64.8845 4.966C64.5812 5.18067 64.3502 5.49333 64.1915 5.904C64.0375 6.31467 63.9605 6.807 63.9605 7.381C63.9605 7.88967 64.0282 8.35167 64.1635 8.767C64.3035 9.18233 64.5228 9.51133 64.8215 9.754C65.1248 9.99667 65.5168 10.118 65.9975 10.118ZM71.0085 11V3.762H72.2545V4.812C72.4552 4.49467 72.7305 4.217 73.0805 3.979C73.4305 3.741 73.8855 3.622 74.4455 3.622C74.7068 3.622 74.9728 3.66633 75.2435 3.755C75.5188 3.84367 75.7708 3.97667 75.9995 4.154C76.2282 4.33133 76.4055 4.54833 76.5315 4.805C76.7555 4.45033 77.0588 4.16567 77.4415 3.951C77.8242 3.73167 78.2558 3.622 78.7365 3.622C78.9885 3.622 79.2522 3.66167 79.5275 3.741C79.8028 3.81567 80.0572 3.951 80.2905 4.147C80.5285 4.33833 80.7222 4.60667 80.8715 4.952C81.0208 5.29267 81.0955 5.73133 81.0955 6.268V11H79.7935V6.394C79.7935 5.95533 79.7235 5.617 79.5835 5.379C79.4435 5.13633 79.2592 4.966 79.0305 4.868C78.8065 4.77 78.5662 4.721 78.3095 4.721C78.0855 4.721 77.8475 4.76533 77.5955 4.854C77.3435 4.94267 77.1288 5.092 76.9515 5.302C76.7742 5.512 76.6855 5.799 76.6855 6.163V11H75.3975V6.016C75.3975 5.73133 75.3205 5.49333 75.1665 5.302C75.0172 5.11067 74.8282 4.966 74.5995 4.868C74.3755 4.77 74.1515 4.721 73.9275 4.721C73.6802 4.721 73.4305 4.77 73.1785 4.868C72.9312 4.966 72.7212 5.12233 72.5485 5.337C72.3805 5.547 72.2965 5.82233 72.2965 6.163V11H71.0085ZM83.1218 11V3.762H84.3678V4.812C84.5684 4.49467 84.8438 4.217 85.1938 3.979C85.5438 3.741 85.9988 3.622 86.5588 3.622C86.8201 3.622 87.0861 3.66633 87.3568 3.755C87.6321 3.84367 87.8841 3.97667 88.1128 4.154C88.3414 4.33133 88.5188 4.54833 88.6448 4.805C88.8688 4.45033 89.1721 4.16567 89.5548 3.951C89.9374 3.73167 90.3691 3.622 90.8498 3.622C91.1018 3.622 91.3654 3.66167 91.6408 3.741C91.9161 3.81567 92.1704 3.951 92.4038 4.147C92.6418 4.33833 92.8354 4.60667 92.9848 4.952C93.1341 5.29267 93.2088 5.73133 93.2088 6.268V11H91.9068V6.394C91.9068 5.95533 91.8368 5.617 91.6968 5.379C91.5568 5.13633 91.3724 4.966 91.1438 4.868C90.9198 4.77 90.6794 4.721 90.4228 4.721C90.1988 4.721 89.9608 4.76533 89.7088 4.854C89.4568 4.94267 89.2421 5.092 89.0648 5.302C88.8874 5.512 88.7988 5.799 88.7988 6.163V11H87.5108V6.016C87.5108 5.73133 87.4338 5.49333 87.2798 5.302C87.1304 5.11067 86.9414 4.966 86.7128 4.868C86.4888 4.77 86.2648 4.721 86.0408 4.721C85.7934 4.721 85.5438 4.77 85.2918 4.868C85.0444 4.966 84.8344 5.12233 84.6618 5.337C84.4938 5.547 84.4098 5.82233 84.4098 6.163V11H83.1218ZM98.2941 11.14C97.6221 11.14 97.0294 10.993 96.5161 10.699C96.0027 10.405 95.6014 9.98267 95.3121 9.432C95.0227 8.88133 94.8781 8.221 94.8781 7.451C94.8781 6.69033 95.0087 6.023 95.2701 5.449C95.5314 4.875 95.9094 4.427 96.4041 4.105C96.9034 3.783 97.5031 3.622 98.2031 3.622C98.8844 3.622 99.4607 3.769 99.9321 4.063C100.403 4.357 100.76 4.77233 101.003 5.309C101.25 5.841 101.374 6.47333 101.374 7.206V7.682H96.1871C96.1871 8.13933 96.2617 8.55467 96.4111 8.928C96.5651 9.29667 96.7961 9.59067 97.1041 9.81C97.4121 10.0293 97.8017 10.139 98.2731 10.139C98.7351 10.139 99.1317 10.0317 99.4631 9.817C99.7991 9.60233 100.014 9.292 100.107 8.886H101.325C101.241 9.376 101.045 9.789 100.737 10.125C100.434 10.461 100.067 10.7153 99.6381 10.888C99.2134 11.056 98.7654 11.14 98.2941 11.14ZM96.1941 6.807H100.128C100.128 6.39167 100.058 6.01833 99.9181 5.687C99.7781 5.351 99.5634 5.08733 99.2741 4.896C98.9894 4.7 98.6301 4.602 98.1961 4.602C97.7434 4.602 97.3677 4.71167 97.0691 4.931C96.7704 5.14567 96.5487 5.42333 96.4041 5.764C96.2594 6.1 96.1894 6.44767 96.1941 6.807ZM103.165 11V3.762H104.397V5.155C104.518 4.80967 104.688 4.525 104.908 4.301C105.127 4.07233 105.377 3.902 105.657 3.79C105.941 3.678 106.235 3.622 106.539 3.622C106.646 3.622 106.751 3.629 106.854 3.643C106.956 3.657 107.036 3.68033 107.092 3.713V4.966C107.022 4.93333 106.931 4.91233 106.819 4.903C106.711 4.889 106.62 4.882 106.546 4.882C106.256 4.86333 105.986 4.882 105.734 4.938C105.482 4.98933 105.26 5.08033 105.069 5.211C104.877 5.34167 104.726 5.51433 104.614 5.729C104.506 5.939 104.453 6.19567 104.453 6.499V11H103.165ZM111.436 11.14C110.783 11.14 110.204 10.9977 109.7 10.713C109.201 10.4283 108.809 10.0083 108.524 9.453C108.244 8.89767 108.104 8.21633 108.104 7.409C108.104 6.653 108.232 5.99267 108.489 5.428C108.75 4.85867 109.128 4.41533 109.623 4.098C110.122 3.78067 110.727 3.622 111.436 3.622C111.954 3.622 112.418 3.72233 112.829 3.923C113.244 4.119 113.585 4.399 113.851 4.763C114.117 5.127 114.28 5.55633 114.341 6.051H113.193C113.151 5.799 113.053 5.568 112.899 5.358C112.75 5.148 112.551 4.98 112.304 4.854C112.061 4.728 111.774 4.665 111.443 4.665C110.822 4.665 110.316 4.889 109.924 5.337C109.537 5.785 109.343 6.471 109.343 7.395C109.343 8.23033 109.52 8.9 109.875 9.404C110.234 9.90333 110.762 10.153 111.457 10.153C111.788 10.153 112.078 10.09 112.325 9.964C112.572 9.83333 112.771 9.663 112.92 9.453C113.069 9.23833 113.165 9.00967 113.207 8.767H114.334C114.273 9.25233 114.108 9.67233 113.837 10.027C113.571 10.3817 113.23 10.657 112.815 10.853C112.404 11.0443 111.945 11.14 111.436 11.14ZM119.157 11.14C118.485 11.14 117.893 10.993 117.379 10.699C116.866 10.405 116.465 9.98267 116.175 9.432C115.886 8.88133 115.741 8.221 115.741 7.451C115.741 6.69033 115.872 6.023 116.133 5.449C116.395 4.875 116.773 4.427 117.267 4.105C117.767 3.783 118.366 3.622 119.066 3.622C119.748 3.622 120.324 3.769 120.795 4.063C121.267 4.357 121.624 4.77233 121.866 5.309C122.114 5.841 122.237 6.47333 122.237 7.206V7.682H117.05C117.05 8.13933 117.125 8.55467 117.274 8.928C117.428 9.29667 117.659 9.59067 117.967 9.81C118.275 10.0293 118.665 10.139 119.136 10.139C119.598 10.139 119.995 10.0317 120.326 9.817C120.662 9.60233 120.877 9.292 120.97 8.886H122.188C122.104 9.376 121.908 9.789 121.6 10.125C121.297 10.461 120.931 10.7153 120.501 10.888C120.077 11.056 119.629 11.14 119.157 11.14ZM117.057 6.807H120.991C120.991 6.39167 120.921 6.01833 120.781 5.687C120.641 5.351 120.427 5.08733 120.137 4.896C119.853 4.7 119.493 4.602 119.059 4.602C118.607 4.602 118.231 4.71167 117.932 4.931C117.634 5.14567 117.412 5.42333 117.267 5.764C117.123 6.1 117.053 6.44767 117.057 6.807ZM129.87 11V2.068H126.601V0.877999H134.259V2.068H131.172V11H129.87ZM137.751 11.14C137.079 11.14 136.486 10.993 135.973 10.699C135.46 10.405 135.058 9.98267 134.769 9.432C134.48 8.88133 134.335 8.221 134.335 7.451C134.335 6.69033 134.466 6.023 134.727 5.449C134.988 4.875 135.366 4.427 135.861 4.105C136.36 3.783 136.96 3.622 137.66 3.622C138.341 3.622 138.918 3.769 139.389 4.063C139.86 4.357 140.217 4.77233 140.46 5.309C140.707 5.841 140.831 6.47333 140.831 7.206V7.682H135.644C135.644 8.13933 135.719 8.55467 135.868 8.928C136.022 9.29667 136.253 9.59067 136.561 9.81C136.869 10.0293 137.259 10.139 137.73 10.139C138.192 10.139 138.589 10.0317 138.92 9.817C139.256 9.60233 139.471 9.292 139.564 8.886H140.782C140.698 9.376 140.502 9.789 140.194 10.125C139.891 10.461 139.524 10.7153 139.095 10.888C138.67 11.056 138.222 11.14 137.751 11.14ZM135.651 6.807H139.585C139.585 6.39167 139.515 6.01833 139.375 5.687C139.235 5.351 139.02 5.08733 138.731 4.896C138.446 4.7 138.087 4.602 137.653 4.602C137.2 4.602 136.825 4.71167 136.526 4.931C136.227 5.14567 136.006 5.42333 135.861 5.764C135.716 6.1 135.646 6.44767 135.651 6.807ZM142.622 11V3.762H143.868V4.812C144.068 4.49467 144.344 4.217 144.694 3.979C145.044 3.741 145.499 3.622 146.059 3.622C146.32 3.622 146.586 3.66633 146.857 3.755C147.132 3.84367 147.384 3.97667 147.613 4.154C147.841 4.33133 148.019 4.54833 148.145 4.805C148.369 4.45033 148.672 4.16567 149.055 3.951C149.437 3.73167 149.869 3.622 150.35 3.622C150.602 3.622 150.865 3.66167 151.141 3.741C151.416 3.81567 151.67 3.951 151.904 4.147C152.142 4.33833 152.335 4.60667 152.485 4.952C152.634 5.29267 152.709 5.73133 152.709 6.268V11H151.407V6.394C151.407 5.95533 151.337 5.617 151.197 5.379C151.057 5.13633 150.872 4.966 150.644 4.868C150.42 4.77 150.179 4.721 149.923 4.721C149.699 4.721 149.461 4.76533 149.209 4.854C148.957 4.94267 148.742 5.092 148.565 5.302C148.387 5.512 148.299 5.799 148.299 6.163V11H147.011V6.016C147.011 5.73133 146.934 5.49333 146.78 5.302C146.63 5.11067 146.441 4.966 146.213 4.868C145.989 4.77 145.765 4.721 145.541 4.721C145.293 4.721 145.044 4.77 144.792 4.868C144.544 4.966 144.334 5.12233 144.162 5.337C143.994 5.547 143.91 5.82233 143.91 6.163V11H142.622ZM154.735 13.254V3.762H156.023L156.037 5.022C156.121 4.87267 156.228 4.71633 156.359 4.553C156.494 4.38967 156.658 4.238 156.849 4.098C157.045 3.958 157.271 3.84367 157.528 3.755C157.789 3.66633 158.086 3.622 158.417 3.622C158.996 3.622 159.504 3.755 159.943 4.021C160.386 4.28233 160.732 4.68367 160.979 5.225C161.226 5.76633 161.35 6.45233 161.35 7.283C161.35 8.11367 161.229 8.816 160.986 9.39C160.748 9.95933 160.403 10.3933 159.95 10.692C159.497 10.9907 158.951 11.14 158.312 11.14C157.99 11.14 157.703 11.0933 157.451 11C157.204 10.9113 156.987 10.7947 156.8 10.65C156.618 10.5007 156.464 10.342 156.338 10.174C156.217 10.006 156.116 9.845 156.037 9.691V13.254H154.735ZM158.067 10.132C158.664 10.132 159.152 9.90567 159.53 9.453C159.908 8.99567 160.097 8.28633 160.097 7.325C160.097 6.499 159.924 5.84333 159.579 5.358C159.234 4.87267 158.73 4.63 158.067 4.63C157.395 4.63 156.886 4.87967 156.541 5.379C156.196 5.87367 156.023 6.52233 156.023 7.325C156.023 7.843 156.1 8.31433 156.254 8.739C156.408 9.16367 156.637 9.502 156.94 9.754C157.243 10.006 157.619 10.132 158.067 10.132ZM164.902 11.091C164.51 11.091 164.193 11.0373 163.95 10.93C163.712 10.8227 163.528 10.678 163.397 10.496C163.271 10.314 163.185 10.1063 163.138 9.873C163.096 9.635 163.075 9.39 163.075 9.138V0.598H164.349V9.012C164.349 9.376 164.419 9.649 164.559 9.831C164.704 10.013 164.904 10.1133 165.161 10.132L165.553 10.139V10.979C165.446 11.0117 165.334 11.0373 165.217 11.056C165.1 11.0793 164.995 11.091 164.902 11.091ZM169.275 11.14C168.803 11.14 168.388 11.0583 168.029 10.895C167.674 10.727 167.394 10.4867 167.189 10.174C166.988 9.86133 166.888 9.48333 166.888 9.04C166.888 8.23733 167.168 7.64 167.728 7.248C168.288 6.856 169.186 6.646 170.423 6.618L171.711 6.583V6.016C171.711 5.57267 171.578 5.22267 171.312 4.966C171.046 4.70467 170.635 4.574 170.08 4.574C169.664 4.57867 169.298 4.67667 168.981 4.868C168.663 5.05933 168.46 5.372 168.372 5.806H167.231C167.259 5.33467 167.389 4.938 167.623 4.616C167.861 4.28933 168.194 4.042 168.624 3.874C169.053 3.706 169.559 3.622 170.143 3.622C170.773 3.622 171.295 3.71067 171.711 3.888C172.131 4.06533 172.443 4.32667 172.649 4.672C172.859 5.01733 172.964 5.442 172.964 5.946V11H171.858L171.76 9.642C171.484 10.2067 171.13 10.5987 170.696 10.818C170.266 11.0327 169.793 11.14 169.275 11.14ZM169.66 10.209C169.907 10.209 170.15 10.1647 170.388 10.076C170.63 9.98733 170.85 9.86833 171.046 9.719C171.246 9.565 171.407 9.39467 171.529 9.208C171.65 9.01667 171.711 8.82067 171.711 8.62V7.381L170.64 7.402C170.084 7.41133 169.622 7.46733 169.254 7.57C168.885 7.67267 168.607 7.83367 168.421 8.053C168.234 8.27233 168.141 8.55933 168.141 8.914C168.141 9.32 168.283 9.63733 168.568 9.866C168.852 10.0947 169.216 10.209 169.66 10.209ZM177.335 11.035C176.836 11.035 176.449 10.9673 176.173 10.832C175.898 10.6967 175.704 10.496 175.592 10.23C175.485 9.964 175.431 9.63733 175.431 9.25V4.707H174.255V3.762H175.466L175.781 1.655H176.733V3.755H178.364V4.707H176.733V9.208C176.733 9.46467 176.759 9.65367 176.81 9.775C176.866 9.89167 176.957 9.96633 177.083 9.999C177.209 10.0317 177.387 10.048 177.615 10.048H178.406V10.916C178.318 10.9487 178.182 10.9767 178 11C177.823 11.0233 177.601 11.035 177.335 11.035ZM182.991 11.14C182.319 11.14 181.727 10.993 181.213 10.699C180.7 10.405 180.299 9.98267 180.009 9.432C179.72 8.88133 179.575 8.221 179.575 7.451C179.575 6.69033 179.706 6.023 179.967 5.449C180.229 4.875 180.607 4.427 181.101 4.105C181.601 3.783 182.2 3.622 182.9 3.622C183.582 3.622 184.158 3.769 184.629 4.063C185.101 4.357 185.458 4.77233 185.7 5.309C185.948 5.841 186.071 6.47333 186.071 7.206V7.682H180.884C180.884 8.13933 180.959 8.55467 181.108 8.928C181.262 9.29667 181.493 9.59067 181.801 9.81C182.109 10.0293 182.499 10.139 182.97 10.139C183.432 10.139 183.829 10.0317 184.16 9.817C184.496 9.60233 184.711 9.292 184.804 8.886H186.022C185.938 9.376 185.742 9.789 185.434 10.125C185.131 10.461 184.765 10.7153 184.335 10.888C183.911 11.056 183.463 11.14 182.991 11.14ZM180.891 6.807H184.825C184.825 6.39167 184.755 6.01833 184.615 5.687C184.475 5.351 184.261 5.08733 183.971 4.896C183.687 4.7 183.327 4.602 182.893 4.602C182.441 4.602 182.065 4.71167 181.766 4.931C181.468 5.14567 181.246 5.42333 181.101 5.764C180.957 6.1 180.887 6.44767 180.891 6.807ZM195.811 11.14C195.093 11.14 194.418 11.007 193.788 10.741C193.158 10.4703 192.603 10.097 192.122 9.621C191.646 9.145 191.273 8.592 191.002 7.962C190.736 7.332 190.603 6.65533 190.603 5.932C190.603 5.218 190.736 4.54833 191.002 3.923C191.273 3.293 191.646 2.74 192.122 2.264C192.603 1.788 193.158 1.41467 193.788 1.144C194.418 0.873333 195.093 0.737999 195.811 0.737999C196.525 0.737999 197.195 0.873333 197.82 1.144C198.45 1.41467 199.003 1.788 199.479 2.264C199.955 2.74 200.329 3.293 200.599 3.923C200.87 4.54833 201.005 5.218 201.005 5.932C201.005 6.65533 200.87 7.332 200.599 7.962C200.329 8.592 199.955 9.145 199.479 9.621C199.003 10.097 198.45 10.4703 197.82 10.741C197.195 11.007 196.525 11.14 195.811 11.14ZM195.839 8.823C195.312 8.823 194.845 8.70167 194.439 8.459C194.038 8.21167 193.723 7.871 193.494 7.437C193.27 6.99833 193.158 6.48967 193.158 5.911C193.158 5.33233 193.273 4.82367 193.501 4.385C193.735 3.94633 194.052 3.60333 194.453 3.356C194.859 3.104 195.321 2.978 195.839 2.978C196.231 2.978 196.577 3.05267 196.875 3.202C197.174 3.35133 197.428 3.545 197.638 3.783C197.848 4.01633 198.021 4.26833 198.156 4.539L197.197 4.763C197.043 4.469 196.861 4.23333 196.651 4.056C196.441 3.874 196.187 3.783 195.888 3.783C195.417 3.783 195.03 3.96967 194.726 4.343C194.428 4.71167 194.278 5.225 194.278 5.883C194.278 6.55967 194.432 7.08467 194.74 7.458C195.048 7.83133 195.443 8.018 195.923 8.018C196.273 8.018 196.574 7.92 196.826 7.724C197.078 7.52333 197.286 7.26667 197.449 6.954L198.177 7.22C198.084 7.41133 197.965 7.60267 197.82 7.794C197.676 7.98533 197.508 8.158 197.316 8.312C197.125 8.466 196.906 8.58967 196.658 8.683C196.416 8.77633 196.143 8.823 195.839 8.823ZM195.811 10.265C196.395 10.265 196.943 10.1647 197.456 9.964C197.974 9.75867 198.429 9.467 198.821 9.089C199.218 8.711 199.526 8.256 199.745 7.724C199.969 7.18733 200.081 6.59 200.081 5.932C200.081 5.27867 199.969 4.686 199.745 4.154C199.526 3.622 199.218 3.16467 198.821 2.782C198.429 2.39933 197.974 2.10533 197.456 1.9C196.943 1.69467 196.395 1.592 195.811 1.592C195.209 1.592 194.649 1.69467 194.131 1.9C193.613 2.10533 193.158 2.39933 192.766 2.782C192.379 3.16467 192.076 3.622 191.856 4.154C191.642 4.686 191.534 5.27867 191.534 5.932C191.534 6.59 191.642 7.18733 191.856 7.724C192.076 8.256 192.379 8.711 192.766 9.089C193.158 9.467 193.613 9.75867 194.131 9.964C194.649 10.1647 195.209 10.265 195.811 10.265ZM205.829 11V10.209V9.796C205.829 9.278 205.925 8.83 206.116 8.452C206.312 8.074 206.569 7.745 206.886 7.465C207.208 7.18033 207.558 6.926 207.936 6.702C208.319 6.478 208.699 6.26333 209.077 6.058C209.46 5.848 209.81 5.631 210.127 5.407C210.444 5.17833 210.699 4.92167 210.89 4.637C211.086 4.34767 211.184 4.007 211.184 3.615C211.184 3.10167 211.002 2.684 210.638 2.362C210.279 2.04 209.791 1.879 209.175 1.879C208.512 1.879 207.98 2.06567 207.579 2.439C207.178 2.81233 206.951 3.30933 206.9 3.93H205.612C205.626 3.34667 205.771 2.81467 206.046 2.334C206.321 1.84867 206.725 1.46133 207.257 1.172C207.789 0.882666 208.445 0.737999 209.224 0.737999C209.901 0.737999 210.489 0.859333 210.988 1.102C211.487 1.34 211.872 1.676 212.143 2.11C212.418 2.53933 212.556 3.041 212.556 3.615C212.556 4.13767 212.46 4.58567 212.269 4.959C212.078 5.33233 211.823 5.65667 211.506 5.932C211.193 6.20267 210.85 6.44533 210.477 6.66C210.104 6.87467 209.728 7.08233 209.35 7.283C208.972 7.479 208.627 7.68667 208.314 7.906C208.001 8.12067 207.749 8.368 207.558 8.648C207.367 8.928 207.271 9.26167 207.271 9.649V9.852H212.612V11H205.829ZM217.578 11.154C216.472 11.154 215.594 10.72 214.946 9.852C214.297 8.97933 213.973 7.689 213.973 5.981C213.973 4.82833 214.122 3.86233 214.421 3.083C214.719 2.30367 215.139 1.718 215.681 1.326C216.222 0.933999 216.859 0.737999 217.592 0.737999C218.688 0.737999 219.561 1.179 220.21 2.061C220.863 2.93833 221.19 4.238 221.19 5.96C221.19 7.67267 220.865 8.96767 220.217 9.845C219.568 10.7177 218.688 11.154 217.578 11.154ZM217.592 10.034C218.315 10.034 218.861 9.71667 219.23 9.082C219.603 8.44267 219.79 7.40433 219.79 5.967C219.79 4.50167 219.601 3.447 219.223 2.803C218.849 2.15433 218.303 1.83 217.585 1.83C216.871 1.83 216.32 2.15667 215.933 2.81C215.55 3.45867 215.359 4.511 215.359 5.967C215.359 7.39967 215.55 8.43567 215.933 9.075C216.315 9.71433 216.868 10.034 217.592 10.034ZM222.741 11V10.209V9.796C222.741 9.278 222.837 8.83 223.028 8.452C223.224 8.074 223.481 7.745 223.798 7.465C224.12 7.18033 224.47 6.926 224.848 6.702C225.231 6.478 225.611 6.26333 225.989 6.058C226.372 5.848 226.722 5.631 227.039 5.407C227.356 5.17833 227.611 4.92167 227.802 4.637C227.998 4.34767 228.096 4.007 228.096 3.615C228.096 3.10167 227.914 2.684 227.55 2.362C227.191 2.04 226.703 1.879 226.087 1.879C225.424 1.879 224.892 2.06567 224.491 2.439C224.09 2.81233 223.863 3.30933 223.812 3.93H222.524C222.538 3.34667 222.683 2.81467 222.958 2.334C223.233 1.84867 223.637 1.46133 224.169 1.172C224.701 0.882666 225.357 0.737999 226.136 0.737999C226.813 0.737999 227.401 0.859333 227.9 1.102C228.399 1.34 228.784 1.676 229.055 2.11C229.33 2.53933 229.468 3.041 229.468 3.615C229.468 4.13767 229.372 4.58567 229.181 4.959C228.99 5.33233 228.735 5.65667 228.418 5.932C228.105 6.20267 227.762 6.44533 227.389 6.66C227.016 6.87467 226.64 7.08233 226.262 7.283C225.884 7.479 225.539 7.68667 225.226 7.906C224.913 8.12067 224.661 8.368 224.47 8.648C224.279 8.928 224.183 9.26167 224.183 9.649V9.852H229.524V11H222.741ZM232.817 11V2.943H230.864V2.096C231.471 2.096 231.942 2.05167 232.278 1.963C232.614 1.87433 232.852 1.739 232.992 1.557C233.137 1.375 233.216 1.14867 233.23 0.877999H234.154V11H232.817ZM236.684 11V9.348H238.224V11H236.684ZM243.718 11V0.877999C243.751 0.877999 243.849 0.880333 244.012 0.885C244.18 0.885 244.383 0.885 244.621 0.885C244.859 0.880333 245.106 0.880333 245.363 0.885C245.62 0.885 245.855 0.887333 246.07 0.891999C247.311 0.910666 248.317 1.11367 249.087 1.501C249.862 1.88367 250.429 2.44133 250.788 3.174C251.152 3.90667 251.334 4.80733 251.334 5.876C251.334 6.996 251.138 7.93633 250.746 8.697C250.359 9.45767 249.766 10.0317 248.968 10.419C248.175 10.8063 247.164 11 245.937 11H243.718ZM245.048 9.887H245.937C246.772 9.887 247.491 9.75867 248.093 9.502C248.695 9.24067 249.157 8.81833 249.479 8.235C249.806 7.65167 249.969 6.87233 249.969 5.897C249.969 4.92167 249.81 4.14933 249.493 3.58C249.18 3.01067 248.728 2.60467 248.135 2.362C247.542 2.11467 246.828 1.991 245.993 1.991H245.048V9.887ZM256.218 11.14C255.546 11.14 254.953 10.993 254.44 10.699C253.927 10.405 253.525 9.98267 253.236 9.432C252.947 8.88133 252.802 8.221 252.802 7.451C252.802 6.69033 252.933 6.023 253.194 5.449C253.455 4.875 253.833 4.427 254.328 4.105C254.827 3.783 255.427 3.622 256.127 3.622C256.808 3.622 257.385 3.769 257.856 4.063C258.327 4.357 258.684 4.77233 258.927 5.309C259.174 5.841 259.298 6.47333 259.298 7.206V7.682H254.111C254.111 8.13933 254.186 8.55467 254.335 8.928C254.489 9.29667 254.72 9.59067 255.028 9.81C255.336 10.0293 255.726 10.139 256.197 10.139C256.659 10.139 257.056 10.0317 257.387 9.817C257.723 9.60233 257.938 9.292 258.031 8.886H259.249C259.165 9.376 258.969 9.789 258.661 10.125C258.358 10.461 257.991 10.7153 257.562 10.888C257.137 11.056 256.689 11.14 256.218 11.14ZM254.118 6.807H258.052C258.052 6.39167 257.982 6.01833 257.842 5.687C257.702 5.351 257.487 5.08733 257.198 4.896C256.913 4.7 256.554 4.602 256.12 4.602C255.667 4.602 255.292 4.71167 254.993 4.931C254.694 5.14567 254.473 5.42333 254.328 5.764C254.183 6.1 254.113 6.44767 254.118 6.807ZM263.652 11.14C263.148 11.14 262.679 11.063 262.245 10.909C261.815 10.7503 261.458 10.5053 261.174 10.174C260.889 9.838 260.712 9.411 260.642 8.893H261.818C261.878 9.17767 261.995 9.41567 262.168 9.607C262.34 9.79367 262.553 9.936 262.805 10.034C263.061 10.1273 263.341 10.174 263.645 10.174C264.135 10.174 264.529 10.083 264.828 9.901C265.126 9.719 265.276 9.439 265.276 9.061C265.276 8.795 265.196 8.58267 265.038 8.424C264.884 8.26067 264.641 8.14167 264.31 8.067L262.812 7.696C262.228 7.556 261.762 7.33667 261.412 7.038C261.066 6.73933 260.891 6.32167 260.887 5.785C260.887 5.36033 260.989 4.987 261.195 4.665C261.4 4.343 261.706 4.08867 262.112 3.902C262.522 3.71533 263.033 3.622 263.645 3.622C264.433 3.622 265.068 3.79933 265.549 4.154C266.029 4.504 266.281 5.01967 266.305 5.701H265.157C265.11 5.35567 264.956 5.08267 264.695 4.882C264.433 4.67667 264.079 4.574 263.631 4.574C263.173 4.574 262.798 4.66733 262.504 4.854C262.214 5.036 262.07 5.32067 262.07 5.708C262.07 5.96467 262.172 6.16767 262.378 6.317C262.588 6.46167 262.891 6.583 263.288 6.681L264.744 7.045C265.075 7.13367 265.35 7.25033 265.57 7.395C265.789 7.53967 265.962 7.70067 266.088 7.878C266.214 8.05533 266.302 8.242 266.354 8.438C266.41 8.62933 266.438 8.81367 266.438 8.991C266.438 9.43433 266.328 9.817 266.109 10.139C265.889 10.4563 265.572 10.7037 265.157 10.881C264.741 11.0537 264.24 11.14 263.652 11.14ZM268.165 11V3.762H269.418V11H268.165ZM268.13 2.229V0.885H269.453V2.229H268.13ZM274.62 13.394C273.486 13.394 272.602 13.2283 271.967 12.897C271.333 12.5703 271.015 12.1013 271.015 11.49C271.015 11.2287 271.076 11.007 271.197 10.825C271.319 10.6383 271.463 10.4843 271.631 10.363C271.799 10.2417 271.956 10.146 272.1 10.076C272.245 10.0013 272.341 9.94767 272.387 9.915C272.303 9.86833 272.203 9.81 272.086 9.74C271.97 9.67 271.865 9.57667 271.771 9.46C271.683 9.34333 271.638 9.19167 271.638 9.005C271.638 8.77633 271.746 8.56633 271.96 8.375C272.175 8.18367 272.495 8.04133 272.919 7.948C272.495 7.73333 272.163 7.44867 271.925 7.094C271.687 6.73933 271.568 6.35433 271.568 5.939C271.568 5.47233 271.694 5.06633 271.946 4.721C272.198 4.37567 272.56 4.112 273.031 3.93C273.503 3.74333 274.065 3.65 274.718 3.65C275.19 3.65 275.584 3.706 275.901 3.818C276.223 3.92533 276.522 4.07933 276.797 4.28C276.872 4.24733 276.991 4.19833 277.154 4.133C277.318 4.063 277.495 3.98833 277.686 3.909C277.882 3.82967 278.064 3.755 278.232 3.685C278.405 3.61033 278.543 3.55433 278.645 3.517L278.638 4.714L277.371 4.952C277.446 5.10133 277.504 5.26467 277.546 5.442C277.588 5.61933 277.609 5.785 277.609 5.939C277.609 6.36367 277.497 6.74867 277.273 7.094C277.054 7.43933 276.72 7.71467 276.272 7.92C275.824 8.12533 275.264 8.228 274.592 8.228C274.536 8.228 274.464 8.228 274.375 8.228C274.291 8.22333 274.219 8.21867 274.158 8.214C273.664 8.228 273.323 8.284 273.136 8.382C272.954 8.47533 272.863 8.58033 272.863 8.697C272.863 8.83233 272.968 8.92567 273.178 8.977C273.388 9.02833 273.743 9.07267 274.242 9.11C274.424 9.11933 274.648 9.131 274.914 9.145C275.185 9.159 275.486 9.17767 275.817 9.201C276.573 9.24767 277.157 9.44133 277.567 9.782C277.978 10.1227 278.183 10.5823 278.183 11.161C278.183 11.819 277.889 12.3557 277.301 12.771C276.718 13.1863 275.824 13.394 274.62 13.394ZM274.851 12.561C275.519 12.561 276.03 12.4607 276.384 12.26C276.744 12.0593 276.923 11.756 276.923 11.35C276.923 11.0607 276.814 10.825 276.594 10.643C276.375 10.4563 276.044 10.349 275.6 10.321L273.57 10.188C273.388 10.1787 273.199 10.2253 273.003 10.328C272.807 10.426 272.642 10.5637 272.506 10.741C272.371 10.9183 272.303 11.119 272.303 11.343C272.303 11.7257 272.511 12.0243 272.926 12.239C273.342 12.4537 273.983 12.561 274.851 12.561ZM274.634 7.395C275.152 7.395 275.57 7.27367 275.887 7.031C276.209 6.78833 276.37 6.429 276.37 5.953C276.37 5.463 276.209 5.08967 275.887 4.833C275.57 4.57633 275.152 4.448 274.634 4.448C274.102 4.448 273.673 4.57867 273.346 4.84C273.024 5.09667 272.863 5.46767 272.863 5.953C272.863 6.41033 273.017 6.765 273.325 7.017C273.638 7.269 274.074 7.395 274.634 7.395ZM280.27 11V3.762H281.523V4.812C281.64 4.61133 281.801 4.42233 282.006 4.245C282.216 4.06767 282.468 3.92533 282.762 3.818C283.061 3.71067 283.404 3.657 283.791 3.657C284.249 3.657 284.669 3.748 285.051 3.93C285.439 4.112 285.747 4.39667 285.975 4.784C286.209 5.16667 286.325 5.66133 286.325 6.268V11H285.03V6.394C285.03 5.82933 284.881 5.41167 284.582 5.141C284.288 4.86567 283.906 4.728 283.434 4.728C283.108 4.728 282.802 4.78167 282.517 4.889C282.233 4.99167 282.002 5.15033 281.824 5.365C281.647 5.575 281.558 5.841 281.558 6.163V11H280.27ZM295.332 11.14C294.907 11.14 294.548 11.084 294.254 10.972C293.964 10.86 293.726 10.7177 293.54 10.545C293.353 10.3677 293.208 10.188 293.106 10.006C293.003 9.81933 292.928 9.656 292.882 9.516L292.742 11H291.755V0.598H293.057V4.91C293.117 4.78867 293.208 4.65567 293.33 4.511C293.456 4.36633 293.617 4.22633 293.813 4.091C294.009 3.95567 294.24 3.84367 294.506 3.755C294.776 3.66633 295.084 3.622 295.43 3.622C296.335 3.622 297.054 3.937 297.586 4.567C298.122 5.197 298.391 6.12567 298.391 7.353C298.391 8.11367 298.276 8.77867 298.048 9.348C297.819 9.91267 297.478 10.3537 297.026 10.671C296.573 10.9837 296.008 11.14 295.332 11.14ZM295.101 10.146C295.689 10.146 296.167 9.91967 296.536 9.467C296.904 9.00967 297.089 8.284 297.089 7.29C297.089 6.44533 296.916 5.792 296.571 5.33C296.23 4.86333 295.731 4.63 295.073 4.63C294.592 4.63 294.205 4.735 293.911 4.945C293.621 5.15033 293.407 5.45133 293.267 5.848C293.131 6.24467 293.061 6.72533 293.057 7.29C293.057 8.30267 293.213 9.033 293.526 9.481C293.843 9.92433 294.368 10.146 295.101 10.146ZM300.733 13.31C300.309 13.31 300.017 13.2797 299.858 13.219C299.7 13.1583 299.62 13.128 299.62 13.128V12.288L300.362 12.302C300.628 12.3113 300.85 12.2927 301.027 12.246C301.205 12.1993 301.347 12.1363 301.454 12.057C301.562 11.9777 301.643 11.889 301.699 11.791C301.76 11.693 301.809 11.5997 301.846 11.511L302.098 10.825L299.27 3.762H300.579L302.714 9.348L304.835 3.762H306.102L303.057 11.546C302.866 12.0033 302.654 12.3603 302.42 12.617C302.192 12.8737 301.935 13.0533 301.65 13.156C301.37 13.2587 301.065 13.31 300.733 13.31ZM313.374 11V2.068H310.105V0.877999H317.763V2.068H314.676V11H313.374ZM321.255 11.14C320.583 11.14 319.99 10.993 319.477 10.699C318.964 10.405 318.562 9.98267 318.273 9.432C317.984 8.88133 317.839 8.221 317.839 7.451C317.839 6.69033 317.97 6.023 318.231 5.449C318.492 4.875 318.87 4.427 319.365 4.105C319.864 3.783 320.464 3.622 321.164 3.622C321.845 3.622 322.422 3.769 322.893 4.063C323.364 4.357 323.721 4.77233 323.964 5.309C324.211 5.841 324.335 6.47333 324.335 7.206V7.682H319.148C319.148 8.13933 319.223 8.55467 319.372 8.928C319.526 9.29667 319.757 9.59067 320.065 9.81C320.373 10.0293 320.763 10.139 321.234 10.139C321.696 10.139 322.093 10.0317 322.424 9.817C322.76 9.60233 322.975 9.292 323.068 8.886H324.286C324.202 9.376 324.006 9.789 323.698 10.125C323.395 10.461 323.028 10.7153 322.599 10.888C322.174 11.056 321.726 11.14 321.255 11.14ZM319.155 6.807H323.089C323.089 6.39167 323.019 6.01833 322.879 5.687C322.739 5.351 322.524 5.08733 322.235 4.896C321.95 4.7 321.591 4.602 321.157 4.602C320.704 4.602 320.329 4.71167 320.03 4.931C319.731 5.14567 319.51 5.42333 319.365 5.764C319.22 6.1 319.15 6.44767 319.155 6.807ZM326.126 11V3.762H327.372V4.812C327.572 4.49467 327.848 4.217 328.198 3.979C328.548 3.741 329.003 3.622 329.563 3.622C329.824 3.622 330.09 3.66633 330.361 3.755C330.636 3.84367 330.888 3.97667 331.117 4.154C331.345 4.33133 331.523 4.54833 331.649 4.805C331.873 4.45033 332.176 4.16567 332.559 3.951C332.941 3.73167 333.373 3.622 333.854 3.622C334.106 3.622 334.369 3.66167 334.645 3.741C334.92 3.81567 335.174 3.951 335.408 4.147C335.646 4.33833 335.839 4.60667 335.989 4.952C336.138 5.29267 336.213 5.73133 336.213 6.268V11H334.911V6.394C334.911 5.95533 334.841 5.617 334.701 5.379C334.561 5.13633 334.376 4.966 334.148 4.868C333.924 4.77 333.683 4.721 333.427 4.721C333.203 4.721 332.965 4.76533 332.713 4.854C332.461 4.94267 332.246 5.092 332.069 5.302C331.891 5.512 331.803 5.799 331.803 6.163V11H330.515V6.016C330.515 5.73133 330.438 5.49333 330.284 5.302C330.134 5.11067 329.945 4.966 329.717 4.868C329.493 4.77 329.269 4.721 329.045 4.721C328.797 4.721 328.548 4.77 328.296 4.868C328.048 4.966 327.838 5.12233 327.666 5.337C327.498 5.547 327.414 5.82233 327.414 6.163V11H326.126ZM338.239 13.254V3.762H339.527L339.541 5.022C339.625 4.87267 339.732 4.71633 339.863 4.553C339.998 4.38967 340.162 4.238 340.353 4.098C340.549 3.958 340.775 3.84367 341.032 3.755C341.293 3.66633 341.59 3.622 341.921 3.622C342.5 3.622 343.008 3.755 343.447 4.021C343.89 4.28233 344.236 4.68367 344.483 5.225C344.73 5.76633 344.854 6.45233 344.854 7.283C344.854 8.11367 344.733 8.816 344.49 9.39C344.252 9.95933 343.907 10.3933 343.454 10.692C343.001 10.9907 342.455 11.14 341.816 11.14C341.494 11.14 341.207 11.0933 340.955 11C340.708 10.9113 340.491 10.7947 340.304 10.65C340.122 10.5007 339.968 10.342 339.842 10.174C339.721 10.006 339.62 9.845 339.541 9.691V13.254H338.239ZM341.571 10.132C342.168 10.132 342.656 9.90567 343.034 9.453C343.412 8.99567 343.601 8.28633 343.601 7.325C343.601 6.499 343.428 5.84333 343.083 5.358C342.738 4.87267 342.234 4.63 341.571 4.63C340.899 4.63 340.39 4.87967 340.045 5.379C339.7 5.87367 339.527 6.52233 339.527 7.325C339.527 7.843 339.604 8.31433 339.758 8.739C339.912 9.16367 340.141 9.502 340.444 9.754C340.747 10.006 341.123 10.132 341.571 10.132ZM348.406 11.091C348.014 11.091 347.696 11.0373 347.454 10.93C347.216 10.8227 347.031 10.678 346.901 10.496C346.775 10.314 346.688 10.1063 346.642 9.873C346.6 9.635 346.579 9.39 346.579 9.138V0.598H347.853V9.012C347.853 9.376 347.923 9.649 348.063 9.831C348.207 10.013 348.408 10.1133 348.665 10.132L349.057 10.139V10.979C348.949 11.0117 348.837 11.0373 348.721 11.056C348.604 11.0793 348.499 11.091 348.406 11.091ZM352.779 11.14C352.307 11.14 351.892 11.0583 351.533 10.895C351.178 10.727 350.898 10.4867 350.693 10.174C350.492 9.86133 350.392 9.48333 350.392 9.04C350.392 8.23733 350.672 7.64 351.232 7.248C351.792 6.856 352.69 6.646 353.927 6.618L355.215 6.583V6.016C355.215 5.57267 355.082 5.22267 354.816 4.966C354.55 4.70467 354.139 4.574 353.584 4.574C353.168 4.57867 352.802 4.67667 352.485 4.868C352.167 5.05933 351.964 5.372 351.876 5.806H350.735C350.763 5.33467 350.893 4.938 351.127 4.616C351.365 4.28933 351.698 4.042 352.128 3.874C352.557 3.706 353.063 3.622 353.647 3.622C354.277 3.622 354.799 3.71067 355.215 3.888C355.635 4.06533 355.947 4.32667 356.153 4.672C356.363 5.01733 356.468 5.442 356.468 5.946V11H355.362L355.264 9.642C354.988 10.2067 354.634 10.5987 354.2 10.818C353.77 11.0327 353.297 11.14 352.779 11.14ZM353.164 10.209C353.411 10.209 353.654 10.1647 353.892 10.076C354.134 9.98733 354.354 9.86833 354.55 9.719C354.75 9.565 354.911 9.39467 355.033 9.208C355.154 9.01667 355.215 8.82067 355.215 8.62V7.381L354.144 7.402C353.588 7.41133 353.126 7.46733 352.758 7.57C352.389 7.67267 352.111 7.83367 351.925 8.053C351.738 8.27233 351.645 8.55933 351.645 8.914C351.645 9.32 351.787 9.63733 352.072 9.866C352.356 10.0947 352.72 10.209 353.164 10.209ZM360.839 11.035C360.34 11.035 359.953 10.9673 359.677 10.832C359.402 10.6967 359.208 10.496 359.096 10.23C358.989 9.964 358.935 9.63733 358.935 9.25V4.707H357.759V3.762H358.97L359.285 1.655H360.237V3.755H361.868V4.707H360.237V9.208C360.237 9.46467 360.263 9.65367 360.314 9.775C360.37 9.89167 360.461 9.96633 360.587 9.999C360.713 10.0317 360.891 10.048 361.119 10.048H361.91V10.916C361.822 10.9487 361.686 10.9767 361.504 11C361.327 11.0233 361.105 11.035 360.839 11.035ZM366.495 11.14C365.823 11.14 365.231 10.993 364.717 10.699C364.204 10.405 363.803 9.98267 363.513 9.432C363.224 8.88133 363.079 8.221 363.079 7.451C363.079 6.69033 363.21 6.023 363.471 5.449C363.733 4.875 364.111 4.427 364.605 4.105C365.105 3.783 365.704 3.622 366.404 3.622C367.086 3.622 367.662 3.769 368.133 4.063C368.605 4.357 368.962 4.77233 369.204 5.309C369.452 5.841 369.575 6.47333 369.575 7.206V7.682H364.388C364.388 8.13933 364.463 8.55467 364.612 8.928C364.766 9.29667 364.997 9.59067 365.305 9.81C365.613 10.0293 366.003 10.139 366.474 10.139C366.936 10.139 367.333 10.0317 367.664 9.817C368 9.60233 368.215 9.292 368.308 8.886H369.526C369.442 9.376 369.246 9.789 368.938 10.125C368.635 10.461 368.269 10.7153 367.839 10.888C367.415 11.056 366.967 11.14 366.495 11.14ZM364.395 6.807H368.329C368.329 6.39167 368.259 6.01833 368.119 5.687C367.979 5.351 367.765 5.08733 367.475 4.896C367.191 4.7 366.831 4.602 366.397 4.602C365.945 4.602 365.569 4.71167 365.27 4.931C364.972 5.14567 364.75 5.42333 364.605 5.764C364.461 6.1 364.391 6.44767 364.395 6.807ZM374.278 11.14C373.625 11.14 373.046 10.9977 372.542 10.713C372.043 10.4283 371.651 10.0083 371.366 9.453C371.086 8.89767 370.946 8.21633 370.946 7.409C370.946 6.653 371.074 5.99267 371.331 5.428C371.592 4.85867 371.97 4.41533 372.465 4.098C372.964 3.78067 373.569 3.622 374.278 3.622C374.796 3.622 375.26 3.72233 375.671 3.923C376.086 4.119 376.427 4.399 376.693 4.763C376.959 5.127 377.122 5.55633 377.183 6.051H376.035C375.993 5.799 375.895 5.568 375.741 5.358C375.592 5.148 375.393 4.98 375.146 4.854C374.903 4.728 374.616 4.665 374.285 4.665C373.664 4.665 373.158 4.889 372.766 5.337C372.379 5.785 372.185 6.471 372.185 7.395C372.185 8.23033 372.362 8.9 372.717 9.404C373.076 9.90333 373.604 10.153 374.299 10.153C374.63 10.153 374.92 10.09 375.167 9.964C375.414 9.83333 375.613 9.663 375.762 9.453C375.911 9.23833 376.007 9.00967 376.049 8.767H377.176C377.115 9.25233 376.95 9.67233 376.679 10.027C376.413 10.3817 376.072 10.657 375.657 10.853C375.246 11.0443 374.787 11.14 374.278 11.14ZM381.838 11.14C381.171 11.14 380.587 10.9977 380.088 10.713C379.593 10.4237 379.208 10.0013 378.933 9.446C378.658 8.89067 378.52 8.21167 378.52 7.409C378.52 6.653 378.648 5.99033 378.905 5.421C379.162 4.85167 379.537 4.41067 380.032 4.098C380.527 3.78067 381.131 3.622 381.845 3.622C382.512 3.622 383.091 3.769 383.581 4.063C384.071 4.35233 384.451 4.77933 384.722 5.344C384.997 5.90867 385.135 6.597 385.135 7.409C385.135 8.14633 385.009 8.795 384.757 9.355C384.505 9.915 384.134 10.3537 383.644 10.671C383.159 10.9837 382.557 11.14 381.838 11.14ZM381.845 10.118C382.274 10.118 382.638 10.0083 382.937 9.789C383.236 9.56967 383.462 9.25467 383.616 8.844C383.775 8.43333 383.854 7.94567 383.854 7.381C383.854 6.863 383.784 6.39867 383.644 5.988C383.509 5.57267 383.294 5.24367 383 5.001C382.706 4.75833 382.321 4.637 381.845 4.637C381.406 4.637 381.035 4.74667 380.732 4.966C380.429 5.18067 380.198 5.49333 380.039 5.904C379.885 6.31467 379.808 6.807 379.808 7.381C379.808 7.88967 379.876 8.35167 380.011 8.767C380.151 9.18233 380.37 9.51133 380.669 9.754C380.972 9.99667 381.364 10.118 381.845 10.118ZM389.754 11.14C389.087 11.14 388.503 10.9977 388.004 10.713C387.509 10.4237 387.124 10.0013 386.849 9.446C386.574 8.89067 386.436 8.21167 386.436 7.409C386.436 6.653 386.564 5.99033 386.821 5.421C387.078 4.85167 387.453 4.41067 387.948 4.098C388.443 3.78067 389.047 3.622 389.761 3.622C390.428 3.622 391.007 3.769 391.497 4.063C391.987 4.35233 392.367 4.77933 392.638 5.344C392.913 5.90867 393.051 6.597 393.051 7.409C393.051 8.14633 392.925 8.795 392.673 9.355C392.421 9.915 392.05 10.3537 391.56 10.671C391.075 10.9837 390.473 11.14 389.754 11.14ZM389.761 10.118C390.19 10.118 390.554 10.0083 390.853 9.789C391.152 9.56967 391.378 9.25467 391.532 8.844C391.691 8.43333 391.77 7.94567 391.77 7.381C391.77 6.863 391.7 6.39867 391.56 5.988C391.425 5.57267 391.21 5.24367 390.916 5.001C390.622 4.75833 390.237 4.637 389.761 4.637C389.322 4.637 388.951 4.74667 388.648 4.966C388.345 5.18067 388.114 5.49333 387.955 5.904C387.801 6.31467 387.724 6.807 387.724 7.381C387.724 7.88967 387.792 8.35167 387.927 8.767C388.067 9.18233 388.286 9.51133 388.585 9.754C388.888 9.99667 389.28 10.118 389.761 10.118ZM394.772 11V0.598H396.06V7.381L399.462 3.762H400.946L398.335 6.52L401.128 11H399.756L397.488 7.367L396.06 8.844V11H394.772ZM402.669 11V3.762H403.922V11H402.669ZM402.634 2.229V0.885H403.957V2.229H402.634ZM409.151 11.14C408.479 11.14 407.887 10.993 407.373 10.699C406.86 10.405 406.459 9.98267 406.169 9.432C405.88 8.88133 405.735 8.221 405.735 7.451C405.735 6.69033 405.866 6.023 406.127 5.449C406.389 4.875 406.767 4.427 407.261 4.105C407.761 3.783 408.36 3.622 409.06 3.622C409.742 3.622 410.318 3.769 410.789 4.063C411.261 4.357 411.618 4.77233 411.86 5.309C412.108 5.841 412.231 6.47333 412.231 7.206V7.682H407.044C407.044 8.13933 407.119 8.55467 407.268 8.928C407.422 9.29667 407.653 9.59067 407.961 9.81C408.269 10.0293 408.659 10.139 409.13 10.139C409.592 10.139 409.989 10.0317 410.32 9.817C410.656 9.60233 410.871 9.292 410.964 8.886H412.182C412.098 9.376 411.902 9.789 411.594 10.125C411.291 10.461 410.925 10.7153 410.495 10.888C410.071 11.056 409.623 11.14 409.151 11.14ZM407.051 6.807H410.985C410.985 6.39167 410.915 6.01833 410.775 5.687C410.635 5.351 410.421 5.08733 410.131 4.896C409.847 4.7 409.487 4.602 409.053 4.602C408.601 4.602 408.225 4.71167 407.926 4.931C407.628 5.14567 407.406 5.42333 407.261 5.764C407.117 6.1 407.047 6.44767 407.051 6.807Z" fill="#ADB7BC"/>
</svg>
