<svg width="134" height="51" viewBox="0 0 134 51" fill="none" xmlns="http://www.w3.org/2000/svg">
<path d="M11.452 0.647999H14.368V18H11.74L3.016 5.268V18H0.1V0.647999H2.956L11.452 13.044V0.647999ZM20.1589 12.468C20.1509 13.524 20.4069 14.392 20.9269 15.072C21.4549 15.744 22.2189 16.08 23.2189 16.08C23.9069 16.08 24.5029 15.928 25.0069 15.624C25.5189 15.312 25.8589 14.84 26.0269 14.208H28.7029C28.5509 15.072 28.2029 15.804 27.6589 16.404C27.1229 17.004 26.4669 17.46 25.6909 17.772C24.9229 18.084 24.1229 18.24 23.2909 18.24C22.0909 18.24 21.0349 17.988 20.1229 17.484C19.2189 16.972 18.5109 16.244 17.9989 15.3C17.4949 14.356 17.2429 13.232 17.2429 11.928C17.2429 10.656 17.4749 9.528 17.9389 8.544C18.4029 7.552 19.0709 6.772 19.9429 6.204C20.8149 5.636 21.8709 5.352 23.1109 5.352C24.9429 5.352 26.3389 5.924 27.2989 7.068C28.2589 8.204 28.7389 9.708 28.7389 11.58V12.468H20.1589ZM20.1589 10.656H25.9789C25.9789 9.76 25.7429 9.004 25.2709 8.388C24.7989 7.764 24.0749 7.452 23.0989 7.452C22.4589 7.452 21.9189 7.608 21.4789 7.92C21.0389 8.232 20.7069 8.636 20.4829 9.132C20.2589 9.62 20.1509 10.128 20.1589 10.656ZM47.7205 5.592L43.7845 18H41.2645L38.7205 9.732L36.2365 18H33.7765L29.8405 5.592H32.4685L35.0605 14.124H35.1925L37.7005 5.592H39.8365L42.4165 14.112H42.5485L45.0445 5.592H47.7205ZM62.2263 18.24C60.6663 18.24 59.3183 17.884 58.1823 17.172C57.0463 16.46 56.1663 15.444 55.5423 14.124C54.9263 12.796 54.6183 11.212 54.6183 9.372C54.6183 7.516 54.9383 5.92 55.5783 4.584C56.2183 3.24 57.1183 2.208 58.2783 1.488C59.4463 0.767999 60.8143 0.407999 62.3823 0.407999C63.3423 0.407999 64.2263 0.567999 65.0343 0.887999C65.8503 1.208 66.5623 1.644 67.1703 2.196C67.7863 2.74 68.2703 3.36 68.6223 4.056C68.9743 4.744 69.1703 5.464 69.2103 6.216H66.1263C66.0143 5.624 65.7863 5.08 65.4423 4.584C65.1063 4.08 64.6703 3.676 64.1343 3.372C63.6063 3.068 63.0023 2.916 62.3223 2.916C61.4423 2.916 60.6623 3.136 59.9823 3.576C59.3023 4.016 58.7663 4.708 58.3743 5.652C57.9903 6.588 57.7983 7.804 57.7983 9.3C57.7983 10.884 58.0103 12.14 58.4343 13.068C58.8583 13.988 59.4183 14.648 60.1143 15.048C60.8183 15.448 61.5903 15.648 62.4303 15.648C63.2383 15.648 63.9223 15.472 64.4823 15.12C65.0423 14.76 65.4703 14.324 65.7663 13.812C66.0703 13.292 66.2463 12.788 66.2943 12.3L66.4023 11.028H62.5263V8.964L69.4503 8.988V18H67.3863V15.564C67.0823 16.004 66.7063 16.432 66.2583 16.848C65.8103 17.256 65.2583 17.592 64.6023 17.856C63.9463 18.112 63.1543 18.24 62.2263 18.24ZM78.1399 18.24C76.3559 18.24 74.9319 17.68 73.8679 16.56C72.8039 15.432 72.2719 13.864 72.2719 11.856C72.2719 10.56 72.5039 9.424 72.9679 8.448C73.4399 7.472 74.1119 6.712 74.9839 6.168C75.8639 5.624 76.9199 5.352 78.1519 5.352C79.9199 5.352 81.3319 5.928 82.3879 7.08C83.4439 8.232 83.9719 9.824 83.9719 11.856C83.9719 13.112 83.7439 14.22 83.2879 15.18C82.8399 16.14 82.1799 16.892 81.3079 17.436C80.4439 17.972 79.3879 18.24 78.1399 18.24ZM78.1519 16.02C79.1519 16.02 79.8919 15.62 80.3719 14.82C80.8599 14.02 81.1039 13.004 81.1039 11.772C81.1039 11.012 81.0079 10.312 80.8159 9.672C80.6239 9.032 80.3119 8.52 79.8799 8.136C79.4479 7.744 78.8719 7.548 78.1519 7.548C77.1279 7.548 76.3679 7.94 75.8719 8.724C75.3839 9.508 75.1399 10.524 75.1399 11.772C75.1399 12.524 75.2359 13.224 75.4279 13.872C75.6279 14.512 75.9479 15.032 76.3879 15.432C76.8279 15.824 77.4159 16.02 78.1519 16.02ZM91.7103 18.24C89.9263 18.24 88.5023 17.68 87.4383 16.56C86.3743 15.432 85.8423 13.864 85.8423 11.856C85.8423 10.56 86.0743 9.424 86.5383 8.448C87.0103 7.472 87.6823 6.712 88.5543 6.168C89.4343 5.624 90.4903 5.352 91.7223 5.352C93.4903 5.352 94.9023 5.928 95.9583 7.08C97.0143 8.232 97.5423 9.824 97.5423 11.856C97.5423 13.112 97.3143 14.22 96.8583 15.18C96.4103 16.14 95.7503 16.892 94.8783 17.436C94.0143 17.972 92.9583 18.24 91.7103 18.24ZM91.7223 16.02C92.7223 16.02 93.4623 15.62 93.9423 14.82C94.4303 14.02 94.6743 13.004 94.6743 11.772C94.6743 11.012 94.5783 10.312 94.3863 9.672C94.1943 9.032 93.8823 8.52 93.4503 8.136C93.0183 7.744 92.4423 7.548 91.7223 7.548C90.6983 7.548 89.9383 7.94 89.4423 8.724C88.9543 9.508 88.7103 10.524 88.7103 11.772C88.7103 12.524 88.8063 13.224 88.9983 13.872C89.1983 14.512 89.5183 15.032 89.9583 15.432C90.3983 15.824 90.9863 16.02 91.7223 16.02ZM105.5 22.104C103.412 22.104 101.808 21.82 100.688 21.252C99.5679 20.692 99.0079 19.928 99.0079 18.96C99.0079 18.528 99.1159 18.164 99.3319 17.868C99.5479 17.564 99.8039 17.316 100.1 17.124C100.396 16.932 100.668 16.784 100.916 16.68C101.164 16.576 101.324 16.5 101.396 16.452C101.26 16.372 101.08 16.268 100.856 16.14C100.632 16.012 100.428 15.836 100.244 15.612C100.068 15.388 99.9799 15.096 99.9799 14.736C99.9799 14.32 100.176 13.936 100.568 13.584C100.968 13.232 101.564 12.98 102.356 12.828C101.58 12.452 100.984 11.948 100.568 11.316C100.152 10.676 99.9439 10.008 99.9439 9.312C99.9439 8.496 100.18 7.796 100.652 7.212C101.132 6.628 101.796 6.18 102.644 5.868C103.492 5.556 104.48 5.4 105.608 5.4C106.44 5.4 107.128 5.492 107.672 5.676C108.216 5.86 108.724 6.108 109.196 6.42C109.412 6.332 109.736 6.204 110.168 6.036C110.6 5.86 111.044 5.68 111.5 5.496C111.956 5.304 112.332 5.148 112.628 5.028L112.604 7.44L110.456 7.824C110.68 8.328 110.792 8.82 110.792 9.3C110.792 10.02 110.588 10.688 110.18 11.304C109.78 11.912 109.176 12.4 108.368 12.768C107.568 13.136 106.568 13.32 105.368 13.32C105.248 13.32 105.084 13.316 104.876 13.308C104.668 13.3 104.5 13.292 104.372 13.284C103.724 13.308 103.28 13.384 103.04 13.512C102.8 13.64 102.68 13.78 102.68 13.932C102.68 14.148 102.86 14.296 103.22 14.376C103.58 14.448 104.156 14.508 104.948 14.556C105.228 14.572 105.596 14.596 106.052 14.628C106.508 14.652 107.016 14.68 107.576 14.712C108.992 14.808 110.064 15.164 110.792 15.78C111.52 16.396 111.884 17.196 111.884 18.18C111.884 19.324 111.356 20.264 110.3 21C109.244 21.736 107.644 22.104 105.5 22.104ZM105.464 11.604C106.224 11.604 106.84 11.412 107.312 11.028C107.784 10.636 108.02 10.084 108.02 9.372C108.02 8.644 107.784 8.072 107.312 7.656C106.84 7.24 106.224 7.032 105.464 7.032C104.688 7.032 104.06 7.24 103.58 7.656C103.108 8.072 102.872 8.644 102.872 9.372C102.872 10.068 103.1 10.616 103.556 11.016C104.012 11.408 104.648 11.604 105.464 11.604ZM105.992 20.388C108.048 20.388 109.076 19.82 109.076 18.684C109.076 18.26 108.904 17.912 108.56 17.64C108.216 17.36 107.704 17.196 107.024 17.148L103.892 16.956C103.372 16.924 102.904 17.076 102.488 17.412C102.08 17.748 101.876 18.148 101.876 18.612C101.876 19.204 102.208 19.648 102.872 19.944C103.544 20.24 104.584 20.388 105.992 20.388ZM118.545 18.18C117.473 18.18 116.681 18.012 116.169 17.676C115.665 17.332 115.337 16.888 115.185 16.344C115.041 15.8 114.969 15.236 114.969 14.652V0.167999H117.825V14.316C117.825 14.852 117.933 15.268 118.149 15.564C118.373 15.86 118.733 16.032 119.229 16.08L119.853 16.104V17.94C119.637 18.012 119.413 18.068 119.181 18.108C118.957 18.156 118.745 18.18 118.545 18.18ZM124.573 12.468C124.565 13.524 124.821 14.392 125.341 15.072C125.869 15.744 126.633 16.08 127.633 16.08C128.321 16.08 128.917 15.928 129.421 15.624C129.933 15.312 130.273 14.84 130.441 14.208H133.117C132.965 15.072 132.617 15.804 132.073 16.404C131.537 17.004 130.881 17.46 130.105 17.772C129.337 18.084 128.537 18.24 127.705 18.24C126.505 18.24 125.449 17.988 124.537 17.484C123.633 16.972 122.925 16.244 122.413 15.3C121.909 14.356 121.657 13.232 121.657 11.928C121.657 10.656 121.889 9.528 122.353 8.544C122.817 7.552 123.485 6.772 124.357 6.204C125.229 5.636 126.285 5.352 127.525 5.352C129.357 5.352 130.753 5.924 131.713 7.068C132.673 8.204 133.153 9.708 133.153 11.58V12.468H124.573ZM124.573 10.656H130.393C130.393 9.76 130.157 9.004 129.685 8.388C129.213 7.764 128.489 7.452 127.513 7.452C126.873 7.452 126.333 7.608 125.893 7.92C125.453 8.232 125.121 8.636 124.897 9.132C124.673 9.62 124.565 10.128 124.573 10.656ZM0.1 50V32.648H6.256C7.504 32.648 8.62 32.864 9.604 33.296C10.588 33.72 11.364 34.348 11.932 35.18C12.508 36.012 12.796 37.036 12.796 38.252C12.796 39.396 12.54 40.376 12.028 41.192C11.516 42.008 10.796 42.632 9.868 43.064C8.948 43.496 7.872 43.712 6.64 43.712H3.064V50H0.1ZM3.04 41.372H6.568C7.584 41.372 8.412 41.068 9.052 40.46C9.7 39.852 10.024 39.06 10.024 38.084C10.024 37.092 9.688 36.324 9.016 35.78C8.344 35.228 7.5 34.952 6.484 34.952H3.04V41.372ZM18.1728 32.66V35.42H15.2808V32.66H18.1728ZM18.1368 37.592V50H15.3288V37.592H18.1368ZM33.2798 50H30.1838L26.9198 45.584L23.6678 50H20.5718L25.3358 43.544L20.9678 37.592H24.0638L26.9318 41.468L29.7998 37.592H32.9078L28.5038 43.544L33.2798 50ZM37.2214 44.468C37.2134 45.524 37.4694 46.392 37.9894 47.072C38.5174 47.744 39.2814 48.08 40.2814 48.08C40.9694 48.08 41.5654 47.928 42.0694 47.624C42.5814 47.312 42.9214 46.84 43.0894 46.208H45.7654C45.6134 47.072 45.2654 47.804 44.7214 48.404C44.1854 49.004 43.5294 49.46 42.7534 49.772C41.9854 50.084 41.1854 50.24 40.3534 50.24C39.1534 50.24 38.0974 49.988 37.1854 49.484C36.2814 48.972 35.5734 48.244 35.0614 47.3C34.5574 46.356 34.3054 45.232 34.3054 43.928C34.3054 42.656 34.5374 41.528 35.0014 40.544C35.4654 39.552 36.1334 38.772 37.0054 38.204C37.8774 37.636 38.9334 37.352 40.1734 37.352C42.0054 37.352 43.4014 37.924 44.3614 39.068C45.3214 40.204 45.8014 41.708 45.8014 43.58V44.468H37.2214ZM37.2214 42.656H43.0414C43.0414 41.76 42.8054 41.004 42.3334 40.388C41.8614 39.764 41.1374 39.452 40.1614 39.452C39.5214 39.452 38.9814 39.608 38.5414 39.92C38.1014 40.232 37.7694 40.636 37.5454 41.132C37.3214 41.62 37.2134 42.128 37.2214 42.656ZM52.0992 50.18C51.0272 50.18 50.2352 50.012 49.7232 49.676C49.2192 49.332 48.8912 48.888 48.7392 48.344C48.5952 47.8 48.5232 47.236 48.5232 46.652V32.168H51.3792V46.316C51.3792 46.852 51.4872 47.268 51.7032 47.564C51.9272 47.86 52.2872 48.032 52.7832 48.08L53.4072 48.104V49.94C53.1912 50.012 52.9672 50.068 52.7352 50.108C52.5112 50.156 52.2992 50.18 52.0992 50.18ZM67.8241 32.408C68.8481 32.408 69.7961 32.6 70.6681 32.984C71.5401 33.36 72.2561 33.904 72.8161 34.616C73.3761 35.328 73.7041 36.188 73.8001 37.196H71.1001C70.8761 36.42 70.4881 35.82 69.9361 35.396C69.3921 34.972 68.7081 34.76 67.8841 34.76C66.5081 34.76 65.4761 35.34 64.7881 36.5C64.1081 37.652 63.8441 39.24 63.9961 41.264C64.3641 40.552 64.9241 39.988 65.6761 39.572C66.4361 39.148 67.2721 38.936 68.1841 38.936C69.3441 38.936 70.3601 39.156 71.2321 39.596C72.1041 40.036 72.7841 40.66 73.2721 41.468C73.7601 42.276 74.0041 43.232 74.0041 44.336C74.0041 45.48 73.7401 46.5 73.2121 47.396C72.6841 48.284 71.9441 48.984 70.9921 49.496C70.0401 50.008 68.9281 50.264 67.6561 50.264C66.2401 50.264 65.0161 49.912 63.9841 49.208C62.9521 48.504 62.1561 47.508 61.5961 46.22C61.0441 44.924 60.7681 43.392 60.7681 41.624C60.7681 39.744 61.0441 38.116 61.5961 36.74C62.1481 35.356 62.9481 34.288 63.9961 33.536C65.0521 32.784 66.3281 32.408 67.8241 32.408ZM67.5721 41.18C67.0201 41.18 66.4841 41.308 65.9641 41.564C65.4521 41.82 65.0321 42.152 64.7041 42.56C64.3841 42.968 64.2241 43.404 64.2241 43.868C64.2081 45.108 64.5121 46.104 65.1361 46.856C65.7601 47.6 66.5761 47.972 67.5841 47.972C68.5201 47.972 69.3041 47.648 69.9361 47C70.5761 46.344 70.8961 45.5 70.8961 44.468C70.8961 43.412 70.5921 42.6 69.9841 42.032C69.3841 41.464 68.5801 41.18 67.5721 41.18ZM82.4828 50V32.648H88.6388C89.8868 32.648 91.0028 32.864 91.9868 33.296C92.9708 33.72 93.7468 34.348 94.3148 35.18C94.8908 36.012 95.1788 37.036 95.1788 38.252C95.1788 39.396 94.9228 40.376 94.4108 41.192C93.8988 42.008 93.1788 42.632 92.2508 43.064C91.3308 43.496 90.2548 43.712 89.0228 43.712H85.4468V50H82.4828ZM85.4228 41.372H88.9508C89.9668 41.372 90.7948 41.068 91.4348 40.46C92.0828 39.852 92.4068 39.06 92.4068 38.084C92.4068 37.092 92.0708 36.324 91.3988 35.78C90.7268 35.228 89.8828 34.952 88.8668 34.952H85.4228V41.372ZM97.5076 50V37.592H100.304V40.28C100.608 39.36 101.096 38.644 101.768 38.132C102.448 37.612 103.232 37.352 104.12 37.352C104.264 37.352 104.4 37.36 104.528 37.376C104.664 37.392 104.768 37.42 104.84 37.46V40.256C104.752 40.216 104.636 40.188 104.492 40.172C104.356 40.156 104.236 40.148 104.132 40.148C102.932 40.052 102.012 40.24 101.372 40.712C100.74 41.176 100.424 41.868 100.424 42.788V50H97.5076ZM112.054 50.24C110.27 50.24 108.846 49.68 107.782 48.56C106.718 47.432 106.186 45.864 106.186 43.856C106.186 42.56 106.418 41.424 106.882 40.448C107.354 39.472 108.026 38.712 108.898 38.168C109.778 37.624 110.834 37.352 112.066 37.352C113.834 37.352 115.246 37.928 116.302 39.08C117.358 40.232 117.886 41.824 117.886 43.856C117.886 45.112 117.658 46.22 117.202 47.18C116.754 48.14 116.094 48.892 115.222 49.436C114.358 49.972 113.302 50.24 112.054 50.24ZM112.066 48.02C113.066 48.02 113.806 47.62 114.286 46.82C114.774 46.02 115.018 45.004 115.018 43.772C115.018 43.012 114.922 42.312 114.73 41.672C114.538 41.032 114.226 40.52 113.794 40.136C113.362 39.744 112.786 39.548 112.066 39.548C111.042 39.548 110.282 39.94 109.786 40.724C109.298 41.508 109.054 42.524 109.054 43.772C109.054 44.524 109.15 45.224 109.342 45.872C109.542 46.512 109.862 47.032 110.302 47.432C110.742 47.824 111.33 48.02 112.066 48.02Z" fill="white"/>
</svg>
