<svg width="213" height="70" viewBox="0 0 213 70" fill="none" xmlns="http://www.w3.org/2000/svg">
<path d="M15.936 0.863998H19.824V24H16.32L4.688 7.024V24H0.8V0.863998H4.608L15.936 17.392V0.863998ZM27.5453 16.624C27.5346 17.5627 27.6839 18.3947 27.9933 19.12C28.3026 19.8453 28.7613 20.416 29.3693 20.832C29.9773 21.2373 30.7293 21.44 31.6253 21.44C32.5426 21.44 33.3373 21.2373 34.0093 20.832C34.6919 20.416 35.1453 19.7867 35.3693 18.944H38.9373C38.7453 20.096 38.2866 21.072 37.5613 21.872C36.8359 22.672 35.9559 23.28 34.9213 23.696C33.8973 24.112 32.8306 24.32 31.7213 24.32C30.1213 24.32 28.7133 23.984 27.4973 23.312C26.2919 22.6293 25.3479 21.6587 24.6653 20.4C23.9933 19.1413 23.6573 17.6427 23.6573 15.904C23.6573 14.208 23.9666 12.704 24.5853 11.392C25.2039 10.0693 26.0946 9.02933 27.2573 8.272C28.4306 7.51467 29.8386 7.136 31.4813 7.136C33.1133 7.136 34.4839 7.48267 35.5933 8.176C36.7133 8.86933 37.5559 9.84 38.1213 11.088C38.6973 12.3253 38.9853 13.776 38.9853 15.44V16.624H27.5453ZM27.5453 14.208H35.3053C35.3053 13.408 35.1666 12.688 34.8893 12.048C34.6119 11.3973 34.1853 10.8853 33.6093 10.512C33.0439 10.128 32.3293 9.936 31.4653 9.936C30.6119 9.936 29.8919 10.144 29.3053 10.56C28.7186 10.976 28.2759 11.5147 27.9773 12.176C27.6786 12.8267 27.5346 13.504 27.5453 14.208ZM64.3253 7.456L59.0773 24H55.7173L52.3253 12.976L49.0133 24H45.7333L40.4853 7.456H43.9893L47.4453 18.832H47.6213L50.9653 7.456H53.8133L57.2533 18.816H57.4293L60.7573 7.456H64.3253ZM73.0255 24L81.3455 0.863998H85.5535L93.8575 24H89.9535L87.8895 18.192H79.0575L76.9455 24H73.0255ZM79.9535 14.736H86.9295L83.4575 4.656L79.9535 14.736ZM97.1455 29.152V7.456H101.034L101.066 10.064C101.279 9.70133 101.551 9.344 101.882 8.992C102.223 8.64 102.612 8.32533 103.05 8.048C103.498 7.77067 103.994 7.552 104.538 7.392C105.082 7.22133 105.679 7.136 106.33 7.136C107.599 7.136 108.724 7.44 109.706 8.048C110.687 8.64533 111.455 9.568 112.01 10.816C112.575 12.064 112.858 13.6427 112.858 15.552C112.858 17.504 112.57 19.1307 111.994 20.432C111.418 21.7333 110.612 22.7093 109.578 23.36C108.543 24 107.343 24.32 105.978 24.32C105.348 24.32 104.772 24.2347 104.25 24.064C103.738 23.8933 103.279 23.6587 102.874 23.36C102.468 23.0613 102.111 22.736 101.802 22.384C101.503 22.032 101.252 21.664 101.05 21.28V29.152H97.1455ZM105.114 21.408C106.287 21.408 107.258 20.944 108.026 20.016C108.794 19.0773 109.178 17.6107 109.178 15.616C109.178 13.888 108.815 12.528 108.09 11.536C107.375 10.5333 106.383 10.032 105.114 10.032C103.748 10.032 102.724 10.56 102.042 11.616C101.359 12.6613 101.018 13.9947 101.018 15.616C101.018 16.6613 101.167 17.6267 101.466 18.512C101.775 19.3867 102.228 20.0907 102.826 20.624C103.434 21.1467 104.196 21.408 105.114 21.408ZM116.302 29.152V7.456H120.19L120.222 10.064C120.435 9.70133 120.707 9.344 121.038 8.992C121.379 8.64 121.768 8.32533 122.206 8.048C122.654 7.77067 123.15 7.552 123.694 7.392C124.238 7.22133 124.835 7.136 125.486 7.136C126.755 7.136 127.88 7.44 128.862 8.048C129.843 8.64533 130.611 9.568 131.166 10.816C131.731 12.064 132.014 13.6427 132.014 15.552C132.014 17.504 131.726 19.1307 131.15 20.432C130.574 21.7333 129.768 22.7093 128.734 23.36C127.699 24 126.499 24.32 125.134 24.32C124.504 24.32 123.928 24.2347 123.406 24.064C122.894 23.8933 122.435 23.6587 122.03 23.36C121.624 23.0613 121.267 22.736 120.958 22.384C120.659 22.032 120.408 21.664 120.206 21.28V29.152H116.302ZM124.27 21.408C125.443 21.408 126.414 20.944 127.182 20.016C127.95 19.0773 128.334 17.6107 128.334 15.616C128.334 13.888 127.971 12.528 127.246 11.536C126.531 10.5333 125.539 10.032 124.27 10.032C122.904 10.032 121.88 10.56 121.198 11.616C120.515 12.6613 120.174 13.9947 120.174 15.616C120.174 16.6613 120.323 17.6267 120.622 18.512C120.931 19.3867 121.384 20.0907 121.982 20.624C122.59 21.1467 123.352 21.408 124.27 21.408ZM140.226 24.24C139.159 24.24 138.306 24.1067 137.666 23.84C137.026 23.5733 136.546 23.216 136.226 22.768C135.906 22.32 135.698 21.8187 135.602 21.264C135.506 20.6987 135.458 20.1227 135.458 19.536V0.223999H139.266V19.088C139.266 19.8027 139.41 20.3573 139.698 20.752C139.997 21.1467 140.477 21.376 141.138 21.44L141.97 21.472V23.92C141.682 24.0053 141.389 24.08 141.09 24.144C140.791 24.208 140.503 24.24 140.226 24.24ZM148.295 16.624C148.285 17.5627 148.434 18.3947 148.743 19.12C149.053 19.8453 149.511 20.416 150.119 20.832C150.727 21.2373 151.479 21.44 152.375 21.44C153.293 21.44 154.087 21.2373 154.759 20.832C155.442 20.416 155.895 19.7867 156.119 18.944H159.687C159.495 20.096 159.037 21.072 158.311 21.872C157.586 22.672 156.706 23.28 155.671 23.696C154.647 24.112 153.581 24.32 152.471 24.32C150.871 24.32 149.463 23.984 148.247 23.312C147.042 22.6293 146.098 21.6587 145.415 20.4C144.743 19.1413 144.407 17.6427 144.407 15.904C144.407 14.208 144.717 12.704 145.335 11.392C145.954 10.0693 146.845 9.02933 148.007 8.272C149.181 7.51467 150.589 7.136 152.231 7.136C153.863 7.136 155.234 7.48267 156.343 8.176C157.463 8.86933 158.306 9.84 158.871 11.088C159.447 12.3253 159.735 13.776 159.735 15.44V16.624H148.295ZM148.295 14.208H156.055C156.055 13.408 155.917 12.688 155.639 12.048C155.362 11.3973 154.935 10.8853 154.359 10.512C153.794 10.128 153.079 9.936 152.215 9.936C151.362 9.936 150.642 10.144 150.055 10.56C149.469 10.976 149.026 11.5147 148.727 12.176C148.429 12.8267 148.285 13.504 148.295 14.208ZM15.888 53.728H4.688V64H0.8V40.864H4.688V50.416H15.888V40.864H19.776V64H15.888V53.728ZM31.2908 64.32C29.7121 64.32 28.3361 63.984 27.1628 63.312C25.9894 62.6293 25.0774 61.6533 24.4268 60.384C23.7868 59.1147 23.4668 57.5893 23.4668 55.808C23.4668 54.08 23.7761 52.5653 24.3948 51.264C25.0241 49.9627 25.9254 48.9493 27.0988 48.224C28.2721 47.4987 29.6748 47.136 31.3068 47.136C32.8854 47.136 34.2561 47.4827 35.4188 48.176C36.5814 48.8693 37.4774 49.8613 38.1068 51.152C38.7468 52.4427 39.0668 53.9947 39.0668 55.808C39.0668 57.4827 38.7628 58.96 38.1548 60.24C37.5574 61.5093 36.6774 62.5067 35.5148 63.232C34.3628 63.9573 32.9548 64.32 31.2908 64.32ZM31.3068 61.36C32.2028 61.36 32.9388 61.1147 33.5148 60.624C34.1014 60.1333 34.5334 59.4613 34.8108 58.608C35.0988 57.7547 35.2428 56.784 35.2428 55.696C35.2428 54.6827 35.1148 53.7493 34.8588 52.896C34.6134 52.0427 34.1974 51.36 33.6108 50.848C33.0348 50.3253 32.2668 50.064 31.3068 50.064C30.4001 50.064 29.6481 50.304 29.0508 50.784C28.4641 51.2533 28.0214 51.9147 27.7228 52.768C27.4348 53.6107 27.2908 54.5867 27.2908 55.696C27.2908 56.6987 27.4188 57.632 27.6748 58.496C27.9414 59.3493 28.3681 60.0427 28.9548 60.576C29.5414 61.0987 30.3254 61.36 31.3068 61.36ZM42.5205 64V47.456H46.3125V49.824C46.7925 49.0987 47.4432 48.4693 48.2645 47.936C49.0965 47.4027 50.1525 47.136 51.4325 47.136C52.0192 47.136 52.6112 47.2373 53.2085 47.44C53.8165 47.6427 54.3765 47.9413 54.8885 48.336C55.4112 48.7307 55.8272 49.2213 56.1365 49.808C56.6592 49.0293 57.3525 48.3893 58.2165 47.888C59.0912 47.3867 60.0725 47.136 61.1605 47.136C61.7578 47.136 62.3712 47.232 63.0005 47.424C63.6405 47.616 64.2272 47.936 64.7605 48.384C65.2938 48.832 65.7258 49.4453 66.0565 50.224C66.3872 50.992 66.5525 51.9573 66.5525 53.12V64H62.6645V53.584C62.6645 52.7627 62.5205 52.1173 62.2325 51.648C61.9445 51.1787 61.5712 50.848 61.1125 50.656C60.6645 50.4533 60.1845 50.352 59.6725 50.352C59.2138 50.352 58.7338 50.4427 58.2325 50.624C57.7418 50.8053 57.3205 51.104 56.9685 51.52C56.6272 51.936 56.4565 52.496 56.4565 53.2V64H52.5685V52.96C52.5685 52.384 52.4192 51.904 52.1205 51.52C51.8218 51.136 51.4432 50.848 50.9845 50.656C50.5365 50.4533 50.0778 50.352 49.6085 50.352C49.1285 50.352 48.6378 50.4533 48.1365 50.656C47.6458 50.8587 47.2352 51.168 46.9045 51.584C46.5738 52 46.4085 52.5387 46.4085 53.2V64H42.5205ZM73.7953 56.624C73.7846 57.5627 73.9339 58.3947 74.2433 59.12C74.5526 59.8453 75.0113 60.416 75.6193 60.832C76.2273 61.2373 76.9793 61.44 77.8753 61.44C78.7926 61.44 79.5873 61.2373 80.2593 60.832C80.9419 60.416 81.3953 59.7867 81.6193 58.944H85.1873C84.9953 60.096 84.5366 61.072 83.8113 61.872C83.0859 62.672 82.2059 63.28 81.1713 63.696C80.1473 64.112 79.0806 64.32 77.9713 64.32C76.3713 64.32 74.9633 63.984 73.7473 63.312C72.5419 62.6293 71.5979 61.6587 70.9153 60.4C70.2433 59.1413 69.9073 57.6427 69.9073 55.904C69.9073 54.208 70.2166 52.704 70.8353 51.392C71.4539 50.0693 72.3446 49.0293 73.5073 48.272C74.6806 47.5147 76.0886 47.136 77.7313 47.136C79.3633 47.136 80.7339 47.4827 81.8433 48.176C82.9633 48.8693 83.8059 49.84 84.3713 51.088C84.9473 52.3253 85.2353 53.776 85.2353 55.44V56.624H73.7953ZM73.7953 54.208H81.5553C81.5553 53.408 81.4166 52.688 81.1393 52.048C80.8619 51.3973 80.4353 50.8853 79.8593 50.512C79.2939 50.128 78.5793 49.936 77.7153 49.936C76.8619 49.936 76.1419 50.144 75.5553 50.56C74.9686 50.976 74.5259 51.5147 74.2273 52.176C73.9286 52.8267 73.7846 53.504 73.7953 54.208ZM88.8643 69.152V47.456H92.7523L92.7843 50.064C92.9976 49.7013 93.2696 49.344 93.6003 48.992C93.9416 48.64 94.3309 48.3253 94.7683 48.048C95.2163 47.7707 95.7123 47.552 96.2563 47.392C96.8003 47.2213 97.3976 47.136 98.0483 47.136C99.3176 47.136 100.443 47.44 101.424 48.048C102.406 48.6453 103.174 49.568 103.728 50.816C104.294 52.064 104.576 53.6427 104.576 55.552C104.576 57.504 104.288 59.1307 103.712 60.432C103.136 61.7333 102.331 62.7093 101.296 63.36C100.262 64 99.0616 64.32 97.6963 64.32C97.0669 64.32 96.4909 64.2347 95.9683 64.064C95.4563 63.8933 94.9976 63.6587 94.5923 63.36C94.1869 63.0613 93.8296 62.736 93.5203 62.384C93.2216 62.032 92.9709 61.664 92.7683 61.28V69.152H88.8643ZM96.8323 61.408C98.0056 61.408 98.9763 60.944 99.7443 60.016C100.512 59.0773 100.896 57.6107 100.896 55.616C100.896 53.888 100.534 52.528 99.8083 51.536C99.0936 50.5333 98.1016 50.032 96.8323 50.032C95.4669 50.032 94.4429 50.56 93.7603 51.616C93.0776 52.6613 92.7363 53.9947 92.7363 55.616C92.7363 56.6613 92.8856 57.6267 93.1843 58.512C93.4936 59.3867 93.9469 60.0907 94.5443 60.624C95.1523 61.1467 95.9149 61.408 96.8323 61.408ZM114.885 64.32C113.306 64.32 111.93 63.984 110.757 63.312C109.583 62.6293 108.671 61.6533 108.021 60.384C107.381 59.1147 107.061 57.5893 107.061 55.808C107.061 54.08 107.37 52.5653 107.989 51.264C108.618 49.9627 109.519 48.9493 110.693 48.224C111.866 47.4987 113.269 47.136 114.901 47.136C116.479 47.136 117.85 47.4827 119.013 48.176C120.175 48.8693 121.071 49.8613 121.701 51.152C122.341 52.4427 122.661 53.9947 122.661 55.808C122.661 57.4827 122.357 58.96 121.749 60.24C121.151 61.5093 120.271 62.5067 119.109 63.232C117.957 63.9573 116.549 64.32 114.885 64.32ZM114.901 61.36C115.797 61.36 116.533 61.1147 117.109 60.624C117.695 60.1333 118.127 59.4613 118.405 58.608C118.693 57.7547 118.837 56.784 118.837 55.696C118.837 54.6827 118.709 53.7493 118.453 52.896C118.207 52.0427 117.791 51.36 117.205 50.848C116.629 50.3253 115.861 50.064 114.901 50.064C113.994 50.064 113.242 50.304 112.645 50.784C112.058 51.2533 111.615 51.9147 111.317 52.768C111.029 53.6107 110.885 54.5867 110.885 55.696C110.885 56.6987 111.013 57.632 111.269 58.496C111.535 59.3493 111.962 60.0427 112.549 60.576C113.135 61.0987 113.919 61.36 114.901 61.36ZM132.178 64.32C129.992 64.32 128.274 63.568 127.026 62.064C125.778 60.56 125.154 58.4213 125.154 55.648C125.154 53.92 125.405 52.4213 125.906 51.152C126.418 49.872 127.165 48.8853 128.146 48.192C129.138 47.488 130.365 47.136 131.826 47.136C132.509 47.136 133.128 47.2213 133.682 47.392C134.248 47.552 134.749 47.7653 135.186 48.032C135.624 48.2987 135.992 48.592 136.29 48.912C136.6 49.232 136.84 49.552 137.01 49.872V40.224H140.914V64H138.034L137.602 60.608C137.474 61.0027 137.282 61.4187 137.026 61.856C136.781 62.2827 136.445 62.6827 136.018 63.056C135.602 63.4293 135.08 63.7333 134.45 63.968C133.821 64.2027 133.064 64.32 132.178 64.32ZM132.978 61.456C134.376 61.456 135.394 61.0027 136.034 60.096C136.685 59.1787 137.01 57.664 137.01 55.552C137 54.3467 136.85 53.3333 136.562 52.512C136.285 51.6907 135.853 51.072 135.266 50.656C134.69 50.24 133.944 50.032 133.026 50.032C131.853 50.032 130.888 50.464 130.13 51.328C129.373 52.192 128.994 53.6 128.994 55.552C128.994 57.4933 129.341 58.9653 130.034 59.968C130.728 60.96 131.709 61.456 132.978 61.456ZM152.988 64V40.864H158.556L164.62 58.544L170.748 40.864H176.284V64H172.332V45.856L166.236 64H162.988L156.94 45.968V64H152.988ZM185.318 47.456V64H181.574V47.456H185.318ZM185.366 40.88V44.56H181.51V40.88H185.366ZM190.177 64V47.456H193.985V49.824C194.241 49.3973 194.587 48.9867 195.025 48.592C195.473 48.1973 196.022 47.8773 196.673 47.632C197.323 47.3867 198.086 47.264 198.961 47.264C199.985 47.264 200.934 47.4667 201.809 47.872C202.694 48.2773 203.403 48.912 203.937 49.776C204.481 50.64 204.753 51.7547 204.753 53.12V64H200.849V53.584C200.849 52.496 200.55 51.6907 199.953 51.168C199.355 50.6347 198.603 50.368 197.697 50.368C197.078 50.368 196.491 50.4747 195.937 50.688C195.382 50.8907 194.929 51.2053 194.577 51.632C194.235 52.048 194.065 52.5707 194.065 53.2V64H190.177ZM212.943 47.456V64H209.199V47.456H212.943ZM212.991 40.88V44.56H209.135V40.88H212.991Z" fill="#191C1F"/>
</svg>
