<svg width="316" height="41" viewBox="0 0 316 41" fill="none" xmlns="http://www.w3.org/2000/svg">
<path d="M6.57 14.18C5.394 14.18 4.386 13.91 3.546 13.37C2.706 12.824 2.061 12.05 1.611 11.048C1.167 10.04 0.945 8.834 0.945 7.43C0.945 6.032 1.167 4.841 1.611 3.857C2.055 2.867 2.697 2.111 3.537 1.589C4.377 1.067 5.388 0.805999 6.57 0.805999C7.506 0.805999 8.337 0.997999 9.063 1.382C9.789 1.766 10.371 2.282 10.809 2.93C11.253 3.578 11.517 4.295 11.601 5.081H9.549C9.459 4.589 9.285 4.145 9.027 3.749C8.775 3.347 8.439 3.032 8.019 2.804C7.599 2.57 7.101 2.453 6.525 2.453C5.787 2.453 5.16 2.627 4.644 2.975C4.128 3.323 3.735 3.866 3.465 4.604C3.201 5.342 3.069 6.293 3.069 7.457C3.069 9.215 3.366 10.502 3.96 11.318C4.554 12.128 5.409 12.533 6.525 12.533C7.101 12.533 7.599 12.41 8.019 12.164C8.439 11.912 8.775 11.579 9.027 11.165C9.285 10.745 9.459 10.289 9.549 9.797H11.601C11.529 10.367 11.379 10.916 11.151 11.444C10.923 11.966 10.605 12.434 10.197 12.848C9.795 13.262 9.294 13.589 8.694 13.829C8.094 14.063 7.386 14.18 6.57 14.18ZM13.8382 14V4.694H15.6832V6.602C15.8392 6.146 16.0552 5.765 16.3312 5.459C16.6132 5.147 16.9402 4.913 17.3122 4.757C17.6842 4.595 18.0772 4.514 18.4912 4.514C18.6172 4.514 18.7372 4.523 18.8512 4.541C18.9652 4.553 19.0552 4.577 19.1212 4.613V6.467C19.0432 6.431 18.9412 6.407 18.8152 6.395C18.6952 6.383 18.5902 6.374 18.5002 6.368C18.0922 6.338 17.7202 6.359 17.3842 6.431C17.0482 6.503 16.7572 6.623 16.5112 6.791C16.2712 6.959 16.0852 7.178 15.9532 7.448C15.8272 7.718 15.7642 8.036 15.7642 8.402V14H13.8382ZM23.3311 14.18C22.7311 14.18 22.1971 14.072 21.7291 13.856C21.2671 13.64 20.9041 13.328 20.6401 12.92C20.3761 12.512 20.2441 12.02 20.2441 11.444C20.2441 10.412 20.6071 9.641 21.3331 9.131C22.0651 8.621 23.2351 8.351 24.8431 8.321L26.3731 8.276V7.601C26.3731 7.067 26.2141 6.647 25.8961 6.341C25.5781 6.035 25.0861 5.885 24.4201 5.891C23.9281 5.891 23.4871 6.005 23.0971 6.233C22.7071 6.461 22.4521 6.836 22.3321 7.358H20.6671C20.7031 6.74 20.8801 6.221 21.1981 5.801C21.5221 5.375 21.9661 5.054 22.5301 4.838C23.0941 4.622 23.7541 4.514 24.5101 4.514C25.3621 4.514 26.0611 4.631 26.6071 4.865C27.1531 5.093 27.5581 5.429 27.8221 5.873C28.0921 6.317 28.2271 6.857 28.2271 7.493V14H26.5891L26.4451 12.29C26.0971 13.004 25.6561 13.499 25.1221 13.775C24.5881 14.045 23.9911 14.18 23.3311 14.18ZM23.9341 12.839C24.2281 12.839 24.5191 12.788 24.8071 12.686C25.0951 12.578 25.3561 12.434 25.5901 12.254C25.8241 12.068 26.0101 11.861 26.1481 11.633C26.2921 11.405 26.3671 11.171 26.3731 10.931V9.392L25.1131 9.419C24.4711 9.425 23.9251 9.491 23.4751 9.617C23.0311 9.743 22.6891 9.938 22.4491 10.202C22.2151 10.466 22.0981 10.817 22.0981 11.255C22.0981 11.753 22.2691 12.143 22.6111 12.425C22.9591 12.701 23.4001 12.839 23.9341 12.839ZM34.0727 14.18C33.4247 14.18 32.8157 14.078 32.2457 13.874C31.6817 13.67 31.2077 13.349 30.8237 12.911C30.4457 12.473 30.2087 11.912 30.1127 11.228H31.8317C31.9097 11.582 32.0567 11.876 32.2727 12.11C32.4947 12.338 32.7587 12.509 33.0647 12.623C33.3767 12.731 33.7097 12.785 34.0637 12.785C34.6517 12.785 35.1287 12.68 35.4947 12.47C35.8607 12.254 36.0437 11.924 36.0437 11.48C36.0437 11.162 35.9447 10.907 35.7467 10.715C35.5487 10.523 35.2397 10.382 34.8197 10.292L32.9657 9.851C32.1977 9.671 31.5827 9.386 31.1207 8.996C30.6587 8.6 30.4247 8.048 30.4187 7.34C30.4187 6.794 30.5537 6.308 30.8237 5.882C31.0997 5.456 31.5077 5.123 32.0477 4.883C32.5937 4.637 33.2657 4.514 34.0637 4.514C35.1137 4.514 35.9567 4.748 36.5927 5.216C37.2347 5.684 37.5647 6.362 37.5827 7.25H35.9177C35.8577 6.824 35.6627 6.491 35.3327 6.251C35.0087 6.005 34.5797 5.882 34.0457 5.882C33.4937 5.882 33.0407 5.993 32.6867 6.215C32.3327 6.431 32.1557 6.764 32.1557 7.214C32.1557 7.52 32.2847 7.763 32.5427 7.943C32.8067 8.117 33.1937 8.261 33.7037 8.375L35.4677 8.816C35.9237 8.936 36.2987 9.095 36.5927 9.293C36.8867 9.485 37.1177 9.698 37.2857 9.932C37.4537 10.166 37.5707 10.409 37.6367 10.661C37.7087 10.913 37.7447 11.15 37.7447 11.372C37.7447 11.96 37.5947 12.464 37.2947 12.884C37.0007 13.298 36.5807 13.619 36.0347 13.847C35.4887 14.069 34.8347 14.18 34.0727 14.18ZM44.0374 14V4.694H45.9184V6.035C46.0684 5.783 46.2694 5.546 46.5214 5.324C46.7794 5.102 47.0944 4.922 47.4664 4.784C47.8444 4.646 48.2794 4.577 48.7714 4.577C49.3534 4.577 49.8904 4.694 50.3824 4.928C50.8804 5.156 51.2794 5.516 51.5794 6.008C51.8794 6.494 52.0294 7.124 52.0294 7.898V14H50.1034V8.105C50.1034 7.439 49.9234 6.944 49.5634 6.62C49.2094 6.296 48.7504 6.134 48.1864 6.134C47.8084 6.134 47.4484 6.197 47.1064 6.323C46.7644 6.449 46.4884 6.641 46.2784 6.899C46.0684 7.151 45.9634 7.469 45.9634 7.853V14H44.0374ZM54.5414 14V4.694H56.3954V14H54.5414ZM54.4964 2.894V0.995H56.4314V2.894H54.4964ZM62.5141 14.18C61.8661 14.18 61.2571 14.078 60.6871 13.874C60.1231 13.67 59.6491 13.349 59.2651 12.911C58.8871 12.473 58.6501 11.912 58.5541 11.228H60.2731C60.3511 11.582 60.4981 11.876 60.7141 12.11C60.9361 12.338 61.2001 12.509 61.5061 12.623C61.8181 12.731 62.1511 12.785 62.5051 12.785C63.0931 12.785 63.5701 12.68 63.9361 12.47C64.3021 12.254 64.4851 11.924 64.4851 11.48C64.4851 11.162 64.3861 10.907 64.1881 10.715C63.9901 10.523 63.6811 10.382 63.2611 10.292L61.4071 9.851C60.6391 9.671 60.0241 9.386 59.5621 8.996C59.1001 8.6 58.8661 8.048 58.8601 7.34C58.8601 6.794 58.9951 6.308 59.2651 5.882C59.5411 5.456 59.9491 5.123 60.4891 4.883C61.0351 4.637 61.7071 4.514 62.5051 4.514C63.5551 4.514 64.3981 4.748 65.0341 5.216C65.6761 5.684 66.0061 6.362 66.0241 7.25H64.3591C64.2991 6.824 64.1041 6.491 63.7741 6.251C63.4501 6.005 63.0211 5.882 62.4871 5.882C61.9351 5.882 61.4821 5.993 61.1281 6.215C60.7741 6.431 60.5971 6.764 60.5971 7.214C60.5971 7.52 60.7261 7.763 60.9841 7.943C61.2481 8.117 61.6351 8.261 62.1451 8.375L63.9091 8.816C64.3651 8.936 64.7401 9.095 65.0341 9.293C65.3281 9.485 65.5591 9.698 65.7271 9.932C65.8951 10.166 66.0121 10.409 66.0781 10.661C66.1501 10.913 66.1861 11.15 66.1861 11.372C66.1861 11.96 66.0361 12.464 65.7361 12.884C65.4421 13.298 65.0221 13.619 64.4761 13.847C63.9301 14.069 63.2761 14.18 62.5141 14.18ZM70.7801 14.126C70.2281 14.126 69.7841 14.054 69.4481 13.91C69.1181 13.766 68.8661 13.574 68.6921 13.334C68.5181 13.088 68.4011 12.812 68.3411 12.506C68.2871 12.194 68.2601 11.873 68.2601 11.543V0.625999H70.1591V11.345C70.1591 11.777 70.2431 12.107 70.4111 12.335C70.5851 12.563 70.8491 12.692 71.2031 12.722L71.6891 12.74V13.964C71.5391 14.012 71.3831 14.051 71.2211 14.081C71.0651 14.111 70.9181 14.126 70.7801 14.126ZM81.357 14.18C80.139 14.18 79.176 13.763 78.468 12.929C77.766 12.089 77.415 10.88 77.415 9.302C77.415 8.336 77.556 7.496 77.838 6.782C78.126 6.062 78.549 5.504 79.107 5.108C79.665 4.712 80.361 4.514 81.195 4.514C81.609 4.514 81.981 4.565 82.311 4.667C82.641 4.769 82.929 4.901 83.175 5.063C83.421 5.225 83.628 5.399 83.796 5.585C83.964 5.771 84.09 5.945 84.174 6.107V0.625999H86.118V14H84.669L84.453 12.092C84.387 12.296 84.285 12.518 84.147 12.758C84.015 12.998 83.829 13.226 83.589 13.442C83.355 13.658 83.055 13.835 82.689 13.973C82.323 14.111 81.879 14.18 81.357 14.18ZM81.726 12.731C82.59 12.731 83.214 12.461 83.598 11.921C83.982 11.375 84.174 10.481 84.174 9.239C84.168 8.537 84.081 7.943 83.913 7.457C83.751 6.971 83.493 6.605 83.139 6.359C82.791 6.107 82.332 5.981 81.762 5.981C81.048 5.981 80.463 6.239 80.007 6.755C79.557 7.265 79.332 8.093 79.332 9.239C79.332 10.367 79.536 11.231 79.944 11.831C80.358 12.431 80.952 12.731 81.726 12.731ZM92.537 14.18C91.667 14.18 90.908 13.994 90.26 13.622C89.612 13.244 89.108 12.698 88.748 11.984C88.388 11.27 88.208 10.406 88.208 9.392C88.208 8.414 88.379 7.559 88.721 6.827C89.063 6.095 89.555 5.528 90.197 5.126C90.845 4.718 91.628 4.514 92.546 4.514C93.422 4.514 94.181 4.706 94.823 5.09C95.465 5.468 95.963 6.023 96.317 6.755C96.671 7.481 96.848 8.36 96.848 9.392C96.848 10.334 96.683 11.165 96.353 11.885C96.023 12.605 95.537 13.169 94.895 13.577C94.259 13.979 93.473 14.18 92.537 14.18ZM92.546 12.695C93.08 12.695 93.524 12.557 93.878 12.281C94.232 11.999 94.499 11.606 94.679 11.102C94.859 10.592 94.949 10.004 94.949 9.338C94.949 8.72 94.868 8.159 94.706 7.655C94.55 7.145 94.295 6.74 93.941 6.44C93.593 6.14 93.128 5.99 92.546 5.99C92.012 5.99 91.562 6.128 91.196 6.404C90.836 6.674 90.566 7.061 90.386 7.565C90.206 8.063 90.116 8.654 90.116 9.338C90.116 9.944 90.197 10.502 90.359 11.012C90.521 11.522 90.779 11.93 91.133 12.236C91.493 12.542 91.964 12.695 92.546 12.695ZM101.471 14.126C100.919 14.126 100.475 14.054 100.139 13.91C99.8095 13.766 99.5575 13.574 99.3835 13.334C99.2095 13.088 99.0925 12.812 99.0325 12.506C98.9785 12.194 98.9515 11.873 98.9515 11.543V0.625999H100.85V11.345C100.85 11.777 100.934 12.107 101.102 12.335C101.276 12.563 101.54 12.692 101.894 12.722L102.38 12.74V13.964C102.23 14.012 102.074 14.051 101.912 14.081C101.756 14.111 101.609 14.126 101.471 14.126ZM107.865 14.18C106.995 14.18 106.236 13.994 105.588 13.622C104.94 13.244 104.436 12.698 104.076 11.984C103.716 11.27 103.536 10.406 103.536 9.392C103.536 8.414 103.707 7.559 104.049 6.827C104.391 6.095 104.883 5.528 105.525 5.126C106.173 4.718 106.956 4.514 107.874 4.514C108.75 4.514 109.509 4.706 110.151 5.09C110.793 5.468 111.291 6.023 111.645 6.755C111.999 7.481 112.176 8.36 112.176 9.392C112.176 10.334 112.011 11.165 111.681 11.885C111.351 12.605 110.865 13.169 110.223 13.577C109.587 13.979 108.801 14.18 107.865 14.18ZM107.874 12.695C108.408 12.695 108.852 12.557 109.206 12.281C109.56 11.999 109.827 11.606 110.007 11.102C110.187 10.592 110.277 10.004 110.277 9.338C110.277 8.72 110.196 8.159 110.034 7.655C109.878 7.145 109.623 6.74 109.269 6.44C108.921 6.14 108.456 5.99 107.874 5.99C107.34 5.99 106.89 6.128 106.524 6.404C106.164 6.674 105.894 7.061 105.714 7.565C105.534 8.063 105.444 8.654 105.444 9.338C105.444 9.944 105.525 10.502 105.687 11.012C105.849 11.522 106.107 11.93 106.461 12.236C106.821 12.542 107.292 12.695 107.874 12.695ZM114.28 14V4.694H116.125V6.602C116.281 6.146 116.497 5.765 116.773 5.459C117.055 5.147 117.382 4.913 117.754 4.757C118.126 4.595 118.519 4.514 118.933 4.514C119.059 4.514 119.179 4.523 119.293 4.541C119.407 4.553 119.497 4.577 119.563 4.613V6.467C119.485 6.431 119.383 6.407 119.257 6.395C119.137 6.383 119.032 6.374 118.942 6.368C118.534 6.338 118.162 6.359 117.826 6.431C117.49 6.503 117.199 6.623 116.953 6.791C116.713 6.959 116.527 7.178 116.395 7.448C116.269 7.718 116.206 8.036 116.206 8.402V14H114.28ZM119.699 16.331L120.716 14.045L119.897 13.991V11.849H122.129V13.721L120.527 16.331H119.699ZM131.56 14.18C130.96 14.18 130.426 14.072 129.958 13.856C129.496 13.64 129.133 13.328 128.869 12.92C128.605 12.512 128.473 12.02 128.473 11.444C128.473 10.412 128.836 9.641 129.562 9.131C130.294 8.621 131.464 8.351 133.072 8.321L134.602 8.276V7.601C134.602 7.067 134.443 6.647 134.125 6.341C133.807 6.035 133.315 5.885 132.649 5.891C132.157 5.891 131.716 6.005 131.326 6.233C130.936 6.461 130.681 6.836 130.561 7.358H128.896C128.932 6.74 129.109 6.221 129.427 5.801C129.751 5.375 130.195 5.054 130.759 4.838C131.323 4.622 131.983 4.514 132.739 4.514C133.591 4.514 134.29 4.631 134.836 4.865C135.382 5.093 135.787 5.429 136.051 5.873C136.321 6.317 136.456 6.857 136.456 7.493V14H134.818L134.674 12.29C134.326 13.004 133.885 13.499 133.351 13.775C132.817 14.045 132.22 14.18 131.56 14.18ZM132.163 12.839C132.457 12.839 132.748 12.788 133.036 12.686C133.324 12.578 133.585 12.434 133.819 12.254C134.053 12.068 134.239 11.861 134.377 11.633C134.521 11.405 134.596 11.171 134.602 10.931V9.392L133.342 9.419C132.7 9.425 132.154 9.491 131.704 9.617C131.26 9.743 130.918 9.938 130.678 10.202C130.444 10.466 130.327 10.817 130.327 11.255C130.327 11.753 130.498 12.143 130.84 12.425C131.188 12.701 131.629 12.839 132.163 12.839ZM142.749 14.18C141.909 14.18 141.162 13.997 140.508 13.631C139.854 13.259 139.341 12.716 138.969 12.002C138.597 11.282 138.411 10.409 138.411 9.383C138.411 8.417 138.582 7.568 138.924 6.836C139.272 6.104 139.77 5.534 140.418 5.126C141.066 4.718 141.843 4.514 142.749 4.514C143.451 4.514 144.072 4.652 144.612 4.928C145.152 5.198 145.59 5.576 145.926 6.062C146.268 6.548 146.475 7.115 146.547 7.763H144.873C144.825 7.457 144.711 7.172 144.531 6.908C144.351 6.644 144.114 6.434 143.82 6.278C143.526 6.116 143.175 6.035 142.767 6.035C142.017 6.035 141.408 6.308 140.94 6.854C140.472 7.4 140.238 8.237 140.238 9.365C140.238 10.397 140.457 11.219 140.895 11.831C141.333 12.443 141.966 12.749 142.794 12.749C143.202 12.749 143.553 12.665 143.847 12.497C144.141 12.329 144.375 12.113 144.549 11.849C144.729 11.585 144.843 11.312 144.891 11.03H146.529C146.457 11.654 146.25 12.203 145.908 12.677C145.572 13.151 145.134 13.52 144.594 13.784C144.054 14.048 143.439 14.18 142.749 14.18ZM152.505 14.18C151.665 14.18 150.918 13.997 150.264 13.631C149.61 13.259 149.097 12.716 148.725 12.002C148.353 11.282 148.167 10.409 148.167 9.383C148.167 8.417 148.338 7.568 148.68 6.836C149.028 6.104 149.526 5.534 150.174 5.126C150.822 4.718 151.599 4.514 152.505 4.514C153.207 4.514 153.828 4.652 154.368 4.928C154.908 5.198 155.346 5.576 155.682 6.062C156.024 6.548 156.231 7.115 156.303 7.763H154.629C154.581 7.457 154.467 7.172 154.287 6.908C154.107 6.644 153.87 6.434 153.576 6.278C153.282 6.116 152.931 6.035 152.523 6.035C151.773 6.035 151.164 6.308 150.696 6.854C150.228 7.4 149.994 8.237 149.994 9.365C149.994 10.397 150.213 11.219 150.651 11.831C151.089 12.443 151.722 12.749 152.55 12.749C152.958 12.749 153.309 12.665 153.603 12.497C153.897 12.329 154.131 12.113 154.305 11.849C154.485 11.585 154.599 11.312 154.647 11.03H156.285C156.213 11.654 156.006 12.203 155.664 12.677C155.328 13.151 154.89 13.52 154.35 13.784C153.81 14.048 153.195 14.18 152.505 14.18ZM161.873 14.18C161.405 14.174 160.958 14.105 160.532 13.973C160.106 13.841 159.725 13.643 159.389 13.379C159.059 13.115 158.795 12.788 158.597 12.398C158.405 12.008 158.309 11.555 158.309 11.039V4.694H160.244V10.832C160.244 11.39 160.418 11.843 160.766 12.191C161.114 12.539 161.639 12.713 162.341 12.713C162.977 12.713 163.487 12.548 163.871 12.218C164.255 11.882 164.447 11.393 164.447 10.751V4.694H166.364V14H164.87L164.654 12.2C164.546 12.686 164.351 13.076 164.069 13.37C163.793 13.658 163.463 13.868 163.079 14C162.701 14.126 162.299 14.186 161.873 14.18ZM169.088 14V4.694H170.96V6.035C171.224 5.627 171.584 5.273 172.04 4.973C172.496 4.667 173.084 4.514 173.804 4.514C174.14 4.514 174.479 4.571 174.821 4.685C175.169 4.799 175.487 4.97 175.775 5.198C176.069 5.42 176.3 5.696 176.468 6.026C176.762 5.582 177.155 5.219 177.647 4.937C178.139 4.655 178.691 4.514 179.303 4.514C179.633 4.514 179.975 4.568 180.329 4.676C180.683 4.778 181.01 4.955 181.31 5.207C181.616 5.453 181.862 5.795 182.048 6.233C182.24 6.671 182.336 7.226 182.336 7.898V14H180.401V8.105C180.401 7.595 180.314 7.196 180.14 6.908C179.972 6.62 179.75 6.419 179.474 6.305C179.204 6.185 178.916 6.125 178.61 6.125C178.334 6.125 178.046 6.179 177.746 6.287C177.446 6.395 177.191 6.575 176.981 6.827C176.771 7.079 176.666 7.421 176.666 7.853V14H174.74V7.691C174.74 7.349 174.647 7.061 174.461 6.827C174.281 6.593 174.053 6.419 173.777 6.305C173.507 6.185 173.237 6.125 172.967 6.125C172.667 6.125 172.367 6.185 172.067 6.305C171.767 6.425 171.515 6.614 171.311 6.872C171.113 7.124 171.014 7.451 171.014 7.853V14H169.088ZM188.18 14.18C187.532 14.18 186.923 14.078 186.353 13.874C185.789 13.67 185.315 13.349 184.931 12.911C184.553 12.473 184.316 11.912 184.22 11.228H185.939C186.017 11.582 186.164 11.876 186.38 12.11C186.602 12.338 186.866 12.509 187.172 12.623C187.484 12.731 187.817 12.785 188.171 12.785C188.759 12.785 189.236 12.68 189.602 12.47C189.968 12.254 190.151 11.924 190.151 11.48C190.151 11.162 190.052 10.907 189.854 10.715C189.656 10.523 189.347 10.382 188.927 10.292L187.073 9.851C186.305 9.671 185.69 9.386 185.228 8.996C184.766 8.6 184.532 8.048 184.526 7.34C184.526 6.794 184.661 6.308 184.931 5.882C185.207 5.456 185.615 5.123 186.155 4.883C186.701 4.637 187.373 4.514 188.171 4.514C189.221 4.514 190.064 4.748 190.7 5.216C191.342 5.684 191.672 6.362 191.69 7.25H190.025C189.965 6.824 189.77 6.491 189.44 6.251C189.116 6.005 188.687 5.882 188.153 5.882C187.601 5.882 187.148 5.993 186.794 6.215C186.44 6.431 186.263 6.764 186.263 7.214C186.263 7.52 186.392 7.763 186.65 7.943C186.914 8.117 187.301 8.261 187.811 8.375L189.575 8.816C190.031 8.936 190.406 9.095 190.7 9.293C190.994 9.485 191.225 9.698 191.393 9.932C191.561 10.166 191.678 10.409 191.744 10.661C191.816 10.913 191.852 11.15 191.852 11.372C191.852 11.96 191.702 12.464 191.402 12.884C191.108 13.298 190.688 13.619 190.142 13.847C189.596 14.069 188.942 14.18 188.18 14.18ZM196.616 14.18C196.016 14.18 195.482 14.072 195.014 13.856C194.552 13.64 194.189 13.328 193.925 12.92C193.661 12.512 193.529 12.02 193.529 11.444C193.529 10.412 193.892 9.641 194.618 9.131C195.35 8.621 196.52 8.351 198.128 8.321L199.658 8.276V7.601C199.658 7.067 199.499 6.647 199.181 6.341C198.863 6.035 198.371 5.885 197.705 5.891C197.213 5.891 196.772 6.005 196.382 6.233C195.992 6.461 195.737 6.836 195.617 7.358H193.952C193.988 6.74 194.165 6.221 194.483 5.801C194.807 5.375 195.251 5.054 195.815 4.838C196.379 4.622 197.039 4.514 197.795 4.514C198.647 4.514 199.346 4.631 199.892 4.865C200.438 5.093 200.843 5.429 201.107 5.873C201.377 6.317 201.512 6.857 201.512 7.493V14H199.874L199.73 12.29C199.382 13.004 198.941 13.499 198.407 13.775C197.873 14.045 197.276 14.18 196.616 14.18ZM197.219 12.839C197.513 12.839 197.804 12.788 198.092 12.686C198.38 12.578 198.641 12.434 198.875 12.254C199.109 12.068 199.295 11.861 199.433 11.633C199.577 11.405 199.652 11.171 199.658 10.931V9.392L198.398 9.419C197.756 9.425 197.21 9.491 196.76 9.617C196.316 9.743 195.974 9.938 195.734 10.202C195.5 10.466 195.383 10.817 195.383 11.255C195.383 11.753 195.554 12.143 195.896 12.425C196.244 12.701 196.685 12.839 197.219 12.839ZM203.981 14V4.694H205.862V6.035C206.012 5.783 206.213 5.546 206.465 5.324C206.723 5.102 207.038 4.922 207.41 4.784C207.788 4.646 208.223 4.577 208.715 4.577C209.297 4.577 209.834 4.694 210.326 4.928C210.824 5.156 211.223 5.516 211.523 6.008C211.823 6.494 211.973 7.124 211.973 7.898V14H210.047V8.105C210.047 7.439 209.867 6.944 209.507 6.62C209.153 6.296 208.694 6.134 208.13 6.134C207.752 6.134 207.392 6.197 207.05 6.323C206.708 6.449 206.432 6.641 206.222 6.899C206.012 7.151 205.907 7.469 205.907 7.853V14H203.981ZM222.567 14.18C221.685 14.18 220.908 13.991 220.236 13.613C219.564 13.229 219.039 12.683 218.661 11.975C218.289 11.267 218.103 10.424 218.103 9.446C218.103 8.48 218.274 7.628 218.616 6.89C218.958 6.146 219.453 5.564 220.101 5.144C220.749 4.724 221.529 4.514 222.441 4.514C223.335 4.514 224.091 4.706 224.709 5.09C225.327 5.474 225.795 6.014 226.113 6.71C226.431 7.4 226.59 8.216 226.59 9.158V9.797H220.038C220.032 10.355 220.122 10.856 220.308 11.3C220.494 11.738 220.77 12.086 221.136 12.344C221.508 12.596 221.97 12.722 222.522 12.722C223.08 12.722 223.56 12.596 223.962 12.344C224.37 12.092 224.637 11.717 224.763 11.219H226.545C226.437 11.855 226.182 12.395 225.78 12.839C225.378 13.283 224.895 13.619 224.331 13.847C223.767 14.069 223.179 14.18 222.567 14.18ZM220.038 8.546H224.754C224.754 8.06 224.67 7.619 224.502 7.223C224.334 6.821 224.076 6.506 223.728 6.278C223.386 6.044 222.954 5.927 222.432 5.927C221.898 5.927 221.454 6.056 221.1 6.314C220.746 6.572 220.479 6.902 220.299 7.304C220.125 7.706 220.038 8.12 220.038 8.546ZM231.97 14.063C231.28 14.063 230.746 13.97 230.368 13.784C229.99 13.598 229.726 13.331 229.576 12.983C229.426 12.629 229.351 12.203 229.351 11.705V6.08H227.839V4.694H229.414L229.882 1.958H231.286V4.685H233.374V6.08H231.286L231.295 11.633C231.295 11.939 231.325 12.164 231.385 12.308C231.451 12.446 231.559 12.536 231.709 12.578C231.865 12.614 232.075 12.632 232.339 12.632H233.419V13.883C233.305 13.931 233.128 13.973 232.888 14.009C232.654 14.045 232.348 14.063 231.97 14.063ZM239.823 14V4.694H241.695V6.035C241.959 5.627 242.319 5.273 242.775 4.973C243.231 4.667 243.819 4.514 244.539 4.514C244.875 4.514 245.214 4.571 245.556 4.685C245.904 4.799 246.222 4.97 246.51 5.198C246.804 5.42 247.035 5.696 247.203 6.026C247.497 5.582 247.89 5.219 248.382 4.937C248.874 4.655 249.426 4.514 250.038 4.514C250.368 4.514 250.71 4.568 251.064 4.676C251.418 4.778 251.745 4.955 252.045 5.207C252.351 5.453 252.597 5.795 252.783 6.233C252.975 6.671 253.071 7.226 253.071 7.898V14H251.136V8.105C251.136 7.595 251.049 7.196 250.875 6.908C250.707 6.62 250.485 6.419 250.209 6.305C249.939 6.185 249.651 6.125 249.345 6.125C249.069 6.125 248.781 6.179 248.481 6.287C248.181 6.395 247.926 6.575 247.716 6.827C247.506 7.079 247.401 7.421 247.401 7.853V14H245.475V7.691C245.475 7.349 245.382 7.061 245.196 6.827C245.016 6.593 244.788 6.419 244.512 6.305C244.242 6.185 243.972 6.125 243.702 6.125C243.402 6.125 243.102 6.185 242.802 6.305C242.502 6.425 242.25 6.614 242.046 6.872C241.848 7.124 241.749 7.451 241.749 7.853V14H239.823ZM259.569 14.18C258.687 14.18 257.91 13.991 257.238 13.613C256.566 13.229 256.041 12.683 255.663 11.975C255.291 11.267 255.105 10.424 255.105 9.446C255.105 8.48 255.276 7.628 255.618 6.89C255.96 6.146 256.455 5.564 257.103 5.144C257.751 4.724 258.531 4.514 259.443 4.514C260.337 4.514 261.093 4.706 261.711 5.09C262.329 5.474 262.797 6.014 263.115 6.71C263.433 7.4 263.592 8.216 263.592 9.158V9.797H257.04C257.034 10.355 257.124 10.856 257.31 11.3C257.496 11.738 257.772 12.086 258.138 12.344C258.51 12.596 258.972 12.722 259.524 12.722C260.082 12.722 260.562 12.596 260.964 12.344C261.372 12.092 261.639 11.717 261.765 11.219H263.547C263.439 11.855 263.184 12.395 262.782 12.839C262.38 13.283 261.897 13.619 261.333 13.847C260.769 14.069 260.181 14.18 259.569 14.18ZM257.04 8.546H261.756C261.756 8.06 261.672 7.619 261.504 7.223C261.336 6.821 261.078 6.506 260.73 6.278C260.388 6.044 259.956 5.927 259.434 5.927C258.9 5.927 258.456 6.056 258.102 6.314C257.748 6.572 257.481 6.902 257.301 7.304C257.127 7.706 257.04 8.12 257.04 8.546ZM268.972 14.063C268.282 14.063 267.748 13.97 267.37 13.784C266.992 13.598 266.728 13.331 266.578 12.983C266.428 12.629 266.353 12.203 266.353 11.705V6.08H264.841V4.694H266.416L266.884 1.958H268.288V4.685H270.376V6.08H268.288L268.297 11.633C268.297 11.939 268.327 12.164 268.387 12.308C268.453 12.446 268.561 12.536 268.711 12.578C268.867 12.614 269.077 12.632 269.341 12.632H270.421V13.883C270.307 13.931 270.13 13.973 269.89 14.009C269.656 14.045 269.35 14.063 268.972 14.063ZM275.868 14.18C275.4 14.174 274.953 14.105 274.527 13.973C274.101 13.841 273.72 13.643 273.384 13.379C273.054 13.115 272.79 12.788 272.592 12.398C272.4 12.008 272.304 11.555 272.304 11.039V4.694H274.239V10.832C274.239 11.39 274.413 11.843 274.761 12.191C275.109 12.539 275.634 12.713 276.336 12.713C276.972 12.713 277.482 12.548 277.866 12.218C278.25 11.882 278.442 11.393 278.442 10.751V4.694H280.359V14H278.865L278.649 12.2C278.541 12.686 278.346 13.076 278.064 13.37C277.788 13.658 277.458 13.868 277.074 14C276.696 14.126 276.294 14.186 275.868 14.18ZM286.442 14.18C285.794 14.18 285.185 14.078 284.615 13.874C284.051 13.67 283.577 13.349 283.193 12.911C282.815 12.473 282.578 11.912 282.482 11.228H284.201C284.279 11.582 284.426 11.876 284.642 12.11C284.864 12.338 285.128 12.509 285.434 12.623C285.746 12.731 286.079 12.785 286.433 12.785C287.021 12.785 287.498 12.68 287.864 12.47C288.23 12.254 288.413 11.924 288.413 11.48C288.413 11.162 288.314 10.907 288.116 10.715C287.918 10.523 287.609 10.382 287.189 10.292L285.335 9.851C284.567 9.671 283.952 9.386 283.49 8.996C283.028 8.6 282.794 8.048 282.788 7.34C282.788 6.794 282.923 6.308 283.193 5.882C283.469 5.456 283.877 5.123 284.417 4.883C284.963 4.637 285.635 4.514 286.433 4.514C287.483 4.514 288.326 4.748 288.962 5.216C289.604 5.684 289.934 6.362 289.952 7.25H288.287C288.227 6.824 288.032 6.491 287.702 6.251C287.378 6.005 286.949 5.882 286.415 5.882C285.863 5.882 285.41 5.993 285.056 6.215C284.702 6.431 284.525 6.764 284.525 7.214C284.525 7.52 284.654 7.763 284.912 7.943C285.176 8.117 285.563 8.261 286.073 8.375L287.837 8.816C288.293 8.936 288.668 9.095 288.962 9.293C289.256 9.485 289.487 9.698 289.655 9.932C289.823 10.166 289.94 10.409 290.006 10.661C290.078 10.913 290.114 11.15 290.114 11.372C290.114 11.96 289.964 12.464 289.664 12.884C289.37 13.298 288.95 13.619 288.404 13.847C287.858 14.069 287.204 14.18 286.442 14.18ZM299.872 14.18C299.224 14.18 298.615 14.078 298.045 13.874C297.481 13.67 297.007 13.349 296.623 12.911C296.245 12.473 296.008 11.912 295.912 11.228H297.631C297.709 11.582 297.856 11.876 298.072 12.11C298.294 12.338 298.558 12.509 298.864 12.623C299.176 12.731 299.509 12.785 299.863 12.785C300.451 12.785 300.928 12.68 301.294 12.47C301.66 12.254 301.843 11.924 301.843 11.48C301.843 11.162 301.744 10.907 301.546 10.715C301.348 10.523 301.039 10.382 300.619 10.292L298.765 9.851C297.997 9.671 297.382 9.386 296.92 8.996C296.458 8.6 296.224 8.048 296.218 7.34C296.218 6.794 296.353 6.308 296.623 5.882C296.899 5.456 297.307 5.123 297.847 4.883C298.393 4.637 299.065 4.514 299.863 4.514C300.913 4.514 301.756 4.748 302.392 5.216C303.034 5.684 303.364 6.362 303.382 7.25H301.717C301.657 6.824 301.462 6.491 301.132 6.251C300.808 6.005 300.379 5.882 299.845 5.882C299.293 5.882 298.84 5.993 298.486 6.215C298.132 6.431 297.955 6.764 297.955 7.214C297.955 7.52 298.084 7.763 298.342 7.943C298.606 8.117 298.993 8.261 299.503 8.375L301.267 8.816C301.723 8.936 302.098 9.095 302.392 9.293C302.686 9.485 302.917 9.698 303.085 9.932C303.253 10.166 303.37 10.409 303.436 10.661C303.508 10.913 303.544 11.15 303.544 11.372C303.544 11.96 303.394 12.464 303.094 12.884C302.8 13.298 302.38 13.619 301.834 13.847C301.288 14.069 300.634 14.18 299.872 14.18ZM305.663 14V4.694H307.517V14H305.663ZM305.618 2.894V0.995H307.553V2.894H305.618ZM313.743 14.063C313.053 14.063 312.519 13.97 312.141 13.784C311.763 13.598 311.499 13.331 311.349 12.983C311.199 12.629 311.124 12.203 311.124 11.705V6.08H309.612V4.694H311.187L311.655 1.958H313.059V4.685H315.147V6.08H313.059L313.068 11.633C313.068 11.939 313.098 12.164 313.158 12.308C313.224 12.446 313.332 12.536 313.482 12.578C313.638 12.614 313.848 12.632 314.112 12.632H315.192V13.883C315.078 13.931 314.901 13.973 314.661 14.009C314.427 14.045 314.121 14.063 313.743 14.063ZM3.96 38.18C3.36 38.18 2.826 38.072 2.358 37.856C1.896 37.64 1.533 37.328 1.269 36.92C1.005 36.512 0.873 36.02 0.873 35.444C0.873 34.412 1.236 33.641 1.962 33.131C2.694 32.621 3.864 32.351 5.472 32.321L7.002 32.276V31.601C7.002 31.067 6.843 30.647 6.525 30.341C6.207 30.035 5.715 29.885 5.049 29.891C4.557 29.891 4.116 30.005 3.726 30.233C3.336 30.461 3.081 30.836 2.961 31.358H1.296C1.332 30.74 1.509 30.221 1.827 29.801C2.151 29.375 2.595 29.054 3.159 28.838C3.723 28.622 4.383 28.514 5.139 28.514C5.991 28.514 6.69 28.631 7.236 28.865C7.782 29.093 8.187 29.429 8.451 29.873C8.721 30.317 8.856 30.857 8.856 31.493V38H7.218L7.074 36.29C6.726 37.004 6.285 37.499 5.751 37.775C5.217 38.045 4.62 38.18 3.96 38.18ZM4.563 36.839C4.857 36.839 5.148 36.788 5.436 36.686C5.724 36.578 5.985 36.434 6.219 36.254C6.453 36.068 6.639 35.861 6.777 35.633C6.921 35.405 6.996 35.171 7.002 34.931V33.392L5.742 33.419C5.1 33.425 4.554 33.491 4.104 33.617C3.66 33.743 3.318 33.938 3.078 34.202C2.844 34.466 2.727 34.817 2.727 35.255C2.727 35.753 2.898 36.143 3.24 36.425C3.588 36.701 4.029 36.839 4.563 36.839ZM11.3245 38V28.694H13.1965V30.035C13.4605 29.627 13.8205 29.273 14.2765 28.973C14.7325 28.667 15.3205 28.514 16.0405 28.514C16.3765 28.514 16.7155 28.571 17.0575 28.685C17.4055 28.799 17.7235 28.97 18.0115 29.198C18.3055 29.42 18.5365 29.696 18.7045 30.026C18.9985 29.582 19.3915 29.219 19.8835 28.937C20.3755 28.655 20.9275 28.514 21.5395 28.514C21.8695 28.514 22.2115 28.568 22.5655 28.676C22.9195 28.778 23.2465 28.955 23.5465 29.207C23.8525 29.453 24.0985 29.795 24.2845 30.233C24.4765 30.671 24.5725 31.226 24.5725 31.898V38H22.6375V32.105C22.6375 31.595 22.5505 31.196 22.3765 30.908C22.2085 30.62 21.9865 30.419 21.7105 30.305C21.4405 30.185 21.1525 30.125 20.8465 30.125C20.5705 30.125 20.2825 30.179 19.9825 30.287C19.6825 30.395 19.4275 30.575 19.2175 30.827C19.0075 31.079 18.9025 31.421 18.9025 31.853V38H16.9765V31.691C16.9765 31.349 16.8835 31.061 16.6975 30.827C16.5175 30.593 16.2895 30.419 16.0135 30.305C15.7435 30.185 15.4735 30.125 15.2035 30.125C14.9035 30.125 14.6035 30.185 14.3035 30.305C14.0035 30.425 13.7515 30.614 13.5475 30.872C13.3495 31.124 13.2505 31.451 13.2505 31.853V38H11.3245ZM31.0714 38.18C30.1894 38.18 29.4124 37.991 28.7404 37.613C28.0684 37.229 27.5434 36.683 27.1654 35.975C26.7934 35.267 26.6074 34.424 26.6074 33.446C26.6074 32.48 26.7784 31.628 27.1204 30.89C27.4624 30.146 27.9574 29.564 28.6054 29.144C29.2534 28.724 30.0334 28.514 30.9454 28.514C31.8394 28.514 32.5954 28.706 33.2134 29.09C33.8314 29.474 34.2994 30.014 34.6174 30.71C34.9354 31.4 35.0944 32.216 35.0944 33.158V33.797H28.5424C28.5364 34.355 28.6264 34.856 28.8124 35.3C28.9984 35.738 29.2744 36.086 29.6404 36.344C30.0124 36.596 30.4744 36.722 31.0264 36.722C31.5844 36.722 32.0644 36.596 32.4664 36.344C32.8744 36.092 33.1414 35.717 33.2674 35.219H35.0494C34.9414 35.855 34.6864 36.395 34.2844 36.839C33.8824 37.283 33.3994 37.619 32.8354 37.847C32.2714 38.069 31.6834 38.18 31.0714 38.18ZM28.5424 32.546H33.2584C33.2584 32.06 33.1744 31.619 33.0064 31.223C32.8384 30.821 32.5804 30.506 32.2324 30.278C31.8904 30.044 31.4584 29.927 30.9364 29.927C30.4024 29.927 29.9584 30.056 29.6044 30.314C29.2504 30.572 28.9834 30.902 28.8034 31.304C28.6294 31.706 28.5424 32.12 28.5424 32.546ZM40.4737 38.063C39.7837 38.063 39.2497 37.97 38.8717 37.784C38.4937 37.598 38.2297 37.331 38.0797 36.983C37.9297 36.629 37.8547 36.203 37.8547 35.705V30.08H36.3427V28.694H37.9177L38.3857 25.958H39.7897V28.685H41.8777V30.08H39.7897L39.7987 35.633C39.7987 35.939 39.8287 36.164 39.8887 36.308C39.9547 36.446 40.0627 36.536 40.2127 36.578C40.3687 36.614 40.5787 36.632 40.8427 36.632H41.9227V37.883C41.8087 37.931 41.6317 37.973 41.3917 38.009C41.1577 38.045 40.8517 38.063 40.4737 38.063ZM43.5334 40.331L44.5504 38.045L43.7314 37.991V35.849H45.9634V37.721L44.3614 40.331H43.5334ZM55.1081 38L51.7061 28.694H53.4881L55.8461 35.561H55.9721L58.3301 28.694H60.1121L56.7281 38H55.1081ZM65.2113 38.18C64.7433 38.174 64.2963 38.105 63.8703 37.973C63.4443 37.841 63.0633 37.643 62.7273 37.379C62.3973 37.115 62.1333 36.788 61.9353 36.398C61.7433 36.008 61.6473 35.555 61.6473 35.039V28.694H63.5823V34.832C63.5823 35.39 63.7563 35.843 64.1043 36.191C64.4523 36.539 64.9773 36.713 65.6793 36.713C66.3153 36.713 66.8253 36.548 67.2093 36.218C67.5933 35.882 67.7853 35.393 67.7853 34.751V28.694H69.7023V38H68.2083L67.9923 36.2C67.8843 36.686 67.6893 37.076 67.4073 37.37C67.1313 37.658 66.8013 37.868 66.4173 38C66.0393 38.126 65.6373 38.186 65.2113 38.18ZM74.9461 38.126C74.3941 38.126 73.9501 38.054 73.6141 37.91C73.2841 37.766 73.0321 37.574 72.8581 37.334C72.6841 37.088 72.5671 36.812 72.5071 36.506C72.4531 36.194 72.4261 35.873 72.4261 35.543V24.626H74.3251V35.345C74.3251 35.777 74.4091 36.107 74.5771 36.335C74.7511 36.563 75.0151 36.692 75.3691 36.722L75.8551 36.74V37.964C75.7051 38.012 75.5491 38.051 75.3871 38.081C75.2311 38.111 75.0841 38.126 74.9461 38.126ZM77.9105 40.898V28.694H79.8365L79.8545 30.242C79.9685 30.038 80.1155 29.837 80.2955 29.639C80.4755 29.435 80.6885 29.249 80.9345 29.081C81.1865 28.907 81.4715 28.769 81.7895 28.667C82.1135 28.565 82.4705 28.514 82.8605 28.514C83.5925 28.514 84.2375 28.685 84.7955 29.027C85.3595 29.363 85.7975 29.882 86.1095 30.584C86.4275 31.28 86.5865 32.165 86.5865 33.239C86.5865 34.319 86.4275 35.225 86.1095 35.957C85.7975 36.689 85.3505 37.244 84.7685 37.622C84.1865 37.994 83.4965 38.18 82.6985 38.18C82.3145 38.18 81.9695 38.126 81.6635 38.018C81.3575 37.91 81.0875 37.769 80.8535 37.595C80.6195 37.415 80.4185 37.223 80.2505 37.019C80.0885 36.809 79.9535 36.602 79.8455 36.398V40.898H77.9105ZM82.2935 36.713C83.0075 36.713 83.5925 36.437 84.0485 35.885C84.5105 35.327 84.7415 34.457 84.7415 33.275C84.7415 32.261 84.5285 31.46 84.1025 30.872C83.6825 30.278 83.0795 29.981 82.2935 29.981C81.4835 29.981 80.8715 30.29 80.4575 30.908C80.0435 31.52 79.8365 32.309 79.8365 33.275C79.8365 33.905 79.9265 34.481 80.1065 35.003C80.2925 35.519 80.5685 35.933 80.9345 36.245C81.3005 36.557 81.7535 36.713 82.2935 36.713ZM92.0707 38.18C91.6027 38.174 91.1557 38.105 90.7297 37.973C90.3037 37.841 89.9227 37.643 89.5867 37.379C89.2567 37.115 88.9927 36.788 88.7947 36.398C88.6027 36.008 88.5067 35.555 88.5067 35.039V28.694H90.4417V34.832C90.4417 35.39 90.6157 35.843 90.9637 36.191C91.3117 36.539 91.8367 36.713 92.5387 36.713C93.1747 36.713 93.6847 36.548 94.0687 36.218C94.4527 35.882 94.6447 35.393 94.6447 34.751V28.694H96.5617V38H95.0677L94.8517 36.2C94.7437 36.686 94.5487 37.076 94.2667 37.37C93.9907 37.658 93.6607 37.868 93.2767 38C92.8987 38.126 92.4967 38.186 92.0707 38.18ZM102.753 38.063C102.063 38.063 101.529 37.97 101.151 37.784C100.773 37.598 100.509 37.331 100.359 36.983C100.209 36.629 100.134 36.203 100.134 35.705V30.08H98.622V28.694H100.197L100.665 25.958H102.069V28.685H104.157V30.08H102.069L102.078 35.633C102.078 35.939 102.108 36.164 102.168 36.308C102.234 36.446 102.342 36.536 102.492 36.578C102.648 36.614 102.858 36.632 103.122 36.632H104.202V37.883C104.088 37.931 103.911 37.973 103.671 38.009C103.437 38.045 103.131 38.063 102.753 38.063ZM108.919 38.18C108.319 38.18 107.785 38.072 107.317 37.856C106.855 37.64 106.492 37.328 106.228 36.92C105.964 36.512 105.832 36.02 105.832 35.444C105.832 34.412 106.195 33.641 106.921 33.131C107.653 32.621 108.823 32.351 110.431 32.321L111.961 32.276V31.601C111.961 31.067 111.802 30.647 111.484 30.341C111.166 30.035 110.674 29.885 110.008 29.891C109.516 29.891 109.075 30.005 108.685 30.233C108.295 30.461 108.04 30.836 107.92 31.358H106.255C106.291 30.74 106.468 30.221 106.786 29.801C107.11 29.375 107.554 29.054 108.118 28.838C108.682 28.622 109.342 28.514 110.098 28.514C110.95 28.514 111.649 28.631 112.195 28.865C112.741 29.093 113.146 29.429 113.41 29.873C113.68 30.317 113.815 30.857 113.815 31.493V38H112.177L112.033 36.29C111.685 37.004 111.244 37.499 110.71 37.775C110.176 38.045 109.579 38.18 108.919 38.18ZM109.522 36.839C109.816 36.839 110.107 36.788 110.395 36.686C110.683 36.578 110.944 36.434 111.178 36.254C111.412 36.068 111.598 35.861 111.736 35.633C111.88 35.405 111.955 35.171 111.961 34.931V33.392L110.701 33.419C110.059 33.425 109.513 33.491 109.063 33.617C108.619 33.743 108.277 33.938 108.037 34.202C107.803 34.466 107.686 34.817 107.686 35.255C107.686 35.753 107.857 36.143 108.199 36.425C108.547 36.701 108.988 36.839 109.522 36.839ZM119.47 38.063C118.78 38.063 118.246 37.97 117.868 37.784C117.49 37.598 117.226 37.331 117.076 36.983C116.926 36.629 116.851 36.203 116.851 35.705V30.08H115.339V28.694H116.914L117.382 25.958H118.786V28.685H120.874V30.08H118.786L118.795 35.633C118.795 35.939 118.825 36.164 118.885 36.308C118.951 36.446 119.059 36.536 119.209 36.578C119.365 36.614 119.575 36.632 119.839 36.632H120.919V37.883C120.805 37.931 120.628 37.973 120.388 38.009C120.154 38.045 119.848 38.063 119.47 38.063ZM126.819 38.18C125.937 38.18 125.16 37.991 124.488 37.613C123.816 37.229 123.291 36.683 122.913 35.975C122.541 35.267 122.355 34.424 122.355 33.446C122.355 32.48 122.526 31.628 122.868 30.89C123.21 30.146 123.705 29.564 124.353 29.144C125.001 28.724 125.781 28.514 126.693 28.514C127.587 28.514 128.343 28.706 128.961 29.09C129.579 29.474 130.047 30.014 130.365 30.71C130.683 31.4 130.842 32.216 130.842 33.158V33.797H124.29C124.284 34.355 124.374 34.856 124.56 35.3C124.746 35.738 125.022 36.086 125.388 36.344C125.76 36.596 126.222 36.722 126.774 36.722C127.332 36.722 127.812 36.596 128.214 36.344C128.622 36.092 128.889 35.717 129.015 35.219H130.797C130.689 35.855 130.434 36.395 130.032 36.839C129.63 37.283 129.147 37.619 128.583 37.847C128.019 38.069 127.431 38.18 126.819 38.18ZM124.29 32.546H129.006C129.006 32.06 128.922 31.619 128.754 31.223C128.586 30.821 128.328 30.506 127.98 30.278C127.638 30.044 127.206 29.927 126.684 29.927C126.15 29.927 125.706 30.056 125.352 30.314C124.998 30.572 124.731 30.902 124.551 31.304C124.377 31.706 124.29 32.12 124.29 32.546ZM140.851 38.18C140.011 38.18 139.264 37.997 138.61 37.631C137.956 37.259 137.443 36.716 137.071 36.002C136.699 35.282 136.513 34.409 136.513 33.383C136.513 32.417 136.684 31.568 137.026 30.836C137.374 30.104 137.872 29.534 138.52 29.126C139.168 28.718 139.945 28.514 140.851 28.514C141.553 28.514 142.174 28.652 142.714 28.928C143.254 29.198 143.692 29.576 144.028 30.062C144.37 30.548 144.577 31.115 144.649 31.763H142.975C142.927 31.457 142.813 31.172 142.633 30.908C142.453 30.644 142.216 30.434 141.922 30.278C141.628 30.116 141.277 30.035 140.869 30.035C140.119 30.035 139.51 30.308 139.042 30.854C138.574 31.4 138.34 32.237 138.34 33.365C138.34 34.397 138.559 35.219 138.997 35.831C139.435 36.443 140.068 36.749 140.896 36.749C141.304 36.749 141.655 36.665 141.949 36.497C142.243 36.329 142.477 36.113 142.651 35.849C142.831 35.585 142.945 35.312 142.993 35.03H144.631C144.559 35.654 144.352 36.203 144.01 36.677C143.674 37.151 143.236 37.52 142.696 37.784C142.156 38.048 141.541 38.18 140.851 38.18ZM150.598 38.18C149.728 38.18 148.969 37.994 148.321 37.622C147.673 37.244 147.169 36.698 146.809 35.984C146.449 35.27 146.269 34.406 146.269 33.392C146.269 32.414 146.44 31.559 146.782 30.827C147.124 30.095 147.616 29.528 148.258 29.126C148.906 28.718 149.689 28.514 150.607 28.514C151.483 28.514 152.242 28.706 152.884 29.09C153.526 29.468 154.024 30.023 154.378 30.755C154.732 31.481 154.909 32.36 154.909 33.392C154.909 34.334 154.744 35.165 154.414 35.885C154.084 36.605 153.598 37.169 152.956 37.577C152.32 37.979 151.534 38.18 150.598 38.18ZM150.607 36.695C151.141 36.695 151.585 36.557 151.939 36.281C152.293 35.999 152.56 35.606 152.74 35.102C152.92 34.592 153.01 34.004 153.01 33.338C153.01 32.72 152.929 32.159 152.767 31.655C152.611 31.145 152.356 30.74 152.002 30.44C151.654 30.14 151.189 29.99 150.607 29.99C150.073 29.99 149.623 30.128 149.257 30.404C148.897 30.674 148.627 31.061 148.447 31.565C148.267 32.063 148.177 32.654 148.177 33.338C148.177 33.944 148.258 34.502 148.42 35.012C148.582 35.522 148.84 35.93 149.194 36.236C149.554 36.542 150.025 36.695 150.607 36.695ZM157.012 38V28.694H158.893V30.035C159.043 29.783 159.244 29.546 159.496 29.324C159.754 29.102 160.069 28.922 160.441 28.784C160.819 28.646 161.254 28.577 161.746 28.577C162.328 28.577 162.865 28.694 163.357 28.928C163.855 29.156 164.254 29.516 164.554 30.008C164.854 30.494 165.004 31.124 165.004 31.898V38H163.078V32.105C163.078 31.439 162.898 30.944 162.538 30.62C162.184 30.296 161.725 30.134 161.161 30.134C160.783 30.134 160.423 30.197 160.081 30.323C159.739 30.449 159.463 30.641 159.253 30.899C159.043 31.151 158.938 31.469 158.938 31.853V38H157.012ZM170.9 38.18C169.682 38.18 168.719 37.763 168.011 36.929C167.309 36.089 166.958 34.88 166.958 33.302C166.958 32.336 167.099 31.496 167.381 30.782C167.669 30.062 168.092 29.504 168.65 29.108C169.208 28.712 169.904 28.514 170.738 28.514C171.152 28.514 171.524 28.565 171.854 28.667C172.184 28.769 172.472 28.901 172.718 29.063C172.964 29.225 173.171 29.399 173.339 29.585C173.507 29.771 173.633 29.945 173.717 30.107V24.626H175.661V38H174.212L173.996 36.092C173.93 36.296 173.828 36.518 173.69 36.758C173.558 36.998 173.372 37.226 173.132 37.442C172.898 37.658 172.598 37.835 172.232 37.973C171.866 38.111 171.422 38.18 170.9 38.18ZM171.269 36.731C172.133 36.731 172.757 36.461 173.141 35.921C173.525 35.375 173.717 34.481 173.717 33.239C173.711 32.537 173.624 31.943 173.456 31.457C173.294 30.971 173.036 30.605 172.682 30.359C172.334 30.107 171.875 29.981 171.305 29.981C170.591 29.981 170.006 30.239 169.55 30.755C169.1 31.265 168.875 32.093 168.875 33.239C168.875 34.367 169.079 35.231 169.487 35.831C169.901 36.431 170.495 36.731 171.269 36.731ZM178.414 38V28.694H180.268V38H178.414ZM178.369 26.894V24.995H180.304V26.894H178.369ZM183.028 38V28.694H184.9V30.035C185.164 29.627 185.524 29.273 185.98 28.973C186.436 28.667 187.024 28.514 187.744 28.514C188.08 28.514 188.419 28.571 188.761 28.685C189.109 28.799 189.427 28.97 189.715 29.198C190.009 29.42 190.24 29.696 190.408 30.026C190.702 29.582 191.095 29.219 191.587 28.937C192.079 28.655 192.631 28.514 193.243 28.514C193.573 28.514 193.915 28.568 194.269 28.676C194.623 28.778 194.95 28.955 195.25 29.207C195.556 29.453 195.802 29.795 195.988 30.233C196.18 30.671 196.276 31.226 196.276 31.898V38H194.341V32.105C194.341 31.595 194.254 31.196 194.08 30.908C193.912 30.62 193.69 30.419 193.414 30.305C193.144 30.185 192.856 30.125 192.55 30.125C192.274 30.125 191.986 30.179 191.686 30.287C191.386 30.395 191.131 30.575 190.921 30.827C190.711 31.079 190.606 31.421 190.606 31.853V38H188.68V31.691C188.68 31.349 188.587 31.061 188.401 30.827C188.221 30.593 187.993 30.419 187.717 30.305C187.447 30.185 187.177 30.125 186.907 30.125C186.607 30.125 186.307 30.185 186.007 30.305C185.707 30.425 185.455 30.614 185.251 30.872C185.053 31.124 184.954 31.451 184.954 31.853V38H183.028ZM202.775 38.18C201.893 38.18 201.116 37.991 200.444 37.613C199.772 37.229 199.247 36.683 198.869 35.975C198.497 35.267 198.311 34.424 198.311 33.446C198.311 32.48 198.482 31.628 198.824 30.89C199.166 30.146 199.661 29.564 200.309 29.144C200.957 28.724 201.737 28.514 202.649 28.514C203.543 28.514 204.299 28.706 204.917 29.09C205.535 29.474 206.003 30.014 206.321 30.71C206.639 31.4 206.798 32.216 206.798 33.158V33.797H200.246C200.24 34.355 200.33 34.856 200.516 35.3C200.702 35.738 200.978 36.086 201.344 36.344C201.716 36.596 202.178 36.722 202.729 36.722C203.288 36.722 203.768 36.596 204.17 36.344C204.578 36.092 204.845 35.717 204.971 35.219H206.753C206.645 35.855 206.39 36.395 205.988 36.839C205.586 37.283 205.103 37.619 204.539 37.847C203.975 38.069 203.387 38.18 202.775 38.18ZM200.246 32.546H204.962C204.962 32.06 204.878 31.619 204.71 31.223C204.542 30.821 204.284 30.506 203.936 30.278C203.594 30.044 203.162 29.927 202.64 29.927C202.106 29.927 201.662 30.056 201.308 30.314C200.954 30.572 200.687 30.902 200.507 31.304C200.333 31.706 200.246 32.12 200.246 32.546ZM208.991 38V28.694H210.872V30.035C211.022 29.783 211.223 29.546 211.475 29.324C211.733 29.102 212.048 28.922 212.42 28.784C212.798 28.646 213.233 28.577 213.725 28.577C214.307 28.577 214.844 28.694 215.336 28.928C215.834 29.156 216.233 29.516 216.533 30.008C216.833 30.494 216.983 31.124 216.983 31.898V38H215.057V32.105C215.057 31.439 214.877 30.944 214.517 30.62C214.163 30.296 213.704 30.134 213.14 30.134C212.762 30.134 212.402 30.197 212.06 30.323C211.718 30.449 211.442 30.641 211.232 30.899C211.022 31.151 210.917 31.469 210.917 31.853V38H208.991ZM222.636 38.063C221.946 38.063 221.412 37.97 221.034 37.784C220.656 37.598 220.392 37.331 220.242 36.983C220.092 36.629 220.017 36.203 220.017 35.705V30.08H218.505V28.694H220.08L220.548 25.958H221.952V28.685H224.04V30.08H221.952L221.961 35.633C221.961 35.939 221.991 36.164 222.051 36.308C222.117 36.446 222.225 36.536 222.375 36.578C222.531 36.614 222.741 36.632 223.005 36.632H224.085V37.883C223.971 37.931 223.794 37.973 223.554 38.009C223.32 38.045 223.014 38.063 222.636 38.063ZM229.532 38.18C229.064 38.174 228.617 38.105 228.191 37.973C227.765 37.841 227.384 37.643 227.048 37.379C226.718 37.115 226.454 36.788 226.256 36.398C226.064 36.008 225.968 35.555 225.968 35.039V28.694H227.903V34.832C227.903 35.39 228.077 35.843 228.425 36.191C228.773 36.539 229.298 36.713 230 36.713C230.636 36.713 231.146 36.548 231.53 36.218C231.914 35.882 232.106 35.393 232.106 34.751V28.694H234.023V38H232.529L232.313 36.2C232.205 36.686 232.01 37.076 231.728 37.37C231.452 37.658 231.122 37.868 230.738 38C230.36 38.126 229.958 38.186 229.532 38.18ZM236.746 38V28.694H238.618V30.035C238.882 29.627 239.242 29.273 239.698 28.973C240.154 28.667 240.742 28.514 241.462 28.514C241.798 28.514 242.137 28.571 242.479 28.685C242.827 28.799 243.145 28.97 243.433 29.198C243.727 29.42 243.958 29.696 244.126 30.026C244.42 29.582 244.813 29.219 245.305 28.937C245.797 28.655 246.349 28.514 246.961 28.514C247.291 28.514 247.633 28.568 247.987 28.676C248.341 28.778 248.668 28.955 248.968 29.207C249.274 29.453 249.52 29.795 249.706 30.233C249.898 30.671 249.994 31.226 249.994 31.898V38H248.059V32.105C248.059 31.595 247.972 31.196 247.798 30.908C247.63 30.62 247.408 30.419 247.132 30.305C246.862 30.185 246.574 30.125 246.268 30.125C245.992 30.125 245.704 30.179 245.404 30.287C245.104 30.395 244.849 30.575 244.639 30.827C244.429 31.079 244.324 31.421 244.324 31.853V38H242.398V31.691C242.398 31.349 242.305 31.061 242.119 30.827C241.939 30.593 241.711 30.419 241.435 30.305C241.165 30.185 240.895 30.125 240.625 30.125C240.325 30.125 240.025 30.185 239.725 30.305C239.425 30.425 239.173 30.614 238.969 30.872C238.771 31.124 238.672 31.451 238.672 31.853V38H236.746ZM259.986 38.18C258.768 38.18 257.805 37.763 257.097 36.929C256.395 36.089 256.044 34.88 256.044 33.302C256.044 32.336 256.185 31.496 256.467 30.782C256.755 30.062 257.178 29.504 257.736 29.108C258.294 28.712 258.99 28.514 259.824 28.514C260.238 28.514 260.61 28.565 260.94 28.667C261.27 28.769 261.558 28.901 261.804 29.063C262.05 29.225 262.257 29.399 262.425 29.585C262.593 29.771 262.719 29.945 262.803 30.107V24.626H264.747V38H263.298L263.082 36.092C263.016 36.296 262.914 36.518 262.776 36.758C262.644 36.998 262.458 37.226 262.218 37.442C261.984 37.658 261.684 37.835 261.318 37.973C260.952 38.111 260.508 38.18 259.986 38.18ZM260.355 36.731C261.219 36.731 261.843 36.461 262.227 35.921C262.611 35.375 262.803 34.481 262.803 33.239C262.797 32.537 262.71 31.943 262.542 31.457C262.38 30.971 262.122 30.605 261.768 30.359C261.42 30.107 260.961 29.981 260.391 29.981C259.677 29.981 259.092 30.239 258.636 30.755C258.186 31.265 257.961 32.093 257.961 33.239C257.961 34.367 258.165 35.231 258.573 35.831C258.987 36.431 259.581 36.731 260.355 36.731ZM271.166 38.18C270.296 38.18 269.537 37.994 268.889 37.622C268.241 37.244 267.737 36.698 267.377 35.984C267.017 35.27 266.837 34.406 266.837 33.392C266.837 32.414 267.008 31.559 267.35 30.827C267.692 30.095 268.184 29.528 268.826 29.126C269.474 28.718 270.257 28.514 271.175 28.514C272.051 28.514 272.81 28.706 273.452 29.09C274.094 29.468 274.592 30.023 274.946 30.755C275.3 31.481 275.477 32.36 275.477 33.392C275.477 34.334 275.312 35.165 274.982 35.885C274.652 36.605 274.166 37.169 273.524 37.577C272.888 37.979 272.102 38.18 271.166 38.18ZM271.175 36.695C271.709 36.695 272.153 36.557 272.507 36.281C272.861 35.999 273.128 35.606 273.308 35.102C273.488 34.592 273.578 34.004 273.578 33.338C273.578 32.72 273.497 32.159 273.335 31.655C273.179 31.145 272.924 30.74 272.57 30.44C272.222 30.14 271.757 29.99 271.175 29.99C270.641 29.99 270.191 30.128 269.825 30.404C269.465 30.674 269.195 31.061 269.015 31.565C268.835 32.063 268.745 32.654 268.745 33.338C268.745 33.944 268.826 34.502 268.988 35.012C269.15 35.522 269.408 35.93 269.762 36.236C270.122 36.542 270.593 36.695 271.175 36.695ZM280.1 38.126C279.548 38.126 279.104 38.054 278.768 37.91C278.438 37.766 278.186 37.574 278.012 37.334C277.838 37.088 277.721 36.812 277.661 36.506C277.607 36.194 277.58 35.873 277.58 35.543V24.626H279.479V35.345C279.479 35.777 279.563 36.107 279.731 36.335C279.905 36.563 280.169 36.692 280.523 36.722L281.009 36.74V37.964C280.859 38.012 280.703 38.051 280.541 38.081C280.385 38.111 280.238 38.126 280.1 38.126ZM286.494 38.18C285.624 38.18 284.865 37.994 284.217 37.622C283.569 37.244 283.065 36.698 282.705 35.984C282.345 35.27 282.165 34.406 282.165 33.392C282.165 32.414 282.336 31.559 282.678 30.827C283.02 30.095 283.512 29.528 284.154 29.126C284.802 28.718 285.585 28.514 286.503 28.514C287.379 28.514 288.138 28.706 288.78 29.09C289.422 29.468 289.92 30.023 290.274 30.755C290.628 31.481 290.805 32.36 290.805 33.392C290.805 34.334 290.64 35.165 290.31 35.885C289.98 36.605 289.494 37.169 288.852 37.577C288.216 37.979 287.43 38.18 286.494 38.18ZM286.503 36.695C287.037 36.695 287.481 36.557 287.835 36.281C288.189 35.999 288.456 35.606 288.636 35.102C288.816 34.592 288.906 34.004 288.906 33.338C288.906 32.72 288.825 32.159 288.663 31.655C288.507 31.145 288.252 30.74 287.898 30.44C287.55 30.14 287.085 29.99 286.503 29.99C285.969 29.99 285.519 30.128 285.153 30.404C284.793 30.674 284.523 31.061 284.343 31.565C284.163 32.063 284.073 32.654 284.073 33.338C284.073 33.944 284.154 34.502 284.316 35.012C284.478 35.522 284.736 35.93 285.09 36.236C285.45 36.542 285.921 36.695 286.503 36.695ZM292.909 38V28.694H294.754V30.602C294.91 30.146 295.126 29.765 295.402 29.459C295.684 29.147 296.011 28.913 296.383 28.757C296.755 28.595 297.148 28.514 297.562 28.514C297.688 28.514 297.808 28.523 297.922 28.541C298.036 28.553 298.126 28.577 298.192 28.613V30.467C298.114 30.431 298.012 30.407 297.886 30.395C297.766 30.383 297.661 30.374 297.571 30.368C297.163 30.338 296.791 30.359 296.455 30.431C296.119 30.503 295.828 30.623 295.582 30.791C295.342 30.959 295.156 31.178 295.024 31.448C294.898 31.718 294.835 32.036 294.835 32.402V38H292.909ZM298.49 38V35.678H300.713V38H298.49Z" fill="#191C1F"/>
</svg>
