<svg width="139" height="14" viewBox="0 0 139 14" fill="none" xmlns="http://www.w3.org/2000/svg">
<path d="M4.267 11.14C3.77233 11.14 3.30333 11.0817 2.86 10.965C2.41667 10.8437 2.013 10.664 1.649 10.426C1.28967 10.188 0.991 9.894 0.753 9.544C0.519667 9.18933 0.372667 8.77867 0.312 8.312H1.67C1.754 8.69467 1.91967 9.01667 2.167 9.278C2.419 9.53933 2.72933 9.73533 3.098 9.866C3.47133 9.99667 3.87967 10.062 4.323 10.062C4.75233 10.062 5.14667 9.99433 5.506 9.859C5.87 9.72367 6.16167 9.52767 6.381 9.271C6.60033 9.00967 6.71 8.697 6.71 8.333C6.71 7.93167 6.57933 7.60967 6.318 7.367C6.05667 7.11967 5.653 6.92133 5.107 6.772L3.021 6.233C2.54967 6.11633 2.132 5.953 1.768 5.743C1.40867 5.52833 1.12633 5.24833 0.921 4.903C0.715667 4.553 0.613 4.119 0.613 3.601C0.613 3.027 0.771667 2.52767 1.089 2.103C1.40633 1.67367 1.83567 1.34233 2.377 1.109C2.923 0.870999 3.539 0.751999 4.225 0.751999C5.01833 0.751999 5.68567 0.889666 6.227 1.165C6.773 1.44033 7.186 1.802 7.466 2.25C7.746 2.698 7.886 3.17633 7.886 3.685H6.556C6.514 3.223 6.37867 2.859 6.15 2.593C5.92133 2.32233 5.63667 2.12867 5.296 2.012C4.95533 1.89067 4.58433 1.83 4.183 1.83C3.45967 1.83 2.91133 1.99567 2.538 2.327C2.16933 2.65367 1.985 3.04333 1.985 3.496C1.985 3.91133 2.118 4.238 2.384 4.476C2.65 4.714 3.042 4.89833 3.56 5.029L5.59 5.554C6.192 5.694 6.67033 5.897 7.025 6.163C7.38433 6.429 7.641 6.73933 7.795 7.094C7.95367 7.444 8.033 7.82433 8.033 8.235C8.033 8.795 7.87667 9.29433 7.564 9.733C7.25133 10.1717 6.81267 10.517 6.248 10.769C5.688 11.0163 5.02767 11.14 4.267 11.14ZM13.0089 11.14C12.3369 11.14 11.7442 10.993 11.2309 10.699C10.7176 10.405 10.3162 9.98267 10.0269 9.432C9.73757 8.88133 9.59291 8.221 9.59291 7.451C9.59291 6.69033 9.72357 6.023 9.98491 5.449C10.2462 4.875 10.6242 4.427 11.1189 4.105C11.6182 3.783 12.2179 3.622 12.9179 3.622C13.5992 3.622 14.1756 3.769 14.6469 4.063C15.1182 4.357 15.4752 4.77233 15.7179 5.309C15.9652 5.841 16.0889 6.47333 16.0889 7.206V7.682H10.9019C10.9019 8.13933 10.9766 8.55467 11.1259 8.928C11.2799 9.29667 11.5109 9.59067 11.8189 9.81C12.1269 10.0293 12.5166 10.139 12.9879 10.139C13.4499 10.139 13.8466 10.0317 14.1779 9.817C14.5139 9.60233 14.7286 9.292 14.8219 8.886H16.0399C15.9559 9.376 15.7599 9.789 15.4519 10.125C15.1486 10.461 14.7822 10.7153 14.3529 10.888C13.9282 11.056 13.4802 11.14 13.0089 11.14ZM10.9089 6.807H14.8429C14.8429 6.39167 14.7729 6.01833 14.6329 5.687C14.4929 5.351 14.2782 5.08733 13.9889 4.896C13.7042 4.7 13.3449 4.602 12.9109 4.602C12.4582 4.602 12.0826 4.71167 11.7839 4.931C11.4852 5.14567 11.2636 5.42333 11.1189 5.764C10.9742 6.1 10.9042 6.44767 10.9089 6.807ZM19.8276 11.14C19.3562 11.14 18.9409 11.0583 18.5816 10.895C18.2269 10.727 17.9469 10.4867 17.7416 10.174C17.5409 9.86133 17.4406 9.48333 17.4406 9.04C17.4406 8.23733 17.7206 7.64 18.2806 7.248C18.8406 6.856 19.7389 6.646 20.9756 6.618L22.2636 6.583V6.016C22.2636 5.57267 22.1306 5.22267 21.8646 4.966C21.5986 4.70467 21.1879 4.574 20.6326 4.574C20.2172 4.57867 19.8509 4.67667 19.5336 4.868C19.2162 5.05933 19.0132 5.372 18.9246 5.806H17.7836C17.8116 5.33467 17.9422 4.938 18.1756 4.616C18.4136 4.28933 18.7472 4.042 19.1766 3.874C19.6059 3.706 20.1122 3.622 20.6956 3.622C21.3256 3.622 21.8482 3.71067 22.2636 3.888C22.6836 4.06533 22.9962 4.32667 23.2016 4.672C23.4116 5.01733 23.5166 5.442 23.5166 5.946V11H22.4106L22.3126 9.642C22.0372 10.2067 21.6826 10.5987 21.2486 10.818C20.8192 11.0327 20.3456 11.14 19.8276 11.14ZM20.2126 10.209C20.4599 10.209 20.7026 10.1647 20.9406 10.076C21.1832 9.98733 21.4026 9.86833 21.5986 9.719C21.7992 9.565 21.9602 9.39467 22.0816 9.208C22.2029 9.01667 22.2636 8.82067 22.2636 8.62V7.381L21.1926 7.402C20.6372 7.41133 20.1752 7.46733 19.8066 7.57C19.4379 7.67267 19.1602 7.83367 18.9736 8.053C18.7869 8.27233 18.6936 8.55933 18.6936 8.914C18.6936 9.32 18.8359 9.63733 19.1206 9.866C19.4052 10.0947 19.7692 10.209 20.2126 10.209ZM25.5358 11V3.762H26.7678V5.155C26.8892 4.80967 27.0595 4.525 27.2788 4.301C27.4982 4.07233 27.7478 3.902 28.0278 3.79C28.3125 3.678 28.6065 3.622 28.9098 3.622C29.0172 3.622 29.1222 3.629 29.2248 3.643C29.3275 3.657 29.4068 3.68033 29.4628 3.713V4.966C29.3928 4.93333 29.3018 4.91233 29.1898 4.903C29.0825 4.889 28.9915 4.882 28.9168 4.882C28.6275 4.86333 28.3568 4.882 28.1048 4.938C27.8528 4.98933 27.6312 5.08033 27.4398 5.211C27.2485 5.34167 27.0968 5.51433 26.9848 5.729C26.8775 5.939 26.8238 6.19567 26.8238 6.499V11H25.5358ZM33.8072 11.14C33.1539 11.14 32.5752 10.9977 32.0712 10.713C31.5719 10.4283 31.1799 10.0083 30.8952 9.453C30.6152 8.89767 30.4752 8.21633 30.4752 7.409C30.4752 6.653 30.6036 5.99267 30.8602 5.428C31.1216 4.85867 31.4996 4.41533 31.9942 4.098C32.4936 3.78067 33.0979 3.622 33.8072 3.622C34.3252 3.622 34.7896 3.72233 35.2002 3.923C35.6156 4.119 35.9562 4.399 36.2222 4.763C36.4882 5.127 36.6516 5.55633 36.7122 6.051H35.5642C35.5222 5.799 35.4242 5.568 35.2702 5.358C35.1209 5.148 34.9226 4.98 34.6752 4.854C34.4326 4.728 34.1456 4.665 33.8142 4.665C33.1936 4.665 32.6872 4.889 32.2952 5.337C31.9079 5.785 31.7142 6.471 31.7142 7.395C31.7142 8.23033 31.8916 8.9 32.2462 9.404C32.6056 9.90333 33.1329 10.153 33.8282 10.153C34.1596 10.153 34.4489 10.09 34.6962 9.964C34.9436 9.83333 35.1419 9.663 35.2912 9.453C35.4406 9.23833 35.5362 9.00967 35.5782 8.767H36.7052C36.6446 9.25233 36.4789 9.67233 36.2082 10.027C35.9422 10.3817 35.6016 10.657 35.1862 10.853C34.7756 11.0443 34.3159 11.14 33.8072 11.14ZM38.4284 11V0.598H39.6884V4.826C39.8098 4.62533 39.9731 4.43867 40.1784 4.266C40.3838 4.08867 40.6334 3.94633 40.9274 3.839C41.2214 3.727 41.5621 3.671 41.9494 3.671C42.4208 3.671 42.8478 3.75967 43.2304 3.937C43.6131 4.10967 43.9164 4.357 44.1404 4.679C44.3644 5.001 44.4764 5.38367 44.4764 5.827V11H43.1814V6.086C43.1814 5.652 43.0321 5.31833 42.7334 5.085C42.4394 4.847 42.0544 4.728 41.5784 4.728C41.2564 4.728 40.9531 4.78167 40.6684 4.889C40.3838 4.99167 40.1528 5.15033 39.9754 5.365C39.8028 5.575 39.7164 5.84333 39.7164 6.17V11H38.4284ZM50.8651 11V4.707H49.3321V3.762H50.8651V2.642C50.8651 2.068 51.0098 1.63167 51.2991 1.333C51.5931 1.02967 52.0318 0.877999 52.6151 0.877999H53.9801L53.9871 1.795H52.9091C52.6105 1.795 52.4075 1.87433 52.3001 2.033C52.1928 2.19167 52.1391 2.432 52.1391 2.754V3.762H53.9171V4.707H52.1601V11H50.8651ZM58.2522 11.14C57.5849 11.14 57.0015 10.9977 56.5022 10.713C56.0075 10.4237 55.6225 10.0013 55.3472 9.446C55.0719 8.89067 54.9342 8.21167 54.9342 7.409C54.9342 6.653 55.0625 5.99033 55.3192 5.421C55.5759 4.85167 55.9515 4.41067 56.4462 4.098C56.9409 3.78067 57.5452 3.622 58.2592 3.622C58.9265 3.622 59.5052 3.769 59.9952 4.063C60.4852 4.35233 60.8655 4.77933 61.1362 5.344C61.4115 5.90867 61.5492 6.597 61.5492 7.409C61.5492 8.14633 61.4232 8.795 61.1712 9.355C60.9192 9.915 60.5482 10.3537 60.0582 10.671C59.5729 10.9837 58.9709 11.14 58.2522 11.14ZM58.2592 10.118C58.6885 10.118 59.0525 10.0083 59.3512 9.789C59.6499 9.56967 59.8762 9.25467 60.0302 8.844C60.1889 8.43333 60.2682 7.94567 60.2682 7.381C60.2682 6.863 60.1982 6.39867 60.0582 5.988C59.9229 5.57267 59.7082 5.24367 59.4142 5.001C59.1202 4.75833 58.7352 4.637 58.2592 4.637C57.8205 4.637 57.4495 4.74667 57.1462 4.966C56.8429 5.18067 56.6119 5.49333 56.4532 5.904C56.2992 6.31467 56.2222 6.807 56.2222 7.381C56.2222 7.88967 56.2899 8.35167 56.4252 8.767C56.5652 9.18233 56.7845 9.51133 57.0832 9.754C57.3865 9.99667 57.7785 10.118 58.2592 10.118ZM63.2702 11V3.762H64.5022V5.155C64.6236 4.80967 64.7939 4.525 65.0132 4.301C65.2326 4.07233 65.4822 3.902 65.7622 3.79C66.0469 3.678 66.3409 3.622 66.6442 3.622C66.7516 3.622 66.8566 3.629 66.9592 3.643C67.0619 3.657 67.1412 3.68033 67.1972 3.713V4.966C67.1272 4.93333 67.0362 4.91233 66.9242 4.903C66.8169 4.889 66.7259 4.882 66.6512 4.882C66.3619 4.86333 66.0912 4.882 65.8392 4.938C65.5872 4.98933 65.3656 5.08033 65.1742 5.211C64.9829 5.34167 64.8312 5.51433 64.7192 5.729C64.6119 5.939 64.5582 6.19567 64.5582 6.499V11H63.2702ZM74.1733 11.14C73.7019 11.14 73.2866 11.0583 72.9273 10.895C72.5726 10.727 72.2926 10.4867 72.0873 10.174C71.8866 9.86133 71.7863 9.48333 71.7863 9.04C71.7863 8.23733 72.0663 7.64 72.6263 7.248C73.1863 6.856 74.0846 6.646 75.3213 6.618L76.6093 6.583V6.016C76.6093 5.57267 76.4763 5.22267 76.2103 4.966C75.9443 4.70467 75.5336 4.574 74.9783 4.574C74.5629 4.57867 74.1966 4.67667 73.8793 4.868C73.5619 5.05933 73.3589 5.372 73.2703 5.806H72.1293C72.1573 5.33467 72.2879 4.938 72.5213 4.616C72.7593 4.28933 73.0929 4.042 73.5223 3.874C73.9516 3.706 74.4579 3.622 75.0413 3.622C75.6713 3.622 76.1939 3.71067 76.6093 3.888C77.0293 4.06533 77.3419 4.32667 77.5473 4.672C77.7573 5.01733 77.8623 5.442 77.8623 5.946V11H76.7563L76.6583 9.642C76.3829 10.2067 76.0283 10.5987 75.5943 10.818C75.1649 11.0327 74.6913 11.14 74.1733 11.14ZM74.5583 10.209C74.8056 10.209 75.0483 10.1647 75.2863 10.076C75.5289 9.98733 75.7483 9.86833 75.9443 9.719C76.1449 9.565 76.3059 9.39467 76.4273 9.208C76.5486 9.01667 76.6093 8.82067 76.6093 8.62V7.381L75.5383 7.402C74.9829 7.41133 74.5209 7.46733 74.1523 7.57C73.7836 7.67267 73.5059 7.83367 73.3193 8.053C73.1326 8.27233 73.0393 8.55933 73.0393 8.914C73.0393 9.32 73.1816 9.63733 73.4663 9.866C73.7509 10.0947 74.1149 10.209 74.5583 10.209ZM79.8815 11V3.762H81.1345V4.812C81.2512 4.61133 81.4122 4.42233 81.6175 4.245C81.8275 4.06767 82.0795 3.92533 82.3735 3.818C82.6722 3.71067 83.0152 3.657 83.4025 3.657C83.8599 3.657 84.2799 3.748 84.6625 3.93C85.0499 4.112 85.3579 4.39667 85.5865 4.784C85.8199 5.16667 85.9365 5.66133 85.9365 6.268V11H84.6415V6.394C84.6415 5.82933 84.4922 5.41167 84.1935 5.141C83.8995 4.86567 83.5169 4.728 83.0455 4.728C82.7189 4.728 82.4132 4.78167 82.1285 4.889C81.8439 4.99167 81.6129 5.15033 81.4355 5.365C81.2582 5.575 81.1695 5.841 81.1695 6.163V11H79.8815ZM88.4502 13.31C88.0255 13.31 87.7339 13.2797 87.5752 13.219C87.4165 13.1583 87.3372 13.128 87.3372 13.128V12.288L88.0792 12.302C88.3452 12.3113 88.5669 12.2927 88.7442 12.246C88.9215 12.1993 89.0639 12.1363 89.1712 12.057C89.2785 11.9777 89.3602 11.889 89.4162 11.791C89.4769 11.693 89.5259 11.5997 89.5632 11.511L89.8152 10.825L86.9872 3.762H88.2962L90.4312 9.348L92.5522 3.762H93.8192L90.7742 11.546C90.5829 12.0033 90.3705 12.3603 90.1372 12.617C89.9085 12.8737 89.6519 13.0533 89.3672 13.156C89.0872 13.2587 88.7815 13.31 88.4502 13.31ZM97.9154 11.035C97.4161 11.035 97.0287 10.9673 96.7534 10.832C96.4781 10.6967 96.2844 10.496 96.1724 10.23C96.0651 9.964 96.0114 9.63733 96.0114 9.25V4.707H94.8354V3.762H96.0464L96.3614 1.655H97.3134V3.755H98.9444V4.707H97.3134V9.208C97.3134 9.46467 97.3391 9.65367 97.3904 9.775C97.4464 9.89167 97.5374 9.96633 97.6634 9.999C97.7894 10.0317 97.9667 10.048 98.1954 10.048H98.9864V10.916C98.8977 10.9487 98.7624 10.9767 98.5804 11C98.4031 11.0233 98.1814 11.035 97.9154 11.035ZM100.704 11V0.598H101.964V4.826C102.085 4.62533 102.248 4.43867 102.454 4.266C102.659 4.08867 102.909 3.94633 103.203 3.839C103.497 3.727 103.837 3.671 104.225 3.671C104.696 3.671 105.123 3.75967 105.506 3.937C105.888 4.10967 106.192 4.357 106.416 4.679C106.64 5.001 106.752 5.38367 106.752 5.827V11H105.457V6.086C105.457 5.652 105.307 5.31833 105.009 5.085C104.715 4.847 104.33 4.728 103.854 4.728C103.532 4.728 103.228 4.78167 102.944 4.889C102.659 4.99167 102.428 5.15033 102.251 5.365C102.078 5.575 101.992 5.84333 101.992 6.17V11H100.704ZM108.805 11V3.762H110.058V11H108.805ZM108.77 2.229V0.885H110.093V2.229H108.77ZM112.311 11V3.762H113.564V4.812C113.681 4.61133 113.842 4.42233 114.047 4.245C114.257 4.06767 114.509 3.92533 114.803 3.818C115.102 3.71067 115.445 3.657 115.832 3.657C116.29 3.657 116.71 3.748 117.092 3.93C117.48 4.112 117.788 4.39667 118.016 4.784C118.25 5.16667 118.366 5.66133 118.366 6.268V11H117.071V6.394C117.071 5.82933 116.922 5.41167 116.623 5.141C116.329 4.86567 115.947 4.728 115.475 4.728C115.149 4.728 114.843 4.78167 114.558 4.889C114.274 4.99167 114.043 5.15033 113.865 5.365C113.688 5.575 113.599 5.841 113.599 6.163V11H112.311ZM123.45 13.394C122.316 13.394 121.432 13.2283 120.797 12.897C120.163 12.5703 119.845 12.1013 119.845 11.49C119.845 11.2287 119.906 11.007 120.027 10.825C120.149 10.6383 120.293 10.4843 120.461 10.363C120.629 10.2417 120.786 10.146 120.93 10.076C121.075 10.0013 121.171 9.94767 121.217 9.915C121.133 9.86833 121.033 9.81 120.916 9.74C120.8 9.67 120.695 9.57667 120.601 9.46C120.513 9.34333 120.468 9.19167 120.468 9.005C120.468 8.77633 120.576 8.56633 120.79 8.375C121.005 8.18367 121.325 8.04133 121.749 7.948C121.325 7.73333 120.993 7.44867 120.755 7.094C120.517 6.73933 120.398 6.35433 120.398 5.939C120.398 5.47233 120.524 5.06633 120.776 4.721C121.028 4.37567 121.39 4.112 121.861 3.93C122.333 3.74333 122.895 3.65 123.548 3.65C124.02 3.65 124.414 3.706 124.731 3.818C125.053 3.92533 125.352 4.07933 125.627 4.28C125.702 4.24733 125.821 4.19833 125.984 4.133C126.148 4.063 126.325 3.98833 126.516 3.909C126.712 3.82967 126.894 3.755 127.062 3.685C127.235 3.61033 127.373 3.55433 127.475 3.517L127.468 4.714L126.201 4.952C126.276 5.10133 126.334 5.26467 126.376 5.442C126.418 5.61933 126.439 5.785 126.439 5.939C126.439 6.36367 126.327 6.74867 126.103 7.094C125.884 7.43933 125.55 7.71467 125.102 7.92C124.654 8.12533 124.094 8.228 123.422 8.228C123.366 8.228 123.294 8.228 123.205 8.228C123.121 8.22333 123.049 8.21867 122.988 8.214C122.494 8.228 122.153 8.284 121.966 8.382C121.784 8.47533 121.693 8.58033 121.693 8.697C121.693 8.83233 121.798 8.92567 122.008 8.977C122.218 9.02833 122.573 9.07267 123.072 9.11C123.254 9.11933 123.478 9.131 123.744 9.145C124.015 9.159 124.316 9.17767 124.647 9.201C125.403 9.24767 125.987 9.44133 126.397 9.782C126.808 10.1227 127.013 10.5823 127.013 11.161C127.013 11.819 126.719 12.3557 126.131 12.771C125.548 13.1863 124.654 13.394 123.45 13.394ZM123.681 12.561C124.349 12.561 124.86 12.4607 125.214 12.26C125.574 12.0593 125.753 11.756 125.753 11.35C125.753 11.0607 125.644 10.825 125.424 10.643C125.205 10.4563 124.874 10.349 124.43 10.321L122.4 10.188C122.218 10.1787 122.029 10.2253 121.833 10.328C121.637 10.426 121.472 10.5637 121.336 10.741C121.201 10.9183 121.133 11.119 121.133 11.343C121.133 11.7257 121.341 12.0243 121.756 12.239C122.172 12.4537 122.813 12.561 123.681 12.561ZM123.464 7.395C123.982 7.395 124.4 7.27367 124.717 7.031C125.039 6.78833 125.2 6.429 125.2 5.953C125.2 5.463 125.039 5.08967 124.717 4.833C124.4 4.57633 123.982 4.448 123.464 4.448C122.932 4.448 122.503 4.57867 122.176 4.84C121.854 5.09667 121.693 5.46767 121.693 5.953C121.693 6.41033 121.847 6.765 122.155 7.017C122.468 7.269 122.904 7.395 123.464 7.395ZM128.799 11V9.348H130.339V11H128.799ZM132.655 11V9.348H134.195V11H132.655ZM136.51 11V9.348H138.05V11H136.51Z" fill="#77878F"/>
</svg>
