<svg width="338" height="63" viewBox="0 0 338 63" fill="none" xmlns="http://www.w3.org/2000/svg">
<path d="M1.528 12V0.431999H3.576L7.064 9.984L10.6 0.431999H12.64V12H11.112V2.648L7.76 12H6.376L3.048 2.736V12H1.528ZM17.669 12.16C17.1303 12.16 16.6557 12.0667 16.245 11.88C15.8397 11.688 15.5197 11.4133 15.285 11.056C15.0557 10.6987 14.941 10.2667 14.941 9.76C14.941 8.84267 15.261 8.16 15.901 7.712C16.541 7.264 17.5677 7.024 18.981 6.992L20.453 6.952V6.304C20.453 5.79733 20.301 5.39733 19.997 5.104C19.693 4.80533 19.2237 4.656 18.589 4.656C18.1143 4.66133 17.6957 4.77333 17.333 4.992C16.9703 5.21067 16.7383 5.568 16.637 6.064H15.333C15.365 5.52533 15.5143 5.072 15.781 4.704C16.053 4.33067 16.4343 4.048 16.925 3.856C17.4157 3.664 17.9943 3.568 18.661 3.568C19.381 3.568 19.9783 3.66933 20.453 3.872C20.933 4.07467 21.2903 4.37333 21.525 4.768C21.765 5.16267 21.885 5.648 21.885 6.224V12H20.621L20.509 10.448C20.1943 11.0933 19.789 11.5413 19.293 11.792C18.8023 12.0373 18.261 12.16 17.669 12.16ZM18.109 11.096C18.3917 11.096 18.669 11.0453 18.941 10.944C19.2183 10.8427 19.469 10.7067 19.693 10.536C19.9223 10.36 20.1063 10.1653 20.245 9.952C20.3837 9.73333 20.453 9.50933 20.453 9.28V7.864L19.229 7.888C18.5943 7.89867 18.0663 7.96267 17.645 8.08C17.2237 8.19733 16.9063 8.38133 16.693 8.632C16.4797 8.88267 16.373 9.21067 16.373 9.616C16.373 10.08 16.5357 10.4427 16.861 10.704C17.1863 10.9653 17.6023 11.096 18.109 11.096ZM27.6888 12.16C26.9208 12.16 26.2434 11.992 25.6568 11.656C25.0701 11.32 24.6114 10.8373 24.2808 10.208C23.9501 9.57867 23.7848 8.824 23.7848 7.944C23.7848 7.07467 23.9341 6.312 24.2328 5.656C24.5314 5 24.9634 4.488 25.5288 4.12C26.0994 3.752 26.7848 3.568 27.5848 3.568C28.3634 3.568 29.0221 3.736 29.5608 4.072C30.0994 4.408 30.5074 4.88267 30.7848 5.496C31.0674 6.104 31.2088 6.82667 31.2088 7.664V8.208H25.2808C25.2808 8.73067 25.3661 9.20533 25.5368 9.632C25.7128 10.0533 25.9768 10.3893 26.3288 10.64C26.6808 10.8907 27.1261 11.016 27.6648 11.016C28.1928 11.016 28.6461 10.8933 29.0248 10.648C29.4088 10.4027 29.6541 10.048 29.7608 9.584H31.1528C31.0567 10.144 30.8328 10.616 30.4808 11C30.1341 11.384 29.7154 11.6747 29.2248 11.872C28.7394 12.064 28.2274 12.16 27.6888 12.16ZM25.2888 7.208H29.7848C29.7848 6.73333 29.7048 6.30667 29.5448 5.928C29.3848 5.544 29.1394 5.24267 28.8088 5.024C28.4834 4.8 28.0728 4.688 27.5768 4.688C27.0594 4.688 26.6301 4.81333 26.2888 5.064C25.9474 5.30933 25.6941 5.62667 25.5288 6.016C25.3634 6.4 25.2834 6.79733 25.2888 7.208ZM36.5833 12.16C35.8366 12.16 35.1753 11.9973 34.5993 11.672C34.0286 11.3467 33.5806 10.8667 33.2553 10.232C32.9353 9.59733 32.7753 8.81867 32.7753 7.896C32.7753 7.032 32.9219 6.27733 33.2153 5.632C33.5139 4.98133 33.9459 4.47467 34.5113 4.112C35.0819 3.74933 35.7726 3.568 36.5833 3.568C37.1753 3.568 37.7059 3.68267 38.1753 3.912C38.6499 4.136 39.0393 4.456 39.3433 4.872C39.6473 5.288 39.8339 5.77867 39.9033 6.344H38.5913C38.5433 6.056 38.4313 5.792 38.2553 5.552C38.0846 5.312 37.8579 5.12 37.5753 4.976C37.2979 4.832 36.9699 4.76 36.5913 4.76C35.8819 4.76 35.3033 5.016 34.8553 5.528C34.4126 6.04 34.1913 6.824 34.1913 7.88C34.1913 8.83467 34.3939 9.6 34.7993 10.176C35.2099 10.7467 35.8126 11.032 36.6073 11.032C36.9859 11.032 37.3166 10.96 37.5993 10.816C37.8819 10.6667 38.1086 10.472 38.2793 10.232C38.4499 9.98667 38.5593 9.72533 38.6073 9.448H39.8953C39.8259 10.0027 39.6366 10.4827 39.3273 10.888C39.0233 11.2933 38.6339 11.608 38.1593 11.832C37.6899 12.0507 37.1646 12.16 36.5833 12.16ZM45.4075 12.16C44.6395 12.16 43.9622 11.992 43.3755 11.656C42.7888 11.32 42.3302 10.8373 41.9995 10.208C41.6688 9.57867 41.5035 8.824 41.5035 7.944C41.5035 7.07467 41.6528 6.312 41.9515 5.656C42.2502 5 42.6822 4.488 43.2475 4.12C43.8182 3.752 44.5035 3.568 45.3035 3.568C46.0822 3.568 46.7408 3.736 47.2795 4.072C47.8182 4.408 48.2262 4.88267 48.5035 5.496C48.7862 6.104 48.9275 6.82667 48.9275 7.664V8.208H42.9995C42.9995 8.73067 43.0848 9.20533 43.2555 9.632C43.4315 10.0533 43.6955 10.3893 44.0475 10.64C44.3995 10.8907 44.8448 11.016 45.3835 11.016C45.9115 11.016 46.3648 10.8933 46.7435 10.648C47.1275 10.4027 47.3728 10.048 47.4795 9.584H48.8715C48.7755 10.144 48.5515 10.616 48.1995 11C47.8528 11.384 47.4342 11.6747 46.9435 11.872C46.4582 12.064 45.9462 12.16 45.4075 12.16ZM43.0075 7.208H47.5035C47.5035 6.73333 47.4235 6.30667 47.2635 5.928C47.1035 5.544 46.8582 5.24267 46.5275 5.024C46.2022 4.8 45.7915 4.688 45.2955 4.688C44.7782 4.688 44.3488 4.81333 44.0075 5.064C43.6662 5.30933 43.4128 5.62667 43.2475 6.016C43.0822 6.4 43.0022 6.79733 43.0075 7.208ZM50.974 12V3.728H52.406V4.928C52.5393 4.69867 52.7233 4.48267 52.958 4.28C53.198 4.07733 53.486 3.91467 53.822 3.792C54.1633 3.66933 54.5553 3.608 54.998 3.608C55.5207 3.608 56.0007 3.712 56.438 3.92C56.8807 4.128 57.2327 4.45333 57.494 4.896C57.7607 5.33333 57.894 5.89867 57.894 6.592V12H56.414V6.736C56.414 6.09067 56.2433 5.61333 55.902 5.304C55.566 4.98933 55.1287 4.832 54.59 4.832C54.2167 4.832 53.8673 4.89333 53.542 5.016C53.2167 5.13333 52.9527 5.31467 52.75 5.56C52.5473 5.8 52.446 6.104 52.446 6.472V12H50.974ZM62.4971 12.16C61.9585 12.16 61.4838 12.0667 61.0731 11.88C60.6678 11.688 60.3478 11.4133 60.1131 11.056C59.8838 10.6987 59.7691 10.2667 59.7691 9.76C59.7691 8.84267 60.0891 8.16 60.7291 7.712C61.3691 7.264 62.3958 7.024 63.8091 6.992L65.2811 6.952V6.304C65.2811 5.79733 65.1291 5.39733 64.8251 5.104C64.5211 4.80533 64.0518 4.656 63.4171 4.656C62.9425 4.66133 62.5238 4.77333 62.1611 4.992C61.7985 5.21067 61.5665 5.568 61.4651 6.064H60.1611C60.1931 5.52533 60.3425 5.072 60.6091 4.704C60.8811 4.33067 61.2625 4.048 61.7531 3.856C62.2438 3.664 62.8225 3.568 63.4891 3.568C64.2091 3.568 64.8065 3.66933 65.2811 3.872C65.7611 4.07467 66.1185 4.37333 66.3531 4.768C66.5931 5.16267 66.7131 5.648 66.7131 6.224V12H65.4491L65.3371 10.448C65.0225 11.0933 64.6171 11.5413 64.1211 11.792C63.6305 12.0373 63.0891 12.16 62.4971 12.16ZM62.9371 11.096C63.2198 11.096 63.4971 11.0453 63.7691 10.944C64.0465 10.8427 64.2971 10.7067 64.5211 10.536C64.7505 10.36 64.9345 10.1653 65.0731 9.952C65.2118 9.73333 65.2811 9.50933 65.2811 9.28V7.864L64.0571 7.888C63.4225 7.89867 62.8945 7.96267 62.4731 8.08C62.0518 8.19733 61.7345 8.38133 61.5211 8.632C61.3078 8.88267 61.2011 9.21067 61.2011 9.616C61.2011 10.08 61.3638 10.4427 61.6891 10.704C62.0145 10.9653 62.4305 11.096 62.9371 11.096ZM71.9188 12.16C71.3428 12.16 70.8068 12.072 70.3108 11.896C69.8201 11.7147 69.4121 11.4347 69.0868 11.056C68.7614 10.672 68.5588 10.184 68.4788 9.592H69.8228C69.8921 9.91733 70.0254 10.1893 70.2228 10.408C70.4201 10.6213 70.6628 10.784 70.9508 10.896C71.2441 11.0027 71.5641 11.056 71.9108 11.056C72.4708 11.056 72.9214 10.952 73.2628 10.744C73.6041 10.536 73.7748 10.216 73.7748 9.784C73.7748 9.48 73.6841 9.23733 73.5028 9.056C73.3268 8.86933 73.0494 8.73333 72.6708 8.648L70.9588 8.224C70.2921 8.064 69.7588 7.81333 69.3588 7.472C68.9641 7.13067 68.7641 6.65333 68.7588 6.04C68.7588 5.55467 68.8761 5.128 69.1108 4.76C69.3454 4.392 69.6948 4.10133 70.1588 3.888C70.6281 3.67467 71.2121 3.568 71.9108 3.568C72.8121 3.568 73.5374 3.77067 74.0868 4.176C74.6361 4.576 74.9241 5.16533 74.9508 5.944H73.6388C73.5854 5.54933 73.4094 5.23733 73.1108 5.008C72.8121 4.77333 72.4068 4.656 71.8948 4.656C71.3721 4.656 70.9428 4.76267 70.6068 4.976C70.2761 5.184 70.1108 5.50933 70.1108 5.952C70.1108 6.24533 70.2281 6.47733 70.4628 6.648C70.7028 6.81333 71.0494 6.952 71.5028 7.064L73.1668 7.48C73.5454 7.58133 73.8601 7.71467 74.1108 7.88C74.3614 8.04533 74.5588 8.22933 74.7028 8.432C74.8468 8.63467 74.9481 8.848 75.0068 9.072C75.0708 9.29067 75.1028 9.50133 75.1028 9.704C75.1028 10.2107 74.9774 10.648 74.7268 11.016C74.4761 11.3787 74.1134 11.6613 73.6388 11.864C73.1641 12.0613 72.5908 12.16 71.9188 12.16ZM83.8406 12.16C83.2646 12.16 82.7286 12.072 82.2326 11.896C81.742 11.7147 81.334 11.4347 81.0086 11.056C80.6833 10.672 80.4806 10.184 80.4006 9.592H81.7446C81.814 9.91733 81.9473 10.1893 82.1446 10.408C82.342 10.6213 82.5846 10.784 82.8726 10.896C83.166 11.0027 83.486 11.056 83.8326 11.056C84.3926 11.056 84.8433 10.952 85.1846 10.744C85.526 10.536 85.6966 10.216 85.6966 9.784C85.6966 9.48 85.606 9.23733 85.4246 9.056C85.2486 8.86933 84.9713 8.73333 84.5926 8.648L82.8806 8.224C82.214 8.064 81.6806 7.81333 81.2806 7.472C80.886 7.13067 80.686 6.65333 80.6806 6.04C80.6806 5.55467 80.798 5.128 81.0326 4.76C81.2673 4.392 81.6166 4.10133 82.0806 3.888C82.55 3.67467 83.134 3.568 83.8326 3.568C84.734 3.568 85.4593 3.77067 86.0086 4.176C86.558 4.576 86.846 5.16533 86.8726 5.944H85.5606C85.5073 5.54933 85.3313 5.23733 85.0326 5.008C84.734 4.77333 84.3286 4.656 83.8166 4.656C83.294 4.656 82.8646 4.76267 82.5286 4.976C82.198 5.184 82.0326 5.50933 82.0326 5.952C82.0326 6.24533 82.15 6.47733 82.3846 6.648C82.6246 6.81333 82.9713 6.952 83.4246 7.064L85.0886 7.48C85.4673 7.58133 85.782 7.71467 86.0326 7.88C86.2833 8.04533 86.4806 8.22933 86.6246 8.432C86.7686 8.63467 86.87 8.848 86.9286 9.072C86.9926 9.29067 87.0246 9.50133 87.0246 9.704C87.0246 10.2107 86.8993 10.648 86.6486 11.016C86.398 11.3787 86.0353 11.6613 85.5606 11.864C85.086 12.0613 84.5126 12.16 83.8406 12.16ZM92.2864 12.16C91.5397 12.16 90.8784 11.9973 90.3024 11.672C89.7317 11.3467 89.2837 10.8667 88.9584 10.232C88.6384 9.59733 88.4784 8.81867 88.4784 7.896C88.4784 7.032 88.625 6.27733 88.9184 5.632C89.217 4.98133 89.649 4.47467 90.2144 4.112C90.785 3.74933 91.4757 3.568 92.2864 3.568C92.8784 3.568 93.409 3.68267 93.8784 3.912C94.353 4.136 94.7424 4.456 95.0464 4.872C95.3504 5.288 95.537 5.77867 95.6064 6.344H94.2944C94.2464 6.056 94.1344 5.792 93.9584 5.552C93.7877 5.312 93.561 5.12 93.2784 4.976C93.001 4.832 92.673 4.76 92.2944 4.76C91.585 4.76 91.0064 5.016 90.5584 5.528C90.1157 6.04 89.8944 6.824 89.8944 7.88C89.8944 8.83467 90.097 9.6 90.5024 10.176C90.913 10.7467 91.5157 11.032 92.3104 11.032C92.689 11.032 93.0197 10.96 93.3024 10.816C93.585 10.6667 93.8117 10.472 93.9824 10.232C94.153 9.98667 94.2624 9.72533 94.3104 9.448H95.5984C95.529 10.0027 95.3397 10.4827 95.0304 10.888C94.7264 11.2933 94.337 11.608 93.8624 11.832C93.393 12.0507 92.8677 12.16 92.2864 12.16ZM101.111 12.16C100.343 12.16 99.6653 11.992 99.0786 11.656C98.492 11.32 98.0333 10.8373 97.7026 10.208C97.372 9.57867 97.2066 8.824 97.2066 7.944C97.2066 7.07467 97.356 6.312 97.6546 5.656C97.9533 5 98.3853 4.488 98.9506 4.12C99.5213 3.752 100.207 3.568 101.007 3.568C101.785 3.568 102.444 3.736 102.983 4.072C103.521 4.408 103.929 4.88267 104.207 5.496C104.489 6.104 104.631 6.82667 104.631 7.664V8.208H98.7026C98.7026 8.73067 98.788 9.20533 98.9586 9.632C99.1346 10.0533 99.3986 10.3893 99.7506 10.64C100.103 10.8907 100.548 11.016 101.087 11.016C101.615 11.016 102.068 10.8933 102.447 10.648C102.831 10.4027 103.076 10.048 103.183 9.584H104.575C104.479 10.144 104.255 10.616 103.903 11C103.556 11.384 103.137 11.6747 102.647 11.872C102.161 12.064 101.649 12.16 101.111 12.16ZM98.7106 7.208H103.207C103.207 6.73333 103.127 6.30667 102.967 5.928C102.807 5.544 102.561 5.24267 102.231 5.024C101.905 4.8 101.495 4.688 100.999 4.688C100.481 4.688 100.052 4.81333 99.7106 5.064C99.3693 5.30933 99.116 5.62667 98.9506 6.016C98.7853 6.4 98.7053 6.79733 98.7106 7.208ZM108.765 12.104C108.317 12.104 107.954 12.0427 107.677 11.92C107.405 11.7973 107.194 11.632 107.045 11.424C106.901 11.216 106.802 10.9787 106.749 10.712C106.701 10.44 106.677 10.16 106.677 9.872V0.112H108.133V9.728C108.133 10.144 108.213 10.456 108.373 10.664C108.538 10.872 108.768 10.9867 109.061 11.008L109.509 11.016V11.976C109.386 12.0133 109.258 12.0427 109.125 12.064C108.992 12.0907 108.872 12.104 108.765 12.104ZM114.626 12.16C113.858 12.16 113.181 11.992 112.594 11.656C112.008 11.32 111.549 10.8373 111.218 10.208C110.888 9.57867 110.722 8.824 110.722 7.944C110.722 7.07467 110.872 6.312 111.17 5.656C111.469 5 111.901 4.488 112.466 4.12C113.037 3.752 113.722 3.568 114.522 3.568C115.301 3.568 115.96 3.736 116.498 4.072C117.037 4.408 117.445 4.88267 117.722 5.496C118.005 6.104 118.146 6.82667 118.146 7.664V8.208H112.218C112.218 8.73067 112.304 9.20533 112.474 9.632C112.65 10.0533 112.914 10.3893 113.266 10.64C113.618 10.8907 114.064 11.016 114.602 11.016C115.13 11.016 115.584 10.8933 115.962 10.648C116.346 10.4027 116.592 10.048 116.698 9.584H118.09C117.994 10.144 117.77 10.616 117.418 11C117.072 11.384 116.653 11.6747 116.162 11.872C115.677 12.064 115.165 12.16 114.626 12.16ZM112.226 7.208H116.722C116.722 6.73333 116.642 6.30667 116.482 5.928C116.322 5.544 116.077 5.24267 115.746 5.024C115.421 4.8 115.01 4.688 114.514 4.688C113.997 4.688 113.568 4.81333 113.226 5.064C112.885 5.30933 112.632 5.62667 112.466 6.016C112.301 6.4 112.221 6.79733 112.226 7.208ZM120.193 12V3.728H121.601V5.32C121.739 4.92533 121.934 4.6 122.185 4.344C122.435 4.08267 122.721 3.888 123.041 3.76C123.366 3.632 123.702 3.568 124.049 3.568C124.171 3.568 124.291 3.576 124.409 3.592C124.526 3.608 124.617 3.63467 124.681 3.672V5.104C124.601 5.06667 124.497 5.04267 124.369 5.032C124.246 5.016 124.142 5.008 124.057 5.008C123.726 4.98667 123.417 5.008 123.129 5.072C122.841 5.13067 122.587 5.23467 122.369 5.384C122.15 5.53333 121.977 5.73067 121.849 5.976C121.726 6.216 121.665 6.50933 121.665 6.856V12H120.193ZM126.483 12V3.728H127.915V12H126.483ZM126.443 1.976V0.44H127.955V1.976H126.443ZM133.372 12.16C132.796 12.16 132.26 12.072 131.764 11.896C131.273 11.7147 130.865 11.4347 130.54 11.056C130.215 10.672 130.012 10.184 129.932 9.592H131.276C131.345 9.91733 131.479 10.1893 131.676 10.408C131.873 10.6213 132.116 10.784 132.404 10.896C132.697 11.0027 133.017 11.056 133.364 11.056C133.924 11.056 134.375 10.952 134.716 10.744C135.057 10.536 135.228 10.216 135.228 9.784C135.228 9.48 135.137 9.23733 134.956 9.056C134.78 8.86933 134.503 8.73333 134.124 8.648L132.412 8.224C131.745 8.064 131.212 7.81333 130.812 7.472C130.417 7.13067 130.217 6.65333 130.212 6.04C130.212 5.55467 130.329 5.128 130.564 4.76C130.799 4.392 131.148 4.10133 131.612 3.888C132.081 3.67467 132.665 3.568 133.364 3.568C134.265 3.568 134.991 3.77067 135.54 4.176C136.089 4.576 136.377 5.16533 136.404 5.944H135.092C135.039 5.54933 134.863 5.23733 134.564 5.008C134.265 4.77333 133.86 4.656 133.348 4.656C132.825 4.656 132.396 4.76267 132.06 4.976C131.729 5.184 131.564 5.50933 131.564 5.952C131.564 6.24533 131.681 6.47733 131.916 6.648C132.156 6.81333 132.503 6.952 132.956 7.064L134.62 7.48C134.999 7.58133 135.313 7.71467 135.564 7.88C135.815 8.04533 136.012 8.22933 136.156 8.432C136.3 8.63467 136.401 8.848 136.46 9.072C136.524 9.29067 136.556 9.50133 136.556 9.704C136.556 10.2107 136.431 10.648 136.18 11.016C135.929 11.3787 135.567 11.6613 135.092 11.864C134.617 12.0613 134.044 12.16 133.372 12.16ZM144.082 14.576V10.504C143.996 10.68 143.882 10.864 143.738 11.056C143.594 11.248 143.415 11.4293 143.202 11.6C142.994 11.7653 142.746 11.8987 142.458 12C142.175 12.1067 141.85 12.16 141.482 12.16C140.815 12.16 140.22 12.008 139.698 11.704C139.175 11.3947 138.762 10.9147 138.458 10.264C138.159 9.61333 138.01 8.776 138.01 7.752C138.01 6.872 138.138 6.12 138.394 5.496C138.655 4.872 139.034 4.39467 139.53 4.064C140.031 3.73333 140.642 3.568 141.362 3.568C141.74 3.568 142.076 3.61867 142.37 3.72C142.668 3.82133 142.927 3.952 143.146 4.112C143.37 4.272 143.556 4.44533 143.706 4.632C143.86 4.81867 143.986 4.99733 144.082 5.168L144.098 3.728H145.578V14.576H144.082ZM141.762 11.008C142.274 11.008 142.703 10.864 143.05 10.576C143.396 10.288 143.658 9.90133 143.834 9.416C144.01 8.93067 144.098 8.392 144.098 7.8C144.098 6.88267 143.9 6.14133 143.506 5.576C143.116 5.00533 142.535 4.72 141.762 4.72C141.084 4.72 140.527 4.97333 140.09 5.48C139.658 5.98667 139.442 6.76 139.442 7.8C139.442 8.79733 139.639 9.58133 140.034 10.152C140.434 10.7227 141.01 11.008 141.762 11.008ZM151.061 12.16C150.629 12.1547 150.221 12.0933 149.837 11.976C149.458 11.8533 149.122 11.6747 148.829 11.44C148.536 11.2053 148.304 10.9147 148.133 10.568C147.968 10.216 147.885 9.808 147.885 9.344V3.728H149.365V9.192C149.365 9.73067 149.53 10.168 149.861 10.504C150.197 10.84 150.701 11.008 151.373 11.008C151.981 11.008 152.469 10.8507 152.837 10.536C153.21 10.216 153.397 9.74133 153.397 9.112V3.728H154.869V12H153.693L153.541 10.416C153.44 10.832 153.266 11.168 153.021 11.424C152.781 11.68 152.49 11.8693 152.149 11.992C151.813 12.1093 151.45 12.1653 151.061 12.16ZM160.798 12.16C160.03 12.16 159.353 11.992 158.766 11.656C158.179 11.32 157.721 10.8373 157.39 10.208C157.059 9.57867 156.894 8.824 156.894 7.944C156.894 7.07467 157.043 6.312 157.342 5.656C157.641 5 158.073 4.488 158.638 4.12C159.209 3.752 159.894 3.568 160.694 3.568C161.473 3.568 162.131 3.736 162.67 4.072C163.209 4.408 163.617 4.88267 163.894 5.496C164.177 6.104 164.318 6.82667 164.318 7.664V8.208H158.39C158.39 8.73067 158.475 9.20533 158.646 9.632C158.822 10.0533 159.086 10.3893 159.438 10.64C159.79 10.8907 160.235 11.016 160.774 11.016C161.302 11.016 161.755 10.8933 162.134 10.648C162.518 10.4027 162.763 10.048 162.87 9.584H164.262C164.166 10.144 163.942 10.616 163.59 11C163.243 11.384 162.825 11.6747 162.334 11.872C161.849 12.064 161.337 12.16 160.798 12.16ZM158.398 7.208H162.894C162.894 6.73333 162.814 6.30667 162.654 5.928C162.494 5.544 162.249 5.24267 161.918 5.024C161.593 4.8 161.182 4.688 160.686 4.688C160.169 4.688 159.739 4.81333 159.398 5.064C159.057 5.30933 158.803 5.62667 158.638 6.016C158.473 6.4 158.393 6.79733 158.398 7.208ZM165.837 14.008L166.733 12.032L166.037 11.992V10.224H167.885V11.76L166.525 14.008H165.837ZM176.341 12.16C175.802 12.16 175.328 12.0667 174.917 11.88C174.512 11.688 174.192 11.4133 173.957 11.056C173.728 10.6987 173.613 10.2667 173.613 9.76C173.613 8.84267 173.933 8.16 174.573 7.712C175.213 7.264 176.24 7.024 177.653 6.992L179.125 6.952V6.304C179.125 5.79733 178.973 5.39733 178.669 5.104C178.365 4.80533 177.896 4.656 177.261 4.656C176.786 4.66133 176.368 4.77333 176.005 4.992C175.642 5.21067 175.41 5.568 175.309 6.064H174.005C174.037 5.52533 174.186 5.072 174.453 4.704C174.725 4.33067 175.106 4.048 175.597 3.856C176.088 3.664 176.666 3.568 177.333 3.568C178.053 3.568 178.65 3.66933 179.125 3.872C179.605 4.07467 179.962 4.37333 180.197 4.768C180.437 5.16267 180.557 5.648 180.557 6.224V12H179.293L179.181 10.448C178.866 11.0933 178.461 11.5413 177.965 11.792C177.474 12.0373 176.933 12.16 176.341 12.16ZM176.781 11.096C177.064 11.096 177.341 11.0453 177.613 10.944C177.89 10.8427 178.141 10.7067 178.365 10.536C178.594 10.36 178.778 10.1653 178.917 9.952C179.056 9.73333 179.125 9.50933 179.125 9.28V7.864L177.901 7.888C177.266 7.89867 176.738 7.96267 176.317 8.08C175.896 8.19733 175.578 8.38133 175.365 8.632C175.152 8.88267 175.045 9.21067 175.045 9.616C175.045 10.08 175.208 10.4427 175.533 10.704C175.858 10.9653 176.274 11.096 176.781 11.096ZM182.865 12V3.728H184.273V5.32C184.411 4.92533 184.606 4.6 184.857 4.344C185.107 4.08267 185.393 3.888 185.713 3.76C186.038 3.632 186.374 3.568 186.721 3.568C186.843 3.568 186.963 3.576 187.081 3.592C187.198 3.608 187.289 3.63467 187.353 3.672V5.104C187.273 5.06667 187.169 5.04267 187.041 5.032C186.918 5.016 186.814 5.008 186.729 5.008C186.398 4.98667 186.089 5.008 185.801 5.072C185.513 5.13067 185.259 5.23467 185.041 5.384C184.822 5.53333 184.649 5.73067 184.521 5.976C184.398 6.216 184.337 6.50933 184.337 6.856V12H182.865ZM192.318 12.16C191.571 12.16 190.91 11.9973 190.334 11.672C189.763 11.3467 189.315 10.8667 188.99 10.232C188.67 9.59733 188.51 8.81867 188.51 7.896C188.51 7.032 188.656 6.27733 188.95 5.632C189.248 4.98133 189.68 4.47467 190.246 4.112C190.816 3.74933 191.507 3.568 192.318 3.568C192.91 3.568 193.44 3.68267 193.91 3.912C194.384 4.136 194.774 4.456 195.078 4.872C195.382 5.288 195.568 5.77867 195.638 6.344H194.326C194.278 6.056 194.166 5.792 193.99 5.552C193.819 5.312 193.592 5.12 193.31 4.976C193.032 4.832 192.704 4.76 192.326 4.76C191.616 4.76 191.038 5.016 190.59 5.528C190.147 6.04 189.926 6.824 189.926 7.88C189.926 8.83467 190.128 9.6 190.534 10.176C190.944 10.7467 191.547 11.032 192.342 11.032C192.72 11.032 193.051 10.96 193.334 10.816C193.616 10.6667 193.843 10.472 194.014 10.232C194.184 9.98667 194.294 9.72533 194.342 9.448H195.63C195.56 10.0027 195.371 10.4827 195.062 10.888C194.758 11.2933 194.368 11.608 193.894 11.832C193.424 12.0507 192.899 12.16 192.318 12.16ZM200.702 12.16C200.27 12.1547 199.862 12.0933 199.478 11.976C199.099 11.8533 198.763 11.6747 198.47 11.44C198.176 11.2053 197.944 10.9147 197.774 10.568C197.608 10.216 197.526 9.808 197.526 9.344V3.728H199.006V9.192C199.006 9.73067 199.171 10.168 199.502 10.504C199.838 10.84 200.342 11.008 201.014 11.008C201.622 11.008 202.11 10.8507 202.478 10.536C202.851 10.216 203.038 9.74133 203.038 9.112V3.728H204.51V12H203.334L203.182 10.416C203.08 10.832 202.907 11.168 202.662 11.424C202.422 11.68 202.131 11.8693 201.79 11.992C201.454 12.1093 201.091 12.1653 200.702 12.16ZM216.222 14.576V10.504C216.137 10.68 216.022 10.864 215.878 11.056C215.734 11.248 215.556 11.4293 215.342 11.6C215.134 11.7653 214.886 11.8987 214.598 12C214.316 12.1067 213.99 12.16 213.622 12.16C212.956 12.16 212.361 12.008 211.838 11.704C211.316 11.3947 210.902 10.9147 210.598 10.264C210.3 9.61333 210.15 8.776 210.15 7.752C210.15 6.872 210.278 6.12 210.534 5.496C210.796 4.872 211.174 4.39467 211.67 4.064C212.172 3.73333 212.782 3.568 213.502 3.568C213.881 3.568 214.217 3.61867 214.51 3.72C214.809 3.82133 215.068 3.952 215.286 4.112C215.51 4.272 215.697 4.44533 215.846 4.632C216.001 4.81867 216.126 4.99733 216.222 5.168L216.238 3.728H217.718V14.576H216.222ZM213.902 11.008C214.414 11.008 214.844 10.864 215.19 10.576C215.537 10.288 215.798 9.90133 215.974 9.416C216.15 8.93067 216.238 8.392 216.238 7.8C216.238 6.88267 216.041 6.14133 215.646 5.576C215.257 5.00533 214.676 4.72 213.902 4.72C213.225 4.72 212.668 4.97333 212.23 5.48C211.798 5.98667 211.582 6.76 211.582 7.8C211.582 8.79733 211.78 9.58133 212.174 10.152C212.574 10.7227 213.15 11.008 213.902 11.008ZM223.202 12.16C222.77 12.1547 222.362 12.0933 221.978 11.976C221.599 11.8533 221.263 11.6747 220.97 11.44C220.676 11.2053 220.444 10.9147 220.274 10.568C220.108 10.216 220.026 9.808 220.026 9.344V3.728H221.506V9.192C221.506 9.73067 221.671 10.168 222.002 10.504C222.338 10.84 222.842 11.008 223.514 11.008C224.122 11.008 224.61 10.8507 224.978 10.536C225.351 10.216 225.538 9.74133 225.538 9.112V3.728H227.01V12H225.834L225.682 10.416C225.58 10.832 225.407 11.168 225.162 11.424C224.922 11.68 224.631 11.8693 224.29 11.992C223.954 12.1093 223.591 12.1653 223.202 12.16ZM229.577 12V3.728H231.009V12H229.577ZM229.537 1.976V0.44H231.049V1.976H229.537ZM236.466 12.16C235.89 12.16 235.354 12.072 234.858 11.896C234.367 11.7147 233.959 11.4347 233.634 11.056C233.308 10.672 233.106 10.184 233.026 9.592H234.37C234.439 9.91733 234.572 10.1893 234.77 10.408C234.967 10.6213 235.21 10.784 235.498 10.896C235.791 11.0027 236.111 11.056 236.458 11.056C237.018 11.056 237.468 10.952 237.81 10.744C238.151 10.536 238.322 10.216 238.322 9.784C238.322 9.48 238.231 9.23733 238.05 9.056C237.874 8.86933 237.596 8.73333 237.218 8.648L235.506 8.224C234.839 8.064 234.306 7.81333 233.906 7.472C233.511 7.13067 233.311 6.65333 233.306 6.04C233.306 5.55467 233.423 5.128 233.658 4.76C233.892 4.392 234.242 4.10133 234.706 3.888C235.175 3.67467 235.759 3.568 236.458 3.568C237.359 3.568 238.084 3.77067 238.634 4.176C239.183 4.576 239.471 5.16533 239.498 5.944H238.186C238.132 5.54933 237.956 5.23733 237.658 5.008C237.359 4.77333 236.954 4.656 236.442 4.656C235.919 4.656 235.49 4.76267 235.154 4.976C234.823 5.184 234.658 5.50933 234.658 5.952C234.658 6.24533 234.775 6.47733 235.01 6.648C235.25 6.81333 235.596 6.952 236.05 7.064L237.714 7.48C238.092 7.58133 238.407 7.71467 238.658 7.88C238.908 8.04533 239.106 8.22933 239.25 8.432C239.394 8.63467 239.495 8.848 239.554 9.072C239.618 9.29067 239.65 9.50133 239.65 9.704C239.65 10.2107 239.524 10.648 239.274 11.016C239.023 11.3787 238.66 11.6613 238.186 11.864C237.711 12.0613 237.138 12.16 236.466 12.16ZM248.444 12.04C247.873 12.04 247.43 11.9627 247.116 11.808C246.801 11.6533 246.58 11.424 246.452 11.12C246.329 10.816 246.268 10.4427 246.268 10V4.808H244.924V3.728H246.308L246.668 1.32H247.756V3.72H249.62V4.808H247.756V9.952C247.756 10.2453 247.785 10.4613 247.844 10.6C247.908 10.7333 248.012 10.8187 248.156 10.856C248.3 10.8933 248.502 10.912 248.764 10.912H249.668V11.904C249.566 11.9413 249.412 11.9733 249.204 12C249.001 12.0267 248.748 12.04 248.444 12.04ZM254.908 12.16C254.14 12.16 253.462 11.992 252.876 11.656C252.289 11.32 251.83 10.8373 251.5 10.208C251.169 9.57867 251.004 8.824 251.004 7.944C251.004 7.07467 251.153 6.312 251.452 5.656C251.75 5 252.182 4.488 252.748 4.12C253.318 3.752 254.004 3.568 254.804 3.568C255.582 3.568 256.241 3.736 256.78 4.072C257.318 4.408 257.726 4.88267 258.004 5.496C258.286 6.104 258.428 6.82667 258.428 7.664V8.208H252.5C252.5 8.73067 252.585 9.20533 252.756 9.632C252.932 10.0533 253.196 10.3893 253.548 10.64C253.9 10.8907 254.345 11.016 254.884 11.016C255.412 11.016 255.865 10.8933 256.244 10.648C256.628 10.4027 256.873 10.048 256.98 9.584H258.372C258.275 10.144 258.052 10.616 257.7 11C257.353 11.384 256.934 11.6747 256.444 11.872C255.958 12.064 255.446 12.16 254.908 12.16ZM252.508 7.208H257.004C257.004 6.73333 256.924 6.30667 256.764 5.928C256.604 5.544 256.358 5.24267 256.028 5.024C255.702 4.8 255.292 4.688 254.796 4.688C254.278 4.688 253.849 4.81333 253.508 5.064C253.166 5.30933 252.913 5.62667 252.748 6.016C252.582 6.4 252.502 6.79733 252.508 7.208ZM260.474 12V3.728H261.898V4.928C262.127 4.56533 262.442 4.248 262.842 3.976C263.242 3.704 263.762 3.568 264.402 3.568C264.701 3.568 265.005 3.61867 265.314 3.72C265.629 3.82133 265.917 3.97333 266.178 4.176C266.439 4.37867 266.642 4.62667 266.786 4.92C267.042 4.51467 267.389 4.18933 267.826 3.944C268.263 3.69333 268.757 3.568 269.306 3.568C269.594 3.568 269.895 3.61333 270.21 3.704C270.525 3.78933 270.815 3.944 271.082 4.168C271.354 4.38667 271.575 4.69333 271.746 5.088C271.917 5.47733 272.002 5.97867 272.002 6.592V12H270.514V6.736C270.514 6.23467 270.434 5.848 270.274 5.576C270.114 5.29867 269.903 5.104 269.642 4.992C269.386 4.88 269.111 4.824 268.818 4.824C268.562 4.824 268.29 4.87467 268.002 4.976C267.714 5.07733 267.469 5.248 267.266 5.488C267.063 5.728 266.962 6.056 266.962 6.472V12H265.49V6.304C265.49 5.97867 265.402 5.70667 265.226 5.488C265.055 5.26933 264.839 5.104 264.578 4.992C264.322 4.88 264.066 4.824 263.81 4.824C263.527 4.824 263.242 4.88 262.954 4.992C262.671 5.104 262.431 5.28267 262.234 5.528C262.042 5.768 261.946 6.08267 261.946 6.472V12H260.474ZM274.318 14.576V3.728H275.79L275.806 5.168C275.902 4.99733 276.024 4.81867 276.174 4.632C276.328 4.44533 276.515 4.272 276.734 4.112C276.958 3.952 277.216 3.82133 277.51 3.72C277.808 3.61867 278.147 3.568 278.526 3.568C279.187 3.568 279.768 3.72 280.27 4.024C280.776 4.32267 281.171 4.78133 281.454 5.4C281.736 6.01867 281.878 6.80267 281.878 7.752C281.878 8.70133 281.739 9.504 281.462 10.16C281.19 10.8107 280.795 11.3067 280.278 11.648C279.76 11.9893 279.136 12.16 278.406 12.16C278.038 12.16 277.71 12.1067 277.422 12C277.139 11.8987 276.891 11.7653 276.678 11.6C276.47 11.4293 276.294 11.248 276.15 11.056C276.011 10.864 275.896 10.68 275.806 10.504V14.576H274.318ZM278.126 11.008C278.808 11.008 279.366 10.7493 279.798 10.232C280.23 9.70933 280.446 8.89867 280.446 7.8C280.446 6.856 280.248 6.10667 279.854 5.552C279.459 4.99733 278.883 4.72 278.126 4.72C277.358 4.72 276.776 5.00533 276.382 5.576C275.987 6.14133 275.79 6.88267 275.79 7.8C275.79 8.392 275.878 8.93067 276.054 9.416C276.23 9.90133 276.491 10.288 276.838 10.576C277.184 10.864 277.614 11.008 278.126 11.008ZM286.858 12.16C286.426 12.1547 286.018 12.0933 285.634 11.976C285.255 11.8533 284.919 11.6747 284.626 11.44C284.332 11.2053 284.1 10.9147 283.93 10.568C283.764 10.216 283.682 9.808 283.682 9.344V3.728H285.162V9.192C285.162 9.73067 285.327 10.168 285.658 10.504C285.994 10.84 286.498 11.008 287.17 11.008C287.778 11.008 288.266 10.8507 288.634 10.536C289.007 10.216 289.194 9.74133 289.194 9.112V3.728H290.666V12H289.49L289.338 10.416C289.236 10.832 289.063 11.168 288.818 11.424C288.578 11.68 288.287 11.8693 287.946 11.992C287.61 12.1093 287.247 12.1653 286.858 12.16ZM296.075 12.16C295.499 12.16 294.963 12.072 294.467 11.896C293.976 11.7147 293.568 11.4347 293.243 11.056C292.918 10.672 292.715 10.184 292.635 9.592H293.979C294.048 9.91733 294.182 10.1893 294.379 10.408C294.576 10.6213 294.819 10.784 295.107 10.896C295.4 11.0027 295.72 11.056 296.067 11.056C296.627 11.056 297.078 10.952 297.419 10.744C297.76 10.536 297.931 10.216 297.931 9.784C297.931 9.48 297.84 9.23733 297.659 9.056C297.483 8.86933 297.206 8.73333 296.827 8.648L295.115 8.224C294.448 8.064 293.915 7.81333 293.515 7.472C293.12 7.13067 292.92 6.65333 292.915 6.04C292.915 5.55467 293.032 5.128 293.267 4.76C293.502 4.392 293.851 4.10133 294.315 3.888C294.784 3.67467 295.368 3.568 296.067 3.568C296.968 3.568 297.694 3.77067 298.243 4.176C298.792 4.576 299.08 5.16533 299.107 5.944H297.795C297.742 5.54933 297.566 5.23733 297.267 5.008C296.968 4.77333 296.563 4.656 296.051 4.656C295.528 4.656 295.099 4.76267 294.763 4.976C294.432 5.184 294.267 5.50933 294.267 5.952C294.267 6.24533 294.384 6.47733 294.619 6.648C294.859 6.81333 295.206 6.952 295.659 7.064L297.323 7.48C297.702 7.58133 298.016 7.71467 298.267 7.88C298.518 8.04533 298.715 8.22933 298.859 8.432C299.003 8.63467 299.104 8.848 299.163 9.072C299.227 9.29067 299.259 9.50133 299.259 9.704C299.259 10.2107 299.134 10.648 298.883 11.016C298.632 11.3787 298.27 11.6613 297.795 11.864C297.32 12.0613 296.747 12.16 296.075 12.16ZM4.72 36.16C3.952 36.16 3.27467 35.992 2.688 35.656C2.10133 35.32 1.64267 34.8373 1.312 34.208C0.981333 33.5787 0.816 32.824 0.816 31.944C0.816 31.0747 0.965333 30.312 1.264 29.656C1.56267 29 1.99467 28.488 2.56 28.12C3.13067 27.752 3.816 27.568 4.616 27.568C5.39467 27.568 6.05333 27.736 6.592 28.072C7.13067 28.408 7.53867 28.8827 7.816 29.496C8.09867 30.104 8.24 30.8267 8.24 31.664V32.208H2.312C2.312 32.7307 2.39733 33.2053 2.568 33.632C2.744 34.0533 3.008 34.3893 3.36 34.64C3.712 34.8907 4.15733 35.016 4.696 35.016C5.224 35.016 5.67733 34.8933 6.056 34.648C6.44 34.4027 6.68533 34.048 6.792 33.584H8.184C8.088 34.144 7.864 34.616 7.512 35C7.16533 35.384 6.74667 35.6747 6.256 35.872C5.77067 36.064 5.25867 36.16 4.72 36.16ZM2.32 31.208H6.816C6.816 30.7333 6.736 30.3067 6.576 29.928C6.416 29.544 6.17067 29.2427 5.84 29.024C5.51467 28.8 5.104 28.688 4.608 28.688C4.09067 28.688 3.66133 28.8133 3.32 29.064C2.97867 29.3093 2.72533 29.6267 2.56 30.016C2.39467 30.4 2.31467 30.7973 2.32 31.208ZM13.72 38.736C12.424 38.736 11.4133 38.5467 10.688 38.168C9.96267 37.7947 9.6 37.2587 9.6 36.56C9.6 36.2613 9.66933 36.008 9.808 35.8C9.94667 35.5867 10.112 35.4107 10.304 35.272C10.496 35.1333 10.6747 35.024 10.84 34.944C11.0053 34.8587 11.1147 34.7973 11.168 34.76C11.072 34.7067 10.9573 34.64 10.824 34.56C10.6907 34.48 10.5707 34.3733 10.464 34.24C10.3627 34.1067 10.312 33.9333 10.312 33.72C10.312 33.4587 10.4347 33.2187 10.68 33C10.9253 32.7813 11.2907 32.6187 11.776 32.512C11.2907 32.2667 10.912 31.9413 10.64 31.536C10.368 31.1307 10.232 30.6907 10.232 30.216C10.232 29.6827 10.376 29.2187 10.664 28.824C10.952 28.4293 11.3653 28.128 11.904 27.92C12.4427 27.7067 13.0853 27.6 13.832 27.6C14.3707 27.6 14.8213 27.664 15.184 27.792C15.552 27.9147 15.8933 28.0907 16.208 28.32C16.2933 28.2827 16.4293 28.2267 16.616 28.152C16.8027 28.072 17.0053 27.9867 17.224 27.896C17.448 27.8053 17.656 27.72 17.848 27.64C18.0453 27.5547 18.2027 27.4907 18.32 27.448L18.312 28.816L16.864 29.088C16.9493 29.2587 17.016 29.4453 17.064 29.648C17.112 29.8507 17.136 30.04 17.136 30.216C17.136 30.7013 17.008 31.1413 16.752 31.536C16.5013 31.9307 16.12 32.2453 15.608 32.48C15.096 32.7147 14.456 32.832 13.688 32.832C13.624 32.832 13.5413 32.832 13.44 32.832C13.344 32.8267 13.2613 32.8213 13.192 32.816C12.6267 32.832 12.2373 32.896 12.024 33.008C11.816 33.1147 11.712 33.2347 11.712 33.368C11.712 33.5227 11.832 33.6293 12.072 33.688C12.312 33.7467 12.7173 33.7973 13.288 33.84C13.496 33.8507 13.752 33.864 14.056 33.88C14.3653 33.896 14.7093 33.9173 15.088 33.944C15.952 33.9973 16.6187 34.2187 17.088 34.608C17.5573 34.9973 17.792 35.5227 17.792 36.184C17.792 36.936 17.456 37.5493 16.784 38.024C16.1173 38.4987 15.096 38.736 13.72 38.736ZM13.984 37.784C14.7467 37.784 15.3307 37.6693 15.736 37.44C16.1467 37.2107 16.352 36.864 16.352 36.4C16.352 36.0693 16.2267 35.8 15.976 35.592C15.7253 35.3787 15.3467 35.256 14.84 35.224L12.52 35.072C12.312 35.0613 12.096 35.1147 11.872 35.232C11.648 35.344 11.4587 35.5013 11.304 35.704C11.1493 35.9067 11.072 36.136 11.072 36.392C11.072 36.8293 11.3093 37.1707 11.784 37.416C12.2587 37.6613 12.992 37.784 13.984 37.784ZM13.736 31.88C14.328 31.88 14.8053 31.7413 15.168 31.464C15.536 31.1867 15.72 30.776 15.72 30.232C15.72 29.672 15.536 29.2453 15.168 28.952C14.8053 28.6587 14.328 28.512 13.736 28.512C13.128 28.512 12.6373 28.6613 12.264 28.96C11.896 29.2533 11.712 29.6773 11.712 30.232C11.712 30.7547 11.888 31.16 12.24 31.448C12.5973 31.736 13.096 31.88 13.736 31.88ZM23.4231 36.16C22.6551 36.16 21.9778 35.992 21.3911 35.656C20.8045 35.32 20.3458 34.8373 20.0151 34.208C19.6845 33.5787 19.5191 32.824 19.5191 31.944C19.5191 31.0747 19.6685 30.312 19.9671 29.656C20.2658 29 20.6978 28.488 21.2631 28.12C21.8338 27.752 22.5191 27.568 23.3191 27.568C24.0978 27.568 24.7565 27.736 25.2951 28.072C25.8338 28.408 26.2418 28.8827 26.5191 29.496C26.8018 30.104 26.9431 30.8267 26.9431 31.664V32.208H21.0151C21.0151 32.7307 21.1005 33.2053 21.2711 33.632C21.4471 34.0533 21.7111 34.3893 22.0631 34.64C22.4151 34.8907 22.8605 35.016 23.3991 35.016C23.9271 35.016 24.3805 34.8933 24.7591 34.648C25.1431 34.4027 25.3885 34.048 25.4951 33.584H26.8871C26.7911 34.144 26.5671 34.616 26.2151 35C25.8685 35.384 25.4498 35.6747 24.9591 35.872C24.4738 36.064 23.9618 36.16 23.4231 36.16ZM21.0231 31.208H25.5191C25.5191 30.7333 25.4391 30.3067 25.2791 29.928C25.1191 29.544 24.8738 29.2427 24.5431 29.024C24.2178 28.8 23.8071 28.688 23.3111 28.688C22.7938 28.688 22.3645 28.8133 22.0231 29.064C21.6818 29.3093 21.4285 29.6267 21.2631 30.016C21.0978 30.4 21.0178 30.7973 21.0231 31.208ZM31.9188 36.16C31.3428 36.16 30.8068 36.072 30.3108 35.896C29.8201 35.7147 29.4121 35.4347 29.0868 35.056C28.7614 34.672 28.5588 34.184 28.4788 33.592H29.8228C29.8921 33.9173 30.0254 34.1893 30.2228 34.408C30.4201 34.6213 30.6628 34.784 30.9508 34.896C31.2441 35.0027 31.5641 35.056 31.9108 35.056C32.4708 35.056 32.9214 34.952 33.2628 34.744C33.6041 34.536 33.7748 34.216 33.7748 33.784C33.7748 33.48 33.6841 33.2373 33.5028 33.056C33.3268 32.8693 33.0494 32.7333 32.6708 32.648L30.9588 32.224C30.2921 32.064 29.7588 31.8133 29.3588 31.472C28.9641 31.1307 28.7641 30.6533 28.7588 30.04C28.7588 29.5547 28.8761 29.128 29.1108 28.76C29.3454 28.392 29.6948 28.1013 30.1588 27.888C30.6281 27.6747 31.2121 27.568 31.9108 27.568C32.8121 27.568 33.5374 27.7707 34.0868 28.176C34.6361 28.576 34.9241 29.1653 34.9508 29.944H33.6388C33.5854 29.5493 33.4094 29.2373 33.1108 29.008C32.8121 28.7733 32.4068 28.656 31.8948 28.656C31.3721 28.656 30.9428 28.7627 30.6068 28.976C30.2761 29.184 30.1108 29.5093 30.1108 29.952C30.1108 30.2453 30.2281 30.4773 30.4628 30.648C30.7028 30.8133 31.0494 30.952 31.5028 31.064L33.1668 31.48C33.5454 31.5813 33.8601 31.7147 34.1108 31.88C34.3614 32.0453 34.5588 32.2293 34.7028 32.432C34.8468 32.6347 34.9481 32.848 35.0068 33.072C35.0708 33.2907 35.1028 33.5013 35.1028 33.704C35.1028 34.2107 34.9774 34.648 34.7268 35.016C34.4761 35.3787 34.1134 35.6613 33.6388 35.864C33.1641 36.0613 32.5908 36.16 31.9188 36.16ZM39.8966 36.04C39.326 36.04 38.8833 35.9627 38.5686 35.808C38.254 35.6533 38.0326 35.424 37.9046 35.12C37.782 34.816 37.7206 34.4427 37.7206 34V28.808H36.3766V27.728H37.7606L38.1206 25.32H39.2086V27.72H41.0726V28.808H39.2086V33.952C39.2086 34.2453 39.238 34.4613 39.2966 34.6C39.3606 34.7333 39.4646 34.8187 39.6086 34.856C39.7526 34.8933 39.9553 34.912 40.2166 34.912H41.1206V35.904C41.0193 35.9413 40.8646 35.9733 40.6566 36C40.454 36.0267 40.2006 36.04 39.8966 36.04ZM45.3565 36.16C44.8178 36.16 44.3432 36.0667 43.9325 35.88C43.5272 35.688 43.2072 35.4133 42.9725 35.056C42.7432 34.6987 42.6285 34.2667 42.6285 33.76C42.6285 32.8427 42.9485 32.16 43.5885 31.712C44.2285 31.264 45.2552 31.024 46.6685 30.992L48.1405 30.952V30.304C48.1405 29.7973 47.9885 29.3973 47.6845 29.104C47.3805 28.8053 46.9112 28.656 46.2765 28.656C45.8018 28.6613 45.3832 28.7733 45.0205 28.992C44.6578 29.2107 44.4258 29.568 44.3245 30.064H43.0205C43.0525 29.5253 43.2018 29.072 43.4685 28.704C43.7405 28.3307 44.1218 28.048 44.6125 27.856C45.1032 27.664 45.6818 27.568 46.3485 27.568C47.0685 27.568 47.6658 27.6693 48.1405 27.872C48.6205 28.0747 48.9778 28.3733 49.2125 28.768C49.4525 29.1627 49.5725 29.648 49.5725 30.224V36H48.3085L48.1965 34.448C47.8818 35.0933 47.4765 35.5413 46.9805 35.792C46.4898 36.0373 45.9485 36.16 45.3565 36.16ZM45.7965 35.096C46.0792 35.096 46.3565 35.0453 46.6285 34.944C46.9058 34.8427 47.1565 34.7067 47.3805 34.536C47.6098 34.36 47.7938 34.1653 47.9325 33.952C48.0712 33.7333 48.1405 33.5093 48.1405 33.28V31.864L46.9165 31.888C46.2818 31.8987 45.7538 31.9627 45.3325 32.08C44.9112 32.1973 44.5938 32.3813 44.3805 32.632C44.1672 32.8827 44.0605 33.2107 44.0605 33.616C44.0605 34.08 44.2232 34.4427 44.5485 34.704C44.8738 34.9653 45.2898 35.096 45.7965 35.096ZM54.7781 36.16C54.2021 36.16 53.6661 36.072 53.1701 35.896C52.6795 35.7147 52.2715 35.4347 51.9461 35.056C51.6208 34.672 51.4181 34.184 51.3381 33.592H52.6821C52.7515 33.9173 52.8848 34.1893 53.0821 34.408C53.2795 34.6213 53.5221 34.784 53.8101 34.896C54.1035 35.0027 54.4235 35.056 54.7701 35.056C55.3301 35.056 55.7808 34.952 56.1221 34.744C56.4635 34.536 56.6341 34.216 56.6341 33.784C56.6341 33.48 56.5435 33.2373 56.3621 33.056C56.1861 32.8693 55.9088 32.7333 55.5301 32.648L53.8181 32.224C53.1515 32.064 52.6181 31.8133 52.2181 31.472C51.8235 31.1307 51.6235 30.6533 51.6181 30.04C51.6181 29.5547 51.7355 29.128 51.9701 28.76C52.2048 28.392 52.5541 28.1013 53.0181 27.888C53.4875 27.6747 54.0715 27.568 54.7701 27.568C55.6715 27.568 56.3968 27.7707 56.9461 28.176C57.4955 28.576 57.7835 29.1653 57.8101 29.944H56.4981C56.4448 29.5493 56.2688 29.2373 55.9701 29.008C55.6715 28.7733 55.2661 28.656 54.7541 28.656C54.2315 28.656 53.8021 28.7627 53.4661 28.976C53.1355 29.184 52.9701 29.5093 52.9701 29.952C52.9701 30.2453 53.0875 30.4773 53.3221 30.648C53.5621 30.8133 53.9088 30.952 54.3621 31.064L56.0261 31.48C56.4048 31.5813 56.7195 31.7147 56.9701 31.88C57.2208 32.0453 57.4181 32.2293 57.5621 32.432C57.7061 32.6347 57.8075 32.848 57.8661 33.072C57.9301 33.2907 57.9621 33.5013 57.9621 33.704C57.9621 34.2107 57.8368 34.648 57.5861 35.016C57.3355 35.3787 56.9728 35.6613 56.4981 35.864C56.0235 36.0613 55.4501 36.16 54.7781 36.16ZM59.3679 38.008L60.2639 36.032L59.5679 35.992V34.224H61.4159V35.76L60.0559 38.008H59.3679ZM69.6401 36.104C69.1921 36.104 68.8295 36.0427 68.5521 35.92C68.2801 35.7973 68.0695 35.632 67.9201 35.424C67.7761 35.216 67.6775 34.9787 67.6241 34.712C67.5761 34.44 67.5521 34.16 67.5521 33.872V24.112H69.0081V33.728C69.0081 34.144 69.0881 34.456 69.2481 34.664C69.4135 34.872 69.6428 34.9867 69.9361 35.008L70.3841 35.016V35.976C70.2615 36.0133 70.1335 36.0427 70.0001 36.064C69.8668 36.0907 69.7468 36.104 69.6401 36.104ZM72.3578 36V27.728H73.7898V36H72.3578ZM72.3178 25.976V24.44H73.8298V25.976H72.3178ZM79.7356 38.736C78.4396 38.736 77.429 38.5467 76.7036 38.168C75.9783 37.7947 75.6156 37.2587 75.6156 36.56C75.6156 36.2613 75.685 36.008 75.8236 35.8C75.9623 35.5867 76.1276 35.4107 76.3196 35.272C76.5116 35.1333 76.6903 35.024 76.8556 34.944C77.021 34.8587 77.1303 34.7973 77.1836 34.76C77.0876 34.7067 76.973 34.64 76.8396 34.56C76.7063 34.48 76.5863 34.3733 76.4796 34.24C76.3783 34.1067 76.3276 33.9333 76.3276 33.72C76.3276 33.4587 76.4503 33.2187 76.6956 33C76.941 32.7813 77.3063 32.6187 77.7916 32.512C77.3063 32.2667 76.9276 31.9413 76.6556 31.536C76.3836 31.1307 76.2476 30.6907 76.2476 30.216C76.2476 29.6827 76.3916 29.2187 76.6796 28.824C76.9676 28.4293 77.381 28.128 77.9196 27.92C78.4583 27.7067 79.101 27.6 79.8476 27.6C80.3863 27.6 80.837 27.664 81.1996 27.792C81.5676 27.9147 81.909 28.0907 82.2236 28.32C82.309 28.2827 82.445 28.2267 82.6316 28.152C82.8183 28.072 83.021 27.9867 83.2396 27.896C83.4636 27.8053 83.6716 27.72 83.8636 27.64C84.061 27.5547 84.2183 27.4907 84.3356 27.448L84.3276 28.816L82.8796 29.088C82.965 29.2587 83.0316 29.4453 83.0796 29.648C83.1276 29.8507 83.1516 30.04 83.1516 30.216C83.1516 30.7013 83.0236 31.1413 82.7676 31.536C82.517 31.9307 82.1356 32.2453 81.6236 32.48C81.1116 32.7147 80.4716 32.832 79.7036 32.832C79.6396 32.832 79.557 32.832 79.4556 32.832C79.3596 32.8267 79.277 32.8213 79.2076 32.816C78.6423 32.832 78.253 32.896 78.0396 33.008C77.8316 33.1147 77.7276 33.2347 77.7276 33.368C77.7276 33.5227 77.8476 33.6293 78.0876 33.688C78.3276 33.7467 78.733 33.7973 79.3036 33.84C79.5116 33.8507 79.7676 33.864 80.0716 33.88C80.381 33.896 80.725 33.9173 81.1036 33.944C81.9676 33.9973 82.6343 34.2187 83.1036 34.608C83.573 34.9973 83.8076 35.5227 83.8076 36.184C83.8076 36.936 83.4716 37.5493 82.7996 38.024C82.133 38.4987 81.1116 38.736 79.7356 38.736ZM79.9996 37.784C80.7623 37.784 81.3463 37.6693 81.7516 37.44C82.1623 37.2107 82.3676 36.864 82.3676 36.4C82.3676 36.0693 82.2423 35.8 81.9916 35.592C81.741 35.3787 81.3623 35.256 80.8556 35.224L78.5356 35.072C78.3276 35.0613 78.1116 35.1147 77.8876 35.232C77.6636 35.344 77.4743 35.5013 77.3196 35.704C77.165 35.9067 77.0876 36.136 77.0876 36.392C77.0876 36.8293 77.325 37.1707 77.7996 37.416C78.2743 37.6613 79.0076 37.784 79.9996 37.784ZM79.7516 31.88C80.3436 31.88 80.821 31.7413 81.1836 31.464C81.5516 31.1867 81.7356 30.776 81.7356 30.232C81.7356 29.672 81.5516 29.2453 81.1836 28.952C80.821 28.6587 80.3436 28.512 79.7516 28.512C79.1436 28.512 78.653 28.6613 78.2796 28.96C77.9116 29.2533 77.7276 29.6773 77.7276 30.232C77.7276 30.7547 77.9036 31.16 78.2556 31.448C78.613 31.736 79.1116 31.88 79.7516 31.88ZM88.9984 36.16C88.5664 36.1547 88.1584 36.0933 87.7744 35.976C87.3957 35.8533 87.0597 35.6747 86.7664 35.44C86.473 35.2053 86.241 34.9147 86.0704 34.568C85.905 34.216 85.8224 33.808 85.8224 33.344V27.728H87.3024V33.192C87.3024 33.7307 87.4677 34.168 87.7984 34.504C88.1344 34.84 88.6384 35.008 89.3104 35.008C89.9184 35.008 90.4064 34.8507 90.7744 34.536C91.1477 34.216 91.3344 33.7413 91.3344 33.112V27.728H92.8064V36H91.6304L91.4784 34.416C91.377 34.832 91.2037 35.168 90.9584 35.424C90.7184 35.68 90.4277 35.8693 90.0864 35.992C89.7504 36.1093 89.3877 36.1653 88.9984 36.16ZM97.4214 36.104C96.9734 36.104 96.6107 36.0427 96.3334 35.92C96.0614 35.7973 95.8507 35.632 95.7014 35.424C95.5574 35.216 95.4587 34.9787 95.4054 34.712C95.3574 34.44 95.3334 34.16 95.3334 33.872V24.112H96.7894V33.728C96.7894 34.144 96.8694 34.456 97.0294 34.664C97.1947 34.872 97.424 34.9867 97.7174 35.008L98.1654 35.016V35.976C98.0427 36.0133 97.9147 36.0427 97.7814 36.064C97.648 36.0907 97.528 36.104 97.4214 36.104ZM102.419 36.16C101.88 36.16 101.406 36.0667 100.995 35.88C100.59 35.688 100.27 35.4133 100.035 35.056C99.8057 34.6987 99.691 34.2667 99.691 33.76C99.691 32.8427 100.011 32.16 100.651 31.712C101.291 31.264 102.318 31.024 103.731 30.992L105.203 30.952V30.304C105.203 29.7973 105.051 29.3973 104.747 29.104C104.443 28.8053 103.974 28.656 103.339 28.656C102.864 28.6613 102.446 28.7733 102.083 28.992C101.72 29.2107 101.488 29.568 101.387 30.064H100.083C100.115 29.5253 100.264 29.072 100.531 28.704C100.803 28.3307 101.184 28.048 101.675 27.856C102.166 27.664 102.744 27.568 103.411 27.568C104.131 27.568 104.728 27.6693 105.203 27.872C105.683 28.0747 106.04 28.3733 106.275 28.768C106.515 29.1627 106.635 29.648 106.635 30.224V36H105.371L105.259 34.448C104.944 35.0933 104.539 35.5413 104.043 35.792C103.552 36.0373 103.011 36.16 102.419 36.16ZM102.859 35.096C103.142 35.096 103.419 35.0453 103.691 34.944C103.968 34.8427 104.219 34.7067 104.443 34.536C104.672 34.36 104.856 34.1653 104.995 33.952C105.134 33.7333 105.203 33.5093 105.203 33.28V31.864L103.979 31.888C103.344 31.8987 102.816 31.9627 102.395 32.08C101.974 32.1973 101.656 32.3813 101.443 32.632C101.23 32.8827 101.123 33.2107 101.123 33.616C101.123 34.08 101.286 34.4427 101.611 34.704C101.936 34.9653 102.352 35.096 102.859 35.096ZM115.646 36.16C114.569 36.16 113.716 35.792 113.086 35.056C112.462 34.32 112.15 33.2453 112.15 31.832C112.15 30.9733 112.276 30.224 112.526 29.584C112.777 28.944 113.153 28.448 113.654 28.096C114.156 27.744 114.78 27.568 115.526 27.568C115.926 27.568 116.278 27.6187 116.582 27.72C116.886 27.8213 117.15 27.9493 117.374 28.104C117.598 28.2587 117.78 28.4187 117.918 28.584C118.062 28.7493 118.169 28.9013 118.238 29.04V24.112H119.734V36H118.598L118.438 34.304C118.385 34.464 118.3 34.6507 118.182 34.864C118.065 35.072 117.9 35.2773 117.686 35.48C117.478 35.6773 117.206 35.84 116.87 35.968C116.534 36.096 116.126 36.16 115.646 36.16ZM115.91 35.024C116.742 35.024 117.337 34.7707 117.694 34.264C118.057 33.752 118.238 32.9173 118.238 31.76C118.233 31.1147 118.153 30.5653 117.998 30.112C117.844 29.6587 117.598 29.3147 117.262 29.08C116.932 28.84 116.489 28.72 115.934 28.72C115.257 28.72 114.705 28.9627 114.278 29.448C113.852 29.9333 113.638 30.704 113.638 31.76C113.638 32.7947 113.83 33.5973 114.214 34.168C114.598 34.7387 115.164 35.024 115.91 35.024ZM122.311 36V27.728H123.743V36H122.311ZM122.271 25.976V24.44H123.783V25.976H122.271ZM128.544 36.16C128.005 36.16 127.531 36.0667 127.12 35.88C126.715 35.688 126.395 35.4133 126.16 35.056C125.931 34.6987 125.816 34.2667 125.816 33.76C125.816 32.8427 126.136 32.16 126.776 31.712C127.416 31.264 128.443 31.024 129.856 30.992L131.328 30.952V30.304C131.328 29.7973 131.176 29.3973 130.872 29.104C130.568 28.8053 130.099 28.656 129.464 28.656C128.989 28.6613 128.571 28.7733 128.208 28.992C127.845 29.2107 127.613 29.568 127.512 30.064H126.208C126.24 29.5253 126.389 29.072 126.656 28.704C126.928 28.3307 127.309 28.048 127.8 27.856C128.291 27.664 128.869 27.568 129.536 27.568C130.256 27.568 130.853 27.6693 131.328 27.872C131.808 28.0747 132.165 28.3733 132.4 28.768C132.64 29.1627 132.76 29.648 132.76 30.224V36H131.496L131.384 34.448C131.069 35.0933 130.664 35.5413 130.168 35.792C129.677 36.0373 129.136 36.16 128.544 36.16ZM128.984 35.096C129.267 35.096 129.544 35.0453 129.816 34.944C130.093 34.8427 130.344 34.7067 130.568 34.536C130.797 34.36 130.981 34.1653 131.12 33.952C131.259 33.7333 131.328 33.5093 131.328 33.28V31.864L130.104 31.888C129.469 31.8987 128.941 31.9627 128.52 32.08C128.099 32.1973 127.781 32.3813 127.568 32.632C127.355 32.8827 127.248 33.2107 127.248 33.616C127.248 34.08 127.411 34.4427 127.736 34.704C128.061 34.9653 128.477 35.096 128.984 35.096ZM135.068 36V27.728H136.492V28.928C136.721 28.5653 137.036 28.248 137.436 27.976C137.836 27.704 138.356 27.568 138.996 27.568C139.294 27.568 139.598 27.6187 139.908 27.72C140.222 27.8213 140.51 27.9733 140.772 28.176C141.033 28.3787 141.236 28.6267 141.38 28.92C141.636 28.5147 141.982 28.1893 142.42 27.944C142.857 27.6933 143.35 27.568 143.9 27.568C144.188 27.568 144.489 27.6133 144.804 27.704C145.118 27.7893 145.409 27.944 145.676 28.168C145.948 28.3867 146.169 28.6933 146.34 29.088C146.51 29.4773 146.596 29.9787 146.596 30.592V36H145.108V30.736C145.108 30.2347 145.028 29.848 144.868 29.576C144.708 29.2987 144.497 29.104 144.236 28.992C143.98 28.88 143.705 28.824 143.412 28.824C143.156 28.824 142.884 28.8747 142.596 28.976C142.308 29.0773 142.062 29.248 141.86 29.488C141.657 29.728 141.556 30.056 141.556 30.472V36H140.084V30.304C140.084 29.9787 139.996 29.7067 139.82 29.488C139.649 29.2693 139.433 29.104 139.172 28.992C138.916 28.88 138.66 28.824 138.404 28.824C138.121 28.824 137.836 28.88 137.548 28.992C137.265 29.104 137.025 29.2827 136.828 29.528C136.636 29.768 136.54 30.0827 136.54 30.472V36H135.068ZM152.802 36V27.728H154.226V28.928C154.455 28.5653 154.77 28.248 155.17 27.976C155.57 27.704 156.09 27.568 156.73 27.568C157.029 27.568 157.333 27.6187 157.642 27.72C157.957 27.8213 158.245 27.9733 158.506 28.176C158.767 28.3787 158.97 28.6267 159.114 28.92C159.37 28.5147 159.717 28.1893 160.154 27.944C160.591 27.6933 161.085 27.568 161.634 27.568C161.922 27.568 162.223 27.6133 162.538 27.704C162.853 27.7893 163.143 27.944 163.41 28.168C163.682 28.3867 163.903 28.6933 164.074 29.088C164.245 29.4773 164.33 29.9787 164.33 30.592V36H162.842V30.736C162.842 30.2347 162.762 29.848 162.602 29.576C162.442 29.2987 162.231 29.104 161.97 28.992C161.714 28.88 161.439 28.824 161.146 28.824C160.89 28.824 160.618 28.8747 160.33 28.976C160.042 29.0773 159.797 29.248 159.594 29.488C159.391 29.728 159.29 30.056 159.29 30.472V36H157.818V30.304C157.818 29.9787 157.73 29.7067 157.554 29.488C157.383 29.2693 157.167 29.104 156.906 28.992C156.65 28.88 156.394 28.824 156.138 28.824C155.855 28.824 155.57 28.88 155.282 28.992C154.999 29.104 154.759 29.2827 154.562 29.528C154.37 29.768 154.274 30.0827 154.274 30.472V36H152.802ZM169.958 36.16C169.195 36.16 168.529 35.9973 167.958 35.672C167.393 35.3413 166.953 34.8587 166.638 34.224C166.323 33.5893 166.166 32.8133 166.166 31.896C166.166 31.032 166.313 30.2747 166.606 29.624C166.899 28.9733 167.329 28.4693 167.894 28.112C168.459 27.7493 169.15 27.568 169.966 27.568C170.729 27.568 171.39 27.736 171.95 28.072C172.51 28.4027 172.945 28.8907 173.254 29.536C173.569 30.1813 173.726 30.968 173.726 31.896C173.726 32.7387 173.582 33.48 173.294 34.12C173.006 34.76 172.582 35.2613 172.022 35.624C171.467 35.9813 170.779 36.16 169.958 36.16ZM169.966 34.992C170.457 34.992 170.873 34.8667 171.214 34.616C171.555 34.3653 171.814 34.0053 171.99 33.536C172.171 33.0667 172.262 32.5093 172.262 31.864C172.262 31.272 172.182 30.7413 172.022 30.272C171.867 29.7973 171.622 29.4213 171.286 29.144C170.95 28.8667 170.51 28.728 169.966 28.728C169.465 28.728 169.041 28.8533 168.694 29.104C168.347 29.3493 168.083 29.7067 167.902 30.176C167.726 30.6453 167.638 31.208 167.638 31.864C167.638 32.4453 167.715 32.9733 167.87 33.448C168.03 33.9227 168.281 34.2987 168.622 34.576C168.969 34.8533 169.417 34.992 169.966 34.992ZM177.781 36.104C177.333 36.104 176.97 36.0427 176.693 35.92C176.421 35.7973 176.21 35.632 176.061 35.424C175.917 35.216 175.818 34.9787 175.765 34.712C175.717 34.44 175.693 34.16 175.693 33.872V24.112H177.149V33.728C177.149 34.144 177.229 34.456 177.389 34.664C177.554 34.872 177.783 34.9867 178.077 35.008L178.525 35.016V35.976C178.402 36.0133 178.274 36.0427 178.141 36.064C178.007 36.0907 177.887 36.104 177.781 36.104ZM183.642 36.16C182.874 36.16 182.197 35.992 181.61 35.656C181.023 35.32 180.565 34.8373 180.234 34.208C179.903 33.5787 179.738 32.824 179.738 31.944C179.738 31.0747 179.887 30.312 180.186 29.656C180.485 29 180.917 28.488 181.482 28.12C182.053 27.752 182.738 27.568 183.538 27.568C184.317 27.568 184.975 27.736 185.514 28.072C186.053 28.408 186.461 28.8827 186.738 29.496C187.021 30.104 187.162 30.8267 187.162 31.664V32.208H181.234C181.234 32.7307 181.319 33.2053 181.49 33.632C181.666 34.0533 181.93 34.3893 182.282 34.64C182.634 34.8907 183.079 35.016 183.618 35.016C184.146 35.016 184.599 34.8933 184.978 34.648C185.362 34.4027 185.607 34.048 185.714 33.584H187.106C187.01 34.144 186.786 34.616 186.434 35C186.087 35.384 185.669 35.6747 185.178 35.872C184.693 36.064 184.181 36.16 183.642 36.16ZM181.242 31.208H185.738C185.738 30.7333 185.658 30.3067 185.498 29.928C185.338 29.544 185.093 29.2427 184.762 29.024C184.437 28.8 184.026 28.688 183.53 28.688C183.013 28.688 182.583 28.8133 182.242 29.064C181.901 29.3093 181.647 29.6267 181.482 30.016C181.317 30.4 181.237 30.7973 181.242 31.208ZM192.138 36.16C191.562 36.16 191.026 36.072 190.53 35.896C190.039 35.7147 189.631 35.4347 189.306 35.056C188.98 34.672 188.778 34.184 188.698 33.592H190.042C190.111 33.9173 190.244 34.1893 190.442 34.408C190.639 34.6213 190.882 34.784 191.17 34.896C191.463 35.0027 191.783 35.056 192.13 35.056C192.69 35.056 193.14 34.952 193.482 34.744C193.823 34.536 193.994 34.216 193.994 33.784C193.994 33.48 193.903 33.2373 193.722 33.056C193.546 32.8693 193.268 32.7333 192.89 32.648L191.178 32.224C190.511 32.064 189.978 31.8133 189.578 31.472C189.183 31.1307 188.983 30.6533 188.978 30.04C188.978 29.5547 189.095 29.128 189.33 28.76C189.564 28.392 189.914 28.1013 190.378 27.888C190.847 27.6747 191.431 27.568 192.13 27.568C193.031 27.568 193.756 27.7707 194.306 28.176C194.855 28.576 195.143 29.1653 195.17 29.944H193.858C193.804 29.5493 193.628 29.2373 193.33 29.008C193.031 28.7733 192.626 28.656 192.114 28.656C191.591 28.656 191.162 28.7627 190.826 28.976C190.495 29.184 190.33 29.5093 190.33 29.952C190.33 30.2453 190.447 30.4773 190.682 30.648C190.922 30.8133 191.268 30.952 191.722 31.064L193.386 31.48C193.764 31.5813 194.079 31.7147 194.33 31.88C194.58 32.0453 194.778 32.2293 194.922 32.432C195.066 32.6347 195.167 32.848 195.226 33.072C195.29 33.2907 195.322 33.5013 195.322 33.704C195.322 34.2107 195.196 34.648 194.946 35.016C194.695 35.3787 194.332 35.6613 193.858 35.864C193.383 36.0613 192.81 36.16 192.138 36.16ZM200.115 36.04C199.545 36.04 199.102 35.9627 198.787 35.808C198.473 35.6533 198.251 35.424 198.123 35.12C198.001 34.816 197.939 34.4427 197.939 34V28.808H196.595V27.728H197.979L198.339 25.32H199.427V27.72H201.291V28.808H199.427V33.952C199.427 34.2453 199.457 34.4613 199.515 34.6C199.579 34.7333 199.683 34.8187 199.827 34.856C199.971 34.8933 200.174 34.912 200.435 34.912H201.339V35.904C201.238 35.9413 201.083 35.9733 200.875 36C200.673 36.0267 200.419 36.04 200.115 36.04ZM203.342 36V27.728H204.774V36H203.342ZM203.302 25.976V24.44H204.814V25.976H203.302ZM210.751 36.16C209.983 36.16 209.306 35.992 208.719 35.656C208.133 35.32 207.674 34.8373 207.343 34.208C207.013 33.5787 206.847 32.824 206.847 31.944C206.847 31.0747 206.997 30.312 207.295 29.656C207.594 29 208.026 28.488 208.591 28.12C209.162 27.752 209.847 27.568 210.647 27.568C211.426 27.568 212.085 27.736 212.623 28.072C213.162 28.408 213.57 28.8827 213.847 29.496C214.13 30.104 214.271 30.8267 214.271 31.664V32.208H208.343C208.343 32.7307 208.429 33.2053 208.599 33.632C208.775 34.0533 209.039 34.3893 209.391 34.64C209.743 34.8907 210.189 35.016 210.727 35.016C211.255 35.016 211.709 34.8933 212.087 34.648C212.471 34.4027 212.717 34.048 212.823 33.584H214.215C214.119 34.144 213.895 34.616 213.543 35C213.197 35.384 212.778 35.6747 212.287 35.872C211.802 36.064 211.29 36.16 210.751 36.16ZM208.351 31.208H212.847C212.847 30.7333 212.767 30.3067 212.607 29.928C212.447 29.544 212.202 29.2427 211.871 29.024C211.546 28.8 211.135 28.688 210.639 28.688C210.122 28.688 209.693 28.8133 209.351 29.064C209.01 29.3093 208.757 29.6267 208.591 30.016C208.426 30.4 208.346 30.7973 208.351 31.208ZM222.203 36.104C221.755 36.104 221.392 36.0427 221.115 35.92C220.843 35.7973 220.632 35.632 220.483 35.424C220.339 35.216 220.24 34.9787 220.187 34.712C220.139 34.44 220.115 34.16 220.115 33.872V24.112H221.571V33.728C221.571 34.144 221.651 34.456 221.811 34.664C221.976 34.872 222.205 34.9867 222.499 35.008L222.947 35.016V35.976C222.824 36.0133 222.696 36.0427 222.563 36.064C222.429 36.0907 222.309 36.104 222.203 36.104ZM228.064 36.16C227.296 36.16 226.618 35.992 226.032 35.656C225.445 35.32 224.986 34.8373 224.656 34.208C224.325 33.5787 224.16 32.824 224.16 31.944C224.16 31.0747 224.309 30.312 224.608 29.656C224.906 29 225.338 28.488 225.904 28.12C226.474 27.752 227.16 27.568 227.96 27.568C228.738 27.568 229.397 27.736 229.936 28.072C230.474 28.408 230.882 28.8827 231.16 29.496C231.442 30.104 231.584 30.8267 231.584 31.664V32.208H225.656C225.656 32.7307 225.741 33.2053 225.912 33.632C226.088 34.0533 226.352 34.3893 226.704 34.64C227.056 34.8907 227.501 35.016 228.04 35.016C228.568 35.016 229.021 34.8933 229.4 34.648C229.784 34.4027 230.029 34.048 230.136 33.584H231.528C231.432 34.144 231.208 34.616 230.856 35C230.509 35.384 230.09 35.6747 229.6 35.872C229.114 36.064 228.602 36.16 228.064 36.16ZM225.664 31.208H230.16C230.16 30.7333 230.08 30.3067 229.92 29.928C229.76 29.544 229.514 29.2427 229.184 29.024C228.858 28.8 228.448 28.688 227.952 28.688C227.434 28.688 227.005 28.8133 226.664 29.064C226.322 29.3093 226.069 29.6267 225.904 30.016C225.738 30.4 225.658 30.7973 225.664 31.208ZM236.958 36.16C236.212 36.16 235.55 35.9973 234.974 35.672C234.404 35.3467 233.956 34.8667 233.63 34.232C233.31 33.5973 233.15 32.8187 233.15 31.896C233.15 31.032 233.297 30.2773 233.59 29.632C233.889 28.9813 234.321 28.4747 234.886 28.112C235.457 27.7493 236.148 27.568 236.958 27.568C237.55 27.568 238.081 27.6827 238.55 27.912C239.025 28.136 239.414 28.456 239.718 28.872C240.022 29.288 240.209 29.7787 240.278 30.344H238.966C238.918 30.056 238.806 29.792 238.63 29.552C238.46 29.312 238.233 29.12 237.95 28.976C237.673 28.832 237.345 28.76 236.966 28.76C236.257 28.76 235.678 29.016 235.23 29.528C234.788 30.04 234.566 30.824 234.566 31.88C234.566 32.8347 234.769 33.6 235.174 34.176C235.585 34.7467 236.188 35.032 236.982 35.032C237.361 35.032 237.692 34.96 237.974 34.816C238.257 34.6667 238.484 34.472 238.654 34.232C238.825 33.9867 238.934 33.7253 238.982 33.448H240.27C240.201 34.0027 240.012 34.4827 239.702 34.888C239.398 35.2933 239.009 35.608 238.534 35.832C238.065 36.0507 237.54 36.16 236.958 36.16ZM244.99 36.04C244.42 36.04 243.977 35.9627 243.662 35.808C243.348 35.6533 243.126 35.424 242.998 35.12C242.876 34.816 242.814 34.4427 242.814 34V28.808H241.47V27.728H242.854L243.214 25.32H244.302V27.72H246.166V28.808H244.302V33.952C244.302 34.2453 244.332 34.4613 244.39 34.6C244.454 34.7333 244.558 34.8187 244.702 34.856C244.846 34.8933 245.049 34.912 245.31 34.912H246.214V35.904C246.113 35.9413 245.958 35.9733 245.75 36C245.548 36.0267 245.294 36.04 244.99 36.04ZM251.139 36.16C250.707 36.1547 250.299 36.0933 249.915 35.976C249.536 35.8533 249.2 35.6747 248.907 35.44C248.614 35.2053 248.382 34.9147 248.211 34.568C248.046 34.216 247.963 33.808 247.963 33.344V27.728H249.443V33.192C249.443 33.7307 249.608 34.168 249.939 34.504C250.275 34.84 250.779 35.008 251.451 35.008C252.059 35.008 252.547 34.8507 252.915 34.536C253.288 34.216 253.475 33.7413 253.475 33.112V27.728H254.947V36H253.771L253.619 34.416C253.518 34.832 253.344 35.168 253.099 35.424C252.859 35.68 252.568 35.8693 252.227 35.992C251.891 36.1093 251.528 36.1653 251.139 36.16ZM260.356 36.16C259.78 36.16 259.244 36.072 258.748 35.896C258.258 35.7147 257.85 35.4347 257.524 35.056C257.199 34.672 256.996 34.184 256.916 33.592H258.26C258.33 33.9173 258.463 34.1893 258.66 34.408C258.858 34.6213 259.1 34.784 259.388 34.896C259.682 35.0027 260.002 35.056 260.348 35.056C260.908 35.056 261.359 34.952 261.7 34.744C262.042 34.536 262.212 34.216 262.212 33.784C262.212 33.48 262.122 33.2373 261.94 33.056C261.764 32.8693 261.487 32.7333 261.108 32.648L259.396 32.224C258.73 32.064 258.196 31.8133 257.796 31.472C257.402 31.1307 257.202 30.6533 257.196 30.04C257.196 29.5547 257.314 29.128 257.548 28.76C257.783 28.392 258.132 28.1013 258.596 27.888C259.066 27.6747 259.65 27.568 260.348 27.568C261.25 27.568 261.975 27.7707 262.524 28.176C263.074 28.576 263.362 29.1653 263.388 29.944H262.076C262.023 29.5493 261.847 29.2373 261.548 29.008C261.25 28.7733 260.844 28.656 260.332 28.656C259.81 28.656 259.38 28.7627 259.044 28.976C258.714 29.184 258.548 29.5093 258.548 29.952C258.548 30.2453 258.666 30.4773 258.9 30.648C259.14 30.8133 259.487 30.952 259.94 31.064L261.604 31.48C261.983 31.5813 262.298 31.7147 262.548 31.88C262.799 32.0453 262.996 32.2293 263.14 32.432C263.284 32.6347 263.386 32.848 263.444 33.072C263.508 33.2907 263.54 33.5013 263.54 33.704C263.54 34.2107 263.415 34.648 263.164 35.016C262.914 35.3787 262.551 35.6613 262.076 35.864C261.602 36.0613 261.028 36.16 260.356 36.16ZM264.946 38.008L265.842 36.032L265.146 35.992V34.224H266.994V35.76L265.634 38.008H264.946ZM276.162 36.04C275.592 36.04 275.149 35.9627 274.834 35.808C274.52 35.6533 274.298 35.424 274.17 35.12C274.048 34.816 273.986 34.4427 273.986 34V28.808H272.642V27.728H274.026L274.386 25.32H275.474V27.72H277.338V28.808H275.474V33.952C275.474 34.2453 275.504 34.4613 275.562 34.6C275.626 34.7333 275.73 34.8187 275.874 34.856C276.018 34.8933 276.221 34.912 276.482 34.912H277.386V35.904C277.285 35.9413 277.13 35.9733 276.922 36C276.72 36.0267 276.466 36.04 276.162 36.04ZM279.389 36V27.728H280.821V36H279.389ZM279.349 25.976V24.44H280.861V25.976H279.349ZM283.396 36V27.728H284.828V28.928C284.961 28.6987 285.145 28.4827 285.38 28.28C285.62 28.0773 285.908 27.9147 286.244 27.792C286.585 27.6693 286.977 27.608 287.42 27.608C287.943 27.608 288.423 27.712 288.86 27.92C289.303 28.128 289.655 28.4533 289.916 28.896C290.183 29.3333 290.316 29.8987 290.316 30.592V36H288.836V30.736C288.836 30.0907 288.665 29.6133 288.324 29.304C287.988 28.9893 287.551 28.832 287.012 28.832C286.639 28.832 286.289 28.8933 285.964 29.016C285.639 29.1333 285.375 29.3147 285.172 29.56C284.969 29.8 284.868 30.104 284.868 30.472V36H283.396ZM295.958 36.16C295.212 36.16 294.55 35.9973 293.974 35.672C293.404 35.3467 292.956 34.8667 292.63 34.232C292.31 33.5973 292.15 32.8187 292.15 31.896C292.15 31.032 292.297 30.2773 292.59 29.632C292.889 28.9813 293.321 28.4747 293.886 28.112C294.457 27.7493 295.148 27.568 295.958 27.568C296.55 27.568 297.081 27.6827 297.55 27.912C298.025 28.136 298.414 28.456 298.718 28.872C299.022 29.288 299.209 29.7787 299.278 30.344H297.966C297.918 30.056 297.806 29.792 297.63 29.552C297.46 29.312 297.233 29.12 296.95 28.976C296.673 28.832 296.345 28.76 295.966 28.76C295.257 28.76 294.678 29.016 294.23 29.528C293.788 30.04 293.566 30.824 293.566 31.88C293.566 32.8347 293.769 33.6 294.174 34.176C294.585 34.7467 295.188 35.032 295.982 35.032C296.361 35.032 296.692 34.96 296.974 34.816C297.257 34.6667 297.484 34.472 297.654 34.232C297.825 33.9867 297.934 33.7253 297.982 33.448H299.27C299.201 34.0027 299.012 34.4827 298.702 34.888C298.398 35.2933 298.009 35.608 297.534 35.832C297.065 36.0507 296.54 36.16 295.958 36.16ZM301.28 36V27.728H302.712V36H301.28ZM301.24 25.976V24.44H302.752V25.976H301.24ZM308.209 36.16C307.131 36.16 306.278 35.792 305.649 35.056C305.025 34.32 304.713 33.2453 304.713 31.832C304.713 30.9733 304.838 30.224 305.089 29.584C305.339 28.944 305.715 28.448 306.217 28.096C306.718 27.744 307.342 27.568 308.089 27.568C308.489 27.568 308.841 27.6187 309.145 27.72C309.449 27.8213 309.713 27.9493 309.937 28.104C310.161 28.2587 310.342 28.4187 310.481 28.584C310.625 28.7493 310.731 28.9013 310.801 29.04V24.112H312.297V36H311.161L311.001 34.304C310.947 34.464 310.862 34.6507 310.745 34.864C310.627 35.072 310.462 35.2773 310.249 35.48C310.041 35.6773 309.769 35.84 309.433 35.968C309.097 36.096 308.689 36.16 308.209 36.16ZM308.473 35.024C309.305 35.024 309.899 34.7707 310.257 34.264C310.619 33.752 310.801 32.9173 310.801 31.76C310.795 31.1147 310.715 30.5653 310.561 30.112C310.406 29.6587 310.161 29.3147 309.825 29.08C309.494 28.84 309.051 28.72 308.497 28.72C307.819 28.72 307.267 28.9627 306.841 29.448C306.414 29.9333 306.201 30.704 306.201 31.76C306.201 32.7947 306.393 33.5973 306.777 34.168C307.161 34.7387 307.726 35.024 308.473 35.024ZM317.78 36.16C317.348 36.1547 316.94 36.0933 316.556 35.976C316.177 35.8533 315.841 35.6747 315.548 35.44C315.254 35.2053 315.022 34.9147 314.852 34.568C314.686 34.216 314.604 33.808 314.604 33.344V27.728H316.084V33.192C316.084 33.7307 316.249 34.168 316.58 34.504C316.916 34.84 317.42 35.008 318.092 35.008C318.7 35.008 319.188 34.8507 319.556 34.536C319.929 34.216 320.116 33.7413 320.116 33.112V27.728H321.588V36H320.412L320.26 34.416C320.158 34.832 319.985 35.168 319.74 35.424C319.5 35.68 319.209 35.8693 318.868 35.992C318.532 36.1093 318.169 36.1653 317.78 36.16ZM324.115 36V27.728H325.547V28.928C325.68 28.6987 325.864 28.4827 326.099 28.28C326.339 28.0773 326.627 27.9147 326.963 27.792C327.304 27.6693 327.696 27.608 328.139 27.608C328.661 27.608 329.141 27.712 329.579 27.92C330.021 28.128 330.373 28.4533 330.635 28.896C330.901 29.3333 331.035 29.8987 331.035 30.592V36H329.555V30.736C329.555 30.0907 329.384 29.6133 329.043 29.304C328.707 28.9893 328.269 28.832 327.731 28.832C327.357 28.832 327.008 28.8933 326.683 29.016C326.357 29.1333 326.093 29.3147 325.891 29.56C325.688 29.8 325.587 30.104 325.587 30.472V36H324.115ZM336.037 36.04C335.467 36.04 335.024 35.9627 334.709 35.808C334.395 35.6533 334.173 35.424 334.045 35.12C333.923 34.816 333.861 34.4427 333.861 34V28.808H332.517V27.728H333.901L334.261 25.32H335.349V27.72H337.213V28.808H335.349V33.952C335.349 34.2453 335.379 34.4613 335.437 34.6C335.501 34.7333 335.605 34.8187 335.749 34.856C335.893 34.8933 336.096 34.912 336.357 34.912H337.261V35.904C337.16 35.9413 337.005 35.9733 336.797 36C336.595 36.0267 336.341 36.04 336.037 36.04ZM1.224 60V51.728H2.648V52.928C2.87733 52.5653 3.192 52.248 3.592 51.976C3.992 51.704 4.512 51.568 5.152 51.568C5.45067 51.568 5.75467 51.6187 6.064 51.72C6.37867 51.8213 6.66667 51.9733 6.928 52.176C7.18933 52.3787 7.392 52.6267 7.536 52.92C7.792 52.5147 8.13867 52.1893 8.576 51.944C9.01333 51.6933 9.50667 51.568 10.056 51.568C10.344 51.568 10.6453 51.6133 10.96 51.704C11.2747 51.7893 11.5653 51.944 11.832 52.168C12.104 52.3867 12.3253 52.6933 12.496 53.088C12.6667 53.4773 12.752 53.9787 12.752 54.592V60H11.264V54.736C11.264 54.2347 11.184 53.848 11.024 53.576C10.864 53.2987 10.6533 53.104 10.392 52.992C10.136 52.88 9.86133 52.824 9.568 52.824C9.312 52.824 9.04 52.8747 8.752 52.976C8.464 53.0773 8.21867 53.248 8.016 53.488C7.81333 53.728 7.712 54.056 7.712 54.472V60H6.24V54.304C6.24 53.9787 6.152 53.7067 5.976 53.488C5.80533 53.2693 5.58933 53.104 5.328 52.992C5.072 52.88 4.816 52.824 4.56 52.824C4.27733 52.824 3.992 52.88 3.704 52.992C3.42133 53.104 3.18133 53.2827 2.984 53.528C2.792 53.768 2.696 54.0827 2.696 54.472V60H1.224ZM17.3565 60.16C16.8178 60.16 16.3432 60.0667 15.9325 59.88C15.5272 59.688 15.2072 59.4133 14.9725 59.056C14.7432 58.6987 14.6285 58.2667 14.6285 57.76C14.6285 56.8427 14.9485 56.16 15.5885 55.712C16.2285 55.264 17.2552 55.024 18.6685 54.992L20.1405 54.952V54.304C20.1405 53.7973 19.9885 53.3973 19.6845 53.104C19.3805 52.8053 18.9112 52.656 18.2765 52.656C17.8018 52.6613 17.3832 52.7733 17.0205 52.992C16.6578 53.2107 16.4258 53.568 16.3245 54.064H15.0205C15.0525 53.5253 15.2018 53.072 15.4685 52.704C15.7405 52.3307 16.1218 52.048 16.6125 51.856C17.1032 51.664 17.6818 51.568 18.3485 51.568C19.0685 51.568 19.6658 51.6693 20.1405 51.872C20.6205 52.0747 20.9778 52.3733 21.2125 52.768C21.4525 53.1627 21.5725 53.648 21.5725 54.224V60H20.3085L20.1965 58.448C19.8818 59.0933 19.4765 59.5413 18.9805 59.792C18.4898 60.0373 17.9485 60.16 17.3565 60.16ZM17.7965 59.096C18.0792 59.096 18.3565 59.0453 18.6285 58.944C18.9058 58.8427 19.1565 58.7067 19.3805 58.536C19.6098 58.36 19.7938 58.1653 19.9325 57.952C20.0712 57.7333 20.1405 57.5093 20.1405 57.28V55.864L18.9165 55.888C18.2818 55.8987 17.7538 55.9627 17.3325 56.08C16.9112 56.1973 16.5938 56.3813 16.3805 56.632C16.1672 56.8827 16.0605 57.2107 16.0605 57.616C16.0605 58.08 16.2232 58.4427 16.5485 58.704C16.8738 58.9653 17.2898 59.096 17.7965 59.096ZM25.9683 60.104C25.5203 60.104 25.1576 60.0427 24.8803 59.92C24.6083 59.7973 24.3976 59.632 24.2483 59.424C24.1043 59.216 24.0056 58.9787 23.9523 58.712C23.9043 58.44 23.8803 58.16 23.8803 57.872V48.112H25.3363V57.728C25.3363 58.144 25.4163 58.456 25.5763 58.664C25.7416 58.872 25.9709 58.9867 26.2643 59.008L26.7123 59.016V59.976C26.5896 60.0133 26.4616 60.0427 26.3283 60.064C26.1949 60.0907 26.0749 60.104 25.9683 60.104ZM31.8294 60.16C31.0614 60.16 30.384 59.992 29.7974 59.656C29.2107 59.32 28.752 58.8373 28.4214 58.208C28.0907 57.5787 27.9254 56.824 27.9254 55.944C27.9254 55.0747 28.0747 54.312 28.3734 53.656C28.672 53 29.104 52.488 29.6694 52.12C30.24 51.752 30.9254 51.568 31.7254 51.568C32.504 51.568 33.1627 51.736 33.7014 52.072C34.24 52.408 34.648 52.8827 34.9254 53.496C35.208 54.104 35.3494 54.8267 35.3494 55.664V56.208H29.4214C29.4214 56.7307 29.5067 57.2053 29.6774 57.632C29.8534 58.0533 30.1174 58.3893 30.4694 58.64C30.8214 58.8907 31.2667 59.016 31.8054 59.016C32.3334 59.016 32.7867 58.8933 33.1654 58.648C33.5494 58.4027 33.7947 58.048 33.9014 57.584H35.2934C35.1974 58.144 34.9734 58.616 34.6214 59C34.2747 59.384 33.856 59.6747 33.3654 59.872C32.88 60.064 32.368 60.16 31.8294 60.16ZM29.4294 55.208H33.9254C33.9254 54.7333 33.8454 54.3067 33.6854 53.928C33.5254 53.544 33.28 53.2427 32.9494 53.024C32.624 52.8 32.2134 52.688 31.7174 52.688C31.2 52.688 30.7707 52.8133 30.4294 53.064C30.088 53.3093 29.8347 53.6267 29.6694 54.016C29.504 54.4 29.424 54.7973 29.4294 55.208ZM40.325 60.16C39.749 60.16 39.213 60.072 38.717 59.896C38.2263 59.7147 37.8183 59.4347 37.493 59.056C37.1677 58.672 36.965 58.184 36.885 57.592H38.229C38.2983 57.9173 38.4317 58.1893 38.629 58.408C38.8263 58.6213 39.069 58.784 39.357 58.896C39.6503 59.0027 39.9703 59.056 40.317 59.056C40.877 59.056 41.3277 58.952 41.669 58.744C42.0103 58.536 42.181 58.216 42.181 57.784C42.181 57.48 42.0903 57.2373 41.909 57.056C41.733 56.8693 41.4557 56.7333 41.077 56.648L39.365 56.224C38.6983 56.064 38.165 55.8133 37.765 55.472C37.3703 55.1307 37.1703 54.6533 37.165 54.04C37.165 53.5547 37.2823 53.128 37.517 52.76C37.7517 52.392 38.101 52.1013 38.565 51.888C39.0343 51.6747 39.6183 51.568 40.317 51.568C41.2183 51.568 41.9437 51.7707 42.493 52.176C43.0423 52.576 43.3303 53.1653 43.357 53.944H42.045C41.9917 53.5493 41.8157 53.2373 41.517 53.008C41.2183 52.7733 40.813 52.656 40.301 52.656C39.7783 52.656 39.349 52.7627 39.013 52.976C38.6823 53.184 38.517 53.5093 38.517 53.952C38.517 54.2453 38.6343 54.4773 38.869 54.648C39.109 54.8133 39.4557 54.952 39.909 55.064L41.573 55.48C41.9517 55.5813 42.2663 55.7147 42.517 55.88C42.7677 56.0453 42.965 56.2293 43.109 56.432C43.253 56.6347 43.3543 56.848 43.413 57.072C43.477 57.2907 43.509 57.5013 43.509 57.704C43.509 58.2107 43.3837 58.648 43.133 59.016C42.8823 59.3787 42.5197 59.6613 42.045 59.864C41.5703 60.0613 40.997 60.16 40.325 60.16ZM48.4828 60.16C48.0508 60.1547 47.6428 60.0933 47.2588 59.976C46.8801 59.8533 46.5441 59.6747 46.2508 59.44C45.9574 59.2053 45.7254 58.9147 45.5548 58.568C45.3894 58.216 45.3068 57.808 45.3068 57.344V51.728H46.7868V57.192C46.7868 57.7307 46.9521 58.168 47.2828 58.504C47.6188 58.84 48.1228 59.008 48.7948 59.008C49.4028 59.008 49.8908 58.8507 50.2588 58.536C50.6321 58.216 50.8188 57.7413 50.8188 57.112V51.728H52.2908V60H51.1148L50.9628 58.416C50.8614 58.832 50.6881 59.168 50.4428 59.424C50.2028 59.68 49.9121 59.8693 49.5708 59.992C49.2348 60.1093 48.8721 60.1653 48.4828 60.16ZM57.044 60.16C56.5053 60.16 56.0307 60.0667 55.62 59.88C55.2147 59.688 54.8947 59.4133 54.66 59.056C54.4307 58.6987 54.316 58.2667 54.316 57.76C54.316 56.8427 54.636 56.16 55.276 55.712C55.916 55.264 56.9427 55.024 58.356 54.992L59.828 54.952V54.304C59.828 53.7973 59.676 53.3973 59.372 53.104C59.068 52.8053 58.5987 52.656 57.964 52.656C57.4893 52.6613 57.0707 52.7733 56.708 52.992C56.3453 53.2107 56.1133 53.568 56.012 54.064H54.708C54.74 53.5253 54.8893 53.072 55.156 52.704C55.428 52.3307 55.8093 52.048 56.3 51.856C56.7907 51.664 57.3693 51.568 58.036 51.568C58.756 51.568 59.3533 51.6693 59.828 51.872C60.308 52.0747 60.6653 52.3733 60.9 52.768C61.14 53.1627 61.26 53.648 61.26 54.224V60H59.996L59.884 58.448C59.5693 59.0933 59.164 59.5413 58.668 59.792C58.1773 60.0373 57.636 60.16 57.044 60.16ZM57.484 59.096C57.7667 59.096 58.044 59.0453 58.316 58.944C58.5933 58.8427 58.844 58.7067 59.068 58.536C59.2973 58.36 59.4813 58.1653 59.62 57.952C59.7587 57.7333 59.828 57.5093 59.828 57.28V55.864L58.604 55.888C57.9693 55.8987 57.4413 55.9627 57.02 56.08C56.5987 56.1973 56.2813 56.3813 56.068 56.632C55.8547 56.8827 55.748 57.2107 55.748 57.616C55.748 58.08 55.9107 58.4427 56.236 58.704C56.5613 58.9653 56.9773 59.096 57.484 59.096ZM66.5838 60.16C65.5064 60.16 64.6531 59.792 64.0238 59.056C63.3998 58.32 63.0878 57.2453 63.0878 55.832C63.0878 54.9733 63.2131 54.224 63.4638 53.584C63.7144 52.944 64.0904 52.448 64.5918 52.096C65.0931 51.744 65.7171 51.568 66.4638 51.568C66.8638 51.568 67.2158 51.6187 67.5198 51.72C67.8238 51.8213 68.0878 51.9493 68.3118 52.104C68.5358 52.2587 68.7171 52.4187 68.8558 52.584C68.9998 52.7493 69.1064 52.9013 69.1758 53.04V48.112H70.6718V60H69.5358L69.3758 58.304C69.3224 58.464 69.2371 58.6507 69.1198 58.864C69.0024 59.072 68.8371 59.2773 68.6238 59.48C68.4158 59.6773 68.1438 59.84 67.8078 59.968C67.4718 60.096 67.0638 60.16 66.5838 60.16ZM66.8478 59.024C67.6798 59.024 68.2744 58.7707 68.6318 58.264C68.9944 57.752 69.1758 56.9173 69.1758 55.76C69.1704 55.1147 69.0904 54.5653 68.9358 54.112C68.7811 53.6587 68.5358 53.3147 68.1998 53.08C67.8691 52.84 67.4264 52.72 66.8718 52.72C66.1944 52.72 65.6424 52.9627 65.2158 53.448C64.7891 53.9333 64.5758 54.704 64.5758 55.76C64.5758 56.7947 64.7678 57.5973 65.1518 58.168C65.5358 58.7387 66.1011 59.024 66.8478 59.024ZM75.4346 60.16C74.896 60.16 74.4213 60.0667 74.0106 59.88C73.6053 59.688 73.2853 59.4133 73.0506 59.056C72.8213 58.6987 72.7066 58.2667 72.7066 57.76C72.7066 56.8427 73.0266 56.16 73.6666 55.712C74.3066 55.264 75.3333 55.024 76.7466 54.992L78.2186 54.952V54.304C78.2186 53.7973 78.0666 53.3973 77.7626 53.104C77.4586 52.8053 76.9893 52.656 76.3546 52.656C75.88 52.6613 75.4613 52.7733 75.0986 52.992C74.736 53.2107 74.504 53.568 74.4026 54.064H73.0986C73.1306 53.5253 73.28 53.072 73.5466 52.704C73.8186 52.3307 74.2 52.048 74.6906 51.856C75.1813 51.664 75.76 51.568 76.4266 51.568C77.1466 51.568 77.744 51.6693 78.2186 51.872C78.6986 52.0747 79.056 52.3733 79.2906 52.768C79.5306 53.1627 79.6506 53.648 79.6506 54.224V60H78.3866L78.2746 58.448C77.96 59.0933 77.5546 59.5413 77.0586 59.792C76.568 60.0373 76.0266 60.16 75.4346 60.16ZM75.8746 59.096C76.1573 59.096 76.4346 59.0453 76.7066 58.944C76.984 58.8427 77.2346 58.7067 77.4586 58.536C77.688 58.36 77.872 58.1653 78.0106 57.952C78.1493 57.7333 78.2186 57.5093 78.2186 57.28V55.864L76.9946 55.888C76.36 55.8987 75.832 55.9627 75.4106 56.08C74.9893 56.1973 74.672 56.3813 74.4586 56.632C74.2453 56.8827 74.1386 57.2107 74.1386 57.616C74.1386 58.08 74.3013 58.4427 74.6266 58.704C74.952 58.9653 75.368 59.096 75.8746 59.096ZM88.169 60.16C87.6303 60.16 87.1557 60.0667 86.745 59.88C86.3397 59.688 86.0197 59.4133 85.785 59.056C85.5557 58.6987 85.441 58.2667 85.441 57.76C85.441 56.8427 85.761 56.16 86.401 55.712C87.041 55.264 88.0677 55.024 89.481 54.992L90.953 54.952V54.304C90.953 53.7973 90.801 53.3973 90.497 53.104C90.193 52.8053 89.7237 52.656 89.089 52.656C88.6143 52.6613 88.1957 52.7733 87.833 52.992C87.4703 53.2107 87.2383 53.568 87.137 54.064H85.833C85.865 53.5253 86.0143 53.072 86.281 52.704C86.553 52.3307 86.9343 52.048 87.425 51.856C87.9157 51.664 88.4943 51.568 89.161 51.568C89.881 51.568 90.4783 51.6693 90.953 51.872C91.433 52.0747 91.7903 52.3733 92.025 52.768C92.265 53.1627 92.385 53.648 92.385 54.224V60H91.121L91.009 58.448C90.6943 59.0933 90.289 59.5413 89.793 59.792C89.3023 60.0373 88.761 60.16 88.169 60.16ZM88.609 59.096C88.8917 59.096 89.169 59.0453 89.441 58.944C89.7183 58.8427 89.969 58.7067 90.193 58.536C90.4223 58.36 90.6063 58.1653 90.745 57.952C90.8837 57.7333 90.953 57.5093 90.953 57.28V55.864L89.729 55.888C89.0943 55.8987 88.5663 55.9627 88.145 56.08C87.7237 56.1973 87.4063 56.3813 87.193 56.632C86.9797 56.8827 86.873 57.2107 86.873 57.616C86.873 58.08 87.0357 58.4427 87.361 58.704C87.6863 58.9653 88.1023 59.096 88.609 59.096ZM94.6928 60V51.728H96.1008V53.32C96.2394 52.9253 96.4341 52.6 96.6848 52.344C96.9354 52.0827 97.2208 51.888 97.5408 51.76C97.8661 51.632 98.2021 51.568 98.5488 51.568C98.6714 51.568 98.7914 51.576 98.9088 51.592C99.0261 51.608 99.1168 51.6347 99.1808 51.672V53.104C99.1008 53.0667 98.9968 53.0427 98.8688 53.032C98.7461 53.016 98.6421 53.008 98.5568 53.008C98.2261 52.9867 97.9168 53.008 97.6288 53.072C97.3408 53.1307 97.0874 53.2347 96.8688 53.384C96.6501 53.5333 96.4768 53.7307 96.3488 53.976C96.2261 54.216 96.1648 54.5093 96.1648 54.856V60H94.6928ZM104.146 60.16C103.399 60.16 102.738 59.9973 102.162 59.672C101.591 59.3467 101.143 58.8667 100.818 58.232C100.498 57.5973 100.338 56.8187 100.338 55.896C100.338 55.032 100.484 54.2773 100.778 53.632C101.076 52.9813 101.508 52.4747 102.074 52.112C102.644 51.7493 103.335 51.568 104.146 51.568C104.738 51.568 105.268 51.6827 105.738 51.912C106.212 52.136 106.602 52.456 106.906 52.872C107.21 53.288 107.396 53.7787 107.466 54.344H106.154C106.106 54.056 105.994 53.792 105.818 53.552C105.647 53.312 105.42 53.12 105.138 52.976C104.86 52.832 104.532 52.76 104.154 52.76C103.444 52.76 102.866 53.016 102.418 53.528C101.975 54.04 101.754 54.824 101.754 55.88C101.754 56.8347 101.956 57.6 102.362 58.176C102.772 58.7467 103.375 59.032 104.17 59.032C104.548 59.032 104.879 58.96 105.162 58.816C105.444 58.6667 105.671 58.472 105.842 58.232C106.012 57.9867 106.122 57.7253 106.17 57.448H107.458C107.388 58.0027 107.199 58.4827 106.89 58.888C106.586 59.2933 106.196 59.608 105.722 59.832C105.252 60.0507 104.727 60.16 104.146 60.16ZM112.53 60.16C112.098 60.1547 111.69 60.0933 111.306 59.976C110.927 59.8533 110.591 59.6747 110.298 59.44C110.004 59.2053 109.772 58.9147 109.602 58.568C109.436 58.216 109.354 57.808 109.354 57.344V51.728H110.834V57.192C110.834 57.7307 110.999 58.168 111.33 58.504C111.666 58.84 112.17 59.008 112.842 59.008C113.45 59.008 113.938 58.8507 114.306 58.536C114.679 58.216 114.866 57.7413 114.866 57.112V51.728H116.338V60H115.162L115.01 58.416C114.908 58.832 114.735 59.168 114.49 59.424C114.25 59.68 113.959 59.8693 113.618 59.992C113.282 60.1093 112.919 60.1653 112.53 60.16ZM122.662 60V51.728H124.086V52.928C124.315 52.5653 124.63 52.248 125.03 51.976C125.43 51.704 125.95 51.568 126.59 51.568C126.888 51.568 127.192 51.6187 127.502 51.72C127.816 51.8213 128.104 51.9733 128.366 52.176C128.627 52.3787 128.83 52.6267 128.974 52.92C129.23 52.5147 129.576 52.1893 130.014 51.944C130.451 51.6933 130.944 51.568 131.494 51.568C131.782 51.568 132.083 51.6133 132.398 51.704C132.712 51.7893 133.003 51.944 133.27 52.168C133.542 52.3867 133.763 52.6933 133.934 53.088C134.104 53.4773 134.19 53.9787 134.19 54.592V60H132.702V54.736C132.702 54.2347 132.622 53.848 132.462 53.576C132.302 53.2987 132.091 53.104 131.83 52.992C131.574 52.88 131.299 52.824 131.006 52.824C130.75 52.824 130.478 52.8747 130.19 52.976C129.902 53.0773 129.656 53.248 129.454 53.488C129.251 53.728 129.15 54.056 129.15 54.472V60H127.678V54.304C127.678 53.9787 127.59 53.7067 127.414 53.488C127.243 53.2693 127.027 53.104 126.766 52.992C126.51 52.88 126.254 52.824 125.998 52.824C125.715 52.824 125.43 52.88 125.142 52.992C124.859 53.104 124.619 53.2827 124.422 53.528C124.23 53.768 124.134 54.0827 124.134 54.472V60H122.662ZM140.001 60.16C139.233 60.16 138.556 59.992 137.969 59.656C137.383 59.32 136.924 58.8373 136.593 58.208C136.263 57.5787 136.097 56.824 136.097 55.944C136.097 55.0747 136.247 54.312 136.545 53.656C136.844 53 137.276 52.488 137.841 52.12C138.412 51.752 139.097 51.568 139.897 51.568C140.676 51.568 141.335 51.736 141.873 52.072C142.412 52.408 142.82 52.8827 143.097 53.496C143.38 54.104 143.521 54.8267 143.521 55.664V56.208H137.593C137.593 56.7307 137.679 57.2053 137.849 57.632C138.025 58.0533 138.289 58.3893 138.641 58.64C138.993 58.8907 139.439 59.016 139.977 59.016C140.505 59.016 140.959 58.8933 141.337 58.648C141.721 58.4027 141.967 58.048 142.073 57.584H143.465C143.369 58.144 143.145 58.616 142.793 59C142.447 59.384 142.028 59.6747 141.537 59.872C141.052 60.064 140.54 60.16 140.001 60.16ZM137.601 55.208H142.097C142.097 54.7333 142.017 54.3067 141.857 53.928C141.697 53.544 141.452 53.2427 141.121 53.024C140.796 52.8 140.385 52.688 139.889 52.688C139.372 52.688 138.943 52.8133 138.601 53.064C138.26 53.3093 138.007 53.6267 137.841 54.016C137.676 54.4 137.596 54.7973 137.601 55.208ZM148.225 60.04C147.654 60.04 147.211 59.9627 146.897 59.808C146.582 59.6533 146.361 59.424 146.233 59.12C146.11 58.816 146.049 58.4427 146.049 58V52.808H144.705V51.728H146.089L146.449 49.32H147.537V51.72H149.401V52.808H147.537V57.952C147.537 58.2453 147.566 58.4613 147.625 58.6C147.689 58.7333 147.793 58.8187 147.937 58.856C148.081 58.8933 148.283 58.912 148.545 58.912H149.449V59.904C149.347 59.9413 149.193 59.9733 148.985 60C148.782 60.0267 148.529 60.04 148.225 60.04ZM154.373 60.16C153.941 60.1547 153.533 60.0933 153.149 59.976C152.771 59.8533 152.435 59.6747 152.141 59.44C151.848 59.2053 151.616 58.9147 151.445 58.568C151.28 58.216 151.197 57.808 151.197 57.344V51.728H152.677V57.192C152.677 57.7307 152.843 58.168 153.173 58.504C153.509 58.84 154.013 59.008 154.685 59.008C155.293 59.008 155.781 58.8507 156.149 58.536C156.523 58.216 156.709 57.7413 156.709 57.112V51.728H158.181V60H157.005L156.853 58.416C156.752 58.832 156.579 59.168 156.333 59.424C156.093 59.68 155.803 59.8693 155.461 59.992C155.125 60.1093 154.763 60.1653 154.373 60.16ZM163.591 60.16C163.015 60.16 162.479 60.072 161.983 59.896C161.492 59.7147 161.084 59.4347 160.759 59.056C160.433 58.672 160.231 58.184 160.151 57.592H161.495C161.564 57.9173 161.697 58.1893 161.895 58.408C162.092 58.6213 162.335 58.784 162.623 58.896C162.916 59.0027 163.236 59.056 163.583 59.056C164.143 59.056 164.593 58.952 164.935 58.744C165.276 58.536 165.447 58.216 165.447 57.784C165.447 57.48 165.356 57.2373 165.175 57.056C164.999 56.8693 164.721 56.7333 164.343 56.648L162.631 56.224C161.964 56.064 161.431 55.8133 161.031 55.472C160.636 55.1307 160.436 54.6533 160.431 54.04C160.431 53.5547 160.548 53.128 160.783 52.76C161.017 52.392 161.367 52.1013 161.831 51.888C162.3 51.6747 162.884 51.568 163.583 51.568C164.484 51.568 165.209 51.7707 165.759 52.176C166.308 52.576 166.596 53.1653 166.623 53.944H165.311C165.257 53.5493 165.081 53.2373 164.783 53.008C164.484 52.7733 164.079 52.656 163.567 52.656C163.044 52.656 162.615 52.7627 162.279 52.976C161.948 53.184 161.783 53.5093 161.783 53.952C161.783 54.2453 161.9 54.4773 162.135 54.648C162.375 54.8133 162.721 54.952 163.175 55.064L164.839 55.48C165.217 55.5813 165.532 55.7147 165.783 55.88C166.033 56.0453 166.231 56.2293 166.375 56.432C166.519 56.6347 166.62 56.848 166.679 57.072C166.743 57.2907 166.775 57.5013 166.775 57.704C166.775 58.2107 166.649 58.648 166.399 59.016C166.148 59.3787 165.785 59.6613 165.311 59.864C164.836 60.0613 164.263 60.16 163.591 60.16ZM172.537 62.576V51.728H174.009L174.025 53.168C174.121 52.9973 174.243 52.8187 174.393 52.632C174.547 52.4453 174.734 52.272 174.953 52.112C175.177 51.952 175.435 51.8213 175.729 51.72C176.027 51.6187 176.366 51.568 176.745 51.568C177.406 51.568 177.987 51.72 178.489 52.024C178.995 52.3227 179.39 52.7813 179.673 53.4C179.955 54.0187 180.097 54.8027 180.097 55.752C180.097 56.7013 179.958 57.504 179.681 58.16C179.409 58.8107 179.014 59.3067 178.497 59.648C177.979 59.9893 177.355 60.16 176.625 60.16C176.257 60.16 175.929 60.1067 175.641 60C175.358 59.8987 175.11 59.7653 174.897 59.6C174.689 59.4293 174.513 59.248 174.369 59.056C174.23 58.864 174.115 58.68 174.025 58.504V62.576H172.537ZM176.345 59.008C177.027 59.008 177.585 58.7493 178.017 58.232C178.449 57.7093 178.665 56.8987 178.665 55.8C178.665 54.856 178.467 54.1067 178.073 53.552C177.678 52.9973 177.102 52.72 176.345 52.72C175.577 52.72 174.995 53.0053 174.601 53.576C174.206 54.1413 174.009 54.8827 174.009 55.8C174.009 56.392 174.097 56.9307 174.273 57.416C174.449 57.9013 174.71 58.288 175.057 58.576C175.403 58.864 175.833 59.008 176.345 59.008ZM185.38 60.16C184.617 60.16 183.95 59.9973 183.38 59.672C182.814 59.3413 182.374 58.8587 182.06 58.224C181.745 57.5893 181.588 56.8133 181.588 55.896C181.588 55.032 181.734 54.2747 182.028 53.624C182.321 52.9733 182.75 52.4693 183.316 52.112C183.881 51.7493 184.572 51.568 185.388 51.568C186.15 51.568 186.812 51.736 187.372 52.072C187.932 52.4027 188.366 52.8907 188.676 53.536C188.99 54.1813 189.148 54.968 189.148 55.896C189.148 56.7387 189.004 57.48 188.716 58.12C188.428 58.76 188.004 59.2613 187.444 59.624C186.889 59.9813 186.201 60.16 185.38 60.16ZM185.388 58.992C185.878 58.992 186.294 58.8667 186.636 58.616C186.977 58.3653 187.236 58.0053 187.412 57.536C187.593 57.0667 187.684 56.5093 187.684 55.864C187.684 55.272 187.604 54.7413 187.444 54.272C187.289 53.7973 187.044 53.4213 186.708 53.144C186.372 52.8667 185.932 52.728 185.388 52.728C184.886 52.728 184.462 52.8533 184.116 53.104C183.769 53.3493 183.505 53.7067 183.324 54.176C183.148 54.6453 183.06 55.208 183.06 55.864C183.06 56.4453 183.137 56.9733 183.292 57.448C183.452 57.9227 183.702 58.2987 184.044 58.576C184.39 58.8533 184.838 58.992 185.388 58.992ZM194.044 60.16C193.468 60.16 192.932 60.072 192.436 59.896C191.945 59.7147 191.537 59.4347 191.212 59.056C190.886 58.672 190.684 58.184 190.604 57.592H191.948C192.017 57.9173 192.15 58.1893 192.348 58.408C192.545 58.6213 192.788 58.784 193.076 58.896C193.369 59.0027 193.689 59.056 194.036 59.056C194.596 59.056 195.046 58.952 195.388 58.744C195.729 58.536 195.9 58.216 195.9 57.784C195.9 57.48 195.809 57.2373 195.628 57.056C195.452 56.8693 195.174 56.7333 194.796 56.648L193.084 56.224C192.417 56.064 191.884 55.8133 191.484 55.472C191.089 55.1307 190.889 54.6533 190.884 54.04C190.884 53.5547 191.001 53.128 191.236 52.76C191.47 52.392 191.82 52.1013 192.284 51.888C192.753 51.6747 193.337 51.568 194.036 51.568C194.937 51.568 195.662 51.7707 196.212 52.176C196.761 52.576 197.049 53.1653 197.076 53.944H195.764C195.71 53.5493 195.534 53.2373 195.236 53.008C194.937 52.7733 194.532 52.656 194.02 52.656C193.497 52.656 193.068 52.7627 192.732 52.976C192.401 53.184 192.236 53.5093 192.236 53.952C192.236 54.2453 192.353 54.4773 192.588 54.648C192.828 54.8133 193.174 54.952 193.628 55.064L195.292 55.48C195.67 55.5813 195.985 55.7147 196.236 55.88C196.486 56.0453 196.684 56.2293 196.828 56.432C196.972 56.6347 197.073 56.848 197.132 57.072C197.196 57.2907 197.228 57.5013 197.228 57.704C197.228 58.2107 197.102 58.648 196.852 59.016C196.601 59.3787 196.238 59.6613 195.764 59.864C195.289 60.0613 194.716 60.16 194.044 60.16ZM202.202 60.16C201.77 60.1547 201.362 60.0933 200.978 59.976C200.599 59.8533 200.263 59.6747 199.97 59.44C199.676 59.2053 199.444 58.9147 199.274 58.568C199.108 58.216 199.026 57.808 199.026 57.344V51.728H200.506V57.192C200.506 57.7307 200.671 58.168 201.002 58.504C201.338 58.84 201.842 59.008 202.514 59.008C203.122 59.008 203.61 58.8507 203.978 58.536C204.351 58.216 204.538 57.7413 204.538 57.112V51.728H206.01V60H204.834L204.682 58.416C204.58 58.832 204.407 59.168 204.162 59.424C203.922 59.68 203.631 59.8693 203.29 59.992C202.954 60.1093 202.591 60.1653 202.202 60.16ZM211.939 60.16C211.171 60.16 210.493 59.992 209.907 59.656C209.32 59.32 208.861 58.8373 208.531 58.208C208.2 57.5787 208.035 56.824 208.035 55.944C208.035 55.0747 208.184 54.312 208.483 53.656C208.781 53 209.213 52.488 209.779 52.12C210.349 51.752 211.035 51.568 211.835 51.568C212.613 51.568 213.272 51.736 213.811 52.072C214.349 52.408 214.757 52.8827 215.035 53.496C215.317 54.104 215.459 54.8267 215.459 55.664V56.208H209.531C209.531 56.7307 209.616 57.2053 209.787 57.632C209.963 58.0533 210.227 58.3893 210.579 58.64C210.931 58.8907 211.376 59.016 211.915 59.016C212.443 59.016 212.896 58.8933 213.275 58.648C213.659 58.4027 213.904 58.048 214.011 57.584H215.403C215.307 58.144 215.083 58.616 214.731 59C214.384 59.384 213.965 59.6747 213.475 59.872C212.989 60.064 212.477 60.16 211.939 60.16ZM209.539 55.208H214.035C214.035 54.7333 213.955 54.3067 213.795 53.928C213.635 53.544 213.389 53.2427 213.059 53.024C212.733 52.8 212.323 52.688 211.827 52.688C211.309 52.688 210.88 52.8133 210.539 53.064C210.197 53.3093 209.944 53.6267 209.779 54.016C209.613 54.4 209.533 54.7973 209.539 55.208ZM217.505 60V51.728H218.913V53.32C219.052 52.9253 219.247 52.6 219.497 52.344C219.748 52.0827 220.033 51.888 220.353 51.76C220.679 51.632 221.015 51.568 221.361 51.568C221.484 51.568 221.604 51.576 221.721 51.592C221.839 51.608 221.929 51.6347 221.993 51.672V53.104C221.913 53.0667 221.809 53.0427 221.681 53.032C221.559 53.016 221.455 53.008 221.369 53.008C221.039 52.9867 220.729 53.008 220.441 53.072C220.153 53.1307 219.9 53.2347 219.681 53.384C219.463 53.5333 219.289 53.7307 219.161 53.976C219.039 54.216 218.977 54.5093 218.977 54.856V60H217.505ZM227.126 60.16C226.358 60.16 225.681 59.992 225.094 59.656C224.508 59.32 224.049 58.8373 223.718 58.208C223.388 57.5787 223.222 56.824 223.222 55.944C223.222 55.0747 223.372 54.312 223.67 53.656C223.969 53 224.401 52.488 224.966 52.12C225.537 51.752 226.222 51.568 227.022 51.568C227.801 51.568 228.46 51.736 228.998 52.072C229.537 52.408 229.945 52.8827 230.222 53.496C230.505 54.104 230.646 54.8267 230.646 55.664V56.208H224.718C224.718 56.7307 224.804 57.2053 224.974 57.632C225.15 58.0533 225.414 58.3893 225.766 58.64C226.118 58.8907 226.564 59.016 227.102 59.016C227.63 59.016 228.084 58.8933 228.462 58.648C228.846 58.4027 229.092 58.048 229.198 57.584H230.59C230.494 58.144 230.27 58.616 229.918 59C229.572 59.384 229.153 59.6747 228.662 59.872C228.177 60.064 227.665 60.16 227.126 60.16ZM224.726 55.208H229.222C229.222 54.7333 229.142 54.3067 228.982 53.928C228.822 53.544 228.577 53.2427 228.246 53.024C227.921 52.8 227.51 52.688 227.014 52.688C226.497 52.688 226.068 52.8133 225.726 53.064C225.385 53.3093 225.132 53.6267 224.966 54.016C224.801 54.4 224.721 54.7973 224.726 55.208ZM236.49 60V51.728H237.914V52.928C238.143 52.5653 238.458 52.248 238.858 51.976C239.258 51.704 239.778 51.568 240.418 51.568C240.716 51.568 241.02 51.6187 241.33 51.72C241.644 51.8213 241.932 51.9733 242.194 52.176C242.455 52.3787 242.658 52.6267 242.802 52.92C243.058 52.5147 243.404 52.1893 243.842 51.944C244.279 51.6933 244.772 51.568 245.322 51.568C245.61 51.568 245.911 51.6133 246.226 51.704C246.54 51.7893 246.831 51.944 247.098 52.168C247.37 52.3867 247.591 52.6933 247.762 53.088C247.932 53.4773 248.018 53.9787 248.018 54.592V60H246.53V54.736C246.53 54.2347 246.45 53.848 246.29 53.576C246.13 53.2987 245.919 53.104 245.658 52.992C245.402 52.88 245.127 52.824 244.834 52.824C244.578 52.824 244.306 52.8747 244.018 52.976C243.73 53.0773 243.484 53.248 243.282 53.488C243.079 53.728 242.978 54.056 242.978 54.472V60H241.506V54.304C241.506 53.9787 241.418 53.7067 241.242 53.488C241.071 53.2693 240.855 53.104 240.594 52.992C240.338 52.88 240.082 52.824 239.826 52.824C239.543 52.824 239.258 52.88 238.97 52.992C238.687 53.104 238.447 53.2827 238.25 53.528C238.058 53.768 237.962 54.0827 237.962 54.472V60H236.49ZM253.829 60.16C253.061 60.16 252.384 59.992 251.797 59.656C251.211 59.32 250.752 58.8373 250.421 58.208C250.091 57.5787 249.925 56.824 249.925 55.944C249.925 55.0747 250.075 54.312 250.373 53.656C250.672 53 251.104 52.488 251.669 52.12C252.24 51.752 252.925 51.568 253.725 51.568C254.504 51.568 255.163 51.736 255.701 52.072C256.24 52.408 256.648 52.8827 256.925 53.496C257.208 54.104 257.349 54.8267 257.349 55.664V56.208H251.421C251.421 56.7307 251.507 57.2053 251.677 57.632C251.853 58.0533 252.117 58.3893 252.469 58.64C252.821 58.8907 253.267 59.016 253.805 59.016C254.333 59.016 254.787 58.8933 255.165 58.648C255.549 58.4027 255.795 58.048 255.901 57.584H257.293C257.197 58.144 256.973 58.616 256.621 59C256.275 59.384 255.856 59.6747 255.365 59.872C254.88 60.064 254.368 60.16 253.829 60.16ZM251.429 55.208H255.925C255.925 54.7333 255.845 54.3067 255.685 53.928C255.525 53.544 255.28 53.2427 254.949 53.024C254.624 52.8 254.213 52.688 253.717 52.688C253.2 52.688 252.771 52.8133 252.429 53.064C252.088 53.3093 251.835 53.6267 251.669 54.016C251.504 54.4 251.424 54.7973 251.429 55.208ZM262.053 60.04C261.482 60.04 261.04 59.9627 260.725 59.808C260.41 59.6533 260.189 59.424 260.061 59.12C259.938 58.816 259.877 58.4427 259.877 58V52.808H258.533V51.728H259.917L260.277 49.32H261.365V51.72H263.229V52.808H261.365V57.952C261.365 58.2453 261.394 58.4613 261.453 58.6C261.517 58.7333 261.621 58.8187 261.765 58.856C261.909 58.8933 262.112 58.912 262.373 58.912H263.277V59.904C263.176 59.9413 263.021 59.9733 262.813 60C262.61 60.0267 262.357 60.04 262.053 60.04ZM268.202 60.16C267.77 60.1547 267.362 60.0933 266.978 59.976C266.599 59.8533 266.263 59.6747 265.97 59.44C265.676 59.2053 265.444 58.9147 265.274 58.568C265.108 58.216 265.026 57.808 265.026 57.344V51.728H266.506V57.192C266.506 57.7307 266.671 58.168 267.002 58.504C267.338 58.84 267.842 59.008 268.514 59.008C269.122 59.008 269.61 58.8507 269.978 58.536C270.351 58.216 270.538 57.7413 270.538 57.112V51.728H272.01V60H270.834L270.682 58.416C270.58 58.832 270.407 59.168 270.162 59.424C269.922 59.68 269.631 59.8693 269.29 59.992C268.954 60.1093 268.591 60.1653 268.202 60.16ZM277.419 60.16C276.843 60.16 276.307 60.072 275.811 59.896C275.32 59.7147 274.912 59.4347 274.587 59.056C274.261 58.672 274.059 58.184 273.979 57.592H275.323C275.392 57.9173 275.525 58.1893 275.723 58.408C275.92 58.6213 276.163 58.784 276.451 58.896C276.744 59.0027 277.064 59.056 277.411 59.056C277.971 59.056 278.421 58.952 278.763 58.744C279.104 58.536 279.275 58.216 279.275 57.784C279.275 57.48 279.184 57.2373 279.003 57.056C278.827 56.8693 278.549 56.7333 278.171 56.648L276.459 56.224C275.792 56.064 275.259 55.8133 274.859 55.472C274.464 55.1307 274.264 54.6533 274.259 54.04C274.259 53.5547 274.376 53.128 274.611 52.76C274.845 52.392 275.195 52.1013 275.659 51.888C276.128 51.6747 276.712 51.568 277.411 51.568C278.312 51.568 279.037 51.7707 279.587 52.176C280.136 52.576 280.424 53.1653 280.451 53.944H279.139C279.085 53.5493 278.909 53.2373 278.611 53.008C278.312 52.7733 277.907 52.656 277.395 52.656C276.872 52.656 276.443 52.7627 276.107 52.976C275.776 53.184 275.611 53.5093 275.611 53.952C275.611 54.2453 275.728 54.4773 275.963 54.648C276.203 54.8133 276.549 54.952 277.003 55.064L278.667 55.48C279.045 55.5813 279.36 55.7147 279.611 55.88C279.861 56.0453 280.059 56.2293 280.203 56.432C280.347 56.6347 280.448 56.848 280.507 57.072C280.571 57.2907 280.603 57.5013 280.603 57.704C280.603 58.2107 280.477 58.648 280.227 59.016C279.976 59.3787 279.613 59.6613 279.139 59.864C278.664 60.0613 278.091 60.16 277.419 60.16ZM282.193 60V58.112H283.953V60H282.193Z" fill="#77878F"/>
</svg>
