<svg width="285" height="12" viewBox="0 0 285 12" fill="none" xmlns="http://www.w3.org/2000/svg">
<path d="M3.241 11L0.322 0.877999H1.631L3.871 8.935L6.153 0.877999H7.168L9.443 8.935L11.725 0.877999H13.027L10.073 11H8.876L6.657 3.153L4.403 11H3.241ZM16.8312 11.14C16.1592 11.14 15.5665 10.993 15.0532 10.699C14.5398 10.405 14.1385 9.98267 13.8492 9.432C13.5598 8.88133 13.4152 8.221 13.4152 7.451C13.4152 6.69033 13.5458 6.023 13.8072 5.449C14.0685 4.875 14.4465 4.427 14.9412 4.105C15.4405 3.783 16.0402 3.622 16.7402 3.622C17.4215 3.622 17.9978 3.769 18.4692 4.063C18.9405 4.357 19.2975 4.77233 19.5402 5.309C19.7875 5.841 19.9112 6.47333 19.9112 7.206V7.682H14.7242C14.7242 8.13933 14.7988 8.55467 14.9482 8.928C15.1022 9.29667 15.3332 9.59067 15.6412 9.81C15.9492 10.0293 16.3388 10.139 16.8102 10.139C17.2722 10.139 17.6688 10.0317 18.0002 9.817C18.3362 9.60233 18.5508 9.292 18.6442 8.886H19.8622C19.7782 9.376 19.5822 9.789 19.2742 10.125C18.9708 10.461 18.6045 10.7153 18.1752 10.888C17.7505 11.056 17.3025 11.14 16.8312 11.14ZM14.7312 6.807H18.6652C18.6652 6.39167 18.5952 6.01833 18.4552 5.687C18.3152 5.351 18.1005 5.08733 17.8112 4.896C17.5265 4.7 17.1672 4.602 16.7332 4.602C16.2805 4.602 15.9048 4.71167 15.6062 4.931C15.3075 5.14567 15.0858 5.42333 14.9412 5.764C14.7965 6.1 14.7265 6.44767 14.7312 6.807ZM23.5289 11.091C23.1369 11.091 22.8195 11.0373 22.5769 10.93C22.3389 10.8227 22.1545 10.678 22.0239 10.496C21.8979 10.314 21.8115 10.1063 21.7649 9.873C21.7229 9.635 21.7019 9.39 21.7019 9.138V0.598H22.9759V9.012C22.9759 9.376 23.0459 9.649 23.1859 9.831C23.3305 10.013 23.5312 10.1133 23.7879 10.132L24.1799 10.139V10.979C24.0725 11.0117 23.9605 11.0373 23.8439 11.056C23.7272 11.0793 23.6222 11.091 23.5289 11.091ZM28.5103 11.14C27.857 11.14 27.2783 10.9977 26.7743 10.713C26.275 10.4283 25.883 10.0083 25.5983 9.453C25.3183 8.89767 25.1783 8.21633 25.1783 7.409C25.1783 6.653 25.3067 5.99267 25.5633 5.428C25.8247 4.85867 26.2027 4.41533 26.6973 4.098C27.1967 3.78067 27.801 3.622 28.5103 3.622C29.0283 3.622 29.4927 3.72233 29.9033 3.923C30.3187 4.119 30.6593 4.399 30.9253 4.763C31.1913 5.127 31.3547 5.55633 31.4153 6.051H30.2673C30.2253 5.799 30.1273 5.568 29.9733 5.358C29.824 5.148 29.6257 4.98 29.3783 4.854C29.1357 4.728 28.8487 4.665 28.5173 4.665C27.8967 4.665 27.3903 4.889 26.9983 5.337C26.611 5.785 26.4173 6.471 26.4173 7.395C26.4173 8.23033 26.5947 8.9 26.9493 9.404C27.3087 9.90333 27.836 10.153 28.5313 10.153C28.8627 10.153 29.152 10.09 29.3993 9.964C29.6467 9.83333 29.845 9.663 29.9943 9.453C30.1437 9.23833 30.2393 9.00967 30.2813 8.767H31.4083C31.3477 9.25233 31.182 9.67233 30.9113 10.027C30.6453 10.3817 30.3047 10.657 29.8893 10.853C29.4787 11.0443 29.019 11.14 28.5103 11.14ZM36.0706 11.14C35.4032 11.14 34.8199 10.9977 34.3206 10.713C33.8259 10.4237 33.4409 10.0013 33.1656 9.446C32.8902 8.89067 32.7526 8.21167 32.7526 7.409C32.7526 6.653 32.8809 5.99033 33.1376 5.421C33.3942 4.85167 33.7699 4.41067 34.2646 4.098C34.7592 3.78067 35.3636 3.622 36.0776 3.622C36.7449 3.622 37.3236 3.769 37.8136 4.063C38.3036 4.35233 38.6839 4.77933 38.9546 5.344C39.2299 5.90867 39.3676 6.597 39.3676 7.409C39.3676 8.14633 39.2416 8.795 38.9896 9.355C38.7376 9.915 38.3666 10.3537 37.8766 10.671C37.3912 10.9837 36.7892 11.14 36.0706 11.14ZM36.0776 10.118C36.5069 10.118 36.8709 10.0083 37.1696 9.789C37.4682 9.56967 37.6946 9.25467 37.8486 8.844C38.0072 8.43333 38.0866 7.94567 38.0866 7.381C38.0866 6.863 38.0166 6.39867 37.8766 5.988C37.7412 5.57267 37.5266 5.24367 37.2326 5.001C36.9386 4.75833 36.5536 4.637 36.0776 4.637C35.6389 4.637 35.2679 4.74667 34.9646 4.966C34.6612 5.18067 34.4302 5.49333 34.2716 5.904C34.1176 6.31467 34.0406 6.807 34.0406 7.381C34.0406 7.88967 34.1082 8.35167 34.2436 8.767C34.3836 9.18233 34.6029 9.51133 34.9016 9.754C35.2049 9.99667 35.5969 10.118 36.0776 10.118ZM41.0886 11V3.762H42.3346V4.812C42.5352 4.49467 42.8106 4.217 43.1606 3.979C43.5106 3.741 43.9656 3.622 44.5256 3.622C44.7869 3.622 45.0529 3.66633 45.3236 3.755C45.5989 3.84367 45.8509 3.97667 46.0796 4.154C46.3082 4.33133 46.4856 4.54833 46.6116 4.805C46.8356 4.45033 47.1389 4.16567 47.5216 3.951C47.9042 3.73167 48.3359 3.622 48.8166 3.622C49.0686 3.622 49.3322 3.66167 49.6076 3.741C49.8829 3.81567 50.1372 3.951 50.3706 4.147C50.6086 4.33833 50.8022 4.60667 50.9516 4.952C51.1009 5.29267 51.1756 5.73133 51.1756 6.268V11H49.8736V6.394C49.8736 5.95533 49.8036 5.617 49.6636 5.379C49.5236 5.13633 49.3392 4.966 49.1106 4.868C48.8866 4.77 48.6462 4.721 48.3896 4.721C48.1656 4.721 47.9276 4.76533 47.6756 4.854C47.4236 4.94267 47.2089 5.092 47.0316 5.302C46.8542 5.512 46.7656 5.799 46.7656 6.163V11H45.4776V6.016C45.4776 5.73133 45.4006 5.49333 45.2466 5.302C45.0972 5.11067 44.9082 4.966 44.6796 4.868C44.4556 4.77 44.2316 4.721 44.0076 4.721C43.7602 4.721 43.5106 4.77 43.2586 4.868C43.0112 4.966 42.8012 5.12233 42.6286 5.337C42.4606 5.547 42.3766 5.82233 42.3766 6.163V11H41.0886ZM56.2609 11.14C55.5889 11.14 54.9962 10.993 54.4829 10.699C53.9695 10.405 53.5682 9.98267 53.2789 9.432C52.9895 8.88133 52.8449 8.221 52.8449 7.451C52.8449 6.69033 52.9755 6.023 53.2369 5.449C53.4982 4.875 53.8762 4.427 54.3709 4.105C54.8702 3.783 55.4699 3.622 56.1699 3.622C56.8512 3.622 57.4275 3.769 57.8989 4.063C58.3702 4.357 58.7272 4.77233 58.9699 5.309C59.2172 5.841 59.3409 6.47333 59.3409 7.206V7.682H54.1539C54.1539 8.13933 54.2285 8.55467 54.3779 8.928C54.5319 9.29667 54.7629 9.59067 55.0709 9.81C55.3789 10.0293 55.7685 10.139 56.2399 10.139C56.7019 10.139 57.0985 10.0317 57.4299 9.817C57.7659 9.60233 57.9805 9.292 58.0739 8.886H59.2919C59.2079 9.376 59.0119 9.789 58.7039 10.125C58.4005 10.461 58.0342 10.7153 57.6049 10.888C57.1802 11.056 56.7322 11.14 56.2609 11.14ZM54.1609 6.807H58.0949C58.0949 6.39167 58.0249 6.01833 57.8849 5.687C57.7449 5.351 57.5302 5.08733 57.2409 4.896C56.9562 4.7 56.5969 4.602 56.1629 4.602C55.7102 4.602 55.3345 4.71167 55.0359 4.931C54.7372 5.14567 54.5155 5.42333 54.3709 5.764C54.2262 6.1 54.1562 6.44767 54.1609 6.807ZM67.1068 11.035C66.6075 11.035 66.2201 10.9673 65.9448 10.832C65.6695 10.6967 65.4758 10.496 65.3638 10.23C65.2565 9.964 65.2028 9.63733 65.2028 9.25V4.707H64.0268V3.762H65.2378L65.5528 1.655H66.5048V3.755H68.1358V4.707H66.5048V9.208C66.5048 9.46467 66.5305 9.65367 66.5818 9.775C66.6378 9.89167 66.7288 9.96633 66.8548 9.999C66.9808 10.0317 67.1581 10.048 67.3868 10.048H68.1778V10.916C68.0891 10.9487 67.9538 10.9767 67.7718 11C67.5945 11.0233 67.3728 11.035 67.1068 11.035ZM72.6018 11.14C71.9345 11.14 71.3511 10.9977 70.8518 10.713C70.3571 10.4237 69.9721 10.0013 69.6968 9.446C69.4215 8.89067 69.2838 8.21167 69.2838 7.409C69.2838 6.653 69.4121 5.99033 69.6688 5.421C69.9255 4.85167 70.3011 4.41067 70.7958 4.098C71.2905 3.78067 71.8948 3.622 72.6088 3.622C73.2761 3.622 73.8548 3.769 74.3448 4.063C74.8348 4.35233 75.2151 4.77933 75.4858 5.344C75.7611 5.90867 75.8988 6.597 75.8988 7.409C75.8988 8.14633 75.7728 8.795 75.5208 9.355C75.2688 9.915 74.8978 10.3537 74.4078 10.671C73.9225 10.9837 73.3205 11.14 72.6018 11.14ZM72.6088 10.118C73.0381 10.118 73.4021 10.0083 73.7008 9.789C73.9995 9.56967 74.2258 9.25467 74.3798 8.844C74.5385 8.43333 74.6178 7.94567 74.6178 7.381C74.6178 6.863 74.5478 6.39867 74.4078 5.988C74.2725 5.57267 74.0578 5.24367 73.7638 5.001C73.4698 4.75833 73.0848 4.637 72.6088 4.637C72.1701 4.637 71.7991 4.74667 71.4958 4.966C71.1925 5.18067 70.9615 5.49333 70.8028 5.904C70.6488 6.31467 70.5718 6.807 70.5718 7.381C70.5718 7.88967 70.6395 8.35167 70.7748 8.767C70.9148 9.18233 71.1341 9.51133 71.4328 9.754C71.7361 9.99667 72.1281 10.118 72.6088 10.118ZM84.9321 11.14C84.0221 11.14 83.2451 10.9323 82.6011 10.517C81.9618 10.1017 81.4718 9.50433 81.1311 8.725C80.7951 7.94567 80.6271 7.00533 80.6271 5.904C80.6271 4.80733 80.7951 3.874 81.1311 3.104C81.4671 2.334 81.9548 1.74833 82.5941 1.347C83.2381 0.940999 84.0174 0.737999 84.9321 0.737999C85.6461 0.737999 86.2784 0.887333 86.8291 1.186C87.3798 1.48 87.8231 1.87433 88.1591 2.369C88.4951 2.86367 88.6934 3.40733 88.7541 4H87.3751C87.3004 3.60333 87.1581 3.244 86.9481 2.922C86.7381 2.6 86.4628 2.34333 86.1221 2.152C85.7814 1.96067 85.3731 1.865 84.8971 1.865C84.2858 1.865 83.7678 2.00967 83.3431 2.299C82.9231 2.58367 82.6034 3.02467 82.3841 3.622C82.1694 4.21933 82.0621 4.98467 82.0621 5.918C82.0621 7.32733 82.3024 8.36333 82.7831 9.026C83.2684 9.684 83.9731 10.013 84.8971 10.013C85.3731 10.013 85.7814 9.91267 86.1221 9.712C86.4628 9.51133 86.7381 9.243 86.9481 8.907C87.1581 8.571 87.3004 8.207 87.3751 7.815H88.7541C88.7028 8.24433 88.5861 8.65967 88.4041 9.061C88.2268 9.45767 87.9818 9.81233 87.6691 10.125C87.3564 10.4377 86.9714 10.685 86.5141 10.867C86.0614 11.049 85.5341 11.14 84.9321 11.14ZM92.4078 11.091C92.0158 11.091 91.6984 11.0373 91.4558 10.93C91.2178 10.8227 91.0334 10.678 90.9028 10.496C90.7768 10.314 90.6904 10.1063 90.6438 9.873C90.6018 9.635 90.5808 9.39 90.5808 9.138V0.598H91.8548V9.012C91.8548 9.376 91.9248 9.649 92.0648 9.831C92.2094 10.013 92.4101 10.1133 92.6668 10.132L93.0588 10.139V10.979C92.9514 11.0117 92.8394 11.0373 92.7228 11.056C92.6061 11.0793 92.5011 11.091 92.4078 11.091ZM94.7857 11V3.762H96.0387V11H94.7857ZM94.7507 2.229V0.885H96.0737V2.229H94.7507ZM101.122 11.14C100.468 11.14 99.8897 10.9977 99.3857 10.713C98.8863 10.4283 98.4943 10.0083 98.2097 9.453C97.9297 8.89767 97.7897 8.21633 97.7897 7.409C97.7897 6.653 97.918 5.99267 98.1747 5.428C98.436 4.85867 98.814 4.41533 99.3087 4.098C99.808 3.78067 100.412 3.622 101.122 3.622C101.64 3.622 102.104 3.72233 102.515 3.923C102.93 4.119 103.271 4.399 103.537 4.763C103.803 5.127 103.966 5.55633 104.027 6.051H102.879C102.837 5.799 102.739 5.568 102.585 5.358C102.435 5.148 102.237 4.98 101.99 4.854C101.747 4.728 101.46 4.665 101.129 4.665C100.508 4.665 100.002 4.889 99.6097 5.337C99.2223 5.785 99.0287 6.471 99.0287 7.395C99.0287 8.23033 99.206 8.9 99.5607 9.404C99.92 9.90333 100.447 10.153 101.143 10.153C101.474 10.153 101.763 10.09 102.011 9.964C102.258 9.83333 102.456 9.663 102.606 9.453C102.755 9.23833 102.851 9.00967 102.893 8.767H104.02C103.959 9.25233 103.793 9.67233 103.523 10.027C103.257 10.3817 102.916 10.657 102.501 10.853C102.09 11.0443 101.63 11.14 101.122 11.14ZM108.682 11.14C108.015 11.14 107.431 10.9977 106.932 10.713C106.437 10.4237 106.052 10.0013 105.777 9.446C105.502 8.89067 105.364 8.21167 105.364 7.409C105.364 6.653 105.492 5.99033 105.749 5.421C106.006 4.85167 106.381 4.41067 106.876 4.098C107.371 3.78067 107.975 3.622 108.689 3.622C109.356 3.622 109.935 3.769 110.425 4.063C110.915 4.35233 111.295 4.77933 111.566 5.344C111.841 5.90867 111.979 6.597 111.979 7.409C111.979 8.14633 111.853 8.795 111.601 9.355C111.349 9.915 110.978 10.3537 110.488 10.671C110.003 10.9837 109.401 11.14 108.682 11.14ZM108.689 10.118C109.118 10.118 109.482 10.0083 109.781 9.789C110.08 9.56967 110.306 9.25467 110.46 8.844C110.619 8.43333 110.698 7.94567 110.698 7.381C110.698 6.863 110.628 6.39867 110.488 5.988C110.353 5.57267 110.138 5.24367 109.844 5.001C109.55 4.75833 109.165 4.637 108.689 4.637C108.25 4.637 107.879 4.74667 107.576 4.966C107.273 5.18067 107.042 5.49333 106.883 5.904C106.729 6.31467 106.652 6.807 106.652 7.381C106.652 7.88967 106.72 8.35167 106.855 8.767C106.995 9.18233 107.214 9.51133 107.513 9.754C107.816 9.99667 108.208 10.118 108.689 10.118ZM113.7 11V3.762H114.953V4.812C115.07 4.61133 115.231 4.42233 115.436 4.245C115.646 4.06767 115.898 3.92533 116.192 3.818C116.491 3.71067 116.834 3.657 117.221 3.657C117.678 3.657 118.098 3.748 118.481 3.93C118.868 4.112 119.176 4.39667 119.405 4.784C119.638 5.16667 119.755 5.66133 119.755 6.268V11H118.46V6.394C118.46 5.82933 118.311 5.41167 118.012 5.141C117.718 4.86567 117.335 4.728 116.864 4.728C116.537 4.728 116.232 4.78167 115.947 4.889C115.662 4.99167 115.431 5.15033 115.254 5.365C115.077 5.575 114.988 5.841 114.988 6.163V11H113.7ZM127.905 11.14C127.237 11.14 126.654 10.9977 126.155 10.713C125.66 10.4237 125.275 10.0013 125 9.446C124.724 8.89067 124.587 8.21167 124.587 7.409C124.587 6.653 124.715 5.99033 124.972 5.421C125.228 4.85167 125.604 4.41067 126.099 4.098C126.593 3.78067 127.198 3.622 127.912 3.622C128.579 3.622 129.158 3.769 129.648 4.063C130.138 4.35233 130.518 4.77933 130.789 5.344C131.064 5.90867 131.202 6.597 131.202 7.409C131.202 8.14633 131.076 8.795 130.824 9.355C130.572 9.915 130.201 10.3537 129.711 10.671C129.225 10.9837 128.623 11.14 127.905 11.14ZM127.912 10.118C128.341 10.118 128.705 10.0083 129.004 9.789C129.302 9.56967 129.529 9.25467 129.683 8.844C129.841 8.43333 129.921 7.94567 129.921 7.381C129.921 6.863 129.851 6.39867 129.711 5.988C129.575 5.57267 129.361 5.24367 129.067 5.001C128.773 4.75833 128.388 4.637 127.912 4.637C127.473 4.637 127.102 4.74667 126.799 4.966C126.495 5.18067 126.264 5.49333 126.106 5.904C125.952 6.31467 125.875 6.807 125.875 7.381C125.875 7.88967 125.942 8.35167 126.078 8.767C126.218 9.18233 126.437 9.51133 126.736 9.754C127.039 9.99667 127.431 10.118 127.912 10.118ZM132.923 11V3.762H134.176V4.812C134.292 4.61133 134.453 4.42233 134.659 4.245C134.869 4.06767 135.121 3.92533 135.415 3.818C135.713 3.71067 136.056 3.657 136.444 3.657C136.901 3.657 137.321 3.748 137.704 3.93C138.091 4.112 138.399 4.39667 138.628 4.784C138.861 5.16667 138.978 5.66133 138.978 6.268V11H137.683V6.394C137.683 5.82933 137.533 5.41167 137.235 5.141C136.941 4.86567 136.558 4.728 136.087 4.728C135.76 4.728 135.454 4.78167 135.17 4.889C134.885 4.99167 134.654 5.15033 134.477 5.365C134.299 5.575 134.211 5.841 134.211 6.163V11H132.923ZM142.83 11.091C142.438 11.091 142.12 11.0373 141.878 10.93C141.64 10.8227 141.455 10.678 141.325 10.496C141.199 10.314 141.112 10.1063 141.066 9.873C141.024 9.635 141.003 9.39 141.003 9.138V0.598H142.277V9.012C142.277 9.376 142.347 9.649 142.487 9.831C142.631 10.013 142.832 10.1133 143.089 10.132L143.481 10.139V10.979C143.373 11.0117 143.261 11.0373 143.145 11.056C143.028 11.0793 142.923 11.091 142.83 11.091ZM145.208 11V3.762H146.461V11H145.208ZM145.173 2.229V0.885H146.496V2.229H145.173ZM148.714 11V3.762H149.967V4.812C150.083 4.61133 150.244 4.42233 150.45 4.245C150.66 4.06767 150.912 3.92533 151.206 3.818C151.504 3.71067 151.847 3.657 152.235 3.657C152.692 3.657 153.112 3.748 153.495 3.93C153.882 4.112 154.19 4.39667 154.419 4.784C154.652 5.16667 154.769 5.66133 154.769 6.268V11H153.474V6.394C153.474 5.82933 153.324 5.41167 153.026 5.141C152.732 4.86567 152.349 4.728 151.878 4.728C151.551 4.728 151.245 4.78167 150.961 4.889C150.676 4.99167 150.445 5.15033 150.268 5.365C150.09 5.575 150.002 5.841 150.002 6.163V11H148.714ZM159.853 11.14C159.181 11.14 158.588 10.993 158.075 10.699C157.561 10.405 157.16 9.98267 156.871 9.432C156.581 8.88133 156.437 8.221 156.437 7.451C156.437 6.69033 156.567 6.023 156.829 5.449C157.09 4.875 157.468 4.427 157.963 4.105C158.462 3.783 159.062 3.622 159.762 3.622C160.443 3.622 161.019 3.769 161.491 4.063C161.962 4.357 162.319 4.77233 162.562 5.309C162.809 5.841 162.933 6.47333 162.933 7.206V7.682H157.746C157.746 8.13933 157.82 8.55467 157.97 8.928C158.124 9.29667 158.355 9.59067 158.663 9.81C158.971 10.0293 159.36 10.139 159.832 10.139C160.294 10.139 160.69 10.0317 161.022 9.817C161.358 9.60233 161.572 9.292 161.666 8.886H162.884C162.8 9.376 162.604 9.789 162.296 10.125C161.992 10.461 161.626 10.7153 161.197 10.888C160.772 11.056 160.324 11.14 159.853 11.14ZM157.753 6.807H161.687C161.687 6.39167 161.617 6.01833 161.477 5.687C161.337 5.351 161.122 5.08733 160.833 4.896C160.548 4.7 160.189 4.602 159.755 4.602C159.302 4.602 158.926 4.71167 158.628 4.931C158.329 5.14567 158.107 5.42333 157.963 5.764C157.818 6.1 157.748 6.44767 157.753 6.807ZM170.927 11.14C170.255 11.14 169.662 10.993 169.149 10.699C168.636 10.405 168.234 9.98267 167.945 9.432C167.656 8.88133 167.511 8.221 167.511 7.451C167.511 6.69033 167.642 6.023 167.903 5.449C168.164 4.875 168.542 4.427 169.037 4.105C169.536 3.783 170.136 3.622 170.836 3.622C171.517 3.622 172.094 3.769 172.565 4.063C173.036 4.357 173.393 4.77233 173.636 5.309C173.883 5.841 174.007 6.47333 174.007 7.206V7.682H168.82C168.82 8.13933 168.895 8.55467 169.044 8.928C169.198 9.29667 169.429 9.59067 169.737 9.81C170.045 10.0293 170.435 10.139 170.906 10.139C171.368 10.139 171.765 10.0317 172.096 9.817C172.432 9.60233 172.647 9.292 172.74 8.886H173.958C173.874 9.376 173.678 9.789 173.37 10.125C173.067 10.461 172.7 10.7153 172.271 10.888C171.846 11.056 171.398 11.14 170.927 11.14ZM168.827 6.807H172.761C172.761 6.39167 172.691 6.01833 172.551 5.687C172.411 5.351 172.196 5.08733 171.907 4.896C171.622 4.7 171.263 4.602 170.829 4.602C170.376 4.602 170.001 4.71167 169.702 4.931C169.403 5.14567 169.182 5.42333 169.037 5.764C168.892 6.1 168.822 6.44767 168.827 6.807ZM179.788 11.14C178.878 11.14 178.101 10.9323 177.457 10.517C176.817 10.1017 176.327 9.50433 175.987 8.725C175.651 7.94567 175.483 7.00533 175.483 5.904C175.483 4.80733 175.651 3.874 175.987 3.104C176.323 2.334 176.81 1.74833 177.45 1.347C178.094 0.940999 178.873 0.737999 179.788 0.737999C180.502 0.737999 181.134 0.887333 181.685 1.186C182.235 1.48 182.679 1.87433 183.015 2.369C183.351 2.86367 183.549 3.40733 183.61 4H182.231C182.156 3.60333 182.014 3.244 181.804 2.922C181.594 2.6 181.318 2.34333 180.978 2.152C180.637 1.96067 180.229 1.865 179.753 1.865C179.141 1.865 178.623 2.00967 178.199 2.299C177.779 2.58367 177.459 3.02467 177.24 3.622C177.025 4.21933 176.918 4.98467 176.918 5.918C176.918 7.32733 177.158 8.36333 177.639 9.026C178.124 9.684 178.829 10.013 179.753 10.013C180.229 10.013 180.637 9.91267 180.978 9.712C181.318 9.51133 181.594 9.243 181.804 8.907C182.014 8.571 182.156 8.207 182.231 7.815H183.61C183.558 8.24433 183.442 8.65967 183.26 9.061C183.082 9.45767 182.837 9.81233 182.525 10.125C182.212 10.4377 181.827 10.685 181.37 10.867C180.917 11.049 180.39 11.14 179.788 11.14ZM188.321 11.14C187.653 11.14 187.07 10.9977 186.571 10.713C186.076 10.4237 185.691 10.0013 185.416 9.446C185.14 8.89067 185.003 8.21167 185.003 7.409C185.003 6.653 185.131 5.99033 185.388 5.421C185.644 4.85167 186.02 4.41067 186.515 4.098C187.009 3.78067 187.614 3.622 188.328 3.622C188.995 3.622 189.574 3.769 190.064 4.063C190.554 4.35233 190.934 4.77933 191.205 5.344C191.48 5.90867 191.618 6.597 191.618 7.409C191.618 8.14633 191.492 8.795 191.24 9.355C190.988 9.915 190.617 10.3537 190.127 10.671C189.641 10.9837 189.039 11.14 188.321 11.14ZM188.328 10.118C188.757 10.118 189.121 10.0083 189.42 9.789C189.718 9.56967 189.945 9.25467 190.099 8.844C190.257 8.43333 190.337 7.94567 190.337 7.381C190.337 6.863 190.267 6.39867 190.127 5.988C189.991 5.57267 189.777 5.24367 189.483 5.001C189.189 4.75833 188.804 4.637 188.328 4.637C187.889 4.637 187.518 4.74667 187.215 4.966C186.911 5.18067 186.68 5.49333 186.522 5.904C186.368 6.31467 186.291 6.807 186.291 7.381C186.291 7.88967 186.358 8.35167 186.494 8.767C186.634 9.18233 186.853 9.51133 187.152 9.754C187.455 9.99667 187.847 10.118 188.328 10.118ZM193.339 11V3.762H194.585V4.812C194.785 4.49467 195.061 4.217 195.411 3.979C195.761 3.741 196.216 3.622 196.776 3.622C197.037 3.622 197.303 3.66633 197.574 3.755C197.849 3.84367 198.101 3.97667 198.33 4.154C198.558 4.33133 198.736 4.54833 198.862 4.805C199.086 4.45033 199.389 4.16567 199.772 3.951C200.154 3.73167 200.586 3.622 201.067 3.622C201.319 3.622 201.582 3.66167 201.858 3.741C202.133 3.81567 202.387 3.951 202.621 4.147C202.859 4.33833 203.052 4.60667 203.202 4.952C203.351 5.29267 203.426 5.73133 203.426 6.268V11H202.124V6.394C202.124 5.95533 202.054 5.617 201.914 5.379C201.774 5.13633 201.589 4.966 201.361 4.868C201.137 4.77 200.896 4.721 200.64 4.721C200.416 4.721 200.178 4.76533 199.926 4.854C199.674 4.94267 199.459 5.092 199.282 5.302C199.104 5.512 199.016 5.799 199.016 6.163V11H197.728V6.016C197.728 5.73133 197.651 5.49333 197.497 5.302C197.347 5.11067 197.158 4.966 196.93 4.868C196.706 4.77 196.482 4.721 196.258 4.721C196.01 4.721 195.761 4.77 195.509 4.868C195.261 4.966 195.051 5.12233 194.879 5.337C194.711 5.547 194.627 5.82233 194.627 6.163V11H193.339ZM205.452 11V3.762H206.698V4.812C206.899 4.49467 207.174 4.217 207.524 3.979C207.874 3.741 208.329 3.622 208.889 3.622C209.15 3.622 209.416 3.66633 209.687 3.755C209.962 3.84367 210.214 3.97667 210.443 4.154C210.672 4.33133 210.849 4.54833 210.975 4.805C211.199 4.45033 211.502 4.16567 211.885 3.951C212.268 3.73167 212.699 3.622 213.18 3.622C213.432 3.622 213.696 3.66167 213.971 3.741C214.246 3.81567 214.501 3.951 214.734 4.147C214.972 4.33833 215.166 4.60667 215.315 4.952C215.464 5.29267 215.539 5.73133 215.539 6.268V11H214.237V6.394C214.237 5.95533 214.167 5.617 214.027 5.379C213.887 5.13633 213.703 4.966 213.474 4.868C213.25 4.77 213.01 4.721 212.753 4.721C212.529 4.721 212.291 4.76533 212.039 4.854C211.787 4.94267 211.572 5.092 211.395 5.302C211.218 5.512 211.129 5.799 211.129 6.163V11H209.841V6.016C209.841 5.73133 209.764 5.49333 209.61 5.302C209.461 5.11067 209.272 4.966 209.043 4.868C208.819 4.77 208.595 4.721 208.371 4.721C208.124 4.721 207.874 4.77 207.622 4.868C207.375 4.966 207.165 5.12233 206.992 5.337C206.824 5.547 206.74 5.82233 206.74 6.163V11H205.452ZM220.624 11.14C219.952 11.14 219.359 10.993 218.846 10.699C218.333 10.405 217.931 9.98267 217.642 9.432C217.353 8.88133 217.208 8.221 217.208 7.451C217.208 6.69033 217.339 6.023 217.6 5.449C217.861 4.875 218.239 4.427 218.734 4.105C219.233 3.783 219.833 3.622 220.533 3.622C221.214 3.622 221.791 3.769 222.262 4.063C222.733 4.357 223.09 4.77233 223.333 5.309C223.58 5.841 223.704 6.47333 223.704 7.206V7.682H218.517C218.517 8.13933 218.592 8.55467 218.741 8.928C218.895 9.29667 219.126 9.59067 219.434 9.81C219.742 10.0293 220.132 10.139 220.603 10.139C221.065 10.139 221.462 10.0317 221.793 9.817C222.129 9.60233 222.344 9.292 222.437 8.886H223.655C223.571 9.376 223.375 9.789 223.067 10.125C222.764 10.461 222.397 10.7153 221.968 10.888C221.543 11.056 221.095 11.14 220.624 11.14ZM218.524 6.807H222.458C222.458 6.39167 222.388 6.01833 222.248 5.687C222.108 5.351 221.893 5.08733 221.604 4.896C221.319 4.7 220.96 4.602 220.526 4.602C220.073 4.602 219.698 4.71167 219.399 4.931C219.1 5.14567 218.879 5.42333 218.734 5.764C218.589 6.1 218.519 6.44767 218.524 6.807ZM225.495 11V3.762H226.727V5.155C226.848 4.80967 227.018 4.525 227.238 4.301C227.457 4.07233 227.707 3.902 227.987 3.79C228.271 3.678 228.565 3.622 228.869 3.622C228.976 3.622 229.081 3.629 229.184 3.643C229.286 3.657 229.366 3.68033 229.422 3.713V4.966C229.352 4.93333 229.261 4.91233 229.149 4.903C229.041 4.889 228.95 4.882 228.876 4.882C228.586 4.86333 228.316 4.882 228.064 4.938C227.812 4.98933 227.59 5.08033 227.399 5.211C227.207 5.34167 227.056 5.51433 226.944 5.729C226.836 5.939 226.783 6.19567 226.783 6.499V11H225.495ZM233.766 11.14C233.113 11.14 232.534 10.9977 232.03 10.713C231.531 10.4283 231.139 10.0083 230.854 9.453C230.574 8.89767 230.434 8.21633 230.434 7.409C230.434 6.653 230.563 5.99267 230.819 5.428C231.081 4.85867 231.459 4.41533 231.953 4.098C232.453 3.78067 233.057 3.622 233.766 3.622C234.284 3.622 234.749 3.72233 235.159 3.923C235.575 4.119 235.915 4.399 236.181 4.763C236.447 5.127 236.611 5.55633 236.671 6.051H235.523C235.481 5.799 235.383 5.568 235.229 5.358C235.08 5.148 234.882 4.98 234.634 4.854C234.392 4.728 234.105 4.665 233.773 4.665C233.153 4.665 232.646 4.889 232.254 5.337C231.867 5.785 231.673 6.471 231.673 7.395C231.673 8.23033 231.851 8.9 232.205 9.404C232.565 9.90333 233.092 10.153 233.787 10.153C234.119 10.153 234.408 10.09 234.655 9.964C234.903 9.83333 235.101 9.663 235.25 9.453C235.4 9.23833 235.495 9.00967 235.537 8.767H236.664C236.604 9.25233 236.438 9.67233 236.167 10.027C235.901 10.3817 235.561 10.657 235.145 10.853C234.735 11.0443 234.275 11.14 233.766 11.14ZM241.487 11.14C240.815 11.14 240.223 10.993 239.709 10.699C239.196 10.405 238.795 9.98267 238.505 9.432C238.216 8.88133 238.071 8.221 238.071 7.451C238.071 6.69033 238.202 6.023 238.463 5.449C238.725 4.875 239.103 4.427 239.597 4.105C240.097 3.783 240.696 3.622 241.396 3.622C242.078 3.622 242.654 3.769 243.125 4.063C243.597 4.357 243.954 4.77233 244.196 5.309C244.444 5.841 244.567 6.47333 244.567 7.206V7.682H239.38C239.38 8.13933 239.455 8.55467 239.604 8.928C239.758 9.29667 239.989 9.59067 240.297 9.81C240.605 10.0293 240.995 10.139 241.466 10.139C241.928 10.139 242.325 10.0317 242.656 9.817C242.992 9.60233 243.207 9.292 243.3 8.886H244.518C244.434 9.376 244.238 9.789 243.93 10.125C243.627 10.461 243.261 10.7153 242.831 10.888C242.407 11.056 241.959 11.14 241.487 11.14ZM239.387 6.807H243.321C243.321 6.39167 243.251 6.01833 243.111 5.687C242.971 5.351 242.757 5.08733 242.467 4.896C242.183 4.7 241.823 4.602 241.389 4.602C240.937 4.602 240.561 4.71167 240.262 4.931C239.964 5.14567 239.742 5.42333 239.597 5.764C239.453 6.1 239.383 6.44767 239.387 6.807ZM252.284 11.14C251.78 11.14 251.311 11.063 250.877 10.909C250.448 10.7503 250.091 10.5053 249.806 10.174C249.522 9.838 249.344 9.411 249.274 8.893H250.45C250.511 9.17767 250.628 9.41567 250.8 9.607C250.973 9.79367 251.185 9.936 251.437 10.034C251.694 10.1273 251.974 10.174 252.277 10.174C252.767 10.174 253.162 10.083 253.46 9.901C253.759 9.719 253.908 9.439 253.908 9.061C253.908 8.795 253.829 8.58267 253.67 8.424C253.516 8.26067 253.274 8.14167 252.942 8.067L251.444 7.696C250.861 7.556 250.394 7.33667 250.044 7.038C249.699 6.73933 249.524 6.32167 249.519 5.785C249.519 5.36033 249.622 4.987 249.827 4.665C250.033 4.343 250.338 4.08867 250.744 3.902C251.155 3.71533 251.666 3.622 252.277 3.622C253.066 3.622 253.701 3.79933 254.181 4.154C254.662 4.504 254.914 5.01967 254.937 5.701H253.789C253.743 5.35567 253.589 5.08267 253.327 4.882C253.066 4.67667 252.711 4.574 252.263 4.574C251.806 4.574 251.43 4.66733 251.136 4.854C250.847 5.036 250.702 5.32067 250.702 5.708C250.702 5.96467 250.805 6.16767 251.01 6.317C251.22 6.46167 251.524 6.583 251.92 6.681L253.376 7.045C253.708 7.13367 253.983 7.25033 254.202 7.395C254.422 7.53967 254.594 7.70067 254.72 7.878C254.846 8.05533 254.935 8.242 254.986 8.438C255.042 8.62933 255.07 8.81367 255.07 8.991C255.07 9.43433 254.961 9.817 254.741 10.139C254.522 10.4563 254.205 10.7037 253.789 10.881C253.374 11.0537 252.872 11.14 252.284 11.14ZM259.265 11.035C258.766 11.035 258.378 10.9673 258.103 10.832C257.828 10.6967 257.634 10.496 257.522 10.23C257.415 9.964 257.361 9.63733 257.361 9.25V4.707H256.185V3.762H257.396L257.711 1.655H258.663V3.755H260.294V4.707H258.663V9.208C258.663 9.46467 258.689 9.65367 258.74 9.775C258.796 9.89167 258.887 9.96633 259.013 9.999C259.139 10.0317 259.316 10.048 259.545 10.048H260.336V10.916C260.247 10.9487 260.112 10.9767 259.93 11C259.753 11.0233 259.531 11.035 259.265 11.035ZM264.76 11.14C264.093 11.14 263.509 10.9977 263.01 10.713C262.515 10.4237 262.13 10.0013 261.855 9.446C261.58 8.89067 261.442 8.21167 261.442 7.409C261.442 6.653 261.57 5.99033 261.827 5.421C262.084 4.85167 262.459 4.41067 262.954 4.098C263.449 3.78067 264.053 3.622 264.767 3.622C265.434 3.622 266.013 3.769 266.503 4.063C266.993 4.35233 267.373 4.77933 267.644 5.344C267.919 5.90867 268.057 6.597 268.057 7.409C268.057 8.14633 267.931 8.795 267.679 9.355C267.427 9.915 267.056 10.3537 266.566 10.671C266.081 10.9837 265.479 11.14 264.76 11.14ZM264.767 10.118C265.196 10.118 265.56 10.0083 265.859 9.789C266.158 9.56967 266.384 9.25467 266.538 8.844C266.697 8.43333 266.776 7.94567 266.776 7.381C266.776 6.863 266.706 6.39867 266.566 5.988C266.431 5.57267 266.216 5.24367 265.922 5.001C265.628 4.75833 265.243 4.637 264.767 4.637C264.328 4.637 263.957 4.74667 263.654 4.966C263.351 5.18067 263.12 5.49333 262.961 5.904C262.807 6.31467 262.73 6.807 262.73 7.381C262.73 7.88967 262.798 8.35167 262.933 8.767C263.073 9.18233 263.292 9.51133 263.591 9.754C263.894 9.99667 264.286 10.118 264.767 10.118ZM269.778 11V3.762H271.01V5.155C271.131 4.80967 271.302 4.525 271.521 4.301C271.74 4.07233 271.99 3.902 272.27 3.79C272.555 3.678 272.849 3.622 273.152 3.622C273.259 3.622 273.364 3.629 273.467 3.643C273.57 3.657 273.649 3.68033 273.705 3.713V4.966C273.635 4.93333 273.544 4.91233 273.432 4.903C273.325 4.889 273.234 4.882 273.159 4.882C272.87 4.86333 272.599 4.882 272.347 4.938C272.095 4.98933 271.873 5.08033 271.682 5.211C271.491 5.34167 271.339 5.51433 271.227 5.729C271.12 5.939 271.066 6.19567 271.066 6.499V11H269.778ZM278.196 11.14C277.524 11.14 276.932 10.993 276.418 10.699C275.905 10.405 275.504 9.98267 275.214 9.432C274.925 8.88133 274.78 8.221 274.78 7.451C274.78 6.69033 274.911 6.023 275.172 5.449C275.434 4.875 275.812 4.427 276.306 4.105C276.806 3.783 277.405 3.622 278.105 3.622C278.787 3.622 279.363 3.769 279.834 4.063C280.306 4.357 280.663 4.77233 280.905 5.309C281.153 5.841 281.276 6.47333 281.276 7.206V7.682H276.089C276.089 8.13933 276.164 8.55467 276.313 8.928C276.467 9.29667 276.698 9.59067 277.006 9.81C277.314 10.0293 277.704 10.139 278.175 10.139C278.637 10.139 279.034 10.0317 279.365 9.817C279.701 9.60233 279.916 9.292 280.009 8.886H281.227C281.143 9.376 280.947 9.789 280.639 10.125C280.336 10.461 279.97 10.7153 279.54 10.888C279.116 11.056 278.668 11.14 278.196 11.14ZM276.096 6.807H280.03C280.03 6.39167 279.96 6.01833 279.82 5.687C279.68 5.351 279.466 5.08733 279.176 4.896C278.892 4.7 278.532 4.602 278.098 4.602C277.646 4.602 277.27 4.71167 276.971 4.931C276.673 5.14567 276.451 5.42333 276.306 5.764C276.162 6.1 276.092 6.44767 276.096 6.807ZM282.766 11V9.348H284.306V11H282.766Z" fill="white"/>
</svg>
