<svg width="331" height="37" viewBox="0 0 331 37" fill="none" xmlns="http://www.w3.org/2000/svg">
<path d="M31.16 36H23.912L15.368 22.656L6.968 36H0.632L12.272 18.336L1.016 1.296H8.216L15.92 13.44L23.576 1.296H29.864L18.992 17.64L31.16 36ZM49.0723 36.48C47.2963 36.48 45.8563 36.184 44.7523 35.592C43.6483 34.984 42.8003 34.248 42.2083 33.384C41.6163 32.52 41.1923 31.696 40.9363 30.912L40.2643 36H35.9683V0.335999H41.8243V14.808C42.3363 13.864 43.2483 12.944 44.5603 12.048C45.8723 11.152 47.5523 10.704 49.6003 10.704C52.6883 10.704 55.1283 11.8 56.9203 13.992C58.7123 16.184 59.6083 19.344 59.6083 23.472C59.6083 27.392 58.7203 30.544 56.9443 32.928C55.1683 35.296 52.5443 36.48 49.0723 36.48ZM47.8723 32.184C49.6163 32.184 51.0483 31.496 52.1683 30.12C53.2883 28.728 53.8483 26.464 53.8483 23.328C53.8483 20.592 53.3203 18.528 52.2643 17.136C51.2083 15.744 49.7203 15.048 47.8003 15.048C45.7363 15.048 44.2323 15.752 43.2883 17.16C42.3443 18.568 41.8563 20.624 41.8243 23.328C41.8243 26.496 42.3043 28.768 43.2643 30.144C44.2403 31.504 45.7763 32.184 47.8723 32.184ZM75.0924 36.48C71.5244 36.48 68.6764 35.36 66.5484 33.12C64.4204 30.864 63.3564 27.728 63.3564 23.712C63.3564 21.12 63.8204 18.848 64.7484 16.896C65.6924 14.944 67.0364 13.424 68.7804 12.336C70.5404 11.248 72.6524 10.704 75.1164 10.704C78.6524 10.704 81.4764 11.856 83.5884 14.16C85.7004 16.464 86.7564 19.648 86.7564 23.712C86.7564 26.224 86.3004 28.44 85.3884 30.36C84.4924 32.28 83.1724 33.784 81.4284 34.872C79.7004 35.944 77.5884 36.48 75.0924 36.48ZM75.1164 32.04C77.1164 32.04 78.5964 31.24 79.5564 29.64C80.5324 28.04 81.0204 26.008 81.0204 23.544C81.0204 22.024 80.8284 20.624 80.4444 19.344C80.0604 18.064 79.4364 17.04 78.5724 16.272C77.7084 15.488 76.5564 15.096 75.1164 15.096C73.0684 15.096 71.5484 15.88 70.5564 17.448C69.5804 19.016 69.0924 21.048 69.0924 23.544C69.0924 25.048 69.2844 26.448 69.6684 27.744C70.0684 29.024 70.7084 30.064 71.5884 30.864C72.4684 31.648 73.6444 32.04 75.1164 32.04ZM113.341 36H107.149L100.621 27.168L94.1169 36H87.9249L97.4529 23.088L88.7169 11.184H94.9089L100.645 18.936L106.381 11.184H112.597L103.789 23.088L113.341 36ZM142.759 0.815998C145.287 0.815998 147.535 1.336 149.503 2.376C151.487 3.416 153.079 4.816 154.279 6.576C155.495 8.32 156.215 10.272 156.439 12.432H150.271C149.919 10.528 149.103 8.936 147.823 7.656C146.543 6.36 144.799 5.712 142.591 5.712C139.823 5.712 137.687 6.72 136.183 8.736C134.679 10.736 133.927 13.992 133.927 18.504C133.927 23.064 134.679 26.384 136.183 28.464C137.687 30.544 139.823 31.584 142.591 31.584C144.063 31.584 145.327 31.264 146.383 30.624C147.439 29.968 148.287 29.104 148.927 28.032C149.583 26.944 150.031 25.76 150.271 24.48H156.439C156.167 26.592 155.535 28.56 154.543 30.384C153.551 32.208 152.095 33.68 150.175 34.8C148.271 35.92 145.799 36.48 142.759 36.48C139.575 36.48 136.839 35.752 134.551 34.296C132.279 32.824 130.527 30.744 129.295 28.056C128.079 25.352 127.471 22.144 127.471 18.432C127.471 14.736 128.079 11.576 129.295 8.952C130.511 6.312 132.255 4.296 134.527 2.904C136.815 1.512 139.559 0.815998 142.759 0.815998ZM172.499 36.48C168.931 36.48 166.083 35.36 163.955 33.12C161.827 30.864 160.763 27.728 160.763 23.712C160.763 21.12 161.227 18.848 162.155 16.896C163.099 14.944 164.443 13.424 166.187 12.336C167.947 11.248 170.059 10.704 172.523 10.704C176.059 10.704 178.883 11.856 180.995 14.16C183.107 16.464 184.163 19.648 184.163 23.712C184.163 26.224 183.707 28.44 182.795 30.36C181.899 32.28 180.579 33.784 178.835 34.872C177.107 35.944 174.995 36.48 172.499 36.48ZM172.523 32.04C174.523 32.04 176.003 31.24 176.963 29.64C177.939 28.04 178.427 26.008 178.427 23.544C178.427 22.024 178.235 20.624 177.851 19.344C177.467 18.064 176.843 17.04 175.979 16.272C175.115 15.488 173.963 15.096 172.523 15.096C170.475 15.096 168.955 15.88 167.963 17.448C166.987 19.016 166.499 21.048 166.499 23.544C166.499 25.048 166.691 26.448 167.075 27.744C167.475 29.024 168.115 30.064 168.995 30.864C169.875 31.648 171.051 32.04 172.523 32.04ZM189.343 36V11.184H195.055V14.736C195.631 13.776 196.519 12.896 197.719 12.096C198.935 11.296 200.535 10.896 202.519 10.896C204.055 10.896 205.479 11.2 206.791 11.808C208.119 12.416 209.183 13.368 209.983 14.664C210.799 15.96 211.207 17.632 211.207 19.68V36H205.351V20.376C205.351 18.76 204.895 17.552 203.983 16.752C203.087 15.952 201.967 15.552 200.623 15.552C199.215 15.552 197.951 15.904 196.831 16.608C195.727 17.312 195.175 18.376 195.175 19.8V36H189.343ZM226.429 36.48C224.701 36.48 223.069 36.208 221.533 35.664C219.997 35.104 218.701 34.232 217.645 33.048C216.589 31.864 215.925 30.336 215.653 28.464H220.789C221.109 29.84 221.813 30.832 222.901 31.44C223.989 32.048 225.157 32.352 226.405 32.352C227.893 32.352 229.093 32.096 230.005 31.584C230.933 31.072 231.397 30.28 231.397 29.208C231.397 28.424 231.141 27.8 230.629 27.336C230.117 26.872 229.301 26.52 228.181 26.28L223.453 25.2C221.341 24.736 219.653 23.968 218.389 22.896C217.125 21.824 216.485 20.312 216.469 18.36C216.453 16.152 217.285 14.328 218.965 12.888C220.661 11.432 223.157 10.704 226.453 10.704C229.333 10.704 231.645 11.352 233.389 12.648C235.149 13.928 236.053 15.76 236.101 18.144H231.133C230.957 17.088 230.453 16.256 229.621 15.648C228.789 15.04 227.709 14.736 226.381 14.736C225.005 14.736 223.877 15 222.997 15.528C222.117 16.056 221.677 16.864 221.677 17.952C221.677 18.704 222.005 19.304 222.661 19.752C223.333 20.184 224.349 20.544 225.709 20.832L230.173 21.912C231.869 22.344 233.173 22.96 234.085 23.76C234.997 24.56 235.621 25.424 235.957 26.352C236.309 27.264 236.485 28.104 236.485 28.872C236.485 31.272 235.573 33.144 233.749 34.488C231.941 35.816 229.501 36.48 226.429 36.48ZM252.28 36.48C248.712 36.48 245.864 35.36 243.736 33.12C241.608 30.864 240.544 27.728 240.544 23.712C240.544 21.12 241.008 18.848 241.936 16.896C242.88 14.944 244.224 13.424 245.968 12.336C247.728 11.248 249.84 10.704 252.304 10.704C255.84 10.704 258.664 11.856 260.776 14.16C262.888 16.464 263.944 19.648 263.944 23.712C263.944 26.224 263.488 28.44 262.576 30.36C261.68 32.28 260.36 33.784 258.616 34.872C256.888 35.944 254.776 36.48 252.28 36.48ZM252.304 32.04C254.304 32.04 255.784 31.24 256.744 29.64C257.72 28.04 258.208 26.008 258.208 23.544C258.208 22.024 258.016 20.624 257.632 19.344C257.248 18.064 256.624 17.04 255.76 16.272C254.896 15.488 253.744 15.096 252.304 15.096C250.256 15.096 248.736 15.88 247.744 17.448C246.768 19.016 246.28 21.048 246.28 23.544C246.28 25.048 246.472 26.448 246.856 27.744C247.256 29.024 247.896 30.064 248.776 30.864C249.656 31.648 250.832 32.04 252.304 32.04ZM276.277 36.36C274.133 36.36 272.549 36.024 271.525 35.352C270.517 34.664 269.861 33.776 269.557 32.688C269.269 31.6 269.125 30.472 269.125 29.304V0.335999H274.837V28.632C274.837 29.704 275.053 30.536 275.485 31.128C275.933 31.72 276.653 32.064 277.645 32.16L278.893 32.208V35.88C278.461 36.024 278.013 36.136 277.549 36.216C277.101 36.312 276.677 36.36 276.277 36.36ZM288.334 24.936C288.318 27.048 288.83 28.784 289.87 30.144C290.926 31.488 292.454 32.16 294.454 32.16C295.83 32.16 297.022 31.856 298.03 31.248C299.054 30.624 299.734 29.68 300.07 28.416H305.422C305.118 30.144 304.422 31.608 303.334 32.808C302.262 34.008 300.95 34.92 299.398 35.544C297.862 36.168 296.262 36.48 294.598 36.48C292.198 36.48 290.086 35.976 288.262 34.968C286.454 33.944 285.038 32.488 284.014 30.6C283.006 28.712 282.502 26.464 282.502 23.856C282.502 21.312 282.966 19.056 283.894 17.088C284.822 15.104 286.158 13.544 287.902 12.408C289.646 11.272 291.758 10.704 294.238 10.704C297.902 10.704 300.694 11.848 302.614 14.136C304.534 16.408 305.494 19.416 305.494 23.16V24.936H288.334ZM288.334 21.312H299.974C299.974 19.52 299.502 18.008 298.558 16.776C297.614 15.528 296.166 14.904 294.214 14.904C292.934 14.904 291.854 15.216 290.974 15.84C290.094 16.464 289.43 17.272 288.982 18.264C288.534 19.24 288.318 20.256 288.334 21.312ZM320.132 36.48C318.404 36.48 316.772 36.208 315.236 35.664C313.7 35.104 312.404 34.232 311.348 33.048C310.292 31.864 309.628 30.336 309.356 28.464H314.492C314.812 29.84 315.516 30.832 316.604 31.44C317.692 32.048 318.86 32.352 320.108 32.352C321.596 32.352 322.796 32.096 323.708 31.584C324.636 31.072 325.1 30.28 325.1 29.208C325.1 28.424 324.844 27.8 324.332 27.336C323.82 26.872 323.004 26.52 321.884 26.28L317.156 25.2C315.044 24.736 313.356 23.968 312.092 22.896C310.828 21.824 310.188 20.312 310.172 18.36C310.156 16.152 310.988 14.328 312.668 12.888C314.364 11.432 316.86 10.704 320.156 10.704C323.036 10.704 325.348 11.352 327.092 12.648C328.852 13.928 329.756 15.76 329.804 18.144H324.836C324.66 17.088 324.156 16.256 323.324 15.648C322.492 15.04 321.412 14.736 320.084 14.736C318.708 14.736 317.58 15 316.7 15.528C315.82 16.056 315.38 16.864 315.38 17.952C315.38 18.704 315.708 19.304 316.364 19.752C317.036 20.184 318.052 20.544 319.412 20.832L323.876 21.912C325.572 22.344 326.876 22.96 327.788 23.76C328.7 24.56 329.324 25.424 329.66 26.352C330.012 27.264 330.188 28.104 330.188 28.872C330.188 31.272 329.276 33.144 327.452 34.488C325.644 35.816 323.204 36.48 320.132 36.48Z" fill="#191C1F"/>
</svg>
