<svg width="117" height="25" viewBox="0 0 117 25" fill="none" xmlns="http://www.w3.org/2000/svg">
<path d="M11.016 0.543999C12.7547 0.543999 14.3013 0.895999 15.656 1.6C17.0213 2.29333 18.12 3.24267 18.952 4.448C19.7947 5.65333 20.2907 7.01333 20.44 8.528H15.544C15.3947 7.728 15.1227 7.01867 14.728 6.4C14.3333 5.77067 13.816 5.28 13.176 4.928C12.536 4.56533 11.768 4.384 10.872 4.384C9.79467 4.384 8.86667 4.64533 8.088 5.168C7.30933 5.69067 6.712 6.53333 6.296 7.696C5.88 8.85867 5.672 10.3947 5.672 12.304C5.672 15.184 6.13067 17.2693 7.048 18.56C7.976 19.84 9.25067 20.48 10.872 20.48C11.768 20.48 12.536 20.2773 13.176 19.872C13.816 19.456 14.3333 18.912 14.728 18.24C15.1227 17.5573 15.3947 16.8107 15.544 16H20.44C20.3013 17.0987 20.0347 18.1493 19.64 19.152C19.2453 20.144 18.6853 21.0293 17.96 21.808C17.2347 22.5867 16.3013 23.2 15.16 23.648C14.0187 24.096 12.6373 24.32 11.016 24.32C8.86133 24.32 7 23.8187 5.432 22.816C3.864 21.8133 2.65333 20.4053 1.8 18.592C0.957333 16.7787 0.536 14.6613 0.536 12.24C0.536 9.808 0.957333 7.72267 1.8 5.984C2.64267 4.23467 3.848 2.89067 5.416 1.952C6.984 1.01333 8.85067 0.543999 11.016 0.543999ZM23.9208 0.863998H28.6248V20.048H38.6728V24H23.9208V0.863998ZM41.7495 0.863998H46.4055V24H41.7495V0.863998ZM60.3773 0.543999C62.1159 0.543999 63.6626 0.895999 65.0173 1.6C66.3826 2.29333 67.4813 3.24267 68.3133 4.448C69.1559 5.65333 69.6519 7.01333 69.8013 8.528H64.9053C64.7559 7.728 64.4839 7.01867 64.0893 6.4C63.6946 5.77067 63.1773 5.28 62.5373 4.928C61.8973 4.56533 61.1293 4.384 60.2333 4.384C59.1559 4.384 58.2279 4.64533 57.4493 5.168C56.6706 5.69067 56.0733 6.53333 55.6573 7.696C55.2413 8.85867 55.0333 10.3947 55.0333 12.304C55.0333 15.184 55.4919 17.2693 56.4093 18.56C57.3373 19.84 58.6119 20.48 60.2333 20.48C61.1293 20.48 61.8973 20.2773 62.5373 19.872C63.1773 19.456 63.6946 18.912 64.0893 18.24C64.4839 17.5573 64.7559 16.8107 64.9053 16H69.8013C69.6626 17.0987 69.3959 18.1493 69.0013 19.152C68.6066 20.144 68.0466 21.0293 67.3213 21.808C66.5959 22.5867 65.6626 23.2 64.5213 23.648C63.3799 24.096 61.9986 24.32 60.3773 24.32C58.2226 24.32 56.3613 23.8187 54.7933 22.816C53.2253 21.8133 52.0146 20.4053 51.1613 18.592C50.3186 16.7787 49.8973 14.6613 49.8973 12.24C49.8973 9.808 50.3186 7.72267 51.1613 5.984C52.0039 4.23467 53.2093 2.89067 54.7773 1.952C56.3453 1.01333 58.2119 0.543999 60.3773 0.543999ZM82.898 24.32C80.7113 24.32 78.818 23.8453 77.218 22.896C75.6287 21.936 74.3967 20.576 73.522 18.816C72.658 17.0453 72.226 14.9333 72.226 12.48C72.226 10.016 72.6633 7.89333 73.538 6.112C74.4233 4.33067 75.666 2.96 77.266 2C78.866 1.02933 80.7433 0.543999 82.898 0.543999C85.042 0.543999 86.9087 1.024 88.498 1.984C90.0873 2.944 91.314 4.31467 92.178 6.096C93.0527 7.87733 93.49 10.0053 93.49 12.48C93.49 14.9227 93.058 17.0293 92.194 18.8C91.3407 20.5707 90.1193 21.936 88.53 22.896C86.9407 23.8453 85.0633 24.32 82.898 24.32ZM82.898 20.48C84.0287 20.48 85.0047 20.2133 85.826 19.68C86.658 19.136 87.298 18.2827 87.746 17.12C88.194 15.9467 88.418 14.4213 88.418 12.544C88.418 10.6133 88.1887 9.05067 87.73 7.856C87.282 6.66133 86.642 5.78667 85.81 5.232C84.9887 4.66667 84.018 4.384 82.898 4.384C81.778 4.384 80.802 4.66667 79.97 5.232C79.138 5.78667 78.4927 6.66667 78.034 7.872C77.5753 9.06667 77.346 10.624 77.346 12.544C77.346 14.432 77.5753 15.9573 78.034 17.12C78.4927 18.2827 79.138 19.136 79.97 19.68C80.802 20.2133 81.778 20.48 82.898 20.48ZM112.17 0.863998H116.842V24H112.634L101.642 8.08V24H96.9858V0.863998H101.61L112.17 16.176V0.863998Z" fill="#191C1F"/>
</svg>
