<svg width="122" height="122" viewBox="0 0 122 122" fill="none" xmlns="http://www.w3.org/2000/svg">
<rect x="3" y="3" width="116" height="116" rx="58" fill="#FFCEAD"/>
<rect x="3" y="3" width="116" height="116" rx="58" stroke="white" stroke-width="6"/>
<path d="M37.94 68.2C36.3 68.2 34.9567 67.86 33.91 67.18C32.8633 66.5 32.2533 65.4733 32.08 64.1L34.62 64.01C34.8 64.7433 35.18 65.2967 35.76 65.67C36.3467 66.0367 37.07 66.22 37.93 66.22C38.4433 66.22 38.9133 66.1333 39.34 65.96C39.7667 65.7867 40.1067 65.5467 40.36 65.24C40.6133 64.9333 40.74 64.58 40.74 64.18C40.74 63.6 40.56 63.1533 40.2 62.84C39.8467 62.52 39.29 62.27 38.53 62.09L36.1 61.51C35.02 61.2633 34.1567 60.83 33.51 60.21C32.8633 59.5833 32.5333 58.7433 32.52 57.69C32.5133 56.8167 32.7433 56.0567 33.21 55.41C33.6833 54.7567 34.3333 54.2533 35.16 53.9C35.9867 53.54 36.9233 53.36 37.97 53.36C39.0167 53.36 39.92 53.5533 40.68 53.94C41.44 54.32 42.0267 54.83 42.44 55.47C42.8533 56.11 43.0633 56.8133 43.07 57.58L40.6 57.66C40.4867 56.92 40.23 56.35 39.83 55.95C39.43 55.5433 38.8167 55.34 37.99 55.34C37.59 55.34 37.2167 55.3867 36.87 55.48C36.5233 55.5733 36.22 55.71 35.96 55.89C35.7 56.07 35.4967 56.29 35.35 56.55C35.2033 56.8033 35.13 57.0933 35.13 57.42C35.13 57.8867 35.29 58.2567 35.61 58.53C35.9367 58.7967 36.53 59.0533 37.39 59.3L39.75 59.92C41.0233 60.2467 41.9367 60.78 42.49 61.52C43.05 62.26 43.33 63.14 43.33 64.16C43.33 64.9667 43.1067 65.6733 42.66 66.28C42.2133 66.88 41.5833 67.35 40.77 67.69C39.9633 68.03 39.02 68.2 37.94 68.2ZM36.9 51.43H39.06V54.02H36.9V51.43ZM36.82 67.4H38.97V69.99H36.82V67.4ZM47.988 68V56.86H45.308V55.41C46.1546 55.41 46.8246 55.34 47.318 55.2C47.818 55.0533 48.1813 54.84 48.408 54.56C48.6413 54.28 48.7746 53.94 48.808 53.54H50.468V68H47.988ZM58.8069 68.22C57.9602 68.22 57.1669 68.0567 56.4269 67.73C55.6869 67.4033 55.0769 66.94 54.5969 66.34C54.1169 65.74 53.8369 65.0333 53.7569 64.22H56.0869C56.2269 64.8267 56.5302 65.32 56.9969 65.7C57.4635 66.0733 58.0369 66.26 58.7169 66.26C59.4835 66.26 60.1469 66.07 60.7069 65.69C61.2735 65.31 61.6969 64.7133 61.9769 63.9C62.2569 63.0867 62.3602 62.03 62.2869 60.73C62.1069 61.1567 61.8435 61.53 61.4969 61.85C61.1569 62.17 60.7502 62.42 60.2769 62.6C59.8102 62.7733 59.2902 62.86 58.7169 62.86C57.7502 62.86 56.8935 62.6767 56.1469 62.31C55.4069 61.9367 54.8269 61.4067 54.4069 60.72C53.9869 60.0267 53.7769 59.2067 53.7769 58.26C53.7769 57.3 53.9902 56.45 54.4169 55.71C54.8502 54.97 55.4569 54.39 56.2369 53.97C57.0235 53.55 57.9469 53.34 59.0069 53.34C60.1869 53.34 61.2069 53.63 62.0669 54.21C62.9269 54.79 63.5869 55.6167 64.0469 56.69C64.5135 57.7633 64.7469 59.0367 64.7469 60.51C64.7469 62.19 64.5102 63.6033 64.0369 64.75C63.5702 65.89 62.8935 66.7533 62.0069 67.34C61.1269 67.9267 60.0602 68.22 58.8069 68.22ZM59.0769 60.88C59.5435 60.88 59.9902 60.7733 60.4169 60.56C60.8435 60.3467 61.1935 60.07 61.4669 59.73C61.7402 59.39 61.8769 59.03 61.8769 58.65C61.8835 57.9567 61.7702 57.3567 61.5369 56.85C61.3035 56.3367 60.9735 55.94 60.5469 55.66C60.1269 55.3733 59.6335 55.23 59.0669 55.23C58.5535 55.23 58.0935 55.3533 57.6869 55.6C57.2869 55.8467 56.9735 56.19 56.7469 56.63C56.5202 57.0633 56.4069 57.5667 56.4069 58.14C56.4069 58.9933 56.6435 59.6633 57.1169 60.15C57.5902 60.6367 58.2435 60.88 59.0769 60.88ZM71.5608 68.22C70.7141 68.22 69.9208 68.0567 69.1808 67.73C68.4408 67.4033 67.8308 66.94 67.3508 66.34C66.8708 65.74 66.5908 65.0333 66.5108 64.22H68.8408C68.9808 64.8267 69.2841 65.32 69.7508 65.7C70.2174 66.0733 70.7908 66.26 71.4708 66.26C72.2374 66.26 72.9008 66.07 73.4608 65.69C74.0274 65.31 74.4508 64.7133 74.7308 63.9C75.0108 63.0867 75.1141 62.03 75.0408 60.73C74.8608 61.1567 74.5974 61.53 74.2508 61.85C73.9108 62.17 73.5041 62.42 73.0308 62.6C72.5641 62.7733 72.0441 62.86 71.4708 62.86C70.5041 62.86 69.6474 62.6767 68.9008 62.31C68.1608 61.9367 67.5808 61.4067 67.1608 60.72C66.7408 60.0267 66.5308 59.2067 66.5308 58.26C66.5308 57.3 66.7441 56.45 67.1708 55.71C67.6041 54.97 68.2108 54.39 68.9908 53.97C69.7774 53.55 70.7008 53.34 71.7608 53.34C72.9408 53.34 73.9608 53.63 74.8208 54.21C75.6808 54.79 76.3408 55.6167 76.8008 56.69C77.2674 57.7633 77.5008 59.0367 77.5008 60.51C77.5008 62.19 77.2641 63.6033 76.7908 64.75C76.3241 65.89 75.6474 66.7533 74.7608 67.34C73.8808 67.9267 72.8141 68.22 71.5608 68.22ZM71.8308 60.88C72.2974 60.88 72.7441 60.7733 73.1708 60.56C73.5974 60.3467 73.9474 60.07 74.2208 59.73C74.4941 59.39 74.6308 59.03 74.6308 58.65C74.6374 57.9567 74.5241 57.3567 74.2908 56.85C74.0574 56.3367 73.7274 55.94 73.3008 55.66C72.8808 55.3733 72.3874 55.23 71.8208 55.23C71.3074 55.23 70.8474 55.3533 70.4408 55.6C70.0408 55.8467 69.7274 56.19 69.5008 56.63C69.2741 57.0633 69.1608 57.5667 69.1608 58.14C69.1608 58.9933 69.3974 59.6633 69.8708 60.15C70.3441 60.6367 70.9974 60.88 71.8308 60.88ZM84.3147 68.22C83.468 68.22 82.6747 68.0567 81.9347 67.73C81.1947 67.4033 80.5847 66.94 80.1047 66.34C79.6247 65.74 79.3447 65.0333 79.2647 64.22H81.5947C81.7347 64.8267 82.038 65.32 82.5047 65.7C82.9714 66.0733 83.5447 66.26 84.2247 66.26C84.9914 66.26 85.6547 66.07 86.2147 65.69C86.7814 65.31 87.2047 64.7133 87.4847 63.9C87.7647 63.0867 87.868 62.03 87.7947 60.73C87.6147 61.1567 87.3514 61.53 87.0047 61.85C86.6647 62.17 86.258 62.42 85.7847 62.6C85.318 62.7733 84.798 62.86 84.2247 62.86C83.258 62.86 82.4014 62.6767 81.6547 62.31C80.9147 61.9367 80.3347 61.4067 79.9147 60.72C79.4947 60.0267 79.2847 59.2067 79.2847 58.26C79.2847 57.3 79.498 56.45 79.9247 55.71C80.358 54.97 80.9647 54.39 81.7447 53.97C82.5314 53.55 83.4547 53.34 84.5147 53.34C85.6947 53.34 86.7147 53.63 87.5747 54.21C88.4347 54.79 89.0947 55.6167 89.5547 56.69C90.0214 57.7633 90.2547 59.0367 90.2547 60.51C90.2547 62.19 90.018 63.6033 89.5447 64.75C89.078 65.89 88.4014 66.7533 87.5147 67.34C86.6347 67.9267 85.568 68.22 84.3147 68.22ZM84.5847 60.88C85.0514 60.88 85.498 60.7733 85.9247 60.56C86.3514 60.3467 86.7014 60.07 86.9747 59.73C87.248 59.39 87.3847 59.03 87.3847 58.65C87.3914 57.9567 87.278 57.3567 87.0447 56.85C86.8114 56.3367 86.4814 55.94 86.0547 55.66C85.6347 55.3733 85.1414 55.23 84.5747 55.23C84.0614 55.23 83.6014 55.3533 83.1947 55.6C82.7947 55.8467 82.4814 56.19 82.2547 56.63C82.028 57.0633 81.9147 57.5667 81.9147 58.14C81.9147 58.9933 82.1514 59.6633 82.6247 60.15C83.098 60.6367 83.7514 60.88 84.5847 60.88Z" fill="#191C1F"/>
</svg>
