<svg width="672" height="120" viewBox="0 0 672 120" fill="none" xmlns="http://www.w3.org/2000/svg">
<g filter="url(#filter0_d_2616_13938)">
<rect x="24" y="12" width="624" height="72" rx="3" fill="white" shape-rendering="crispEdges"/>
<rect x="36" y="24" width="424" height="48" rx="2" fill="white"/>
<path d="M53.528 54V42.432H60.824L60.816 43.736H55.016V47.512H60.24V48.808H55.008V52.664L60.976 52.68V54H53.528ZM62.9428 54V45.728H64.3668V46.928C64.5961 46.5653 64.9108 46.248 65.3108 45.976C65.7108 45.704 66.2308 45.568 66.8708 45.568C67.1694 45.568 67.4734 45.6187 67.7828 45.72C68.0974 45.8213 68.3854 45.9733 68.6468 46.176C68.9081 46.3787 69.1108 46.6267 69.2548 46.92C69.5108 46.5147 69.8574 46.1893 70.2948 45.944C70.7321 45.6933 71.2254 45.568 71.7748 45.568C72.0628 45.568 72.3641 45.6133 72.6788 45.704C72.9934 45.7893 73.2841 45.944 73.5508 46.168C73.8228 46.3867 74.0441 46.6933 74.2148 47.088C74.3854 47.4773 74.4708 47.9787 74.4708 48.592V54H72.9828V48.736C72.9828 48.2347 72.9028 47.848 72.7428 47.576C72.5828 47.2987 72.3721 47.104 72.1108 46.992C71.8548 46.88 71.5801 46.824 71.2868 46.824C71.0308 46.824 70.7588 46.8747 70.4708 46.976C70.1828 47.0773 69.9374 47.248 69.7348 47.488C69.5321 47.728 69.4308 48.056 69.4308 48.472V54H67.9588V48.304C67.9588 47.9787 67.8708 47.7067 67.6948 47.488C67.5241 47.2693 67.3081 47.104 67.0468 46.992C66.7908 46.88 66.5348 46.824 66.2788 46.824C65.9961 46.824 65.7108 46.88 65.4228 46.992C65.1401 47.104 64.9001 47.2827 64.7028 47.528C64.5108 47.768 64.4148 48.0827 64.4148 48.472V54H62.9428ZM79.0753 54.16C78.5366 54.16 78.0619 54.0667 77.6513 53.88C77.2459 53.688 76.9259 53.4133 76.6913 53.056C76.4619 52.6987 76.3473 52.2667 76.3473 51.76C76.3473 50.8427 76.6673 50.16 77.3073 49.712C77.9473 49.264 78.9739 49.024 80.3873 48.992L81.8593 48.952V48.304C81.8593 47.7973 81.7073 47.3973 81.4033 47.104C81.0993 46.8053 80.6299 46.656 79.9953 46.656C79.5206 46.6613 79.1019 46.7733 78.7393 46.992C78.3766 47.2107 78.1446 47.568 78.0433 48.064H76.7393C76.7713 47.5253 76.9206 47.072 77.1873 46.704C77.4593 46.3307 77.8406 46.048 78.3313 45.856C78.8219 45.664 79.4006 45.568 80.0673 45.568C80.7873 45.568 81.3846 45.6693 81.8593 45.872C82.3393 46.0747 82.6966 46.3733 82.9313 46.768C83.1713 47.1627 83.2913 47.648 83.2913 48.224V54H82.0273L81.9153 52.448C81.6006 53.0933 81.1953 53.5413 80.6993 53.792C80.2086 54.0373 79.6673 54.16 79.0753 54.16ZM79.5153 53.096C79.7979 53.096 80.0753 53.0453 80.3473 52.944C80.6246 52.8427 80.8753 52.7067 81.0993 52.536C81.3286 52.36 81.5126 52.1653 81.6513 51.952C81.7899 51.7333 81.8593 51.5093 81.8593 51.28V49.864L80.6353 49.888C80.0006 49.8987 79.4726 49.9627 79.0513 50.08C78.6299 50.1973 78.3126 50.3813 78.0993 50.632C77.8859 50.8827 77.7793 51.2107 77.7793 51.616C77.7793 52.08 77.9419 52.4427 78.2673 52.704C78.5926 52.9653 79.0086 53.096 79.5153 53.096ZM85.639 54V45.728H87.071V54H85.639ZM85.599 43.976V42.44H87.111V43.976H85.599ZM91.7339 54.104C91.2859 54.104 90.9232 54.0427 90.6459 53.92C90.3739 53.7973 90.1632 53.632 90.0139 53.424C89.8699 53.216 89.7712 52.9787 89.7179 52.712C89.6699 52.44 89.6459 52.16 89.6459 51.872V42.112H91.1019V51.728C91.1019 52.144 91.1819 52.456 91.3419 52.664C91.5072 52.872 91.7365 52.9867 92.0299 53.008L92.4779 53.016V53.976C92.3552 54.0133 92.2272 54.0427 92.0939 54.064C91.9605 54.0907 91.8405 54.104 91.7339 54.104ZM100.7 54.16C100.162 54.16 99.6869 54.0667 99.2763 53.88C98.8709 53.688 98.5509 53.4133 98.3163 53.056C98.0869 52.6987 97.9723 52.2667 97.9723 51.76C97.9723 50.8427 98.2923 50.16 98.9323 49.712C99.5723 49.264 100.599 49.024 102.012 48.992L103.484 48.952V48.304C103.484 47.7973 103.332 47.3973 103.028 47.104C102.724 46.8053 102.255 46.656 101.62 46.656C101.146 46.6613 100.727 46.7733 100.364 46.992C100.002 47.2107 99.7696 47.568 99.6683 48.064H98.3643C98.3963 47.5253 98.5456 47.072 98.8123 46.704C99.0843 46.3307 99.4656 46.048 99.9563 45.856C100.447 45.664 101.026 45.568 101.692 45.568C102.412 45.568 103.01 45.6693 103.484 45.872C103.964 46.0747 104.322 46.3733 104.556 46.768C104.796 47.1627 104.916 47.648 104.916 48.224V54H103.652L103.54 52.448C103.226 53.0933 102.82 53.5413 102.324 53.792C101.834 54.0373 101.292 54.16 100.7 54.16ZM101.14 53.096C101.423 53.096 101.7 53.0453 101.972 52.944C102.25 52.8427 102.5 52.7067 102.724 52.536C102.954 52.36 103.138 52.1653 103.276 51.952C103.415 51.7333 103.484 51.5093 103.484 51.28V49.864L102.26 49.888C101.626 49.8987 101.098 49.9627 100.676 50.08C100.255 50.1973 99.9376 50.3813 99.7243 50.632C99.5109 50.8827 99.4043 51.2107 99.4043 51.616C99.4043 52.08 99.5669 52.4427 99.8923 52.704C100.218 52.9653 100.634 53.096 101.14 53.096ZM110.24 54.16C109.163 54.16 108.309 53.792 107.68 53.056C107.056 52.32 106.744 51.2453 106.744 49.832C106.744 48.9733 106.869 48.224 107.12 47.584C107.371 46.944 107.747 46.448 108.248 46.096C108.749 45.744 109.373 45.568 110.12 45.568C110.52 45.568 110.872 45.6187 111.176 45.72C111.48 45.8213 111.744 45.9493 111.968 46.104C112.192 46.2587 112.373 46.4187 112.512 46.584C112.656 46.7493 112.763 46.9013 112.832 47.04V42.112H114.328V54H113.192L113.032 52.304C112.979 52.464 112.893 52.6507 112.776 52.864C112.659 53.072 112.493 53.2773 112.28 53.48C112.072 53.6773 111.8 53.84 111.464 53.968C111.128 54.096 110.72 54.16 110.24 54.16ZM110.504 53.024C111.336 53.024 111.931 52.7707 112.288 52.264C112.651 51.752 112.832 50.9173 112.832 49.76C112.827 49.1147 112.747 48.5653 112.592 48.112C112.437 47.6587 112.192 47.3147 111.856 47.08C111.525 46.84 111.083 46.72 110.528 46.72C109.851 46.72 109.299 46.9627 108.872 47.448C108.445 47.9333 108.232 48.704 108.232 49.76C108.232 50.7947 108.424 51.5973 108.808 52.168C109.192 52.7387 109.757 53.024 110.504 53.024ZM119.787 54.16C118.71 54.16 117.856 53.792 117.227 53.056C116.603 52.32 116.291 51.2453 116.291 49.832C116.291 48.9733 116.416 48.224 116.667 47.584C116.918 46.944 117.294 46.448 117.795 46.096C118.296 45.744 118.92 45.568 119.667 45.568C120.067 45.568 120.419 45.6187 120.723 45.72C121.027 45.8213 121.291 45.9493 121.515 46.104C121.739 46.2587 121.92 46.4187 122.059 46.584C122.203 46.7493 122.31 46.9013 122.379 47.04V42.112H123.875V54H122.739L122.579 52.304C122.526 52.464 122.44 52.6507 122.323 52.864C122.206 53.072 122.04 53.2773 121.827 53.48C121.619 53.6773 121.347 53.84 121.011 53.968C120.675 54.096 120.267 54.16 119.787 54.16ZM120.051 53.024C120.883 53.024 121.478 52.7707 121.835 52.264C122.198 51.752 122.379 50.9173 122.379 49.76C122.374 49.1147 122.294 48.5653 122.139 48.112C121.984 47.6587 121.739 47.3147 121.403 47.08C121.072 46.84 120.63 46.72 120.075 46.72C119.398 46.72 118.846 46.9627 118.419 47.448C117.992 47.9333 117.779 48.704 117.779 49.76C117.779 50.7947 117.971 51.5973 118.355 52.168C118.739 52.7387 119.304 53.024 120.051 53.024ZM126.412 54V45.728H127.82V47.32C127.958 46.9253 128.153 46.6 128.404 46.344C128.654 46.0827 128.94 45.888 129.26 45.76C129.585 45.632 129.921 45.568 130.268 45.568C130.39 45.568 130.51 45.576 130.628 45.592C130.745 45.608 130.836 45.6347 130.9 45.672V47.104C130.82 47.0667 130.716 47.0427 130.588 47.032C130.465 47.016 130.361 47.008 130.276 47.008C129.945 46.9867 129.636 47.008 129.348 47.072C129.06 47.1307 128.806 47.2347 128.588 47.384C128.369 47.5333 128.196 47.7307 128.068 47.976C127.945 48.216 127.884 48.5093 127.884 48.856V54H126.412ZM136.033 54.16C135.265 54.16 134.587 53.992 134.001 53.656C133.414 53.32 132.955 52.8373 132.625 52.208C132.294 51.5787 132.129 50.824 132.129 49.944C132.129 49.0747 132.278 48.312 132.577 47.656C132.875 47 133.307 46.488 133.873 46.12C134.443 45.752 135.129 45.568 135.929 45.568C136.707 45.568 137.366 45.736 137.905 46.072C138.443 46.408 138.851 46.8827 139.129 47.496C139.411 48.104 139.553 48.8267 139.553 49.664V50.208H133.625C133.625 50.7307 133.71 51.2053 133.881 51.632C134.057 52.0533 134.321 52.3893 134.673 52.64C135.025 52.8907 135.47 53.016 136.009 53.016C136.537 53.016 136.99 52.8933 137.369 52.648C137.753 52.4027 137.998 52.048 138.105 51.584H139.497C139.4 52.144 139.177 52.616 138.825 53C138.478 53.384 138.059 53.6747 137.569 53.872C137.083 54.064 136.571 54.16 136.033 54.16ZM133.633 49.208H138.129C138.129 48.7333 138.049 48.3067 137.889 47.928C137.729 47.544 137.483 47.2427 137.153 47.024C136.827 46.8 136.417 46.688 135.921 46.688C135.403 46.688 134.974 46.8133 134.633 47.064C134.291 47.3093 134.038 47.6267 133.873 48.016C133.707 48.4 133.627 48.7973 133.633 49.208ZM144.528 54.16C143.952 54.16 143.416 54.072 142.92 53.896C142.429 53.7147 142.021 53.4347 141.696 53.056C141.371 52.672 141.168 52.184 141.088 51.592H142.432C142.501 51.9173 142.635 52.1893 142.832 52.408C143.029 52.6213 143.272 52.784 143.56 52.896C143.853 53.0027 144.173 53.056 144.52 53.056C145.08 53.056 145.531 52.952 145.872 52.744C146.213 52.536 146.384 52.216 146.384 51.784C146.384 51.48 146.293 51.2373 146.112 51.056C145.936 50.8693 145.659 50.7333 145.28 50.648L143.568 50.224C142.901 50.064 142.368 49.8133 141.968 49.472C141.573 49.1307 141.373 48.6533 141.368 48.04C141.368 47.5547 141.485 47.128 141.72 46.76C141.955 46.392 142.304 46.1013 142.768 45.888C143.237 45.6747 143.821 45.568 144.52 45.568C145.421 45.568 146.147 45.7707 146.696 46.176C147.245 46.576 147.533 47.1653 147.56 47.944H146.248C146.195 47.5493 146.019 47.2373 145.72 47.008C145.421 46.7733 145.016 46.656 144.504 46.656C143.981 46.656 143.552 46.7627 143.216 46.976C142.885 47.184 142.72 47.5093 142.72 47.952C142.72 48.2453 142.837 48.4773 143.072 48.648C143.312 48.8133 143.659 48.952 144.112 49.064L145.776 49.48C146.155 49.5813 146.469 49.7147 146.72 49.88C146.971 50.0453 147.168 50.2293 147.312 50.432C147.456 50.6347 147.557 50.848 147.616 51.072C147.68 51.2907 147.712 51.5013 147.712 51.704C147.712 52.2107 147.587 52.648 147.336 53.016C147.085 53.3787 146.723 53.6613 146.248 53.864C145.773 54.0613 145.2 54.16 144.528 54.16ZM152.591 54.16C152.015 54.16 151.479 54.072 150.983 53.896C150.492 53.7147 150.084 53.4347 149.759 53.056C149.433 52.672 149.231 52.184 149.151 51.592H150.495C150.564 51.9173 150.697 52.1893 150.895 52.408C151.092 52.6213 151.335 52.784 151.623 52.896C151.916 53.0027 152.236 53.056 152.583 53.056C153.143 53.056 153.593 52.952 153.935 52.744C154.276 52.536 154.447 52.216 154.447 51.784C154.447 51.48 154.356 51.2373 154.175 51.056C153.999 50.8693 153.721 50.7333 153.343 50.648L151.631 50.224C150.964 50.064 150.431 49.8133 150.031 49.472C149.636 49.1307 149.436 48.6533 149.431 48.04C149.431 47.5547 149.548 47.128 149.783 46.76C150.017 46.392 150.367 46.1013 150.831 45.888C151.3 45.6747 151.884 45.568 152.583 45.568C153.484 45.568 154.209 45.7707 154.759 46.176C155.308 46.576 155.596 47.1653 155.623 47.944H154.311C154.257 47.5493 154.081 47.2373 153.783 47.008C153.484 46.7733 153.079 46.656 152.567 46.656C152.044 46.656 151.615 46.7627 151.279 46.976C150.948 47.184 150.783 47.5093 150.783 47.952C150.783 48.2453 150.9 48.4773 151.135 48.648C151.375 48.8133 151.721 48.952 152.175 49.064L153.839 49.48C154.217 49.5813 154.532 49.7147 154.783 49.88C155.033 50.0453 155.231 50.2293 155.375 50.432C155.519 50.6347 155.62 50.848 155.679 51.072C155.743 51.2907 155.775 51.5013 155.775 51.704C155.775 52.2107 155.649 52.648 155.399 53.016C155.148 53.3787 154.785 53.6613 154.311 53.864C153.836 54.0613 153.263 54.16 152.591 54.16Z" fill="#77878F"/>
<rect x="476" y="24" width="160" height="48" rx="2" fill="#FA8232"/>
<path d="M504.928 53.14C504.424 53.14 503.932 53.077 503.451 52.951C502.97 52.825 502.532 52.636 502.135 52.384C501.738 52.132 501.412 51.817 501.155 51.439C500.903 51.061 500.751 50.6177 500.7 50.109H502.793C502.863 50.417 502.996 50.676 503.192 50.886C503.393 51.096 503.649 51.257 503.962 51.369C504.279 51.481 504.641 51.537 505.047 51.537C505.369 51.537 505.675 51.4903 505.964 51.397C506.253 51.3037 506.489 51.1613 506.671 50.97C506.853 50.7787 506.944 50.5383 506.944 50.249C506.944 49.9037 506.818 49.6447 506.566 49.472C506.314 49.2947 505.971 49.1547 505.537 49.052L503.64 48.639C503.103 48.527 502.634 48.3543 502.233 48.121C501.836 47.883 501.531 47.575 501.316 47.197C501.101 46.8143 500.994 46.35 500.994 45.804C500.994 45.174 501.167 44.6303 501.512 44.173C501.862 43.7157 502.336 43.3657 502.933 43.123C503.535 42.8757 504.209 42.752 504.956 42.752C505.801 42.752 506.512 42.8897 507.091 43.165C507.674 43.4357 508.12 43.8043 508.428 44.271C508.736 44.733 508.892 45.2487 508.897 45.818H506.853C506.816 45.468 506.708 45.188 506.531 44.978C506.354 44.7633 506.125 44.6093 505.845 44.516C505.57 44.418 505.255 44.369 504.9 44.369C504.289 44.369 503.843 44.4927 503.563 44.74C503.283 44.9873 503.143 45.2743 503.143 45.601C503.143 45.909 503.248 46.1587 503.458 46.35C503.673 46.5367 504.016 46.679 504.487 46.777L506.244 47.155C506.897 47.281 507.427 47.4817 507.833 47.757C508.239 48.0277 508.535 48.3567 508.722 48.744C508.909 49.1313 509.002 49.5653 509.002 50.046C509.002 50.6573 508.827 51.1963 508.477 51.663C508.132 52.125 507.653 52.4867 507.042 52.748C506.431 53.0093 505.726 53.14 504.928 53.14ZM515.041 53.14C514.057 53.14 513.268 52.9767 512.675 52.65C512.083 52.3187 511.653 51.8497 511.387 51.243C511.126 50.6363 510.995 49.913 510.995 49.073V42.878H513.074V49.227C513.074 49.983 513.256 50.536 513.62 50.886C513.984 51.2313 514.458 51.404 515.041 51.404C515.429 51.404 515.772 51.3293 516.07 51.18C516.369 51.026 516.602 50.7903 516.77 50.473C516.943 50.151 517.029 49.7357 517.029 49.227V42.878H519.094V49.143C519.094 49.9597 518.961 50.669 518.695 51.271C518.429 51.8683 517.998 52.3303 517.4 52.657C516.808 52.979 516.021 53.14 515.041 53.14ZM521.294 53V42.878H524.962C526.288 42.878 527.27 43.1067 527.909 43.564C528.553 44.0167 528.875 44.6723 528.875 45.531C528.875 46.035 528.747 46.4737 528.49 46.847C528.234 47.2157 527.776 47.5377 527.118 47.813C527.543 47.9203 527.886 48.065 528.147 48.247C528.409 48.429 528.609 48.632 528.749 48.856C528.889 49.0753 528.985 49.3063 529.036 49.549C529.088 49.787 529.113 50.0227 529.113 50.256C529.113 51.1893 528.796 51.88 528.161 52.328C527.527 52.776 526.516 53 525.13 53H521.294ZM523.331 51.418H525.172C525.788 51.418 526.253 51.2943 526.565 51.047C526.883 50.7997 527.041 50.4683 527.041 50.053C527.041 49.7543 526.964 49.5047 526.81 49.304C526.656 49.0987 526.446 48.9447 526.18 48.842C525.919 48.7393 525.62 48.688 525.284 48.688H523.331V51.418ZM523.331 47.064H525.284C525.494 47.064 525.695 47.0407 525.886 46.994C526.082 46.9427 526.255 46.8657 526.404 46.763C526.558 46.6603 526.68 46.5297 526.768 46.371C526.857 46.2077 526.901 46.0163 526.901 45.797C526.901 45.3583 526.736 45.027 526.404 44.803C526.078 44.5743 525.658 44.46 525.144 44.46H523.331V47.064ZM534.936 53.14C534.432 53.14 533.94 53.077 533.459 52.951C532.978 52.825 532.54 52.636 532.143 52.384C531.746 52.132 531.42 51.817 531.163 51.439C530.911 51.061 530.759 50.6177 530.708 50.109H532.801C532.871 50.417 533.004 50.676 533.2 50.886C533.401 51.096 533.657 51.257 533.97 51.369C534.287 51.481 534.649 51.537 535.055 51.537C535.377 51.537 535.683 51.4903 535.972 51.397C536.261 51.3037 536.497 51.1613 536.679 50.97C536.861 50.7787 536.952 50.5383 536.952 50.249C536.952 49.9037 536.826 49.6447 536.574 49.472C536.322 49.2947 535.979 49.1547 535.545 49.052L533.648 48.639C533.111 48.527 532.642 48.3543 532.241 48.121C531.844 47.883 531.539 47.575 531.324 47.197C531.109 46.8143 531.002 46.35 531.002 45.804C531.002 45.174 531.175 44.6303 531.52 44.173C531.87 43.7157 532.344 43.3657 532.941 43.123C533.543 42.8757 534.217 42.752 534.964 42.752C535.809 42.752 536.52 42.8897 537.099 43.165C537.682 43.4357 538.128 43.8043 538.436 44.271C538.744 44.733 538.9 45.2487 538.905 45.818H536.861C536.824 45.468 536.716 45.188 536.539 44.978C536.362 44.7633 536.133 44.6093 535.853 44.516C535.578 44.418 535.263 44.369 534.908 44.369C534.297 44.369 533.851 44.4927 533.571 44.74C533.291 44.9873 533.151 45.2743 533.151 45.601C533.151 45.909 533.256 46.1587 533.466 46.35C533.681 46.5367 534.024 46.679 534.495 46.777L536.252 47.155C536.905 47.281 537.435 47.4817 537.841 47.757C538.247 48.0277 538.543 48.3567 538.73 48.744C538.917 49.1313 539.01 49.5653 539.01 50.046C539.01 50.6573 538.835 51.1963 538.485 51.663C538.14 52.125 537.661 52.4867 537.05 52.748C536.439 53.0093 535.734 53.14 534.936 53.14ZM545.044 53.14C544.102 53.14 543.287 52.9207 542.601 52.482C541.915 52.0433 541.386 51.4273 541.012 50.634C540.644 49.8407 540.459 48.9143 540.459 47.855C540.459 46.791 540.644 45.8787 541.012 45.118C541.381 44.3527 541.908 43.7647 542.594 43.354C543.28 42.9433 544.097 42.738 545.044 42.738C545.805 42.738 546.482 42.892 547.074 43.2C547.672 43.5033 548.152 43.9187 548.516 44.446C548.885 44.9733 549.102 45.5683 549.167 46.231H547.025C546.96 45.881 546.841 45.5707 546.668 45.3C546.496 45.0247 546.269 44.81 545.989 44.656C545.709 44.4973 545.373 44.418 544.981 44.418C544.51 44.418 544.104 44.5323 543.763 44.761C543.423 44.9897 543.161 45.3583 542.979 45.867C542.797 46.3757 542.706 47.0477 542.706 47.883C542.706 49.143 542.907 50.0553 543.308 50.62C543.714 51.18 544.272 51.46 544.981 51.46C545.373 51.46 545.709 51.3713 545.989 51.194C546.269 51.012 546.496 50.774 546.668 50.48C546.841 50.1813 546.96 49.8547 547.025 49.5H549.167C549.107 49.9807 548.99 50.4403 548.817 50.879C548.645 51.313 548.4 51.7003 548.082 52.041C547.765 52.3817 547.357 52.65 546.857 52.846C546.358 53.042 545.754 53.14 545.044 53.14ZM551.138 53V42.878H555.408C556.215 42.878 556.876 43.0063 557.389 43.263C557.902 43.5197 558.28 43.8767 558.523 44.334C558.766 44.7867 558.887 45.3093 558.887 45.902C558.887 46.434 558.803 46.8843 558.635 47.253C558.472 47.617 558.255 47.9203 557.984 48.163C557.718 48.4057 557.426 48.604 557.109 48.758L558.992 53H556.871L555.226 49.101H553.175V53H551.138ZM553.175 47.526H555.044C555.59 47.526 556.022 47.379 556.339 47.085C556.661 46.791 556.822 46.413 556.822 45.951C556.822 45.4843 556.668 45.1157 556.36 44.845C556.052 44.5743 555.662 44.439 555.191 44.439H553.175V47.526ZM561.054 53V42.878H563.091V53H561.054ZM565.529 53V42.878H569.197C570.522 42.878 571.504 43.1067 572.144 43.564C572.788 44.0167 573.11 44.6723 573.11 45.531C573.11 46.035 572.981 46.4737 572.725 46.847C572.468 47.2157 572.011 47.5377 571.353 47.813C571.777 47.9203 572.12 48.065 572.382 48.247C572.643 48.429 572.844 48.632 572.984 48.856C573.124 49.0753 573.219 49.3063 573.271 49.549C573.322 49.787 573.348 50.0227 573.348 50.256C573.348 51.1893 573.03 51.88 572.396 52.328C571.761 52.776 570.751 53 569.365 53H565.529ZM567.566 51.418H569.407C570.023 51.418 570.487 51.2943 570.8 51.047C571.117 50.7997 571.276 50.4683 571.276 50.053C571.276 49.7543 571.199 49.5047 571.045 49.304C570.891 49.0987 570.681 48.9447 570.415 48.842C570.153 48.7393 569.855 48.688 569.519 48.688H567.566V51.418ZM567.566 47.064H569.519C569.729 47.064 569.929 47.0407 570.121 46.994C570.317 46.9427 570.489 46.8657 570.639 46.763C570.793 46.6603 570.914 46.5297 571.003 46.371C571.091 46.2077 571.136 46.0163 571.136 45.797C571.136 45.3583 570.97 45.027 570.639 44.803C570.312 44.5743 569.892 44.46 569.379 44.46H567.566V47.064ZM575.472 53V42.878H582.423L582.416 44.6H577.523V47.057H581.772V48.744H577.509V51.257L582.493 51.264V53H575.472Z" fill="white"/>
<path d="M595.125 48H608.875" stroke="white" stroke-width="1.5" stroke-linecap="round" stroke-linejoin="round"/>
<path d="M603.25 42.375L608.875 48L603.25 53.625" stroke="white" stroke-width="1.5" stroke-linecap="round" stroke-linejoin="round"/>
</g>
<defs>
<filter id="filter0_d_2616_13938" x="0" y="0" width="672" height="120" filterUnits="userSpaceOnUse" color-interpolation-filters="sRGB">
<feFlood flood-opacity="0" result="BackgroundImageFix"/>
<feColorMatrix in="SourceAlpha" type="matrix" values="0 0 0 0 0 0 0 0 0 0 0 0 0 0 0 0 0 0 127 0" result="hardAlpha"/>
<feOffset dy="12"/>
<feGaussianBlur stdDeviation="12"/>
<feComposite in2="hardAlpha" operator="out"/>
<feColorMatrix type="matrix" values="0 0 0 0 0 0 0 0 0 0 0 0 0 0 0 0 0 0 0.12 0"/>
<feBlend mode="normal" in2="BackgroundImageFix" result="effect1_dropShadow_2616_13938"/>
<feBlend mode="normal" in="SourceGraphic" in2="effect1_dropShadow_2616_13938" result="shape"/>
</filter>
</defs>
</svg>
