<svg width="711" height="112" viewBox="0 0 711 112" fill="none" xmlns="http://www.w3.org/2000/svg">
<g filter="url(#filter0_d_2587_3562)">
<rect x="32.5" y="24" width="646" height="48" rx="2" fill="white" shape-rendering="crispEdges"/>
<path d="M57.267 53.14C56.7723 53.14 56.3033 53.0817 55.86 52.965C55.4167 52.8437 55.013 52.664 54.649 52.426C54.2897 52.188 53.991 51.894 53.753 51.544C53.5197 51.1893 53.3727 50.7787 53.312 50.312H54.67C54.754 50.6947 54.9197 51.0167 55.167 51.278C55.419 51.5393 55.7293 51.7353 56.098 51.866C56.4713 51.9967 56.8797 52.062 57.323 52.062C57.7523 52.062 58.1467 51.9943 58.506 51.859C58.87 51.7237 59.1617 51.5277 59.381 51.271C59.6003 51.0097 59.71 50.697 59.71 50.333C59.71 49.9317 59.5793 49.6097 59.318 49.367C59.0567 49.1197 58.653 48.9213 58.107 48.772L56.021 48.233C55.5497 48.1163 55.132 47.953 54.768 47.743C54.4087 47.5283 54.1263 47.2483 53.921 46.903C53.7157 46.553 53.613 46.119 53.613 45.601C53.613 45.027 53.7717 44.5277 54.089 44.103C54.4063 43.6737 54.8357 43.3423 55.377 43.109C55.923 42.871 56.539 42.752 57.225 42.752C58.0183 42.752 58.6857 42.8897 59.227 43.165C59.773 43.4403 60.186 43.802 60.466 44.25C60.746 44.698 60.886 45.1763 60.886 45.685H59.556C59.514 45.223 59.3787 44.859 59.15 44.593C58.9213 44.3223 58.6367 44.1287 58.296 44.012C57.9553 43.8907 57.5843 43.83 57.183 43.83C56.4597 43.83 55.9113 43.9957 55.538 44.327C55.1693 44.6537 54.985 45.0433 54.985 45.496C54.985 45.9113 55.118 46.238 55.384 46.476C55.65 46.714 56.042 46.8983 56.56 47.029L58.59 47.554C59.192 47.694 59.6703 47.897 60.025 48.163C60.3843 48.429 60.641 48.7393 60.795 49.094C60.9537 49.444 61.033 49.8243 61.033 50.235C61.033 50.795 60.8767 51.2943 60.564 51.733C60.2513 52.1717 59.8127 52.517 59.248 52.769C58.688 53.0163 58.0277 53.14 57.267 53.14ZM66.0089 53.14C65.3369 53.14 64.7442 52.993 64.2309 52.699C63.7176 52.405 63.3162 51.9827 63.0269 51.432C62.7376 50.8813 62.5929 50.221 62.5929 49.451C62.5929 48.6903 62.7236 48.023 62.9849 47.449C63.2462 46.875 63.6242 46.427 64.1189 46.105C64.6182 45.783 65.2179 45.622 65.9179 45.622C66.5992 45.622 67.1756 45.769 67.6469 46.063C68.1182 46.357 68.4752 46.7723 68.7179 47.309C68.9652 47.841 69.0889 48.4733 69.0889 49.206V49.682H63.9019C63.9019 50.1393 63.9766 50.5547 64.1259 50.928C64.2799 51.2967 64.5109 51.5907 64.8189 51.81C65.1269 52.0293 65.5166 52.139 65.9879 52.139C66.4499 52.139 66.8466 52.0317 67.1779 51.817C67.5139 51.6023 67.7286 51.292 67.8219 50.886H69.0399C68.9559 51.376 68.7599 51.789 68.4519 52.125C68.1486 52.461 67.7822 52.7153 67.3529 52.888C66.9282 53.056 66.4802 53.14 66.0089 53.14ZM63.9089 48.807H67.8429C67.8429 48.3917 67.7729 48.0183 67.6329 47.687C67.4929 47.351 67.2782 47.0873 66.9889 46.896C66.7042 46.7 66.3449 46.602 65.9109 46.602C65.4582 46.602 65.0826 46.7117 64.7839 46.931C64.4852 47.1457 64.2636 47.4233 64.1189 47.764C63.9742 48.1 63.9042 48.4477 63.9089 48.807ZM72.8276 53.14C72.3562 53.14 71.9409 53.0583 71.5816 52.895C71.2269 52.727 70.9469 52.4867 70.7416 52.174C70.5409 51.8613 70.4406 51.4833 70.4406 51.04C70.4406 50.2373 70.7206 49.64 71.2806 49.248C71.8406 48.856 72.7389 48.646 73.9756 48.618L75.2636 48.583V48.016C75.2636 47.5727 75.1306 47.2227 74.8646 46.966C74.5986 46.7047 74.1879 46.574 73.6326 46.574C73.2172 46.5787 72.8509 46.6767 72.5336 46.868C72.2162 47.0593 72.0132 47.372 71.9246 47.806H70.7836C70.8116 47.3347 70.9422 46.938 71.1756 46.616C71.4136 46.2893 71.7472 46.042 72.1766 45.874C72.6059 45.706 73.1122 45.622 73.6956 45.622C74.3256 45.622 74.8482 45.7107 75.2636 45.888C75.6836 46.0653 75.9962 46.3267 76.2016 46.672C76.4116 47.0173 76.5166 47.442 76.5166 47.946V53H75.4106L75.3126 51.642C75.0372 52.2067 74.6826 52.5987 74.2486 52.818C73.8192 53.0327 73.3456 53.14 72.8276 53.14ZM73.2126 52.209C73.4599 52.209 73.7026 52.1647 73.9406 52.076C74.1832 51.9873 74.4026 51.8683 74.5986 51.719C74.7992 51.565 74.9602 51.3947 75.0816 51.208C75.2029 51.0167 75.2636 50.8207 75.2636 50.62V49.381L74.1926 49.402C73.6372 49.4113 73.1752 49.4673 72.8066 49.57C72.4379 49.6727 72.1602 49.8337 71.9736 50.053C71.7869 50.2723 71.6936 50.5593 71.6936 50.914C71.6936 51.32 71.8359 51.6373 72.1206 51.866C72.4052 52.0947 72.7692 52.209 73.2126 52.209ZM78.5358 53V45.762H79.7678V47.155C79.8892 46.8097 80.0595 46.525 80.2788 46.301C80.4982 46.0723 80.7478 45.902 81.0278 45.79C81.3125 45.678 81.6065 45.622 81.9098 45.622C82.0172 45.622 82.1222 45.629 82.2248 45.643C82.3275 45.657 82.4068 45.6803 82.4628 45.713V46.966C82.3928 46.9333 82.3018 46.9123 82.1898 46.903C82.0825 46.889 81.9915 46.882 81.9168 46.882C81.6275 46.8633 81.3568 46.882 81.1048 46.938C80.8528 46.9893 80.6312 47.0803 80.4398 47.211C80.2485 47.3417 80.0968 47.5143 79.9848 47.729C79.8775 47.939 79.8238 48.1957 79.8238 48.499V53H78.5358ZM86.8072 53.14C86.1539 53.14 85.5752 52.9977 85.0712 52.713C84.5719 52.4283 84.1799 52.0083 83.8952 51.453C83.6152 50.8977 83.4752 50.2163 83.4752 49.409C83.4752 48.653 83.6036 47.9927 83.8602 47.428C84.1216 46.8587 84.4996 46.4153 84.9942 46.098C85.4936 45.7807 86.0979 45.622 86.8072 45.622C87.3252 45.622 87.7896 45.7223 88.2002 45.923C88.6156 46.119 88.9562 46.399 89.2222 46.763C89.4882 47.127 89.6516 47.5563 89.7122 48.051H88.5642C88.5222 47.799 88.4242 47.568 88.2702 47.358C88.1209 47.148 87.9226 46.98 87.6752 46.854C87.4326 46.728 87.1456 46.665 86.8142 46.665C86.1936 46.665 85.6872 46.889 85.2952 47.337C84.9079 47.785 84.7142 48.471 84.7142 49.395C84.7142 50.2303 84.8916 50.9 85.2462 51.404C85.6056 51.9033 86.1329 52.153 86.8282 52.153C87.1596 52.153 87.4489 52.09 87.6962 51.964C87.9436 51.8333 88.1419 51.663 88.2912 51.453C88.4406 51.2383 88.5362 51.0097 88.5782 50.767H89.7052C89.6446 51.2523 89.4789 51.6723 89.2082 52.027C88.9422 52.3817 88.6016 52.657 88.1862 52.853C87.7756 53.0443 87.3159 53.14 86.8072 53.14ZM91.4284 53V42.598H92.6884V46.826C92.8098 46.6253 92.9731 46.4387 93.1784 46.266C93.3838 46.0887 93.6334 45.9463 93.9274 45.839C94.2214 45.727 94.5621 45.671 94.9494 45.671C95.4208 45.671 95.8478 45.7597 96.2304 45.937C96.6131 46.1097 96.9164 46.357 97.1404 46.679C97.3644 47.001 97.4764 47.3837 97.4764 47.827V53H96.1814V48.086C96.1814 47.652 96.0321 47.3183 95.7334 47.085C95.4394 46.847 95.0544 46.728 94.5784 46.728C94.2564 46.728 93.9531 46.7817 93.6684 46.889C93.3838 46.9917 93.1528 47.1503 92.9754 47.365C92.8028 47.575 92.7164 47.8433 92.7164 48.17V53H91.4284ZM103.865 53V46.707H102.332V45.762H103.865V44.642C103.865 44.068 104.01 43.6317 104.299 43.333C104.593 43.0297 105.032 42.878 105.615 42.878H106.98L106.987 43.795H105.909C105.61 43.795 105.407 43.8743 105.3 44.033C105.193 44.1917 105.139 44.432 105.139 44.754V45.762H106.917V46.707H105.16V53H103.865ZM111.252 53.14C110.585 53.14 110.002 52.9977 109.502 52.713C109.008 52.4237 108.623 52.0013 108.347 51.446C108.072 50.8907 107.934 50.2117 107.934 49.409C107.934 48.653 108.063 47.9903 108.319 47.421C108.576 46.8517 108.952 46.4107 109.446 46.098C109.941 45.7807 110.545 45.622 111.259 45.622C111.927 45.622 112.505 45.769 112.995 46.063C113.485 46.3523 113.866 46.7793 114.136 47.344C114.412 47.9087 114.549 48.597 114.549 49.409C114.549 50.1463 114.423 50.795 114.171 51.355C113.919 51.915 113.548 52.3537 113.058 52.671C112.573 52.9837 111.971 53.14 111.252 53.14ZM111.259 52.118C111.689 52.118 112.053 52.0083 112.351 51.789C112.65 51.5697 112.876 51.2547 113.03 50.844C113.189 50.4333 113.268 49.9457 113.268 49.381C113.268 48.863 113.198 48.3987 113.058 47.988C112.923 47.5727 112.708 47.2437 112.414 47.001C112.12 46.7583 111.735 46.637 111.259 46.637C110.821 46.637 110.45 46.7467 110.146 46.966C109.843 47.1807 109.612 47.4933 109.453 47.904C109.299 48.3147 109.222 48.807 109.222 49.381C109.222 49.8897 109.29 50.3517 109.425 50.767C109.565 51.1823 109.785 51.5113 110.083 51.754C110.387 51.9967 110.779 52.118 111.259 52.118ZM116.27 53V45.762H117.502V47.155C117.624 46.8097 117.794 46.525 118.013 46.301C118.233 46.0723 118.482 45.902 118.762 45.79C119.047 45.678 119.341 45.622 119.644 45.622C119.752 45.622 119.857 45.629 119.959 45.643C120.062 45.657 120.141 45.6803 120.197 45.713V46.966C120.127 46.9333 120.036 46.9123 119.924 46.903C119.817 46.889 119.726 46.882 119.651 46.882C119.362 46.8633 119.091 46.882 118.839 46.938C118.587 46.9893 118.366 47.0803 118.174 47.211C117.983 47.3417 117.831 47.5143 117.719 47.729C117.612 47.939 117.558 48.1957 117.558 48.499V53H116.27ZM127.173 53.14C126.702 53.14 126.287 53.0583 125.927 52.895C125.573 52.727 125.293 52.4867 125.087 52.174C124.887 51.8613 124.786 51.4833 124.786 51.04C124.786 50.2373 125.066 49.64 125.626 49.248C126.186 48.856 127.085 48.646 128.321 48.618L129.609 48.583V48.016C129.609 47.5727 129.476 47.2227 129.21 46.966C128.944 46.7047 128.534 46.574 127.978 46.574C127.563 46.5787 127.197 46.6767 126.879 46.868C126.562 47.0593 126.359 47.372 126.27 47.806H125.129C125.157 47.3347 125.288 46.938 125.521 46.616C125.759 46.2893 126.093 46.042 126.522 45.874C126.952 45.706 127.458 45.622 128.041 45.622C128.671 45.622 129.194 45.7107 129.609 45.888C130.029 46.0653 130.342 46.3267 130.547 46.672C130.757 47.0173 130.862 47.442 130.862 47.946V53H129.756L129.658 51.642C129.383 52.2067 129.028 52.5987 128.594 52.818C128.165 53.0327 127.691 53.14 127.173 53.14ZM127.558 52.209C127.806 52.209 128.048 52.1647 128.286 52.076C128.529 51.9873 128.748 51.8683 128.944 51.719C129.145 51.565 129.306 51.3947 129.427 51.208C129.549 51.0167 129.609 50.8207 129.609 50.62V49.381L128.538 49.402C127.983 49.4113 127.521 49.4673 127.152 49.57C126.784 49.6727 126.506 49.8337 126.319 50.053C126.133 50.2723 126.039 50.5593 126.039 50.914C126.039 51.32 126.182 51.6373 126.466 51.866C126.751 52.0947 127.115 52.209 127.558 52.209ZM132.882 53V45.762H134.135V46.812C134.251 46.6113 134.412 46.4223 134.618 46.245C134.828 46.0677 135.08 45.9253 135.374 45.818C135.672 45.7107 136.015 45.657 136.403 45.657C136.86 45.657 137.28 45.748 137.663 45.93C138.05 46.112 138.358 46.3967 138.587 46.784C138.82 47.1667 138.937 47.6613 138.937 48.268V53H137.642V48.394C137.642 47.8293 137.492 47.4117 137.194 47.141C136.9 46.8657 136.517 46.728 136.046 46.728C135.719 46.728 135.413 46.7817 135.129 46.889C134.844 46.9917 134.613 47.1503 134.436 47.365C134.258 47.575 134.17 47.841 134.17 48.163V53H132.882ZM141.45 55.31C141.026 55.31 140.734 55.2797 140.575 55.219C140.417 55.1583 140.337 55.128 140.337 55.128V54.288L141.079 54.302C141.345 54.3113 141.567 54.2927 141.744 54.246C141.922 54.1993 142.064 54.1363 142.171 54.057C142.279 53.9777 142.36 53.889 142.416 53.791C142.477 53.693 142.526 53.5997 142.563 53.511L142.815 52.825L139.987 45.762H141.296L143.431 51.348L145.552 45.762H146.819L143.774 53.546C143.583 54.0033 143.371 54.3603 143.137 54.617C142.909 54.8737 142.652 55.0533 142.367 55.156C142.087 55.2587 141.782 55.31 141.45 55.31ZM150.915 53.035C150.416 53.035 150.029 52.9673 149.753 52.832C149.478 52.6967 149.284 52.496 149.172 52.23C149.065 51.964 149.011 51.6373 149.011 51.25V46.707H147.835V45.762H149.046L149.361 43.655H150.313V45.755H151.944V46.707H150.313V51.208C150.313 51.4647 150.339 51.6537 150.39 51.775C150.446 51.8917 150.537 51.9663 150.663 51.999C150.789 52.0317 150.967 52.048 151.195 52.048H151.986V52.916C151.898 52.9487 151.762 52.9767 151.58 53C151.403 53.0233 151.181 53.035 150.915 53.035ZM153.704 53V42.598H154.964V46.826C155.085 46.6253 155.248 46.4387 155.454 46.266C155.659 46.0887 155.909 45.9463 156.203 45.839C156.497 45.727 156.837 45.671 157.225 45.671C157.696 45.671 158.123 45.7597 158.506 45.937C158.888 46.1097 159.192 46.357 159.416 46.679C159.64 47.001 159.752 47.3837 159.752 47.827V53H158.457V48.086C158.457 47.652 158.307 47.3183 158.009 47.085C157.715 46.847 157.33 46.728 156.854 46.728C156.532 46.728 156.228 46.7817 155.944 46.889C155.659 46.9917 155.428 47.1503 155.251 47.365C155.078 47.575 154.992 47.8433 154.992 48.17V53H153.704ZM161.805 53V45.762H163.058V53H161.805ZM161.77 44.229V42.885H163.093V44.229H161.77ZM165.311 53V45.762H166.564V46.812C166.681 46.6113 166.842 46.4223 167.047 46.245C167.257 46.0677 167.509 45.9253 167.803 45.818C168.102 45.7107 168.445 45.657 168.832 45.657C169.29 45.657 169.71 45.748 170.092 45.93C170.48 46.112 170.788 46.3967 171.016 46.784C171.25 47.1667 171.366 47.6613 171.366 48.268V53H170.071V48.394C170.071 47.8293 169.922 47.4117 169.623 47.141C169.329 46.8657 168.947 46.728 168.475 46.728C168.149 46.728 167.843 46.7817 167.558 46.889C167.274 46.9917 167.043 47.1503 166.865 47.365C166.688 47.575 166.599 47.841 166.599 48.163V53H165.311ZM176.45 55.394C175.316 55.394 174.432 55.2283 173.797 54.897C173.163 54.5703 172.845 54.1013 172.845 53.49C172.845 53.2287 172.906 53.007 173.027 52.825C173.149 52.6383 173.293 52.4843 173.461 52.363C173.629 52.2417 173.786 52.146 173.93 52.076C174.075 52.0013 174.171 51.9477 174.217 51.915C174.133 51.8683 174.033 51.81 173.916 51.74C173.8 51.67 173.695 51.5767 173.601 51.46C173.513 51.3433 173.468 51.1917 173.468 51.005C173.468 50.7763 173.576 50.5663 173.79 50.375C174.005 50.1837 174.325 50.0413 174.749 49.948C174.325 49.7333 173.993 49.4487 173.755 49.094C173.517 48.7393 173.398 48.3543 173.398 47.939C173.398 47.4723 173.524 47.0663 173.776 46.721C174.028 46.3757 174.39 46.112 174.861 45.93C175.333 45.7433 175.895 45.65 176.548 45.65C177.02 45.65 177.414 45.706 177.731 45.818C178.053 45.9253 178.352 46.0793 178.627 46.28C178.702 46.2473 178.821 46.1983 178.984 46.133C179.148 46.063 179.325 45.9883 179.516 45.909C179.712 45.8297 179.894 45.755 180.062 45.685C180.235 45.6103 180.373 45.5543 180.475 45.517L180.468 46.714L179.201 46.952C179.276 47.1013 179.334 47.2647 179.376 47.442C179.418 47.6193 179.439 47.785 179.439 47.939C179.439 48.3637 179.327 48.7487 179.103 49.094C178.884 49.4393 178.55 49.7147 178.102 49.92C177.654 50.1253 177.094 50.228 176.422 50.228C176.366 50.228 176.294 50.228 176.205 50.228C176.121 50.2233 176.049 50.2187 175.988 50.214C175.494 50.228 175.153 50.284 174.966 50.382C174.784 50.4753 174.693 50.5803 174.693 50.697C174.693 50.8323 174.798 50.9257 175.008 50.977C175.218 51.0283 175.573 51.0727 176.072 51.11C176.254 51.1193 176.478 51.131 176.744 51.145C177.015 51.159 177.316 51.1777 177.647 51.201C178.403 51.2477 178.987 51.4413 179.397 51.782C179.808 52.1227 180.013 52.5823 180.013 53.161C180.013 53.819 179.719 54.3557 179.131 54.771C178.548 55.1863 177.654 55.394 176.45 55.394ZM176.681 54.561C177.349 54.561 177.86 54.4607 178.214 54.26C178.574 54.0593 178.753 53.756 178.753 53.35C178.753 53.0607 178.644 52.825 178.424 52.643C178.205 52.4563 177.874 52.349 177.43 52.321L175.4 52.188C175.218 52.1787 175.029 52.2253 174.833 52.328C174.637 52.426 174.472 52.5637 174.336 52.741C174.201 52.9183 174.133 53.119 174.133 53.343C174.133 53.7257 174.341 54.0243 174.756 54.239C175.172 54.4537 175.813 54.561 176.681 54.561ZM176.464 49.395C176.982 49.395 177.4 49.2737 177.717 49.031C178.039 48.7883 178.2 48.429 178.2 47.953C178.2 47.463 178.039 47.0897 177.717 46.833C177.4 46.5763 176.982 46.448 176.464 46.448C175.932 46.448 175.503 46.5787 175.176 46.84C174.854 47.0967 174.693 47.4677 174.693 47.953C174.693 48.4103 174.847 48.765 175.155 49.017C175.468 49.269 175.904 49.395 176.464 49.395ZM181.799 53V51.348H183.339V53H181.799ZM185.655 53V51.348H187.195V53H185.655ZM189.51 53V51.348H191.05V53H189.51Z" fill="#77878F"/>
<path d="M647.562 53.625C651.187 53.625 654.125 50.6869 654.125 47.0625C654.125 43.4381 651.187 40.5 647.562 40.5C643.938 40.5 641 43.4381 641 47.0625C641 50.6869 643.938 53.625 647.562 53.625Z" stroke="#191C1F" stroke-width="1.5" stroke-linecap="round" stroke-linejoin="round"/>
<path d="M652.203 51.7031L656 55.5" stroke="#191C1F" stroke-width="1.5" stroke-linecap="round" stroke-linejoin="round"/>
</g>
<defs>
<filter id="filter0_d_2587_3562" x="0.5" y="0" width="710" height="112" filterUnits="userSpaceOnUse" color-interpolation-filters="sRGB">
<feFlood flood-opacity="0" result="BackgroundImageFix"/>
<feColorMatrix in="SourceAlpha" type="matrix" values="0 0 0 0 0 0 0 0 0 0 0 0 0 0 0 0 0 0 127 0" result="hardAlpha"/>
<feOffset dy="8"/>
<feGaussianBlur stdDeviation="16"/>
<feComposite in2="hardAlpha" operator="out"/>
<feColorMatrix type="matrix" values="0 0 0 0 0 0 0 0 0 0 0 0 0 0 0 0 0 0 0.08 0"/>
<feBlend mode="normal" in2="BackgroundImageFix" result="effect1_dropShadow_2587_3562"/>
<feBlend mode="normal" in="SourceGraphic" in2="effect1_dropShadow_2587_3562" result="shape"/>
</filter>
</defs>
</svg>
