<svg width="109" height="108" viewBox="0 0 109 108" fill="none" xmlns="http://www.w3.org/2000/svg">
<rect x="2" y="2" width="105" height="104" rx="52" fill="#2DA5F3"/>
<rect x="2" y="2" width="105" height="104" rx="52" stroke="white" stroke-width="4"/>
<path d="M33.49 43.773H35.866V45.984C36.7753 46.1307 37.56 46.424 38.22 46.864C38.88 47.2967 39.386 47.832 39.738 48.47C40.09 49.108 40.2697 49.7973 40.277 50.538L37.56 50.626C37.4353 49.812 37.153 49.185 36.713 48.745C36.273 48.2977 35.5983 48.074 34.689 48.074C33.8017 48.074 33.0537 48.2757 32.445 48.679C31.8437 49.0823 31.543 49.6433 31.543 50.362C31.543 50.8753 31.719 51.2823 32.071 51.583C32.423 51.8837 33.0757 52.166 34.029 52.43L36.625 53.112C38.0257 53.4713 39.0303 54.058 39.639 54.872C40.255 55.686 40.563 56.654 40.563 57.776C40.563 58.9567 40.1303 59.9393 39.265 60.724C38.3997 61.5087 37.2337 61.9853 35.767 62.154V64.189H33.402V62.154C31.9353 62 30.74 61.5563 29.816 60.823C28.8993 60.0823 28.3567 59.0447 28.188 57.71L30.982 57.611C31.18 58.4177 31.598 59.0263 32.236 59.437C32.8813 59.8403 33.677 60.042 34.623 60.042C35.1877 60.042 35.7047 59.9467 36.174 59.756C36.6433 59.5653 37.0173 59.3013 37.296 58.964C37.5747 58.6267 37.714 58.238 37.714 57.798C37.714 57.16 37.516 56.6687 37.12 56.324C36.7313 55.972 36.119 55.697 35.283 55.499L32.61 54.861C31.4147 54.5897 30.4613 54.113 29.75 53.431C29.046 52.7417 28.6867 51.8177 28.672 50.659C28.6647 49.8083 28.8663 49.0567 29.277 48.404C29.6877 47.744 30.256 47.205 30.982 46.787C31.708 46.369 32.544 46.0977 33.49 45.973V43.773ZM43.0578 62V59.833C43.0578 59.019 43.2081 58.3187 43.5088 57.732C43.8094 57.138 44.2091 56.621 44.7078 56.181C45.2064 55.741 45.7528 55.3523 46.3468 55.015C46.9408 54.6703 47.5348 54.3477 48.1288 54.047C48.7301 53.739 49.2764 53.4237 49.7678 53.101C50.2664 52.771 50.6661 52.4043 50.9668 52.001C51.2748 51.5903 51.4288 51.11 51.4288 50.56C51.4288 49.8487 51.1758 49.2693 50.6698 48.822C50.1711 48.3673 49.4928 48.14 48.6348 48.14C47.7254 48.14 46.9738 48.4003 46.3798 48.921C45.7858 49.4417 45.4374 50.175 45.3348 51.121H42.7388C42.7534 50.153 42.9844 49.273 43.4318 48.481C43.8791 47.689 44.5428 47.0583 45.4228 46.589C46.3028 46.1123 47.3991 45.874 48.7118 45.874C49.8484 45.874 50.8274 46.072 51.6488 46.468C52.4774 46.8567 53.1154 47.403 53.5628 48.107C54.0174 48.8037 54.2448 49.6177 54.2448 50.549C54.2448 51.363 54.0944 52.0597 53.7938 52.639C53.5004 53.2183 53.1081 53.7207 52.6168 54.146C52.1328 54.564 51.5974 54.9343 51.0108 55.257C50.4314 55.5797 49.8484 55.884 49.2618 56.17C48.6824 56.4487 48.1471 56.742 47.6558 57.05C47.1718 57.3507 46.7794 57.6953 46.4788 58.084C46.1854 58.4727 46.0388 58.9383 46.0388 59.481V59.712H54.2778V62H43.0578ZM61.9489 62.242C61.0102 62.242 60.1339 62.0623 59.3199 61.703C58.5132 61.3437 57.8459 60.834 57.3179 60.174C56.7899 59.514 56.4819 58.7367 56.3939 57.842H58.9569C59.1109 58.5093 59.4409 59.052 59.9469 59.47C60.4602 59.8807 61.0946 60.086 61.8499 60.086C62.6932 60.086 63.4229 59.877 64.0389 59.459C64.6622 59.041 65.1279 58.3847 65.4359 57.49C65.7439 56.5953 65.8576 55.433 65.7769 54.003C65.4836 54.707 64.9886 55.2753 64.2919 55.708C63.6026 56.1333 62.7886 56.346 61.8499 56.346C60.7866 56.346 59.8442 56.1443 59.0229 55.741C58.2089 55.3303 57.5709 54.7473 57.1089 53.992C56.6469 53.2293 56.4159 52.3273 56.4159 51.286C56.4159 50.23 56.6506 49.295 57.1199 48.481C57.5966 47.667 58.2639 47.029 59.1219 46.567C59.9872 46.105 61.0029 45.874 62.1689 45.874C63.4669 45.874 64.5852 46.193 65.5239 46.831C66.4699 47.469 67.1996 48.3783 67.7129 49.559C68.2262 50.7397 68.4829 52.1403 68.4829 53.761C68.4829 56.5257 67.9072 58.6303 66.7559 60.075C65.6119 61.5197 64.0096 62.242 61.9489 62.242ZM62.2459 54.168C62.7592 54.168 63.2506 54.0507 63.7199 53.816C64.1892 53.5813 64.5742 53.277 64.8749 52.903C65.1756 52.529 65.3259 52.133 65.3259 51.715C65.3332 50.571 65.0509 49.658 64.4789 48.976C63.9142 48.294 63.1662 47.953 62.2349 47.953C61.3842 47.953 60.6839 48.25 60.1339 48.844C59.5839 49.438 59.3089 50.208 59.3089 51.154C59.3089 52.0927 59.5692 52.8297 60.0899 53.365C60.6106 53.9003 61.3292 54.168 62.2459 54.168ZM75.9782 62.242C75.0395 62.242 74.1632 62.0623 73.3492 61.703C72.5425 61.3437 71.8752 60.834 71.3472 60.174C70.8192 59.514 70.5112 58.7367 70.4232 57.842H72.9862C73.1402 58.5093 73.4702 59.052 73.9762 59.47C74.4895 59.8807 75.1239 60.086 75.8792 60.086C76.7225 60.086 77.4522 59.877 78.0682 59.459C78.6915 59.041 79.1572 58.3847 79.4652 57.49C79.7732 56.5953 79.8869 55.433 79.8062 54.003C79.5129 54.707 79.0179 55.2753 78.3212 55.708C77.6319 56.1333 76.8179 56.346 75.8792 56.346C74.8159 56.346 73.8735 56.1443 73.0522 55.741C72.2382 55.3303 71.6002 54.7473 71.1382 53.992C70.6762 53.2293 70.4452 52.3273 70.4452 51.286C70.4452 50.23 70.6799 49.295 71.1492 48.481C71.6259 47.667 72.2932 47.029 73.1512 46.567C74.0165 46.105 75.0322 45.874 76.1982 45.874C77.4962 45.874 78.6145 46.193 79.5532 46.831C80.4992 47.469 81.2289 48.3783 81.7422 49.559C82.2555 50.7397 82.5122 52.1403 82.5122 53.761C82.5122 56.5257 81.9365 58.6303 80.7852 60.075C79.6412 61.5197 78.0389 62.242 75.9782 62.242ZM76.2752 54.168C76.7885 54.168 77.2799 54.0507 77.7492 53.816C78.2185 53.5813 78.6035 53.277 78.9042 52.903C79.2049 52.529 79.3552 52.133 79.3552 51.715C79.3625 50.571 79.0802 49.658 78.5082 48.976C77.9435 48.294 77.1955 47.953 76.2642 47.953C75.4135 47.953 74.7132 48.25 74.1632 48.844C73.6132 49.438 73.3382 50.208 73.3382 51.154C73.3382 52.0927 73.5985 52.8297 74.1192 53.365C74.6399 53.9003 75.3585 54.168 76.2752 54.168Z" fill="white"/>
</svg>
