<svg width="44" height="20" viewBox="0 0 44 20" fill="none" xmlns="http://www.w3.org/2000/svg">
<path d="M1.337 15V4.878H7.721L7.714 6.019H2.639V9.323H7.21V10.457H2.632V13.831L7.854 13.845V15H1.337ZM9.57491 15V7.762H10.8279V8.812C10.9446 8.61133 11.1056 8.42233 11.3109 8.245C11.5209 8.06767 11.7729 7.92533 12.0669 7.818C12.3656 7.71067 12.7086 7.657 13.0959 7.657C13.5532 7.657 13.9732 7.748 14.3559 7.93C14.7432 8.112 15.0512 8.39667 15.2799 8.784C15.5132 9.16667 15.6299 9.66133 15.6299 10.268V15H14.3349V10.394C14.3349 9.82933 14.1856 9.41167 13.8869 9.141C13.5929 8.86567 13.2102 8.728 12.7389 8.728C12.4122 8.728 12.1066 8.78167 11.8219 8.889C11.5372 8.99167 11.3062 9.15033 11.1289 9.365C10.9516 9.575 10.8629 9.841 10.8629 10.163V15H9.57491ZM20.714 17.394C19.58 17.394 18.6957 17.2283 18.061 16.897C17.4263 16.5703 17.109 16.1013 17.109 15.49C17.109 15.2287 17.1697 15.007 17.291 14.825C17.4123 14.6383 17.557 14.4843 17.725 14.363C17.893 14.2417 18.0493 14.146 18.194 14.076C18.3387 14.0013 18.4343 13.9477 18.481 13.915C18.397 13.8683 18.2967 13.81 18.18 13.74C18.0633 13.67 17.9583 13.5767 17.865 13.46C17.7763 13.3433 17.732 13.1917 17.732 13.005C17.732 12.7763 17.8393 12.5663 18.054 12.375C18.2687 12.1837 18.5883 12.0413 19.013 11.948C18.5883 11.7333 18.257 11.4487 18.019 11.094C17.781 10.7393 17.662 10.3543 17.662 9.939C17.662 9.47233 17.788 9.06633 18.04 8.721C18.292 8.37567 18.6537 8.112 19.125 7.93C19.5963 7.74333 20.1587 7.65 20.812 7.65C21.2833 7.65 21.6777 7.706 21.995 7.818C22.317 7.92533 22.6157 8.07933 22.891 8.28C22.9657 8.24733 23.0847 8.19833 23.248 8.133C23.4113 8.063 23.5887 7.98833 23.78 7.909C23.976 7.82967 24.158 7.755 24.326 7.685C24.4987 7.61033 24.6363 7.55433 24.739 7.517L24.732 8.714L23.465 8.952C23.5397 9.10133 23.598 9.26467 23.64 9.442C23.682 9.61933 23.703 9.785 23.703 9.939C23.703 10.3637 23.591 10.7487 23.367 11.094C23.1477 11.4393 22.814 11.7147 22.366 11.92C21.918 12.1253 21.358 12.228 20.686 12.228C20.63 12.228 20.5577 12.228 20.469 12.228C20.385 12.2233 20.3127 12.2187 20.252 12.214C19.7573 12.228 19.4167 12.284 19.23 12.382C19.048 12.4753 18.957 12.5803 18.957 12.697C18.957 12.8323 19.062 12.9257 19.272 12.977C19.482 13.0283 19.8367 13.0727 20.336 13.11C20.518 13.1193 20.742 13.131 21.008 13.145C21.2787 13.159 21.5797 13.1777 21.911 13.201C22.667 13.2477 23.2503 13.4413 23.661 13.782C24.0717 14.1227 24.277 14.5823 24.277 15.161C24.277 15.819 23.983 16.3557 23.395 16.771C22.8117 17.1863 21.918 17.394 20.714 17.394ZM20.945 16.561C21.6123 16.561 22.1233 16.4607 22.478 16.26C22.8373 16.0593 23.017 15.756 23.017 15.35C23.017 15.0607 22.9073 14.825 22.688 14.643C22.4687 14.4563 22.1373 14.349 21.694 14.321L19.664 14.188C19.482 14.1787 19.293 14.2253 19.097 14.328C18.901 14.426 18.7353 14.5637 18.6 14.741C18.4647 14.9183 18.397 15.119 18.397 15.343C18.397 15.7257 18.6047 16.0243 19.02 16.239C19.4353 16.4537 20.077 16.561 20.945 16.561ZM20.728 11.395C21.246 11.395 21.6637 11.2737 21.981 11.031C22.303 10.7883 22.464 10.429 22.464 9.953C22.464 9.463 22.303 9.08967 21.981 8.833C21.6637 8.57633 21.246 8.448 20.728 8.448C20.196 8.448 19.7667 8.57867 19.44 8.84C19.118 9.09667 18.957 9.46767 18.957 9.953C18.957 10.4103 19.111 10.765 19.419 11.017C19.7317 11.269 20.168 11.395 20.728 11.395Z" fill="white"/>
<g opacity="0.5">
<path d="M41.75 8.5L38 12.25L34.25 8.5" stroke="white" stroke-width="1.5" stroke-linecap="round" stroke-linejoin="round"/>
</g>
</svg>
