<svg width="88" height="17" viewBox="0 0 88 17" fill="none" xmlns="http://www.w3.org/2000/svg">
<path d="M5.31 0.0869994H7.254V1.896C7.998 2.016 8.64 2.256 9.18 2.616C9.72 2.97 10.134 3.408 10.422 3.93C10.71 4.452 10.857 5.016 10.863 5.622L8.64 5.694C8.538 5.028 8.307 4.515 7.947 4.155C7.587 3.789 7.035 3.606 6.291 3.606C5.565 3.606 4.953 3.771 4.455 4.101C3.963 4.431 3.717 4.89 3.717 5.478C3.717 5.898 3.861 6.231 4.149 6.477C4.437 6.723 4.971 6.954 5.751 7.17L7.875 7.728C9.021 8.022 9.843 8.502 10.341 9.168C10.845 9.834 11.097 10.626 11.097 11.544C11.097 12.51 10.743 13.314 10.035 13.956C9.327 14.598 8.373 14.988 7.173 15.126V16.791H5.238V15.126C4.038 15 3.06 14.637 2.304 14.037C1.554 13.431 1.11 12.582 0.972 11.49L3.258 11.409C3.42 12.069 3.762 12.567 4.284 12.903C4.812 13.233 5.463 13.398 6.237 13.398C6.699 13.398 7.122 13.32 7.506 13.164C7.89 13.008 8.196 12.792 8.424 12.516C8.652 12.24 8.766 11.922 8.766 11.562C8.766 11.04 8.604 10.638 8.28 10.356C7.962 10.068 7.461 9.843 6.777 9.681L4.59 9.159C3.612 8.937 2.832 8.547 2.25 7.989C1.674 7.425 1.38 6.669 1.368 5.721C1.362 5.025 1.527 4.41 1.863 3.876C2.199 3.336 2.664 2.895 3.258 2.553C3.852 2.211 4.536 1.989 5.31 1.887V0.0869994ZM13.1382 15V13.227C13.1382 12.561 13.2612 11.988 13.5072 11.508C13.7532 11.022 14.0802 10.599 14.4882 10.239C14.8962 9.879 15.3432 9.561 15.8292 9.285C16.3152 9.003 16.8012 8.739 17.2872 8.493C17.7792 8.241 18.2262 7.983 18.6282 7.719C19.0362 7.449 19.3632 7.149 19.6092 6.819C19.8612 6.483 19.9872 6.09 19.9872 5.64C19.9872 5.058 19.7802 4.584 19.3662 4.218C18.9582 3.846 18.4032 3.66 17.7012 3.66C16.9572 3.66 16.3422 3.873 15.8562 4.299C15.3702 4.725 15.0852 5.325 15.0012 6.099H12.8772C12.8892 5.307 13.0782 4.587 13.4442 3.939C13.8102 3.291 14.3532 2.775 15.0732 2.391C15.7932 2.001 16.6902 1.806 17.7642 1.806C18.6942 1.806 19.4952 1.968 20.1672 2.292C20.8452 2.61 21.3672 3.057 21.7332 3.633C22.1052 4.203 22.2912 4.869 22.2912 5.631C22.2912 6.297 22.1682 6.867 21.9222 7.341C21.6822 7.815 21.3612 8.226 20.9592 8.574C20.5632 8.916 20.1252 9.219 19.6452 9.483C19.1712 9.747 18.6942 9.996 18.2142 10.23C17.7402 10.458 17.3022 10.698 16.9002 10.95C16.5042 11.196 16.1832 11.478 15.9372 11.796C15.6972 12.114 15.5772 12.495 15.5772 12.939V13.128H22.3182V15H13.1382ZM28.5945 15.198C27.8265 15.198 27.1095 15.051 26.4435 14.757C25.7835 14.463 25.2375 14.046 24.8055 13.506C24.3735 12.966 24.1215 12.33 24.0495 11.598H26.1465C26.2725 12.144 26.5425 12.588 26.9565 12.93C27.3765 13.266 27.8955 13.434 28.5135 13.434C29.2035 13.434 29.8005 13.263 30.3045 12.921C30.8145 12.579 31.1955 12.042 31.4475 11.31C31.6995 10.578 31.7925 9.627 31.7265 8.457C31.4865 9.033 31.0815 9.498 30.5115 9.852C29.9475 10.2 29.2815 10.374 28.5135 10.374C27.6435 10.374 26.8725 10.209 26.2005 9.879C25.5345 9.543 25.0125 9.066 24.6345 8.448C24.2565 7.824 24.0675 7.086 24.0675 6.234C24.0675 5.37 24.2595 4.605 24.6435 3.939C25.0335 3.273 25.5795 2.751 26.2815 2.373C26.9895 1.995 27.8205 1.806 28.7745 1.806C29.8365 1.806 30.7515 2.067 31.5195 2.589C32.2935 3.111 32.8905 3.855 33.3105 4.821C33.7305 5.787 33.9405 6.933 33.9405 8.259C33.9405 10.521 33.4695 12.243 32.5275 13.425C31.5915 14.607 30.2805 15.198 28.5945 15.198ZM28.8375 8.592C29.2575 8.592 29.6595 8.496 30.0435 8.304C30.4275 8.112 30.7425 7.863 30.9885 7.557C31.2345 7.251 31.3575 6.927 31.3575 6.585C31.3635 5.649 31.1325 4.902 30.6645 4.344C30.2025 3.786 29.5905 3.507 28.8285 3.507C28.1325 3.507 27.5595 3.75 27.1095 4.236C26.6595 4.722 26.4345 5.352 26.4345 6.126C26.4345 6.894 26.6475 7.497 27.0735 7.935C27.4995 8.373 28.0875 8.592 28.8375 8.592ZM40.0731 15.198C39.3051 15.198 38.5881 15.051 37.9221 14.757C37.2621 14.463 36.7161 14.046 36.2841 13.506C35.8521 12.966 35.6001 12.33 35.5281 11.598H37.6251C37.7511 12.144 38.0211 12.588 38.4351 12.93C38.8551 13.266 39.3741 13.434 39.9921 13.434C40.6821 13.434 41.2791 13.263 41.7831 12.921C42.2931 12.579 42.6741 12.042 42.9261 11.31C43.1781 10.578 43.2711 9.627 43.2051 8.457C42.9651 9.033 42.5601 9.498 41.9901 9.852C41.4261 10.2 40.7601 10.374 39.9921 10.374C39.1221 10.374 38.3511 10.209 37.6791 9.879C37.0131 9.543 36.4911 9.066 36.1131 8.448C35.7351 7.824 35.5461 7.086 35.5461 6.234C35.5461 5.37 35.7381 4.605 36.1221 3.939C36.5121 3.273 37.0581 2.751 37.7601 2.373C38.4681 1.995 39.2991 1.806 40.2531 1.806C41.3151 1.806 42.2301 2.067 42.9981 2.589C43.7721 3.111 44.3691 3.855 44.7891 4.821C45.2091 5.787 45.4191 6.933 45.4191 8.259C45.4191 10.521 44.9481 12.243 44.0061 13.425C43.0701 14.607 41.7591 15.198 40.0731 15.198ZM40.3161 8.592C40.7361 8.592 41.1381 8.496 41.5221 8.304C41.9061 8.112 42.2211 7.863 42.4671 7.557C42.7131 7.251 42.8361 6.927 42.8361 6.585C42.8421 5.649 42.6111 4.902 42.1431 4.344C41.6811 3.786 41.0691 3.507 40.3071 3.507C39.6111 3.507 39.0381 3.75 38.5881 4.236C38.1381 4.722 37.9131 5.352 37.9131 6.126C37.9131 6.894 38.1261 7.497 38.5521 7.935C38.9781 8.373 39.5661 8.592 40.3161 8.592ZM61.7861 10.248C61.7861 11.79 61.3991 12.999 60.6251 13.875C59.8511 14.745 58.5671 15.18 56.7731 15.18C55.5731 15.18 54.6041 14.982 53.8661 14.586C53.1341 14.184 52.6031 13.608 52.2731 12.858C51.9431 12.102 51.7781 11.19 51.7781 10.122V1.986H54.0191V10.347C54.0191 11.355 54.2651 12.099 54.7571 12.579C55.2491 13.059 55.9211 13.299 56.7731 13.299C57.6251 13.299 58.3031 13.062 58.8071 12.588C59.3171 12.108 59.5721 11.361 59.5721 10.347V1.986H61.7861V10.248ZM69.3077 15.18C68.4677 15.18 67.6607 15.039 66.8867 14.757C66.1187 14.475 65.4737 14.055 64.9517 13.497C64.4297 12.939 64.1177 12.24 64.0157 11.4H66.2837C66.4277 12.06 66.7757 12.564 67.3277 12.912C67.8797 13.254 68.5367 13.425 69.2987 13.425C70.1027 13.425 70.7837 13.266 71.3417 12.948C71.8997 12.63 72.1787 12.168 72.1787 11.562C72.1787 11.028 71.9747 10.617 71.5667 10.329C71.1587 10.035 70.6217 9.816 69.9557 9.672L67.5617 9.15C66.5897 8.952 65.8217 8.568 65.2577 7.998C64.6997 7.428 64.4147 6.669 64.4027 5.721C64.3967 4.935 64.6037 4.251 65.0237 3.669C65.4437 3.081 66.0197 2.628 66.7517 2.31C67.4897 1.986 68.3207 1.824 69.2447 1.824C70.3247 1.824 71.2337 2.001 71.9717 2.355C72.7097 2.709 73.2677 3.18 73.6457 3.768C74.0297 4.35 74.2277 4.992 74.2397 5.694H72.0257C71.9477 4.92 71.6477 4.38 71.1257 4.074C70.6097 3.762 69.9917 3.606 69.2717 3.606C68.5517 3.606 67.9427 3.771 67.4447 4.101C66.9527 4.431 66.7067 4.89 66.7067 5.478C66.7067 5.898 66.8447 6.24 67.1207 6.504C67.4027 6.762 67.9277 6.981 68.6957 7.161L71.0357 7.683C71.7617 7.827 72.3467 8.046 72.7907 8.34C73.2347 8.628 73.5707 8.955 73.7987 9.321C74.0327 9.687 74.1887 10.065 74.2667 10.455C74.3507 10.839 74.3927 11.202 74.3927 11.544C74.3927 12.222 74.1857 12.837 73.7717 13.389C73.3577 13.935 72.7697 14.37 72.0077 14.694C71.2457 15.018 70.3457 15.18 69.3077 15.18ZM76.8973 1.986C76.9513 1.986 77.1073 1.986 77.3653 1.986C77.6293 1.986 77.9443 1.986 78.3103 1.986C78.6763 1.986 79.0453 1.989 79.4173 1.995C79.7893 1.995 80.1163 1.998 80.3983 2.004C82.7743 2.052 84.4933 2.634 85.5553 3.75C86.6173 4.866 87.1483 6.423 87.1483 8.421C87.1483 10.509 86.5873 12.129 85.4653 13.281C84.3433 14.427 82.6093 15 80.2633 15H76.8973V1.986ZM79.1203 3.795V13.191H80.2993C81.1933 13.191 81.9823 13.038 82.6663 12.732C83.3503 12.42 83.8843 11.916 84.2683 11.22C84.6583 10.524 84.8533 9.594 84.8533 8.43C84.8533 7.302 84.6733 6.399 84.3133 5.721C83.9533 5.043 83.4373 4.554 82.7653 4.254C82.0933 3.948 81.2893 3.795 80.3533 3.795H79.1203Z" fill="#2DA5F3"/>
</svg>
