<svg width="144" height="15" viewBox="0 0 144 15" fill="none" xmlns="http://www.w3.org/2000/svg">
<path d="M3.365 11.336L3.347 3.569H4.643L4.652 11.336H3.365ZM0.107 8.114V6.818L7.874 6.809V8.096L0.107 8.114ZM12.3324 14V3.641H9.82138V2.552C10.6014 2.552 11.2074 2.495 11.6394 2.381C12.0714 2.267 12.3774 2.093 12.5574 1.859C12.7434 1.625 12.8454 1.334 12.8634 0.985999H14.0514V14H12.3324ZM17.4305 10.013V8.708L21.9935 8.69V10.004L17.4305 10.013ZM24.2332 14V12.983V12.452C24.2332 11.786 24.3562 11.21 24.6022 10.724C24.8542 10.238 25.1842 9.815 25.5922 9.455C26.0062 9.089 26.4562 8.762 26.9422 8.474C27.4342 8.186 27.9232 7.91 28.4092 7.646C28.9012 7.376 29.3512 7.097 29.7592 6.809C30.1672 6.515 30.4942 6.185 30.7402 5.819C30.9922 5.447 31.1182 5.009 31.1182 4.505C31.1182 3.845 30.8842 3.308 30.4162 2.894C29.9542 2.48 29.3272 2.273 28.5352 2.273C27.6832 2.273 26.9992 2.513 26.4832 2.993C25.9672 3.473 25.6762 4.112 25.6102 4.91H23.9542C23.9722 4.16 24.1582 3.476 24.5122 2.858C24.8662 2.234 25.3852 1.736 26.0692 1.364C26.7532 0.991999 27.5962 0.805999 28.5982 0.805999C29.4682 0.805999 30.2242 0.961999 30.8662 1.274C31.5082 1.58 32.0032 2.012 32.3512 2.57C32.7052 3.122 32.8822 3.767 32.8822 4.505C32.8822 5.177 32.7592 5.753 32.5132 6.233C32.2672 6.713 31.9402 7.13 31.5322 7.484C31.1302 7.832 30.6892 8.144 30.2092 8.42C29.7292 8.696 29.2462 8.963 28.7602 9.221C28.2742 9.473 27.8302 9.74 27.4282 10.022C27.0262 10.298 26.7022 10.616 26.4562 10.976C26.2102 11.336 26.0872 11.765 26.0872 12.263V12.524H32.9542V14H24.2332ZM39.3388 14.198C37.9168 14.198 36.7888 13.64 35.9548 12.524C35.1208 11.402 34.7038 9.743 34.7038 7.547C34.7038 6.065 34.8958 4.823 35.2798 3.821C35.6638 2.819 36.2038 2.066 36.8998 1.562C37.5958 1.058 38.4148 0.805999 39.3568 0.805999C40.7668 0.805999 41.8888 1.373 42.7228 2.507C43.5628 3.635 43.9828 5.306 43.9828 7.52C43.9828 9.722 43.5658 11.387 42.7318 12.515C41.8978 13.637 40.7668 14.198 39.3388 14.198ZM39.3568 12.758C40.2868 12.758 40.9888 12.35 41.4628 11.534C41.9428 10.712 42.1828 9.377 42.1828 7.529C42.1828 5.645 41.9398 4.289 41.4538 3.461C40.9738 2.627 40.2718 2.21 39.3478 2.21C38.4298 2.21 37.7218 2.63 37.2238 3.47C36.7318 4.304 36.4858 5.657 36.4858 7.529C36.4858 9.371 36.7318 10.703 37.2238 11.525C37.7158 12.347 38.4268 12.758 39.3568 12.758ZM45.9773 14V12.983V12.452C45.9773 11.786 46.1003 11.21 46.3463 10.724C46.5983 10.238 46.9283 9.815 47.3363 9.455C47.7503 9.089 48.2003 8.762 48.6863 8.474C49.1783 8.186 49.6673 7.91 50.1533 7.646C50.6453 7.376 51.0953 7.097 51.5033 6.809C51.9113 6.515 52.2383 6.185 52.4843 5.819C52.7363 5.447 52.8623 5.009 52.8623 4.505C52.8623 3.845 52.6283 3.308 52.1603 2.894C51.6983 2.48 51.0713 2.273 50.2793 2.273C49.4273 2.273 48.7433 2.513 48.2273 2.993C47.7113 3.473 47.4203 4.112 47.3543 4.91H45.6983C45.7163 4.16 45.9023 3.476 46.2563 2.858C46.6103 2.234 47.1293 1.736 47.8133 1.364C48.4973 0.991999 49.3403 0.805999 50.3423 0.805999C51.2123 0.805999 51.9683 0.961999 52.6103 1.274C53.2523 1.58 53.7473 2.012 54.0953 2.57C54.4493 3.122 54.6263 3.767 54.6263 4.505C54.6263 5.177 54.5033 5.753 54.2573 6.233C54.0113 6.713 53.6843 7.13 53.2763 7.484C52.8743 7.832 52.4333 8.144 51.9533 8.42C51.4733 8.696 50.9903 8.963 50.5043 9.221C50.0183 9.473 49.5743 9.74 49.1723 10.022C48.7703 10.298 48.4463 10.616 48.2003 10.976C47.9543 11.336 47.8313 11.765 47.8313 12.263V12.524H54.6983V14H45.9773ZM56.7 10.013V8.708L61.263 8.69V10.004L56.7 10.013ZM68.3177 14.198C67.5137 14.198 66.7697 14.057 66.0857 13.775C65.4017 13.493 64.8137 13.1 64.3217 12.596C63.8357 12.092 63.4787 11.513 63.2507 10.859L64.6907 10.256C64.9067 10.748 65.1767 11.186 65.5007 11.57C65.8307 11.954 66.2207 12.254 66.6707 12.47C67.1207 12.686 67.6307 12.794 68.2007 12.794C69.1247 12.794 69.8657 12.527 70.4237 11.993C70.9877 11.453 71.2697 10.721 71.2697 9.797C71.2697 9.221 71.1377 8.72 70.8737 8.294C70.6097 7.862 70.2527 7.526 69.8027 7.286C69.3587 7.046 68.8667 6.926 68.3267 6.926C67.9727 6.926 67.6427 6.959 67.3367 7.025C67.0307 7.085 66.7277 7.205 66.4277 7.385C66.1277 7.565 65.8127 7.838 65.4827 8.204C65.4467 8.222 65.4197 8.231 65.4017 8.231C65.3837 8.225 65.3537 8.213 65.3117 8.195L63.9077 7.754L64.4927 0.985999H72.2597L72.2147 2.426H65.9147L65.5817 6.629C66.0137 6.227 66.4847 5.942 66.9947 5.774C67.5107 5.6 68.0687 5.513 68.6687 5.513C69.4547 5.513 70.1777 5.675 70.8377 5.999C71.5037 6.317 72.0377 6.791 72.4397 7.421C72.8417 8.045 73.0427 8.819 73.0427 9.743C73.0427 10.643 72.8477 11.426 72.4577 12.092C72.0677 12.758 71.5187 13.277 70.8107 13.649C70.1027 14.015 69.2717 14.198 68.3177 14.198ZM79.849 14.198C79.045 14.198 78.301 14.057 77.617 13.775C76.933 13.493 76.345 13.1 75.853 12.596C75.367 12.092 75.01 11.513 74.782 10.859L76.222 10.256C76.438 10.748 76.708 11.186 77.032 11.57C77.362 11.954 77.752 12.254 78.202 12.47C78.652 12.686 79.162 12.794 79.732 12.794C80.656 12.794 81.397 12.527 81.955 11.993C82.519 11.453 82.801 10.721 82.801 9.797C82.801 9.221 82.669 8.72 82.405 8.294C82.141 7.862 81.784 7.526 81.334 7.286C80.89 7.046 80.398 6.926 79.858 6.926C79.504 6.926 79.174 6.959 78.868 7.025C78.562 7.085 78.259 7.205 77.959 7.385C77.659 7.565 77.344 7.838 77.014 8.204C76.978 8.222 76.951 8.231 76.933 8.231C76.915 8.225 76.885 8.213 76.843 8.195L75.439 7.754L76.024 0.985999H83.791L83.746 2.426H77.446L77.113 6.629C77.545 6.227 78.016 5.942 78.526 5.774C79.042 5.6 79.6 5.513 80.2 5.513C80.986 5.513 81.709 5.675 82.369 5.999C83.035 6.317 83.569 6.791 83.971 7.421C84.373 8.045 84.574 8.819 84.574 9.743C84.574 10.643 84.379 11.426 83.989 12.092C83.599 12.758 83.05 13.277 82.342 13.649C81.634 14.015 80.803 14.198 79.849 14.198ZM91.3802 14.198C90.5762 14.198 89.8322 14.057 89.1482 13.775C88.4642 13.493 87.8762 13.1 87.3842 12.596C86.8982 12.092 86.5412 11.513 86.3132 10.859L87.7532 10.256C87.9692 10.748 88.2392 11.186 88.5632 11.57C88.8932 11.954 89.2832 12.254 89.7332 12.47C90.1832 12.686 90.6932 12.794 91.2632 12.794C92.1872 12.794 92.9282 12.527 93.4862 11.993C94.0502 11.453 94.3322 10.721 94.3322 9.797C94.3322 9.221 94.2002 8.72 93.9362 8.294C93.6722 7.862 93.3152 7.526 92.8652 7.286C92.4212 7.046 91.9292 6.926 91.3892 6.926C91.0352 6.926 90.7052 6.959 90.3992 7.025C90.0932 7.085 89.7902 7.205 89.4902 7.385C89.1902 7.565 88.8752 7.838 88.5452 8.204C88.5092 8.222 88.4822 8.231 88.4642 8.231C88.4462 8.225 88.4162 8.213 88.3742 8.195L86.9702 7.754L87.5552 0.985999H95.3222L95.2772 2.426H88.9772L88.6442 6.629C89.0762 6.227 89.5472 5.942 90.0572 5.774C90.5732 5.6 91.1312 5.513 91.7312 5.513C92.5172 5.513 93.2402 5.675 93.9002 5.999C94.5662 6.317 95.1002 6.791 95.5022 7.421C95.9042 8.045 96.1052 8.819 96.1052 9.743C96.1052 10.643 95.9102 11.426 95.5202 12.092C95.1302 12.758 94.5812 13.277 93.8732 13.649C93.1652 14.015 92.3342 14.198 91.3802 14.198ZM98.0965 10.013V8.708L102.659 8.69V10.004L98.0965 10.013ZM109.282 14.198C107.86 14.198 106.732 13.64 105.898 12.524C105.064 11.402 104.647 9.743 104.647 7.547C104.647 6.065 104.839 4.823 105.223 3.821C105.607 2.819 106.147 2.066 106.843 1.562C107.539 1.058 108.358 0.805999 109.3 0.805999C110.71 0.805999 111.832 1.373 112.666 2.507C113.506 3.635 113.926 5.306 113.926 7.52C113.926 9.722 113.509 11.387 112.675 12.515C111.841 13.637 110.71 14.198 109.282 14.198ZM109.3 12.758C110.23 12.758 110.932 12.35 111.406 11.534C111.886 10.712 112.126 9.377 112.126 7.529C112.126 5.645 111.883 4.289 111.397 3.461C110.917 2.627 110.215 2.21 109.291 2.21C108.373 2.21 107.665 2.63 107.167 3.47C106.675 4.304 106.429 5.657 106.429 7.529C106.429 9.371 106.675 10.703 107.167 11.525C107.659 12.347 108.37 12.758 109.3 12.758ZM118.153 14V3.641H115.642V2.552C116.422 2.552 117.028 2.495 117.46 2.381C117.892 2.267 118.198 2.093 118.378 1.859C118.564 1.625 118.666 1.334 118.684 0.985999H119.872V14H118.153ZM127.634 14.198C126.212 14.198 125.084 13.64 124.25 12.524C123.416 11.402 122.999 9.743 122.999 7.547C122.999 6.065 123.191 4.823 123.575 3.821C123.959 2.819 124.499 2.066 125.195 1.562C125.891 1.058 126.71 0.805999 127.652 0.805999C129.062 0.805999 130.184 1.373 131.018 2.507C131.858 3.635 132.278 5.306 132.278 7.52C132.278 9.722 131.861 11.387 131.027 12.515C130.193 13.637 129.062 14.198 127.634 14.198ZM127.652 12.758C128.582 12.758 129.284 12.35 129.758 11.534C130.238 10.712 130.478 9.377 130.478 7.529C130.478 5.645 130.235 4.289 129.749 3.461C129.269 2.627 128.567 2.21 127.643 2.21C126.725 2.21 126.017 2.63 125.519 3.47C125.027 4.304 124.781 5.657 124.781 7.529C124.781 9.371 125.027 10.703 125.519 11.525C126.011 12.347 126.722 12.758 127.652 12.758ZM140.087 14V10.679H133.958V9.158L140.024 0.985999H141.716V9.212H143.876V10.679H141.716V14H140.087ZM135.551 9.212H140.051V3.173L135.551 9.212Z" fill="#191C1F"/>
</svg>
