<svg width="86" height="31" viewBox="0 0 86 31" fill="none" xmlns="http://www.w3.org/2000/svg">
<path d="M3.74 1.08H21.72L21.54 5.14H7.7L7.04 13.18C8.06667 12.46 9.1 11.94 10.14 11.62C11.18 11.3 12.3267 11.14 13.58 11.14C15.4067 11.14 17.0733 11.5 18.58 12.22C20.0867 12.94 21.2867 14 22.18 15.4C23.0867 16.8 23.54 18.5133 23.54 20.54C23.54 22.5667 23.0867 24.32 22.18 25.8C21.2867 27.28 20.02 28.4267 18.38 29.24C16.7533 30.04 14.8267 30.44 12.6 30.44C10.76 30.44 9.04667 30.14 7.46 29.54C5.88667 28.9267 4.52667 28.0867 3.38 27.02C2.24667 25.9533 1.4 24.7333 0.84 23.36L4.78 21.28C5.52667 22.7733 6.48667 24.0133 7.66 25C8.84667 25.9733 10.3467 26.46 12.16 26.46C14.04 26.46 15.5467 25.94 16.68 24.9C17.8267 23.8467 18.4 22.4467 18.4 20.7C18.4 19.62 18.1333 18.66 17.6 17.82C17.08 16.98 16.3667 16.3267 15.46 15.86C14.5533 15.38 13.5333 15.14 12.4 15.14C11.3733 15.14 10.4333 15.2867 9.58 15.58C8.74 15.86 7.8 16.4867 6.76 17.46C6.56 17.54 6.36 17.5333 6.16 17.44L2.42 15.92L3.74 1.08ZM37.3872 30.44C35.6805 30.44 34.0872 30.1133 32.6072 29.46C31.1405 28.8067 29.9272 27.88 28.9672 26.68C28.0072 25.48 27.4472 24.0667 27.2872 22.44H31.9472C32.2272 23.6533 32.8272 24.64 33.7472 25.4C34.6805 26.1467 35.8339 26.52 37.2072 26.52C38.7405 26.52 40.0672 26.14 41.1872 25.38C42.3205 24.62 43.1672 23.4267 43.7272 21.8C44.2872 20.1733 44.4939 18.06 44.3472 15.46C43.8139 16.74 42.9139 17.7733 41.6472 18.56C40.3939 19.3333 38.9139 19.72 37.2072 19.72C35.2739 19.72 33.5605 19.3533 32.0672 18.62C30.5872 17.8733 29.4272 16.8133 28.5872 15.44C27.7472 14.0533 27.3272 12.4133 27.3272 10.52C27.3272 8.6 27.7539 6.9 28.6072 5.42C29.4739 3.94 30.6872 2.78 32.2472 1.94C33.8205 1.1 35.6672 0.680002 37.7872 0.680002C40.1472 0.680002 42.1805 1.26 43.8872 2.42C45.6072 3.58 46.9339 5.23334 47.8672 7.38C48.8005 9.52667 49.2672 12.0733 49.2672 15.02C49.2672 20.0467 48.2205 23.8733 46.1272 26.5C44.0472 29.1267 41.1339 30.44 37.3872 30.44ZM37.9272 15.76C38.8605 15.76 39.7539 15.5467 40.6072 15.12C41.4605 14.6933 42.1605 14.14 42.7072 13.46C43.2539 12.78 43.5272 12.06 43.5272 11.3C43.5405 9.22 43.0272 7.56 41.9872 6.32C40.9605 5.08 39.6005 4.46 37.9072 4.46C36.3605 4.46 35.0872 5 34.0872 6.08C33.0872 7.16 32.5872 8.56 32.5872 10.28C32.5872 11.9867 33.0605 13.3267 34.0072 14.3C34.9539 15.2733 36.2605 15.76 37.9272 15.76ZM60.1703 0.640003C61.5036 0.640003 62.7036 1 63.7703 1.72C64.837 2.42667 65.677 3.4 66.2903 4.64C66.9036 5.88 67.2103 7.30667 67.2103 8.92C67.2103 10.52 66.9036 11.9333 66.2903 13.16C65.6903 14.3867 64.857 15.3533 63.7903 16.06C62.7236 16.7533 61.517 17.1 60.1703 17.1C58.8103 17.1 57.5903 16.7533 56.5103 16.06C55.4436 15.3533 54.597 14.3867 53.9703 13.16C53.357 11.9333 53.0503 10.52 53.0503 8.92C53.0503 7.30667 53.3636 5.88 53.9903 4.64C54.617 3.4 55.4636 2.42667 56.5303 1.72C57.6103 1 58.8236 0.640003 60.1703 0.640003ZM80.4103 0.760004L60.9703 30.16L57.9503 30.12L77.4703 0.760004H80.4103ZM60.1303 14.52C61.277 14.52 62.137 14.02 62.7103 13.02C63.2836 12.0067 63.5703 10.64 63.5703 8.92C63.5703 7.17334 63.277 5.78 62.6903 4.74C62.1036 3.7 61.2503 3.18 60.1303 3.18C58.997 3.18 58.137 3.70667 57.5503 4.76C56.9636 5.8 56.6703 7.18667 56.6703 8.92C56.6703 10.6267 56.9636 11.9867 57.5503 13C58.137 14.0133 58.997 14.52 60.1303 14.52ZM78.7503 13.9C80.097 13.9 81.3036 14.26 82.3703 14.98C83.437 15.7 84.277 16.6867 84.8903 17.94C85.5036 19.18 85.8103 20.5933 85.8103 22.18C85.8103 23.7933 85.5036 25.22 84.8903 26.46C84.277 27.6867 83.437 28.6533 82.3703 29.36C81.317 30.0533 80.1103 30.4 78.7503 30.4C77.3903 30.4 76.1703 30.0533 75.0903 29.36C74.0236 28.6533 73.177 27.6867 72.5503 26.46C71.937 25.22 71.6303 23.7933 71.6303 22.18C71.6303 20.5933 71.9436 19.18 72.5703 17.94C73.197 16.6867 74.0436 15.7 75.1103 14.98C76.1903 14.26 77.4036 13.9 78.7503 13.9ZM78.7103 27.8C79.8303 27.8 80.6836 27.2933 81.2703 26.28C81.857 25.2533 82.1503 23.9 82.1503 22.22C82.1503 20.5 81.8503 19.1133 81.2503 18.06C80.6503 17.0067 79.8036 16.48 78.7103 16.48C77.6036 16.48 76.7503 17.0133 76.1503 18.08C75.5636 19.1467 75.2703 20.5267 75.2703 22.22C75.2703 23.9 75.5636 25.2533 76.1503 26.28C76.7503 27.2933 77.6036 27.8 78.7103 27.8Z" fill="#EBC80C"/>
</svg>
