<svg width="26" height="12" viewBox="0 0 26 12" fill="none" xmlns="http://www.w3.org/2000/svg">
<path d="M5.418 11V8.417H0.651V7.234L5.369 0.877999H6.685V7.276H8.365V8.417H6.685V11H5.418ZM1.89 7.276H5.39V2.579L1.89 7.276ZM13.2946 11.154C12.6693 11.154 12.0906 11.0443 11.5586 10.825C11.0266 10.6057 10.5693 10.3 10.1866 9.908C9.80864 9.516 9.53097 9.06567 9.35364 8.557L10.4736 8.088C10.6416 8.47067 10.8516 8.81133 11.1036 9.11C11.3603 9.40867 11.6636 9.642 12.0136 9.81C12.3636 9.978 12.7603 10.062 13.2036 10.062C13.9223 10.062 14.4986 9.85433 14.9326 9.439C15.3713 9.019 15.5906 8.44967 15.5906 7.731C15.5906 7.283 15.488 6.89333 15.2826 6.562C15.0773 6.226 14.7996 5.96467 14.4496 5.778C14.1043 5.59133 13.7216 5.498 13.3016 5.498C13.0263 5.498 12.7696 5.52367 12.5316 5.575C12.2936 5.62167 12.058 5.715 11.8246 5.855C11.5913 5.995 11.3463 6.20733 11.0896 6.492C11.0616 6.506 11.0406 6.513 11.0266 6.513C11.0126 6.50833 10.9893 6.499 10.9566 6.485L9.86464 6.142L10.3196 0.877999H16.3606L16.3256 1.998H11.4256L11.1666 5.267C11.5026 4.95433 11.869 4.73267 12.2656 4.602C12.667 4.46667 13.101 4.399 13.5676 4.399C14.179 4.399 14.7413 4.525 15.2546 4.777C15.7726 5.02433 16.188 5.393 16.5006 5.883C16.8133 6.36833 16.9696 6.97033 16.9696 7.689C16.9696 8.389 16.818 8.998 16.5146 9.516C16.2113 10.034 15.7843 10.4377 15.2336 10.727C14.683 11.0117 14.0366 11.154 13.2946 11.154ZM21.8994 11.154C21.2041 11.1493 20.5904 11.021 20.0584 10.769C19.5311 10.517 19.1157 10.1647 18.8124 9.712C18.5091 9.25467 18.3457 8.71333 18.3224 8.088H19.6174C19.7154 8.718 19.9721 9.201 20.3874 9.537C20.8027 9.873 21.3231 10.041 21.9484 10.041C22.4431 10.041 22.8747 9.964 23.2434 9.81C23.6121 9.65133 23.8967 9.43433 24.0974 9.159C24.2981 8.88367 24.3984 8.56167 24.3984 8.193C24.3984 7.787 24.2864 7.444 24.0624 7.164C23.8384 6.884 23.5327 6.67167 23.1454 6.527C22.7581 6.37767 22.3264 6.30067 21.8504 6.296L20.9404 6.275V5.176L21.8084 5.155C22.2517 5.14567 22.6484 5.06167 22.9984 4.903C23.3484 4.73967 23.6237 4.52733 23.8244 4.266C24.0297 4 24.1324 3.70833 24.1324 3.391C24.1324 3.111 24.0461 2.852 23.8734 2.614C23.7007 2.37133 23.4511 2.17767 23.1244 2.033C22.8024 1.88833 22.4104 1.816 21.9484 1.816C21.5844 1.816 21.2367 1.88833 20.9054 2.033C20.5741 2.173 20.3011 2.39 20.0864 2.684C19.8717 2.978 19.7574 3.35833 19.7434 3.825H18.4554C18.4554 3.17167 18.6141 2.61633 18.9314 2.159C19.2487 1.697 19.6711 1.34467 20.1984 1.102C20.7304 0.859333 21.3161 0.737999 21.9554 0.737999C22.6554 0.737999 23.2737 0.840666 23.8104 1.046C24.3471 1.24667 24.7671 1.54067 25.0704 1.928C25.3737 2.31533 25.5254 2.789 25.5254 3.349C25.5254 3.84833 25.3667 4.301 25.0494 4.707C24.7321 5.10833 24.2467 5.42333 23.5934 5.652C24.0367 5.77333 24.4241 5.95067 24.7554 6.184C25.0867 6.41733 25.3434 6.70433 25.5254 7.045C25.7074 7.381 25.7984 7.76833 25.7984 8.207C25.7984 8.669 25.7004 9.08433 25.5044 9.453C25.3131 9.817 25.0424 10.1273 24.6924 10.384C24.3424 10.636 23.9294 10.8297 23.4534 10.965C22.9774 11.0957 22.4594 11.1587 21.8994 11.154Z" fill="#475156"/>
</svg>
