<svg width="115" height="13" viewBox="0 0 115 13" fill="none" xmlns="http://www.w3.org/2000/svg">
<path d="M0.4 12V0.431999H4.376C5.84267 0.431999 6.93867 0.693333 7.664 1.216C8.39467 1.73333 8.76 2.48 8.76 3.456C8.76 4.048 8.608 4.56 8.304 4.992C8 5.424 7.464 5.78933 6.696 6.088C7.16533 6.2 7.552 6.35467 7.856 6.552C8.16533 6.744 8.40533 6.96533 8.576 7.216C8.74667 7.46133 8.86667 7.72533 8.936 8.008C9.00533 8.29067 9.04 8.58133 9.04 8.88C9.04 9.936 8.672 10.72 7.936 11.232C7.20533 11.744 6.072 12 4.536 12H0.4ZM2.344 10.448H4.56C5.38133 10.448 6.00267 10.3013 6.424 10.008C6.85067 9.70933 7.064 9.28 7.064 8.72C7.064 8.31467 6.96 7.98133 6.752 7.72C6.544 7.45333 6.26133 7.256 5.904 7.128C5.54667 7 5.14667 6.936 4.704 6.936H2.344V10.448ZM2.344 5.36H4.704C4.976 5.36 5.24 5.33067 5.496 5.272C5.752 5.21333 5.984 5.12 6.192 4.992C6.4 4.864 6.56533 4.69333 6.688 4.48C6.816 4.26667 6.88 4.008 6.88 3.704C6.88 3.12267 6.65867 2.69067 6.216 2.408C5.77867 2.12 5.216 1.976 4.528 1.976H2.344V5.36ZM11.4156 12V0.431999H19.0636L19.0556 2.104H13.3756V5.344H18.3916V6.992H13.3596V10.304L19.1756 10.312V12H11.4156ZM25.7163 12.16C25.1563 12.16 24.6096 12.0907 24.0763 11.952C23.5429 11.808 23.0576 11.5973 22.6203 11.32C22.1883 11.0373 21.8283 10.688 21.5403 10.272C21.2523 9.85067 21.0763 9.36 21.0123 8.8H23.0283C23.1136 9.18933 23.2816 9.51733 23.5323 9.784C23.7829 10.0507 24.0949 10.2533 24.4683 10.392C24.8469 10.5307 25.2603 10.6 25.7083 10.6C26.1883 10.6 26.6203 10.536 27.0043 10.408C27.3936 10.28 27.7003 10.0933 27.9243 9.848C28.1536 9.60267 28.2683 9.30133 28.2683 8.944C28.2683 8.62933 28.1856 8.36267 28.0203 8.144C27.8549 7.92533 27.6229 7.74667 27.3243 7.608C27.0309 7.464 26.6869 7.34933 26.2923 7.264L24.1643 6.8C23.3056 6.624 22.6256 6.28267 22.1243 5.776C21.6229 5.26933 21.3669 4.59467 21.3563 3.752C21.3509 3.05333 21.5349 2.44533 21.9083 1.928C22.2869 1.40533 22.8016 1.00267 23.4523 0.719999C24.1029 0.431999 24.8389 0.287999 25.6603 0.287999C26.6203 0.287999 27.4283 0.445333 28.0843 0.759999C28.7456 1.06933 29.2443 1.48533 29.5803 2.008C29.9216 2.53067 30.0949 3.104 30.1003 3.728H28.1323C28.0843 3.26933 27.9456 2.904 27.7163 2.632C27.4923 2.36 27.2043 2.16533 26.8523 2.048C26.5003 1.93067 26.1109 1.872 25.6843 1.872C25.3643 1.872 25.0656 1.90933 24.7883 1.984C24.5109 2.05867 24.2683 2.168 24.0603 2.312C23.8523 2.456 23.6896 2.632 23.5723 2.84C23.4603 3.04267 23.4043 3.27467 23.4043 3.536C23.4043 3.90933 23.5269 4.21333 23.7723 4.448C24.0229 4.67733 24.4896 4.872 25.1723 5.032L27.2523 5.496C27.8976 5.624 28.4176 5.816 28.8123 6.072C29.2069 6.328 29.5083 6.62133 29.7163 6.952C29.9243 7.27733 30.0629 7.61067 30.1323 7.952C30.2016 8.29333 30.2363 8.61867 30.2363 8.928C30.2363 9.53067 30.0496 10.0773 29.6763 10.568C29.3083 11.0587 28.7856 11.448 28.1083 11.736C27.4363 12.0187 26.6389 12.16 25.7163 12.16ZM31.3048 2.184V0.431999H40.3288V2.184H36.8568V12H34.9048V2.184H31.3048ZM49.7631 12.16C49.2031 12.16 48.6565 12.0907 48.1231 11.952C47.5898 11.808 47.1045 11.5973 46.6671 11.32C46.2351 11.0373 45.8751 10.688 45.5871 10.272C45.2991 9.85067 45.1231 9.36 45.0591 8.8H47.0751C47.1605 9.18933 47.3285 9.51733 47.5791 9.784C47.8298 10.0507 48.1418 10.2533 48.5151 10.392C48.8938 10.5307 49.3071 10.6 49.7551 10.6C50.2351 10.6 50.6671 10.536 51.0511 10.408C51.4405 10.28 51.7471 10.0933 51.9711 9.848C52.2005 9.60267 52.3151 9.30133 52.3151 8.944C52.3151 8.62933 52.2325 8.36267 52.0671 8.144C51.9018 7.92533 51.6698 7.74667 51.3711 7.608C51.0778 7.464 50.7338 7.34933 50.3391 7.264L48.2111 6.8C47.3525 6.624 46.6725 6.28267 46.1711 5.776C45.6698 5.26933 45.4138 4.59467 45.4031 3.752C45.3978 3.05333 45.5818 2.44533 45.9551 1.928C46.3338 1.40533 46.8485 1.00267 47.4991 0.719999C48.1498 0.431999 48.8858 0.287999 49.7071 0.287999C50.6671 0.287999 51.4751 0.445333 52.1311 0.759999C52.7925 1.06933 53.2911 1.48533 53.6271 2.008C53.9685 2.53067 54.1418 3.104 54.1471 3.728H52.1791C52.1311 3.26933 51.9925 2.904 51.7631 2.632C51.5391 2.36 51.2511 2.16533 50.8991 2.048C50.5471 1.93067 50.1578 1.872 49.7311 1.872C49.4111 1.872 49.1125 1.90933 48.8351 1.984C48.5578 2.05867 48.3151 2.168 48.1071 2.312C47.8991 2.456 47.7365 2.632 47.6191 2.84C47.5071 3.04267 47.4511 3.27467 47.4511 3.536C47.4511 3.90933 47.5738 4.21333 47.8191 4.448C48.0698 4.67733 48.5365 4.872 49.2191 5.032L51.2991 5.496C51.9445 5.624 52.4645 5.816 52.8591 6.072C53.2538 6.328 53.5551 6.62133 53.7631 6.952C53.9711 7.27733 54.1098 7.61067 54.1791 7.952C54.2485 8.29333 54.2831 8.61867 54.2831 8.928C54.2831 9.53067 54.0965 10.0773 53.7231 10.568C53.3551 11.0587 52.8325 11.448 52.1551 11.736C51.4831 12.0187 50.6858 12.16 49.7631 12.16ZM56.525 12V0.431999H64.173L64.165 2.104H58.485V5.344H63.501V6.992H58.469V10.304L64.285 10.312V12H56.525ZM66.7361 0.431999H68.7041V10.32H73.9281V12H66.7281L66.7361 0.431999ZM75.9705 0.431999H77.9385V10.32H83.1625V12H75.9625L75.9705 0.431999ZM85.1969 12V0.431999H92.8449L92.8369 2.104H87.1569V5.344H92.1729V6.992H87.1409V10.304L92.9569 10.312V12H85.1969ZM104.056 12H102.024L100.032 7.304H97.344V12H95.4V0.431999H100.096C100.981 0.431999 101.709 0.570666 102.28 0.848C102.856 1.12 103.283 1.50667 103.56 2.008C103.837 2.504 103.976 3.08533 103.976 3.752C103.976 4.37067 103.875 4.89067 103.672 5.312C103.469 5.728 103.205 6.06933 102.88 6.336C102.56 6.59733 102.216 6.81067 101.848 6.976L104.056 12ZM99.656 5.76C100.392 5.76 100.965 5.58933 101.376 5.248C101.792 4.90667 102 4.432 102 3.824C102 3.22667 101.808 2.76533 101.424 2.44C101.04 2.11467 100.533 1.952 99.904 1.952H97.344V5.76H99.656ZM110.263 12.16C109.703 12.16 109.156 12.0907 108.623 11.952C108.09 11.808 107.604 11.5973 107.167 11.32C106.735 11.0373 106.375 10.688 106.087 10.272C105.799 9.85067 105.623 9.36 105.559 8.8H107.575C107.66 9.18933 107.828 9.51733 108.079 9.784C108.33 10.0507 108.642 10.2533 109.015 10.392C109.394 10.5307 109.807 10.6 110.255 10.6C110.735 10.6 111.167 10.536 111.551 10.408C111.94 10.28 112.247 10.0933 112.471 9.848C112.7 9.60267 112.815 9.30133 112.815 8.944C112.815 8.62933 112.732 8.36267 112.567 8.144C112.402 7.92533 112.17 7.74667 111.871 7.608C111.578 7.464 111.234 7.34933 110.839 7.264L108.711 6.8C107.852 6.624 107.172 6.28267 106.671 5.776C106.17 5.26933 105.914 4.59467 105.903 3.752C105.898 3.05333 106.082 2.44533 106.455 1.928C106.834 1.40533 107.348 1.00267 107.999 0.719999C108.65 0.431999 109.386 0.287999 110.207 0.287999C111.167 0.287999 111.975 0.445333 112.631 0.759999C113.292 1.06933 113.791 1.48533 114.127 2.008C114.468 2.53067 114.642 3.104 114.647 3.728H112.679C112.631 3.26933 112.492 2.904 112.263 2.632C112.039 2.36 111.751 2.16533 111.399 2.048C111.047 1.93067 110.658 1.872 110.231 1.872C109.911 1.872 109.612 1.90933 109.335 1.984C109.058 2.05867 108.815 2.168 108.607 2.312C108.399 2.456 108.236 2.632 108.119 2.84C108.007 3.04267 107.951 3.27467 107.951 3.536C107.951 3.90933 108.074 4.21333 108.319 4.448C108.57 4.67733 109.036 4.872 109.719 5.032L111.799 5.496C112.444 5.624 112.964 5.816 113.359 6.072C113.754 6.328 114.055 6.62133 114.263 6.952C114.471 7.27733 114.61 7.61067 114.679 7.952C114.748 8.29333 114.783 8.61867 114.783 8.928C114.783 9.53067 114.596 10.0773 114.223 10.568C113.855 11.0587 113.332 11.448 112.655 11.736C111.983 12.0187 111.186 12.16 110.263 12.16Z" fill="#191C1F"/>
</svg>
