<svg width="118" height="19" viewBox="0 0 118 19" fill="none" xmlns="http://www.w3.org/2000/svg">
<path d="M0.1 18V0.647999H6.064C8.264 0.647999 9.908 1.04 10.996 1.824C12.092 2.6 12.64 3.72 12.64 5.184C12.64 6.072 12.412 6.84 11.956 7.488C11.5 8.136 10.696 8.684 9.544 9.132C10.248 9.3 10.828 9.532 11.284 9.828C11.748 10.116 12.108 10.448 12.364 10.824C12.62 11.192 12.8 11.588 12.904 12.012C13.008 12.436 13.06 12.872 13.06 13.32C13.06 14.904 12.508 16.08 11.404 16.848C10.308 17.616 8.608 18 6.304 18H0.1ZM3.016 15.672H6.34C7.572 15.672 8.504 15.452 9.136 15.012C9.776 14.564 10.096 13.92 10.096 13.08C10.096 12.472 9.94 11.972 9.628 11.58C9.316 11.18 8.892 10.884 8.356 10.692C7.82 10.5 7.22 10.404 6.556 10.404H3.016V15.672ZM3.016 8.04H6.556C6.964 8.04 7.36 7.996 7.744 7.908C8.128 7.82 8.476 7.68 8.788 7.488C9.1 7.296 9.348 7.04 9.532 6.72C9.724 6.4 9.82 6.012 9.82 5.556C9.82 4.684 9.488 4.036 8.824 3.612C8.168 3.18 7.324 2.964 6.292 2.964H3.016V8.04ZM18.3308 12.468C18.3228 13.172 18.4348 13.796 18.6668 14.34C18.8988 14.884 19.2428 15.312 19.6988 15.624C20.1548 15.928 20.7188 16.08 21.3908 16.08C22.0788 16.08 22.6748 15.928 23.1788 15.624C23.6908 15.312 24.0308 14.84 24.1988 14.208H26.8748C26.7308 15.072 26.3868 15.804 25.8428 16.404C25.2988 17.004 24.6388 17.46 23.8628 17.772C23.0948 18.084 22.2948 18.24 21.4628 18.24C20.2628 18.24 19.2068 17.988 18.2948 17.484C17.3908 16.972 16.6828 16.244 16.1708 15.3C15.6668 14.356 15.4148 13.232 15.4148 11.928C15.4148 10.656 15.6468 9.528 16.1108 8.544C16.5748 7.552 17.2428 6.772 18.1148 6.204C18.9948 5.636 20.0508 5.352 21.2828 5.352C22.5068 5.352 23.5348 5.612 24.3668 6.132C25.2068 6.652 25.8388 7.38 26.2628 8.316C26.6948 9.244 26.9108 10.332 26.9108 11.58V12.468H18.3308ZM18.3308 10.656H24.1508C24.1508 10.056 24.0468 9.516 23.8388 9.036C23.6308 8.548 23.3108 8.164 22.8788 7.884C22.4548 7.596 21.9188 7.452 21.2708 7.452C20.6308 7.452 20.0908 7.608 19.6508 7.92C19.2108 8.232 18.8788 8.636 18.6548 9.132C18.4308 9.62 18.3228 10.128 18.3308 10.656ZM34.2537 18.24C33.3897 18.24 32.5697 18.104 31.7937 17.832C31.0257 17.552 30.3777 17.116 29.8497 16.524C29.3297 15.932 29.0017 15.168 28.8657 14.232H31.4337C31.5457 14.688 31.7417 15.06 32.0217 15.348C32.3097 15.636 32.6497 15.848 33.0417 15.984C33.4337 16.112 33.8337 16.176 34.2417 16.176C34.9857 16.176 35.5857 16.048 36.0417 15.792C36.5057 15.536 36.7377 15.14 36.7377 14.604C36.7377 14.212 36.6097 13.9 36.3537 13.668C36.0977 13.436 35.6897 13.26 35.1297 13.14L32.7657 12.6C31.7177 12.368 30.8737 11.984 30.2337 11.448C29.6017 10.912 29.2817 10.156 29.2737 9.18C29.2657 8.444 29.4497 7.788 29.8257 7.212C30.2017 6.636 30.7617 6.184 31.5057 5.856C32.2497 5.52 33.1697 5.352 34.2657 5.352C35.7137 5.352 36.8737 5.676 37.7457 6.324C38.6177 6.964 39.0657 7.88 39.0897 9.072H36.6057C36.5177 8.536 36.2657 8.12 35.8497 7.824C35.4337 7.52 34.8937 7.368 34.2297 7.368C33.5417 7.368 32.9777 7.5 32.5377 7.764C32.0977 8.028 31.8777 8.432 31.8777 8.976C31.8777 9.352 32.0457 9.648 32.3817 9.864C32.7177 10.08 33.2217 10.264 33.8937 10.416L36.1257 10.956C36.7657 11.116 37.2897 11.332 37.6977 11.604C38.1057 11.876 38.4257 12.176 38.6577 12.504C38.8897 12.824 39.0497 13.156 39.1377 13.5C39.2337 13.836 39.2817 14.148 39.2817 14.436C39.2817 15.236 39.0737 15.92 38.6577 16.488C38.2497 17.048 37.6697 17.48 36.9177 17.784C36.1657 18.088 35.2777 18.24 34.2537 18.24ZM48.8058 7.656H46.0338L46.0458 14.772C46.0458 15.14 46.0858 15.412 46.1658 15.588C46.2538 15.756 46.3898 15.868 46.5738 15.924C46.7658 15.972 47.0218 15.996 47.3418 15.996H48.8658V17.844C48.7058 17.908 48.4618 17.964 48.1338 18.012C47.8138 18.068 47.3818 18.096 46.8378 18.096C45.8538 18.096 45.0898 17.968 44.5458 17.712C44.0098 17.448 43.6378 17.076 43.4298 16.596C43.2218 16.116 43.1178 15.544 43.1178 14.88V7.656H41.1018V5.592H43.2018L43.9338 1.908H46.0338V5.58H48.8058V7.656ZM57.4047 0.647999C57.4767 0.647999 57.6887 0.647999 58.0407 0.647999C58.3927 0.647999 58.8087 0.647999 59.2887 0.647999C59.7767 0.647999 60.2687 0.651999 60.7647 0.659999C61.2687 0.659999 61.7047 0.663999 62.0727 0.671999C64.1847 0.711999 65.9007 1.076 67.2207 1.764C68.5487 2.444 69.5207 3.416 70.1367 4.68C70.7607 5.936 71.0727 7.452 71.0727 9.228C71.0727 11.084 70.7407 12.664 70.0767 13.968C69.4207 15.272 68.4127 16.272 67.0527 16.968C65.7007 17.656 63.9807 18 61.8927 18H57.4047V0.647999ZM60.3687 3.06V15.588H61.9407C63.1327 15.588 64.1847 15.384 65.0967 14.976C66.0087 14.56 66.7207 13.888 67.2327 12.96C67.7527 12.032 68.0127 10.792 68.0127 9.24C68.0127 7.736 67.7727 6.532 67.2927 5.628C66.8127 4.724 66.1247 4.072 65.2287 3.672C64.3327 3.264 63.2607 3.06 62.0127 3.06H60.3687ZM76.2449 12.468C76.2369 13.172 76.3489 13.796 76.5809 14.34C76.8129 14.884 77.1569 15.312 77.6129 15.624C78.0689 15.928 78.6329 16.08 79.3049 16.08C79.9929 16.08 80.5889 15.928 81.0929 15.624C81.6049 15.312 81.9449 14.84 82.1129 14.208H84.7889C84.6449 15.072 84.3009 15.804 83.7569 16.404C83.2129 17.004 82.5529 17.46 81.7769 17.772C81.0089 18.084 80.2089 18.24 79.3769 18.24C78.1769 18.24 77.1209 17.988 76.2089 17.484C75.3049 16.972 74.5969 16.244 74.0849 15.3C73.5809 14.356 73.3289 13.232 73.3289 11.928C73.3289 10.656 73.5609 9.528 74.0249 8.544C74.4889 7.552 75.1569 6.772 76.0289 6.204C76.9089 5.636 77.9649 5.352 79.1969 5.352C80.4209 5.352 81.4489 5.612 82.2809 6.132C83.1209 6.652 83.7529 7.38 84.1769 8.316C84.6089 9.244 84.8249 10.332 84.8249 11.58V12.468H76.2449ZM76.2449 10.656H82.0649C82.0649 10.056 81.9609 9.516 81.7529 9.036C81.5449 8.548 81.2249 8.164 80.7929 7.884C80.3689 7.596 79.8329 7.452 79.1849 7.452C78.5449 7.452 78.0049 7.608 77.5649 7.92C77.1249 8.232 76.7929 8.636 76.5689 9.132C76.3449 9.62 76.2369 10.128 76.2449 10.656ZM90.9454 18.24C90.1534 18.24 89.4414 18.096 88.8094 17.808C88.1854 17.512 87.6934 17.092 87.3334 16.548C86.9814 15.996 86.8054 15.328 86.8054 14.544C86.8054 13.176 87.2974 12.144 88.2814 11.448C89.2734 10.752 90.8534 10.388 93.0214 10.356L94.8694 10.308V9.468C94.8694 8.812 94.6734 8.3 94.2814 7.932C93.8974 7.556 93.2974 7.372 92.4814 7.38C91.8814 7.388 91.3294 7.532 90.8254 7.812C90.3294 8.084 90.0014 8.544 89.8414 9.192H87.3574C87.4054 8.344 87.6494 7.636 88.0894 7.068C88.5374 6.492 89.1494 6.064 89.9254 5.784C90.7014 5.496 91.5974 5.352 92.6134 5.352C93.7974 5.352 94.7614 5.508 95.5054 5.82C96.2494 6.132 96.7974 6.584 97.1494 7.176C97.5014 7.76 97.6774 8.468 97.6774 9.3V18H95.2174L94.9894 15.768C94.5414 16.704 93.9734 17.352 93.2854 17.712C92.6054 18.064 91.8254 18.24 90.9454 18.24ZM91.8934 16.26C92.2534 16.26 92.6094 16.196 92.9614 16.068C93.3134 15.932 93.6334 15.752 93.9214 15.528C94.2094 15.296 94.4374 15.04 94.6054 14.76C94.7814 14.48 94.8694 14.188 94.8694 13.884V11.928L93.3454 11.952C92.5934 11.96 91.9374 12.04 91.3774 12.192C90.8174 12.344 90.3774 12.588 90.0574 12.924C89.7454 13.252 89.5894 13.692 89.5894 14.244C89.5894 14.876 89.8094 15.372 90.2494 15.732C90.6894 16.084 91.2374 16.26 91.8934 16.26ZM104.67 18.18C103.87 18.18 103.23 18.08 102.75 17.88C102.27 17.68 101.91 17.412 101.67 17.076C101.43 16.74 101.274 16.364 101.201 15.948C101.13 15.524 101.094 15.092 101.094 14.652V0.167999H103.95V14.316C103.95 14.852 104.058 15.268 104.274 15.564C104.498 15.86 104.858 16.032 105.354 16.08L105.978 16.104V17.94C105.762 18.004 105.542 18.06 105.318 18.108C105.094 18.156 104.878 18.18 104.67 18.18ZM112.98 18.24C112.116 18.24 111.296 18.104 110.52 17.832C109.752 17.552 109.104 17.116 108.576 16.524C108.056 15.932 107.728 15.168 107.592 14.232H110.16C110.272 14.688 110.468 15.06 110.748 15.348C111.036 15.636 111.376 15.848 111.768 15.984C112.16 16.112 112.56 16.176 112.968 16.176C113.712 16.176 114.312 16.048 114.768 15.792C115.232 15.536 115.464 15.14 115.464 14.604C115.464 14.212 115.336 13.9 115.08 13.668C114.824 13.436 114.416 13.26 113.856 13.14L111.492 12.6C110.444 12.368 109.6 11.984 108.96 11.448C108.328 10.912 108.008 10.156 108 9.18C107.992 8.444 108.176 7.788 108.552 7.212C108.928 6.636 109.488 6.184 110.232 5.856C110.976 5.52 111.896 5.352 112.992 5.352C114.44 5.352 115.6 5.676 116.472 6.324C117.344 6.964 117.792 7.88 117.816 9.072H115.332C115.244 8.536 114.992 8.12 114.576 7.824C114.16 7.52 113.62 7.368 112.956 7.368C112.268 7.368 111.704 7.5 111.264 7.764C110.824 8.028 110.604 8.432 110.604 8.976C110.604 9.352 110.772 9.648 111.108 9.864C111.444 10.08 111.948 10.264 112.62 10.416L114.852 10.956C115.492 11.116 116.016 11.332 116.424 11.604C116.832 11.876 117.152 12.176 117.384 12.504C117.616 12.824 117.776 13.156 117.864 13.5C117.96 13.836 118.008 14.148 118.008 14.436C118.008 15.236 117.8 15.92 117.384 16.488C116.976 17.048 116.396 17.48 115.644 17.784C114.892 18.088 114.004 18.24 112.98 18.24Z" fill="#191C1F"/>
</svg>
