<svg width="312" height="216" viewBox="0 0 312 216" fill="none" xmlns="http://www.w3.org/2000/svg">
<path fill-rule="evenodd" clip-rule="evenodd" d="M48 24C48 37.2548 37.2548 48 24 48C10.7452 48 0 37.2548 0 24C0 10.7452 10.7452 0 24 0C37.2548 0 48 10.7452 48 24ZM36 24C36 30.6274 30.6274 36 24 36C17.3726 36 12 30.6274 12 24C12 17.3726 17.3726 12 24 12C30.6274 12 36 17.3726 36 24ZM24 32C28.4183 32 32 28.4183 32 24C32 19.5817 28.4183 16 24 16C19.5817 16 16 19.5817 16 24C16 28.4183 19.5817 32 24 32Z" fill="#FA8232"/>
<path d="M68.016 36.32C65.8613 36.32 64 35.8187 62.432 34.816C60.864 33.8133 59.6533 32.4053 58.8 30.592C57.9573 28.7787 57.536 26.6613 57.536 24.24C57.536 21.808 57.9573 19.7227 58.8 17.984C59.6427 16.2347 60.848 14.8907 62.416 13.952C63.984 13.0133 65.8507 12.544 68.016 12.544C69.7547 12.544 71.3013 12.896 72.656 13.6C74.0213 14.2933 75.12 15.2427 75.952 16.448C76.7947 17.6533 77.2907 19.0133 77.44 20.528H72.544C72.3947 19.728 72.1227 19.0187 71.728 18.4C71.3333 17.7707 70.816 17.28 70.176 16.928C69.536 16.5653 68.768 16.384 67.872 16.384C66.7947 16.384 65.8667 16.6453 65.088 17.168C64.3093 17.6907 63.712 18.5333 63.296 19.696C62.88 20.8587 62.672 22.3947 62.672 24.304C62.672 27.184 63.1307 29.2693 64.048 30.56C64.976 31.84 66.2507 32.48 67.872 32.48C68.768 32.48 69.536 32.2773 70.176 31.872C70.816 31.456 71.3333 30.912 71.728 30.24C72.1227 29.5573 72.3947 28.8107 72.544 28H77.44C77.3013 29.0987 77.0347 30.1493 76.64 31.152C76.2453 32.144 75.6853 33.0293 74.96 33.808C74.2347 34.5867 73.3013 35.2 72.16 35.648C71.0187 36.096 69.6373 36.32 68.016 36.32ZM80.9208 36V12.864H85.6248V32.048H95.6728V36H80.9208ZM98.7495 36V12.864H103.406V36H98.7495ZM117.377 36.32C115.223 36.32 113.361 35.8187 111.793 34.816C110.225 33.8133 109.015 32.4053 108.161 30.592C107.319 28.7787 106.897 26.6613 106.897 24.24C106.897 21.808 107.319 19.7227 108.161 17.984C109.004 16.2347 110.209 14.8907 111.777 13.952C113.345 13.0133 115.212 12.544 117.377 12.544C119.116 12.544 120.663 12.896 122.017 13.6C123.383 14.2933 124.481 15.2427 125.313 16.448C126.156 17.6533 126.652 19.0133 126.801 20.528H121.905C121.756 19.728 121.484 19.0187 121.089 18.4C120.695 17.7707 120.177 17.28 119.537 16.928C118.897 16.5653 118.129 16.384 117.233 16.384C116.156 16.384 115.228 16.6453 114.449 17.168C113.671 17.6907 113.073 18.5333 112.657 19.696C112.241 20.8587 112.033 22.3947 112.033 24.304C112.033 27.184 112.492 29.2693 113.409 30.56C114.337 31.84 115.612 32.48 117.233 32.48C118.129 32.48 118.897 32.2773 119.537 31.872C120.177 31.456 120.695 30.912 121.089 30.24C121.484 29.5573 121.756 28.8107 121.905 28H126.801C126.663 29.0987 126.396 30.1493 126.001 31.152C125.607 32.144 125.047 33.0293 124.321 33.808C123.596 34.5867 122.663 35.2 121.521 35.648C120.38 36.096 118.999 36.32 117.377 36.32ZM139.898 36.32C137.711 36.32 135.818 35.8453 134.218 34.896C132.629 33.936 131.397 32.576 130.522 30.816C129.658 29.0453 129.226 26.9333 129.226 24.48C129.226 22.016 129.663 19.8933 130.538 18.112C131.423 16.3307 132.666 14.96 134.266 14C135.866 13.0293 137.743 12.544 139.898 12.544C142.042 12.544 143.909 13.024 145.498 13.984C147.087 14.944 148.314 16.3147 149.178 18.096C150.053 19.8773 150.49 22.0053 150.49 24.48C150.49 26.9227 150.058 29.0293 149.194 30.8C148.341 32.5707 147.119 33.936 145.53 34.896C143.941 35.8453 142.063 36.32 139.898 36.32ZM139.898 32.48C141.029 32.48 142.005 32.2133 142.826 31.68C143.658 31.136 144.298 30.2827 144.746 29.12C145.194 27.9467 145.418 26.4213 145.418 24.544C145.418 22.6133 145.189 21.0507 144.73 19.856C144.282 18.6613 143.642 17.7867 142.81 17.232C141.989 16.6667 141.018 16.384 139.898 16.384C138.778 16.384 137.802 16.6667 136.97 17.232C136.138 17.7867 135.493 18.6667 135.034 19.872C134.575 21.0667 134.346 22.624 134.346 24.544C134.346 26.432 134.575 27.9573 135.034 29.12C135.493 30.2827 136.138 31.136 136.97 31.68C137.802 32.2133 138.778 32.48 139.898 32.48ZM153.986 36V12.864H158.61L169.17 28.176V12.864H173.842V36H169.634L158.642 20.08V36H153.986Z" fill="white"/>
<path d="M5.061 87.14C4.151 87.14 3.374 86.9323 2.73 86.517C2.09067 86.1017 1.60067 85.5043 1.26 84.725C0.924 83.9457 0.756 83.0053 0.756 81.904C0.756 80.8073 0.924 79.874 1.26 79.104C1.596 78.334 2.08367 77.7483 2.723 77.347C3.367 76.941 4.14633 76.738 5.061 76.738C5.775 76.738 6.40733 76.8873 6.958 77.186C7.50867 77.48 7.952 77.8743 8.288 78.369C8.624 78.8637 8.82233 79.4073 8.883 80H7.504C7.42933 79.6033 7.287 79.244 7.077 78.922C6.867 78.6 6.59167 78.3433 6.251 78.152C5.91033 77.9607 5.502 77.865 5.026 77.865C4.41467 77.865 3.89667 78.0097 3.472 78.299C3.052 78.5837 2.73233 79.0247 2.513 79.622C2.29833 80.2193 2.191 80.9847 2.191 81.918C2.191 83.3273 2.43133 84.3633 2.912 85.026C3.39733 85.684 4.102 86.013 5.026 86.013C5.502 86.013 5.91033 85.9127 6.251 85.712C6.59167 85.5113 6.867 85.243 7.077 84.907C7.287 84.571 7.42933 84.207 7.504 83.815H8.883C8.83167 84.2443 8.715 84.6597 8.533 85.061C8.35567 85.4577 8.11067 85.8123 7.798 86.125C7.48533 86.4377 7.10033 86.685 6.643 86.867C6.19033 87.049 5.663 87.14 5.061 87.14ZM13.3697 87.14C12.9917 87.1353 12.6347 87.0817 12.2987 86.979C11.9673 86.8717 11.6733 86.7153 11.4167 86.51C11.16 86.3047 10.957 86.0503 10.8077 85.747C10.663 85.439 10.5907 85.082 10.5907 84.676V79.762H11.8857V84.543C11.8857 85.0143 12.0303 85.397 12.3197 85.691C12.6137 85.985 13.0547 86.132 13.6427 86.132C14.1747 86.132 14.6017 85.9943 14.9237 85.719C15.2503 85.439 15.4137 85.0237 15.4137 84.473V79.762H16.7017V87H15.6727L15.5397 85.614C15.451 85.978 15.2993 86.272 15.0847 86.496C14.8747 86.72 14.6203 86.8857 14.3217 86.993C14.0277 87.0957 13.7103 87.1447 13.3697 87.14ZM21.4348 87.14C20.9308 87.14 20.4618 87.063 20.0278 86.909C19.5984 86.7503 19.2414 86.5053 18.9568 86.174C18.6721 85.838 18.4948 85.411 18.4248 84.893H19.6008C19.6614 85.1777 19.7781 85.4157 19.9508 85.607C20.1234 85.7937 20.3358 85.936 20.5878 86.034C20.8444 86.1273 21.1244 86.174 21.4278 86.174C21.9178 86.174 22.3121 86.083 22.6108 85.901C22.9094 85.719 23.0588 85.439 23.0588 85.061C23.0588 84.795 22.9794 84.5827 22.8208 84.424C22.6668 84.2607 22.4241 84.1417 22.0928 84.067L20.5948 83.696C20.0114 83.556 19.5448 83.3367 19.1948 83.038C18.8494 82.7393 18.6744 82.3217 18.6698 81.785C18.6698 81.3603 18.7724 80.987 18.9778 80.665C19.1831 80.343 19.4888 80.0887 19.8948 79.902C20.3054 79.7153 20.8164 79.622 21.4278 79.622C22.2164 79.622 22.8511 79.7993 23.3318 80.154C23.8124 80.504 24.0644 81.0197 24.0878 81.701H22.9398C22.8931 81.3557 22.7391 81.0827 22.4778 80.882C22.2164 80.6767 21.8618 80.574 21.4138 80.574C20.9564 80.574 20.5808 80.6673 20.2868 80.854C19.9974 81.036 19.8528 81.3207 19.8528 81.708C19.8528 81.9647 19.9554 82.1677 20.1608 82.317C20.3708 82.4617 20.6741 82.583 21.0708 82.681L22.5268 83.045C22.8581 83.1337 23.1334 83.2503 23.3528 83.395C23.5721 83.5397 23.7448 83.7007 23.8708 83.878C23.9968 84.0553 24.0854 84.242 24.1368 84.438C24.1928 84.6293 24.2208 84.8137 24.2208 84.991C24.2208 85.4343 24.1111 85.817 23.8918 86.139C23.6724 86.4563 23.3551 86.7037 22.9398 86.881C22.5244 87.0537 22.0228 87.14 21.4348 87.14ZM28.4154 87.035C27.9161 87.035 27.5287 86.9673 27.2534 86.832C26.9781 86.6967 26.7844 86.496 26.6724 86.23C26.5651 85.964 26.5114 85.6373 26.5114 85.25V80.707H25.3354V79.762H26.5464L26.8614 77.655H27.8134V79.755H29.4444V80.707H27.8134V85.208C27.8134 85.4647 27.8391 85.6537 27.8904 85.775C27.9464 85.8917 28.0374 85.9663 28.1634 85.999C28.2894 86.0317 28.4667 86.048 28.6954 86.048H29.4864V86.916C29.3977 86.9487 29.2624 86.9767 29.0804 87C28.9031 87.0233 28.6814 87.035 28.4154 87.035ZM33.9104 87.14C33.2431 87.14 32.6597 86.9977 32.1604 86.713C31.6657 86.4237 31.2807 86.0013 31.0054 85.446C30.7301 84.8907 30.5924 84.2117 30.5924 83.409C30.5924 82.653 30.7207 81.9903 30.9774 81.421C31.2341 80.8517 31.6097 80.4107 32.1044 80.098C32.5991 79.7807 33.2034 79.622 33.9174 79.622C34.5847 79.622 35.1634 79.769 35.6534 80.063C36.1434 80.3523 36.5237 80.7793 36.7944 81.344C37.0697 81.9087 37.2074 82.597 37.2074 83.409C37.2074 84.1463 37.0814 84.795 36.8294 85.355C36.5774 85.915 36.2064 86.3537 35.7164 86.671C35.2311 86.9837 34.6291 87.14 33.9104 87.14ZM33.9174 86.118C34.3467 86.118 34.7107 86.0083 35.0094 85.789C35.3081 85.5697 35.5344 85.2547 35.6884 84.844C35.8471 84.4333 35.9264 83.9457 35.9264 83.381C35.9264 82.863 35.8564 82.3987 35.7164 81.988C35.5811 81.5727 35.3664 81.2437 35.0724 81.001C34.7784 80.7583 34.3934 80.637 33.9174 80.637C33.4787 80.637 33.1077 80.7467 32.8044 80.966C32.5011 81.1807 32.2701 81.4933 32.1114 81.904C31.9574 82.3147 31.8804 82.807 31.8804 83.381C31.8804 83.8897 31.9481 84.3517 32.0834 84.767C32.2234 85.1823 32.4427 85.5113 32.7414 85.754C33.0447 85.9967 33.4367 86.118 33.9174 86.118ZM38.9284 87V79.762H40.1744V80.812C40.3751 80.4947 40.6504 80.217 41.0004 79.979C41.3504 79.741 41.8054 79.622 42.3654 79.622C42.6268 79.622 42.8928 79.6663 43.1634 79.755C43.4388 79.8437 43.6908 79.9767 43.9194 80.154C44.1481 80.3313 44.3254 80.5483 44.4514 80.805C44.6754 80.4503 44.9788 80.1657 45.3614 79.951C45.7441 79.7317 46.1758 79.622 46.6564 79.622C46.9084 79.622 47.1721 79.6617 47.4474 79.741C47.7228 79.8157 47.9771 79.951 48.2104 80.147C48.4484 80.3383 48.6421 80.6067 48.7914 80.952C48.9408 81.2927 49.0154 81.7313 49.0154 82.268V87H47.7134V82.394C47.7134 81.9553 47.6434 81.617 47.5034 81.379C47.3634 81.1363 47.1791 80.966 46.9504 80.868C46.7264 80.77 46.4861 80.721 46.2294 80.721C46.0054 80.721 45.7674 80.7653 45.5154 80.854C45.2634 80.9427 45.0488 81.092 44.8714 81.302C44.6941 81.512 44.6054 81.799 44.6054 82.163V87H43.3174V82.016C43.3174 81.7313 43.2404 81.4933 43.0864 81.302C42.9371 81.1107 42.7481 80.966 42.5194 80.868C42.2954 80.77 42.0714 80.721 41.8474 80.721C41.6001 80.721 41.3504 80.77 41.0984 80.868C40.8511 80.966 40.6411 81.1223 40.4684 81.337C40.3004 81.547 40.2164 81.8223 40.2164 82.163V87H38.9284ZM54.1007 87.14C53.4287 87.14 52.836 86.993 52.3227 86.699C51.8094 86.405 51.408 85.9827 51.1187 85.432C50.8294 84.8813 50.6847 84.221 50.6847 83.451C50.6847 82.6903 50.8154 82.023 51.0767 81.449C51.338 80.875 51.716 80.427 52.2107 80.105C52.71 79.783 53.3097 79.622 54.0097 79.622C54.691 79.622 55.2674 79.769 55.7387 80.063C56.21 80.357 56.567 80.7723 56.8097 81.309C57.057 81.841 57.1807 82.4733 57.1807 83.206V83.682H51.9937C51.9937 84.1393 52.0684 84.5547 52.2177 84.928C52.3717 85.2967 52.6027 85.5907 52.9107 85.81C53.2187 86.0293 53.6084 86.139 54.0797 86.139C54.5417 86.139 54.9384 86.0317 55.2697 85.817C55.6057 85.6023 55.8204 85.292 55.9137 84.886H57.1317C57.0477 85.376 56.8517 85.789 56.5437 86.125C56.2404 86.461 55.874 86.7153 55.4447 86.888C55.02 87.056 54.572 87.14 54.1007 87.14ZM52.0007 82.807H55.9347C55.9347 82.3917 55.8647 82.0183 55.7247 81.687C55.5847 81.351 55.37 81.0873 55.0807 80.896C54.796 80.7 54.4367 80.602 54.0027 80.602C53.55 80.602 53.1744 80.7117 52.8757 80.931C52.577 81.1457 52.3554 81.4233 52.2107 81.764C52.066 82.1 51.996 82.4477 52.0007 82.807ZM58.9714 87V79.762H60.2034V81.155C60.3247 80.8097 60.4951 80.525 60.7144 80.301C60.9337 80.0723 61.1834 79.902 61.4634 79.79C61.7481 79.678 62.0421 79.622 62.3454 79.622C62.4527 79.622 62.5577 79.629 62.6604 79.643C62.7631 79.657 62.8424 79.6803 62.8984 79.713V80.966C62.8284 80.9333 62.7374 80.9123 62.6254 80.903C62.5181 80.889 62.4271 80.882 62.3524 80.882C62.0631 80.8633 61.7924 80.882 61.5404 80.938C61.2884 80.9893 61.0667 81.0803 60.8754 81.211C60.6841 81.3417 60.5324 81.5143 60.4204 81.729C60.3131 81.939 60.2594 82.1957 60.2594 82.499V87H58.9714ZM71.5404 87.14C71.0458 87.14 70.5768 87.0817 70.1334 86.965C69.6901 86.8437 69.2864 86.664 68.9224 86.426C68.5631 86.188 68.2644 85.894 68.0264 85.544C67.7931 85.1893 67.6461 84.7787 67.5854 84.312H68.9434C69.0274 84.6947 69.1931 85.0167 69.4404 85.278C69.6924 85.5393 70.0028 85.7353 70.3714 85.866C70.7448 85.9967 71.1531 86.062 71.5964 86.062C72.0258 86.062 72.4201 85.9943 72.7794 85.859C73.1434 85.7237 73.4351 85.5277 73.6544 85.271C73.8738 85.0097 73.9834 84.697 73.9834 84.333C73.9834 83.9317 73.8528 83.6097 73.5914 83.367C73.3301 83.1197 72.9264 82.9213 72.3804 82.772L70.2944 82.233C69.8231 82.1163 69.4054 81.953 69.0414 81.743C68.6821 81.5283 68.3998 81.2483 68.1944 80.903C67.9891 80.553 67.8864 80.119 67.8864 79.601C67.8864 79.027 68.0451 78.5277 68.3624 78.103C68.6798 77.6737 69.1091 77.3423 69.6504 77.109C70.1964 76.871 70.8124 76.752 71.4984 76.752C72.2918 76.752 72.9591 76.8897 73.5004 77.165C74.0464 77.4403 74.4594 77.802 74.7394 78.25C75.0194 78.698 75.1594 79.1763 75.1594 79.685H73.8294C73.7874 79.223 73.6521 78.859 73.4234 78.593C73.1948 78.3223 72.9101 78.1287 72.5694 78.012C72.2288 77.8907 71.8578 77.83 71.4564 77.83C70.7331 77.83 70.1848 77.9957 69.8114 78.327C69.4428 78.6537 69.2584 79.0433 69.2584 79.496C69.2584 79.9113 69.3914 80.238 69.6574 80.476C69.9234 80.714 70.3154 80.8983 70.8334 81.029L72.8634 81.554C73.4654 81.694 73.9438 81.897 74.2984 82.163C74.6578 82.429 74.9144 82.7393 75.0684 83.094C75.2271 83.444 75.3064 83.8243 75.3064 84.235C75.3064 84.795 75.1501 85.2943 74.8374 85.733C74.5248 86.1717 74.0861 86.517 73.5214 86.769C72.9614 87.0163 72.3011 87.14 71.5404 87.14ZM79.8833 87.14C79.5053 87.1353 79.1483 87.0817 78.8123 86.979C78.481 86.8717 78.187 86.7153 77.9303 86.51C77.6737 86.3047 77.4707 86.0503 77.3213 85.747C77.1767 85.439 77.1043 85.082 77.1043 84.676V79.762H78.3993V84.543C78.3993 85.0143 78.544 85.397 78.8333 85.691C79.1273 85.985 79.5683 86.132 80.1563 86.132C80.6883 86.132 81.1153 85.9943 81.4373 85.719C81.764 85.439 81.9273 85.0237 81.9273 84.473V79.762H83.2153V87H82.1863L82.0533 85.614C81.9647 85.978 81.813 86.272 81.5983 86.496C81.3883 86.72 81.134 86.8857 80.8353 86.993C80.5413 87.0957 80.224 87.1447 79.8833 87.14ZM85.4265 89.254V79.762H86.7145L86.7285 81.022C86.8125 80.8727 86.9198 80.7163 87.0505 80.553C87.1858 80.3897 87.3491 80.238 87.5405 80.098C87.7365 79.958 87.9628 79.8437 88.2195 79.755C88.4808 79.6663 88.7771 79.622 89.1085 79.622C89.6871 79.622 90.1958 79.755 90.6345 80.021C91.0778 80.2823 91.4231 80.6837 91.6705 81.225C91.9178 81.7663 92.0415 82.4523 92.0415 83.283C92.0415 84.1137 91.9201 84.816 91.6775 85.39C91.4395 85.9593 91.0941 86.3933 90.6415 86.692C90.1888 86.9907 89.6428 87.14 89.0035 87.14C88.6815 87.14 88.3945 87.0933 88.1425 87C87.8951 86.9113 87.6781 86.7947 87.4915 86.65C87.3095 86.5007 87.1555 86.342 87.0295 86.174C86.9081 86.006 86.8078 85.845 86.7285 85.691V89.254H85.4265ZM88.7585 86.132C89.3558 86.132 89.8435 85.9057 90.2215 85.453C90.5995 84.9957 90.7885 84.2863 90.7885 83.325C90.7885 82.499 90.6158 81.8433 90.2705 81.358C89.9251 80.8727 89.4211 80.63 88.7585 80.63C88.0865 80.63 87.5778 80.8797 87.2325 81.379C86.8871 81.8737 86.7145 82.5223 86.7145 83.325C86.7145 83.843 86.7915 84.3143 86.9455 84.739C87.0995 85.1637 87.3281 85.502 87.6315 85.754C87.9348 86.006 88.3105 86.132 88.7585 86.132ZM93.7663 89.254V79.762H95.0543L95.0683 81.022C95.1523 80.8727 95.2596 80.7163 95.3903 80.553C95.5256 80.3897 95.689 80.238 95.8803 80.098C96.0763 79.958 96.3026 79.8437 96.5593 79.755C96.8206 79.6663 97.117 79.622 97.4483 79.622C98.027 79.622 98.5356 79.755 98.9743 80.021C99.4176 80.2823 99.763 80.6837 100.01 81.225C100.258 81.7663 100.381 82.4523 100.381 83.283C100.381 84.1137 100.26 84.816 100.017 85.39C99.7793 85.9593 99.434 86.3933 98.9813 86.692C98.5286 86.9907 97.9826 87.14 97.3433 87.14C97.0213 87.14 96.7343 87.0933 96.4823 87C96.235 86.9113 96.018 86.7947 95.8313 86.65C95.6493 86.5007 95.4953 86.342 95.3693 86.174C95.248 86.006 95.1476 85.845 95.0683 85.691V89.254H93.7663ZM97.0983 86.132C97.6956 86.132 98.1833 85.9057 98.5613 85.453C98.9393 84.9957 99.1283 84.2863 99.1283 83.325C99.1283 82.499 98.9556 81.8433 98.6103 81.358C98.265 80.8727 97.761 80.63 97.0983 80.63C96.4263 80.63 95.9176 80.8797 95.5723 81.379C95.227 81.8737 95.0543 82.5223 95.0543 83.325C95.0543 83.843 95.1313 84.3143 95.2853 84.739C95.4393 85.1637 95.668 85.502 95.9713 85.754C96.2746 86.006 96.6503 86.132 97.0983 86.132ZM105.004 87.14C104.337 87.14 103.753 86.9977 103.254 86.713C102.759 86.4237 102.374 86.0013 102.099 85.446C101.824 84.8907 101.686 84.2117 101.686 83.409C101.686 82.653 101.814 81.9903 102.071 81.421C102.328 80.8517 102.703 80.4107 103.198 80.098C103.693 79.7807 104.297 79.622 105.011 79.622C105.678 79.622 106.257 79.769 106.747 80.063C107.237 80.3523 107.617 80.7793 107.888 81.344C108.163 81.9087 108.301 82.597 108.301 83.409C108.301 84.1463 108.175 84.795 107.923 85.355C107.671 85.915 107.3 86.3537 106.81 86.671C106.325 86.9837 105.723 87.14 105.004 87.14ZM105.011 86.118C105.44 86.118 105.804 86.0083 106.103 85.789C106.402 85.5697 106.628 85.2547 106.782 84.844C106.941 84.4333 107.02 83.9457 107.02 83.381C107.02 82.863 106.95 82.3987 106.81 81.988C106.675 81.5727 106.46 81.2437 106.166 81.001C105.872 80.7583 105.487 80.637 105.011 80.637C104.572 80.637 104.201 80.7467 103.898 80.966C103.595 81.1807 103.364 81.4933 103.205 81.904C103.051 82.3147 102.974 82.807 102.974 83.381C102.974 83.8897 103.042 84.3517 103.177 84.767C103.317 85.1823 103.536 85.5113 103.835 85.754C104.138 85.9967 104.53 86.118 105.011 86.118ZM110.022 87V79.762H111.254V81.155C111.376 80.8097 111.546 80.525 111.765 80.301C111.985 80.0723 112.234 79.902 112.514 79.79C112.799 79.678 113.093 79.622 113.396 79.622C113.504 79.622 113.609 79.629 113.711 79.643C113.814 79.657 113.893 79.6803 113.949 79.713V80.966C113.879 80.9333 113.788 80.9123 113.676 80.903C113.569 80.889 113.478 80.882 113.403 80.882C113.114 80.8633 112.843 80.882 112.591 80.938C112.339 80.9893 112.118 81.0803 111.926 81.211C111.735 81.3417 111.583 81.5143 111.471 81.729C111.364 81.939 111.31 82.1957 111.31 82.499V87H110.022ZM117.939 87.035C117.44 87.035 117.052 86.9673 116.777 86.832C116.502 86.6967 116.308 86.496 116.196 86.23C116.089 85.964 116.035 85.6373 116.035 85.25V80.707H114.859V79.762H116.07L116.385 77.655H117.337V79.755H118.968V80.707H117.337V85.208C117.337 85.4647 117.363 85.6537 117.414 85.775C117.47 85.8917 117.561 85.9663 117.687 85.999C117.813 86.0317 117.99 86.048 118.219 86.048H119.01V86.916C118.921 86.9487 118.786 86.9767 118.604 87C118.427 87.0233 118.205 87.035 117.939 87.035ZM123.304 87.14C122.8 87.14 122.331 87.063 121.897 86.909C121.468 86.7503 121.111 86.5053 120.826 86.174C120.541 85.838 120.364 85.411 120.294 84.893H121.47C121.531 85.1777 121.647 85.4157 121.82 85.607C121.993 85.7937 122.205 85.936 122.457 86.034C122.714 86.1273 122.994 86.174 123.297 86.174C123.787 86.174 124.181 86.083 124.48 85.901C124.779 85.719 124.928 85.439 124.928 85.061C124.928 84.795 124.849 84.5827 124.69 84.424C124.536 84.2607 124.293 84.1417 123.962 84.067L122.464 83.696C121.881 83.556 121.414 83.3367 121.064 83.038C120.719 82.7393 120.544 82.3217 120.539 81.785C120.539 81.3603 120.642 80.987 120.847 80.665C121.052 80.343 121.358 80.0887 121.764 79.902C122.175 79.7153 122.686 79.622 123.297 79.622C124.086 79.622 124.72 79.7993 125.201 80.154C125.682 80.504 125.934 81.0197 125.957 81.701H124.809C124.762 81.3557 124.608 81.0827 124.347 80.882C124.086 80.6767 123.731 80.574 123.283 80.574C122.826 80.574 122.45 80.6673 122.156 80.854C121.867 81.036 121.722 81.3207 121.722 81.708C121.722 81.9647 121.825 82.1677 122.03 82.317C122.24 82.4617 122.543 82.583 122.94 82.681L124.396 83.045C124.727 83.1337 125.003 83.2503 125.222 83.395C125.441 83.5397 125.614 83.7007 125.74 83.878C125.866 84.0553 125.955 84.242 126.006 84.438C126.062 84.6293 126.09 84.8137 126.09 84.991C126.09 85.4343 125.98 85.817 125.761 86.139C125.542 86.4563 125.224 86.7037 124.809 86.881C124.394 87.0537 123.892 87.14 123.304 87.14ZM127.481 81.694V80.049H129.028V81.694H127.481ZM127.481 86.958V85.327H129.028V86.958H127.481Z" fill="#77878F"/>
<path d="M3.654 117.322C3.162 116.476 2.73 115.645 2.358 114.829C1.992 114.007 1.707 113.155 1.503 112.273C1.305 111.391 1.206 110.44 1.206 109.42C1.206 107.932 1.443 106.504 1.917 105.136C2.397 103.762 3.015 102.52 3.771 101.41H5.112C4.494 102.574 3.99 103.846 3.6 105.226C3.21 106.606 3.015 108.01 3.015 109.438C3.015 110.788 3.183 112.102 3.519 113.38C3.855 114.658 4.344 115.972 4.986 117.322H3.654ZM11.4938 115.198C10.4618 115.198 9.56484 114.937 8.80284 114.415C8.04684 113.887 7.46184 113.14 7.04784 112.174C6.63984 111.202 6.43584 110.047 6.43584 108.709C6.43584 107.305 6.63684 106.087 7.03884 105.055C7.44084 104.017 8.02884 103.216 8.80284 102.652C9.57684 102.088 10.5188 101.806 11.6288 101.806C12.3728 101.806 13.0598 101.944 13.6898 102.22C14.3258 102.496 14.8478 102.895 15.2558 103.417C15.6698 103.933 15.9158 104.56 15.9938 105.298H14.2028C14.0348 104.698 13.7318 104.23 13.2938 103.894C12.8618 103.552 12.3188 103.381 11.6648 103.381C10.9388 103.381 10.3298 103.588 9.83784 104.002C9.35184 104.41 8.99784 105.007 8.77584 105.793C8.55984 106.579 8.49084 107.527 8.56884 108.637C8.73684 108.241 8.98284 107.896 9.30684 107.602C9.63684 107.302 10.0148 107.071 10.4408 106.909C10.8668 106.747 11.3228 106.666 11.8088 106.666C12.6728 106.666 13.4288 106.831 14.0768 107.161C14.7248 107.491 15.2288 107.962 15.5888 108.574C15.9548 109.186 16.1378 109.912 16.1378 110.752C16.1378 111.616 15.9458 112.384 15.5618 113.056C15.1838 113.722 14.6468 114.247 13.9508 114.631C13.2548 115.009 12.4358 115.198 11.4938 115.198ZM11.4578 113.65C11.9618 113.65 12.4088 113.533 12.7988 113.299C13.1948 113.059 13.5068 112.729 13.7348 112.309C13.9628 111.883 14.0768 111.394 14.0768 110.842C14.0768 110.284 13.9718 109.807 13.7618 109.411C13.5518 109.015 13.2488 108.712 12.8528 108.502C12.4628 108.292 11.9948 108.187 11.4488 108.187C10.9988 108.187 10.5698 108.292 10.1618 108.502C9.75384 108.706 9.42084 108.976 9.16284 109.312C8.90484 109.648 8.77584 110.014 8.77584 110.41C8.76384 111.052 8.86884 111.616 9.09084 112.102C9.31884 112.588 9.63384 112.969 10.0358 113.245C10.4438 113.515 10.9178 113.65 11.4578 113.65ZM18.0695 115V113.911V113.335C18.0695 112.675 18.1925 112.102 18.4385 111.616C18.6905 111.13 19.0205 110.707 19.4285 110.347C19.8365 109.981 20.2835 109.657 20.7695 109.375C21.2615 109.093 21.7505 108.823 22.2365 108.565C22.7225 108.307 23.1695 108.04 23.5775 107.764C23.9855 107.482 24.3125 107.167 24.5585 106.819C24.8105 106.465 24.9365 106.051 24.9365 105.577C24.9365 104.953 24.7175 104.446 24.2795 104.056C23.8415 103.666 23.2475 103.471 22.4975 103.471C21.6995 103.471 21.0515 103.696 20.5535 104.146C20.0555 104.596 19.7675 105.217 19.6895 106.009H17.7995C17.8175 105.235 18.0065 104.53 18.3665 103.894C18.7265 103.258 19.2575 102.751 19.9595 102.373C20.6615 101.995 21.5315 101.806 22.5695 101.806C23.4695 101.806 24.2465 101.965 24.9005 102.283C25.5605 102.595 26.0705 103.033 26.4305 103.597C26.7905 104.161 26.9705 104.818 26.9705 105.568C26.9705 106.234 26.8475 106.807 26.6015 107.287C26.3555 107.767 26.0315 108.181 25.6295 108.529C25.2335 108.877 24.7955 109.186 24.3155 109.456C23.8355 109.72 23.3555 109.975 22.8755 110.221C22.3955 110.461 21.9545 110.716 21.5525 110.986C21.1505 111.25 20.8265 111.55 20.5805 111.886C20.3345 112.222 20.2115 112.627 20.2115 113.101V113.326H27.0155V115H18.0695ZM33.2155 115.198C32.4715 115.198 31.7785 115.057 31.1365 114.775C30.4945 114.487 29.9605 114.085 29.5345 113.569C29.1145 113.047 28.8625 112.426 28.7785 111.706H30.6325C30.7705 112.276 31.0615 112.738 31.5055 113.092C31.9555 113.446 32.5045 113.623 33.1525 113.623C33.8785 113.623 34.5055 113.437 35.0335 113.065C35.5615 112.693 35.9545 112.114 36.2125 111.328C36.4765 110.542 36.5755 109.528 36.5095 108.286C36.3535 108.706 36.1165 109.075 35.7985 109.393C35.4805 109.705 35.1025 109.951 34.6645 110.131C34.2265 110.311 33.7405 110.401 33.2065 110.401C32.3425 110.401 31.5805 110.233 30.9205 109.897C30.2605 109.561 29.7445 109.084 29.3725 108.466C29.0005 107.842 28.8145 107.098 28.8145 106.234C28.8145 105.37 29.0005 104.605 29.3725 103.939C29.7505 103.273 30.2815 102.751 30.9655 102.373C31.6555 101.995 32.4715 101.806 33.4135 101.806C34.4455 101.806 35.3395 102.067 36.0955 102.589C36.8515 103.111 37.4335 103.855 37.8415 104.821C38.2495 105.787 38.4535 106.939 38.4535 108.277C38.4535 109.765 38.2495 111.025 37.8415 112.057C37.4335 113.083 36.8365 113.863 36.0505 114.397C35.2705 114.931 34.3255 115.198 33.2155 115.198ZM33.4585 108.799C33.9085 108.799 34.3375 108.697 34.7455 108.493C35.1535 108.289 35.4865 108.019 35.7445 107.683C36.0085 107.341 36.1405 106.975 36.1405 106.585C36.1465 105.937 36.0355 105.37 35.8075 104.884C35.5855 104.398 35.2705 104.02 34.8625 103.75C34.4605 103.474 33.9865 103.336 33.4405 103.336C32.9485 103.336 32.5105 103.456 32.1265 103.696C31.7425 103.93 31.4395 104.26 31.2175 104.686C31.0015 105.106 30.8935 105.592 30.8935 106.144C30.8935 106.966 31.1155 107.614 31.5595 108.088C32.0035 108.562 32.6365 108.799 33.4585 108.799ZM39.7367 117.322C40.3787 115.972 40.8677 114.658 41.2037 113.38C41.5457 112.102 41.7167 110.788 41.7167 109.438C41.7167 108.01 41.5217 106.606 41.1317 105.226C40.7417 103.846 40.2377 102.574 39.6197 101.41H40.9517C41.7137 102.52 42.3317 103.762 42.8057 105.136C43.2857 106.504 43.5257 107.932 43.5257 109.42C43.5257 110.44 43.4237 111.391 43.2197 112.273C43.0217 113.155 42.7367 114.007 42.3647 114.829C41.9987 115.645 41.5667 116.476 41.0687 117.322H39.7367ZM55.3101 115.198C54.4941 115.198 53.7381 115.06 53.0421 114.784C52.3461 114.502 51.7461 114.118 51.2421 113.632C50.7441 113.14 50.3751 112.573 50.1351 111.931L51.7461 111.166C51.9621 111.634 52.2291 112.054 52.5471 112.426C52.8651 112.792 53.2401 113.08 53.6721 113.29C54.1041 113.494 54.5991 113.596 55.1571 113.596C56.0391 113.596 56.7501 113.347 57.2901 112.849C57.8301 112.345 58.1001 111.664 58.1001 110.806C58.1001 110.272 57.9741 109.804 57.7221 109.402C57.4701 109 57.1311 108.688 56.7051 108.466C56.2791 108.238 55.8021 108.124 55.2741 108.124C54.9441 108.124 54.6351 108.154 54.3471 108.214C54.0591 108.268 53.7711 108.379 53.4831 108.547C53.2011 108.709 52.9011 108.952 52.5831 109.276C52.5351 109.3 52.4991 109.312 52.4751 109.312C52.4571 109.312 52.4181 109.297 52.3581 109.267L50.8191 108.709L51.4131 101.986H59.3421L59.2791 103.615H53.0061L52.7001 107.53C53.1441 107.17 53.6121 106.912 54.1041 106.756C54.5961 106.594 55.1301 106.513 55.7061 106.513C56.5161 106.513 57.2541 106.675 57.9201 106.999C58.5921 107.323 59.1291 107.8 59.5311 108.43C59.9331 109.054 60.1341 109.825 60.1341 110.743C60.1341 111.649 59.9361 112.435 59.5401 113.101C59.1441 113.767 58.5831 114.283 57.8571 114.649C57.1371 115.015 56.2881 115.198 55.3101 115.198ZM67.0171 115.198C66.2011 115.198 65.4451 115.06 64.7491 114.784C64.0531 114.502 63.4531 114.118 62.9491 113.632C62.4511 113.14 62.0821 112.573 61.8421 111.931L63.4531 111.166C63.6691 111.634 63.9361 112.054 64.2541 112.426C64.5721 112.792 64.9471 113.08 65.3791 113.29C65.8111 113.494 66.3061 113.596 66.8641 113.596C67.7461 113.596 68.4571 113.347 68.9971 112.849C69.5371 112.345 69.8071 111.664 69.8071 110.806C69.8071 110.272 69.6811 109.804 69.4291 109.402C69.1771 109 68.8381 108.688 68.4121 108.466C67.9861 108.238 67.5091 108.124 66.9811 108.124C66.6511 108.124 66.3421 108.154 66.0541 108.214C65.7661 108.268 65.4781 108.379 65.1901 108.547C64.9081 108.709 64.6081 108.952 64.2901 109.276C64.2421 109.3 64.2061 109.312 64.1821 109.312C64.1641 109.312 64.1251 109.297 64.0651 109.267L62.5261 108.709L63.1201 101.986H71.0491L70.9861 103.615H64.7131L64.4071 107.53C64.8511 107.17 65.3191 106.912 65.8111 106.756C66.3031 106.594 66.8371 106.513 67.4131 106.513C68.2231 106.513 68.9611 106.675 69.6271 106.999C70.2991 107.323 70.8361 107.8 71.2381 108.43C71.6401 109.054 71.8411 109.825 71.8411 110.743C71.8411 111.649 71.6431 112.435 71.2471 113.101C70.8511 113.767 70.2901 114.283 69.5641 114.649C68.8441 115.015 67.9951 115.198 67.0171 115.198ZM78.7241 115.198C77.9081 115.198 77.1521 115.06 76.4561 114.784C75.7601 114.502 75.1601 114.118 74.6561 113.632C74.1581 113.14 73.7891 112.573 73.5491 111.931L75.1601 111.166C75.3761 111.634 75.6431 112.054 75.9611 112.426C76.2791 112.792 76.6541 113.08 77.0861 113.29C77.5181 113.494 78.0131 113.596 78.5711 113.596C79.4531 113.596 80.1641 113.347 80.7041 112.849C81.2441 112.345 81.5141 111.664 81.5141 110.806C81.5141 110.272 81.3881 109.804 81.1361 109.402C80.8841 109 80.5451 108.688 80.1191 108.466C79.6931 108.238 79.2161 108.124 78.6881 108.124C78.3581 108.124 78.0491 108.154 77.7611 108.214C77.4731 108.268 77.1851 108.379 76.8971 108.547C76.6151 108.709 76.3151 108.952 75.9971 109.276C75.9491 109.3 75.9131 109.312 75.8891 109.312C75.8711 109.312 75.8321 109.297 75.7721 109.267L74.2331 108.709L74.8271 101.986H82.7561L82.6931 103.615H76.4201L76.1141 107.53C76.5581 107.17 77.0261 106.912 77.5181 106.756C78.0101 106.594 78.5441 106.513 79.1201 106.513C79.9301 106.513 80.6681 106.675 81.3341 106.999C82.0061 107.323 82.5431 107.8 82.9451 108.43C83.3471 109.054 83.5481 109.825 83.5481 110.743C83.5481 111.649 83.3501 112.435 82.9541 113.101C82.5581 113.767 81.9971 114.283 81.2711 114.649C80.5511 115.015 79.7021 115.198 78.7241 115.198ZM85.5172 111.103V109.627L90.1792 109.618V111.085L85.5172 111.103ZM96.8722 115.198C95.4022 115.198 94.2442 114.637 93.3982 113.515C92.5522 112.387 92.1292 110.728 92.1292 108.538C92.1292 107.068 92.3242 105.835 92.7142 104.839C93.1042 103.837 93.6532 103.081 94.3612 102.571C95.0752 102.061 95.9152 101.806 96.8812 101.806C98.3272 101.806 99.4762 102.376 100.328 103.516C101.186 104.65 101.615 106.318 101.615 108.52C101.615 110.71 101.189 112.372 100.337 113.506C99.4912 114.634 98.3362 115.198 96.8722 115.198ZM96.8812 113.56C97.7692 113.56 98.4352 113.17 98.8792 112.39C99.3232 111.604 99.5452 110.317 99.5452 108.529C99.5452 106.705 99.3202 105.394 98.8702 104.596C98.4202 103.792 97.7542 103.39 96.8722 103.39C95.9962 103.39 95.3272 103.795 94.8652 104.605C94.4032 105.409 94.1722 106.717 94.1722 108.529C94.1722 110.311 94.4002 111.595 94.8562 112.381C95.3182 113.167 95.9932 113.56 96.8812 113.56ZM105.748 115V104.812H103.282V103.615C104.05 103.615 104.653 103.555 105.091 103.435C105.535 103.309 105.853 103.126 106.045 102.886C106.243 102.64 106.354 102.34 106.378 101.986H107.719V115H105.748ZM110.97 115V113.911V113.335C110.97 112.675 111.093 112.102 111.339 111.616C111.591 111.13 111.921 110.707 112.329 110.347C112.737 109.981 113.184 109.657 113.67 109.375C114.162 109.093 114.651 108.823 115.137 108.565C115.623 108.307 116.07 108.04 116.478 107.764C116.886 107.482 117.213 107.167 117.459 106.819C117.711 106.465 117.837 106.051 117.837 105.577C117.837 104.953 117.618 104.446 117.18 104.056C116.742 103.666 116.148 103.471 115.398 103.471C114.6 103.471 113.952 103.696 113.454 104.146C112.956 104.596 112.668 105.217 112.59 106.009H110.7C110.718 105.235 110.907 104.53 111.267 103.894C111.627 103.258 112.158 102.751 112.86 102.373C113.562 101.995 114.432 101.806 115.47 101.806C116.37 101.806 117.147 101.965 117.801 102.283C118.461 102.595 118.971 103.033 119.331 103.597C119.691 104.161 119.871 104.818 119.871 105.568C119.871 106.234 119.748 106.807 119.502 107.287C119.256 107.767 118.932 108.181 118.53 108.529C118.134 108.877 117.696 109.186 117.216 109.456C116.736 109.72 116.256 109.975 115.776 110.221C115.296 110.461 114.855 110.716 114.453 110.986C114.051 111.25 113.727 111.55 113.481 111.886C113.235 112.222 113.112 112.627 113.112 113.101V113.326H119.916V115H110.97ZM126.116 115.198C125.372 115.198 124.679 115.057 124.037 114.775C123.395 114.487 122.861 114.085 122.435 113.569C122.015 113.047 121.763 112.426 121.679 111.706H123.533C123.671 112.276 123.962 112.738 124.406 113.092C124.856 113.446 125.405 113.623 126.053 113.623C126.779 113.623 127.406 113.437 127.934 113.065C128.462 112.693 128.855 112.114 129.113 111.328C129.377 110.542 129.476 109.528 129.41 108.286C129.254 108.706 129.017 109.075 128.699 109.393C128.381 109.705 128.003 109.951 127.565 110.131C127.127 110.311 126.641 110.401 126.107 110.401C125.243 110.401 124.481 110.233 123.821 109.897C123.161 109.561 122.645 109.084 122.273 108.466C121.901 107.842 121.715 107.098 121.715 106.234C121.715 105.37 121.901 104.605 122.273 103.939C122.651 103.273 123.182 102.751 123.866 102.373C124.556 101.995 125.372 101.806 126.314 101.806C127.346 101.806 128.24 102.067 128.996 102.589C129.752 103.111 130.334 103.855 130.742 104.821C131.15 105.787 131.354 106.939 131.354 108.277C131.354 109.765 131.15 111.025 130.742 112.057C130.334 113.083 129.737 113.863 128.951 114.397C128.171 114.931 127.226 115.198 126.116 115.198ZM126.359 108.799C126.809 108.799 127.238 108.697 127.646 108.493C128.054 108.289 128.387 108.019 128.645 107.683C128.909 107.341 129.041 106.975 129.041 106.585C129.047 105.937 128.936 105.37 128.708 104.884C128.486 104.398 128.171 104.02 127.763 103.75C127.361 103.474 126.887 103.336 126.341 103.336C125.849 103.336 125.411 103.456 125.027 103.696C124.643 103.93 124.34 104.26 124.118 104.686C123.902 105.106 123.794 105.592 123.794 106.144C123.794 106.966 124.016 107.614 124.46 108.088C124.904 108.562 125.537 108.799 126.359 108.799Z" fill="white"/>
<path d="M6.192 150V147.048H0.744V145.696L6.136 138.432H7.64V145.744H9.56V147.048H7.64V150H6.192ZM2.16 145.744H6.16V140.376L2.16 145.744ZM15.1939 150.176C14.4792 150.176 13.8179 150.051 13.2099 149.8C12.6019 149.549 12.0792 149.2 11.6419 148.752C11.2099 148.304 10.8925 147.789 10.6899 147.208L11.9699 146.672C12.1619 147.109 12.4019 147.499 12.6899 147.84C12.9832 148.181 13.3299 148.448 13.7299 148.64C14.1299 148.832 14.5832 148.928 15.0899 148.928C15.9112 148.928 16.5699 148.691 17.0659 148.216C17.5672 147.736 17.8179 147.085 17.8179 146.264C17.8179 145.752 17.7005 145.307 17.4659 144.928C17.2312 144.544 16.9139 144.245 16.5139 144.032C16.1192 143.819 15.6819 143.712 15.2019 143.712C14.8872 143.712 14.5939 143.741 14.3219 143.8C14.0499 143.853 13.7805 143.96 13.5139 144.12C13.2472 144.28 12.9672 144.523 12.6739 144.848C12.6419 144.864 12.6179 144.872 12.6019 144.872C12.5859 144.867 12.5592 144.856 12.5219 144.84L11.2739 144.448L11.7939 138.432H18.6979L18.6579 139.712H13.0579L12.7619 143.448C13.1459 143.091 13.5645 142.837 14.0179 142.688C14.4765 142.533 14.9725 142.456 15.5059 142.456C16.2045 142.456 16.8472 142.6 17.4339 142.888C18.0259 143.171 18.5005 143.592 18.8579 144.152C19.2152 144.707 19.3939 145.395 19.3939 146.216C19.3939 147.016 19.2205 147.712 18.8739 148.304C18.5272 148.896 18.0392 149.357 17.4099 149.688C16.7805 150.013 16.0419 150.176 15.1939 150.176ZM23.1479 150V140.792H20.9159V139.824C21.6092 139.824 22.1479 139.773 22.5319 139.672C22.9159 139.571 23.1879 139.416 23.3479 139.208C23.5132 139 23.6039 138.741 23.6199 138.432H24.6759V150H23.1479ZM29.5195 150C29.6048 149.472 29.7568 148.819 29.9755 148.04C30.1995 147.261 30.4928 146.411 30.8555 145.488C31.2182 144.56 31.6555 143.603 32.1675 142.616C32.6795 141.629 33.2662 140.661 33.9275 139.712H27.4315V138.432H35.5515V139.712C35.1408 140.272 34.7328 140.909 34.3275 141.624C33.9275 142.333 33.5462 143.077 33.1835 143.856C32.8208 144.629 32.4955 145.395 32.2075 146.152C31.9195 146.904 31.6795 147.613 31.4875 148.28C31.3008 148.941 31.1808 149.515 31.1275 150H29.5195ZM43.5165 150L40.1805 138.432H41.6765L44.2365 147.64L46.8445 138.432H48.0045L50.6045 147.64L53.2125 138.432H54.7005L51.3245 150H49.9565L47.4205 141.032L44.8445 150H43.5165ZM57.9034 150.16C57.3647 150.16 56.89 150.067 56.4794 149.88C56.074 149.688 55.754 149.413 55.5194 149.056C55.29 148.699 55.1754 148.267 55.1754 147.76C55.1754 146.843 55.4954 146.16 56.1354 145.712C56.7754 145.264 57.802 145.024 59.2154 144.992L60.6874 144.952V144.304C60.6874 143.797 60.5354 143.397 60.2314 143.104C59.9274 142.805 59.458 142.656 58.8234 142.656C58.3487 142.661 57.93 142.773 57.5674 142.992C57.2047 143.211 56.9727 143.568 56.8714 144.064H55.5674C55.5994 143.525 55.7487 143.072 56.0154 142.704C56.2874 142.331 56.6687 142.048 57.1594 141.856C57.65 141.664 58.2287 141.568 58.8954 141.568C59.6154 141.568 60.2127 141.669 60.6874 141.872C61.1674 142.075 61.5247 142.373 61.7594 142.768C61.9994 143.163 62.1194 143.648 62.1194 144.224V150H60.8554L60.7434 148.448C60.4287 149.093 60.0234 149.541 59.5274 149.792C59.0367 150.037 58.4954 150.16 57.9034 150.16ZM58.3434 149.096C58.626 149.096 58.9034 149.045 59.1754 148.944C59.4527 148.843 59.7034 148.707 59.9274 148.536C60.1567 148.36 60.3407 148.165 60.4794 147.952C60.618 147.733 60.6874 147.509 60.6874 147.28V145.864L59.4634 145.888C58.8287 145.899 58.3007 145.963 57.8794 146.08C57.458 146.197 57.1407 146.381 56.9274 146.632C56.714 146.883 56.6074 147.211 56.6074 147.616C56.6074 148.08 56.77 148.443 57.0954 148.704C57.4207 148.965 57.8367 149.096 58.3434 149.096ZM67.325 150.16C66.749 150.16 66.213 150.072 65.717 149.896C65.2263 149.715 64.8183 149.435 64.493 149.056C64.1677 148.672 63.965 148.184 63.885 147.592H65.229C65.2983 147.917 65.4317 148.189 65.629 148.408C65.8263 148.621 66.069 148.784 66.357 148.896C66.6503 149.003 66.9703 149.056 67.317 149.056C67.877 149.056 68.3277 148.952 68.669 148.744C69.0103 148.536 69.181 148.216 69.181 147.784C69.181 147.48 69.0903 147.237 68.909 147.056C68.733 146.869 68.4557 146.733 68.077 146.648L66.365 146.224C65.6983 146.064 65.165 145.813 64.765 145.472C64.3703 145.131 64.1703 144.653 64.165 144.04C64.165 143.555 64.2823 143.128 64.517 142.76C64.7517 142.392 65.101 142.101 65.565 141.888C66.0343 141.675 66.6183 141.568 67.317 141.568C68.2183 141.568 68.9437 141.771 69.493 142.176C70.0423 142.576 70.3303 143.165 70.357 143.944H69.045C68.9917 143.549 68.8157 143.237 68.517 143.008C68.2183 142.773 67.813 142.656 67.301 142.656C66.7783 142.656 66.349 142.763 66.013 142.976C65.6823 143.184 65.517 143.509 65.517 143.952C65.517 144.245 65.6343 144.477 65.869 144.648C66.109 144.813 66.4557 144.952 66.909 145.064L68.573 145.48C68.9517 145.581 69.2663 145.715 69.517 145.88C69.7677 146.045 69.965 146.229 70.109 146.432C70.253 146.635 70.3543 146.848 70.413 147.072C70.477 147.291 70.509 147.501 70.509 147.704C70.509 148.211 70.3837 148.648 70.133 149.016C69.8823 149.379 69.5197 149.661 69.045 149.864C68.5703 150.061 67.997 150.16 67.325 150.16ZM72.4428 150V138.112H73.8828V142.944C74.0214 142.715 74.2081 142.501 74.4428 142.304C74.6774 142.101 74.9628 141.939 75.2988 141.816C75.6348 141.688 76.0241 141.624 76.4668 141.624C77.0054 141.624 77.4934 141.725 77.9308 141.928C78.3681 142.125 78.7148 142.408 78.9708 142.776C79.2268 143.144 79.3548 143.581 79.3548 144.088V150H77.8748V144.384C77.8748 143.888 77.7041 143.507 77.3628 143.24C77.0268 142.968 76.5868 142.832 76.0428 142.832C75.6748 142.832 75.3281 142.893 75.0028 143.016C74.6774 143.133 74.4134 143.315 74.2108 143.56C74.0134 143.8 73.9148 144.107 73.9148 144.48V150H72.4428ZM81.7015 150V141.728H83.1335V150H81.7015ZM81.6615 139.976V138.44H83.1735V139.976H81.6615ZM85.7084 150V141.728H87.1404V142.928C87.2737 142.699 87.4577 142.483 87.6924 142.28C87.9324 142.077 88.2204 141.915 88.5564 141.792C88.8977 141.669 89.2897 141.608 89.7324 141.608C90.255 141.608 90.735 141.712 91.1724 141.92C91.615 142.128 91.967 142.453 92.2284 142.896C92.495 143.333 92.6284 143.899 92.6284 144.592V150H91.1484V144.736C91.1484 144.091 90.9777 143.613 90.6364 143.304C90.3004 142.989 89.863 142.832 89.3244 142.832C88.951 142.832 88.6017 142.893 88.2764 143.016C87.951 143.133 87.687 143.315 87.4844 143.56C87.2817 143.8 87.1804 144.104 87.1804 144.472V150H85.7084ZM98.4388 152.736C97.1428 152.736 96.1321 152.547 95.4068 152.168C94.6814 151.795 94.3188 151.259 94.3188 150.56C94.3188 150.261 94.3881 150.008 94.5268 149.8C94.6654 149.587 94.8308 149.411 95.0228 149.272C95.2148 149.133 95.3934 149.024 95.5588 148.944C95.7241 148.859 95.8334 148.797 95.8868 148.76C95.7908 148.707 95.6761 148.64 95.5428 148.56C95.4094 148.48 95.2894 148.373 95.1828 148.24C95.0814 148.107 95.0308 147.933 95.0308 147.72C95.0308 147.459 95.1534 147.219 95.3988 147C95.6441 146.781 96.0094 146.619 96.4948 146.512C96.0094 146.267 95.6308 145.941 95.3588 145.536C95.0868 145.131 94.9508 144.691 94.9508 144.216C94.9508 143.683 95.0948 143.219 95.3828 142.824C95.6708 142.429 96.0841 142.128 96.6228 141.92C97.1614 141.707 97.8041 141.6 98.5508 141.6C99.0894 141.6 99.5401 141.664 99.9028 141.792C100.271 141.915 100.612 142.091 100.927 142.32C101.012 142.283 101.148 142.227 101.335 142.152C101.521 142.072 101.724 141.987 101.943 141.896C102.167 141.805 102.375 141.72 102.567 141.64C102.764 141.555 102.921 141.491 103.039 141.448L103.031 142.816L101.583 143.088C101.668 143.259 101.735 143.445 101.783 143.648C101.831 143.851 101.855 144.04 101.855 144.216C101.855 144.701 101.727 145.141 101.471 145.536C101.22 145.931 100.839 146.245 100.327 146.48C99.8148 146.715 99.1748 146.832 98.4068 146.832C98.3428 146.832 98.2601 146.832 98.1588 146.832C98.0628 146.827 97.9801 146.821 97.9108 146.816C97.3454 146.832 96.9561 146.896 96.7428 147.008C96.5348 147.115 96.4308 147.235 96.4308 147.368C96.4308 147.523 96.5508 147.629 96.7908 147.688C97.0308 147.747 97.4361 147.797 98.0068 147.84C98.2148 147.851 98.4708 147.864 98.7748 147.88C99.0841 147.896 99.4281 147.917 99.8068 147.944C100.671 147.997 101.337 148.219 101.807 148.608C102.276 148.997 102.511 149.523 102.511 150.184C102.511 150.936 102.175 151.549 101.503 152.024C100.836 152.499 99.8148 152.736 98.4388 152.736ZM98.7028 151.784C99.4654 151.784 100.049 151.669 100.455 151.44C100.865 151.211 101.071 150.864 101.071 150.4C101.071 150.069 100.945 149.8 100.695 149.592C100.444 149.379 100.065 149.256 99.5588 149.224L97.2388 149.072C97.0308 149.061 96.8148 149.115 96.5908 149.232C96.3668 149.344 96.1774 149.501 96.0228 149.704C95.8681 149.907 95.7908 150.136 95.7908 150.392C95.7908 150.829 96.0281 151.171 96.5028 151.416C96.9774 151.661 97.7108 151.784 98.7028 151.784ZM98.4548 145.88C99.0468 145.88 99.5241 145.741 99.8868 145.464C100.255 145.187 100.439 144.776 100.439 144.232C100.439 143.672 100.255 143.245 99.8868 142.952C99.5241 142.659 99.0468 142.512 98.4548 142.512C97.8468 142.512 97.3561 142.661 96.9828 142.96C96.6148 143.253 96.4308 143.677 96.4308 144.232C96.4308 144.755 96.6068 145.16 96.9588 145.448C97.3161 145.736 97.8148 145.88 98.4548 145.88ZM107.99 150.04C107.42 150.04 106.977 149.963 106.662 149.808C106.348 149.653 106.126 149.424 105.998 149.12C105.876 148.816 105.814 148.443 105.814 148V142.808H104.47V141.728H105.854L106.214 139.32H107.302V141.72H109.166V142.808H107.302V147.952C107.302 148.245 107.332 148.461 107.39 148.6C107.454 148.733 107.558 148.819 107.702 148.856C107.846 148.893 108.049 148.912 108.31 148.912H109.214V149.904C109.113 149.941 108.958 149.973 108.75 150C108.548 150.027 108.294 150.04 107.99 150.04ZM114.27 150.16C113.508 150.16 112.841 149.997 112.27 149.672C111.705 149.341 111.265 148.859 110.95 148.224C110.636 147.589 110.478 146.813 110.478 145.896C110.478 145.032 110.625 144.275 110.918 143.624C111.212 142.973 111.641 142.469 112.206 142.112C112.772 141.749 113.462 141.568 114.278 141.568C115.041 141.568 115.702 141.736 116.262 142.072C116.822 142.403 117.257 142.891 117.566 143.536C117.881 144.181 118.038 144.968 118.038 145.896C118.038 146.739 117.894 147.48 117.606 148.12C117.318 148.76 116.894 149.261 116.334 149.624C115.78 149.981 115.092 150.16 114.27 150.16ZM114.278 148.992C114.769 148.992 115.185 148.867 115.526 148.616C115.868 148.365 116.126 148.005 116.302 147.536C116.484 147.067 116.574 146.509 116.574 145.864C116.574 145.272 116.494 144.741 116.334 144.272C116.18 143.797 115.934 143.421 115.598 143.144C115.262 142.867 114.822 142.728 114.278 142.728C113.777 142.728 113.353 142.853 113.006 143.104C112.66 143.349 112.396 143.707 112.214 144.176C112.038 144.645 111.95 145.208 111.95 145.864C111.95 146.445 112.028 146.973 112.182 147.448C112.342 147.923 112.593 148.299 112.934 148.576C113.281 148.853 113.729 148.992 114.278 148.992ZM120.005 150V141.728H121.437V142.928C121.571 142.699 121.755 142.483 121.989 142.28C122.229 142.077 122.517 141.915 122.853 141.792C123.195 141.669 123.587 141.608 124.029 141.608C124.552 141.608 125.032 141.712 125.469 141.92C125.912 142.128 126.264 142.453 126.525 142.896C126.792 143.333 126.925 143.899 126.925 144.592V150H125.445V144.736C125.445 144.091 125.275 143.613 124.933 143.304C124.597 142.989 124.16 142.832 123.621 142.832C123.248 142.832 122.899 142.893 122.573 143.016C122.248 143.133 121.984 143.315 121.781 143.56C121.579 143.8 121.477 144.104 121.477 144.472V150H120.005ZM132.57 150L136.754 138.432H138.426L142.61 150H141.098L139.962 146.832H135.218L134.074 150H132.57ZM135.61 145.472H139.554L137.586 139.88L135.61 145.472ZM145.665 150L142.673 141.728H144.065L146.265 148.144H146.401L148.609 141.728H149.993L147.017 150H145.665ZM154.939 150.16C154.171 150.16 153.493 149.992 152.907 149.656C152.32 149.32 151.861 148.837 151.531 148.208C151.2 147.579 151.035 146.824 151.035 145.944C151.035 145.075 151.184 144.312 151.483 143.656C151.781 143 152.213 142.488 152.779 142.12C153.349 141.752 154.035 141.568 154.835 141.568C155.613 141.568 156.272 141.736 156.811 142.072C157.349 142.408 157.757 142.883 158.035 143.496C158.317 144.104 158.459 144.827 158.459 145.664V146.208H152.531C152.531 146.731 152.616 147.205 152.787 147.632C152.963 148.053 153.227 148.389 153.579 148.64C153.931 148.891 154.376 149.016 154.915 149.016C155.443 149.016 155.896 148.893 156.275 148.648C156.659 148.403 156.904 148.048 157.011 147.584H158.403C158.307 148.144 158.083 148.616 157.731 149C157.384 149.384 156.965 149.675 156.475 149.872C155.989 150.064 155.477 150.16 154.939 150.16ZM152.539 145.208H157.035C157.035 144.733 156.955 144.307 156.795 143.928C156.635 143.544 156.389 143.243 156.059 143.024C155.733 142.8 155.323 142.688 154.827 142.688C154.309 142.688 153.88 142.813 153.539 143.064C153.197 143.309 152.944 143.627 152.779 144.016C152.613 144.4 152.533 144.797 152.539 145.208ZM160.161 150V148.112H161.921V150H160.161ZM1.528 174V162.432H3.576L7.064 171.984L10.6 162.432H12.64V174H11.112V164.648L7.76 174H6.376L3.048 164.736V174H1.528ZM17.669 174.16C17.1303 174.16 16.6557 174.067 16.245 173.88C15.8397 173.688 15.5197 173.413 15.285 173.056C15.0557 172.699 14.941 172.267 14.941 171.76C14.941 170.843 15.261 170.16 15.901 169.712C16.541 169.264 17.5677 169.024 18.981 168.992L20.453 168.952V168.304C20.453 167.797 20.301 167.397 19.997 167.104C19.693 166.805 19.2237 166.656 18.589 166.656C18.1143 166.661 17.6957 166.773 17.333 166.992C16.9703 167.211 16.7383 167.568 16.637 168.064H15.333C15.365 167.525 15.5143 167.072 15.781 166.704C16.053 166.331 16.4343 166.048 16.925 165.856C17.4157 165.664 17.9943 165.568 18.661 165.568C19.381 165.568 19.9783 165.669 20.453 165.872C20.933 166.075 21.2903 166.373 21.525 166.768C21.765 167.163 21.885 167.648 21.885 168.224V174H20.621L20.509 172.448C20.1943 173.093 19.789 173.541 19.293 173.792C18.8023 174.037 18.261 174.16 17.669 174.16ZM18.109 173.096C18.3917 173.096 18.669 173.045 18.941 172.944C19.2183 172.843 19.469 172.707 19.693 172.536C19.9223 172.36 20.1063 172.165 20.245 171.952C20.3837 171.733 20.453 171.509 20.453 171.28V169.864L19.229 169.888C18.5943 169.899 18.0663 169.963 17.645 170.08C17.2237 170.197 16.9063 170.381 16.693 170.632C16.4797 170.883 16.373 171.211 16.373 171.616C16.373 172.08 16.5357 172.443 16.861 172.704C17.1863 172.965 17.6023 173.096 18.109 173.096ZM24.1928 174V165.728H25.6248V166.928C25.7581 166.699 25.9421 166.483 26.1768 166.28C26.4168 166.077 26.7048 165.915 27.0408 165.792C27.3821 165.669 27.7741 165.608 28.2168 165.608C28.7394 165.608 29.2194 165.712 29.6568 165.92C30.0994 166.128 30.4514 166.453 30.7128 166.896C30.9794 167.333 31.1128 167.899 31.1128 168.592V174H29.6328V168.736C29.6328 168.091 29.4621 167.613 29.1208 167.304C28.7848 166.989 28.3474 166.832 27.8088 166.832C27.4354 166.832 27.0861 166.893 26.7608 167.016C26.4354 167.133 26.1714 167.315 25.9688 167.56C25.7661 167.8 25.6648 168.104 25.6648 168.472V174H24.1928ZM36.7551 174.16C36.0085 174.16 35.3471 173.997 34.7711 173.672C34.2005 173.347 33.7525 172.867 33.4271 172.232C33.1071 171.597 32.9471 170.819 32.9471 169.896C32.9471 169.032 33.0938 168.277 33.3871 167.632C33.6858 166.981 34.1178 166.475 34.6831 166.112C35.2538 165.749 35.9445 165.568 36.7551 165.568C37.3471 165.568 37.8778 165.683 38.3471 165.912C38.8218 166.136 39.2111 166.456 39.5151 166.872C39.8191 167.288 40.0058 167.779 40.0751 168.344H38.7631C38.7151 168.056 38.6031 167.792 38.4271 167.552C38.2565 167.312 38.0298 167.12 37.7471 166.976C37.4698 166.832 37.1418 166.76 36.7631 166.76C36.0538 166.76 35.4751 167.016 35.0271 167.528C34.5845 168.04 34.3631 168.824 34.3631 169.88C34.3631 170.835 34.5658 171.6 34.9711 172.176C35.3818 172.747 35.9845 173.032 36.7791 173.032C37.1578 173.032 37.4885 172.96 37.7711 172.816C38.0538 172.667 38.2805 172.472 38.4511 172.232C38.6218 171.987 38.7311 171.725 38.7791 171.448H40.0671C39.9978 172.003 39.8085 172.483 39.4991 172.888C39.1951 173.293 38.8058 173.608 38.3311 173.832C37.8618 174.051 37.3365 174.16 36.7551 174.16ZM42.0365 174V162.112H43.4765V166.944C43.6152 166.715 43.8018 166.501 44.0365 166.304C44.2712 166.101 44.5565 165.939 44.8925 165.816C45.2285 165.688 45.6178 165.624 46.0605 165.624C46.5992 165.624 47.0872 165.725 47.5245 165.928C47.9618 166.125 48.3085 166.408 48.5645 166.776C48.8205 167.144 48.9485 167.581 48.9485 168.088V174H47.4685V168.384C47.4685 167.888 47.2978 167.507 46.9565 167.24C46.6205 166.968 46.1805 166.832 45.6365 166.832C45.2685 166.832 44.9218 166.893 44.5965 167.016C44.2712 167.133 44.0072 167.315 43.8045 167.56C43.6072 167.8 43.5085 168.107 43.5085 168.48V174H42.0365ZM54.7513 174.16C53.9833 174.16 53.3059 173.992 52.7193 173.656C52.1326 173.32 51.6739 172.837 51.3433 172.208C51.0126 171.579 50.8473 170.824 50.8473 169.944C50.8473 169.075 50.9966 168.312 51.2953 167.656C51.5939 167 52.0259 166.488 52.5913 166.12C53.1619 165.752 53.8473 165.568 54.6473 165.568C55.4259 165.568 56.0846 165.736 56.6233 166.072C57.1619 166.408 57.5699 166.883 57.8473 167.496C58.1299 168.104 58.2713 168.827 58.2713 169.664V170.208H52.3433C52.3433 170.731 52.4286 171.205 52.5993 171.632C52.7753 172.053 53.0393 172.389 53.3913 172.64C53.7433 172.891 54.1886 173.016 54.7273 173.016C55.2553 173.016 55.7086 172.893 56.0873 172.648C56.4713 172.403 56.7166 172.048 56.8233 171.584H58.2153C58.1192 172.144 57.8953 172.616 57.5433 173C57.1966 173.384 56.7779 173.675 56.2873 173.872C55.8019 174.064 55.2899 174.16 54.7513 174.16ZM52.3513 169.208H56.8473C56.8473 168.733 56.7673 168.307 56.6073 167.928C56.4473 167.544 56.2019 167.243 55.8713 167.024C55.5459 166.8 55.1353 166.688 54.6393 166.688C54.1219 166.688 53.6926 166.813 53.3513 167.064C53.0099 167.309 52.7566 167.627 52.5913 168.016C52.4259 168.4 52.3459 168.797 52.3513 169.208ZM63.2469 174.16C62.6709 174.16 62.1349 174.072 61.6389 173.896C61.1482 173.715 60.7402 173.435 60.4149 173.056C60.0895 172.672 59.8869 172.184 59.8069 171.592H61.1509C61.2202 171.917 61.3535 172.189 61.5509 172.408C61.7482 172.621 61.9909 172.784 62.2789 172.896C62.5722 173.003 62.8922 173.056 63.2389 173.056C63.7989 173.056 64.2495 172.952 64.5909 172.744C64.9322 172.536 65.1029 172.216 65.1029 171.784C65.1029 171.48 65.0122 171.237 64.8309 171.056C64.6549 170.869 64.3775 170.733 63.9989 170.648L62.2869 170.224C61.6202 170.064 61.0869 169.813 60.6869 169.472C60.2922 169.131 60.0922 168.653 60.0869 168.04C60.0869 167.555 60.2042 167.128 60.4389 166.76C60.6735 166.392 61.0229 166.101 61.4869 165.888C61.9562 165.675 62.5402 165.568 63.2389 165.568C64.1402 165.568 64.8655 165.771 65.4149 166.176C65.9642 166.576 66.2522 167.165 66.2789 167.944H64.9669C64.9135 167.549 64.7375 167.237 64.4389 167.008C64.1402 166.773 63.7349 166.656 63.2229 166.656C62.7002 166.656 62.2709 166.763 61.9349 166.976C61.6042 167.184 61.4389 167.509 61.4389 167.952C61.4389 168.245 61.5562 168.477 61.7909 168.648C62.0309 168.813 62.3775 168.952 62.8309 169.064L64.4949 169.48C64.8735 169.581 65.1882 169.715 65.4389 169.88C65.6895 170.045 65.8869 170.229 66.0309 170.432C66.1749 170.635 66.2762 170.848 66.3349 171.072C66.3989 171.291 66.4309 171.501 66.4309 171.704C66.4309 172.211 66.3055 172.648 66.0549 173.016C65.8042 173.379 65.4415 173.661 64.9669 173.864C64.4922 174.061 63.9189 174.16 63.2469 174.16ZM71.2248 174.04C70.6541 174.04 70.2114 173.963 69.8968 173.808C69.5821 173.653 69.3608 173.424 69.2328 173.12C69.1101 172.816 69.0488 172.443 69.0488 172V166.808H67.7048V165.728H69.0888L69.4488 163.32H70.5368V165.72H72.4008V166.808H70.5368V171.952C70.5368 172.245 70.5661 172.461 70.6248 172.6C70.6888 172.733 70.7928 172.819 70.9368 172.856C71.0808 172.893 71.2834 172.912 71.5448 172.912H72.4488V173.904C72.3474 173.941 72.1928 173.973 71.9848 174C71.7821 174.027 71.5288 174.04 71.2248 174.04ZM77.6888 174.16C76.9208 174.16 76.2434 173.992 75.6568 173.656C75.0701 173.32 74.6114 172.837 74.2808 172.208C73.9501 171.579 73.7848 170.824 73.7848 169.944C73.7848 169.075 73.9341 168.312 74.2328 167.656C74.5314 167 74.9634 166.488 75.5288 166.12C76.0994 165.752 76.7848 165.568 77.5848 165.568C78.3634 165.568 79.0221 165.736 79.5608 166.072C80.0994 166.408 80.5074 166.883 80.7848 167.496C81.0674 168.104 81.2088 168.827 81.2088 169.664V170.208H75.2808C75.2808 170.731 75.3661 171.205 75.5368 171.632C75.7128 172.053 75.9768 172.389 76.3288 172.64C76.6808 172.891 77.1261 173.016 77.6648 173.016C78.1928 173.016 78.6461 172.893 79.0248 172.648C79.4088 172.403 79.6541 172.048 79.7608 171.584H81.1528C81.0567 172.144 80.8328 172.616 80.4808 173C80.1341 173.384 79.7154 173.675 79.2248 173.872C78.7394 174.064 78.2274 174.16 77.6888 174.16ZM75.2888 169.208H79.7848C79.7848 168.733 79.7048 168.307 79.5448 167.928C79.3848 167.544 79.1394 167.243 78.8088 167.024C78.4834 166.8 78.0728 166.688 77.5768 166.688C77.0594 166.688 76.6301 166.813 76.2888 167.064C75.9474 167.309 75.6941 167.627 75.5288 168.016C75.3634 168.4 75.2834 168.797 75.2888 169.208ZM83.2553 174V165.728H84.6633V167.32C84.8019 166.925 84.9966 166.6 85.2473 166.344C85.4979 166.083 85.7833 165.888 86.1033 165.76C86.4286 165.632 86.7646 165.568 87.1113 165.568C87.2339 165.568 87.3539 165.576 87.4713 165.592C87.5886 165.608 87.6793 165.635 87.7433 165.672V167.104C87.6633 167.067 87.5593 167.043 87.4313 167.032C87.3086 167.016 87.2046 167.008 87.1193 167.008C86.7886 166.987 86.4793 167.008 86.1913 167.072C85.9033 167.131 85.6499 167.235 85.4313 167.384C85.2126 167.533 85.0393 167.731 84.9113 167.976C84.7886 168.216 84.7273 168.509 84.7273 168.856V174H83.2553ZM87.8054 176.008L88.7014 174.032L88.0054 173.992V172.224H89.8534V173.76L88.4934 176.008H87.8054ZM96.2936 174V162.432H97.8296V168.416L103.014 162.432H104.782L100.918 166.976L105.118 174H103.446L99.8376 168.056L97.8296 170.352V174H96.2936ZM109.923 174.16C109.155 174.16 108.478 173.992 107.891 173.656C107.304 173.32 106.846 172.837 106.515 172.208C106.184 171.579 106.019 170.824 106.019 169.944C106.019 169.075 106.168 168.312 106.467 167.656C106.766 167 107.198 166.488 107.763 166.12C108.334 165.752 109.019 165.568 109.819 165.568C110.598 165.568 111.256 165.736 111.795 166.072C112.334 166.408 112.742 166.883 113.019 167.496C113.302 168.104 113.443 168.827 113.443 169.664V170.208H107.515C107.515 170.731 107.6 171.205 107.771 171.632C107.947 172.053 108.211 172.389 108.563 172.64C108.915 172.891 109.36 173.016 109.899 173.016C110.427 173.016 110.88 172.893 111.259 172.648C111.643 172.403 111.888 172.048 111.995 171.584H113.387C113.291 172.144 113.067 172.616 112.715 173C112.368 173.384 111.95 173.675 111.459 173.872C110.974 174.064 110.462 174.16 109.923 174.16ZM107.523 169.208H112.019C112.019 168.733 111.939 168.307 111.779 167.928C111.619 167.544 111.374 167.243 111.043 167.024C110.718 166.8 110.307 166.688 109.811 166.688C109.294 166.688 108.864 166.813 108.523 167.064C108.182 167.309 107.928 167.627 107.763 168.016C107.598 168.4 107.518 168.797 107.523 169.208ZM115.49 174V165.728H116.922V166.928C117.055 166.699 117.239 166.483 117.474 166.28C117.714 166.077 118.002 165.915 118.338 165.792C118.679 165.669 119.071 165.608 119.514 165.608C120.036 165.608 120.516 165.712 120.954 165.92C121.396 166.128 121.748 166.453 122.01 166.896C122.276 167.333 122.41 167.899 122.41 168.592V174H120.93V168.736C120.93 168.091 120.759 167.613 120.418 167.304C120.082 166.989 119.644 166.832 119.106 166.832C118.732 166.832 118.383 166.893 118.058 167.016C117.732 167.133 117.468 167.315 117.266 167.56C117.063 167.8 116.962 168.104 116.962 168.472V174H115.49ZM127.412 174.04C126.842 174.04 126.399 173.963 126.084 173.808C125.77 173.653 125.548 173.424 125.42 173.12C125.298 172.816 125.236 172.443 125.236 172V166.808H123.892V165.728H125.276L125.636 163.32H126.724V165.72H128.588V166.808H126.724V171.952C126.724 172.245 126.754 172.461 126.812 172.6C126.876 172.733 126.98 172.819 127.124 172.856C127.268 172.893 127.471 172.912 127.732 172.912H128.636V173.904C128.535 173.941 128.38 173.973 128.172 174C127.97 174.027 127.716 174.04 127.412 174.04ZM133.561 174.16C133.129 174.155 132.721 174.093 132.337 173.976C131.958 173.853 131.622 173.675 131.329 173.44C131.036 173.205 130.804 172.915 130.633 172.568C130.468 172.216 130.385 171.808 130.385 171.344V165.728H131.865V171.192C131.865 171.731 132.03 172.168 132.361 172.504C132.697 172.84 133.201 173.008 133.873 173.008C134.481 173.008 134.969 172.851 135.337 172.536C135.71 172.216 135.897 171.741 135.897 171.112V165.728H137.369V174H136.193L136.041 172.416C135.94 172.832 135.766 173.168 135.521 173.424C135.281 173.68 134.99 173.869 134.649 173.992C134.313 174.109 133.95 174.165 133.561 174.16ZM143.13 174.16C142.383 174.16 141.722 173.997 141.146 173.672C140.575 173.347 140.127 172.867 139.802 172.232C139.482 171.597 139.322 170.819 139.322 169.896C139.322 169.032 139.469 168.277 139.762 167.632C140.061 166.981 140.493 166.475 141.058 166.112C141.629 165.749 142.319 165.568 143.13 165.568C143.722 165.568 144.253 165.683 144.722 165.912C145.197 166.136 145.586 166.456 145.89 166.872C146.194 167.288 146.381 167.779 146.45 168.344H145.138C145.09 168.056 144.978 167.792 144.802 167.552C144.631 167.312 144.405 167.12 144.122 166.976C143.845 166.832 143.517 166.76 143.138 166.76C142.429 166.76 141.85 167.016 141.402 167.528C140.959 168.04 140.738 168.824 140.738 169.88C140.738 170.835 140.941 171.6 141.346 172.176C141.757 172.747 142.359 173.032 143.154 173.032C143.533 173.032 143.863 172.96 144.146 172.816C144.429 172.667 144.655 172.472 144.826 172.232C144.997 171.987 145.106 171.725 145.154 171.448H146.442C146.373 172.003 146.183 172.483 145.874 172.888C145.57 173.293 145.181 173.608 144.706 173.832C144.237 174.051 143.711 174.16 143.13 174.16ZM148.412 174V162.112H149.884V169.864L153.772 165.728H155.468L152.484 168.88L155.676 174H154.108L151.516 169.848L149.884 171.536V174H148.412ZM158.439 176.64C157.953 176.64 157.62 176.605 157.439 176.536C157.257 176.467 157.167 176.432 157.167 176.432V175.472L158.015 175.488C158.319 175.499 158.572 175.477 158.775 175.424C158.977 175.371 159.14 175.299 159.263 175.208C159.385 175.117 159.479 175.016 159.543 174.904C159.612 174.792 159.668 174.685 159.711 174.584L159.999 173.8L156.767 165.728H158.263L160.703 172.112L163.127 165.728H164.575L161.095 174.624C160.876 175.147 160.633 175.555 160.367 175.848C160.105 176.141 159.812 176.347 159.487 176.464C159.167 176.581 158.817 176.64 158.439 176.64ZM173.637 174.176C172.843 174.171 172.141 174.024 171.533 173.736C170.931 173.448 170.456 173.045 170.109 172.528C169.763 172.005 169.576 171.387 169.549 170.672H171.029C171.141 171.392 171.435 171.944 171.909 172.328C172.384 172.712 172.979 172.904 173.693 172.904C174.259 172.904 174.752 172.816 175.173 172.64C175.595 172.459 175.92 172.211 176.149 171.896C176.379 171.581 176.493 171.213 176.493 170.792C176.493 170.328 176.365 169.936 176.109 169.616C175.853 169.296 175.504 169.053 175.061 168.888C174.619 168.717 174.125 168.629 173.581 168.624L172.541 168.6V167.344L173.533 167.32C174.04 167.309 174.493 167.213 174.893 167.032C175.293 166.845 175.608 166.603 175.837 166.304C176.072 166 176.189 165.667 176.189 165.304C176.189 164.984 176.091 164.688 175.893 164.416C175.696 164.139 175.411 163.917 175.037 163.752C174.669 163.587 174.221 163.504 173.693 163.504C173.277 163.504 172.88 163.587 172.501 163.752C172.123 163.912 171.811 164.16 171.565 164.496C171.32 164.832 171.189 165.267 171.173 165.8H169.701C169.701 165.053 169.883 164.419 170.245 163.896C170.608 163.368 171.091 162.965 171.693 162.688C172.301 162.411 172.971 162.272 173.701 162.272C174.501 162.272 175.208 162.389 175.821 162.624C176.435 162.853 176.915 163.189 177.261 163.632C177.608 164.075 177.781 164.616 177.781 165.256C177.781 165.827 177.6 166.344 177.237 166.808C176.875 167.267 176.32 167.627 175.573 167.888C176.08 168.027 176.523 168.229 176.901 168.496C177.28 168.763 177.573 169.091 177.781 169.48C177.989 169.864 178.093 170.307 178.093 170.808C178.093 171.336 177.981 171.811 177.757 172.232C177.539 172.648 177.229 173.003 176.829 173.296C176.429 173.584 175.957 173.805 175.413 173.96C174.869 174.109 174.277 174.181 173.637 174.176ZM183.414 174.176C182.774 174.176 182.176 174.056 181.622 173.816C181.072 173.571 180.611 173.224 180.238 172.776C179.87 172.328 179.643 171.792 179.558 171.168H180.998C181.131 171.696 181.408 172.125 181.83 172.456C182.251 172.781 182.763 172.944 183.366 172.944C184.048 172.944 184.632 172.765 185.118 172.408C185.608 172.051 185.974 171.499 186.214 170.752C186.454 170.005 186.544 169.048 186.486 167.88C186.352 168.285 186.142 168.643 185.854 168.952C185.566 169.256 185.219 169.496 184.814 169.672C184.408 169.848 183.96 169.936 183.47 169.936C182.707 169.936 182.035 169.787 181.454 169.488C180.872 169.189 180.419 168.763 180.094 168.208C179.774 167.653 179.614 166.989 179.614 166.216C179.614 165.443 179.774 164.76 180.094 164.168C180.414 163.576 180.872 163.112 181.47 162.776C182.067 162.44 182.776 162.272 183.598 162.272C184.494 162.272 185.27 162.504 185.926 162.968C186.582 163.427 187.088 164.088 187.446 164.952C187.803 165.811 187.982 166.843 187.982 168.048C187.982 169.344 187.803 170.448 187.446 171.36C187.094 172.272 186.576 172.971 185.894 173.456C185.216 173.936 184.39 174.176 183.414 174.176ZM183.63 168.68C184.056 168.68 184.462 168.581 184.846 168.384C185.23 168.187 185.542 167.925 185.782 167.6C186.027 167.269 186.15 166.909 186.15 166.52C186.155 165.923 186.054 165.397 185.846 164.944C185.638 164.485 185.342 164.128 184.958 163.872C184.574 163.611 184.126 163.48 183.614 163.48C183.144 163.48 182.728 163.592 182.366 163.816C182.008 164.04 181.726 164.352 181.518 164.752C181.315 165.152 181.214 165.616 181.214 166.144C181.214 166.917 181.419 167.533 181.83 167.992C182.24 168.451 182.84 168.68 183.63 168.68ZM194.911 174V171.048H189.463V169.696L194.855 162.432H196.359V169.744H198.279V171.048H196.359V174H194.911ZM190.879 169.744H194.879V164.376L190.879 169.744ZM203.429 174.176C202.789 174.176 202.192 174.056 201.637 173.816C201.088 173.571 200.627 173.224 200.253 172.776C199.885 172.328 199.659 171.792 199.573 171.168H201.013C201.147 171.696 201.424 172.125 201.845 172.456C202.267 172.781 202.779 172.944 203.381 172.944C204.064 172.944 204.648 172.765 205.133 172.408C205.624 172.051 205.989 171.499 206.229 170.752C206.469 170.005 206.56 169.048 206.501 167.88C206.368 168.285 206.157 168.643 205.869 168.952C205.581 169.256 205.235 169.496 204.829 169.672C204.424 169.848 203.976 169.936 203.485 169.936C202.723 169.936 202.051 169.787 201.469 169.488C200.888 169.189 200.435 168.763 200.109 168.208C199.789 167.653 199.629 166.989 199.629 166.216C199.629 165.443 199.789 164.76 200.109 164.168C200.429 163.576 200.888 163.112 201.485 162.776C202.083 162.44 202.792 162.272 203.613 162.272C204.509 162.272 205.285 162.504 205.941 162.968C206.597 163.427 207.104 164.088 207.461 164.952C207.819 165.811 207.997 166.843 207.997 168.048C207.997 169.344 207.819 170.448 207.461 171.36C207.109 172.272 206.592 172.971 205.909 173.456C205.232 173.936 204.405 174.176 203.429 174.176ZM203.645 168.68C204.072 168.68 204.477 168.581 204.861 168.384C205.245 168.187 205.557 167.925 205.797 167.6C206.043 167.269 206.165 166.909 206.165 166.52C206.171 165.923 206.069 165.397 205.861 164.944C205.653 164.485 205.357 164.128 204.973 163.872C204.589 163.611 204.141 163.48 203.629 163.48C203.16 163.48 202.744 163.592 202.381 163.816C202.024 164.04 201.741 164.352 201.533 164.752C201.331 165.152 201.229 165.616 201.229 166.144C201.229 166.917 201.435 167.533 201.845 167.992C202.256 168.451 202.856 168.68 203.645 168.68ZM214.038 174.176C213.323 174.176 212.662 174.051 212.054 173.8C211.446 173.549 210.923 173.2 210.486 172.752C210.054 172.304 209.736 171.789 209.534 171.208L210.814 170.672C211.006 171.109 211.246 171.499 211.534 171.84C211.827 172.181 212.174 172.448 212.574 172.64C212.974 172.832 213.427 172.928 213.934 172.928C214.755 172.928 215.414 172.691 215.91 172.216C216.411 171.736 216.662 171.085 216.662 170.264C216.662 169.752 216.544 169.307 216.31 168.928C216.075 168.544 215.758 168.245 215.358 168.032C214.963 167.819 214.526 167.712 214.046 167.712C213.731 167.712 213.438 167.741 213.166 167.8C212.894 167.853 212.624 167.96 212.358 168.12C212.091 168.28 211.811 168.523 211.518 168.848C211.486 168.864 211.462 168.872 211.446 168.872C211.43 168.867 211.403 168.856 211.366 168.84L210.118 168.448L210.638 162.432H217.542L217.502 163.712H211.902L211.606 167.448C211.99 167.091 212.408 166.837 212.862 166.688C213.32 166.533 213.816 166.456 214.35 166.456C215.048 166.456 215.691 166.6 216.278 166.888C216.87 167.171 217.344 167.592 217.702 168.152C218.059 168.707 218.238 169.395 218.238 170.216C218.238 171.016 218.064 171.712 217.718 172.304C217.371 172.896 216.883 173.357 216.254 173.688C215.624 174.013 214.886 174.176 214.038 174.176Z" fill="#ADB7BC"/>
<path d="M1.2 210V201.728H2.848V210H1.2ZM1.16 200.128V198.44H2.88V200.128H1.16ZM5.30063 210V201.728H6.97263V202.92C7.10596 202.696 7.28463 202.485 7.50863 202.288C7.73796 202.091 8.01796 201.931 8.34863 201.808C8.68463 201.685 9.07129 201.624 9.50863 201.624C10.026 201.624 10.5033 201.728 10.9406 201.936C11.3833 202.139 11.738 202.459 12.0046 202.896C12.2713 203.328 12.4046 203.888 12.4046 204.576V210H10.6926V204.76C10.6926 204.168 10.5326 203.728 10.2126 203.44C9.89796 203.152 9.48996 203.008 8.98863 203.008C8.65263 203.008 8.33263 203.064 8.02863 203.176C7.72463 203.288 7.47929 203.459 7.29263 203.688C7.10596 203.912 7.01263 204.195 7.01263 204.536V210H5.30063ZM15.4191 210V202.96H13.7311V201.728H15.4191V200.472C15.4191 199.811 15.5925 199.307 15.9391 198.96C16.2911 198.608 16.8085 198.432 17.4911 198.432H19.1471L19.1551 199.616H17.9551C17.6298 199.616 17.4058 199.704 17.2831 199.88C17.1658 200.051 17.1071 200.315 17.1071 200.672V201.728H19.0751V202.96H17.1391V210H15.4191ZM23.9895 210.16C23.2162 210.16 22.5415 209.995 21.9655 209.664C21.3895 209.328 20.9415 208.843 20.6215 208.208C20.3015 207.573 20.1415 206.805 20.1415 205.904C20.1415 205.035 20.2935 204.275 20.5975 203.624C20.9015 202.973 21.3388 202.469 21.9095 202.112C22.4855 201.749 23.1815 201.568 23.9975 201.568C24.7762 201.568 25.4508 201.739 26.0215 202.08C26.5922 202.416 27.0348 202.909 27.3495 203.56C27.6642 204.205 27.8215 204.987 27.8215 205.904C27.8215 206.741 27.6748 207.48 27.3815 208.12C27.0882 208.76 26.6562 209.261 26.0855 209.624C25.5202 209.981 24.8215 210.16 23.9895 210.16ZM23.9975 208.84C24.4722 208.84 24.8668 208.717 25.1815 208.472C25.4962 208.221 25.7335 207.872 25.8935 207.424C26.0535 206.971 26.1335 206.448 26.1335 205.856C26.1335 205.307 26.0615 204.808 25.9175 204.36C25.7788 203.907 25.5522 203.547 25.2375 203.28C24.9282 203.013 24.5148 202.88 23.9975 202.88C23.5228 202.88 23.1228 203.003 22.7975 203.248C22.4775 203.488 22.2375 203.832 22.0775 204.28C21.9175 204.723 21.8375 205.248 21.8375 205.856C21.8375 206.395 21.9095 206.891 22.0535 207.344C22.1975 207.797 22.4268 208.16 22.7415 208.432C23.0615 208.704 23.4802 208.84 23.9975 208.84ZM35.2913 211.76C34.3419 211.76 33.4939 211.608 32.7473 211.304C32.0006 211 31.3633 210.581 30.8353 210.048C30.3126 209.515 29.9153 208.896 29.6433 208.192C29.3713 207.488 29.2353 206.733 29.2353 205.928C29.2353 205.085 29.3846 204.291 29.6833 203.544C29.9819 202.792 30.4086 202.128 30.9633 201.552C31.5179 200.976 32.1819 200.523 32.9553 200.192C33.7339 199.861 34.6033 199.696 35.5633 199.696C36.2459 199.696 36.9153 199.795 37.5712 199.992C38.2326 200.184 38.8299 200.483 39.3633 200.888C39.8966 201.288 40.3206 201.805 40.6353 202.44C40.9499 203.069 41.1073 203.824 41.1073 204.704C41.1073 205.499 40.9766 206.2 40.7153 206.808C40.4539 207.411 40.0939 207.883 39.6353 208.224C39.1766 208.565 38.6539 208.736 38.0673 208.736C37.6459 208.736 37.3206 208.664 37.0913 208.52C36.8673 208.371 36.7126 208.176 36.6273 207.936C36.6006 207.872 36.5739 207.84 36.5473 207.84C36.5259 207.84 36.4913 207.869 36.4433 207.928C36.2139 208.221 35.9206 208.467 35.5633 208.664C35.2113 208.861 34.7926 208.96 34.3073 208.96C33.8966 208.96 33.5179 208.848 33.1713 208.624C32.8299 208.395 32.5553 208.075 32.3473 207.664C32.1446 207.248 32.0433 206.76 32.0433 206.2C32.0433 205.549 32.1713 204.949 32.4273 204.4C32.6833 203.851 33.0406 203.413 33.4993 203.088C33.9633 202.757 34.5019 202.592 35.1153 202.592C35.5473 202.592 35.9019 202.677 36.1793 202.848C36.4619 203.019 36.6939 203.24 36.8753 203.512C36.8913 203.533 36.9126 203.541 36.9392 203.536C36.9659 203.525 36.9819 203.499 36.9873 203.456L37.1073 202.992H38.2033L37.6113 206.512C37.5419 206.944 37.5579 207.243 37.6593 207.408C37.7659 207.568 37.9393 207.648 38.1793 207.648C38.4833 207.648 38.7686 207.539 39.0353 207.32C39.3019 207.096 39.5179 206.773 39.6833 206.352C39.8486 205.925 39.9313 205.408 39.9313 204.8C39.9313 204.053 39.8059 203.424 39.5553 202.912C39.3046 202.395 38.9659 201.979 38.5393 201.664C38.1179 201.344 37.6486 201.112 37.1313 200.968C36.6139 200.824 36.0886 200.752 35.5553 200.752C34.7073 200.752 33.9633 200.891 33.3233 201.168C32.6886 201.44 32.1553 201.816 31.7233 202.296C31.2966 202.771 30.9739 203.32 30.7553 203.944C30.5366 204.568 30.4273 205.229 30.4273 205.928C30.4273 206.627 30.5393 207.272 30.7633 207.864C30.9873 208.451 31.3153 208.96 31.7473 209.392C32.1846 209.824 32.7206 210.157 33.3553 210.392C33.9899 210.627 34.7153 210.744 35.5313 210.744C36.0113 210.744 36.4166 210.699 36.7473 210.608C37.0833 210.517 37.3819 210.397 37.6433 210.248C37.9046 210.099 38.1713 209.933 38.4433 209.752L39.0433 210.552C38.6006 210.904 38.0566 211.192 37.4113 211.416C36.7713 211.645 36.0646 211.76 35.2913 211.76ZM34.5953 207.808C34.9259 207.808 35.2273 207.712 35.4993 207.52C35.7766 207.328 36.0033 207.075 36.1793 206.76C36.3606 206.445 36.4726 206.104 36.5153 205.736C36.5633 205.309 36.5313 204.949 36.4193 204.656C36.3073 204.357 36.1419 204.131 35.9233 203.976C35.7046 203.816 35.4646 203.736 35.2033 203.736C34.8513 203.736 34.5366 203.843 34.2593 204.056C33.9873 204.269 33.7713 204.555 33.6113 204.912C33.4566 205.264 33.3793 205.659 33.3793 206.096C33.3793 206.597 33.4833 207.008 33.6913 207.328C33.8993 207.648 34.2006 207.808 34.5953 207.808ZM42.9725 210V198.112H44.6845V205.672L48.3405 201.728H50.2605L47.2685 204.92L50.4365 210H48.6605L46.1725 206.008L44.6845 207.552V210H42.9725ZM52.075 210V201.728H53.723V210H52.075ZM52.035 200.128V198.44H53.755V200.128H52.035ZM56.1756 210V201.728H57.8476V202.92C57.981 202.696 58.1596 202.485 58.3836 202.288C58.613 202.091 58.893 201.931 59.2236 201.808C59.5596 201.685 59.9463 201.624 60.3836 201.624C60.901 201.624 61.3783 201.728 61.8156 201.936C62.2583 202.139 62.613 202.459 62.8796 202.896C63.1463 203.328 63.2796 203.888 63.2796 204.576V210H61.5676V204.76C61.5676 204.168 61.4076 203.728 61.0876 203.44C60.773 203.152 60.365 203.008 59.8636 203.008C59.5276 203.008 59.2076 203.064 58.9036 203.176C58.5996 203.288 58.3543 203.459 58.1676 203.688C57.981 203.912 57.8876 204.195 57.8876 204.536V210H56.1756ZM69.7045 210.16C69.2405 210.16 68.8458 210.099 68.5205 209.976C68.1952 209.853 67.9258 209.696 67.7125 209.504C67.5045 209.312 67.3392 209.109 67.2165 208.896C67.0992 208.683 67.0085 208.485 66.9445 208.304L66.7605 210H65.4725V198.112H67.2005V202.984C67.2752 202.84 67.3845 202.685 67.5285 202.52C67.6778 202.355 67.8618 202.2 68.0805 202.056C68.3045 201.912 68.5632 201.795 68.8565 201.704C69.1498 201.613 69.4805 201.568 69.8485 201.568C70.8778 201.568 71.6938 201.931 72.2965 202.656C72.9045 203.381 73.2085 204.437 73.2085 205.824C73.2085 206.699 73.0778 207.461 72.8165 208.112C72.5552 208.757 72.1632 209.261 71.6405 209.624C71.1232 209.981 70.4778 210.16 69.7045 210.16ZM69.3685 208.872C69.9978 208.872 70.5098 208.627 70.9045 208.136C71.3045 207.645 71.5045 206.856 71.5045 205.768C71.5045 204.829 71.3178 204.112 70.9445 203.616C70.5765 203.12 70.0432 202.872 69.3445 202.872C68.8432 202.872 68.4352 202.984 68.1205 203.208C67.8058 203.427 67.5738 203.752 67.4245 204.184C67.2805 204.616 67.2058 205.144 67.2005 205.768C67.2005 206.872 67.3712 207.667 67.7125 208.152C68.0538 208.632 68.6058 208.872 69.3685 208.872ZM78.4583 210.16C77.6849 210.16 77.0103 209.995 76.4343 209.664C75.8583 209.328 75.4103 208.843 75.0903 208.208C74.7703 207.573 74.6103 206.805 74.6103 205.904C74.6103 205.035 74.7623 204.275 75.0663 203.624C75.3703 202.973 75.8076 202.469 76.3783 202.112C76.9543 201.749 77.6503 201.568 78.4663 201.568C79.2449 201.568 79.9196 201.739 80.4903 202.08C81.0609 202.416 81.5036 202.909 81.8183 203.56C82.1329 204.205 82.2903 204.987 82.2903 205.904C82.2903 206.741 82.1436 207.48 81.8503 208.12C81.5569 208.76 81.1249 209.261 80.5543 209.624C79.9889 209.981 79.2903 210.16 78.4583 210.16ZM78.4663 208.84C78.9409 208.84 79.3356 208.717 79.6503 208.472C79.9649 208.221 80.2023 207.872 80.3623 207.424C80.5223 206.971 80.6023 206.448 80.6023 205.856C80.6023 205.307 80.5303 204.808 80.3863 204.36C80.2476 203.907 80.0209 203.547 79.7063 203.28C79.3969 203.013 78.9836 202.88 78.4663 202.88C77.9916 202.88 77.5916 203.003 77.2663 203.248C76.9463 203.488 76.7063 203.832 76.5463 204.28C76.3863 204.723 76.3063 205.248 76.3063 205.856C76.3063 206.395 76.3783 206.891 76.5223 207.344C76.6663 207.797 76.8956 208.16 77.2103 208.432C77.5303 208.704 77.9489 208.84 78.4663 208.84ZM83.856 210V207.936H85.832V210H83.856ZM91.3569 210.16C90.6102 210.16 89.9462 209.997 89.3649 209.672C88.7835 209.341 88.3275 208.859 87.9969 208.224C87.6662 207.584 87.5009 206.808 87.5009 205.896C87.5009 205.037 87.6529 204.283 87.9569 203.632C88.2662 202.981 88.7089 202.475 89.2849 202.112C89.8609 201.749 90.5515 201.568 91.3569 201.568C91.9809 201.568 92.5329 201.691 93.0129 201.936C93.4929 202.176 93.8822 202.512 94.1809 202.944C94.4849 203.376 94.6689 203.88 94.7329 204.456H93.2449C93.2022 204.184 93.1009 203.931 92.9409 203.696C92.7809 203.461 92.5702 203.275 92.3089 203.136C92.0475 202.992 91.7355 202.92 91.3729 202.92C90.7062 202.92 90.1649 203.163 89.7489 203.648C89.3329 204.133 89.1249 204.877 89.1249 205.88C89.1249 206.797 89.3195 207.528 89.7089 208.072C90.0982 208.616 90.6609 208.888 91.3969 208.888C91.7595 208.888 92.0715 208.813 92.3329 208.664C92.5942 208.515 92.8022 208.323 92.9569 208.088C93.1169 207.853 93.2182 207.611 93.2609 207.36H94.7169C94.6529 207.915 94.4689 208.403 94.1649 208.824C93.8662 209.245 93.4769 209.573 92.9969 209.808C92.5169 210.043 91.9702 210.16 91.3569 210.16ZM100.021 210.16C99.2474 210.16 98.5728 209.995 97.9968 209.664C97.4208 209.328 96.9728 208.843 96.6528 208.208C96.3328 207.573 96.1728 206.805 96.1728 205.904C96.1728 205.035 96.3248 204.275 96.6288 203.624C96.9328 202.973 97.3701 202.469 97.9408 202.112C98.5168 201.749 99.2128 201.568 100.029 201.568C100.807 201.568 101.482 201.739 102.053 202.08C102.623 202.416 103.066 202.909 103.381 203.56C103.695 204.205 103.853 204.987 103.853 205.904C103.853 206.741 103.706 207.48 103.413 208.12C103.119 208.76 102.687 209.261 102.117 209.624C101.551 209.981 100.853 210.16 100.021 210.16ZM100.029 208.84C100.503 208.84 100.898 208.717 101.213 208.472C101.527 208.221 101.765 207.872 101.925 207.424C102.085 206.971 102.165 206.448 102.165 205.856C102.165 205.307 102.093 204.808 101.949 204.36C101.81 203.907 101.583 203.547 101.269 203.28C100.959 203.013 100.546 202.88 100.029 202.88C99.5541 202.88 99.1541 203.003 98.8288 203.248C98.5088 203.488 98.2688 203.832 98.1088 204.28C97.9488 204.723 97.8688 205.248 97.8688 205.856C97.8688 206.395 97.9408 206.891 98.0848 207.344C98.2288 207.797 98.4581 208.16 98.7728 208.432C99.0928 208.704 99.5114 208.84 100.029 208.84ZM105.723 210V201.728H107.387V202.92C107.621 202.557 107.941 202.243 108.347 201.976C108.752 201.704 109.275 201.568 109.915 201.568C110.213 201.568 110.515 201.619 110.819 201.72C111.128 201.821 111.411 201.973 111.667 202.176C111.928 202.373 112.133 202.619 112.283 202.912C112.544 202.517 112.893 202.195 113.331 201.944C113.768 201.693 114.259 201.568 114.803 201.568C115.096 201.568 115.4 201.616 115.715 201.712C116.029 201.803 116.32 201.96 116.587 202.184C116.859 202.403 117.077 202.707 117.243 203.096C117.413 203.485 117.499 203.979 117.499 204.576V210H115.779V204.76C115.779 204.307 115.701 203.952 115.547 203.696C115.397 203.44 115.2 203.261 114.955 203.16C114.715 203.053 114.459 203 114.187 203C113.941 203 113.685 203.048 113.418 203.144C113.152 203.24 112.925 203.4 112.739 203.624C112.552 203.848 112.459 204.152 112.459 204.536V210H110.747V204.392C110.747 204.088 110.664 203.832 110.499 203.624C110.339 203.416 110.136 203.261 109.891 203.16C109.651 203.053 109.411 203 109.171 203C108.904 203 108.637 203.053 108.371 203.16C108.104 203.267 107.88 203.435 107.699 203.664C107.523 203.888 107.435 204.179 107.435 204.536V210H105.723Z" fill="white"/>
</svg>
