<svg width="59" height="14" viewBox="0 0 59 14" fill="none" xmlns="http://www.w3.org/2000/svg">
<path d="M5.061 11.14C4.151 11.14 3.374 10.9323 2.73 10.517C2.09067 10.1017 1.60067 9.50433 1.26 8.725C0.924 7.94567 0.756 7.00533 0.756 5.904C0.756 4.80733 0.924 3.874 1.26 3.104C1.596 2.334 2.08367 1.74833 2.723 1.347C3.367 0.940999 4.14633 0.737999 5.061 0.737999C5.775 0.737999 6.40733 0.887333 6.958 1.186C7.50867 1.48 7.952 1.87433 8.288 2.369C8.624 2.86367 8.82233 3.40733 8.883 4H7.504C7.42933 3.60333 7.287 3.244 7.077 2.922C6.867 2.6 6.59167 2.34333 6.251 2.152C5.91033 1.96067 5.502 1.865 5.026 1.865C4.41467 1.865 3.89667 2.00967 3.472 2.299C3.052 2.58367 2.73233 3.02467 2.513 3.622C2.29833 4.21933 2.191 4.98467 2.191 5.918C2.191 7.32733 2.43133 8.36333 2.912 9.026C3.39733 9.684 4.102 10.013 5.026 10.013C5.502 10.013 5.91033 9.91267 6.251 9.712C6.59167 9.51133 6.867 9.243 7.077 8.907C7.287 8.571 7.42933 8.207 7.504 7.815H8.883C8.83167 8.24433 8.715 8.65967 8.533 9.061C8.35567 9.45767 8.11067 9.81233 7.798 10.125C7.48533 10.4377 7.10033 10.685 6.643 10.867C6.19033 11.049 5.663 11.14 5.061 11.14ZM13.594 11.14C12.9267 11.14 12.3433 10.9977 11.844 10.713C11.3493 10.4237 10.9643 10.0013 10.689 9.446C10.4137 8.89067 10.276 8.21167 10.276 7.409C10.276 6.653 10.4043 5.99033 10.661 5.421C10.9177 4.85167 11.2933 4.41067 11.788 4.098C12.2827 3.78067 12.887 3.622 13.601 3.622C14.2683 3.622 14.847 3.769 15.337 4.063C15.827 4.35233 16.2073 4.77933 16.478 5.344C16.7533 5.90867 16.891 6.597 16.891 7.409C16.891 8.14633 16.765 8.795 16.513 9.355C16.261 9.915 15.89 10.3537 15.4 10.671C14.9147 10.9837 14.3127 11.14 13.594 11.14ZM13.601 10.118C14.0303 10.118 14.3943 10.0083 14.693 9.789C14.9917 9.56967 15.218 9.25467 15.372 8.844C15.5307 8.43333 15.61 7.94567 15.61 7.381C15.61 6.863 15.54 6.39867 15.4 5.988C15.2647 5.57267 15.05 5.24367 14.756 5.001C14.462 4.75833 14.077 4.637 13.601 4.637C13.1623 4.637 12.7913 4.74667 12.488 4.966C12.1847 5.18067 11.9537 5.49333 11.795 5.904C11.641 6.31467 11.564 6.807 11.564 7.381C11.564 7.88967 11.6317 8.35167 11.767 8.767C11.907 9.18233 12.1263 9.51133 12.425 9.754C12.7283 9.99667 13.1203 10.118 13.601 10.118ZM18.612 11V3.762H19.858V4.812C20.0587 4.49467 20.334 4.217 20.684 3.979C21.034 3.741 21.489 3.622 22.049 3.622C22.3103 3.622 22.5763 3.66633 22.847 3.755C23.1223 3.84367 23.3743 3.97667 23.603 4.154C23.8317 4.33133 24.009 4.54833 24.135 4.805C24.359 4.45033 24.6623 4.16567 25.045 3.951C25.4277 3.73167 25.8593 3.622 26.34 3.622C26.592 3.622 26.8557 3.66167 27.131 3.741C27.4063 3.81567 27.6607 3.951 27.894 4.147C28.132 4.33833 28.3257 4.60667 28.475 4.952C28.6243 5.29267 28.699 5.73133 28.699 6.268V11H27.397V6.394C27.397 5.95533 27.327 5.617 27.187 5.379C27.047 5.13633 26.8627 4.966 26.634 4.868C26.41 4.77 26.1697 4.721 25.913 4.721C25.689 4.721 25.451 4.76533 25.199 4.854C24.947 4.94267 24.7323 5.092 24.555 5.302C24.3777 5.512 24.289 5.799 24.289 6.163V11H23.001V6.016C23.001 5.73133 22.924 5.49333 22.77 5.302C22.6207 5.11067 22.4317 4.966 22.203 4.868C21.979 4.77 21.755 4.721 21.531 4.721C21.2837 4.721 21.034 4.77 20.782 4.868C20.5347 4.966 20.3247 5.12233 20.152 5.337C19.984 5.547 19.9 5.82233 19.9 6.163V11H18.612ZM30.7253 13.254V3.762H32.0133L32.0273 5.022C32.1113 4.87267 32.2186 4.71633 32.3493 4.553C32.4846 4.38967 32.648 4.238 32.8393 4.098C33.0353 3.958 33.2616 3.84367 33.5183 3.755C33.7796 3.66633 34.076 3.622 34.4073 3.622C34.986 3.622 35.4946 3.755 35.9333 4.021C36.3766 4.28233 36.722 4.68367 36.9693 5.225C37.2166 5.76633 37.3403 6.45233 37.3403 7.283C37.3403 8.11367 37.219 8.816 36.9763 9.39C36.7383 9.95933 36.393 10.3933 35.9403 10.692C35.4876 10.9907 34.9416 11.14 34.3023 11.14C33.9803 11.14 33.6933 11.0933 33.4413 11C33.194 10.9113 32.977 10.7947 32.7903 10.65C32.6083 10.5007 32.4543 10.342 32.3283 10.174C32.207 10.006 32.1066 9.845 32.0273 9.691V13.254H30.7253ZM34.0573 10.132C34.6546 10.132 35.1423 9.90567 35.5203 9.453C35.8983 8.99567 36.0873 8.28633 36.0873 7.325C36.0873 6.499 35.9146 5.84333 35.5693 5.358C35.224 4.87267 34.72 4.63 34.0573 4.63C33.3853 4.63 32.8766 4.87967 32.5313 5.379C32.186 5.87367 32.0133 6.52233 32.0133 7.325C32.0133 7.843 32.0903 8.31433 32.2443 8.739C32.3983 9.16367 32.627 9.502 32.9303 9.754C33.2336 10.006 33.6093 10.132 34.0573 10.132ZM41.0131 11.14C40.5418 11.14 40.1264 11.0583 39.7671 10.895C39.4124 10.727 39.1324 10.4867 38.9271 10.174C38.7264 9.86133 38.6261 9.48333 38.6261 9.04C38.6261 8.23733 38.9061 7.64 39.4661 7.248C40.0261 6.856 40.9244 6.646 42.1611 6.618L43.4491 6.583V6.016C43.4491 5.57267 43.3161 5.22267 43.0501 4.966C42.7841 4.70467 42.3734 4.574 41.8181 4.574C41.4028 4.57867 41.0364 4.67667 40.7191 4.868C40.4018 5.05933 40.1988 5.372 40.1101 5.806H38.9691C38.9971 5.33467 39.1278 4.938 39.3611 4.616C39.5991 4.28933 39.9328 4.042 40.3621 3.874C40.7914 3.706 41.2978 3.622 41.8811 3.622C42.5111 3.622 43.0338 3.71067 43.4491 3.888C43.8691 4.06533 44.1818 4.32667 44.3871 4.672C44.5971 5.01733 44.7021 5.442 44.7021 5.946V11H43.5961L43.4981 9.642C43.2228 10.2067 42.8681 10.5987 42.4341 10.818C42.0048 11.0327 41.5311 11.14 41.0131 11.14ZM41.3981 10.209C41.6454 10.209 41.8881 10.1647 42.1261 10.076C42.3688 9.98733 42.5881 9.86833 42.7841 9.719C42.9848 9.565 43.1458 9.39467 43.2671 9.208C43.3884 9.01667 43.4491 8.82067 43.4491 8.62V7.381L42.3781 7.402C41.8228 7.41133 41.3608 7.46733 40.9921 7.57C40.6234 7.67267 40.3458 7.83367 40.1591 8.053C39.9724 8.27233 39.8791 8.55933 39.8791 8.914C39.8791 9.32 40.0214 9.63733 40.3061 9.866C40.5908 10.0947 40.9548 10.209 41.3981 10.209ZM46.7214 11V3.762H47.9534V5.155C48.0747 4.80967 48.2451 4.525 48.4644 4.301C48.6837 4.07233 48.9334 3.902 49.2134 3.79C49.4981 3.678 49.7921 3.622 50.0954 3.622C50.2027 3.622 50.3077 3.629 50.4104 3.643C50.5131 3.657 50.5924 3.68033 50.6484 3.713V4.966C50.5784 4.93333 50.4874 4.91233 50.3754 4.903C50.2681 4.889 50.1771 4.882 50.1024 4.882C49.8131 4.86333 49.5424 4.882 49.2904 4.938C49.0384 4.98933 48.8167 5.08033 48.6254 5.211C48.4341 5.34167 48.2824 5.51433 48.1704 5.729C48.0631 5.939 48.0094 6.19567 48.0094 6.499V11H46.7214ZM55.1398 11.14C54.4678 11.14 53.8751 10.993 53.3618 10.699C52.8484 10.405 52.4471 9.98267 52.1578 9.432C51.8684 8.88133 51.7238 8.221 51.7238 7.451C51.7238 6.69033 51.8544 6.023 52.1158 5.449C52.3771 4.875 52.7551 4.427 53.2498 4.105C53.7491 3.783 54.3488 3.622 55.0488 3.622C55.7301 3.622 56.3064 3.769 56.7778 4.063C57.2491 4.357 57.6061 4.77233 57.8488 5.309C58.0961 5.841 58.2198 6.47333 58.2198 7.206V7.682H53.0328C53.0328 8.13933 53.1074 8.55467 53.2568 8.928C53.4108 9.29667 53.6418 9.59067 53.9498 9.81C54.2578 10.0293 54.6474 10.139 55.1188 10.139C55.5808 10.139 55.9774 10.0317 56.3088 9.817C56.6448 9.60233 56.8594 9.292 56.9528 8.886H58.1708C58.0868 9.376 57.8908 9.789 57.5828 10.125C57.2794 10.461 56.9131 10.7153 56.4838 10.888C56.0591 11.056 55.6111 11.14 55.1398 11.14ZM53.0398 6.807H56.9738C56.9738 6.39167 56.9038 6.01833 56.7638 5.687C56.6238 5.351 56.4091 5.08733 56.1198 4.896C55.8351 4.7 55.4758 4.602 55.0418 4.602C54.5891 4.602 54.2134 4.71167 53.9148 4.931C53.6161 5.14567 53.3944 5.42333 53.2498 5.764C53.1051 6.1 53.0351 6.44767 53.0398 6.807Z" fill="#5F6C72"/>
</svg>
