<svg width="276" height="152" viewBox="0 0 276 152" fill="none" xmlns="http://www.w3.org/2000/svg">
<path d="M45.3164 4.738C46.0584 4.738 46.7164 4.88967 47.2904 5.193C47.8644 5.49167 48.3264 5.89767 48.6764 6.411C49.0311 6.92433 49.2411 7.496 49.3064 8.126H47.5074C47.4374 7.75267 47.3067 7.419 47.1154 7.125C46.9287 6.831 46.6814 6.59767 46.3734 6.425C46.0654 6.25233 45.6967 6.166 45.2674 6.166C44.7307 6.166 44.2734 6.29433 43.8954 6.551C43.5221 6.803 43.2351 7.20433 43.0344 7.755C42.8384 8.30567 42.7404 9.01967 42.7404 9.897C42.7404 11.227 42.9597 12.1953 43.3984 12.802C43.8371 13.4087 44.4601 13.712 45.2674 13.712C45.6967 13.712 46.0654 13.6187 46.3734 13.432C46.6814 13.2407 46.9287 12.9887 47.1154 12.676C47.3067 12.3587 47.4374 12.0133 47.5074 11.64H49.3064C49.2504 12.0973 49.1337 12.536 48.9564 12.956C48.7837 13.376 48.5387 13.7517 48.2214 14.083C47.9041 14.4097 47.5051 14.6687 47.0244 14.86C46.5484 15.0467 45.9791 15.14 45.3164 15.14C44.3877 15.14 43.5897 14.9277 42.9224 14.503C42.2597 14.0737 41.7487 13.467 41.3894 12.683C41.0347 11.8943 40.8574 10.9587 40.8574 9.876C40.8574 8.798 41.0347 7.87633 41.3894 7.111C41.7441 6.34567 42.2527 5.76 42.9154 5.354C43.5827 4.94333 44.3831 4.738 45.3164 4.738ZM55.2648 15.14C54.3315 15.14 53.5241 14.9347 52.8428 14.524C52.1661 14.1133 51.6411 13.5207 51.2678 12.746C50.8991 11.9713 50.7148 11.0427 50.7148 9.96C50.7148 8.868 50.9015 7.93233 51.2748 7.153C51.6481 6.37367 52.1755 5.77633 52.8568 5.361C53.5428 4.94567 54.3455 4.738 55.2648 4.738C56.1841 4.738 56.9798 4.94567 57.6518 5.361C58.3285 5.77633 58.8511 6.37367 59.2198 7.153C59.5885 7.93233 59.7728 8.868 59.7728 9.96C59.7728 11.0427 59.5908 11.9713 59.2268 12.746C58.8628 13.516 58.3425 14.1087 57.6658 14.524C56.9891 14.9347 56.1888 15.14 55.2648 15.14ZM55.2648 13.712C55.8155 13.712 56.2891 13.5837 56.6858 13.327C57.0825 13.0657 57.3858 12.662 57.5958 12.116C57.8105 11.5653 57.9178 10.8537 57.9178 9.981C57.9178 9.09433 57.8105 8.371 57.5958 7.811C57.3811 7.24633 57.0755 6.831 56.6788 6.565C56.2821 6.299 55.8108 6.166 55.2648 6.166C54.7141 6.166 54.2381 6.30133 53.8368 6.572C53.4401 6.838 53.1321 7.25333 52.9128 7.818C52.6935 8.378 52.5838 9.099 52.5838 9.981C52.5838 10.8537 52.6935 11.5653 52.9128 12.116C53.1321 12.662 53.4401 13.0657 53.8368 13.327C54.2381 13.5837 54.7141 13.712 55.2648 13.712ZM61.7055 15V4.878H64.1415L66.7945 12.613L69.4755 4.878H71.8975V15H70.1685V7.062L67.5015 15H66.0805L63.4345 7.111V15H61.7055ZM74.352 15V4.878H77.943C78.671 4.878 79.322 5.004 79.896 5.256C80.4746 5.50333 80.9296 5.86967 81.261 6.355C81.5923 6.84033 81.758 7.43767 81.758 8.147C81.758 8.81433 81.6063 9.386 81.303 9.862C81.0043 10.338 80.5866 10.702 80.05 10.954C79.5133 11.206 78.8856 11.332 78.167 11.332H76.081V15H74.352ZM76.067 9.967H78.125C78.7176 9.967 79.2006 9.78967 79.574 9.435C79.952 9.08033 80.141 8.61833 80.141 8.049C80.141 7.47033 79.945 7.02233 79.553 6.705C79.161 6.383 78.6686 6.222 78.076 6.222H76.067V9.967ZM91.1594 11.304C91.1594 12.1067 91.0287 12.795 90.7674 13.369C90.5061 13.9383 90.0884 14.377 89.5144 14.685C88.9451 14.9883 88.1937 15.14 87.2604 15.14C86.3271 15.14 85.5734 14.986 84.9994 14.678C84.4301 14.3653 84.0171 13.9173 83.7604 13.334C83.5037 12.746 83.3754 12.0367 83.3754 11.206V4.878H85.1184V11.381C85.1184 12.165 85.3097 12.7437 85.6924 13.117C86.0797 13.4903 86.6024 13.677 87.2604 13.677C87.7037 13.677 88.0887 13.5953 88.4154 13.432C88.7421 13.2687 88.9941 13.019 89.1714 12.683C89.3487 12.3423 89.4374 11.9083 89.4374 11.381V4.878H91.1594V11.304ZM92.4385 6.411V4.878H100.335V6.411H97.2965V15H95.5885V6.411H92.4385ZM101.86 15V4.878H108.552L108.545 6.341H103.575V9.176H107.964V10.618H103.561V13.516L108.65 13.523V15H101.86ZM118.362 15H116.584L114.841 10.891H112.489V15H110.788V4.878H114.897C115.671 4.878 116.308 4.99933 116.808 5.242C117.312 5.48 117.685 5.81833 117.928 6.257C118.17 6.691 118.292 7.19967 118.292 7.783C118.292 8.32433 118.203 8.77933 118.026 9.148C117.848 9.512 117.617 9.81067 117.333 10.044C117.053 10.2727 116.752 10.4593 116.43 10.604L118.362 15ZM114.512 9.54C115.156 9.54 115.657 9.39067 116.017 9.092C116.381 8.79333 116.562 8.378 116.562 7.846C116.562 7.32333 116.395 6.91967 116.059 6.635C115.723 6.35033 115.279 6.208 114.729 6.208H112.489V9.54H114.512ZM126.961 4.724C127.502 4.724 127.994 4.815 128.438 4.997C128.886 5.179 129.243 5.43333 129.509 5.76C129.775 6.08667 129.908 6.46933 129.908 6.908C129.908 7.10867 129.866 7.31867 129.782 7.538C129.702 7.75733 129.572 7.98133 129.39 8.21C129.212 8.43867 128.977 8.672 128.683 8.91C128.389 9.148 128.027 9.386 127.598 9.624L129.474 11.815C129.548 11.6843 129.639 11.5 129.747 11.262C129.859 11.0193 129.964 10.7393 130.062 10.422C130.16 10.1 130.223 9.75467 130.251 9.386H131.973C131.879 9.82933 131.739 10.2493 131.553 10.646C131.371 11.0427 131.168 11.4207 130.944 11.78C130.724 12.1393 130.507 12.4847 130.293 12.816L132.162 15H130.195L129.278 13.95C128.75 14.356 128.209 14.6453 127.654 14.818C127.103 14.986 126.573 15.07 126.065 15.07C125.36 15.07 124.772 14.9603 124.301 14.741C123.834 14.517 123.484 14.209 123.251 13.817C123.017 13.425 122.901 12.9723 122.901 12.459C122.901 12.0063 122.992 11.6027 123.174 11.248C123.356 10.8887 123.631 10.5573 124 10.254C124.368 9.95067 124.83 9.652 125.386 9.358C125.134 9.08733 124.914 8.83067 124.728 8.588C124.546 8.34533 124.403 8.10033 124.301 7.853C124.198 7.601 124.147 7.32567 124.147 7.027C124.147 6.593 124.266 6.20333 124.504 5.858C124.742 5.508 125.071 5.23267 125.491 5.032C125.915 4.82667 126.405 4.724 126.961 4.724ZM127.038 5.809C126.655 5.81367 126.359 5.92567 126.149 6.145C125.943 6.35967 125.841 6.61633 125.841 6.915C125.841 7.10167 125.88 7.29067 125.96 7.482C126.039 7.66867 126.137 7.846 126.254 8.014C126.375 8.17733 126.492 8.322 126.604 8.448L126.877 8.735C127.283 8.49233 127.595 8.273 127.815 8.077C128.034 7.87633 128.186 7.68733 128.27 7.51C128.354 7.328 128.396 7.146 128.396 6.964C128.396 6.68867 128.33 6.46467 128.2 6.292C128.069 6.11933 127.899 5.99567 127.689 5.921C127.483 5.84167 127.266 5.80433 127.038 5.809ZM126.226 10.352C125.801 10.59 125.446 10.8793 125.162 11.22C124.877 11.5607 124.756 11.948 124.798 12.382C124.821 12.6667 124.914 12.9117 125.078 13.117C125.241 13.3223 125.444 13.4787 125.687 13.586C125.934 13.6933 126.193 13.747 126.464 13.747C126.79 13.747 127.133 13.6747 127.493 13.53C127.857 13.3853 128.174 13.1847 128.445 12.928L126.226 10.352ZM136.316 15L139.956 4.878H141.797L145.43 15H143.722L142.819 12.459H138.955L138.031 15H136.316ZM139.347 10.947H142.399L140.88 6.537L139.347 10.947ZM150.576 4.738C151.318 4.738 151.976 4.88967 152.55 5.193C153.124 5.49167 153.586 5.89767 153.936 6.411C154.291 6.92433 154.501 7.496 154.566 8.126H152.767C152.697 7.75267 152.566 7.419 152.375 7.125C152.188 6.831 151.941 6.59767 151.633 6.425C151.325 6.25233 150.956 6.166 150.527 6.166C149.99 6.166 149.533 6.29433 149.155 6.551C148.782 6.803 148.495 7.20433 148.294 7.755C148.098 8.30567 148 9.01967 148 9.897C148 11.227 148.219 12.1953 148.658 12.802C149.097 13.4087 149.72 13.712 150.527 13.712C150.956 13.712 151.325 13.6187 151.633 13.432C151.941 13.2407 152.188 12.9887 152.375 12.676C152.566 12.3587 152.697 12.0133 152.767 11.64H154.566C154.51 12.0973 154.393 12.536 154.216 12.956C154.043 13.376 153.798 13.7517 153.481 14.083C153.164 14.4097 152.765 14.6687 152.284 14.86C151.808 15.0467 151.239 15.14 150.576 15.14C149.647 15.14 148.849 14.9277 148.182 14.503C147.519 14.0737 147.008 13.467 146.649 12.683C146.294 11.8943 146.117 10.9587 146.117 9.876C146.117 8.798 146.294 7.87633 146.649 7.111C147.004 6.34567 147.512 5.76 148.175 5.354C148.842 4.94333 149.643 4.738 150.576 4.738ZM160.434 4.738C161.176 4.738 161.834 4.88967 162.408 5.193C162.982 5.49167 163.444 5.89767 163.794 6.411C164.148 6.92433 164.358 7.496 164.424 8.126H162.625C162.555 7.75267 162.424 7.419 162.233 7.125C162.046 6.831 161.799 6.59767 161.491 6.425C161.183 6.25233 160.814 6.166 160.385 6.166C159.848 6.166 159.391 6.29433 159.013 6.551C158.639 6.803 158.352 7.20433 158.152 7.755C157.956 8.30567 157.858 9.01967 157.858 9.897C157.858 11.227 158.077 12.1953 158.516 12.802C158.954 13.4087 159.577 13.712 160.385 13.712C160.814 13.712 161.183 13.6187 161.491 13.432C161.799 13.2407 162.046 12.9887 162.233 12.676C162.424 12.3587 162.555 12.0133 162.625 11.64H164.424C164.368 12.0973 164.251 12.536 164.074 12.956C163.901 13.376 163.656 13.7517 163.339 14.083C163.021 14.4097 162.622 14.6687 162.142 14.86C161.666 15.0467 161.096 15.14 160.434 15.14C159.505 15.14 158.707 14.9277 158.04 14.503C157.377 14.0737 156.866 13.467 156.507 12.683C156.152 11.8943 155.975 10.9587 155.975 9.876C155.975 8.798 156.152 7.87633 156.507 7.111C156.861 6.34567 157.37 5.76 158.033 5.354C158.7 4.94333 159.5 4.738 160.434 4.738ZM166.35 15V4.878H173.042L173.035 6.341H168.065V9.176H172.454V10.618H168.051V13.516L173.14 13.523V15H166.35ZM178.863 15.14C178.373 15.14 177.895 15.0793 177.428 14.958C176.961 14.832 176.537 14.6477 176.154 14.405C175.776 14.1577 175.461 13.852 175.209 13.488C174.957 13.1193 174.803 12.69 174.747 12.2H176.511C176.586 12.5407 176.733 12.8277 176.952 13.061C177.171 13.2943 177.444 13.4717 177.771 13.593C178.102 13.7143 178.464 13.775 178.856 13.775C179.276 13.775 179.654 13.719 179.99 13.607C180.331 13.495 180.599 13.3317 180.795 13.117C180.996 12.9023 181.096 12.6387 181.096 12.326C181.096 12.0507 181.024 11.8173 180.879 11.626C180.734 11.4347 180.531 11.2783 180.27 11.157C180.013 11.031 179.712 10.9307 179.367 10.856L177.505 10.45C176.754 10.296 176.159 9.99733 175.72 9.554C175.281 9.11067 175.057 8.52033 175.048 7.783C175.043 7.17167 175.204 6.63967 175.531 6.187C175.862 5.72967 176.313 5.37733 176.882 5.13C177.451 4.878 178.095 4.752 178.814 4.752C179.654 4.752 180.361 4.88967 180.935 5.165C181.514 5.43567 181.95 5.79967 182.244 6.257C182.543 6.71433 182.694 7.216 182.699 7.762H180.977C180.935 7.36067 180.814 7.041 180.613 6.803C180.417 6.565 180.165 6.39467 179.857 6.292C179.549 6.18933 179.208 6.138 178.835 6.138C178.555 6.138 178.294 6.17067 178.051 6.236C177.808 6.30133 177.596 6.397 177.414 6.523C177.232 6.649 177.09 6.803 176.987 6.985C176.889 7.16233 176.84 7.36533 176.84 7.594C176.84 7.92067 176.947 8.18667 177.162 8.392C177.381 8.59267 177.79 8.763 178.387 8.903L180.207 9.309C180.772 9.421 181.227 9.589 181.572 9.813C181.917 10.037 182.181 10.2937 182.363 10.583C182.545 10.8677 182.666 11.1593 182.727 11.458C182.788 11.7567 182.818 12.0413 182.818 12.312C182.818 12.8393 182.655 13.3177 182.328 13.747C182.006 14.1763 181.549 14.517 180.956 14.769C180.368 15.0163 179.67 15.14 178.863 15.14ZM188.556 15.14C188.066 15.14 187.588 15.0793 187.121 14.958C186.655 14.832 186.23 14.6477 185.847 14.405C185.469 14.1577 185.154 13.852 184.902 13.488C184.65 13.1193 184.496 12.69 184.44 12.2H186.204C186.279 12.5407 186.426 12.8277 186.645 13.061C186.865 13.2943 187.138 13.4717 187.464 13.593C187.796 13.7143 188.157 13.775 188.549 13.775C188.969 13.775 189.347 13.719 189.683 13.607C190.024 13.495 190.292 13.3317 190.488 13.117C190.689 12.9023 190.789 12.6387 190.789 12.326C190.789 12.0507 190.717 11.8173 190.572 11.626C190.428 11.4347 190.225 11.2783 189.963 11.157C189.707 11.031 189.406 10.9307 189.06 10.856L187.198 10.45C186.447 10.296 185.852 9.99733 185.413 9.554C184.975 9.11067 184.751 8.52033 184.741 7.783C184.737 7.17167 184.898 6.63967 185.224 6.187C185.556 5.72967 186.006 5.37733 186.575 5.13C187.145 4.878 187.789 4.752 188.507 4.752C189.347 4.752 190.054 4.88967 190.628 5.165C191.207 5.43567 191.643 5.79967 191.937 6.257C192.236 6.71433 192.388 7.216 192.392 7.762H190.67C190.628 7.36067 190.507 7.041 190.306 6.803C190.11 6.565 189.858 6.39467 189.55 6.292C189.242 6.18933 188.902 6.138 188.528 6.138C188.248 6.138 187.987 6.17067 187.744 6.236C187.502 6.30133 187.289 6.397 187.107 6.523C186.925 6.649 186.783 6.803 186.68 6.985C186.582 7.16233 186.533 7.36533 186.533 7.594C186.533 7.92067 186.641 8.18667 186.855 8.392C187.075 8.59267 187.483 8.763 188.08 8.903L189.9 9.309C190.465 9.421 190.92 9.589 191.265 9.813C191.611 10.037 191.874 10.2937 192.056 10.583C192.238 10.8677 192.36 11.1593 192.42 11.458C192.481 11.7567 192.511 12.0413 192.511 12.312C192.511 12.8393 192.348 13.3177 192.021 13.747C191.699 14.1763 191.242 14.517 190.649 14.769C190.061 15.0163 189.364 15.14 188.556 15.14ZM198.409 15.14C197.476 15.14 196.669 14.9347 195.987 14.524C195.311 14.1133 194.786 13.5207 194.412 12.746C194.044 11.9713 193.859 11.0427 193.859 9.96C193.859 8.868 194.046 7.93233 194.419 7.153C194.793 6.37367 195.32 5.77633 196.001 5.361C196.687 4.94567 197.49 4.738 198.409 4.738C199.329 4.738 200.124 4.94567 200.796 5.361C201.473 5.77633 201.996 6.37367 202.364 7.153C202.733 7.93233 202.917 8.868 202.917 9.96C202.917 11.0427 202.735 11.9713 202.371 12.746C202.007 13.516 201.487 14.1087 200.81 14.524C200.134 14.9347 199.333 15.14 198.409 15.14ZM198.409 13.712C198.96 13.712 199.434 13.5837 199.83 13.327C200.227 13.0657 200.53 12.662 200.74 12.116C200.955 11.5653 201.062 10.8537 201.062 9.981C201.062 9.09433 200.955 8.371 200.74 7.811C200.526 7.24633 200.22 6.831 199.823 6.565C199.427 6.299 198.955 6.166 198.409 6.166C197.859 6.166 197.383 6.30133 196.981 6.572C196.585 6.838 196.277 7.25333 196.057 7.818C195.838 8.378 195.728 9.099 195.728 9.981C195.728 10.8537 195.838 11.5653 196.057 12.116C196.277 12.662 196.585 13.0657 196.981 13.327C197.383 13.5837 197.859 13.712 198.409 13.712ZM212.424 15H210.646L208.903 10.891H206.551V15H204.85V4.878H208.959C209.734 4.878 210.371 4.99933 210.87 5.242C211.374 5.48 211.747 5.81833 211.99 6.257C212.233 6.691 212.354 7.19967 212.354 7.783C212.354 8.32433 212.265 8.77933 212.088 9.148C211.911 9.512 211.68 9.81067 211.395 10.044C211.115 10.2727 210.814 10.4593 210.492 10.604L212.424 15ZM208.574 9.54C209.218 9.54 209.72 9.39067 210.079 9.092C210.443 8.79333 210.625 8.378 210.625 7.846C210.625 7.32333 210.457 6.91967 210.121 6.635C209.785 6.35033 209.342 6.208 208.791 6.208H206.551V9.54H208.574ZM214.461 4.878H216.162V15H214.461V4.878ZM218.618 15V4.878H225.31L225.303 6.341H220.333V9.176H224.722V10.618H220.319V13.516L225.408 13.523V15H218.618ZM231.131 15.14C230.641 15.14 230.162 15.0793 229.696 14.958C229.229 14.832 228.804 14.6477 228.422 14.405C228.044 14.1577 227.729 13.852 227.477 13.488C227.225 13.1193 227.071 12.69 227.015 12.2H228.779C228.853 12.5407 229 12.8277 229.22 13.061C229.439 13.2943 229.712 13.4717 230.039 13.593C230.37 13.7143 230.732 13.775 231.124 13.775C231.544 13.775 231.922 13.719 232.258 13.607C232.598 13.495 232.867 13.3317 233.063 13.117C233.263 12.9023 233.364 12.6387 233.364 12.326C233.364 12.0507 233.291 11.8173 233.147 11.626C233.002 11.4347 232.799 11.2783 232.538 11.157C232.281 11.031 231.98 10.9307 231.635 10.856L229.773 10.45C229.021 10.296 228.426 9.99733 227.988 9.554C227.549 9.11067 227.325 8.52033 227.316 7.783C227.311 7.17167 227.472 6.63967 227.799 6.187C228.13 5.72967 228.58 5.37733 229.15 5.13C229.719 4.878 230.363 4.752 231.082 4.752C231.922 4.752 232.629 4.88967 233.203 5.165C233.781 5.43567 234.218 5.79967 234.512 6.257C234.81 6.71433 234.962 7.216 234.967 7.762H233.245C233.203 7.36067 233.081 7.041 232.881 6.803C232.685 6.565 232.433 6.39467 232.125 6.292C231.817 6.18933 231.476 6.138 231.103 6.138C230.823 6.138 230.561 6.17067 230.319 6.236C230.076 6.30133 229.864 6.397 229.682 6.523C229.5 6.649 229.357 6.803 229.255 6.985C229.157 7.16233 229.108 7.36533 229.108 7.594C229.108 7.92067 229.215 8.18667 229.43 8.392C229.649 8.59267 230.057 8.763 230.655 8.903L232.475 9.309C233.039 9.421 233.494 9.589 233.84 9.813C234.185 10.037 234.449 10.2937 234.631 10.583C234.813 10.8677 234.934 11.1593 234.995 11.458C235.055 11.7567 235.086 12.0413 235.086 12.312C235.086 12.8393 234.922 13.3177 234.596 13.747C234.274 14.1763 233.816 14.517 233.224 14.769C232.636 15.0163 231.938 15.14 231.131 15.14Z" fill="#BE4646"/>
<path d="M34.6175 43.808C34.6175 42.2293 34.9962 40.9013 35.7535 39.824C36.5108 38.736 37.5242 37.92 38.7935 37.376C40.0735 36.8213 41.4922 36.544 43.0495 36.544C44.7242 36.544 46.2068 36.7733 47.4975 37.232C48.7988 37.68 49.8175 38.3573 50.5535 39.264C51.3002 40.1707 51.6735 41.296 51.6735 42.64C51.6735 43.7813 51.3268 44.8 50.6335 45.696C49.9402 46.592 48.8468 47.296 47.3535 47.808C48.2815 48.064 49.1135 48.448 49.8495 48.96C50.5855 49.4613 51.1668 50.0907 51.5935 50.848C52.0308 51.6053 52.2495 52.496 52.2495 53.52C52.2495 54.6187 52.0095 55.5947 51.5295 56.448C51.0602 57.3013 50.3988 58.0213 49.5455 58.608C48.7028 59.184 47.7162 59.6213 46.5855 59.92C45.4548 60.208 44.2388 60.352 42.9375 60.352C41.1988 60.3413 39.7002 60.0427 38.4415 59.456C37.1828 58.8693 36.2015 58.032 35.4975 56.944C34.8042 55.856 34.4415 54.5653 34.4095 53.072H38.2015C38.4255 54.448 38.9695 55.472 39.8335 56.144C40.7082 56.8053 41.7695 57.136 43.0175 57.136C44.0522 57.136 44.9482 56.9813 45.7055 56.672C46.4628 56.352 47.0442 55.9147 47.4495 55.36C47.8655 54.8053 48.0735 54.16 48.0735 53.424C48.0735 52.6453 47.8495 51.9787 47.4015 51.424C46.9642 50.8693 46.3615 50.4427 45.5935 50.144C44.8255 49.8453 43.9615 49.6853 43.0015 49.664L40.8575 49.6V46.432L42.8415 46.352C43.7588 46.32 44.5642 46.144 45.2575 45.824C45.9615 45.504 46.5108 45.0827 46.9055 44.56C47.3002 44.0373 47.4975 43.4507 47.4975 42.8C47.4975 42.2027 47.3108 41.664 46.9375 41.184C46.5748 40.704 46.0575 40.3307 45.3855 40.064C44.7135 39.7867 43.9188 39.648 43.0015 39.648C42.2228 39.648 41.4922 39.7867 40.8095 40.064C40.1268 40.3413 39.5615 40.7893 39.1135 41.408C38.6762 42.016 38.4362 42.816 38.3935 43.808H34.6175ZM55.6068 60V57.92V56.848C55.6068 55.664 55.8254 54.6453 56.2628 53.792C56.7001 52.928 57.2814 52.176 58.0068 51.536C58.7321 50.896 59.5268 50.3307 60.3908 49.84C61.2654 49.3387 62.1294 48.8693 62.9828 48.432C63.8468 47.984 64.6414 47.5253 65.3668 47.056C66.0921 46.576 66.6734 46.0427 67.1108 45.456C67.5588 44.8693 67.7828 44.1707 67.7828 43.36C67.7828 42.3253 67.4148 41.4827 66.6788 40.832C65.9534 40.1707 64.9668 39.84 63.7188 39.84C62.3961 39.84 61.3028 40.2187 60.4388 40.976C59.5854 41.7333 59.0788 42.8 58.9188 44.176H55.1428C55.1641 42.768 55.5001 41.488 56.1508 40.336C56.8014 39.184 57.7668 38.2667 59.0468 37.584C60.3268 36.8907 61.9214 36.544 63.8308 36.544C65.4841 36.544 66.9081 36.832 68.1028 37.408C69.3081 37.9733 70.2361 38.768 70.8868 39.792C71.5481 40.8053 71.8788 41.9893 71.8788 43.344C71.8788 44.528 71.6601 45.5413 71.2228 46.384C70.7961 47.2267 70.2254 47.9573 69.5108 48.576C68.8068 49.184 68.0281 49.7227 67.1748 50.192C66.3321 50.6613 65.4841 51.104 64.6308 51.52C63.7881 51.9253 63.0094 52.352 62.2948 52.8C61.5908 53.2373 61.0201 53.7387 60.5828 54.304C60.1561 54.8693 59.9428 55.5467 59.9428 56.336V56.672H71.9268V60H55.6068ZM80.7488 36.512C81.8154 36.512 82.7754 36.8 83.6288 37.376C84.4821 37.9413 85.1541 38.72 85.6448 39.712C86.1354 40.704 86.3808 41.8453 86.3808 43.136C86.3808 44.416 86.1354 45.5467 85.6448 46.528C85.1648 47.5093 84.4981 48.2827 83.6448 48.848C82.7914 49.4027 81.8261 49.68 80.7488 49.68C79.6608 49.68 78.6848 49.4027 77.8208 48.848C76.9674 48.2827 76.2901 47.5093 75.7888 46.528C75.2981 45.5467 75.0528 44.416 75.0528 43.136C75.0528 41.8453 75.3034 40.704 75.8048 39.712C76.3061 38.72 76.9834 37.9413 77.8368 37.376C78.7008 36.8 79.6714 36.512 80.7488 36.512ZM80.7168 47.616C81.6341 47.616 82.3221 47.216 82.7808 46.416C83.2394 45.6053 83.4688 44.512 83.4688 43.136C83.4688 41.728 83.2341 40.6133 82.7648 39.792C82.3061 38.96 81.6234 38.544 80.7168 38.544C80.1194 38.544 79.6128 38.736 79.1968 39.12C78.7914 39.4933 78.4821 40.0267 78.2688 40.72C78.0554 41.4027 77.9488 42.208 77.9488 43.136C77.9488 44.5013 78.1834 45.5893 78.6528 46.4C79.1221 47.2107 79.8101 47.616 80.7168 47.616ZM95.6128 47.12C96.6901 47.12 97.6554 47.408 98.5088 47.984C99.3621 48.56 100.034 49.3493 100.525 50.352C101.015 51.344 101.261 52.4747 101.261 53.744C101.261 55.0347 101.015 56.176 100.525 57.168C100.045 58.1493 99.3781 58.9227 98.5248 59.488C97.6714 60.0427 96.7008 60.32 95.6128 60.32C94.5248 60.32 93.5488 60.0427 92.6848 59.488C91.8208 58.9227 91.1434 58.1493 90.6528 57.168C90.1621 56.176 89.9167 55.0347 89.9167 53.744C89.9167 52.4747 90.1621 51.344 90.6528 50.352C91.1541 49.3493 91.8368 48.56 92.7008 47.984C93.5648 47.408 94.5354 47.12 95.6128 47.12ZM95.5808 58.24C96.1781 58.24 96.6794 58.0533 97.0848 57.68C97.5008 57.3067 97.8101 56.7893 98.0128 56.128C98.2261 55.456 98.3328 54.672 98.3328 53.776C98.3328 52.8587 98.2261 52.0587 98.0128 51.376C97.7994 50.6827 97.4848 50.144 97.0688 49.76C96.6634 49.376 96.1674 49.184 95.5808 49.184C94.9941 49.184 94.4981 49.3813 94.0928 49.776C93.6874 50.16 93.3728 50.6987 93.1488 51.392C92.9354 52.0747 92.8288 52.8693 92.8288 53.776C92.8288 54.672 92.9354 55.456 93.1488 56.128C93.3621 56.7893 93.6714 57.3067 94.0768 57.68C94.4821 58.0533 94.9834 58.24 95.5808 58.24ZM96.9408 36.608L81.3888 60.128L78.9728 60.096L94.5888 36.608H96.9408ZM112.863 36.864C112.959 36.864 113.241 36.864 113.711 36.864C114.18 36.864 114.735 36.864 115.375 36.864C116.025 36.864 116.681 36.8693 117.343 36.88C118.015 36.88 118.596 36.8853 119.087 36.896C121.903 36.9493 124.191 37.4347 125.951 38.352C127.721 39.2587 129.017 40.5547 129.839 42.24C130.671 43.9147 131.087 45.936 131.087 48.304C131.087 50.7787 130.644 52.8853 129.759 54.624C128.884 56.3627 127.54 57.696 125.727 58.624C123.924 59.5413 121.631 60 118.847 60H112.863V36.864ZM116.815 40.08V56.784H118.911C120.5 56.784 121.903 56.512 123.119 55.968C124.335 55.4133 125.284 54.5173 125.967 53.28C126.66 52.0427 127.007 50.3893 127.007 48.32C127.007 46.3147 126.687 44.7093 126.047 43.504C125.407 42.2987 124.489 41.4293 123.295 40.896C122.1 40.352 120.671 40.08 119.007 40.08H116.815ZM138.943 43.456V60H135.199V43.456H138.943ZM138.991 36.88V40.56H135.135V36.88H138.991ZM149.87 60.32C148.718 60.32 147.624 60.1387 146.59 59.776C145.566 59.4027 144.702 58.8213 143.998 58.032C143.304 57.2427 142.867 56.224 142.686 54.976H146.11C146.259 55.584 146.52 56.08 146.894 56.464C147.278 56.848 147.731 57.1307 148.254 57.312C148.776 57.4827 149.31 57.568 149.854 57.568C150.846 57.568 151.646 57.3973 152.254 57.056C152.872 56.7147 153.182 56.1867 153.182 55.472C153.182 54.9493 153.011 54.5333 152.67 54.224C152.328 53.9147 151.784 53.68 151.038 53.52L147.886 52.8C146.488 52.4907 145.363 51.9787 144.51 51.264C143.667 50.5493 143.24 49.5413 143.23 48.24C143.219 47.2587 143.464 46.384 143.966 45.616C144.467 44.848 145.214 44.2453 146.206 43.808C147.198 43.36 148.424 43.136 149.885 43.136C151.816 43.136 153.363 43.568 154.526 44.432C155.688 45.2853 156.286 46.5067 156.318 48.096H153.006C152.888 47.3813 152.552 46.8267 151.998 46.432C151.443 46.0267 150.723 45.824 149.838 45.824C148.92 45.824 148.168 46 147.582 46.352C146.995 46.704 146.702 47.2427 146.702 47.968C146.702 48.4693 146.926 48.864 147.374 49.152C147.822 49.44 148.494 49.6853 149.39 49.888L152.366 50.608C153.219 50.8213 153.918 51.1093 154.462 51.472C155.006 51.8347 155.432 52.2347 155.742 52.672C156.051 53.0987 156.264 53.5413 156.382 54C156.51 54.448 156.574 54.864 156.574 55.248C156.574 56.3147 156.296 57.2267 155.742 57.984C155.198 58.7307 154.424 59.3067 153.422 59.712C152.419 60.1173 151.235 60.32 149.87 60.32ZM167.103 43.136C168.394 43.136 169.53 43.392 170.511 43.904C171.493 44.416 172.277 45.1253 172.863 46.032C173.461 46.9387 173.818 47.968 173.935 49.12H170.607C170.533 48.6187 170.351 48.144 170.063 47.696C169.775 47.2373 169.386 46.8693 168.895 46.592C168.405 46.304 167.813 46.16 167.119 46.16C165.882 46.16 164.874 46.6187 164.095 47.536C163.327 48.4533 162.943 49.8613 162.943 51.76C162.943 53.5093 163.311 54.9013 164.047 55.936C164.783 56.9707 165.834 57.488 167.199 57.488C167.882 57.488 168.463 57.3387 168.943 57.04C169.434 56.7307 169.818 56.352 170.095 55.904C170.383 55.4453 170.57 54.9867 170.655 54.528H173.887C173.791 55.648 173.439 56.6453 172.831 57.52C172.234 58.3947 171.445 59.0827 170.463 59.584C169.493 60.0747 168.373 60.32 167.103 60.32C165.589 60.32 164.239 59.9893 163.055 59.328C161.882 58.656 160.959 57.6853 160.287 56.416C159.615 55.136 159.279 53.5947 159.279 51.792C159.279 50.0747 159.594 48.5707 160.223 47.28C160.853 45.9787 161.754 44.9653 162.927 44.24C164.101 43.504 165.493 43.136 167.103 43.136ZM184.385 60.32C182.806 60.32 181.43 59.984 180.257 59.312C179.083 58.6293 178.171 57.6533 177.521 56.384C176.881 55.1147 176.561 53.5893 176.561 51.808C176.561 50.08 176.87 48.5653 177.489 47.264C178.118 45.9627 179.019 44.9493 180.193 44.224C181.366 43.4987 182.769 43.136 184.401 43.136C185.979 43.136 187.35 43.4827 188.513 44.176C189.675 44.8693 190.571 45.8613 191.201 47.152C191.841 48.4427 192.161 49.9947 192.161 51.808C192.161 53.4827 191.857 54.96 191.249 56.24C190.651 57.5093 189.771 58.5067 188.609 59.232C187.457 59.9573 186.049 60.32 184.385 60.32ZM184.401 57.36C185.297 57.36 186.033 57.1147 186.609 56.624C187.195 56.1333 187.627 55.4613 187.905 54.608C188.193 53.7547 188.337 52.784 188.337 51.696C188.337 50.6827 188.209 49.7493 187.953 48.896C187.707 48.0427 187.291 47.36 186.705 46.848C186.129 46.3253 185.361 46.064 184.401 46.064C183.494 46.064 182.742 46.304 182.145 46.784C181.558 47.2533 181.115 47.9147 180.817 48.768C180.529 49.6107 180.385 50.5867 180.385 51.696C180.385 52.6987 180.513 53.632 180.769 54.496C181.035 55.3493 181.462 56.0427 182.049 56.576C182.635 57.0987 183.419 57.36 184.401 57.36ZM201.476 60.32C200.665 60.32 199.881 60.2027 199.124 59.968C198.377 59.7227 197.705 59.3707 197.108 58.912C196.51 58.4427 196.036 57.8667 195.684 57.184C195.332 56.5013 195.156 55.7067 195.156 54.8V43.456H199.06V54.352C199.06 55.248 199.342 55.984 199.908 56.56C200.484 57.136 201.348 57.424 202.5 57.424C203.545 57.424 204.382 57.152 205.012 56.608C205.641 56.0533 205.956 55.2587 205.956 54.224V43.456H209.828V60H206.836L206.404 56.768C206.201 57.6747 205.844 58.3893 205.332 58.912C204.83 59.424 204.238 59.7867 203.556 60C202.884 60.2133 202.19 60.32 201.476 60.32ZM214.146 60V43.456H217.954V45.824C218.21 45.3973 218.556 44.9867 218.994 44.592C219.442 44.1973 219.991 43.8773 220.642 43.632C221.292 43.3867 222.055 43.264 222.93 43.264C223.954 43.264 224.903 43.4667 225.778 43.872C226.663 44.2773 227.372 44.912 227.906 45.776C228.45 46.64 228.722 47.7547 228.722 49.12V60H224.818V49.584C224.818 48.496 224.519 47.6907 223.922 47.168C223.324 46.6347 222.572 46.368 221.666 46.368C221.047 46.368 220.46 46.4747 219.906 46.688C219.351 46.8907 218.898 47.2053 218.546 47.632C218.204 48.048 218.034 48.5707 218.034 49.2V60H214.146ZM241.46 46.208H237.764L237.78 55.696C237.78 56.1867 237.833 56.5493 237.94 56.784C238.057 57.008 238.238 57.1573 238.484 57.232C238.74 57.296 239.081 57.328 239.508 57.328H241.54V59.792C241.326 59.8773 241.001 59.952 240.564 60.016C240.137 60.0907 239.561 60.128 238.836 60.128C237.524 60.128 236.505 59.9573 235.78 59.616C235.065 59.264 234.569 58.768 234.292 58.128C234.014 57.488 233.876 56.7253 233.876 55.84V46.208H231.188V43.456H233.988L234.964 38.544H237.764V43.44H241.46V46.208Z" fill="#191C1F"/>
<path d="M36.1686 86.432H43.3766L43.3686 87.728H37.6886V91.552H42.7926V92.832H37.6886V98H36.1686V86.432ZM48.4183 98.16C47.6556 98.16 46.9889 97.9973 46.4183 97.672C45.8476 97.3413 45.4049 96.8587 45.0903 96.224C44.7756 95.5893 44.6183 94.8133 44.6183 93.896C44.6183 93.032 44.7649 92.2747 45.0583 91.624C45.3516 90.9733 45.7809 90.4693 46.3463 90.112C46.9169 89.7493 47.6076 89.568 48.4183 89.568C49.1809 89.568 49.8423 89.736 50.4023 90.072C50.9676 90.4027 51.4049 90.8907 51.7143 91.536C52.0236 92.1813 52.1783 92.968 52.1783 93.896C52.1783 94.7387 52.0343 95.48 51.7463 96.12C51.4636 96.76 51.0423 97.2613 50.4823 97.624C49.9276 97.9813 49.2396 98.16 48.4183 98.16ZM48.4183 96.992C48.9143 96.992 49.3329 96.8667 49.6743 96.616C50.0156 96.3653 50.2743 96.0053 50.4503 95.536C50.6263 95.0667 50.7143 94.5093 50.7143 93.864C50.7143 93.272 50.6369 92.7413 50.4823 92.272C50.3276 91.7973 50.0796 91.4213 49.7383 91.144C49.4023 90.8667 48.9623 90.728 48.4183 90.728C47.9169 90.728 47.4929 90.8533 47.1463 91.104C46.7996 91.3493 46.5356 91.7067 46.3543 92.176C46.1783 92.6453 46.0903 93.208 46.0903 93.864C46.0903 94.4453 46.1703 94.9733 46.3303 95.448C46.4903 95.9227 46.7409 96.2987 47.0823 96.576C47.4236 96.8533 47.8689 96.992 48.4183 96.992ZM54.1146 98V89.728H55.5226V91.32C55.6613 90.9253 55.856 90.6 56.1066 90.344C56.3573 90.0827 56.6426 89.888 56.9626 89.76C57.288 89.632 57.624 89.568 57.9706 89.568C58.0933 89.568 58.2133 89.576 58.3306 89.592C58.448 89.608 58.5386 89.6347 58.6026 89.672V91.104C58.5226 91.0667 58.4186 91.0427 58.2906 91.032C58.168 91.016 58.064 91.008 57.9786 91.008C57.648 90.9867 57.3386 91.008 57.0506 91.072C56.7626 91.1307 56.5093 91.2347 56.2906 91.384C56.072 91.5333 55.8986 91.7307 55.7706 91.976C55.648 92.216 55.5866 92.5093 55.5866 92.856V98H54.1146ZM66.2933 98.16C65.7599 98.16 65.2879 98.0667 64.8773 97.88C64.4666 97.688 64.1439 97.4133 63.9093 97.056C63.6799 96.6987 63.5653 96.2667 63.5653 95.76C63.5653 94.8427 63.8853 94.16 64.5253 93.712C65.1653 93.264 66.1919 93.024 67.6053 92.992L69.0853 92.952V92.304C69.0853 91.7973 68.9333 91.3973 68.6293 91.104C68.3253 90.8053 67.8533 90.656 67.2133 90.656C66.7386 90.6613 66.3199 90.7733 65.9573 90.992C65.5999 91.2107 65.3679 91.568 65.2613 92.064H63.9572C63.9893 91.5253 64.1413 91.072 64.4133 90.704C64.6853 90.3307 65.0639 90.048 65.5493 89.856C66.0399 89.664 66.6186 89.568 67.2853 89.568C68.0053 89.568 68.6026 89.6693 69.0773 89.872C69.5573 90.0747 69.9146 90.3733 70.1493 90.768C70.3893 91.1627 70.5093 91.648 70.5093 92.224V98H69.2453L69.1413 96.448C68.8213 97.0933 68.4133 97.5413 67.9173 97.792C67.4266 98.0373 66.8853 98.16 66.2933 98.16ZM66.7413 97.096C67.0186 97.096 67.2933 97.0453 67.5653 96.944C67.8426 96.8427 68.0959 96.7067 68.3253 96.536C68.5546 96.36 68.7359 96.1653 68.8693 95.952C69.0079 95.7333 69.0799 95.5093 69.0853 95.28V93.864L67.8533 93.888C67.2239 93.8987 66.6959 93.9627 66.2693 94.08C65.8479 94.1973 65.5306 94.3813 65.3173 94.632C65.1093 94.8827 65.0053 95.2107 65.0053 95.616C65.0053 96.08 65.1653 96.4427 65.4853 96.704C65.8106 96.9653 66.2293 97.096 66.7413 97.096ZM75.1245 98.104C74.6765 98.104 74.3138 98.0427 74.0365 97.92C73.7645 97.7973 73.5538 97.632 73.4045 97.424C73.2605 97.216 73.1618 96.9787 73.1085 96.712C73.0605 96.44 73.0365 96.16 73.0365 95.872V86.112H74.4925V95.728C74.4925 96.144 74.5725 96.456 74.7325 96.664C74.8978 96.872 75.1272 96.9867 75.4205 97.008L75.8685 97.016V97.976C75.7458 98.0133 75.6178 98.0427 75.4845 98.064C75.3512 98.0907 75.2312 98.104 75.1245 98.104ZM79.6558 98.104C79.2078 98.104 78.8451 98.0427 78.5678 97.92C78.2958 97.7973 78.0851 97.632 77.9358 97.424C77.7918 97.216 77.6931 96.9787 77.6398 96.712C77.5918 96.44 77.5678 96.16 77.5678 95.872V86.112H79.0238V95.728C79.0238 96.144 79.1038 96.456 79.2638 96.664C79.4291 96.872 79.6584 96.9867 79.9518 97.008L80.3998 97.016V97.976C80.2771 98.0133 80.1491 98.0427 80.0158 98.064C79.8824 98.0907 79.7624 98.104 79.6558 98.104ZM86.8738 94.208C86.8738 94.7307 86.9591 95.2053 87.1298 95.632C87.3058 96.0533 87.5698 96.3893 87.9218 96.64C88.2791 96.8907 88.7244 97.016 89.2578 97.016C89.7858 97.016 90.2391 96.8933 90.6178 96.648C91.0018 96.4027 91.2471 96.048 91.3538 95.584H92.7538C92.6524 96.144 92.4284 96.616 92.0818 97C91.7351 97.384 91.3164 97.6747 90.8258 97.872C90.3351 98.064 89.8231 98.16 89.2898 98.16C88.5164 98.16 87.8364 97.992 87.2498 97.656C86.6631 97.32 86.2044 96.8373 85.8738 96.208C85.5431 95.5787 85.3778 94.824 85.3778 93.944C85.3778 93.0747 85.5271 92.312 85.8258 91.656C86.1244 91 86.5564 90.488 87.1218 90.12C87.6924 89.752 88.3778 89.568 89.1778 89.568C89.9564 89.568 90.6151 89.736 91.1538 90.072C91.6924 90.408 92.1004 90.8827 92.3778 91.496C92.6604 92.104 92.8018 92.8267 92.8018 93.664V94.208H86.8738ZM86.8818 93.208H91.3778C91.3778 92.7333 91.2978 92.3067 91.1378 91.928C90.9778 91.544 90.7324 91.2427 90.4018 91.024C90.0764 90.8 89.6658 90.688 89.1698 90.688C88.6524 90.688 88.2231 90.8133 87.8818 91.064C87.5458 91.3093 87.2924 91.6267 87.1218 92.016C86.9564 92.4 86.8764 92.7973 86.8818 93.208ZM96.9214 98.104C96.4734 98.104 96.1107 98.0427 95.8334 97.92C95.5614 97.7973 95.3507 97.632 95.2014 97.424C95.0574 97.216 94.9587 96.9787 94.9054 96.712C94.8574 96.44 94.8334 96.16 94.8334 95.872V86.112H96.2894V95.728C96.2894 96.144 96.3694 96.456 96.5294 96.664C96.6947 96.872 96.924 96.9867 97.2174 97.008L97.6654 97.016V97.976C97.5427 98.0133 97.4147 98.0427 97.2814 98.064C97.148 98.0907 97.028 98.104 96.9214 98.104ZM101.453 98.104C101.005 98.104 100.642 98.0427 100.365 97.92C100.093 97.7973 99.882 97.632 99.7326 97.424C99.5886 97.216 99.49 96.9787 99.4366 96.712C99.3886 96.44 99.3646 96.16 99.3646 95.872V86.112H100.821V95.728C100.821 96.144 100.901 96.456 101.061 96.664C101.226 96.872 101.455 96.9867 101.749 97.008L102.197 97.016V97.976C102.074 98.0133 101.946 98.0427 101.813 98.064C101.679 98.0907 101.559 98.104 101.453 98.104ZM105.061 94.208C105.061 94.7307 105.147 95.2053 105.317 95.632C105.493 96.0533 105.757 96.3893 106.109 96.64C106.467 96.8907 106.912 97.016 107.445 97.016C107.973 97.016 108.427 96.8933 108.805 96.648C109.189 96.4027 109.435 96.048 109.541 95.584H110.941C110.84 96.144 110.616 96.616 110.269 97C109.923 97.384 109.504 97.6747 109.013 97.872C108.523 98.064 108.011 98.16 107.477 98.16C106.704 98.16 106.024 97.992 105.437 97.656C104.851 97.32 104.392 96.8373 104.061 96.208C103.731 95.5787 103.565 94.824 103.565 93.944C103.565 93.0747 103.715 92.312 104.013 91.656C104.312 91 104.744 90.488 105.309 90.12C105.88 89.752 106.565 89.568 107.365 89.568C108.144 89.568 108.803 89.736 109.341 90.072C109.88 90.408 110.288 90.8827 110.565 91.496C110.848 92.104 110.989 92.8267 110.989 93.664V94.208H105.061ZM105.069 93.208H109.565C109.565 92.7333 109.485 92.3067 109.325 91.928C109.165 91.544 108.92 91.2427 108.589 91.024C108.264 90.8 107.853 90.688 107.357 90.688C106.84 90.688 106.411 90.8133 106.069 91.064C105.733 91.3093 105.48 91.6267 105.309 92.016C105.144 92.4 105.064 92.7973 105.069 93.208ZM116.317 89.568C116.909 89.568 117.442 89.6827 117.917 89.912C118.392 90.136 118.778 90.456 119.077 90.872C119.381 91.288 119.57 91.7787 119.645 92.344H118.333C118.285 92.056 118.173 91.792 117.997 91.552C117.826 91.312 117.6 91.12 117.317 90.976C117.034 90.832 116.704 90.76 116.325 90.76C115.616 90.76 115.04 91.016 114.597 91.528C114.154 92.04 113.933 92.824 113.933 93.88C113.933 94.8347 114.136 95.6 114.541 96.176C114.952 96.7467 115.554 97.032 116.349 97.032C116.728 97.032 117.056 96.96 117.333 96.816C117.616 96.6667 117.842 96.472 118.013 96.232C118.184 95.9867 118.293 95.7253 118.341 95.448H119.629C119.56 96.0027 119.373 96.4827 119.069 96.888C118.765 97.2933 118.376 97.608 117.901 97.832C117.432 98.0507 116.904 98.16 116.317 98.16C115.576 98.16 114.917 97.9973 114.341 97.672C113.77 97.3467 113.322 96.8667 112.997 96.232C112.672 95.5973 112.509 94.8187 112.509 93.896C112.509 93.032 112.656 92.2773 112.949 91.632C113.248 90.9813 113.68 90.4747 114.245 90.112C114.816 89.7493 115.506 89.568 116.317 89.568ZM125.583 90.808H123.719V95.952C123.719 96.2453 123.748 96.4613 123.807 96.6C123.871 96.7333 123.975 96.8187 124.119 96.856C124.268 96.8933 124.471 96.912 124.727 96.912H125.631V97.904C125.53 97.9413 125.375 97.9733 125.167 98C124.964 98.0267 124.711 98.04 124.407 98.04C123.836 98.04 123.394 97.9627 123.079 97.808C122.764 97.6533 122.543 97.424 122.415 97.12C122.292 96.816 122.231 96.4427 122.231 96V90.808H120.887V89.728H122.271L122.631 87.32H123.719V89.72H125.583V90.808ZM127.708 98V89.728H129.116V91.32C129.255 90.9253 129.45 90.6 129.7 90.344C129.951 90.0827 130.236 89.888 130.556 89.76C130.882 89.632 131.218 89.568 131.564 89.568C131.687 89.568 131.807 89.576 131.924 89.592C132.042 89.608 132.132 89.6347 132.196 89.672V91.104C132.116 91.0667 132.012 91.0427 131.884 91.032C131.762 91.016 131.658 91.008 131.572 91.008C131.242 90.9867 130.932 91.008 130.644 91.072C130.356 91.1307 130.103 91.2347 129.884 91.384C129.666 91.5333 129.492 91.7307 129.364 91.976C129.242 92.216 129.18 92.5093 129.18 92.856V98H127.708ZM137.028 98.16C136.265 98.16 135.598 97.9973 135.028 97.672C134.457 97.3413 134.014 96.8587 133.7 96.224C133.385 95.5893 133.228 94.8133 133.228 93.896C133.228 93.032 133.374 92.2747 133.668 91.624C133.961 90.9733 134.39 90.4693 134.956 90.112C135.526 89.7493 136.217 89.568 137.028 89.568C137.79 89.568 138.452 89.736 139.012 90.072C139.577 90.4027 140.014 90.8907 140.324 91.536C140.633 92.1813 140.788 92.968 140.788 93.896C140.788 94.7387 140.644 95.48 140.356 96.12C140.073 96.76 139.652 97.2613 139.092 97.624C138.537 97.9813 137.849 98.16 137.028 98.16ZM137.028 96.992C137.524 96.992 137.942 96.8667 138.284 96.616C138.625 96.3653 138.884 96.0053 139.06 95.536C139.236 95.0667 139.324 94.5093 139.324 93.864C139.324 93.272 139.246 92.7413 139.092 92.272C138.937 91.7973 138.689 91.4213 138.348 91.144C138.012 90.8667 137.572 90.728 137.028 90.728C136.526 90.728 136.102 90.8533 135.756 91.104C135.409 91.3493 135.145 91.7067 134.964 92.176C134.788 92.6453 134.7 93.208 134.7 93.864C134.7 94.4453 134.78 94.9733 134.94 95.448C135.1 95.9227 135.35 96.2987 135.692 96.576C136.033 96.8533 136.478 96.992 137.028 96.992ZM142.724 98V89.728H144.156V90.928C144.289 90.6987 144.473 90.4827 144.708 90.28C144.948 90.0773 145.236 89.9147 145.572 89.792C145.913 89.6693 146.305 89.608 146.748 89.608C147.271 89.608 147.751 89.712 148.188 89.92C148.631 90.128 148.983 90.4533 149.244 90.896C149.511 91.3333 149.644 91.8987 149.644 92.592V98H148.164V92.736C148.164 92.0907 147.993 91.6133 147.652 91.304C147.316 90.9893 146.879 90.832 146.34 90.832C145.967 90.832 145.617 90.8933 145.292 91.016C144.967 91.1333 144.703 91.3147 144.5 91.56C144.297 91.8 144.196 92.104 144.196 92.472V98H142.724ZM153.558 89.728V98H152.126V89.728H153.558ZM153.59 86.44V87.976H152.078V86.44H153.59ZM159.457 89.568C160.05 89.568 160.583 89.6827 161.058 89.912C161.532 90.136 161.919 90.456 162.218 90.872C162.522 91.288 162.711 91.7787 162.786 92.344H161.474C161.426 92.056 161.314 91.792 161.138 91.552C160.967 91.312 160.74 91.12 160.458 90.976C160.175 90.832 159.844 90.76 159.466 90.76C158.756 90.76 158.18 91.016 157.738 91.528C157.295 92.04 157.074 92.824 157.074 93.88C157.074 94.8347 157.276 95.6 157.682 96.176C158.092 96.7467 158.695 97.032 159.49 97.032C159.868 97.032 160.196 96.96 160.474 96.816C160.756 96.6667 160.983 96.472 161.154 96.232C161.324 95.9867 161.434 95.7253 161.482 95.448H162.77C162.7 96.0027 162.514 96.4827 162.21 96.888C161.906 97.2933 161.516 97.608 161.042 97.832C160.572 98.0507 160.044 98.16 159.457 98.16C158.716 98.16 158.058 97.9973 157.482 97.672C156.911 97.3467 156.463 96.8667 156.138 96.232C155.812 95.5973 155.65 94.8187 155.65 93.896C155.65 93.032 155.796 92.2773 156.09 91.632C156.388 90.9813 156.82 90.4747 157.386 90.112C157.956 89.7493 158.647 89.568 159.457 89.568ZM167.676 98.16C167.1 98.16 166.564 98.072 166.068 97.896C165.577 97.7147 165.169 97.4347 164.844 97.056C164.518 96.672 164.313 96.184 164.228 95.592H165.572C165.646 95.9173 165.78 96.1893 165.972 96.408C166.169 96.6213 166.414 96.784 166.708 96.896C167.001 97.0027 167.321 97.056 167.668 97.056C168.222 97.056 168.67 96.952 169.012 96.744C169.353 96.536 169.524 96.216 169.524 95.784C169.524 95.48 169.433 95.2373 169.252 95.056C169.076 94.8693 168.801 94.7333 168.428 94.648L166.716 94.224C166.049 94.064 165.516 93.8133 165.116 93.472C164.716 93.1307 164.516 92.6533 164.516 92.04C164.51 91.5547 164.625 91.128 164.86 90.76C165.094 90.392 165.446 90.1013 165.916 89.888C166.385 89.6747 166.969 89.568 167.668 89.568C168.564 89.568 169.286 89.7707 169.836 90.176C170.39 90.576 170.678 91.1653 170.7 91.944H169.396C169.342 91.5493 169.164 91.2373 168.86 91.008C168.561 90.7733 168.158 90.656 167.652 90.656C167.124 90.656 166.694 90.7627 166.364 90.976C166.033 91.184 165.868 91.5093 165.868 91.952C165.868 92.2453 165.985 92.4773 166.22 92.648C166.454 92.8133 166.801 92.952 167.26 93.064L168.916 93.48C169.3 93.5813 169.614 93.7147 169.86 93.88C170.11 94.0453 170.308 94.2293 170.452 94.432C170.601 94.6347 170.705 94.848 170.764 95.072C170.828 95.2907 170.86 95.5013 170.86 95.704C170.86 96.2107 170.732 96.648 170.476 97.016C170.225 97.3787 169.862 97.6613 169.388 97.864C168.918 98.0613 168.348 98.16 167.676 98.16ZM176.552 100.576V89.728H178.024L178.04 91.168C178.136 90.9973 178.259 90.8187 178.408 90.632C178.563 90.4453 178.749 90.272 178.968 90.112C179.192 89.952 179.451 89.8213 179.744 89.72C180.043 89.6187 180.381 89.568 180.76 89.568C181.421 89.568 182.003 89.72 182.504 90.024C183.011 90.3227 183.405 90.7813 183.688 91.4C183.971 92.0187 184.112 92.8027 184.112 93.752C184.112 94.7013 183.973 95.504 183.696 96.16C183.424 96.8107 183.029 97.3067 182.512 97.648C181.995 97.9893 181.371 98.16 180.64 98.16C180.272 98.16 179.944 98.1067 179.656 98C179.373 97.8987 179.125 97.7653 178.912 97.6C178.704 97.4293 178.528 97.248 178.384 97.056C178.245 96.864 178.131 96.68 178.04 96.504V100.576H176.552ZM180.36 97.008C181.043 97.008 181.6 96.7493 182.032 96.232C182.464 95.7093 182.68 94.8987 182.68 93.8C182.68 92.856 182.483 92.1067 182.088 91.552C181.693 90.9973 181.117 90.72 180.36 90.72C179.592 90.72 179.011 91.0053 178.616 91.576C178.221 92.1413 178.024 92.8827 178.024 93.8C178.024 94.392 178.112 94.9307 178.288 95.416C178.464 95.9013 178.725 96.288 179.072 96.576C179.419 96.864 179.848 97.008 180.36 97.008ZM186.052 98V89.728H187.46V91.32C187.599 90.9253 187.793 90.6 188.044 90.344C188.295 90.0827 188.58 89.888 188.9 89.76C189.225 89.632 189.561 89.568 189.908 89.568C190.031 89.568 190.151 89.576 190.268 89.592C190.385 89.608 190.476 89.6347 190.54 89.672V91.104C190.46 91.0667 190.356 91.0427 190.228 91.032C190.105 91.016 190.001 91.008 189.916 91.008C189.585 90.9867 189.276 91.008 188.988 91.072C188.7 91.1307 188.447 91.2347 188.228 91.384C188.009 91.5333 187.836 91.7307 187.708 91.976C187.585 92.216 187.524 92.5093 187.524 92.856V98H186.052ZM195.371 98.16C194.609 98.16 193.942 97.9973 193.371 97.672C192.801 97.3413 192.358 96.8587 192.043 96.224C191.729 95.5893 191.571 94.8133 191.571 93.896C191.571 93.032 191.718 92.2747 192.011 91.624C192.305 90.9733 192.734 90.4693 193.299 90.112C193.87 89.7493 194.561 89.568 195.371 89.568C196.134 89.568 196.795 89.736 197.355 90.072C197.921 90.4027 198.358 90.8907 198.667 91.536C198.977 92.1813 199.131 92.968 199.131 93.896C199.131 94.7387 198.987 95.48 198.699 96.12C198.417 96.76 197.995 97.2613 197.435 97.624C196.881 97.9813 196.193 98.16 195.371 98.16ZM195.371 96.992C195.867 96.992 196.286 96.8667 196.627 96.616C196.969 96.3653 197.227 96.0053 197.403 95.536C197.579 95.0667 197.667 94.5093 197.667 93.864C197.667 93.272 197.59 92.7413 197.435 92.272C197.281 91.7973 197.033 91.4213 196.691 91.144C196.355 90.8667 195.915 90.728 195.371 90.728C194.87 90.728 194.446 90.8533 194.099 91.104C193.753 91.3493 193.489 91.7067 193.307 92.176C193.131 92.6453 193.043 93.208 193.043 93.864C193.043 94.4453 193.123 94.9733 193.283 95.448C193.443 95.9227 193.694 96.2987 194.035 96.576C194.377 96.8533 194.822 96.992 195.371 96.992ZM204.052 98.16C202.98 98.16 202.129 97.792 201.5 97.056C200.87 96.32 200.556 95.2453 200.556 93.832C200.556 92.9733 200.681 92.224 200.932 91.584C201.188 90.944 201.566 90.448 202.068 90.096C202.569 89.744 203.193 89.568 203.94 89.568C204.334 89.568 204.684 89.6187 204.988 89.72C205.297 89.8213 205.564 89.9493 205.788 90.104C206.012 90.2587 206.193 90.4187 206.332 90.584C206.476 90.7493 206.582 90.9013 206.652 91.04V86.112H208.14V98H207.012L206.852 96.304C206.798 96.464 206.713 96.6507 206.596 96.864C206.478 97.072 206.313 97.2773 206.1 97.48C205.886 97.6773 205.612 97.84 205.276 97.968C204.945 98.096 204.537 98.16 204.052 98.16ZM204.316 97.024C205.153 97.024 205.75 96.7707 206.108 96.264C206.47 95.752 206.652 94.9173 206.652 93.76C206.646 93.1147 206.564 92.5653 206.404 92.112C206.249 91.6587 206.004 91.3147 205.668 91.08C205.337 90.84 204.897 90.72 204.348 90.72C203.665 90.72 203.11 90.9627 202.684 91.448C202.257 91.9333 202.044 92.704 202.044 93.76C202.044 94.7947 202.236 95.5973 202.62 96.168C203.009 96.7387 203.574 97.024 204.316 97.024ZM213.623 98.16C213.191 98.1547 212.783 98.0933 212.399 97.976C212.021 97.8533 211.685 97.6747 211.391 97.44C211.098 97.2053 210.866 96.9147 210.695 96.568C210.53 96.216 210.447 95.808 210.447 95.344V89.728H211.927V95.192C211.927 95.7307 212.093 96.168 212.423 96.504C212.759 96.84 213.263 97.008 213.935 97.008C214.543 97.008 215.031 96.8507 215.399 96.536C215.773 96.216 215.959 95.7413 215.959 95.112V89.728H217.431V98H216.255L216.103 96.416C216.002 96.832 215.829 97.168 215.583 97.424C215.343 97.68 215.053 97.8693 214.711 97.992C214.375 98.1093 214.013 98.1653 213.623 98.16ZM223.036 89.568C223.628 89.568 224.161 89.6827 224.636 89.912C225.11 90.136 225.497 90.456 225.796 90.872C226.1 91.288 226.289 91.7787 226.364 92.344H225.052C225.004 92.056 224.892 91.792 224.716 91.552C224.545 91.312 224.318 91.12 224.036 90.976C223.753 90.832 223.422 90.76 223.044 90.76C222.334 90.76 221.758 91.016 221.316 91.528C220.873 92.04 220.652 92.824 220.652 93.88C220.652 94.8347 220.854 95.6 221.26 96.176C221.67 96.7467 222.273 97.032 223.068 97.032C223.446 97.032 223.774 96.96 224.052 96.816C224.334 96.6667 224.561 96.472 224.732 96.232C224.902 95.9867 225.012 95.7253 225.06 95.448H226.348C226.278 96.0027 226.092 96.4827 225.788 96.888C225.484 97.2933 225.094 97.608 224.62 97.832C224.15 98.0507 223.622 98.16 223.036 98.16C222.294 98.16 221.636 97.9973 221.06 97.672C220.489 97.3467 220.041 96.8667 219.716 96.232C219.39 95.5973 219.228 94.8187 219.228 93.896C219.228 93.032 219.374 92.2773 219.668 91.632C219.966 90.9813 220.398 90.4747 220.964 90.112C221.534 89.7493 222.225 89.568 223.036 89.568ZM232.302 90.808H230.438V95.952C230.438 96.2453 230.467 96.4613 230.526 96.6C230.59 96.7333 230.694 96.8187 230.838 96.856C230.987 96.8933 231.19 96.912 231.446 96.912H232.35V97.904C232.248 97.9413 232.094 97.9733 231.886 98C231.683 98.0267 231.43 98.04 231.126 98.04C230.555 98.04 230.112 97.9627 229.798 97.808C229.483 97.6533 229.262 97.424 229.134 97.12C229.011 96.816 228.95 96.4427 228.95 96V90.808H227.606V89.728H228.99L229.35 87.32H230.438V89.72H232.302V90.808ZM237.332 98.16C236.756 98.16 236.22 98.072 235.724 97.896C235.233 97.7147 234.825 97.4347 234.5 97.056C234.175 96.672 233.969 96.184 233.884 95.592H235.228C235.303 95.9173 235.436 96.1893 235.628 96.408C235.825 96.6213 236.071 96.784 236.364 96.896C236.657 97.0027 236.977 97.056 237.324 97.056C237.879 97.056 238.327 96.952 238.668 96.744C239.009 96.536 239.18 96.216 239.18 95.784C239.18 95.48 239.089 95.2373 238.908 95.056C238.732 94.8693 238.457 94.7333 238.084 94.648L236.372 94.224C235.705 94.064 235.172 93.8133 234.772 93.472C234.372 93.1307 234.172 92.6533 234.172 92.04C234.167 91.5547 234.281 91.128 234.516 90.76C234.751 90.392 235.103 90.1013 235.572 89.888C236.041 89.6747 236.625 89.568 237.324 89.568C238.22 89.568 238.943 89.7707 239.492 90.176C240.047 90.576 240.335 91.1653 240.356 91.944H239.052C238.999 91.5493 238.82 91.2373 238.516 91.008C238.217 90.7733 237.815 90.656 237.308 90.656C236.78 90.656 236.351 90.7627 236.02 90.976C235.689 91.184 235.524 91.5093 235.524 91.952C235.524 92.2453 235.641 92.4773 235.876 92.648C236.111 92.8133 236.457 92.952 236.916 93.064L238.572 93.48C238.956 93.5813 239.271 93.7147 239.516 93.88C239.767 94.0453 239.964 94.2293 240.108 94.432C240.257 94.6347 240.361 94.848 240.42 95.072C240.484 95.2907 240.516 95.5013 240.516 95.704C240.516 96.2107 240.388 96.648 240.132 97.016C239.881 97.3787 239.519 97.6613 239.044 97.864C238.575 98.0613 238.004 98.16 237.332 98.16Z" fill="#475156"/>
<path d="M5.208 141.14C4.28867 141.14 3.493 140.937 2.821 140.531C2.15367 140.12 1.638 139.53 1.274 138.76C0.914667 137.985 0.735 137.052 0.735 135.96C0.735 134.859 0.917 133.921 1.281 133.146C1.64967 132.367 2.16767 131.772 2.835 131.361C3.507 130.946 4.298 130.738 5.208 130.738C6.11333 130.738 6.89733 130.946 7.56 131.361C8.22733 131.772 8.74067 132.367 9.1 133.146C9.464 133.921 9.646 134.859 9.646 135.96C9.646 137.052 9.46633 137.983 9.107 138.753C8.74767 139.523 8.23433 140.113 7.567 140.524C6.90433 140.935 6.118 141.14 5.208 141.14ZM5.208 139.859C5.796 139.859 6.29767 139.724 6.713 139.453C7.133 139.182 7.45267 138.76 7.672 138.186C7.89133 137.612 8.001 136.877 8.001 135.981C8.001 135.062 7.889 134.31 7.665 133.727C7.44567 133.144 7.126 132.714 6.706 132.439C6.29067 132.159 5.79133 132.019 5.208 132.019C4.62467 132.019 4.12067 132.159 3.696 132.439C3.276 132.719 2.95167 133.151 2.723 133.734C2.49433 134.317 2.38 135.066 2.38 135.981C2.38 136.882 2.49433 137.619 2.723 138.193C2.95167 138.762 3.276 139.182 3.696 139.453C4.12067 139.724 4.62467 139.859 5.208 139.859ZM15.571 133.762V134.84H13.877V141H12.372V134.84H10.895V133.762H12.372V132.663C12.372 132.084 12.526 131.643 12.834 131.34C13.142 131.032 13.5946 130.878 14.192 130.878H15.634L15.641 131.914H14.598C14.3086 131.914 14.1103 131.991 14.003 132.145C13.9003 132.294 13.849 132.525 13.849 132.838V133.762H15.571ZM21.026 133.762V134.84H19.332V141H17.827V134.84H16.35V133.762H17.827V132.663C17.827 132.084 17.981 131.643 18.289 131.34C18.597 131.032 19.0497 130.878 19.647 130.878H21.089L21.096 131.914H20.053C19.7637 131.914 19.5654 131.991 19.458 132.145C19.3554 132.294 19.304 132.525 19.304 132.838V133.762H21.026ZM23.5592 137.731C23.5592 138.165 23.6292 138.555 23.7692 138.9C23.9138 139.241 24.1308 139.511 24.4202 139.712C24.7095 139.908 25.0688 140.006 25.4982 140.006C25.9275 140.006 26.2985 139.908 26.6112 139.712C26.9285 139.516 27.1362 139.224 27.2342 138.837H28.6202C28.5362 139.332 28.3378 139.752 28.0252 140.097C27.7172 140.442 27.3438 140.704 26.9052 140.881C26.4665 141.054 26.0068 141.14 25.5262 141.14C24.8402 141.14 24.2358 140.993 23.7132 140.699C23.1905 140.4 22.7822 139.976 22.4882 139.425C22.1988 138.874 22.0542 138.219 22.0542 137.458C22.0542 136.707 22.1872 136.044 22.4532 135.47C22.7192 134.891 23.1042 134.439 23.6082 134.112C24.1122 133.785 24.7188 133.622 25.4282 133.622C26.1282 133.622 26.7162 133.771 27.1922 134.07C27.6728 134.369 28.0368 134.789 28.2842 135.33C28.5315 135.867 28.6552 136.501 28.6552 137.234V137.731H23.5592ZM23.5592 136.758H27.2272C27.2272 136.38 27.1618 136.037 27.0312 135.729C26.9005 135.416 26.6998 135.171 26.4292 134.994C26.1632 134.812 25.8272 134.721 25.4212 134.721C25.0058 134.721 24.6605 134.821 24.3852 135.022C24.1098 135.223 23.9022 135.479 23.7622 135.792C23.6268 136.105 23.5592 136.427 23.5592 136.758ZM30.3275 141V133.762H31.7625V135.246C31.8838 134.891 32.0518 134.595 32.2665 134.357C32.4858 134.114 32.7402 133.932 33.0295 133.811C33.3188 133.685 33.6245 133.622 33.9465 133.622C34.0445 133.622 34.1378 133.629 34.2265 133.643C34.3152 133.652 34.3852 133.671 34.4365 133.699V135.141C34.3758 135.113 34.2965 135.094 34.1985 135.085C34.1052 135.076 34.0235 135.069 33.9535 135.064C33.6362 135.041 33.3468 135.057 33.0855 135.113C32.8242 135.169 32.5978 135.262 32.4065 135.393C32.2198 135.524 32.0752 135.694 31.9725 135.904C31.8745 136.114 31.8255 136.361 31.8255 136.646V141H30.3275ZM38.4356 141.14C37.9316 141.14 37.4579 141.061 37.0146 140.902C36.5759 140.743 36.2072 140.494 35.9086 140.153C35.6146 139.812 35.4302 139.376 35.3556 138.844H36.6926C36.7532 139.119 36.8676 139.348 37.0356 139.53C37.2082 139.707 37.4136 139.84 37.6516 139.929C37.8942 140.013 38.1532 140.055 38.4286 140.055C38.8859 140.055 39.2546 139.973 39.5346 139.81C39.8192 139.642 39.9616 139.385 39.9616 139.04C39.9616 138.793 39.8846 138.594 39.7306 138.445C39.5812 138.296 39.3432 138.186 39.0166 138.116L37.5746 137.773C36.9772 137.633 36.4989 137.411 36.1396 137.108C35.7802 136.8 35.5982 136.371 35.5936 135.82C35.5936 135.395 35.6986 135.017 35.9086 134.686C36.1232 134.355 36.4406 134.096 36.8606 133.909C37.2806 133.718 37.8032 133.622 38.4286 133.622C39.2452 133.622 39.9009 133.804 40.3956 134.168C40.8902 134.532 41.1469 135.059 41.1656 135.75H39.8706C39.8239 135.419 39.6722 135.16 39.4156 134.973C39.1636 134.782 38.8299 134.686 38.4146 134.686C37.9852 134.686 37.6329 134.772 37.3576 134.945C37.0822 135.113 36.9446 135.372 36.9446 135.722C36.9446 135.96 37.0449 136.149 37.2456 136.289C37.4462 136.424 37.7472 136.536 38.1486 136.625L39.5206 136.968C39.8752 137.061 40.1669 137.185 40.3956 137.339C40.6242 137.488 40.8039 137.654 40.9346 137.836C41.0652 138.018 41.1562 138.207 41.2076 138.403C41.2636 138.599 41.2916 138.783 41.2916 138.956C41.2916 139.413 41.1749 139.805 40.9416 140.132C40.7129 140.454 40.3839 140.704 39.9546 140.881C39.5299 141.054 39.0236 141.14 38.4356 141.14ZM47.0748 137.731C47.0748 138.165 47.1448 138.555 47.2848 138.9C47.4294 139.241 47.6464 139.511 47.9358 139.712C48.2251 139.908 48.5844 140.006 49.0138 140.006C49.4431 140.006 49.8141 139.908 50.1268 139.712C50.4441 139.516 50.6518 139.224 50.7498 138.837H52.1358C52.0518 139.332 51.8534 139.752 51.5408 140.097C51.2328 140.442 50.8594 140.704 50.4208 140.881C49.9821 141.054 49.5224 141.14 49.0418 141.14C48.3558 141.14 47.7514 140.993 47.2288 140.699C46.7061 140.4 46.2978 139.976 46.0038 139.425C45.7144 138.874 45.5698 138.219 45.5698 137.458C45.5698 136.707 45.7028 136.044 45.9688 135.47C46.2348 134.891 46.6198 134.439 47.1238 134.112C47.6278 133.785 48.2344 133.622 48.9438 133.622C49.6438 133.622 50.2318 133.771 50.7078 134.07C51.1884 134.369 51.5524 134.789 51.7998 135.33C52.0471 135.867 52.1708 136.501 52.1708 137.234V137.731H47.0748ZM47.0748 136.758H50.7428C50.7428 136.38 50.6774 136.037 50.5468 135.729C50.4161 135.416 50.2154 135.171 49.9448 134.994C49.6788 134.812 49.3428 134.721 48.9368 134.721C48.5214 134.721 48.1761 134.821 47.9008 135.022C47.6254 135.223 47.4178 135.479 47.2778 135.792C47.1424 136.105 47.0748 136.427 47.0748 136.758ZM53.8431 141V133.762H55.3061V134.805C55.4228 134.609 55.5791 134.425 55.7751 134.252C55.9758 134.079 56.2208 133.939 56.5101 133.832C56.8041 133.725 57.1425 133.671 57.5251 133.671C57.9778 133.671 58.3955 133.762 58.7781 133.944C59.1655 134.121 59.4758 134.401 59.7091 134.784C59.9425 135.162 60.0591 135.652 60.0591 136.254V141H58.5611V136.415C58.5611 135.897 58.4211 135.512 58.1411 135.26C57.8658 135.008 57.5088 134.882 57.0701 134.882C56.7761 134.882 56.4961 134.931 56.2301 135.029C55.9641 135.127 55.7495 135.276 55.5861 135.477C55.4228 135.673 55.3411 135.92 55.3411 136.219V141H53.8431ZM64.6169 141.14C63.6649 141.14 62.9159 140.816 62.3699 140.167C61.8239 139.514 61.5509 138.573 61.5509 137.346C61.5509 136.595 61.6606 135.941 61.8799 135.386C62.0992 134.826 62.4259 134.392 62.8599 134.084C63.2986 133.776 63.8399 133.622 64.4839 133.622C64.8106 133.622 65.0999 133.662 65.3519 133.741C65.6086 133.82 65.8326 133.923 66.0239 134.049C66.2199 134.175 66.3809 134.31 66.5069 134.455C66.6376 134.6 66.7379 134.735 66.8079 134.861V130.598H68.3129V141H67.1929L67.0249 139.516C66.9736 139.675 66.8942 139.847 66.7869 140.034C66.6796 140.221 66.5326 140.398 66.3459 140.566C66.1639 140.734 65.9306 140.872 65.6459 140.979C65.3612 141.086 65.0182 141.14 64.6169 141.14ZM64.9039 140.013C65.5759 140.013 66.0612 139.803 66.3599 139.383C66.6586 138.958 66.8079 138.263 66.8079 137.297C66.8032 136.751 66.7356 136.289 66.6049 135.911C66.4742 135.533 66.2712 135.248 65.9959 135.057C65.7252 134.861 65.3682 134.763 64.9249 134.763C64.3696 134.763 63.9169 134.964 63.5669 135.365C63.2169 135.762 63.0419 136.406 63.0419 137.297C63.0419 138.174 63.2006 138.846 63.5179 139.313C63.8399 139.78 64.3019 140.013 64.9039 140.013ZM72.9981 141.14C72.4941 141.14 72.0204 141.061 71.5771 140.902C71.1384 140.743 70.7697 140.494 70.4711 140.153C70.1771 139.812 69.9927 139.376 69.9181 138.844H71.2551C71.3157 139.119 71.4301 139.348 71.5981 139.53C71.7707 139.707 71.9761 139.84 72.2141 139.929C72.4567 140.013 72.7157 140.055 72.9911 140.055C73.4484 140.055 73.8171 139.973 74.0971 139.81C74.3817 139.642 74.5241 139.385 74.5241 139.04C74.5241 138.793 74.4471 138.594 74.2931 138.445C74.1437 138.296 73.9057 138.186 73.5791 138.116L72.1371 137.773C71.5397 137.633 71.0614 137.411 70.7021 137.108C70.3427 136.8 70.1607 136.371 70.1561 135.82C70.1561 135.395 70.2611 135.017 70.4711 134.686C70.6857 134.355 71.0031 134.096 71.4231 133.909C71.8431 133.718 72.3657 133.622 72.9911 133.622C73.8077 133.622 74.4634 133.804 74.9581 134.168C75.4527 134.532 75.7094 135.059 75.7281 135.75H74.4331C74.3864 135.419 74.2347 135.16 73.9781 134.973C73.7261 134.782 73.3924 134.686 72.9771 134.686C72.5477 134.686 72.1954 134.772 71.9201 134.945C71.6447 135.113 71.5071 135.372 71.5071 135.722C71.5071 135.96 71.6074 136.149 71.8081 136.289C72.0087 136.424 72.3097 136.536 72.7111 136.625L74.0831 136.968C74.4377 137.061 74.7294 137.185 74.9581 137.339C75.1867 137.488 75.3664 137.654 75.4971 137.836C75.6277 138.018 75.7187 138.207 75.7701 138.403C75.8261 138.599 75.8541 138.783 75.8541 138.956C75.8541 139.413 75.7374 139.805 75.5041 140.132C75.2754 140.454 74.9464 140.704 74.5171 140.881C74.0924 141.054 73.5861 141.14 72.9981 141.14ZM82.2357 133.762V141H80.7937V133.762H82.2357ZM82.2637 130.885V132.362H80.7587V130.885H82.2637ZM84.4681 141V133.762H85.9311V134.805C86.0478 134.609 86.2041 134.425 86.4001 134.252C86.6008 134.079 86.8458 133.939 87.1351 133.832C87.4291 133.725 87.7675 133.671 88.1501 133.671C88.6028 133.671 89.0205 133.762 89.4031 133.944C89.7905 134.121 90.1008 134.401 90.3341 134.784C90.5675 135.162 90.6841 135.652 90.6841 136.254V141H89.1861V136.415C89.1861 135.897 89.0461 135.512 88.7661 135.26C88.4908 135.008 88.1338 134.882 87.6951 134.882C87.4011 134.882 87.1211 134.931 86.8551 135.029C86.5891 135.127 86.3745 135.276 86.2111 135.477C86.0478 135.673 85.9661 135.92 85.9661 136.219V141H84.4681ZM94.0729 134.021V135.813H92.3369V134.021H94.0729ZM94.0729 139.173V140.958H92.3369V139.173H94.0729Z" fill="#191C1F"/>
<rect x="103" y="120" width="173" height="32" rx="2" fill="white"/>
<path d="M116.225 141V130.878H122.917L122.91 132.341H117.94V135.176H122.329V136.618H117.926V139.516L123.015 139.523V141H116.225ZM131.775 130.878H133.476V141H131.943L126.854 133.573V141H125.153V130.878H126.819L131.775 138.109V130.878ZM135.926 130.878C135.968 130.878 136.092 130.878 136.297 130.878C136.503 130.878 136.745 130.878 137.025 130.878C137.31 130.878 137.597 130.88 137.886 130.885C138.18 130.885 138.435 130.887 138.649 130.892C139.881 130.915 140.882 131.128 141.652 131.529C142.427 131.926 142.994 132.493 143.353 133.23C143.717 133.963 143.899 134.847 143.899 135.883C143.899 136.966 143.706 137.887 143.318 138.648C142.936 139.409 142.348 139.992 141.554 140.398C140.766 140.799 139.762 141 138.544 141H135.926V130.878ZM137.655 132.285V139.593H138.572C139.268 139.593 139.881 139.474 140.413 139.236C140.945 138.993 141.361 138.601 141.659 138.06C141.963 137.519 142.114 136.795 142.114 135.89C142.114 135.013 141.974 134.31 141.694 133.783C141.414 133.256 141.013 132.875 140.49 132.642C139.968 132.404 139.342 132.285 138.614 132.285H137.655ZM149.369 141.14C148.879 141.14 148.401 141.079 147.934 140.958C147.467 140.832 147.043 140.648 146.66 140.405C146.282 140.158 145.967 139.852 145.715 139.488C145.463 139.119 145.309 138.69 145.253 138.2H147.017C147.092 138.541 147.239 138.828 147.458 139.061C147.677 139.294 147.95 139.472 148.277 139.593C148.608 139.714 148.97 139.775 149.362 139.775C149.782 139.775 150.16 139.719 150.496 139.607C150.837 139.495 151.105 139.332 151.301 139.117C151.502 138.902 151.602 138.639 151.602 138.326C151.602 138.051 151.53 137.817 151.385 137.626C151.24 137.435 151.037 137.278 150.776 137.157C150.519 137.031 150.218 136.931 149.873 136.856L148.011 136.45C147.26 136.296 146.665 135.997 146.226 135.554C145.787 135.111 145.563 134.52 145.554 133.783C145.549 133.172 145.71 132.64 146.037 132.187C146.368 131.73 146.819 131.377 147.388 131.13C147.957 130.878 148.601 130.752 149.32 130.752C150.16 130.752 150.867 130.89 151.441 131.165C152.02 131.436 152.456 131.8 152.75 132.257C153.049 132.714 153.2 133.216 153.205 133.762H151.483C151.441 133.361 151.32 133.041 151.119 132.803C150.923 132.565 150.671 132.395 150.363 132.292C150.055 132.189 149.714 132.138 149.341 132.138C149.061 132.138 148.8 132.171 148.557 132.236C148.314 132.301 148.102 132.397 147.92 132.523C147.738 132.649 147.596 132.803 147.493 132.985C147.395 133.162 147.346 133.365 147.346 133.594C147.346 133.921 147.453 134.187 147.668 134.392C147.887 134.593 148.296 134.763 148.893 134.903L150.713 135.309C151.278 135.421 151.733 135.589 152.078 135.813C152.423 136.037 152.687 136.294 152.869 136.583C153.051 136.868 153.172 137.159 153.233 137.458C153.294 137.757 153.324 138.041 153.324 138.312C153.324 138.839 153.161 139.318 152.834 139.747C152.512 140.176 152.055 140.517 151.462 140.769C150.874 141.016 150.176 141.14 149.369 141.14ZM162.435 141.14C161.501 141.14 160.694 140.935 160.013 140.524C159.336 140.113 158.811 139.521 158.438 138.746C158.069 137.971 157.885 137.043 157.885 135.96C157.885 134.868 158.071 133.932 158.445 133.153C158.818 132.374 159.345 131.776 160.027 131.361C160.713 130.946 161.515 130.738 162.435 130.738C163.354 130.738 164.15 130.946 164.822 131.361C165.498 131.776 166.021 132.374 166.39 133.153C166.758 133.932 166.943 134.868 166.943 135.96C166.943 137.043 166.761 137.971 166.397 138.746C166.033 139.516 165.512 140.109 164.836 140.524C164.159 140.935 163.359 141.14 162.435 141.14ZM162.435 139.712C162.985 139.712 163.459 139.584 163.856 139.327C164.252 139.066 164.556 138.662 164.766 138.116C164.98 137.565 165.088 136.854 165.088 135.981C165.088 135.094 164.98 134.371 164.766 133.811C164.551 133.246 164.245 132.831 163.849 132.565C163.452 132.299 162.981 132.166 162.435 132.166C161.884 132.166 161.408 132.301 161.007 132.572C160.61 132.838 160.302 133.253 160.083 133.818C159.863 134.378 159.754 135.099 159.754 135.981C159.754 136.854 159.863 137.565 160.083 138.116C160.302 138.662 160.61 139.066 161.007 139.327C161.408 139.584 161.884 139.712 162.435 139.712ZM168.875 130.878H175.497L175.49 132.32H170.604V135.232H174.916V136.653H170.604V141H168.875V130.878ZM184.369 130.738C185.111 130.738 185.769 130.89 186.343 131.193C186.917 131.492 187.379 131.898 187.729 132.411C188.084 132.924 188.294 133.496 188.359 134.126H186.56C186.49 133.753 186.359 133.419 186.168 133.125C185.981 132.831 185.734 132.598 185.426 132.425C185.118 132.252 184.749 132.166 184.32 132.166C183.783 132.166 183.326 132.294 182.948 132.551C182.575 132.803 182.288 133.204 182.087 133.755C181.891 134.306 181.793 135.02 181.793 135.897C181.793 137.227 182.012 138.195 182.451 138.802C182.89 139.409 183.513 139.712 184.32 139.712C184.749 139.712 185.118 139.619 185.426 139.432C185.734 139.241 185.981 138.989 186.168 138.676C186.359 138.359 186.49 138.013 186.56 137.64H188.359C188.303 138.097 188.186 138.536 188.009 138.956C187.836 139.376 187.591 139.752 187.274 140.083C186.957 140.41 186.558 140.669 186.077 140.86C185.601 141.047 185.032 141.14 184.369 141.14C183.44 141.14 182.642 140.928 181.975 140.503C181.312 140.074 180.801 139.467 180.442 138.683C180.087 137.894 179.91 136.959 179.91 135.876C179.91 134.798 180.087 133.876 180.442 133.111C180.797 132.346 181.305 131.76 181.968 131.354C182.635 130.943 183.436 130.738 184.369 130.738ZM196.887 136.506H191.987V141H190.286V130.878H191.987V135.057H196.887V130.878H198.588V141H196.887V136.506ZM208.606 141H206.828L205.085 136.891H202.733V141H201.032V130.878H205.141C205.915 130.878 206.552 130.999 207.052 131.242C207.556 131.48 207.929 131.818 208.172 132.257C208.414 132.691 208.536 133.2 208.536 133.783C208.536 134.324 208.447 134.779 208.27 135.148C208.092 135.512 207.861 135.811 207.577 136.044C207.297 136.273 206.996 136.459 206.674 136.604L208.606 141ZM204.756 135.54C205.4 135.54 205.901 135.391 206.261 135.092C206.625 134.793 206.807 134.378 206.807 133.846C206.807 133.323 206.639 132.92 206.303 132.635C205.967 132.35 205.523 132.208 204.973 132.208H202.733V135.54H204.756ZM210.643 130.878H212.344V141H210.643V130.878ZM218.439 141.14C217.949 141.14 217.471 141.079 217.004 140.958C216.538 140.832 216.113 140.648 215.73 140.405C215.352 140.158 215.037 139.852 214.785 139.488C214.533 139.119 214.379 138.69 214.323 138.2H216.087C216.162 138.541 216.309 138.828 216.528 139.061C216.748 139.294 217.021 139.472 217.347 139.593C217.679 139.714 218.04 139.775 218.432 139.775C218.852 139.775 219.23 139.719 219.566 139.607C219.907 139.495 220.175 139.332 220.371 139.117C220.572 138.902 220.672 138.639 220.672 138.326C220.672 138.051 220.6 137.817 220.455 137.626C220.311 137.435 220.108 137.278 219.846 137.157C219.59 137.031 219.289 136.931 218.943 136.856L217.081 136.45C216.33 136.296 215.735 135.997 215.296 135.554C214.858 135.111 214.634 134.52 214.624 133.783C214.62 133.172 214.781 132.64 215.107 132.187C215.439 131.73 215.889 131.377 216.458 131.13C217.028 130.878 217.672 130.752 218.39 130.752C219.23 130.752 219.937 130.89 220.511 131.165C221.09 131.436 221.526 131.8 221.82 132.257C222.119 132.714 222.271 133.216 222.275 133.762H220.553C220.511 133.361 220.39 133.041 220.189 132.803C219.993 132.565 219.741 132.395 219.433 132.292C219.125 132.189 218.785 132.138 218.411 132.138C218.131 132.138 217.87 132.171 217.627 132.236C217.385 132.301 217.172 132.397 216.99 132.523C216.808 132.649 216.666 132.803 216.563 132.985C216.465 133.162 216.416 133.365 216.416 133.594C216.416 133.921 216.524 134.187 216.738 134.392C216.958 134.593 217.366 134.763 217.963 134.903L219.783 135.309C220.348 135.421 220.803 135.589 221.148 135.813C221.494 136.037 221.757 136.294 221.939 136.583C222.121 136.868 222.243 137.159 222.303 137.458C222.364 137.757 222.394 138.041 222.394 138.312C222.394 138.839 222.231 139.318 221.904 139.747C221.582 140.176 221.125 140.517 220.532 140.769C219.944 141.016 219.247 141.14 218.439 141.14ZM223.329 132.411V130.878H231.225V132.411H228.187V141H226.479V132.411H223.329ZM232.75 141V130.878H235.186L237.839 138.613L240.52 130.878H242.942V141H241.213V133.062L238.546 141H237.125L234.479 133.111V141H232.75ZM244.648 141L248.288 130.878H250.129L253.762 141H252.054L251.151 138.459H247.287L246.363 141H244.648ZM247.679 136.947H250.731L249.212 132.537L247.679 136.947ZM258.894 141.14C258.404 141.14 257.926 141.079 257.459 140.958C256.993 140.832 256.568 140.648 256.185 140.405C255.807 140.158 255.492 139.852 255.24 139.488C254.988 139.119 254.834 138.69 254.778 138.2H256.542C256.617 138.541 256.764 138.828 256.983 139.061C257.203 139.294 257.476 139.472 257.802 139.593C258.134 139.714 258.495 139.775 258.887 139.775C259.307 139.775 259.685 139.719 260.021 139.607C260.362 139.495 260.63 139.332 260.826 139.117C261.027 138.902 261.127 138.639 261.127 138.326C261.127 138.051 261.055 137.817 260.91 137.626C260.766 137.435 260.563 137.278 260.301 137.157C260.045 137.031 259.744 136.931 259.398 136.856L257.536 136.45C256.785 136.296 256.19 135.997 255.751 135.554C255.313 135.111 255.089 134.52 255.079 133.783C255.075 133.172 255.236 132.64 255.562 132.187C255.894 131.73 256.344 131.377 256.913 131.13C257.483 130.878 258.127 130.752 258.845 130.752C259.685 130.752 260.392 130.89 260.966 131.165C261.545 131.436 261.981 131.8 262.275 132.257C262.574 132.714 262.726 133.216 262.73 133.762H261.008C260.966 133.361 260.845 133.041 260.644 132.803C260.448 132.565 260.196 132.395 259.888 132.292C259.58 132.189 259.24 132.138 258.866 132.138C258.586 132.138 258.325 132.171 258.082 132.236C257.84 132.301 257.627 132.397 257.445 132.523C257.263 132.649 257.121 132.803 257.018 132.985C256.92 133.162 256.871 133.365 256.871 133.594C256.871 133.921 256.979 134.187 257.193 134.392C257.413 134.593 257.821 134.763 258.418 134.903L260.238 135.309C260.803 135.421 261.258 135.589 261.603 135.813C261.949 136.037 262.212 136.294 262.394 136.583C262.576 136.868 262.698 137.159 262.758 137.458C262.819 137.757 262.849 138.041 262.849 138.312C262.849 138.839 262.686 139.318 262.359 139.747C262.037 140.176 261.58 140.517 260.987 140.769C260.399 141.016 259.702 141.14 258.894 141.14Z" fill="#191C1F"/>
</svg>
