<svg width="280" height="248" viewBox="0 0 280 248" fill="none" xmlns="http://www.w3.org/2000/svg">
<rect width="159" height="32" rx="2" fill="#EFD33D"/>
<path d="M13.225 10.878H14.926V21H13.225V10.878ZM24.0033 10.878H25.7043V21H24.1713L19.0823 13.573V21H17.3813V10.878H19.0473L24.0033 18.109V10.878ZM27.2237 12.411V10.878H35.1197V12.411H32.0817V21H30.3737V12.411H27.2237ZM44.2189 21H42.4409L40.6979 16.891H38.3459V21H36.6449V10.878H40.7539C41.5286 10.878 42.1656 10.9993 42.6649 11.242C43.1689 11.48 43.5423 11.8183 43.7849 12.257C44.0276 12.691 44.1489 13.1997 44.1489 13.783C44.1489 14.3243 44.0603 14.7793 43.8829 15.148C43.7056 15.512 43.4746 15.8107 43.1899 16.044C42.9099 16.2727 42.6089 16.4593 42.2869 16.604L44.2189 21ZM40.3689 15.54C41.0129 15.54 41.5146 15.3907 41.8739 15.092C42.2379 14.7933 42.4199 14.378 42.4199 13.846C42.4199 13.3233 42.2519 12.9197 41.9159 12.635C41.5799 12.3503 41.1366 12.208 40.5859 12.208H38.3459V15.54H40.3689ZM50.1105 21.14C49.1772 21.14 48.3698 20.9347 47.6885 20.524C47.0118 20.1133 46.4868 19.5207 46.1135 18.746C45.7448 17.9713 45.5605 17.0427 45.5605 15.96C45.5605 14.868 45.7472 13.9323 46.1205 13.153C46.4938 12.3737 47.0212 11.7763 47.7025 11.361C48.3885 10.9457 49.1912 10.738 50.1105 10.738C51.0298 10.738 51.8255 10.9457 52.4975 11.361C53.1742 11.7763 53.6968 12.3737 54.0655 13.153C54.4342 13.9323 54.6185 14.868 54.6185 15.96C54.6185 17.0427 54.4365 17.9713 54.0725 18.746C53.7085 19.516 53.1882 20.1087 52.5115 20.524C51.8348 20.9347 51.0345 21.14 50.1105 21.14ZM50.1105 19.712C50.6612 19.712 51.1348 19.5837 51.5315 19.327C51.9282 19.0657 52.2315 18.662 52.4415 18.116C52.6562 17.5653 52.7635 16.8537 52.7635 15.981C52.7635 15.0943 52.6562 14.371 52.4415 13.811C52.2268 13.2463 51.9212 12.831 51.5245 12.565C51.1278 12.299 50.6565 12.166 50.1105 12.166C49.5598 12.166 49.0838 12.3013 48.6825 12.572C48.2858 12.838 47.9778 13.2533 47.7585 13.818C47.5392 14.378 47.4295 15.099 47.4295 15.981C47.4295 16.8537 47.5392 17.5653 47.7585 18.116C47.9778 18.662 48.2858 19.0657 48.6825 19.327C49.0838 19.5837 49.5598 19.712 50.1105 19.712ZM56.5512 10.878C56.5932 10.878 56.7168 10.878 56.9222 10.878C57.1275 10.878 57.3702 10.878 57.6502 10.878C57.9348 10.878 58.2218 10.8803 58.5112 10.885C58.8052 10.885 59.0595 10.8873 59.2742 10.892C60.5062 10.9153 61.5072 11.1277 62.2772 11.529C63.0518 11.9257 63.6188 12.4927 63.9782 13.23C64.3422 13.9627 64.5242 14.847 64.5242 15.883C64.5242 16.9657 64.3305 17.8873 63.9432 18.648C63.5605 19.4087 62.9725 19.992 62.1792 20.398C61.3905 20.7993 60.3872 21 59.1692 21H56.5512V10.878ZM58.2802 12.285V19.593H59.1972C59.8925 19.593 60.5062 19.474 61.0382 19.236C61.5702 18.9933 61.9855 18.6013 62.2842 18.06C62.5875 17.5187 62.7392 16.7953 62.7392 15.89C62.7392 15.0127 62.5992 14.3103 62.3192 13.783C62.0392 13.2557 61.6378 12.8753 61.1152 12.642C60.5925 12.404 59.9672 12.285 59.2392 12.285H58.2802ZM74.2473 17.304C74.2473 18.1067 74.1166 18.795 73.8553 19.369C73.5939 19.9383 73.1763 20.377 72.6023 20.685C72.0329 20.9883 71.2816 21.14 70.3483 21.14C69.4149 21.14 68.6613 20.986 68.0873 20.678C67.5179 20.3653 67.1049 19.9173 66.8483 19.334C66.5916 18.746 66.4633 18.0367 66.4633 17.206V10.878H68.2063V17.381C68.2063 18.165 68.3976 18.7437 68.7803 19.117C69.1676 19.4903 69.6903 19.677 70.3483 19.677C70.7916 19.677 71.1766 19.5953 71.5033 19.432C71.8299 19.2687 72.0819 19.019 72.2593 18.683C72.4366 18.3423 72.5253 17.9083 72.5253 17.381V10.878H74.2473V17.304ZM80.3984 10.738C81.1404 10.738 81.7984 10.8897 82.3724 11.193C82.9464 11.4917 83.4084 11.8977 83.7584 12.411C84.1131 12.9243 84.3231 13.496 84.3884 14.126H82.5894C82.5194 13.7527 82.3888 13.419 82.1974 13.125C82.0108 12.831 81.7634 12.5977 81.4554 12.425C81.1474 12.2523 80.7788 12.166 80.3494 12.166C79.8128 12.166 79.3554 12.2943 78.9774 12.551C78.6041 12.803 78.3171 13.2043 78.1164 13.755C77.9204 14.3057 77.8224 15.0197 77.8224 15.897C77.8224 17.227 78.0418 18.1953 78.4804 18.802C78.9191 19.4087 79.5421 19.712 80.3494 19.712C80.7788 19.712 81.1474 19.6187 81.4554 19.432C81.7634 19.2407 82.0108 18.9887 82.1974 18.676C82.3888 18.3587 82.5194 18.0133 82.5894 17.64H84.3884C84.3324 18.0973 84.2158 18.536 84.0384 18.956C83.8658 19.376 83.6208 19.7517 83.3034 20.083C82.9861 20.4097 82.5871 20.6687 82.1064 20.86C81.6304 21.0467 81.0611 21.14 80.3984 21.14C79.4698 21.14 78.6718 20.9277 78.0044 20.503C77.3418 20.0737 76.8308 19.467 76.4714 18.683C76.1168 17.8943 75.9394 16.9587 75.9394 15.876C75.9394 14.798 76.1168 13.8763 76.4714 13.111C76.8261 12.3457 77.3348 11.76 77.9974 11.354C78.6648 10.9433 79.4651 10.738 80.3984 10.738ZM86.3148 10.878H88.0158V21H86.3148V10.878ZM97.0931 10.878H98.7941V21H97.2611L92.1721 13.573V21H90.4711V10.878H92.1371L97.0931 18.109V10.878ZM105.165 21.14C104.259 21.14 103.473 20.9323 102.806 20.517C102.138 20.1017 101.625 19.509 101.266 18.739C100.906 17.9643 100.727 17.0403 100.727 15.967C100.727 14.8843 100.913 13.951 101.287 13.167C101.66 12.383 102.185 11.7833 102.862 11.368C103.543 10.948 104.341 10.738 105.256 10.738C105.816 10.738 106.331 10.8313 106.803 11.018C107.279 11.2047 107.694 11.4567 108.049 11.774C108.408 12.0913 108.69 12.453 108.896 12.859C109.101 13.265 109.215 13.6873 109.239 14.126H107.44C107.374 13.7807 107.241 13.4633 107.041 13.174C106.845 12.88 106.59 12.6443 106.278 12.467C105.97 12.2897 105.617 12.201 105.221 12.201C104.712 12.201 104.257 12.3293 103.856 12.586C103.459 12.8427 103.146 13.2463 102.918 13.797C102.694 14.343 102.582 15.0523 102.582 15.925C102.582 16.6157 102.652 17.199 102.792 17.675C102.936 18.1463 103.132 18.5267 103.38 18.816C103.632 19.1007 103.921 19.3083 104.248 19.439C104.574 19.565 104.92 19.628 105.284 19.628C105.638 19.628 105.951 19.5673 106.222 19.446C106.492 19.3247 106.721 19.166 106.908 18.97C107.099 18.774 107.246 18.564 107.349 18.34C107.456 18.1113 107.519 17.8897 107.538 17.675L107.601 16.933H105.34V15.729L109.379 15.743V21H108.175V19.579C108.002 19.8357 107.783 20.083 107.517 20.321C107.255 20.559 106.933 20.755 106.551 20.909C106.173 21.063 105.711 21.14 105.165 21.14ZM121.415 10.878H123.116V21H121.583L116.494 13.573V21H114.793V10.878H116.459L121.415 18.109V10.878ZM125.567 21V10.878H132.259L132.252 12.341H127.282V15.176H131.671V16.618H127.268V19.516L132.357 19.523V21H125.567ZM146.389 10.878L143.414 21H141.979L139.935 13.825L137.863 21H136.463L133.509 10.878H135.189L137.24 18.186L139.298 10.878H140.572L142.644 18.186L144.702 10.878H146.389Z" fill="#191C1F"/>
<path d="M21.44 72H16.608L10.912 63.104L5.312 72H1.088L8.848 60.224L1.344 48.864H6.144L11.28 56.96L16.384 48.864H20.576L13.328 59.76L21.44 72ZM28.6615 55.456V72H24.9175V55.456H28.6615ZM28.7095 48.88V52.56H24.8535V48.88H28.7095ZM38.0523 72.32C36.9963 72.32 36.0469 72.128 35.2043 71.744C34.3723 71.3493 33.7163 70.7893 33.2363 70.064C32.7669 69.328 32.5323 68.4373 32.5323 67.392C32.5323 65.568 33.1883 64.192 34.5003 63.264C35.8229 62.336 37.9296 61.8507 40.8203 61.808L43.2843 61.744V60.624C43.2843 59.7493 43.0229 59.0667 42.5003 58.576C41.9883 58.0747 41.1883 57.8293 40.1003 57.84C39.3003 57.8507 38.5643 58.0427 37.8923 58.416C37.2309 58.7787 36.7936 59.392 36.5803 60.256H33.2682C33.3323 59.1253 33.6576 58.1813 34.2443 57.424C34.8416 56.656 35.6576 56.0853 36.6923 55.712C37.7269 55.328 38.9216 55.136 40.2763 55.136C41.8549 55.136 43.1403 55.344 44.1323 55.76C45.1243 56.176 45.8549 56.7787 46.3243 57.568C46.7936 58.3467 47.0283 59.2907 47.0283 60.4V72H43.7483L43.4443 69.024C42.8469 70.272 42.0896 71.136 41.1723 71.616C40.2656 72.0853 39.2256 72.32 38.0523 72.32ZM39.3163 69.68C39.7963 69.68 40.2709 69.5947 40.7403 69.424C41.2096 69.2427 41.6363 69.0027 42.0203 68.704C42.4043 68.3947 42.7083 68.0533 42.9323 67.68C43.1669 67.3067 43.2843 66.9173 43.2843 66.512V63.904L41.2523 63.936C40.2496 63.9467 39.3749 64.0533 38.6283 64.256C37.8816 64.4587 37.2949 64.784 36.8683 65.232C36.4523 65.6693 36.2443 66.256 36.2443 66.992C36.2443 67.8347 36.5376 68.496 37.1243 68.976C37.7109 69.4453 38.4416 69.68 39.3163 69.68ZM58.447 72.32C56.8683 72.32 55.4923 71.984 54.319 71.312C53.1457 70.6293 52.2337 69.6533 51.583 68.384C50.943 67.1147 50.623 65.5893 50.623 63.808C50.623 62.08 50.9323 60.5653 51.551 59.264C52.1803 57.9627 53.0817 56.9493 54.255 56.224C55.4283 55.4987 56.831 55.136 58.463 55.136C60.0417 55.136 61.4123 55.4827 62.575 56.176C63.7377 56.8693 64.6337 57.8613 65.263 59.152C65.903 60.4427 66.223 61.9947 66.223 63.808C66.223 65.4827 65.919 66.96 65.311 68.24C64.7137 69.5093 63.8337 70.5067 62.671 71.232C61.519 71.9573 60.111 72.32 58.447 72.32ZM58.463 69.36C59.359 69.36 60.095 69.1147 60.671 68.624C61.2577 68.1333 61.6897 67.4613 61.967 66.608C62.255 65.7547 62.399 64.784 62.399 63.696C62.399 62.6827 62.271 61.7493 62.015 60.896C61.7697 60.0427 61.3537 59.36 60.767 58.848C60.191 58.3253 59.423 58.064 58.463 58.064C57.5563 58.064 56.8043 58.304 56.207 58.784C55.6203 59.2533 55.1777 59.9147 54.879 60.768C54.591 61.6107 54.447 62.5867 54.447 63.696C54.447 64.6987 54.575 65.632 54.831 66.496C55.0977 67.3493 55.5243 68.0427 56.111 68.576C56.6977 69.0987 57.4817 69.36 58.463 69.36ZM69.6768 72V55.456H73.4688V57.824C73.9488 57.0987 74.5994 56.4693 75.4208 55.936C76.2528 55.4027 77.3088 55.136 78.5888 55.136C79.1754 55.136 79.7674 55.2373 80.3648 55.44C80.9728 55.6427 81.5328 55.9413 82.0448 56.336C82.5674 56.7307 82.9834 57.2213 83.2928 57.808C83.8154 57.0293 84.5088 56.3893 85.3728 55.888C86.2474 55.3867 87.2288 55.136 88.3168 55.136C88.9141 55.136 89.5274 55.232 90.1568 55.424C90.7968 55.616 91.3834 55.936 91.9168 56.384C92.4501 56.832 92.8821 57.4453 93.2128 58.224C93.5434 58.992 93.7088 59.9573 93.7088 61.12V72H89.8208V61.584C89.8208 60.7627 89.6768 60.1173 89.3888 59.648C89.1008 59.1787 88.7274 58.848 88.2688 58.656C87.8208 58.4533 87.3408 58.352 86.8288 58.352C86.3701 58.352 85.8901 58.4427 85.3888 58.624C84.8981 58.8053 84.4768 59.104 84.1248 59.52C83.7834 59.936 83.6128 60.496 83.6128 61.2V72H79.7248V60.96C79.7248 60.384 79.5754 59.904 79.2768 59.52C78.9781 59.136 78.5994 58.848 78.1408 58.656C77.6928 58.4533 77.2341 58.352 76.7648 58.352C76.2848 58.352 75.7941 58.4533 75.2928 58.656C74.8021 58.8587 74.3914 59.168 74.0608 59.584C73.7301 60 73.5648 60.5387 73.5648 61.2V72H69.6768ZM101.912 55.456V72H98.1675V55.456H101.912ZM101.96 48.88V52.56H98.1035V48.88H101.96ZM114.269 72V48.864H119.837L125.901 66.544L132.029 48.864H137.565V72H133.613V53.856L127.517 72H124.269L118.221 53.968V72H114.269ZM146.599 55.456V72H142.855V55.456H146.599ZM146.647 48.88V52.56H142.791V48.88H146.647ZM161.868 72V54.176H157.58V51.856C158.935 51.856 160.007 51.744 160.796 51.52C161.596 51.2853 162.178 50.944 162.54 50.496C162.914 50.048 163.127 49.504 163.18 48.864H165.836V72H161.868ZM175.275 72V54.176H170.987V51.856C172.341 51.856 173.413 51.744 174.203 51.52C175.003 51.2853 175.584 50.944 175.947 50.496C176.32 50.048 176.533 49.504 176.587 48.864H179.243V72H175.275ZM210.623 63.552C210.623 65.3867 210.325 66.96 209.727 68.272C209.13 69.5733 208.175 70.576 206.863 71.28C205.562 71.9733 203.845 72.32 201.711 72.32C199.578 72.32 197.855 71.968 196.543 71.264C195.242 70.5493 194.298 69.5253 193.711 68.192C193.125 66.848 192.831 65.2267 192.831 63.328V48.864H196.815V63.728C196.815 65.52 197.253 66.8427 198.127 67.696C199.013 68.5493 200.207 68.976 201.711 68.976C202.725 68.976 203.605 68.7893 204.351 68.416C205.098 68.0427 205.674 67.472 206.079 66.704C206.485 65.9253 206.687 64.9333 206.687 63.728V48.864H210.623V63.552ZM219.851 72.24C218.784 72.24 217.931 72.1067 217.291 71.84C216.651 71.5733 216.171 71.216 215.851 70.768C215.531 70.32 215.323 69.8187 215.227 69.264C215.131 68.6987 215.083 68.1227 215.083 67.536V48.224H218.891V67.088C218.891 67.8027 219.035 68.3573 219.323 68.752C219.622 69.1467 220.102 69.376 220.763 69.44L221.595 69.472V71.92C221.307 72.0053 221.014 72.08 220.715 72.144C220.416 72.208 220.128 72.24 219.851 72.24ZM233.46 58.208H229.764L229.78 67.696C229.78 68.1867 229.833 68.5493 229.94 68.784C230.057 69.008 230.238 69.1573 230.484 69.232C230.74 69.296 231.081 69.328 231.508 69.328H233.54V71.792C233.326 71.8773 233.001 71.952 232.564 72.016C232.137 72.0907 231.561 72.128 230.836 72.128C229.524 72.128 228.505 71.9573 227.78 71.616C227.065 71.264 226.569 70.768 226.292 70.128C226.014 69.488 225.876 68.7253 225.876 67.84V58.208H223.188V55.456H225.988L226.964 50.544H229.764V55.44H233.46V58.208ZM237.271 72V55.456H240.999V59.04C241.265 58.2187 241.644 57.52 242.135 56.944C242.636 56.3573 243.223 55.9093 243.895 55.6C244.567 55.2907 245.297 55.136 246.087 55.136C246.279 55.136 246.465 55.1467 246.647 55.168C246.828 55.1893 246.961 55.2267 247.047 55.28V59.008C246.929 58.9547 246.775 58.9173 246.583 58.896C246.401 58.8747 246.241 58.864 246.103 58.864C245.303 58.8 244.593 58.832 243.975 58.96C243.367 59.088 242.849 59.3067 242.423 59.616C242.007 59.9147 241.692 60.2987 241.479 60.768C241.265 61.2267 241.159 61.7653 241.159 62.384V72H237.271ZM254.427 72.32C253.371 72.32 252.422 72.128 251.579 71.744C250.747 71.3493 250.091 70.7893 249.611 70.064C249.142 69.328 248.907 68.4373 248.907 67.392C248.907 65.568 249.563 64.192 250.875 63.264C252.198 62.336 254.305 61.8507 257.195 61.808L259.659 61.744V60.624C259.659 59.7493 259.398 59.0667 258.875 58.576C258.363 58.0747 257.563 57.8293 256.475 57.84C255.675 57.8507 254.939 58.0427 254.267 58.416C253.606 58.7787 253.169 59.392 252.955 60.256H249.643C249.707 59.1253 250.033 58.1813 250.619 57.424C251.217 56.656 252.033 56.0853 253.067 55.712C254.102 55.328 255.297 55.136 256.651 55.136C258.23 55.136 259.515 55.344 260.507 55.76C261.499 56.176 262.23 56.7787 262.699 57.568C263.169 58.3467 263.403 59.2907 263.403 60.4V72H260.123L259.819 69.024C259.222 70.272 258.465 71.136 257.547 71.616C256.641 72.0853 255.601 72.32 254.427 72.32ZM255.691 69.68C256.171 69.68 256.646 69.5947 257.115 69.424C257.585 69.2427 258.011 69.0027 258.395 68.704C258.779 68.3947 259.083 68.0533 259.307 67.68C259.542 67.3067 259.659 66.9173 259.659 66.512V63.904L257.627 63.936C256.625 63.9467 255.75 64.0533 255.003 64.256C254.257 64.4587 253.67 64.784 253.243 65.232C252.827 65.6693 252.619 66.256 252.619 66.992C252.619 67.8347 252.913 68.496 253.499 68.976C254.086 69.4453 254.817 69.68 255.691 69.68ZM5.712 112V94.176H1.424V91.856C2.77867 91.856 3.85067 91.744 4.64 91.52C5.44 91.2853 6.02133 90.944 6.384 90.496C6.75733 90.048 6.97067 89.504 7.024 88.864H9.68V112H5.712ZM15.2943 112V109.92V108.848C15.2943 107.664 15.5129 106.645 15.9503 105.792C16.3876 104.928 16.9689 104.176 17.6943 103.536C18.4196 102.896 19.2143 102.331 20.0783 101.84C20.9529 101.339 21.8169 100.869 22.6703 100.432C23.5343 99.984 24.3289 99.5253 25.0543 99.056C25.7796 98.576 26.3609 98.0427 26.7983 97.456C27.2463 96.8693 27.4703 96.1707 27.4703 95.36C27.4703 94.3253 27.1023 93.4827 26.3663 92.832C25.6409 92.1707 24.6543 91.84 23.4062 91.84C22.0836 91.84 20.9903 92.2187 20.1263 92.976C19.2729 93.7333 18.7663 94.8 18.6063 96.176H14.8303C14.8516 94.768 15.1876 93.488 15.8383 92.336C16.4889 91.184 17.4543 90.2667 18.7343 89.584C20.0143 88.8907 21.6089 88.544 23.5183 88.544C25.1716 88.544 26.5956 88.832 27.7903 89.408C28.9956 89.9733 29.9236 90.768 30.5743 91.792C31.2356 92.8053 31.5663 93.9893 31.5663 95.344C31.5663 96.528 31.3476 97.5413 30.9103 98.384C30.4836 99.2267 29.9129 99.9573 29.1983 100.576C28.4943 101.184 27.7156 101.723 26.8623 102.192C26.0196 102.661 25.1716 103.104 24.3183 103.52C23.4756 103.925 22.6969 104.352 21.9823 104.8C21.2783 105.237 20.7076 105.739 20.2703 106.304C19.8436 106.869 19.6303 107.547 19.6303 108.336V108.672H31.6143V112H15.2943ZM44.9163 112.32C42.8469 112.32 41.0496 111.845 39.5243 110.896C37.9989 109.947 36.8256 108.592 36.0043 106.832C35.1829 105.061 34.7723 102.949 34.7723 100.496C34.7723 98.0213 35.1989 95.888 36.0523 94.096C36.9056 92.304 38.1056 90.9333 39.6523 89.984C41.2096 89.024 43.0336 88.544 45.1243 88.544C46.4043 88.544 47.5829 88.7573 48.6603 89.184C49.7483 89.6107 50.6976 90.1867 51.5083 90.912C52.3296 91.6373 52.9749 92.464 53.4443 93.392C53.9136 94.32 54.1749 95.2853 54.2283 96.288H50.1163C49.9669 95.4987 49.6629 94.7733 49.2043 94.112C48.7563 93.44 48.1749 92.9013 47.4603 92.496C46.7563 92.0907 45.9509 91.888 45.0443 91.888C43.8816 91.888 42.8416 92.1813 41.9243 92.768C41.0176 93.3547 40.3029 94.2773 39.7803 95.536C39.2683 96.784 39.0123 98.4053 39.0123 100.4C39.0123 101.979 39.1723 103.312 39.4923 104.4C39.8229 105.477 40.2709 106.347 40.8363 107.008C41.4123 107.659 42.0736 108.133 42.8203 108.432C43.5669 108.72 44.3563 108.864 45.1883 108.864C45.9989 108.864 46.7136 108.725 47.3323 108.448C47.9509 108.171 48.4736 107.808 48.9003 107.36C49.3376 106.912 49.6736 106.432 49.9083 105.92C50.1536 105.397 50.2976 104.891 50.3403 104.4L50.4843 102.704H45.3163V99.952L54.5483 99.984V112H51.7963V108.752C51.4016 109.339 50.9003 109.904 50.2923 110.448C49.6949 110.992 48.9589 111.44 48.0843 111.792C47.2203 112.144 46.1643 112.32 44.9163 112.32ZM59.8625 112V88.864H67.8145C70.7478 88.864 72.9398 89.3867 74.3905 90.432C75.8518 91.4667 76.5825 92.96 76.5825 94.912C76.5825 96.096 76.2785 97.12 75.6705 97.984C75.0625 98.848 73.9905 99.5787 72.4545 100.176C73.3932 100.4 74.1665 100.709 74.7745 101.104C75.3932 101.488 75.8732 101.931 76.2145 102.432C76.5558 102.923 76.7958 103.451 76.9345 104.016C77.0732 104.581 77.1425 105.163 77.1425 105.76C77.1425 107.872 76.4065 109.44 74.9345 110.464C73.4732 111.488 71.2065 112 68.1345 112H59.8625ZM63.7505 108.896H68.1825C69.8252 108.896 71.0678 108.603 71.9105 108.016C72.7638 107.419 73.1905 106.56 73.1905 105.44C73.1905 104.629 72.9825 103.963 72.5665 103.44C72.1505 102.907 71.5852 102.512 70.8705 102.256C70.1558 102 69.3558 101.872 68.4705 101.872H63.7505V108.896ZM63.7505 98.72H68.4705C69.0145 98.72 69.5425 98.6613 70.0545 98.544C70.5665 98.4267 71.0305 98.24 71.4465 97.984C71.8625 97.728 72.1932 97.3867 72.4385 96.96C72.6945 96.5333 72.8225 96.016 72.8225 95.408C72.8225 94.2453 72.3798 93.3813 71.4945 92.816C70.6198 92.24 69.4945 91.952 68.1185 91.952H63.7505V98.72ZM95.182 98.912V101.808L80.654 101.824V98.928L95.182 98.912ZM89.39 107.616H86.494L86.478 93.088H89.374L89.39 107.616ZM98.9818 112V109.92V108.848C98.9818 107.664 99.2004 106.645 99.6378 105.792C100.075 104.928 100.656 104.176 101.382 103.536C102.107 102.896 102.902 102.331 103.766 101.84C104.64 101.339 105.504 100.869 106.358 100.432C107.222 99.984 108.016 99.5253 108.742 99.056C109.467 98.576 110.048 98.0427 110.486 97.456C110.934 96.8693 111.158 96.1707 111.158 95.36C111.158 94.3253 110.79 93.4827 110.054 92.832C109.328 92.1707 108.342 91.84 107.094 91.84C105.771 91.84 104.678 92.2187 103.814 92.976C102.96 93.7333 102.454 94.8 102.294 96.176H98.5178C98.5391 94.768 98.8751 93.488 99.5258 92.336C100.176 91.184 101.142 90.2667 102.422 89.584C103.702 88.8907 105.296 88.544 107.206 88.544C108.859 88.544 110.283 88.832 111.478 89.408C112.683 89.9733 113.611 90.768 114.262 91.792C114.923 92.8053 115.254 93.9893 115.254 95.344C115.254 96.528 115.035 97.5413 114.598 98.384C114.171 99.2267 113.6 99.9573 112.886 100.576C112.182 101.184 111.403 101.723 110.55 102.192C109.707 102.661 108.859 103.104 108.006 103.52C107.163 103.925 106.384 104.352 105.67 104.8C104.966 105.237 104.395 105.739 103.958 106.304C103.531 106.869 103.318 107.547 103.318 108.336V108.672H115.302V112H98.9818ZM120.636 88.864H135.02L134.876 92.112H123.804L123.276 98.544C124.097 97.968 124.924 97.552 125.756 97.296C126.588 97.04 127.505 96.912 128.508 96.912C129.98 96.912 131.318 97.2 132.524 97.776C133.729 98.352 134.689 99.2 135.404 100.32C136.118 101.44 136.476 102.811 136.476 104.432C136.476 106.053 136.113 107.456 135.388 108.64C134.673 109.824 133.66 110.741 132.348 111.392C131.046 112.032 129.505 112.352 127.724 112.352C126.252 112.352 124.881 112.112 123.612 111.632C122.353 111.141 121.265 110.469 120.348 109.616C119.441 108.763 118.764 107.787 118.316 106.688L121.468 105.024C121.862 105.813 122.332 106.523 122.876 107.152C123.43 107.781 124.076 108.277 124.812 108.64C125.558 108.992 126.412 109.168 127.372 109.168C128.876 109.168 130.081 108.752 130.988 107.92C131.905 107.077 132.364 105.957 132.364 104.56C132.364 103.696 132.15 102.928 131.724 102.256C131.308 101.584 130.737 101.061 130.012 100.688C129.297 100.304 128.481 100.112 127.564 100.112C127.02 100.112 126.508 100.16 126.028 100.256C125.558 100.352 125.084 100.533 124.604 100.8C124.124 101.056 123.606 101.445 123.052 101.968C122.945 102.021 122.865 102.048 122.812 102.048C122.769 102.037 122.689 102.005 122.572 101.952L119.58 100.736L120.636 88.864ZM148.818 88.544C150.183 88.544 151.447 88.8 152.61 89.312C153.772 89.8133 154.727 90.5387 155.474 91.488C156.22 92.4373 156.658 93.584 156.786 94.928H153.186C152.887 93.8933 152.375 93.0933 151.65 92.528C150.924 91.9627 150.007 91.68 148.898 91.68C147.671 91.68 146.647 92.0267 145.826 92.72C145.004 93.4133 144.412 94.4107 144.05 95.712C143.698 97.0027 143.586 98.5493 143.714 100.352C144.044 99.7227 144.492 99.1787 145.058 98.72C145.623 98.2507 146.268 97.888 146.994 97.632C147.719 97.376 148.487 97.248 149.298 97.248C150.844 97.248 152.199 97.5413 153.362 98.128C154.524 98.7147 155.431 99.5467 156.082 100.624C156.732 101.701 157.058 102.976 157.058 104.448C157.058 105.973 156.706 107.333 156.002 108.528C155.298 109.712 154.311 110.645 153.042 111.328C151.772 112.011 150.29 112.352 148.594 112.352C146.706 112.352 145.074 111.883 143.698 110.944C142.322 110.005 141.26 108.677 140.514 106.96C139.778 105.232 139.41 103.189 139.41 100.832C139.41 98.3253 139.778 96.1547 140.514 94.32C141.25 92.4747 142.316 91.0507 143.714 90.048C145.122 89.0453 146.823 88.544 148.818 88.544ZM148.482 100.24C147.746 100.24 147.031 100.411 146.338 100.752C145.655 101.093 145.095 101.536 144.658 102.08C144.231 102.624 144.018 103.205 144.018 103.824C144.007 104.923 144.188 105.883 144.562 106.704C144.935 107.525 145.458 108.165 146.13 108.624C146.812 109.072 147.602 109.296 148.498 109.296C149.33 109.296 150.076 109.099 150.738 108.704C151.41 108.309 151.938 107.76 152.322 107.056C152.716 106.352 152.914 105.541 152.914 104.624C152.914 103.685 152.732 102.891 152.37 102.24C152.007 101.589 151.49 101.093 150.818 100.752C150.156 100.411 149.378 100.24 148.482 100.24ZM170.26 112.32C168.191 112.32 166.393 111.845 164.868 110.896C163.343 109.947 162.169 108.592 161.348 106.832C160.527 105.061 160.116 102.949 160.116 100.496C160.116 98.0213 160.543 95.888 161.396 94.096C162.249 92.304 163.449 90.9333 164.996 89.984C166.553 89.024 168.377 88.544 170.468 88.544C171.748 88.544 172.927 88.7573 174.004 89.184C175.092 89.6107 176.041 90.1867 176.852 90.912C177.673 91.6373 178.319 92.464 178.788 93.392C179.257 94.32 179.519 95.2853 179.572 96.288H175.46C175.311 95.4987 175.007 94.7733 174.548 94.112C174.1 93.44 173.519 92.9013 172.804 92.496C172.1 92.0907 171.295 91.888 170.388 91.888C169.225 91.888 168.185 92.1813 167.268 92.768C166.361 93.3547 165.647 94.2773 165.124 95.536C164.612 96.784 164.356 98.4053 164.356 100.4C164.356 101.979 164.516 103.312 164.836 104.4C165.167 105.477 165.615 106.347 166.18 107.008C166.756 107.659 167.417 108.133 168.164 108.432C168.911 108.72 169.7 108.864 170.532 108.864C171.343 108.864 172.057 108.725 172.676 108.448C173.295 108.171 173.817 107.808 174.244 107.36C174.681 106.912 175.017 106.432 175.252 105.92C175.497 105.397 175.641 104.891 175.684 104.4L175.828 102.704H170.66V99.952L179.892 99.984V112H177.14V108.752C176.745 109.339 176.244 109.904 175.636 110.448C175.039 110.992 174.303 111.44 173.428 111.792C172.564 112.144 171.508 112.32 170.26 112.32ZM185.206 112V88.864H193.158C196.092 88.864 198.284 89.3867 199.734 90.432C201.196 91.4667 201.926 92.96 201.926 94.912C201.926 96.096 201.622 97.12 201.014 97.984C200.406 98.848 199.334 99.5787 197.798 100.176C198.737 100.4 199.51 100.709 200.118 101.104C200.737 101.488 201.217 101.931 201.558 102.432C201.9 102.923 202.14 103.451 202.278 104.016C202.417 104.581 202.486 105.163 202.486 105.76C202.486 107.872 201.75 109.44 200.278 110.464C198.817 111.488 196.55 112 193.478 112H185.206ZM189.094 108.896H193.526C195.169 108.896 196.412 108.603 197.254 108.016C198.108 107.419 198.534 106.56 198.534 105.44C198.534 104.629 198.326 103.963 197.91 103.44C197.494 102.907 196.929 102.512 196.214 102.256C195.5 102 194.7 101.872 193.814 101.872H189.094V108.896ZM189.094 98.72H193.814C194.358 98.72 194.886 98.6613 195.398 98.544C195.91 98.4267 196.374 98.24 196.79 97.984C197.206 97.728 197.537 97.3867 197.782 96.96C198.038 96.5333 198.166 96.016 198.166 95.408C198.166 94.2453 197.724 93.3813 196.838 92.816C195.964 92.24 194.838 91.952 193.462 91.952H189.094V98.72Z" fill="white"/>
<path d="M4.432 143.832L3.184 141.808L1.896 143.88L1.016 143.28L2.528 141.4L0.424 140.808L0.76 139.872L2.768 140.68L2.624 138.432H3.712L3.568 140.688L5.6 139.808L5.904 140.744L3.848 141.392L5.32 143.2L4.432 143.832ZM7.82488 138.432C7.86221 138.432 7.97421 138.435 8.16088 138.44C8.35288 138.44 8.58488 138.44 8.85688 138.44C9.12888 138.435 9.41154 138.435 9.70488 138.44C9.99821 138.44 10.2675 138.443 10.5129 138.448C11.9315 138.469 13.0809 138.701 13.9609 139.144C14.8462 139.581 15.4942 140.219 15.9049 141.056C16.3209 141.893 16.5289 142.923 16.5289 144.144C16.5289 145.424 16.3049 146.499 15.8569 147.368C15.4142 148.237 14.7369 148.893 13.8249 149.336C12.9182 149.779 11.7635 150 10.3609 150H7.82488V138.432ZM9.34488 139.704V148.728H10.3609C11.3155 148.728 12.1369 148.581 12.8249 148.288C13.5129 147.989 14.0409 147.507 14.4089 146.84C14.7822 146.173 14.9689 145.283 14.9689 144.168C14.9689 143.053 14.7875 142.171 14.4249 141.52C14.0675 140.869 13.5502 140.405 12.8729 140.128C12.1955 139.845 11.3795 139.704 10.4249 139.704H9.34488ZM20.9026 150.16C20.3693 150.16 19.8973 150.067 19.4866 149.88C19.076 149.688 18.7533 149.413 18.5186 149.056C18.2893 148.699 18.1746 148.267 18.1746 147.76C18.1746 146.843 18.4946 146.16 19.1346 145.712C19.7746 145.264 20.8013 145.024 22.2146 144.992L23.6946 144.952V144.304C23.6946 143.797 23.5426 143.397 23.2386 143.104C22.9346 142.805 22.4626 142.656 21.8226 142.656C21.348 142.661 20.9293 142.773 20.5666 142.992C20.2093 143.211 19.9773 143.568 19.8706 144.064H18.5666C18.5986 143.525 18.7506 143.072 19.0226 142.704C19.2946 142.331 19.6733 142.048 20.1586 141.856C20.6493 141.664 21.228 141.568 21.8946 141.568C22.6146 141.568 23.212 141.669 23.6866 141.872C24.1666 142.075 24.524 142.373 24.7586 142.768C24.9986 143.163 25.1186 143.648 25.1186 144.224V150H23.8546L23.7506 148.448C23.4306 149.093 23.0226 149.541 22.5266 149.792C22.036 150.037 21.4946 150.16 20.9026 150.16ZM21.3506 149.096C21.628 149.096 21.9026 149.045 22.1746 148.944C22.452 148.843 22.7053 148.707 22.9346 148.536C23.164 148.36 23.3453 148.165 23.4786 147.952C23.6173 147.733 23.6893 147.509 23.6946 147.28V145.864L22.4626 145.888C21.8333 145.899 21.3053 145.963 20.8786 146.08C20.4573 146.197 20.14 146.381 19.9266 146.632C19.7186 146.883 19.6146 147.211 19.6146 147.616C19.6146 148.08 19.7746 148.443 20.0946 148.704C20.42 148.965 20.8386 149.096 21.3506 149.096ZM31.4579 142.808H29.5939V147.952C29.5939 148.245 29.6232 148.461 29.6819 148.6C29.7459 148.733 29.8499 148.819 29.9939 148.856C30.1432 148.893 30.3459 148.912 30.6019 148.912H31.5059V149.904C31.4045 149.941 31.2499 149.973 31.0419 150C30.8392 150.027 30.5859 150.04 30.2819 150.04C29.7112 150.04 29.2685 149.963 28.9539 149.808C28.6392 149.653 28.4179 149.424 28.2899 149.12C28.1672 148.816 28.1059 148.443 28.1059 148V142.808H26.7619V141.728H28.1459L28.5059 139.32H29.5939V141.72H31.4579V142.808ZM35.8245 150.16C35.2912 150.16 34.8192 150.067 34.4085 149.88C33.9978 149.688 33.6752 149.413 33.4405 149.056C33.2112 148.699 33.0965 148.267 33.0965 147.76C33.0965 146.843 33.4165 146.16 34.0565 145.712C34.6965 145.264 35.7232 145.024 37.1365 144.992L38.6165 144.952V144.304C38.6165 143.797 38.4645 143.397 38.1605 143.104C37.8565 142.805 37.3845 142.656 36.7445 142.656C36.2698 142.661 35.8512 142.773 35.4885 142.992C35.1312 143.211 34.8992 143.568 34.7925 144.064H33.4885C33.5205 143.525 33.6725 143.072 33.9445 142.704C34.2165 142.331 34.5952 142.048 35.0805 141.856C35.5712 141.664 36.1498 141.568 36.8165 141.568C37.5365 141.568 38.1338 141.669 38.6085 141.872C39.0885 142.075 39.4458 142.373 39.6805 142.768C39.9205 143.163 40.0405 143.648 40.0405 144.224V150H38.7765L38.6725 148.448C38.3525 149.093 37.9445 149.541 37.4485 149.792C36.9578 150.037 36.4165 150.16 35.8245 150.16ZM36.2725 149.096C36.5498 149.096 36.8245 149.045 37.0965 148.944C37.3738 148.843 37.6272 148.707 37.8565 148.536C38.0858 148.36 38.2672 148.165 38.4005 147.952C38.5392 147.733 38.6112 147.509 38.6165 147.28V145.864L37.3845 145.888C36.7552 145.899 36.2272 145.963 35.8005 146.08C35.3792 146.197 35.0618 146.381 34.8485 146.632C34.6405 146.883 34.5365 147.211 34.5365 147.616C34.5365 148.08 34.6965 148.443 35.0165 148.704C35.3418 148.965 35.7605 149.096 36.2725 149.096ZM46.2553 152.576V141.728H47.7273L47.7433 143.168C47.8393 142.997 47.9619 142.819 48.1113 142.632C48.2659 142.445 48.4526 142.272 48.6713 142.112C48.8953 141.952 49.1539 141.821 49.4473 141.72C49.7459 141.619 50.0846 141.568 50.4633 141.568C51.1246 141.568 51.7059 141.72 52.2073 142.024C52.7139 142.323 53.1086 142.781 53.3913 143.4C53.6739 144.019 53.8153 144.803 53.8153 145.752C53.8153 146.701 53.6766 147.504 53.3993 148.16C53.1273 148.811 52.7326 149.307 52.2153 149.648C51.6979 149.989 51.0739 150.16 50.3433 150.16C49.9753 150.16 49.6473 150.107 49.3593 150C49.0766 149.899 48.8286 149.765 48.6153 149.6C48.4073 149.429 48.2313 149.248 48.0873 149.056C47.9486 148.864 47.8339 148.68 47.7433 148.504V152.576H46.2553ZM50.0633 149.008C50.7459 149.008 51.3033 148.749 51.7353 148.232C52.1673 147.709 52.3833 146.899 52.3833 145.8C52.3833 144.856 52.1859 144.107 51.7913 143.552C51.3966 142.997 50.8206 142.72 50.0633 142.72C49.2953 142.72 48.7139 143.005 48.3193 143.576C47.9246 144.141 47.7273 144.883 47.7273 145.8C47.7273 146.392 47.8153 146.931 47.9913 147.416C48.1673 147.901 48.4286 148.288 48.7753 148.576C49.1219 148.864 49.5513 149.008 50.0633 149.008ZM55.7553 150V141.728H57.1633V143.32C57.3019 142.925 57.4966 142.6 57.7473 142.344C57.9979 142.083 58.2833 141.888 58.6033 141.76C58.9286 141.632 59.2646 141.568 59.6113 141.568C59.7339 141.568 59.8539 141.576 59.9713 141.592C60.0886 141.608 60.1793 141.635 60.2433 141.672V143.104C60.1633 143.067 60.0593 143.043 59.9313 143.032C59.8086 143.016 59.7046 143.008 59.6193 143.008C59.2886 142.987 58.9793 143.008 58.6913 143.072C58.4033 143.131 58.1499 143.235 57.9313 143.384C57.7126 143.533 57.5393 143.731 57.4113 143.976C57.2886 144.216 57.2273 144.509 57.2273 144.856V150H55.7553ZM65.0745 150.16C64.3118 150.16 63.6452 149.997 63.0745 149.672C62.5038 149.341 62.0612 148.859 61.7465 148.224C61.4318 147.589 61.2745 146.813 61.2745 145.896C61.2745 145.032 61.4212 144.275 61.7145 143.624C62.0078 142.973 62.4372 142.469 63.0025 142.112C63.5732 141.749 64.2638 141.568 65.0745 141.568C65.8372 141.568 66.4985 141.736 67.0585 142.072C67.6238 142.403 68.0612 142.891 68.3705 143.536C68.6798 144.181 68.8345 144.968 68.8345 145.896C68.8345 146.739 68.6905 147.48 68.4025 148.12C68.1198 148.76 67.6985 149.261 67.1385 149.624C66.5838 149.981 65.8958 150.16 65.0745 150.16ZM65.0745 148.992C65.5705 148.992 65.9892 148.867 66.3305 148.616C66.6718 148.365 66.9305 148.005 67.1065 147.536C67.2825 147.067 67.3705 146.509 67.3705 145.864C67.3705 145.272 67.2932 144.741 67.1385 144.272C66.9838 143.797 66.7358 143.421 66.3945 143.144C66.0585 142.867 65.6185 142.728 65.0745 142.728C64.5732 142.728 64.1492 142.853 63.8025 143.104C63.4558 143.349 63.1918 143.707 63.0105 144.176C62.8345 144.645 62.7465 145.208 62.7465 145.864C62.7465 146.445 62.8265 146.973 62.9865 147.448C63.1465 147.923 63.3972 148.299 63.7385 148.576C64.0798 148.853 64.5252 148.992 65.0745 148.992ZM77.0005 141.728L74.0165 150H72.6725L69.6805 141.728H71.0725L73.2725 148.144H73.4085L75.6165 141.728H77.0005ZM80.1834 141.728V150H78.7514V141.728H80.1834ZM80.2154 138.44V139.976H78.7034V138.44H80.2154ZM85.7705 150.16C84.6985 150.16 83.8478 149.792 83.2185 149.056C82.5892 148.32 82.2745 147.245 82.2745 145.832C82.2745 144.973 82.3998 144.224 82.6505 143.584C82.9065 142.944 83.2852 142.448 83.7865 142.096C84.2878 141.744 84.9118 141.568 85.6585 141.568C86.0532 141.568 86.4025 141.619 86.7065 141.72C87.0158 141.821 87.2825 141.949 87.5065 142.104C87.7305 142.259 87.9118 142.419 88.0505 142.584C88.1945 142.749 88.3012 142.901 88.3705 143.04V138.112H89.8585V150H88.7305L88.5705 148.304C88.5172 148.464 88.4318 148.651 88.3145 148.864C88.1972 149.072 88.0318 149.277 87.8185 149.48C87.6052 149.677 87.3305 149.84 86.9945 149.968C86.6638 150.096 86.2558 150.16 85.7705 150.16ZM86.0345 149.024C86.8718 149.024 87.4692 148.771 87.8265 148.264C88.1892 147.752 88.3705 146.917 88.3705 145.76C88.3652 145.115 88.2825 144.565 88.1225 144.112C87.9678 143.659 87.7225 143.315 87.3865 143.08C87.0558 142.84 86.6158 142.72 86.0665 142.72C85.3838 142.72 84.8292 142.963 84.4025 143.448C83.9758 143.933 83.7625 144.704 83.7625 145.76C83.7625 146.795 83.9545 147.597 84.3385 148.168C84.7278 148.739 85.2932 149.024 86.0345 149.024ZM93.3581 146.208C93.3581 146.731 93.4435 147.205 93.6141 147.632C93.7901 148.053 94.0541 148.389 94.4061 148.64C94.7635 148.891 95.2088 149.016 95.7421 149.016C96.2701 149.016 96.7235 148.893 97.1021 148.648C97.4861 148.403 97.7315 148.048 97.8381 147.584H99.2381C99.1368 148.144 98.9128 148.616 98.5661 149C98.2195 149.384 97.8008 149.675 97.3101 149.872C96.8195 150.064 96.3075 150.16 95.7741 150.16C95.0008 150.16 94.3208 149.992 93.7341 149.656C93.1475 149.32 92.6888 148.837 92.3581 148.208C92.0275 147.579 91.8621 146.824 91.8621 145.944C91.8621 145.075 92.0115 144.312 92.3101 143.656C92.6088 143 93.0408 142.488 93.6061 142.12C94.1768 141.752 94.8621 141.568 95.6621 141.568C96.4408 141.568 97.0995 141.736 97.6381 142.072C98.1768 142.408 98.5848 142.883 98.8621 143.496C99.1448 144.104 99.2861 144.827 99.2861 145.664V146.208H93.3581ZM93.3661 145.208H97.8621C97.8621 144.733 97.7821 144.307 97.6221 143.928C97.4621 143.544 97.2168 143.243 96.8861 143.024C96.5608 142.8 96.1501 142.688 95.6541 142.688C95.1368 142.688 94.7075 142.813 94.3661 143.064C94.0301 143.309 93.7768 143.627 93.6061 144.016C93.4408 144.4 93.3608 144.797 93.3661 145.208ZM104.302 150.16C103.23 150.16 102.379 149.792 101.75 149.056C101.12 148.32 100.806 147.245 100.806 145.832C100.806 144.973 100.931 144.224 101.182 143.584C101.438 142.944 101.816 142.448 102.318 142.096C102.819 141.744 103.443 141.568 104.19 141.568C104.584 141.568 104.934 141.619 105.238 141.72C105.547 141.821 105.814 141.949 106.038 142.104C106.262 142.259 106.443 142.419 106.582 142.584C106.726 142.749 106.832 142.901 106.902 143.04V138.112H108.39V150H107.262L107.102 148.304C107.048 148.464 106.963 148.651 106.846 148.864C106.728 149.072 106.563 149.277 106.35 149.48C106.136 149.677 105.862 149.84 105.526 149.968C105.195 150.096 104.787 150.16 104.302 150.16ZM104.566 149.024C105.403 149.024 106 148.771 106.358 148.264C106.72 147.752 106.902 146.917 106.902 145.76C106.896 145.115 106.814 144.565 106.654 144.112C106.499 143.659 106.254 143.315 105.918 143.08C105.587 142.84 105.147 142.72 104.598 142.72C103.915 142.72 103.36 142.963 102.934 143.448C102.507 143.933 102.294 144.704 102.294 145.76C102.294 146.795 102.486 147.597 102.87 148.168C103.259 148.739 103.824 149.024 104.566 149.024ZM118.609 150.16C118.124 150.16 117.713 150.096 117.377 149.968C117.046 149.84 116.774 149.677 116.561 149.48C116.348 149.277 116.182 149.072 116.065 148.864C115.948 148.651 115.862 148.464 115.809 148.304L115.649 150H114.521V138.112H116.009V143.04C116.078 142.901 116.182 142.749 116.321 142.584C116.465 142.419 116.649 142.259 116.873 142.104C117.097 141.949 117.361 141.821 117.665 141.72C117.974 141.619 118.326 141.568 118.721 141.568C119.756 141.568 120.577 141.928 121.185 142.648C121.798 143.368 122.105 144.429 122.105 145.832C122.105 146.701 121.974 147.461 121.713 148.112C121.452 148.757 121.062 149.261 120.545 149.624C120.028 149.981 119.382 150.16 118.609 150.16ZM118.345 149.024C119.017 149.024 119.564 148.765 119.985 148.248C120.406 147.725 120.617 146.896 120.617 145.76C120.617 144.795 120.42 144.048 120.025 143.52C119.636 142.987 119.065 142.72 118.313 142.72C117.764 142.72 117.321 142.84 116.985 143.08C116.654 143.315 116.409 143.659 116.249 144.112C116.094 144.565 116.014 145.115 116.009 145.76C116.009 146.917 116.188 147.752 116.545 148.264C116.908 148.771 117.508 149.024 118.345 149.024ZM124.556 152.64C124.07 152.64 123.737 152.605 123.556 152.536C123.374 152.467 123.284 152.432 123.284 152.432V151.472L124.124 151.488C124.433 151.499 124.689 151.477 124.892 151.424C125.094 151.371 125.257 151.299 125.38 151.208C125.502 151.117 125.596 151.016 125.66 150.904C125.729 150.792 125.785 150.685 125.828 150.584L126.116 149.8L122.884 141.728H124.38L126.82 148.112L129.244 141.728H130.692L127.204 150.624C126.99 151.147 126.75 151.555 126.484 151.848C126.222 152.141 125.929 152.347 125.604 152.464C125.284 152.581 124.934 152.64 124.556 152.64ZM137.496 141.728V150H136.064V141.728H137.496ZM137.528 138.44V139.976H136.016V138.44H137.528ZM140.193 150V141.728H141.625V142.928C141.758 142.699 141.942 142.483 142.177 142.28C142.417 142.077 142.705 141.915 143.041 141.792C143.382 141.669 143.774 141.608 144.217 141.608C144.739 141.608 145.219 141.712 145.657 141.92C146.099 142.128 146.451 142.453 146.713 142.896C146.979 143.333 147.113 143.899 147.113 144.592V150H145.633V144.736C145.633 144.091 145.462 143.613 145.121 143.304C144.785 142.989 144.347 142.832 143.809 142.832C143.435 142.832 143.086 142.893 142.761 143.016C142.435 143.133 142.171 143.315 141.969 143.56C141.766 143.8 141.665 144.104 141.665 144.472V150H140.193ZM153.239 142.808H151.375V147.952C151.375 148.245 151.404 148.461 151.463 148.6C151.527 148.733 151.631 148.819 151.775 148.856C151.924 148.893 152.127 148.912 152.383 148.912H153.287V149.904C153.186 149.941 153.031 149.973 152.823 150C152.62 150.027 152.367 150.04 152.063 150.04C151.492 150.04 151.05 149.963 150.735 149.808C150.42 149.653 150.199 149.424 150.071 149.12C149.948 148.816 149.887 148.443 149.887 148V142.808H148.543V141.728H149.927L150.287 139.32H151.375V141.72H153.239V142.808ZM156.202 146.208C156.202 146.731 156.287 147.205 156.458 147.632C156.634 148.053 156.898 148.389 157.25 148.64C157.607 148.891 158.053 149.016 158.586 149.016C159.114 149.016 159.567 148.893 159.946 148.648C160.33 148.403 160.575 148.048 160.682 147.584H162.082C161.981 148.144 161.757 148.616 161.41 149C161.063 149.384 160.645 149.675 160.154 149.872C159.663 150.064 159.151 150.16 158.618 150.16C157.845 150.16 157.165 149.992 156.578 149.656C155.991 149.32 155.533 148.837 155.202 148.208C154.871 147.579 154.706 146.824 154.706 145.944C154.706 145.075 154.855 144.312 155.154 143.656C155.453 143 155.885 142.488 156.45 142.12C157.021 141.752 157.706 141.568 158.506 141.568C159.285 141.568 159.943 141.736 160.482 142.072C161.021 142.408 161.429 142.883 161.706 143.496C161.989 144.104 162.13 144.827 162.13 145.664V146.208H156.202ZM156.21 145.208H160.706C160.706 144.733 160.626 144.307 160.466 143.928C160.306 143.544 160.061 143.243 159.73 143.024C159.405 142.8 158.994 142.688 158.498 142.688C157.981 142.688 157.551 142.813 157.21 143.064C156.874 143.309 156.621 143.627 156.45 144.016C156.285 144.4 156.205 144.797 156.21 145.208ZM164.162 150V141.728H165.57V143.32C165.708 142.925 165.903 142.6 166.154 142.344C166.404 142.083 166.69 141.888 167.01 141.76C167.335 141.632 167.671 141.568 168.018 141.568C168.14 141.568 168.26 141.576 168.378 141.592C168.495 141.608 168.586 141.635 168.65 141.672V143.104C168.57 143.067 168.466 143.043 168.338 143.032C168.215 143.016 168.111 143.008 168.026 143.008C167.695 142.987 167.386 143.008 167.098 143.072C166.81 143.131 166.556 143.235 166.338 143.384C166.119 143.533 165.946 143.731 165.818 143.976C165.695 144.216 165.634 144.509 165.634 144.856V150H164.162ZM170.365 150V141.728H171.797V142.928C171.93 142.699 172.114 142.483 172.349 142.28C172.589 142.077 172.877 141.915 173.213 141.792C173.554 141.669 173.946 141.608 174.389 141.608C174.911 141.608 175.391 141.712 175.829 141.92C176.271 142.128 176.623 142.453 176.885 142.896C177.151 143.333 177.285 143.899 177.285 144.592V150H175.805V144.736C175.805 144.091 175.634 143.613 175.293 143.304C174.957 142.989 174.519 142.832 173.981 142.832C173.607 142.832 173.258 142.893 172.933 143.016C172.607 143.133 172.343 143.315 172.141 143.56C171.938 143.8 171.837 144.104 171.837 144.472V150H170.365ZM181.856 150.16C181.322 150.16 180.85 150.067 180.44 149.88C180.029 149.688 179.706 149.413 179.472 149.056C179.242 148.699 179.128 148.267 179.128 147.76C179.128 146.843 179.448 146.16 180.088 145.712C180.728 145.264 181.754 145.024 183.168 144.992L184.648 144.952V144.304C184.648 143.797 184.496 143.397 184.192 143.104C183.888 142.805 183.416 142.656 182.776 142.656C182.301 142.661 181.882 142.773 181.52 142.992C181.162 143.211 180.93 143.568 180.824 144.064H179.52C179.552 143.525 179.704 143.072 179.976 142.704C180.248 142.331 180.626 142.048 181.112 141.856C181.602 141.664 182.181 141.568 182.848 141.568C183.568 141.568 184.165 141.669 184.64 141.872C185.12 142.075 185.477 142.373 185.712 142.768C185.952 143.163 186.072 143.648 186.072 144.224V150H184.808L184.704 148.448C184.384 149.093 183.976 149.541 183.48 149.792C182.989 150.037 182.448 150.16 181.856 150.16ZM182.304 149.096C182.581 149.096 182.856 149.045 183.128 148.944C183.405 148.843 183.658 148.707 183.888 148.536C184.117 148.36 184.298 148.165 184.432 147.952C184.57 147.733 184.642 147.509 184.648 147.28V145.864L183.416 145.888C182.786 145.899 182.258 145.963 181.832 146.08C181.41 146.197 181.093 146.381 180.88 146.632C180.672 146.883 180.568 147.211 180.568 147.616C180.568 148.08 180.728 148.443 181.048 148.704C181.373 148.965 181.792 149.096 182.304 149.096ZM190.687 150.104C190.239 150.104 189.876 150.043 189.599 149.92C189.327 149.797 189.116 149.632 188.967 149.424C188.823 149.216 188.724 148.979 188.671 148.712C188.623 148.44 188.599 148.16 188.599 147.872V138.112H190.055V147.728C190.055 148.144 190.135 148.456 190.295 148.664C190.46 148.872 190.69 148.987 190.983 149.008L191.431 149.016V149.976C191.308 150.013 191.18 150.043 191.047 150.064C190.914 150.091 190.794 150.104 190.687 150.104ZM3.312 174.104C2.864 174.104 2.50133 174.043 2.224 173.92C1.952 173.797 1.74133 173.632 1.592 173.424C1.448 173.216 1.34933 172.979 1.296 172.712C1.248 172.44 1.224 172.16 1.224 171.872V162.112H2.68V171.728C2.68 172.144 2.76 172.456 2.92 172.664C3.08533 172.872 3.31467 172.987 3.608 173.008L4.056 173.016V173.976C3.93333 174.013 3.80533 174.043 3.672 174.064C3.53867 174.091 3.41867 174.104 3.312 174.104ZM8.1995 174.16C7.66617 174.16 7.19417 174.067 6.7835 173.88C6.37283 173.688 6.05017 173.413 5.8155 173.056C5.58617 172.699 5.4715 172.267 5.4715 171.76C5.4715 170.843 5.7915 170.16 6.4315 169.712C7.0715 169.264 8.09817 169.024 9.5115 168.992L10.9915 168.952V168.304C10.9915 167.797 10.8395 167.397 10.5355 167.104C10.2315 166.805 9.7595 166.656 9.1195 166.656C8.64483 166.661 8.22617 166.773 7.8635 166.992C7.50617 167.211 7.27417 167.568 7.1675 168.064H5.8635C5.8955 167.525 6.0475 167.072 6.3195 166.704C6.5915 166.331 6.97017 166.048 7.4555 165.856C7.94617 165.664 8.52483 165.568 9.1915 165.568C9.9115 165.568 10.5088 165.669 10.9835 165.872C11.4635 166.075 11.8208 166.373 12.0555 166.768C12.2955 167.163 12.4155 167.648 12.4155 168.224V174H11.1515L11.0475 172.448C10.7275 173.093 10.3195 173.541 9.8235 173.792C9.33283 174.037 8.7915 174.16 8.1995 174.16ZM8.6475 173.096C8.92483 173.096 9.1995 173.045 9.4715 172.944C9.74883 172.843 10.0022 172.707 10.2315 172.536C10.4608 172.36 10.6422 172.165 10.7755 171.952C10.9142 171.733 10.9862 171.509 10.9915 171.28V169.864L9.7595 169.888C9.13017 169.899 8.60217 169.963 8.1755 170.08C7.75417 170.197 7.43683 170.381 7.2235 170.632C7.0155 170.883 6.9115 171.211 6.9115 171.616C6.9115 172.08 7.0715 172.443 7.3915 172.704C7.71683 172.965 8.1355 173.096 8.6475 173.096ZM19.0308 174.16C18.5454 174.16 18.1348 174.096 17.7988 173.968C17.4681 173.84 17.1961 173.677 16.9828 173.48C16.7694 173.277 16.6041 173.072 16.4868 172.864C16.3694 172.651 16.2841 172.464 16.2308 172.304L16.0707 174H14.9428V162.112H16.4308V167.04C16.5001 166.901 16.6041 166.749 16.7428 166.584C16.8868 166.419 17.0708 166.259 17.2948 166.104C17.5188 165.949 17.7828 165.821 18.0868 165.72C18.3961 165.619 18.7481 165.568 19.1428 165.568C20.1774 165.568 20.9988 165.928 21.6068 166.648C22.2201 167.368 22.5268 168.429 22.5268 169.832C22.5268 170.701 22.3961 171.461 22.1348 172.112C21.8734 172.757 21.4841 173.261 20.9668 173.624C20.4494 173.981 19.8041 174.16 19.0308 174.16ZM18.7668 173.024C19.4388 173.024 19.9854 172.765 20.4068 172.248C20.8281 171.725 21.0388 170.896 21.0388 169.76C21.0388 168.795 20.8414 168.048 20.4468 167.52C20.0574 166.987 19.4868 166.72 18.7348 166.72C18.1854 166.72 17.7428 166.84 17.4068 167.08C17.0761 167.315 16.8308 167.659 16.6708 168.112C16.5161 168.565 16.4361 169.115 16.4308 169.76C16.4308 170.917 16.6094 171.752 16.9668 172.264C17.3294 172.771 17.9294 173.024 18.7668 173.024ZM27.7464 174.16C26.9837 174.16 26.317 173.997 25.7464 173.672C25.1757 173.341 24.733 172.859 24.4184 172.224C24.1037 171.589 23.9464 170.813 23.9464 169.896C23.9464 169.032 24.093 168.275 24.3864 167.624C24.6797 166.973 25.109 166.469 25.6744 166.112C26.245 165.749 26.9357 165.568 27.7464 165.568C28.509 165.568 29.1704 165.736 29.7304 166.072C30.2957 166.403 30.733 166.891 31.0424 167.536C31.3517 168.181 31.5064 168.968 31.5064 169.896C31.5064 170.739 31.3624 171.48 31.0744 172.12C30.7917 172.76 30.3704 173.261 29.8104 173.624C29.2557 173.981 28.5677 174.16 27.7464 174.16ZM27.7464 172.992C28.2424 172.992 28.661 172.867 29.0024 172.616C29.3437 172.365 29.6024 172.005 29.7784 171.536C29.9544 171.067 30.0424 170.509 30.0424 169.864C30.0424 169.272 29.965 168.741 29.8104 168.272C29.6557 167.797 29.4077 167.421 29.0664 167.144C28.7304 166.867 28.2904 166.728 27.7464 166.728C27.245 166.728 26.821 166.853 26.4744 167.104C26.1277 167.349 25.8637 167.707 25.6824 168.176C25.5064 168.645 25.4184 169.208 25.4184 169.864C25.4184 170.445 25.4984 170.973 25.6584 171.448C25.8184 171.923 26.069 172.299 26.4104 172.576C26.7517 172.853 27.197 172.992 27.7464 172.992ZM33.4428 174V165.728H34.8508V167.32C34.9894 166.925 35.1841 166.6 35.4348 166.344C35.6854 166.083 35.9708 165.888 36.2908 165.76C36.6161 165.632 36.9521 165.568 37.2988 165.568C37.4214 165.568 37.5414 165.576 37.6588 165.592C37.7761 165.608 37.8668 165.635 37.9308 165.672V167.104C37.8508 167.067 37.7468 167.043 37.6188 167.032C37.4961 167.016 37.3921 167.008 37.3068 167.008C36.9761 166.987 36.6668 167.008 36.3788 167.072C36.0908 167.131 35.8374 167.235 35.6188 167.384C35.4001 167.533 35.2268 167.731 35.0988 167.976C34.9761 168.216 34.9148 168.509 34.9148 168.856V174H33.4428ZM41.7308 174.16C41.1974 174.16 40.7254 174.067 40.3148 173.88C39.9041 173.688 39.5814 173.413 39.3468 173.056C39.1174 172.699 39.0028 172.267 39.0028 171.76C39.0028 170.843 39.3228 170.16 39.9628 169.712C40.6028 169.264 41.6294 169.024 43.0428 168.992L44.5228 168.952V168.304C44.5228 167.797 44.3708 167.397 44.0668 167.104C43.7628 166.805 43.2908 166.656 42.6508 166.656C42.1761 166.661 41.7574 166.773 41.3948 166.992C41.0374 167.211 40.8054 167.568 40.6988 168.064H39.3947C39.4268 167.525 39.5788 167.072 39.8508 166.704C40.1228 166.331 40.5014 166.048 40.9868 165.856C41.4774 165.664 42.0561 165.568 42.7228 165.568C43.4428 165.568 44.0401 165.669 44.5148 165.872C44.9948 166.075 45.3521 166.373 45.5868 166.768C45.8268 167.163 45.9468 167.648 45.9468 168.224V174H44.6828L44.5788 172.448C44.2588 173.093 43.8508 173.541 43.3548 173.792C42.8641 174.037 42.3228 174.16 41.7308 174.16ZM42.1788 173.096C42.4561 173.096 42.7308 173.045 43.0028 172.944C43.2801 172.843 43.5334 172.707 43.7628 172.536C43.9921 172.36 44.1734 172.165 44.3068 171.952C44.4454 171.733 44.5174 171.509 44.5228 171.28V169.864L43.2908 169.888C42.6614 169.899 42.1334 169.963 41.7068 170.08C41.2854 170.197 40.9681 170.381 40.7548 170.632C40.5468 170.883 40.4428 171.211 40.4428 171.616C40.4428 172.08 40.6028 172.443 40.9228 172.704C41.2481 172.965 41.6668 173.096 42.1788 173.096ZM52.286 166.808H50.422V171.952C50.422 172.245 50.4513 172.461 50.51 172.6C50.574 172.733 50.678 172.819 50.822 172.856C50.9713 172.893 51.174 172.912 51.43 172.912H52.334V173.904C52.2327 173.941 52.078 173.973 51.87 174C51.6673 174.027 51.414 174.04 51.11 174.04C50.5393 174.04 50.0967 173.963 49.782 173.808C49.4673 173.653 49.246 173.424 49.118 173.12C48.9953 172.816 48.934 172.443 48.934 172V166.808H47.59V165.728H48.974L49.334 163.32H50.422V165.72H52.286V166.808ZM57.4808 174.16C56.7181 174.16 56.0514 173.997 55.4808 173.672C54.9101 173.341 54.4674 172.859 54.1528 172.224C53.8381 171.589 53.6808 170.813 53.6808 169.896C53.6808 169.032 53.8274 168.275 54.1208 167.624C54.4141 166.973 54.8434 166.469 55.4088 166.112C55.9794 165.749 56.6701 165.568 57.4808 165.568C58.2434 165.568 58.9048 165.736 59.4648 166.072C60.0301 166.403 60.4674 166.891 60.7768 167.536C61.0861 168.181 61.2408 168.968 61.2408 169.896C61.2408 170.739 61.0968 171.48 60.8088 172.12C60.5261 172.76 60.1048 173.261 59.5448 173.624C58.9901 173.981 58.3021 174.16 57.4808 174.16ZM57.4808 172.992C57.9768 172.992 58.3954 172.867 58.7368 172.616C59.0781 172.365 59.3368 172.005 59.5128 171.536C59.6888 171.067 59.7768 170.509 59.7768 169.864C59.7768 169.272 59.6994 168.741 59.5448 168.272C59.3901 167.797 59.1421 167.421 58.8008 167.144C58.4648 166.867 58.0248 166.728 57.4808 166.728C56.9794 166.728 56.5554 166.853 56.2088 167.104C55.8621 167.349 55.5981 167.707 55.4168 168.176C55.2408 168.645 55.1528 169.208 55.1528 169.864C55.1528 170.445 55.2328 170.973 55.3928 171.448C55.5528 171.923 55.8034 172.299 56.1448 172.576C56.4861 172.853 56.9314 172.992 57.4808 172.992ZM63.1771 174V165.728H64.5851V167.32C64.7238 166.925 64.9185 166.6 65.1691 166.344C65.4198 166.083 65.7051 165.888 66.0251 165.76C66.3505 165.632 66.6865 165.568 67.0331 165.568C67.1558 165.568 67.2758 165.576 67.3931 165.592C67.5105 165.608 67.6011 165.635 67.6651 165.672V167.104C67.5851 167.067 67.4811 167.043 67.3531 167.032C67.2305 167.016 67.1265 167.008 67.0411 167.008C66.7105 166.987 66.4011 167.008 66.1131 167.072C65.8251 167.131 65.5718 167.235 65.3531 167.384C65.1345 167.533 64.9611 167.731 64.8331 167.976C64.7105 168.216 64.6491 168.509 64.6491 168.856V174H63.1771ZM70.9803 165.728V174H69.5483V165.728H70.9803ZM71.0123 162.44V163.976H69.5003V162.44H71.0123ZM74.6394 170.208C74.6394 170.731 74.7247 171.205 74.8954 171.632C75.0714 172.053 75.3354 172.389 75.6874 172.64C76.0447 172.891 76.49 173.016 77.0234 173.016C77.5514 173.016 78.0047 172.893 78.3834 172.648C78.7674 172.403 79.0127 172.048 79.1194 171.584H80.5194C80.418 172.144 80.194 172.616 79.8474 173C79.5007 173.384 79.082 173.675 78.5914 173.872C78.1007 174.064 77.5887 174.16 77.0554 174.16C76.282 174.16 75.602 173.992 75.0154 173.656C74.4287 173.32 73.97 172.837 73.6394 172.208C73.3087 171.579 73.1434 170.824 73.1434 169.944C73.1434 169.075 73.2927 168.312 73.5914 167.656C73.89 167 74.322 166.488 74.8874 166.12C75.458 165.752 76.1434 165.568 76.9434 165.568C77.722 165.568 78.3807 165.736 78.9194 166.072C79.458 166.408 79.866 166.883 80.1434 167.496C80.426 168.104 80.5674 168.827 80.5674 169.664V170.208H74.6394ZM74.6474 169.208H79.1434C79.1434 168.733 79.0634 168.307 78.9034 167.928C78.7434 167.544 78.498 167.243 78.1674 167.024C77.842 166.8 77.4314 166.688 76.9354 166.688C76.418 166.688 75.9887 166.813 75.6474 167.064C75.3114 167.309 75.058 167.627 74.8874 168.016C74.722 168.4 74.642 168.797 74.6474 169.208ZM85.4881 174.16C84.9121 174.16 84.3761 174.072 83.8801 173.896C83.3895 173.715 82.9815 173.435 82.6561 173.056C82.3308 172.672 82.1255 172.184 82.0401 171.592H83.3841C83.4588 171.917 83.5921 172.189 83.7841 172.408C83.9815 172.621 84.2268 172.784 84.5201 172.896C84.8135 173.003 85.1335 173.056 85.4801 173.056C86.0348 173.056 86.4828 172.952 86.8241 172.744C87.1655 172.536 87.3361 172.216 87.3361 171.784C87.3361 171.48 87.2455 171.237 87.0641 171.056C86.8881 170.869 86.6135 170.733 86.2401 170.648L84.5281 170.224C83.8615 170.064 83.3281 169.813 82.9281 169.472C82.5281 169.131 82.3281 168.653 82.3281 168.04C82.3228 167.555 82.4375 167.128 82.6721 166.76C82.9068 166.392 83.2588 166.101 83.7281 165.888C84.1975 165.675 84.7815 165.568 85.4801 165.568C86.3761 165.568 87.0988 165.771 87.6481 166.176C88.2028 166.576 88.4908 167.165 88.5121 167.944H87.2081C87.1548 167.549 86.9761 167.237 86.6721 167.008C86.3735 166.773 85.9708 166.656 85.4641 166.656C84.9361 166.656 84.5068 166.763 84.1761 166.976C83.8455 167.184 83.6801 167.509 83.6801 167.952C83.6801 168.245 83.7975 168.477 84.0321 168.648C84.2668 168.813 84.6135 168.952 85.0721 169.064L86.7281 169.48C87.1121 169.581 87.4268 169.715 87.6721 169.88C87.9228 170.045 88.1201 170.229 88.2641 170.432C88.4135 170.635 88.5175 170.848 88.5761 171.072C88.6401 171.291 88.6721 171.501 88.6721 171.704C88.6721 172.211 88.5441 172.648 88.2881 173.016C88.0375 173.379 87.6748 173.661 87.2001 173.864C86.7308 174.061 86.1601 174.16 85.4881 174.16ZM90.3956 174V172.112H92.1556V174H90.3956ZM98.2468 162.432H99.7268V174H98.2468V162.432ZM102.474 174V165.728H103.906V166.928C104.039 166.699 104.223 166.483 104.458 166.28C104.698 166.077 104.986 165.915 105.322 165.792C105.663 165.669 106.055 165.608 106.498 165.608C107.021 165.608 107.501 165.712 107.938 165.92C108.381 166.128 108.733 166.453 108.994 166.896C109.261 167.333 109.394 167.899 109.394 168.592V174H107.914V168.736C107.914 168.091 107.743 167.613 107.402 167.304C107.066 166.989 106.629 166.832 106.09 166.832C105.717 166.832 105.367 166.893 105.042 167.016C104.717 167.133 104.453 167.315 104.25 167.56C104.047 167.8 103.946 168.104 103.946 168.472V174H102.474ZM114.692 174.16C113.62 174.16 112.77 173.792 112.14 173.056C111.511 172.32 111.196 171.245 111.196 169.832C111.196 168.973 111.322 168.224 111.572 167.584C111.828 166.944 112.207 166.448 112.708 166.096C113.21 165.744 113.834 165.568 114.58 165.568C114.975 165.568 115.324 165.619 115.628 165.72C115.938 165.821 116.204 165.949 116.428 166.104C116.652 166.259 116.834 166.419 116.972 166.584C117.116 166.749 117.223 166.901 117.292 167.04V162.112H118.78V174H117.652L117.492 172.304C117.439 172.464 117.354 172.651 117.236 172.864C117.119 173.072 116.954 173.277 116.74 173.48C116.527 173.677 116.252 173.84 115.916 173.968C115.586 174.096 115.178 174.16 114.692 174.16ZM114.956 173.024C115.794 173.024 116.391 172.771 116.748 172.264C117.111 171.752 117.292 170.917 117.292 169.76C117.287 169.115 117.204 168.565 117.044 168.112C116.89 167.659 116.644 167.315 116.308 167.08C115.978 166.84 115.538 166.72 114.988 166.72C114.306 166.72 113.751 166.963 113.324 167.448C112.898 167.933 112.684 168.704 112.684 169.76C112.684 170.795 112.876 171.597 113.26 172.168C113.65 172.739 114.215 173.024 114.956 173.024ZM124.264 174.16C123.832 174.155 123.424 174.093 123.04 173.976C122.661 173.853 122.325 173.675 122.032 173.44C121.739 173.205 121.507 172.915 121.336 172.568C121.171 172.216 121.088 171.808 121.088 171.344V165.728H122.568V171.192C122.568 171.731 122.733 172.168 123.064 172.504C123.4 172.84 123.904 173.008 124.576 173.008C125.184 173.008 125.672 172.851 126.04 172.536C126.413 172.216 126.6 171.741 126.6 171.112V165.728H128.072V174H126.896L126.744 172.416C126.643 172.832 126.469 173.168 126.224 173.424C125.984 173.68 125.693 173.869 125.352 173.992C125.016 174.109 124.653 174.165 124.264 174.16ZM133.316 174.16C132.74 174.16 132.204 174.072 131.708 173.896C131.218 173.715 130.81 173.435 130.484 173.056C130.159 172.672 129.954 172.184 129.868 171.592H131.212C131.287 171.917 131.42 172.189 131.612 172.408C131.81 172.621 132.055 172.784 132.348 172.896C132.642 173.003 132.962 173.056 133.308 173.056C133.863 173.056 134.311 172.952 134.652 172.744C134.994 172.536 135.164 172.216 135.164 171.784C135.164 171.48 135.074 171.237 134.892 171.056C134.716 170.869 134.442 170.733 134.068 170.648L132.356 170.224C131.69 170.064 131.156 169.813 130.756 169.472C130.356 169.131 130.156 168.653 130.156 168.04C130.151 167.555 130.266 167.128 130.5 166.76C130.735 166.392 131.087 166.101 131.556 165.888C132.026 165.675 132.61 165.568 133.308 165.568C134.204 165.568 134.927 165.771 135.476 166.176C136.031 166.576 136.319 167.165 136.34 167.944H135.036C134.983 167.549 134.804 167.237 134.5 167.008C134.202 166.773 133.799 166.656 133.292 166.656C132.764 166.656 132.335 166.763 132.004 166.976C131.674 167.184 131.508 167.509 131.508 167.952C131.508 168.245 131.626 168.477 131.86 168.648C132.095 168.813 132.442 168.952 132.9 169.064L134.556 169.48C134.94 169.581 135.255 169.715 135.5 169.88C135.751 170.045 135.948 170.229 136.092 170.432C136.242 170.635 136.346 170.848 136.404 171.072C136.468 171.291 136.5 171.501 136.5 171.704C136.5 172.211 136.372 172.648 136.116 173.016C135.866 173.379 135.503 173.661 135.028 173.864C134.559 174.061 133.988 174.16 133.316 174.16ZM142.583 166.808H140.719V171.952C140.719 172.245 140.748 172.461 140.807 172.6C140.871 172.733 140.975 172.819 141.119 172.856C141.268 172.893 141.471 172.912 141.727 172.912H142.631V173.904C142.53 173.941 142.375 173.973 142.167 174C141.964 174.027 141.711 174.04 141.407 174.04C140.836 174.04 140.394 173.963 140.079 173.808C139.764 173.653 139.543 173.424 139.415 173.12C139.292 172.816 139.231 172.443 139.231 172V166.808H137.887V165.728H139.271L139.631 163.32H140.719V165.72H142.583V166.808ZM144.708 174V165.728H146.116V167.32C146.255 166.925 146.45 166.6 146.7 166.344C146.951 166.083 147.236 165.888 147.556 165.76C147.882 165.632 148.218 165.568 148.564 165.568C148.687 165.568 148.807 165.576 148.924 165.592C149.042 165.608 149.132 165.635 149.196 165.672V167.104C149.116 167.067 149.012 167.043 148.884 167.032C148.762 167.016 148.658 167.008 148.572 167.008C148.242 166.987 147.932 167.008 147.644 167.072C147.356 167.131 147.103 167.235 146.884 167.384C146.666 167.533 146.492 167.731 146.364 167.976C146.242 168.216 146.18 168.509 146.18 168.856V174H144.708ZM152.103 176.64C151.617 176.64 151.284 176.605 151.103 176.536C150.921 176.467 150.831 176.432 150.831 176.432V175.472L151.671 175.488C151.98 175.499 152.236 175.477 152.439 175.424C152.641 175.371 152.804 175.299 152.927 175.208C153.049 175.117 153.143 175.016 153.207 174.904C153.276 174.792 153.332 174.685 153.375 174.584L153.663 173.8L150.431 165.728H151.927L154.367 172.112L156.791 165.728H158.239L154.751 174.624C154.537 175.147 154.297 175.555 154.031 175.848C153.769 176.141 153.476 176.347 153.151 176.464C152.831 176.581 152.481 176.64 152.103 176.64ZM163.443 174V165.728H164.867V166.928C165.096 166.565 165.411 166.248 165.811 165.976C166.211 165.704 166.731 165.568 167.371 165.568C167.669 165.568 167.973 165.619 168.283 165.72C168.597 165.821 168.885 165.973 169.147 166.176C169.408 166.379 169.611 166.627 169.755 166.92C170.011 166.515 170.357 166.189 170.795 165.944C171.232 165.693 171.725 165.568 172.275 165.568C172.563 165.568 172.864 165.613 173.179 165.704C173.493 165.789 173.784 165.944 174.051 166.168C174.323 166.387 174.544 166.693 174.715 167.088C174.885 167.477 174.971 167.979 174.971 168.592V174H173.483V168.736C173.483 168.235 173.403 167.848 173.243 167.576C173.083 167.299 172.872 167.104 172.611 166.992C172.355 166.88 172.08 166.824 171.787 166.824C171.531 166.824 171.259 166.875 170.971 166.976C170.683 167.077 170.437 167.248 170.235 167.488C170.032 167.728 169.931 168.056 169.931 168.472V174H168.459V168.304C168.459 167.979 168.371 167.707 168.195 167.488C168.024 167.269 167.808 167.104 167.547 166.992C167.291 166.88 167.035 166.824 166.779 166.824C166.496 166.824 166.211 166.88 165.923 166.992C165.64 167.104 165.4 167.283 165.203 167.528C165.011 167.768 164.915 168.083 164.915 168.472V174H163.443ZM178.343 170.208C178.343 170.731 178.428 171.205 178.599 171.632C178.775 172.053 179.039 172.389 179.391 172.64C179.748 172.891 180.193 173.016 180.727 173.016C181.255 173.016 181.708 172.893 182.087 172.648C182.471 172.403 182.716 172.048 182.823 171.584H184.223C184.121 172.144 183.897 172.616 183.551 173C183.204 173.384 182.785 173.675 182.295 173.872C181.804 174.064 181.292 174.16 180.759 174.16C179.985 174.16 179.305 173.992 178.719 173.656C178.132 173.32 177.673 172.837 177.343 172.208C177.012 171.579 176.847 170.824 176.847 169.944C176.847 169.075 176.996 168.312 177.295 167.656C177.593 167 178.025 166.488 178.591 166.12C179.161 165.752 179.847 165.568 180.647 165.568C181.425 165.568 182.084 165.736 182.623 166.072C183.161 166.408 183.569 166.883 183.847 167.496C184.129 168.104 184.271 168.827 184.271 169.664V170.208H178.343ZM178.351 169.208H182.847C182.847 168.733 182.767 168.307 182.607 167.928C182.447 167.544 182.201 167.243 181.871 167.024C181.545 166.8 181.135 166.688 180.639 166.688C180.121 166.688 179.692 166.813 179.351 167.064C179.015 167.309 178.761 167.627 178.591 168.016C178.425 168.4 178.345 168.797 178.351 169.208ZM188.496 174.16C187.963 174.16 187.491 174.067 187.08 173.88C186.67 173.688 186.347 173.413 186.112 173.056C185.883 172.699 185.768 172.267 185.768 171.76C185.768 170.843 186.088 170.16 186.728 169.712C187.368 169.264 188.395 169.024 189.808 168.992L191.288 168.952V168.304C191.288 167.797 191.136 167.397 190.832 167.104C190.528 166.805 190.056 166.656 189.416 166.656C188.942 166.661 188.523 166.773 188.16 166.992C187.803 167.211 187.571 167.568 187.464 168.064H186.16C186.192 167.525 186.344 167.072 186.616 166.704C186.888 166.331 187.267 166.048 187.752 165.856C188.243 165.664 188.822 165.568 189.488 165.568C190.208 165.568 190.806 165.669 191.28 165.872C191.76 166.075 192.118 166.373 192.352 166.768C192.592 167.163 192.712 167.648 192.712 168.224V174H191.448L191.344 172.448C191.024 173.093 190.616 173.541 190.12 173.792C189.63 174.037 189.088 174.16 188.496 174.16ZM188.944 173.096C189.222 173.096 189.496 173.045 189.768 172.944C190.046 172.843 190.299 172.707 190.528 172.536C190.758 172.36 190.939 172.165 191.072 171.952C191.211 171.733 191.283 171.509 191.288 171.28V169.864L190.056 169.888C189.427 169.899 188.899 169.963 188.472 170.08C188.051 170.197 187.734 170.381 187.52 170.632C187.312 170.883 187.208 171.211 187.208 171.616C187.208 172.08 187.368 172.443 187.688 172.704C188.014 172.965 188.432 173.096 188.944 173.096ZM198.051 174.16C197.475 174.16 196.939 174.072 196.443 173.896C195.952 173.715 195.544 173.435 195.219 173.056C194.893 172.672 194.688 172.184 194.603 171.592H195.947C196.021 171.917 196.155 172.189 196.347 172.408C196.544 172.621 196.789 172.784 197.083 172.896C197.376 173.003 197.696 173.056 198.043 173.056C198.597 173.056 199.045 172.952 199.387 172.744C199.728 172.536 199.899 172.216 199.899 171.784C199.899 171.48 199.808 171.237 199.627 171.056C199.451 170.869 199.176 170.733 198.803 170.648L197.091 170.224C196.424 170.064 195.891 169.813 195.491 169.472C195.091 169.131 194.891 168.653 194.891 168.04C194.885 167.555 195 167.128 195.235 166.76C195.469 166.392 195.821 166.101 196.291 165.888C196.76 165.675 197.344 165.568 198.043 165.568C198.939 165.568 199.661 165.771 200.211 166.176C200.765 166.576 201.053 167.165 201.075 167.944H199.771C199.717 167.549 199.539 167.237 199.235 167.008C198.936 166.773 198.533 166.656 198.027 166.656C197.499 166.656 197.069 166.763 196.739 166.976C196.408 167.184 196.243 167.509 196.243 167.952C196.243 168.245 196.36 168.477 196.595 168.648C196.829 168.813 197.176 168.952 197.635 169.064L199.291 169.48C199.675 169.581 199.989 169.715 200.235 169.88C200.485 170.045 200.683 170.229 200.827 170.432C200.976 170.635 201.08 170.848 201.139 171.072C201.203 171.291 201.235 171.501 201.235 171.704C201.235 172.211 201.107 172.648 200.851 173.016C200.6 173.379 200.237 173.661 199.763 173.864C199.293 174.061 198.723 174.16 198.051 174.16ZM206.342 174.16C205.91 174.155 205.502 174.093 205.118 173.976C204.739 173.853 204.403 173.675 204.11 173.44C203.817 173.205 203.585 172.915 203.414 172.568C203.249 172.216 203.166 171.808 203.166 171.344V165.728H204.646V171.192C204.646 171.731 204.811 172.168 205.142 172.504C205.478 172.84 205.982 173.008 206.654 173.008C207.262 173.008 207.75 172.851 208.118 172.536C208.491 172.216 208.678 171.741 208.678 171.112V165.728H210.15V174H208.974L208.822 172.416C208.721 172.832 208.547 173.168 208.302 173.424C208.062 173.68 207.771 173.869 207.43 173.992C207.094 174.109 206.731 174.165 206.342 174.16ZM212.552 174V165.728H213.96V167.32C214.099 166.925 214.293 166.6 214.544 166.344C214.795 166.083 215.08 165.888 215.4 165.76C215.725 165.632 216.061 165.568 216.408 165.568C216.531 165.568 216.651 165.576 216.768 165.592C216.885 165.608 216.976 165.635 217.04 165.672V167.104C216.96 167.067 216.856 167.043 216.728 167.032C216.605 167.016 216.501 167.008 216.416 167.008C216.085 166.987 215.776 167.008 215.488 167.072C215.2 167.131 214.947 167.235 214.728 167.384C214.509 167.533 214.336 167.731 214.208 167.976C214.085 168.216 214.024 168.509 214.024 168.856V174H212.552ZM218.755 174V165.728H220.179V166.928C220.409 166.565 220.723 166.248 221.123 165.976C221.523 165.704 222.043 165.568 222.683 165.568C222.982 165.568 223.286 165.619 223.595 165.72C223.91 165.821 224.198 165.973 224.459 166.176C224.721 166.379 224.923 166.627 225.067 166.92C225.323 166.515 225.67 166.189 226.107 165.944C226.545 165.693 227.038 165.568 227.587 165.568C227.875 165.568 228.177 165.613 228.491 165.704C228.806 165.789 229.097 165.944 229.363 166.168C229.635 166.387 229.857 166.693 230.027 167.088C230.198 167.477 230.283 167.979 230.283 168.592V174H228.795V168.736C228.795 168.235 228.715 167.848 228.555 167.576C228.395 167.299 228.185 167.104 227.923 166.992C227.667 166.88 227.393 166.824 227.099 166.824C226.843 166.824 226.571 166.875 226.283 166.976C225.995 167.077 225.75 167.248 225.547 167.488C225.345 167.728 225.243 168.056 225.243 168.472V174H223.771V168.304C223.771 167.979 223.683 167.707 223.507 167.488C223.337 167.269 223.121 167.104 222.859 166.992C222.603 166.88 222.347 166.824 222.091 166.824C221.809 166.824 221.523 166.88 221.235 166.992C220.953 167.104 220.713 167.283 220.515 167.528C220.323 167.768 220.227 168.083 220.227 168.472V174H218.755ZM233.655 170.208C233.655 170.731 233.74 171.205 233.911 171.632C234.087 172.053 234.351 172.389 234.703 172.64C235.06 172.891 235.506 173.016 236.039 173.016C236.567 173.016 237.02 172.893 237.399 172.648C237.783 172.403 238.028 172.048 238.135 171.584H239.535C239.434 172.144 239.21 172.616 238.863 173C238.516 173.384 238.098 173.675 237.607 173.872C237.116 174.064 236.604 174.16 236.071 174.16C235.298 174.16 234.618 173.992 234.031 173.656C233.444 173.32 232.986 172.837 232.655 172.208C232.324 171.579 232.159 170.824 232.159 169.944C232.159 169.075 232.308 168.312 232.607 167.656C232.906 167 233.338 166.488 233.903 166.12C234.474 165.752 235.159 165.568 235.959 165.568C236.738 165.568 237.396 165.736 237.935 166.072C238.474 166.408 238.882 166.883 239.159 167.496C239.442 168.104 239.583 168.827 239.583 169.664V170.208H233.655ZM233.663 169.208H238.159C238.159 168.733 238.079 168.307 237.919 167.928C237.759 167.544 237.514 167.243 237.183 167.024C236.858 166.8 236.447 166.688 235.951 166.688C235.434 166.688 235.004 166.813 234.663 167.064C234.327 167.309 234.074 167.627 233.903 168.016C233.738 168.4 233.658 168.797 233.663 169.208ZM241.615 174V165.728H243.047V166.928C243.18 166.699 243.364 166.483 243.599 166.28C243.839 166.077 244.127 165.915 244.463 165.792C244.804 165.669 245.196 165.608 245.639 165.608C246.161 165.608 246.641 165.712 247.079 165.92C247.521 166.128 247.873 166.453 248.135 166.896C248.401 167.333 248.535 167.899 248.535 168.592V174H247.055V168.736C247.055 168.091 246.884 167.613 246.543 167.304C246.207 166.989 245.769 166.832 245.231 166.832C244.857 166.832 244.508 166.893 244.183 167.016C243.857 167.133 243.593 167.315 243.391 167.56C243.188 167.8 243.087 168.104 243.087 168.472V174H241.615ZM254.661 166.808H252.797V171.952C252.797 172.245 252.826 172.461 252.885 172.6C252.949 172.733 253.053 172.819 253.197 172.856C253.346 172.893 253.549 172.912 253.805 172.912H254.709V173.904C254.608 173.941 254.453 173.973 254.245 174C254.042 174.027 253.789 174.04 253.485 174.04C252.914 174.04 252.472 173.963 252.157 173.808C251.842 173.653 251.621 173.424 251.493 173.12C251.37 172.816 251.309 172.443 251.309 172V166.808H249.965V165.728H251.349L251.709 163.32H252.797V165.72H254.661V166.808ZM256.443 174V172.112H258.203V174H256.443Z" fill="#ADB7BC"/>
<rect y="200" width="156" height="48" rx="2" fill="#FA8232"/>
<path d="M28.935 229.14C28.4357 229.14 27.9457 229.077 27.465 228.951C26.9843 228.825 26.5457 228.636 26.149 228.384C25.7523 228.132 25.4233 227.817 25.162 227.439C24.9053 227.061 24.7513 226.618 24.7 226.109H26.793C26.863 226.417 26.996 226.676 27.192 226.886C27.388 227.096 27.6353 227.257 27.934 227.369C28.2327 227.481 28.564 227.537 28.928 227.537C29.3013 227.537 29.642 227.49 29.95 227.397C30.258 227.304 30.5053 227.164 30.692 226.977C30.8787 226.786 30.972 226.548 30.972 226.263C30.972 226.006 30.895 225.796 30.741 225.633C30.5917 225.47 30.3887 225.337 30.132 225.234C29.8753 225.131 29.5837 225.047 29.257 224.982L27.507 224.625C26.7417 224.48 26.135 224.177 25.687 223.715C25.239 223.248 25.008 222.628 24.994 221.853C24.9893 221.218 25.1573 220.67 25.498 220.208C25.8433 219.741 26.31 219.382 26.898 219.13C27.4907 218.878 28.1533 218.752 28.886 218.752C29.7587 218.752 30.4913 218.89 31.084 219.165C31.6813 219.436 32.134 219.804 32.442 220.271C32.7547 220.733 32.9157 221.249 32.925 221.818H30.874C30.8367 221.463 30.7293 221.181 30.552 220.971C30.3747 220.761 30.146 220.609 29.866 220.516C29.5907 220.423 29.2757 220.376 28.921 220.376C28.6503 220.376 28.403 220.406 28.179 220.467C27.9597 220.528 27.773 220.614 27.619 220.726C27.465 220.833 27.346 220.962 27.262 221.111C27.178 221.26 27.136 221.428 27.136 221.615C27.136 221.909 27.234 222.147 27.43 222.329C27.626 222.511 27.9923 222.66 28.529 222.777L30.265 223.134C30.8857 223.255 31.378 223.435 31.742 223.673C32.1107 223.911 32.386 224.179 32.568 224.478C32.7547 224.777 32.876 225.082 32.932 225.395C32.9927 225.703 33.023 225.988 33.023 226.249C33.023 226.795 32.8503 227.287 32.505 227.726C32.1643 228.16 31.6883 228.505 31.077 228.762C30.4657 229.014 29.7517 229.14 28.935 229.14ZM41.4634 224.653H37.0324V229H34.9954V218.878H37.0324V222.938H41.4634V218.878H43.5074V229H41.4634V224.653ZM50.1438 229.14C49.1871 229.14 48.3588 228.932 47.6588 228.517C46.9635 228.097 46.4245 227.502 46.0418 226.732C45.6638 225.957 45.4748 225.033 45.4748 223.96C45.4748 222.882 45.6661 221.953 46.0488 221.174C46.4361 220.395 46.9798 219.795 47.6798 219.375C48.3798 218.95 49.2011 218.738 50.1438 218.738C51.0818 218.738 51.8985 218.948 52.5938 219.368C53.2891 219.788 53.8258 220.388 54.2038 221.167C54.5865 221.946 54.7778 222.877 54.7778 223.96C54.7778 225.029 54.5888 225.95 54.2108 226.725C53.8375 227.5 53.3031 228.097 52.6078 228.517C51.9125 228.932 51.0911 229.14 50.1438 229.14ZM50.1438 227.46C50.6385 227.46 51.0655 227.343 51.4248 227.11C51.7888 226.872 52.0688 226.499 52.2648 225.99C52.4608 225.477 52.5588 224.809 52.5588 223.988C52.5588 223.143 52.4585 222.46 52.2578 221.937C52.0618 221.414 51.7818 221.032 51.4178 220.789C51.0585 220.542 50.6338 220.418 50.1438 220.418C49.6538 220.418 49.2268 220.542 48.8628 220.789C48.4988 221.032 48.2165 221.417 48.0158 221.944C47.8151 222.467 47.7148 223.148 47.7148 223.988C47.7148 224.814 47.8151 225.481 48.0158 225.99C48.2165 226.499 48.4988 226.872 48.8628 227.11C49.2268 227.343 49.6538 227.46 50.1438 227.46ZM56.7552 229V218.878H60.4792C61.2165 218.878 61.8769 219.006 62.4602 219.263C63.0435 219.515 63.5032 219.888 63.8392 220.383C64.1799 220.878 64.3502 221.482 64.3502 222.196C64.3502 222.868 64.2009 223.442 63.9022 223.918C63.6035 224.394 63.1835 224.758 62.6422 225.01C62.1055 225.262 61.4732 225.388 60.7452 225.388H58.8132V229H56.7552ZM58.7922 223.806H60.6892C61.2025 223.806 61.6225 223.643 61.9492 223.316C62.2759 222.985 62.4392 222.576 62.4392 222.091C62.4392 221.587 62.2665 221.188 61.9212 220.894C61.5759 220.595 61.1559 220.446 60.6612 220.446H58.7922V223.806ZM75.8338 218.878H77.8778V229H76.0368L71.2278 222.035V229H69.1908V218.878H71.2138L75.8338 225.577V218.878ZM84.517 229.14C83.5603 229.14 82.732 228.932 82.032 228.517C81.3366 228.097 80.7976 227.502 80.415 226.732C80.037 225.957 79.848 225.033 79.848 223.96C79.848 222.882 80.0393 221.953 80.422 221.174C80.8093 220.395 81.353 219.795 82.053 219.375C82.753 218.95 83.5743 218.738 84.517 218.738C85.455 218.738 86.2716 218.948 86.967 219.368C87.6623 219.788 88.199 220.388 88.577 221.167C88.9596 221.946 89.151 222.877 89.151 223.96C89.151 225.029 88.962 225.95 88.584 226.725C88.2106 227.5 87.6763 228.097 86.981 228.517C86.2856 228.932 85.4643 229.14 84.517 229.14ZM84.517 227.46C85.0116 227.46 85.4386 227.343 85.798 227.11C86.162 226.872 86.442 226.499 86.638 225.99C86.834 225.477 86.932 224.809 86.932 223.988C86.932 223.143 86.8316 222.46 86.631 221.937C86.435 221.414 86.155 221.032 85.791 220.789C85.4316 220.542 85.007 220.418 84.517 220.418C84.027 220.418 83.6 220.542 83.236 220.789C82.872 221.032 82.5896 221.417 82.389 221.944C82.1883 222.467 82.088 223.148 82.088 223.988C82.088 224.814 82.1883 225.481 82.389 225.99C82.5896 226.499 82.872 226.872 83.236 227.11C83.6 227.343 84.027 227.46 84.517 227.46ZM103 218.878L100.011 229H98.3803L96.4763 222.385L94.5583 229H92.9553L89.9733 218.878H91.9753L93.8583 225.563L95.7413 218.878H97.2183L99.1223 225.563L101.005 218.878H103Z" fill="white"/>
<path d="M115.125 224H128.875" stroke="white" stroke-width="1.8" stroke-linecap="round" stroke-linejoin="round"/>
<path d="M123.25 218.375L128.875 224L123.25 229.625" stroke="white" stroke-width="1.8" stroke-linecap="round" stroke-linejoin="round"/>
</svg>
