<svg width="424" height="264" viewBox="0 0 424 264" fill="none" xmlns="http://www.w3.org/2000/svg">
<rect width="165" height="32" rx="2" fill="#2DA5F3"/>
<path d="M16.865 21.14C16.375 21.14 15.8967 21.0793 15.43 20.958C14.9633 20.832 14.5387 20.6477 14.156 20.405C13.778 20.1577 13.463 19.852 13.211 19.488C12.959 19.1193 12.805 18.69 12.749 18.2H14.513C14.5877 18.5407 14.7347 18.8277 14.954 19.061C15.1733 19.2943 15.4463 19.4717 15.773 19.593C16.1043 19.7143 16.466 19.775 16.858 19.775C17.278 19.775 17.656 19.719 17.992 19.607C18.3327 19.495 18.601 19.3317 18.797 19.117C18.9977 18.9023 19.098 18.6387 19.098 18.326C19.098 18.0507 19.0257 17.8173 18.881 17.626C18.7363 17.4347 18.5333 17.2783 18.272 17.157C18.0153 17.031 17.7143 16.9307 17.369 16.856L15.507 16.45C14.7557 16.296 14.1607 15.9973 13.722 15.554C13.2833 15.1107 13.0593 14.5203 13.05 13.783C13.0453 13.1717 13.2063 12.6397 13.533 12.187C13.8643 11.7297 14.3147 11.3773 14.884 11.13C15.4533 10.878 16.0973 10.752 16.816 10.752C17.656 10.752 18.363 10.8897 18.937 11.165C19.5157 11.4357 19.952 11.7997 20.246 12.257C20.5447 12.7143 20.6963 13.216 20.701 13.762H18.979C18.937 13.3607 18.8157 13.041 18.615 12.803C18.419 12.565 18.167 12.3947 17.859 12.292C17.551 12.1893 17.2103 12.138 16.837 12.138C16.557 12.138 16.2957 12.1707 16.053 12.236C15.8103 12.3013 15.598 12.397 15.416 12.523C15.234 12.649 15.0917 12.803 14.989 12.985C14.891 13.1623 14.842 13.3653 14.842 13.594C14.842 13.9207 14.9493 14.1867 15.164 14.392C15.3833 14.5927 15.7917 14.763 16.389 14.903L18.209 15.309C18.7737 15.421 19.2287 15.589 19.574 15.813C19.9193 16.037 20.183 16.2937 20.365 16.583C20.547 16.8677 20.6683 17.1593 20.729 17.458C20.7897 17.7567 20.82 18.0413 20.82 18.312C20.82 18.8393 20.6567 19.3177 20.33 19.747C20.008 20.1763 19.5507 20.517 18.958 20.769C18.37 21.0163 17.6723 21.14 16.865 21.14ZM21.8549 21L25.4949 10.878H27.3359L30.9689 21H29.2609L28.3579 18.459H24.4939L23.5699 21H21.8549ZM24.8859 16.947H27.9379L26.4189 12.537L24.8859 16.947ZM39.1378 10.878L35.6028 21H33.6288L30.1358 10.878H31.7808L34.6158 19.033L37.4928 10.878H39.1378ZM40.6508 21V10.878H47.3428L47.3358 12.341H42.3658V15.176H46.7548V16.618H42.3518V19.516L47.4408 19.523V21H40.6508ZM60.3293 17.304C60.3293 18.1067 60.1986 18.795 59.9373 19.369C59.676 19.9383 59.2583 20.377 58.6843 20.685C58.115 20.9883 57.3636 21.14 56.4303 21.14C55.497 21.14 54.7433 20.986 54.1693 20.678C53.6 20.3653 53.187 19.9173 52.9303 19.334C52.6736 18.746 52.5453 18.0367 52.5453 17.206V10.878H54.2883V17.381C54.2883 18.165 54.4796 18.7437 54.8623 19.117C55.2496 19.4903 55.7723 19.677 56.4303 19.677C56.8736 19.677 57.2586 19.5953 57.5853 19.432C57.912 19.2687 58.164 19.019 58.3413 18.683C58.5186 18.3423 58.6073 17.9083 58.6073 17.381V10.878H60.3293V17.304ZM62.5395 21V10.878H66.1305C66.8585 10.878 67.5095 11.004 68.0835 11.256C68.6621 11.5033 69.1171 11.8697 69.4485 12.355C69.7798 12.8403 69.9455 13.4377 69.9455 14.147C69.9455 14.8143 69.7938 15.386 69.4905 15.862C69.1918 16.338 68.7741 16.702 68.2375 16.954C67.7008 17.206 67.0731 17.332 66.3545 17.332H64.2685V21H62.5395ZM64.2545 15.967H66.3125C66.9051 15.967 67.3881 15.7897 67.7615 15.435C68.1395 15.0803 68.3285 14.6183 68.3285 14.049C68.3285 13.4703 68.1325 13.0223 67.7405 12.705C67.3485 12.383 66.8561 12.222 66.2635 12.222H64.2545V15.967ZM73.7217 12.411V10.878H81.6177V12.411H78.5797V21H76.8717V12.411H73.7217ZM87.1066 21.14C86.1733 21.14 85.3659 20.9347 84.6846 20.524C84.0079 20.1133 83.4829 19.5207 83.1096 18.746C82.7409 17.9713 82.5566 17.0427 82.5566 15.96C82.5566 14.868 82.7433 13.9323 83.1166 13.153C83.4899 12.3737 84.0173 11.7763 84.6986 11.361C85.3846 10.9457 86.1873 10.738 87.1066 10.738C88.0259 10.738 88.8216 10.9457 89.4936 11.361C90.1703 11.7763 90.6929 12.3737 91.0616 13.153C91.4303 13.9323 91.6146 14.868 91.6146 15.96C91.6146 17.0427 91.4326 17.9713 91.0686 18.746C90.7046 19.516 90.1843 20.1087 89.5076 20.524C88.8309 20.9347 88.0306 21.14 87.1066 21.14ZM87.1066 19.712C87.6573 19.712 88.1309 19.5837 88.5276 19.327C88.9243 19.0657 89.2276 18.662 89.4376 18.116C89.6523 17.5653 89.7596 16.8537 89.7596 15.981C89.7596 15.0943 89.6523 14.371 89.4376 13.811C89.2229 13.2463 88.9173 12.831 88.5206 12.565C88.1239 12.299 87.6526 12.166 87.1066 12.166C86.5559 12.166 86.0799 12.3013 85.6786 12.572C85.2819 12.838 84.9739 13.2533 84.7546 13.818C84.5353 14.378 84.4256 15.099 84.4256 15.981C84.4256 16.8537 84.5353 17.5653 84.7546 18.116C84.9739 18.662 85.2819 19.0657 85.6786 19.327C86.0799 19.5837 86.5559 19.712 87.1066 19.712ZM100.27 21.14C99.1221 21.14 98.1818 20.902 97.4491 20.426C96.7164 19.95 96.2894 19.2313 96.1681 18.27L97.9461 18.207C98.0721 18.7203 98.3381 19.1077 98.7441 19.369C99.1548 19.6257 99.6611 19.754 100.263 19.754C100.622 19.754 100.951 19.6933 101.25 19.572C101.549 19.4507 101.787 19.2827 101.964 19.068C102.141 18.8533 102.23 18.606 102.23 18.326C102.23 17.92 102.104 17.6073 101.852 17.388C101.605 17.164 101.215 16.989 100.683 16.863L98.9821 16.457C98.2261 16.2843 97.6218 15.981 97.1691 15.547C96.7164 15.1083 96.4854 14.5203 96.4761 13.783C96.4714 13.1717 96.6324 12.6397 96.9591 12.187C97.2904 11.7297 97.7454 11.3773 98.3241 11.13C98.9028 10.878 99.5584 10.752 100.291 10.752C101.024 10.752 101.656 10.8873 102.188 11.158C102.72 11.424 103.131 11.781 103.42 12.229C103.709 12.677 103.856 13.1693 103.861 13.706L102.132 13.762C102.053 13.244 101.873 12.845 101.593 12.565C101.313 12.2803 100.884 12.138 100.305 12.138C100.025 12.138 99.7638 12.1707 99.5211 12.236C99.2784 12.3013 99.0661 12.397 98.8841 12.523C98.7021 12.649 98.5598 12.803 98.4571 12.985C98.3544 13.1623 98.3031 13.3653 98.3031 13.594C98.3031 13.9207 98.4151 14.1797 98.6391 14.371C98.8678 14.5577 99.2831 14.7373 99.8851 14.91L101.537 15.344C102.428 15.5727 103.068 15.946 103.455 16.464C103.847 16.982 104.043 17.598 104.043 18.312C104.043 18.8767 103.887 19.3713 103.574 19.796C103.261 20.216 102.82 20.545 102.251 20.783C101.686 21.021 101.026 21.14 100.27 21.14ZM99.5421 9.401H101.054V11.214H99.5421V9.401ZM99.4861 20.58H100.991V22.393H99.4861V20.58ZM105.631 21V20.09V19.621C105.631 19.103 105.726 18.6573 105.918 18.284C106.109 17.906 106.363 17.577 106.681 17.297C106.998 17.017 107.346 16.7697 107.724 16.555C108.106 16.3357 108.484 16.1303 108.858 15.939C109.236 15.743 109.583 15.5423 109.901 15.337C110.218 15.127 110.472 14.8937 110.664 14.637C110.86 14.3803 110.958 14.0747 110.958 13.72C110.958 13.2673 110.797 12.8987 110.475 12.614C110.157 12.3247 109.726 12.18 109.18 12.18C108.601 12.18 108.123 12.3457 107.745 12.677C107.371 13.0083 107.15 13.475 107.08 14.077H105.428C105.437 13.461 105.584 12.901 105.869 12.397C106.153 11.893 106.576 11.4917 107.136 11.193C107.696 10.8897 108.393 10.738 109.229 10.738C109.952 10.738 110.575 10.864 111.098 11.116C111.625 11.3633 112.031 11.711 112.316 12.159C112.605 12.6023 112.75 13.1203 112.75 13.713C112.75 14.231 112.654 14.6743 112.463 15.043C112.276 15.4117 112.026 15.7313 111.714 16.002C111.406 16.268 111.065 16.5037 110.692 16.709C110.323 16.9143 109.952 17.108 109.579 17.29C109.21 17.4673 108.869 17.654 108.557 17.85C108.249 18.0413 107.999 18.2607 107.808 18.508C107.621 18.7553 107.528 19.0517 107.528 19.397V19.544H112.771V21H105.631ZM117.862 10.738C119.02 10.738 119.934 11.1837 120.606 12.075C121.283 12.9617 121.621 14.2567 121.621 15.96C121.621 17.654 121.285 18.9443 120.613 19.831C119.946 20.713 119.027 21.154 117.855 21.154C116.684 21.154 115.762 20.713 115.09 19.831C114.423 18.949 114.089 17.6633 114.089 15.974C114.089 14.8353 114.243 13.8787 114.551 13.104C114.859 12.3247 115.296 11.7367 115.86 11.34C116.425 10.9387 117.092 10.738 117.862 10.738ZM117.862 19.733C118.52 19.733 119.01 19.4413 119.332 18.858C119.654 18.2747 119.815 17.311 119.815 15.967C119.815 14.595 119.652 13.6103 119.325 13.013C118.999 12.4157 118.509 12.117 117.855 12.117C117.202 12.117 116.707 12.418 116.371 13.02C116.04 13.622 115.874 14.6043 115.874 15.967C115.874 17.3063 116.04 18.27 116.371 18.858C116.707 19.4413 117.204 19.733 117.862 19.733ZM126.612 10.738C127.77 10.738 128.684 11.1837 129.356 12.075C130.033 12.9617 130.371 14.2567 130.371 15.96C130.371 17.654 130.035 18.9443 129.363 19.831C128.696 20.713 127.777 21.154 126.605 21.154C125.434 21.154 124.512 20.713 123.84 19.831C123.173 18.949 122.839 17.6633 122.839 15.974C122.839 14.8353 122.993 13.8787 123.301 13.104C123.609 12.3247 124.046 11.7367 124.61 11.34C125.175 10.9387 125.842 10.738 126.612 10.738ZM126.612 19.733C127.27 19.733 127.76 19.4413 128.082 18.858C128.404 18.2747 128.565 17.311 128.565 15.967C128.565 14.595 128.402 13.6103 128.075 13.013C127.749 12.4157 127.259 12.117 126.605 12.117C125.952 12.117 125.457 12.418 125.121 13.02C124.79 13.622 124.624 14.6043 124.624 15.967C124.624 17.3063 124.79 18.27 125.121 18.858C125.457 19.4413 125.954 19.733 126.612 19.733ZM131.742 21V19.04H133.667V21H131.742ZM138.917 10.738C140.074 10.738 140.989 11.1837 141.661 12.075C142.338 12.9617 142.676 14.2567 142.676 15.96C142.676 17.654 142.34 18.9443 141.668 19.831C141.001 20.713 140.081 21.154 138.91 21.154C137.739 21.154 136.817 20.713 136.145 19.831C135.478 18.949 135.144 17.6633 135.144 15.974C135.144 14.8353 135.298 13.8787 135.606 13.104C135.914 12.3247 136.35 11.7367 136.915 11.34C137.48 10.9387 138.147 10.738 138.917 10.738ZM138.917 19.733C139.575 19.733 140.065 19.4413 140.387 18.858C140.709 18.2747 140.87 17.311 140.87 15.967C140.87 14.595 140.707 13.6103 140.38 13.013C140.053 12.4157 139.563 12.117 138.91 12.117C138.257 12.117 137.762 12.418 137.426 13.02C137.095 13.622 136.929 14.6043 136.929 15.967C136.929 17.3063 137.095 18.27 137.426 18.858C137.762 19.4413 138.259 19.733 138.917 19.733ZM147.667 10.738C148.824 10.738 149.739 11.1837 150.411 12.075C151.088 12.9617 151.426 14.2567 151.426 15.96C151.426 17.654 151.09 18.9443 150.418 19.831C149.751 20.713 148.831 21.154 147.66 21.154C146.489 21.154 145.567 20.713 144.895 19.831C144.228 18.949 143.894 17.6633 143.894 15.974C143.894 14.8353 144.048 13.8787 144.356 13.104C144.664 12.3247 145.1 11.7367 145.665 11.34C146.23 10.9387 146.897 10.738 147.667 10.738ZM147.667 19.733C148.325 19.733 148.815 19.4413 149.137 18.858C149.459 18.2747 149.62 17.311 149.62 15.967C149.62 14.595 149.457 13.6103 149.13 13.013C148.803 12.4157 148.313 12.117 147.66 12.117C147.007 12.117 146.512 12.418 146.176 13.02C145.845 13.622 145.679 14.6043 145.679 15.967C145.679 17.3063 145.845 18.27 146.176 18.858C146.512 19.4413 147.009 19.733 147.667 19.733Z" fill="white"/>
<path d="M4.2 89V54.296H12.552L21.648 80.816L30.84 54.296H39.144V89H33.216V61.784L24.072 89H19.2L10.128 61.952V89H4.2ZM53.6096 89.48C52.0256 89.48 50.6016 89.192 49.3376 88.616C48.0896 88.024 47.1056 87.184 46.3856 86.096C45.6816 84.992 45.3296 83.656 45.3296 82.088C45.3296 79.352 46.3136 77.288 48.2816 75.896C50.2656 74.504 53.4256 73.776 57.7616 73.712L61.4576 73.616V71.936C61.4576 70.624 61.0656 69.6 60.2816 68.864C59.5136 68.112 58.3136 67.744 56.6816 67.76C55.4816 67.776 54.3776 68.064 53.3696 68.624C52.3776 69.168 51.7216 70.088 51.4016 71.384H46.4336C46.5296 69.688 47.0176 68.272 47.8976 67.136C48.7936 65.984 50.0176 65.128 51.5696 64.568C53.1216 63.992 54.9136 63.704 56.9456 63.704C59.3136 63.704 61.2416 64.016 62.7296 64.64C64.2176 65.264 65.3136 66.168 66.0176 67.352C66.7216 68.52 67.0736 69.936 67.0736 71.6V89H62.1536L61.6976 84.536C60.8016 86.408 59.6656 87.704 58.2896 88.424C56.9296 89.128 55.3696 89.48 53.6096 89.48ZM55.5056 85.52C56.2256 85.52 56.9376 85.392 57.6416 85.136C58.3456 84.864 58.9856 84.504 59.5616 84.056C60.1376 83.592 60.5936 83.08 60.9296 82.52C61.2816 81.96 61.4576 81.376 61.4576 80.768V76.856L58.4096 76.904C56.9056 76.92 55.5936 77.08 54.4736 77.384C53.3536 77.688 52.4736 78.176 51.8336 78.848C51.2096 79.504 50.8976 80.384 50.8976 81.488C50.8976 82.752 51.3376 83.744 52.2176 84.464C53.0976 85.168 54.1936 85.52 55.5056 85.52ZM84.2018 63.704C86.1378 63.704 87.8418 64.088 89.3138 64.856C90.7858 65.624 91.9618 66.688 92.8418 68.048C93.7378 69.408 94.2738 70.952 94.4498 72.68H89.4578C89.3458 71.928 89.0738 71.216 88.6418 70.544C88.2098 69.856 87.6258 69.304 86.8898 68.888C86.1538 68.456 85.2658 68.24 84.2258 68.24C82.3698 68.24 80.8578 68.928 79.6898 70.304C78.5378 71.68 77.9618 73.792 77.9618 76.64C77.9618 79.264 78.5138 81.352 79.6178 82.904C80.7218 84.456 82.2978 85.232 84.3458 85.232C85.3698 85.232 86.2418 85.008 86.9618 84.56C87.6978 84.096 88.2738 83.528 88.6898 82.856C89.1218 82.168 89.4018 81.48 89.5298 80.792H94.3778C94.2338 82.472 93.7058 83.968 92.7938 85.28C91.8978 86.592 90.7138 87.624 89.2418 88.376C87.7858 89.112 86.1058 89.48 84.2018 89.48C81.9298 89.48 79.9058 88.984 78.1298 87.992C76.3698 86.984 74.9858 85.528 73.9778 83.624C72.9698 81.704 72.4658 79.392 72.4658 76.688C72.4658 74.112 72.9378 71.856 73.8818 69.92C74.8258 67.968 76.1778 66.448 77.9378 65.36C79.6978 64.256 81.7858 63.704 84.2018 63.704ZM112.932 89.48C111.604 89.48 110.468 89.304 109.524 88.952C108.58 88.6 107.788 88.144 107.148 87.584C106.524 87.024 106.02 86.424 105.636 85.784C105.268 85.128 104.988 84.504 104.796 83.912L104.124 89H99.8276V53.336H105.684V67.808C105.94 67.328 106.292 66.848 106.74 66.368C107.204 65.888 107.764 65.448 108.42 65.048C109.076 64.648 109.82 64.328 110.652 64.088C111.5 63.832 112.436 63.704 113.46 63.704C116.548 63.704 118.988 64.8 120.78 66.992C122.572 69.184 123.468 72.344 123.468 76.472C123.468 79.08 123.068 81.36 122.268 83.312C121.484 85.264 120.308 86.784 118.74 87.872C117.188 88.944 115.252 89.48 112.932 89.48ZM111.732 85.184C113.476 85.184 114.908 84.488 116.028 83.096C117.148 81.704 117.708 79.448 117.708 76.328C117.708 73.608 117.18 71.552 116.124 70.16C115.068 68.752 113.58 68.048 111.66 68.048C110.284 68.048 109.156 68.36 108.276 68.984C107.412 69.608 106.764 70.536 106.332 71.768C105.916 73 105.7 74.52 105.684 76.328C105.684 79.496 106.164 81.768 107.124 83.144C108.1 84.504 109.636 85.184 111.732 85.184ZM138.952 89.48C136.584 89.48 134.52 88.976 132.76 87.968C131 86.944 129.632 85.48 128.656 83.576C127.696 81.672 127.216 79.384 127.216 76.712C127.216 74.12 127.68 71.848 128.608 69.896C129.552 67.944 130.904 66.424 132.664 65.336C134.424 64.248 136.528 63.704 138.976 63.704C141.344 63.704 143.4 64.224 145.144 65.264C146.888 66.304 148.232 67.792 149.176 69.728C150.136 71.664 150.616 73.992 150.616 76.712C150.616 79.224 150.16 81.44 149.248 83.36C148.352 85.264 147.032 86.76 145.288 87.848C143.56 88.936 141.448 89.48 138.952 89.48ZM138.976 85.04C140.32 85.04 141.424 84.672 142.288 83.936C143.168 83.2 143.816 82.192 144.232 80.912C144.664 79.632 144.88 78.176 144.88 76.544C144.88 75.024 144.688 73.624 144.304 72.344C143.936 71.064 143.312 70.04 142.432 69.272C141.568 68.488 140.416 68.096 138.976 68.096C137.616 68.096 136.488 68.456 135.592 69.176C134.712 69.88 134.048 70.872 133.6 72.152C133.168 73.416 132.952 74.88 132.952 76.544C132.952 78.048 133.144 79.448 133.528 80.744C133.928 82.024 134.568 83.064 135.448 83.864C136.328 84.648 137.504 85.04 138.976 85.04ZM166.092 89.48C163.724 89.48 161.66 88.976 159.9 87.968C158.14 86.944 156.772 85.48 155.796 83.576C154.836 81.672 154.356 79.384 154.356 76.712C154.356 74.12 154.82 71.848 155.748 69.896C156.692 67.944 158.044 66.424 159.804 65.336C161.564 64.248 163.668 63.704 166.116 63.704C168.484 63.704 170.54 64.224 172.284 65.264C174.028 66.304 175.372 67.792 176.316 69.728C177.276 71.664 177.756 73.992 177.756 76.712C177.756 79.224 177.3 81.44 176.388 83.36C175.492 85.264 174.172 86.76 172.428 87.848C170.7 88.936 168.588 89.48 166.092 89.48ZM166.116 85.04C167.46 85.04 168.564 84.672 169.428 83.936C170.308 83.2 170.956 82.192 171.372 80.912C171.804 79.632 172.02 78.176 172.02 76.544C172.02 75.024 171.828 73.624 171.444 72.344C171.076 71.064 170.452 70.04 169.572 69.272C168.708 68.488 167.556 68.096 166.116 68.096C164.756 68.096 163.628 68.456 162.732 69.176C161.852 69.88 161.188 70.872 160.74 72.152C160.308 73.416 160.092 74.88 160.092 76.544C160.092 78.048 160.284 79.448 160.668 80.744C161.068 82.024 161.708 83.064 162.588 83.864C163.468 84.648 164.644 85.04 166.116 85.04ZM205.905 89H199.977L192.777 77.504L188.745 81.728V89H182.937V53.336H188.745V75.44L199.041 64.184H205.449L196.473 73.88L205.905 89ZM221.934 89V54.296H234.246C236.742 54.296 238.974 54.728 240.942 55.592C242.926 56.44 244.486 57.696 245.622 59.36C246.758 61.024 247.326 63.072 247.326 65.504C247.326 67.792 246.806 69.752 245.766 71.384C244.742 73.016 243.31 74.264 241.47 75.128C239.63 75.992 237.478 76.424 235.014 76.424H227.862V89H221.934ZM227.814 71.744H234.87C236.902 71.744 238.558 71.136 239.838 69.92C241.134 68.704 241.782 67.12 241.782 65.168C241.782 63.184 241.11 61.648 239.766 60.56C238.422 59.456 236.734 58.904 234.702 58.904H227.814V71.744ZM251.984 89V64.184H257.576V69.56C257.976 68.328 258.544 67.28 259.28 66.416C260.032 65.536 260.912 64.864 261.92 64.4C262.928 63.936 264.024 63.704 265.208 63.704C265.496 63.704 265.776 63.72 266.048 63.752C266.32 63.784 266.52 63.84 266.648 63.92V69.512C266.472 69.432 266.24 69.376 265.952 69.344C265.68 69.312 265.44 69.296 265.232 69.296C264.032 69.2 262.968 69.248 262.04 69.44C261.128 69.632 260.352 69.96 259.712 70.424C259.088 70.872 258.616 71.448 258.296 72.152C257.976 72.84 257.816 73.648 257.816 74.576V89H251.984ZM281.124 89.48C278.756 89.48 276.692 88.976 274.932 87.968C273.172 86.944 271.804 85.48 270.828 83.576C269.868 81.672 269.388 79.384 269.388 76.712C269.388 74.12 269.852 71.848 270.78 69.896C271.724 67.944 273.076 66.424 274.836 65.336C276.596 64.248 278.7 63.704 281.148 63.704C283.516 63.704 285.572 64.224 287.316 65.264C289.06 66.304 290.404 67.792 291.348 69.728C292.308 71.664 292.788 73.992 292.788 76.712C292.788 79.224 292.332 81.44 291.42 83.36C290.524 85.264 289.204 86.76 287.46 87.848C285.732 88.936 283.62 89.48 281.124 89.48ZM281.148 85.04C282.492 85.04 283.596 84.672 284.46 83.936C285.34 83.2 285.988 82.192 286.404 80.912C286.836 79.632 287.052 78.176 287.052 76.544C287.052 75.024 286.86 73.624 286.476 72.344C286.108 71.064 285.484 70.04 284.604 69.272C283.74 68.488 282.588 68.096 281.148 68.096C279.788 68.096 278.66 68.456 277.764 69.176C276.884 69.88 276.22 70.872 275.772 72.152C275.34 73.416 275.124 74.88 275.124 76.544C275.124 78.048 275.316 79.448 275.7 80.744C276.1 82.024 276.74 83.064 277.62 83.864C278.5 84.648 279.676 85.04 281.148 85.04Z" fill="#191C1F"/>
<path d="M0.996 147L7.272 129.648H9.78L16.056 147H13.788L12.084 142.248H4.992L3.252 147H0.996ZM5.556 140.208H11.496L8.544 131.844L5.556 140.208ZM18.8751 150.864V134.592H21.0831L21.1071 136.752C21.2511 136.496 21.4351 136.228 21.6591 135.948C21.8911 135.668 22.1711 135.408 22.4991 135.168C22.8351 134.928 23.2231 134.732 23.6631 134.58C24.1111 134.428 24.6191 134.352 25.1871 134.352C26.1791 134.352 27.0511 134.58 27.8031 135.036C28.5631 135.484 29.1551 136.172 29.5791 137.1C30.0031 138.028 30.2151 139.204 30.2151 140.628C30.2151 142.052 30.0071 143.256 29.5911 144.24C29.1831 145.216 28.5911 145.96 27.8151 146.472C27.0391 146.984 26.1031 147.24 25.0071 147.24C24.4551 147.24 23.9631 147.16 23.5311 147C23.1071 146.848 22.7351 146.648 22.4151 146.4C22.1031 146.144 21.8391 145.872 21.6231 145.584C21.4151 145.296 21.2431 145.02 21.1071 144.756V150.864H18.8751ZM24.5871 145.512C25.6111 145.512 26.4471 145.124 27.0951 144.348C27.7431 143.564 28.0671 142.348 28.0671 140.7C28.0671 139.284 27.7711 138.16 27.1791 137.328C26.5871 136.496 25.7231 136.08 24.5871 136.08C23.4351 136.08 22.5631 136.508 21.9711 137.364C21.3791 138.212 21.0831 139.324 21.0831 140.7C21.0831 141.588 21.2151 142.396 21.4791 143.124C21.7431 143.852 22.1351 144.432 22.6551 144.864C23.1751 145.296 23.8191 145.512 24.5871 145.512ZM33.1251 150.864V134.592H35.3331L35.3571 136.752C35.5011 136.496 35.6851 136.228 35.9091 135.948C36.1411 135.668 36.4211 135.408 36.7491 135.168C37.0851 134.928 37.4731 134.732 37.9131 134.58C38.3611 134.428 38.8691 134.352 39.4371 134.352C40.4291 134.352 41.3011 134.58 42.0531 135.036C42.8131 135.484 43.4051 136.172 43.8291 137.1C44.2531 138.028 44.4651 139.204 44.4651 140.628C44.4651 142.052 44.2571 143.256 43.8411 144.24C43.4331 145.216 42.8411 145.96 42.0651 146.472C41.2891 146.984 40.3531 147.24 39.2571 147.24C38.7051 147.24 38.2131 147.16 37.7811 147C37.3571 146.848 36.9851 146.648 36.6651 146.4C36.3531 146.144 36.0891 145.872 35.8731 145.584C35.6651 145.296 35.4931 145.02 35.3571 144.756V150.864H33.1251ZM38.8371 145.512C39.8611 145.512 40.6971 145.124 41.3451 144.348C41.9931 143.564 42.3171 142.348 42.3171 140.7C42.3171 139.284 42.0211 138.16 41.4291 137.328C40.8371 136.496 39.9731 136.08 38.8371 136.08C37.6851 136.08 36.8131 136.508 36.2211 137.364C35.6291 138.212 35.3331 139.324 35.3331 140.7C35.3331 141.588 35.4651 142.396 35.7291 143.124C35.9931 143.852 36.3851 144.432 36.9051 144.864C37.4251 145.296 38.0691 145.512 38.8371 145.512ZM50.5071 147.156C49.8351 147.156 49.2911 147.064 48.8751 146.88C48.4671 146.696 48.1511 146.448 47.9271 146.136C47.7111 145.824 47.5631 145.468 47.4831 145.068C47.4111 144.66 47.3751 144.24 47.3751 143.808V129.168H49.5591V143.592C49.5591 144.216 49.6791 144.684 49.9191 144.996C50.1671 145.308 50.5111 145.48 50.9511 145.512L51.6231 145.524V146.964C51.4391 147.02 51.2471 147.064 51.0471 147.096C50.8471 147.136 50.6671 147.156 50.5071 147.156ZM55.92 141.312C55.92 142.096 56.048 142.808 56.304 143.448C56.568 144.08 56.964 144.584 57.492 144.96C58.028 145.336 58.696 145.524 59.496 145.524C60.288 145.524 60.968 145.34 61.536 144.972C62.112 144.604 62.48 144.072 62.64 143.376H64.74C64.588 144.216 64.252 144.924 63.732 145.5C63.212 146.076 62.584 146.512 61.848 146.808C61.112 147.096 60.344 147.24 59.544 147.24C58.384 147.24 57.364 146.988 56.484 146.484C55.604 145.98 54.916 145.256 54.42 144.312C53.924 143.368 53.676 142.236 53.676 140.916C53.676 139.612 53.9 138.468 54.348 137.484C54.796 136.5 55.444 135.732 56.292 135.18C57.148 134.628 58.176 134.352 59.376 134.352C60.544 134.352 61.532 134.604 62.34 135.108C63.148 135.612 63.76 136.324 64.176 137.244C64.6 138.156 64.812 139.24 64.812 140.496V141.312H55.92ZM55.932 139.812H62.676C62.676 139.1 62.556 138.46 62.316 137.892C62.076 137.316 61.708 136.864 61.212 136.536C60.724 136.2 60.108 136.032 59.364 136.032C58.588 136.032 57.944 136.22 57.432 136.596C56.928 136.964 56.548 137.44 56.292 138.024C56.044 138.6 55.924 139.196 55.932 139.812ZM73.7061 147V129.648H76.7781L82.0101 143.976L87.3141 129.648H90.3741V147H88.0821V132.972L83.0541 147H80.9781L75.9861 133.104V147H73.7061ZM97.1359 147V133.188H93.7879V131.736C94.8279 131.736 95.6359 131.66 96.2119 131.508C96.7879 131.356 97.1959 131.124 97.4359 130.812C97.6839 130.5 97.8199 130.112 97.8439 129.648H99.4279V147H97.1359ZM110.269 147V129.648H113.341L118.573 143.976L123.877 129.648H126.937V147H124.645V132.972L119.617 147H117.541L112.549 133.104V147H110.269ZM134.432 147.24C133.632 147.24 132.924 147.1 132.308 146.82C131.692 146.532 131.208 146.12 130.856 145.584C130.512 145.048 130.34 144.4 130.34 143.64C130.34 142.264 130.82 141.24 131.78 140.568C132.74 139.896 134.28 139.536 136.4 139.488L138.62 139.428V138.456C138.62 137.696 138.392 137.096 137.936 136.656C137.48 136.208 136.772 135.984 135.812 135.984C135.1 135.992 134.472 136.16 133.928 136.488C133.392 136.816 133.044 137.352 132.884 138.096H130.928C130.976 137.288 131.204 136.608 131.612 136.056C132.02 135.496 132.588 135.072 133.316 134.784C134.052 134.496 134.92 134.352 135.92 134.352C137 134.352 137.896 134.504 138.608 134.808C139.328 135.112 139.864 135.56 140.216 136.152C140.576 136.744 140.756 137.472 140.756 138.336V147H138.86L138.704 144.672C138.224 145.64 137.612 146.312 136.868 146.688C136.132 147.056 135.32 147.24 134.432 147.24ZM135.104 145.644C135.52 145.644 135.932 145.568 136.34 145.416C136.756 145.264 137.136 145.06 137.48 144.804C137.824 144.54 138.096 144.248 138.296 143.928C138.504 143.6 138.612 143.264 138.62 142.92V140.796L136.772 140.832C135.828 140.848 135.036 140.944 134.396 141.12C133.764 141.296 133.288 141.572 132.968 141.948C132.656 142.324 132.5 142.816 132.5 143.424C132.5 144.12 132.74 144.664 133.22 145.056C133.708 145.448 134.336 145.644 135.104 145.644ZM155.233 147H152.821L149.209 142.14L145.621 147H143.185L147.973 140.556L143.569 134.592H145.993L149.209 138.948L152.437 134.592H154.861L150.445 140.556L155.233 147ZM170.184 129.408C171.408 129.408 172.492 129.664 173.436 130.176C174.38 130.68 175.14 131.356 175.716 132.204C176.292 133.052 176.632 133.984 176.736 135H174.372C174.244 134.32 174 133.704 173.64 133.152C173.28 132.6 172.808 132.16 172.224 131.832C171.64 131.504 170.94 131.34 170.124 131.34C169.076 131.34 168.188 131.588 167.46 132.084C166.74 132.572 166.192 133.328 165.816 134.352C165.448 135.376 165.264 136.688 165.264 138.288C165.264 140.704 165.676 142.48 166.5 143.616C167.332 144.744 168.54 145.308 170.124 145.308C170.94 145.308 171.64 145.136 172.224 144.792C172.808 144.448 173.28 143.988 173.64 143.412C174 142.836 174.244 142.212 174.372 141.54H176.736C176.648 142.276 176.448 142.988 176.136 143.676C175.832 144.356 175.412 144.964 174.876 145.5C174.34 146.036 173.68 146.46 172.896 146.772C172.12 147.084 171.216 147.24 170.184 147.24C168.624 147.24 167.292 146.884 166.188 146.172C165.092 145.46 164.252 144.436 163.668 143.1C163.092 141.764 162.804 140.152 162.804 138.264C162.804 136.384 163.092 134.784 163.668 133.464C164.244 132.144 165.08 131.14 166.176 130.452C167.28 129.756 168.616 129.408 170.184 129.408ZM179.867 147V129.168H182.027V136.416C182.235 136.072 182.515 135.752 182.867 135.456C183.219 135.152 183.647 134.908 184.151 134.724C184.655 134.532 185.239 134.436 185.903 134.436C186.711 134.436 187.443 134.588 188.099 134.892C188.755 135.188 189.275 135.612 189.659 136.164C190.043 136.716 190.235 137.372 190.235 138.132V147H188.015V138.576C188.015 137.832 187.759 137.26 187.247 136.86C186.743 136.452 186.083 136.248 185.267 136.248C184.715 136.248 184.195 136.34 183.707 136.524C183.219 136.7 182.823 136.972 182.519 137.34C182.223 137.7 182.075 138.16 182.075 138.72V147H179.867ZM196.095 134.592V147H193.947V134.592H196.095ZM196.143 129.66V131.964H193.875V129.66H196.143ZM200.141 150.864V134.592H202.349L202.373 136.752C202.517 136.496 202.701 136.228 202.925 135.948C203.157 135.668 203.437 135.408 203.765 135.168C204.101 134.928 204.489 134.732 204.929 134.58C205.377 134.428 205.885 134.352 206.453 134.352C207.445 134.352 208.317 134.58 209.069 135.036C209.829 135.484 210.421 136.172 210.845 137.1C211.269 138.028 211.481 139.204 211.481 140.628C211.481 142.052 211.273 143.256 210.857 144.24C210.449 145.216 209.857 145.96 209.081 146.472C208.305 146.984 207.369 147.24 206.273 147.24C205.721 147.24 205.229 147.16 204.797 147C204.373 146.848 204.001 146.648 203.681 146.4C203.369 146.144 203.105 145.872 202.889 145.584C202.681 145.296 202.509 145.02 202.373 144.756V150.864H200.141ZM205.853 145.512C206.877 145.512 207.713 145.124 208.361 144.348C209.009 143.564 209.333 142.348 209.333 140.7C209.333 139.284 209.037 138.16 208.445 137.328C207.853 136.496 206.989 136.08 205.853 136.08C204.701 136.08 203.829 136.508 203.237 137.364C202.645 138.212 202.349 139.324 202.349 140.7C202.349 141.588 202.481 142.396 202.745 143.124C203.009 143.852 203.401 144.432 203.921 144.864C204.441 145.296 205.085 145.512 205.853 145.512ZM213.875 147V144.168H216.515V147H213.875ZM224.739 134.7C224.739 133.58 225.011 132.628 225.555 131.844C226.099 131.052 226.823 130.448 227.727 130.032C228.639 129.616 229.643 129.408 230.739 129.408C231.939 129.408 232.999 129.584 233.919 129.936C234.839 130.28 235.559 130.784 236.079 131.448C236.599 132.112 236.859 132.924 236.859 133.884C236.859 134.74 236.587 135.516 236.043 136.212C235.499 136.9 234.667 137.44 233.547 137.832C234.307 138.04 234.971 138.344 235.539 138.744C236.107 139.144 236.547 139.636 236.859 140.22C237.171 140.796 237.327 141.46 237.327 142.212C237.327 143.004 237.159 143.716 236.823 144.348C236.495 144.972 236.031 145.504 235.431 145.944C234.831 146.376 234.123 146.708 233.307 146.94C232.491 147.164 231.603 147.272 230.643 147.264C229.451 147.256 228.399 147.036 227.487 146.604C226.583 146.172 225.871 145.568 225.351 144.792C224.831 144.008 224.551 143.08 224.511 142.008H226.731C226.899 143.088 227.339 143.916 228.051 144.492C228.763 145.068 229.655 145.356 230.727 145.356C231.575 145.356 232.315 145.224 232.947 144.96C233.579 144.688 234.067 144.316 234.411 143.844C234.755 143.372 234.927 142.82 234.927 142.188C234.927 141.492 234.735 140.904 234.351 140.424C233.967 139.944 233.443 139.58 232.779 139.332C232.115 139.076 231.375 138.944 230.559 138.936L228.999 138.9V137.016L230.487 136.98C231.247 136.964 231.927 136.82 232.527 136.548C233.127 136.268 233.599 135.904 233.943 135.456C234.295 135 234.471 134.5 234.471 133.956C234.471 133.476 234.323 133.032 234.027 132.624C233.731 132.208 233.303 131.876 232.743 131.628C232.191 131.38 231.519 131.256 230.727 131.256C230.103 131.256 229.507 131.38 228.939 131.628C228.371 131.868 227.903 132.24 227.535 132.744C227.167 133.248 226.971 133.9 226.947 134.7H224.739ZM239.965 147V145.644V144.936C239.965 144.048 240.129 143.28 240.457 142.632C240.793 141.984 241.233 141.42 241.777 140.94C242.329 140.452 242.929 140.016 243.577 139.632C244.233 139.248 244.885 138.88 245.533 138.528C246.189 138.168 246.789 137.796 247.333 137.412C247.877 137.02 248.313 136.58 248.641 136.092C248.977 135.596 249.145 135.012 249.145 134.34C249.145 133.46 248.833 132.744 248.209 132.192C247.593 131.64 246.757 131.364 245.701 131.364C244.565 131.364 243.653 131.684 242.965 132.324C242.277 132.964 241.889 133.816 241.801 134.88H239.593C239.617 133.88 239.865 132.968 240.337 132.144C240.809 131.312 241.501 130.648 242.413 130.152C243.325 129.656 244.449 129.408 245.785 129.408C246.945 129.408 247.953 129.616 248.809 130.032C249.665 130.44 250.325 131.016 250.789 131.76C251.261 132.496 251.497 133.356 251.497 134.34C251.497 135.236 251.333 136.004 251.005 136.644C250.677 137.284 250.241 137.84 249.697 138.312C249.161 138.776 248.573 139.192 247.933 139.56C247.293 139.928 246.649 140.284 246.001 140.628C245.353 140.964 244.761 141.32 244.225 141.696C243.689 142.064 243.257 142.488 242.929 142.968C242.601 143.448 242.437 144.02 242.437 144.684V145.032H251.593V147H239.965ZM261.437 147.24C259.917 147.24 258.605 146.892 257.501 146.196C256.397 145.492 255.549 144.48 254.957 143.16C254.365 141.84 254.069 140.244 254.069 138.372C254.069 136.484 254.369 134.872 254.969 133.536C255.577 132.2 256.441 131.18 257.561 130.476C258.681 129.764 260.005 129.408 261.533 129.408C262.405 129.408 263.225 129.56 263.993 129.864C264.761 130.168 265.441 130.584 266.033 131.112C266.625 131.632 267.097 132.228 267.449 132.9C267.809 133.572 268.013 134.272 268.061 135H265.685C265.573 134.36 265.325 133.764 264.941 133.212C264.557 132.66 264.069 132.216 263.477 131.88C262.893 131.544 262.233 131.376 261.497 131.376C260.497 131.376 259.617 131.624 258.857 132.12C258.105 132.608 257.517 133.364 257.093 134.388C256.677 135.412 256.469 136.724 256.469 138.324C256.469 139.556 256.597 140.612 256.853 141.492C257.109 142.372 257.465 143.088 257.921 143.64C258.385 144.184 258.925 144.588 259.541 144.852C260.165 145.108 260.837 145.236 261.557 145.236C262.285 145.236 262.917 145.108 263.453 144.852C263.997 144.596 264.449 144.268 264.809 143.868C265.169 143.46 265.445 143.024 265.637 142.56C265.837 142.088 265.945 141.636 265.961 141.204L266.033 139.668H261.809V138.036L268.337 138.048V147H266.669V144.36C266.365 144.856 265.981 145.324 265.517 145.764C265.053 146.204 264.485 146.56 263.813 146.832C263.149 147.104 262.357 147.24 261.437 147.24ZM272.667 147V129.648H278.247C280.359 129.648 281.955 130.036 283.035 130.812C284.123 131.588 284.667 132.708 284.667 134.172C284.667 135.092 284.427 135.88 283.947 136.536C283.475 137.192 282.643 137.732 281.451 138.156C282.131 138.3 282.703 138.508 283.167 138.78C283.639 139.052 284.015 139.372 284.295 139.74C284.583 140.1 284.787 140.5 284.907 140.94C285.035 141.38 285.099 141.844 285.099 142.332C285.099 143.9 284.539 145.072 283.419 145.848C282.307 146.616 280.643 147 278.427 147H272.667ZM274.887 145.152H278.403C279.851 145.152 280.951 144.916 281.703 144.444C282.463 143.964 282.843 143.228 282.843 142.236C282.843 141.508 282.655 140.92 282.279 140.472C281.911 140.016 281.411 139.684 280.779 139.476C280.147 139.268 279.443 139.164 278.667 139.164H274.887V145.152ZM274.887 137.28H278.667C279.123 137.28 279.575 137.236 280.023 137.148C280.471 137.06 280.883 136.908 281.259 136.692C281.635 136.476 281.939 136.188 282.171 135.828C282.403 135.46 282.519 135 282.519 134.448C282.519 133.44 282.131 132.696 281.355 132.216C280.587 131.728 279.587 131.484 278.355 131.484H274.887V137.28ZM306.984 141C306.984 142.336 306.764 143.468 306.324 144.396C305.884 145.324 305.196 146.032 304.26 146.52C303.332 147 302.124 147.24 300.636 147.24C299.132 147.24 297.912 146.992 296.976 146.496C296.048 146 295.368 145.272 294.936 144.312C294.512 143.352 294.3 142.172 294.3 140.772V129.648H296.604V141.108C296.604 142.508 296.952 143.556 297.648 144.252C298.344 144.948 299.34 145.296 300.636 145.296C301.508 145.296 302.248 145.144 302.856 144.84C303.472 144.536 303.94 144.076 304.26 143.46C304.588 142.836 304.752 142.052 304.752 141.108V129.648H306.984V141ZM310.649 147V134.592H312.797V136.392C312.997 136.048 313.273 135.724 313.625 135.42C313.985 135.116 314.417 134.872 314.921 134.688C315.433 134.504 316.021 134.412 316.685 134.412C317.469 134.412 318.189 134.568 318.845 134.88C319.509 135.192 320.037 135.68 320.429 136.344C320.829 137 321.029 137.848 321.029 138.888V147H318.809V139.104C318.809 138.136 318.553 137.42 318.041 136.956C317.537 136.484 316.881 136.248 316.073 136.248C315.513 136.248 314.989 136.34 314.501 136.524C314.013 136.7 313.617 136.972 313.313 137.34C313.009 137.7 312.857 138.156 312.857 138.708V147H310.649ZM326.9 134.592V147H324.752V134.592H326.9ZM326.948 129.66V131.964H324.68V129.66H326.948ZM337.813 134.592V136.212H334.801V147H332.569V136.212H329.953V134.592H332.569V132.672C332.569 131.688 332.821 130.94 333.325 130.428C333.829 129.908 334.581 129.648 335.581 129.648H337.921L337.933 131.22H336.073C335.569 131.22 335.225 131.356 335.041 131.628C334.857 131.9 334.765 132.312 334.765 132.864V134.592H337.813ZM342.949 134.592V147H340.801V134.592H342.949ZM342.997 129.66V131.964H340.729V129.66H342.997ZM348.443 141.312C348.443 142.096 348.571 142.808 348.827 143.448C349.091 144.08 349.487 144.584 350.015 144.96C350.551 145.336 351.219 145.524 352.019 145.524C352.811 145.524 353.491 145.34 354.059 144.972C354.635 144.604 355.003 144.072 355.163 143.376H357.263C357.111 144.216 356.775 144.924 356.255 145.5C355.735 146.076 355.107 146.512 354.371 146.808C353.635 147.096 352.867 147.24 352.067 147.24C350.907 147.24 349.887 146.988 349.007 146.484C348.127 145.98 347.439 145.256 346.943 144.312C346.447 143.368 346.199 142.236 346.199 140.916C346.199 139.612 346.423 138.468 346.871 137.484C347.319 136.5 347.967 135.732 348.815 135.18C349.671 134.628 350.699 134.352 351.899 134.352C353.067 134.352 354.055 134.604 354.863 135.108C355.671 135.612 356.283 136.324 356.699 137.244C357.123 138.156 357.335 139.24 357.335 140.496V141.312H348.443ZM348.455 139.812H355.199C355.199 139.1 355.079 138.46 354.839 137.892C354.599 137.316 354.231 136.864 353.735 136.536C353.247 136.2 352.631 136.032 351.887 136.032C351.111 136.032 350.467 136.22 349.955 136.596C349.451 136.964 349.071 137.44 348.815 138.024C348.567 138.6 348.447 139.196 348.455 139.812ZM364.859 147.24C363.251 147.24 361.975 146.688 361.031 145.584C360.087 144.48 359.615 142.868 359.615 140.748C359.615 139.46 359.803 138.336 360.179 137.376C360.563 136.416 361.131 135.672 361.883 135.144C362.635 134.616 363.571 134.352 364.691 134.352C365.283 134.352 365.807 134.428 366.263 134.58C366.727 134.732 367.127 134.924 367.463 135.156C367.799 135.388 368.071 135.628 368.279 135.876C368.495 136.124 368.655 136.352 368.759 136.56V129.168H370.991V147H369.299L369.059 144.456C368.979 144.696 368.851 144.976 368.675 145.296C368.499 145.608 368.251 145.916 367.931 146.22C367.611 146.516 367.199 146.76 366.695 146.952C366.199 147.144 365.587 147.24 364.859 147.24ZM365.255 145.536C366.511 145.536 367.407 145.156 367.943 144.396C368.487 143.628 368.759 142.376 368.759 140.64C368.751 139.672 368.627 138.848 368.387 138.168C368.155 137.488 367.787 136.972 367.283 136.62C366.787 136.26 366.127 136.08 365.303 136.08C364.279 136.08 363.447 136.444 362.807 137.172C362.167 137.9 361.847 139.056 361.847 140.64C361.847 142.192 362.135 143.396 362.711 144.252C363.295 145.108 364.143 145.536 365.255 145.536ZM2.292 179V161.648H5.364L10.596 175.976L15.9 161.648H18.96V179H16.668V164.972L11.64 179H9.564L4.572 165.104V179H2.292ZM24.5138 173.312C24.5138 174.096 24.6418 174.808 24.8978 175.448C25.1618 176.08 25.5578 176.584 26.0858 176.96C26.6218 177.336 27.2898 177.524 28.0898 177.524C28.8818 177.524 29.5618 177.34 30.1298 176.972C30.7058 176.604 31.0738 176.072 31.2338 175.376H33.3338C33.1818 176.216 32.8458 176.924 32.3258 177.5C31.8058 178.076 31.1778 178.512 30.4418 178.808C29.7058 179.096 28.9378 179.24 28.1378 179.24C26.9778 179.24 25.9578 178.988 25.0778 178.484C24.1978 177.98 23.5098 177.256 23.0138 176.312C22.5178 175.368 22.2698 174.236 22.2698 172.916C22.2698 171.612 22.4938 170.468 22.9418 169.484C23.3898 168.5 24.0378 167.732 24.8858 167.18C25.7418 166.628 26.7698 166.352 27.9698 166.352C29.1378 166.352 30.1258 166.604 30.9338 167.108C31.7418 167.612 32.3538 168.324 32.7698 169.244C33.1938 170.156 33.4058 171.24 33.4058 172.496V173.312H24.5138ZM24.5258 171.812H31.2698C31.2698 171.1 31.1498 170.46 30.9098 169.892C30.6698 169.316 30.3018 168.864 29.8058 168.536C29.3178 168.2 28.7018 168.032 27.9578 168.032C27.1818 168.032 26.5378 168.22 26.0258 168.596C25.5218 168.964 25.1418 169.44 24.8858 170.024C24.6378 170.6 24.5178 171.196 24.5258 171.812ZM36.4532 179V166.592H38.5892V168.392C38.9332 167.848 39.4052 167.372 40.0052 166.964C40.6052 166.556 41.3852 166.352 42.3452 166.352C42.7932 166.352 43.2492 166.428 43.7132 166.58C44.1852 166.732 44.6172 166.96 45.0092 167.264C45.4012 167.568 45.7052 167.94 45.9212 168.38C46.3052 167.772 46.8252 167.284 47.4812 166.916C48.1372 166.54 48.8772 166.352 49.7012 166.352C50.1332 166.352 50.5852 166.42 51.0572 166.556C51.5292 166.684 51.9652 166.916 52.3652 167.252C52.7732 167.58 53.1052 168.04 53.3612 168.632C53.6172 169.216 53.7452 169.968 53.7452 170.888V179H51.5132V171.104C51.5132 170.352 51.3932 169.772 51.1532 169.364C50.9132 168.948 50.5972 168.656 50.2052 168.488C49.8212 168.32 49.4092 168.236 48.9692 168.236C48.5852 168.236 48.1772 168.312 47.7452 168.464C47.3132 168.616 46.9452 168.872 46.6412 169.232C46.3372 169.592 46.1852 170.084 46.1852 170.708V179H43.9772V170.456C43.9772 169.968 43.8452 169.56 43.5812 169.232C43.3252 168.904 43.0012 168.656 42.6092 168.488C42.2252 168.32 41.8412 168.236 41.4572 168.236C41.0332 168.236 40.6052 168.32 40.1732 168.488C39.7492 168.656 39.3892 168.924 39.0932 169.292C38.8052 169.652 38.6612 170.124 38.6612 170.708V179H36.4532ZM62.1508 179.24C61.0068 179.24 60.0068 178.996 59.1508 178.508C58.2948 178.012 57.6308 177.288 57.1588 176.336C56.6868 175.384 56.4508 174.22 56.4508 172.844C56.4508 171.548 56.6708 170.412 57.1108 169.436C57.5508 168.46 58.1948 167.704 59.0428 167.168C59.8988 166.624 60.9348 166.352 62.1508 166.352C63.2948 166.352 64.2868 166.604 65.1268 167.108C65.9748 167.604 66.6308 168.336 67.0948 169.304C67.5588 170.272 67.7908 171.452 67.7908 172.844C67.7908 174.108 67.5748 175.22 67.1428 176.18C66.7188 177.14 66.0868 177.892 65.2468 178.436C64.4148 178.972 63.3828 179.24 62.1508 179.24ZM62.1508 177.488C62.8948 177.488 63.5228 177.3 64.0348 176.924C64.5468 176.548 64.9348 176.008 65.1988 175.304C65.4628 174.6 65.5948 173.764 65.5948 172.796C65.5948 171.908 65.4788 171.112 65.2468 170.408C65.0148 169.696 64.6428 169.132 64.1308 168.716C63.6268 168.3 62.9668 168.092 62.1508 168.092C61.3988 168.092 60.7628 168.28 60.2428 168.656C59.7228 169.024 59.3268 169.56 59.0548 170.264C58.7908 170.968 58.6588 171.812 58.6588 172.796C58.6588 173.668 58.7788 174.46 59.0188 175.172C59.2588 175.884 59.6348 176.448 60.1468 176.864C60.6588 177.28 61.3268 177.488 62.1508 177.488ZM70.6954 179V166.592H72.8074V168.98C73.0154 168.388 73.3074 167.9 73.6834 167.516C74.0594 167.124 74.4874 166.832 74.9674 166.64C75.4554 166.448 75.9594 166.352 76.4794 166.352C76.6634 166.352 76.8434 166.364 77.0194 166.388C77.1954 166.412 77.3314 166.452 77.4274 166.508V168.656C77.3074 168.6 77.1514 168.564 76.9594 168.548C76.7754 168.524 76.6194 168.512 76.4914 168.512C75.9954 168.48 75.5314 168.512 75.0994 168.608C74.6674 168.696 74.2874 168.852 73.9594 169.076C73.6314 169.3 73.3714 169.596 73.1794 169.964C72.9954 170.324 72.9034 170.764 72.9034 171.284V179H70.6954ZM81.7866 182.96C81.0586 182.96 80.5586 182.908 80.2866 182.804C80.0146 182.7 79.8786 182.648 79.8786 182.648V181.208L81.1386 181.232C81.6026 181.248 81.9866 181.216 82.2906 181.136C82.5946 181.056 82.8386 180.948 83.0226 180.812C83.2066 180.676 83.3466 180.524 83.4426 180.356C83.5466 180.188 83.6306 180.028 83.6946 179.876L84.1266 178.7L79.2786 166.592H81.5226L85.1826 176.168L88.8186 166.592H90.9906L85.7586 179.936C85.4386 180.72 85.0786 181.332 84.6786 181.772C84.2866 182.212 83.8466 182.52 83.3586 182.696C82.8786 182.872 82.3546 182.96 81.7866 182.96ZM91.3721 182.012L92.7161 179.048L91.6721 178.988V176.336H94.4441V178.64L92.4041 182.012H91.3721ZM105.972 179V165.188H102.624V163.736C103.664 163.736 104.472 163.66 105.048 163.508C105.624 163.356 106.032 163.124 106.272 162.812C106.52 162.5 106.656 162.112 106.68 161.648H108.264V179H105.972ZM111.833 163.688V161.648H124.961V163.688H119.669V179H117.437V163.688H111.833ZM127.823 179V161.648H133.403C135.515 161.648 137.111 162.036 138.191 162.812C139.279 163.588 139.823 164.708 139.823 166.172C139.823 167.092 139.583 167.88 139.103 168.536C138.631 169.192 137.799 169.732 136.607 170.156C137.287 170.3 137.859 170.508 138.323 170.78C138.795 171.052 139.171 171.372 139.451 171.74C139.739 172.1 139.943 172.5 140.063 172.94C140.191 173.38 140.255 173.844 140.255 174.332C140.255 175.9 139.695 177.072 138.575 177.848C137.463 178.616 135.799 179 133.583 179H127.823ZM130.043 177.152H133.559C135.007 177.152 136.107 176.916 136.859 176.444C137.619 175.964 137.999 175.228 137.999 174.236C137.999 173.508 137.811 172.92 137.435 172.472C137.067 172.016 136.567 171.684 135.935 171.476C135.303 171.268 134.599 171.164 133.823 171.164H130.043V177.152ZM130.043 169.28H133.823C134.279 169.28 134.731 169.236 135.179 169.148C135.627 169.06 136.039 168.908 136.415 168.692C136.791 168.476 137.095 168.188 137.327 167.828C137.559 167.46 137.675 167 137.675 166.448C137.675 165.44 137.287 164.696 136.511 164.216C135.743 163.728 134.743 163.484 133.511 163.484H130.043V169.28ZM155.348 179.24C154.532 179.24 153.74 179.14 152.972 178.94C152.204 178.732 151.508 178.424 150.884 178.016C150.26 177.608 149.74 177.104 149.324 176.504C148.916 175.896 148.66 175.192 148.556 174.392H150.884C151.028 175.048 151.312 175.6 151.736 176.048C152.168 176.496 152.692 176.832 153.308 177.056C153.932 177.28 154.608 177.392 155.336 177.392C156.152 177.392 156.88 177.28 157.52 177.056C158.168 176.824 158.676 176.496 159.044 176.072C159.42 175.648 159.608 175.14 159.608 174.548C159.608 174.028 159.488 173.576 159.248 173.192C159.016 172.808 158.676 172.488 158.228 172.232C157.78 171.976 157.236 171.776 156.596 171.632L153.188 170.84C151.908 170.56 150.904 170.06 150.176 169.34C149.456 168.62 149.088 167.668 149.072 166.484C149.072 165.484 149.336 164.604 149.864 163.844C150.4 163.084 151.132 162.492 152.06 162.068C152.996 161.644 154.064 161.432 155.264 161.432C156.648 161.432 157.812 161.668 158.756 162.14C159.7 162.612 160.412 163.232 160.892 164C161.372 164.768 161.616 165.588 161.624 166.46H159.332C159.26 165.676 159.028 165.056 158.636 164.6C158.252 164.136 157.768 163.808 157.184 163.616C156.6 163.416 155.964 163.316 155.276 163.316C154.78 163.316 154.3 163.38 153.836 163.508C153.38 163.628 152.968 163.812 152.6 164.06C152.24 164.308 151.952 164.616 151.736 164.984C151.52 165.352 151.412 165.78 151.412 166.268C151.412 166.892 151.624 167.4 152.048 167.792C152.48 168.184 153.26 168.52 154.388 168.8L157.688 169.592C158.552 169.776 159.256 170.048 159.8 170.408C160.352 170.768 160.776 171.176 161.072 171.632C161.376 172.088 161.584 172.564 161.696 173.06C161.816 173.556 161.876 174.044 161.876 174.524C161.876 175.396 161.616 176.192 161.096 176.912C160.576 177.624 159.828 178.192 158.852 178.616C157.884 179.032 156.716 179.24 155.348 179.24ZM171.684 179.24C170.868 179.24 170.076 179.14 169.308 178.94C168.54 178.732 167.844 178.424 167.22 178.016C166.596 177.608 166.076 177.104 165.66 176.504C165.252 175.896 164.996 175.192 164.892 174.392H167.22C167.364 175.048 167.648 175.6 168.072 176.048C168.504 176.496 169.028 176.832 169.644 177.056C170.268 177.28 170.944 177.392 171.672 177.392C172.488 177.392 173.216 177.28 173.856 177.056C174.504 176.824 175.012 176.496 175.38 176.072C175.756 175.648 175.944 175.14 175.944 174.548C175.944 174.028 175.824 173.576 175.584 173.192C175.352 172.808 175.012 172.488 174.564 172.232C174.116 171.976 173.572 171.776 172.932 171.632L169.524 170.84C168.244 170.56 167.24 170.06 166.512 169.34C165.792 168.62 165.424 167.668 165.408 166.484C165.408 165.484 165.672 164.604 166.2 163.844C166.736 163.084 167.468 162.492 168.396 162.068C169.332 161.644 170.4 161.432 171.6 161.432C172.984 161.432 174.148 161.668 175.092 162.14C176.036 162.612 176.748 163.232 177.228 164C177.708 164.768 177.952 165.588 177.96 166.46H175.668C175.596 165.676 175.364 165.056 174.972 164.6C174.588 164.136 174.104 163.808 173.52 163.616C172.936 163.416 172.3 163.316 171.612 163.316C171.116 163.316 170.636 163.38 170.172 163.508C169.716 163.628 169.304 163.812 168.936 164.06C168.576 164.308 168.288 164.616 168.072 164.984C167.856 165.352 167.748 165.78 167.748 166.268C167.748 166.892 167.96 167.4 168.384 167.792C168.816 168.184 169.596 168.52 170.724 168.8L174.024 169.592C174.888 169.776 175.592 170.048 176.136 170.408C176.688 170.768 177.112 171.176 177.408 171.632C177.712 172.088 177.92 172.564 178.032 173.06C178.152 173.556 178.212 174.044 178.212 174.524C178.212 175.396 177.952 176.192 177.432 176.912C176.912 177.624 176.164 178.192 175.188 178.616C174.22 179.032 173.052 179.24 171.684 179.24ZM181.894 161.648C181.95 161.648 182.118 161.652 182.398 161.66C182.686 161.66 183.034 161.66 183.442 161.66C183.85 161.652 184.274 161.652 184.714 161.66C185.154 161.66 185.558 161.664 185.926 161.672C188.054 161.704 189.778 162.052 191.098 162.716C192.426 163.372 193.398 164.328 194.014 165.584C194.638 166.84 194.95 168.384 194.95 170.216C194.95 172.136 194.614 173.748 193.942 175.052C193.278 176.356 192.262 177.34 190.894 178.004C189.534 178.668 187.802 179 185.698 179H181.894V161.648ZM184.174 163.556V177.092H185.698C187.13 177.092 188.362 176.872 189.394 176.432C190.426 175.984 191.218 175.26 191.77 174.26C192.33 173.26 192.61 171.924 192.61 170.252C192.61 168.58 192.338 167.256 191.794 166.28C191.258 165.304 190.482 164.608 189.466 164.192C188.45 163.768 187.226 163.556 185.794 163.556H184.174ZM209.957 179.24C209.141 179.24 208.349 179.14 207.581 178.94C206.813 178.732 206.117 178.424 205.493 178.016C204.869 177.608 204.349 177.104 203.933 176.504C203.525 175.896 203.269 175.192 203.165 174.392H205.493C205.637 175.048 205.921 175.6 206.345 176.048C206.777 176.496 207.301 176.832 207.917 177.056C208.541 177.28 209.217 177.392 209.945 177.392C210.761 177.392 211.489 177.28 212.129 177.056C212.777 176.824 213.285 176.496 213.653 176.072C214.029 175.648 214.217 175.14 214.217 174.548C214.217 174.028 214.097 173.576 213.857 173.192C213.625 172.808 213.285 172.488 212.837 172.232C212.389 171.976 211.845 171.776 211.205 171.632L207.797 170.84C206.517 170.56 205.513 170.06 204.785 169.34C204.065 168.62 203.697 167.668 203.681 166.484C203.681 165.484 203.945 164.604 204.473 163.844C205.009 163.084 205.741 162.492 206.669 162.068C207.605 161.644 208.673 161.432 209.873 161.432C211.257 161.432 212.421 161.668 213.365 162.14C214.309 162.612 215.021 163.232 215.501 164C215.981 164.768 216.225 165.588 216.233 166.46H213.941C213.869 165.676 213.637 165.056 213.245 164.6C212.861 164.136 212.377 163.808 211.793 163.616C211.209 163.416 210.573 163.316 209.885 163.316C209.389 163.316 208.909 163.38 208.445 163.508C207.989 163.628 207.577 163.812 207.209 164.06C206.849 164.308 206.561 164.616 206.345 164.984C206.129 165.352 206.021 165.78 206.021 166.268C206.021 166.892 206.233 167.4 206.657 167.792C207.089 168.184 207.869 168.52 208.997 168.8L212.297 169.592C213.161 169.776 213.865 170.048 214.409 170.408C214.961 170.768 215.385 171.176 215.681 171.632C215.985 172.088 216.193 172.564 216.305 173.06C216.425 173.556 216.485 174.044 216.485 174.524C216.485 175.396 216.225 176.192 215.705 176.912C215.185 177.624 214.437 178.192 213.461 178.616C212.493 179.032 211.325 179.24 209.957 179.24ZM225.757 168.212H222.961V175.928C222.961 176.368 223.005 176.692 223.093 176.9C223.189 177.1 223.345 177.228 223.561 177.284C223.785 177.34 224.089 177.368 224.473 177.368H225.829V178.856C225.677 178.912 225.445 178.96 225.133 179C224.829 179.04 224.449 179.06 223.993 179.06C223.137 179.06 222.473 178.944 222.001 178.712C221.529 178.48 221.197 178.136 221.005 177.68C220.821 177.224 220.729 176.664 220.729 176V168.212H218.713V166.592H220.789L221.329 162.98H222.961V166.58H225.757V168.212ZM233.549 179.24C232.405 179.24 231.405 178.996 230.549 178.508C229.693 178.012 229.029 177.288 228.557 176.336C228.085 175.384 227.849 174.22 227.849 172.844C227.849 171.548 228.069 170.412 228.509 169.436C228.949 168.46 229.593 167.704 230.441 167.168C231.297 166.624 232.333 166.352 233.549 166.352C234.693 166.352 235.685 166.604 236.525 167.108C237.373 167.604 238.029 168.336 238.493 169.304C238.957 170.272 239.189 171.452 239.189 172.844C239.189 174.108 238.973 175.22 238.541 176.18C238.117 177.14 237.485 177.892 236.645 178.436C235.813 178.972 234.781 179.24 233.549 179.24ZM233.549 177.488C234.293 177.488 234.921 177.3 235.433 176.924C235.945 176.548 236.333 176.008 236.597 175.304C236.861 174.6 236.993 173.764 236.993 172.796C236.993 171.908 236.877 171.112 236.645 170.408C236.413 169.696 236.041 169.132 235.529 168.716C235.025 168.3 234.365 168.092 233.549 168.092C232.797 168.092 232.161 168.28 231.641 168.656C231.121 169.024 230.725 169.56 230.453 170.264C230.189 170.968 230.057 171.812 230.057 172.796C230.057 173.668 230.177 174.46 230.417 175.172C230.657 175.884 231.033 176.448 231.545 176.864C232.057 177.28 232.725 177.488 233.549 177.488ZM242.094 179V166.592H244.206V168.98C244.414 168.388 244.706 167.9 245.082 167.516C245.458 167.124 245.886 166.832 246.366 166.64C246.854 166.448 247.358 166.352 247.878 166.352C248.062 166.352 248.242 166.364 248.418 166.388C248.594 166.412 248.73 166.452 248.826 166.508V168.656C248.706 168.6 248.55 168.564 248.358 168.548C248.174 168.524 248.018 168.512 247.89 168.512C247.394 168.48 246.93 168.512 246.498 168.608C246.066 168.696 245.686 168.852 245.358 169.076C245.03 169.3 244.77 169.596 244.578 169.964C244.394 170.324 244.302 170.764 244.302 171.284V179H242.094ZM254.526 179.24C253.726 179.24 253.018 179.1 252.402 178.82C251.786 178.532 251.302 178.12 250.95 177.584C250.606 177.048 250.434 176.4 250.434 175.64C250.434 174.264 250.914 173.24 251.874 172.568C252.834 171.896 254.374 171.536 256.494 171.488L258.714 171.428V170.456C258.714 169.696 258.486 169.096 258.03 168.656C257.574 168.208 256.866 167.984 255.906 167.984C255.194 167.992 254.566 168.16 254.022 168.488C253.486 168.816 253.138 169.352 252.978 170.096H251.022C251.07 169.288 251.298 168.608 251.706 168.056C252.114 167.496 252.682 167.072 253.41 166.784C254.146 166.496 255.014 166.352 256.014 166.352C257.094 166.352 257.99 166.504 258.702 166.808C259.422 167.112 259.958 167.56 260.31 168.152C260.67 168.744 260.85 169.472 260.85 170.336V179H258.954L258.798 176.672C258.318 177.64 257.706 178.312 256.962 178.688C256.226 179.056 255.414 179.24 254.526 179.24ZM255.198 177.644C255.614 177.644 256.026 177.568 256.434 177.416C256.85 177.264 257.23 177.06 257.574 176.804C257.918 176.54 258.19 176.248 258.39 175.928C258.598 175.6 258.706 175.264 258.714 174.92V172.796L256.866 172.832C255.922 172.848 255.13 172.944 254.49 173.12C253.858 173.296 253.382 173.572 253.062 173.948C252.75 174.324 252.594 174.816 252.594 175.424C252.594 176.12 252.834 176.664 253.314 177.056C253.802 177.448 254.43 177.644 255.198 177.644ZM269.873 183.104C267.921 183.104 266.401 182.82 265.313 182.252C264.233 181.692 263.693 180.888 263.693 179.84C263.693 179.392 263.797 179.012 264.005 178.7C264.213 178.38 264.461 178.116 264.749 177.908C265.037 177.7 265.305 177.536 265.553 177.416C265.801 177.288 265.961 177.196 266.033 177.14C265.897 177.06 265.725 176.96 265.517 176.84C265.317 176.72 265.141 176.56 264.989 176.36C264.837 176.16 264.761 175.9 264.761 175.58C264.761 175.188 264.945 174.828 265.313 174.5C265.681 174.172 266.225 173.928 266.945 173.768C266.217 173.4 265.649 172.912 265.241 172.304C264.833 171.696 264.629 171.036 264.629 170.324C264.629 169.524 264.845 168.828 265.277 168.236C265.717 167.644 266.341 167.192 267.149 166.88C267.957 166.56 268.917 166.4 270.029 166.4C270.837 166.4 271.517 166.496 272.069 166.688C272.621 166.872 273.133 167.136 273.605 167.48C273.733 167.424 273.933 167.34 274.205 167.228C274.485 167.108 274.793 166.98 275.129 166.844C275.465 166.708 275.777 166.58 276.065 166.46C276.361 166.332 276.597 166.236 276.773 166.172L276.761 168.224L274.589 168.632C274.709 168.888 274.805 169.168 274.877 169.472C274.957 169.776 274.997 170.06 274.997 170.324C274.997 171.052 274.805 171.712 274.421 172.304C274.045 172.896 273.473 173.368 272.705 173.72C271.937 174.072 270.977 174.248 269.825 174.248C269.729 174.248 269.605 174.248 269.453 174.248C269.309 174.24 269.185 174.232 269.081 174.224C268.233 174.248 267.649 174.344 267.329 174.512C267.009 174.672 266.849 174.852 266.849 175.052C266.849 175.284 267.029 175.444 267.389 175.532C267.749 175.62 268.361 175.696 269.225 175.76C269.537 175.776 269.921 175.796 270.377 175.82C270.841 175.844 271.353 175.876 271.913 175.916C273.217 175.996 274.221 176.328 274.925 176.912C275.629 177.496 275.981 178.284 275.981 179.276C275.981 180.404 275.477 181.324 274.469 182.036C273.461 182.748 271.929 183.104 269.873 183.104ZM270.269 181.676C271.413 181.676 272.289 181.504 272.897 181.16C273.505 180.816 273.809 180.296 273.809 179.6C273.809 179.104 273.621 178.7 273.245 178.388C272.877 178.068 272.313 177.884 271.553 177.836L268.073 177.608C267.761 177.592 267.437 177.672 267.101 177.848C266.765 178.016 266.477 178.252 266.237 178.556C266.005 178.86 265.889 179.204 265.889 179.588C265.889 180.244 266.245 180.756 266.957 181.124C267.677 181.492 268.781 181.676 270.269 181.676ZM269.885 172.82C270.781 172.82 271.501 172.612 272.045 172.196C272.597 171.78 272.873 171.164 272.873 170.348C272.873 169.508 272.597 168.868 272.045 168.428C271.501 167.988 270.781 167.768 269.885 167.768C268.981 167.768 268.249 167.992 267.689 168.44C267.137 168.88 266.861 169.516 266.861 170.348C266.861 171.132 267.125 171.74 267.653 172.172C268.181 172.604 268.925 172.82 269.885 172.82ZM280.756 173.312C280.756 174.096 280.884 174.808 281.14 175.448C281.404 176.08 281.8 176.584 282.328 176.96C282.864 177.336 283.532 177.524 284.332 177.524C285.124 177.524 285.804 177.34 286.372 176.972C286.948 176.604 287.316 176.072 287.476 175.376H289.576C289.424 176.216 289.088 176.924 288.568 177.5C288.048 178.076 287.42 178.512 286.684 178.808C285.948 179.096 285.18 179.24 284.38 179.24C283.22 179.24 282.2 178.988 281.32 178.484C280.44 177.98 279.752 177.256 279.256 176.312C278.76 175.368 278.512 174.236 278.512 172.916C278.512 171.612 278.736 170.468 279.184 169.484C279.632 168.5 280.28 167.732 281.128 167.18C281.984 166.628 283.012 166.352 284.212 166.352C285.38 166.352 286.368 166.604 287.176 167.108C287.984 167.612 288.596 168.324 289.012 169.244C289.436 170.156 289.648 171.24 289.648 172.496V173.312H280.756ZM280.768 171.812H287.512C287.512 171.1 287.392 170.46 287.152 169.892C286.912 169.316 286.544 168.864 286.048 168.536C285.56 168.2 284.944 168.032 284.2 168.032C283.424 168.032 282.78 168.22 282.268 168.596C281.764 168.964 281.384 169.44 281.128 170.024C280.88 170.6 280.76 171.196 280.768 171.812Z" fill="#191C1F"/>
<rect y="208" width="191" height="56" rx="3" fill="#FA8232"/>
<path d="M37.64 242.16C37.0693 242.16 36.5093 242.088 35.96 241.944C35.4107 241.8 34.9093 241.584 34.456 241.296C34.0027 241.008 33.6267 240.648 33.328 240.216C33.0347 239.784 32.8587 239.277 32.8 238.696H35.192C35.272 239.048 35.424 239.344 35.648 239.584C35.872 239.824 36.1547 240.008 36.496 240.136C36.8373 240.264 37.216 240.328 37.632 240.328C38.0587 240.328 38.448 240.275 38.8 240.168C39.152 240.061 39.4347 239.901 39.648 239.688C39.8613 239.469 39.968 239.197 39.968 238.872C39.968 238.579 39.88 238.339 39.704 238.152C39.5333 237.965 39.3013 237.813 39.008 237.696C38.7147 237.579 38.3813 237.483 38.008 237.408L36.008 237C35.1333 236.835 34.44 236.488 33.928 235.96C33.416 235.427 33.152 234.717 33.136 233.832C33.1307 233.107 33.3227 232.48 33.712 231.952C34.1067 231.419 34.64 231.008 35.312 230.72C35.9893 230.432 36.7467 230.288 37.584 230.288C38.5813 230.288 39.4187 230.445 40.096 230.76C40.7787 231.069 41.296 231.491 41.648 232.024C42.0053 232.552 42.1893 233.141 42.2 233.792H39.856C39.8133 233.387 39.6907 233.064 39.488 232.824C39.2853 232.584 39.024 232.411 38.704 232.304C38.3893 232.197 38.0293 232.144 37.624 232.144C37.3147 232.144 37.032 232.179 36.776 232.248C36.5253 232.317 36.312 232.416 36.136 232.544C35.96 232.667 35.824 232.813 35.728 232.984C35.632 233.155 35.584 233.347 35.584 233.56C35.584 233.896 35.696 234.168 35.92 234.376C36.144 234.584 36.5627 234.755 37.176 234.888L39.16 235.296C39.8693 235.435 40.432 235.64 40.848 235.912C41.2693 236.184 41.584 236.491 41.792 236.832C42.0053 237.173 42.144 237.523 42.208 237.88C42.2773 238.232 42.312 238.557 42.312 238.856C42.312 239.48 42.1147 240.043 41.72 240.544C41.3307 241.04 40.7867 241.435 40.088 241.728C39.3893 242.016 38.5733 242.16 37.64 242.16ZM51.9581 237.032H46.8941V242H44.5661V230.432H46.8941V235.072H51.9581V230.432H54.2941V242H51.9581V237.032ZM61.8786 242.16C60.7853 242.16 59.8386 241.923 59.0386 241.448C58.244 240.968 57.628 240.288 57.1906 239.408C56.7586 238.523 56.5426 237.467 56.5426 236.24C56.5426 235.008 56.7613 233.947 57.1986 233.056C57.6413 232.165 58.2626 231.48 59.0626 231C59.8626 230.515 60.8013 230.272 61.8786 230.272C62.9506 230.272 63.884 230.512 64.6786 230.992C65.4733 231.472 66.0866 232.157 66.5186 233.048C66.956 233.939 67.1746 235.003 67.1746 236.24C67.1746 237.461 66.9586 238.515 66.5266 239.4C66.1 240.285 65.4893 240.968 64.6946 241.448C63.9 241.923 62.9613 242.16 61.8786 242.16ZM61.8786 240.24C62.444 240.24 62.932 240.107 63.3426 239.84C63.7586 239.568 64.0786 239.141 64.3026 238.56C64.5266 237.973 64.6386 237.211 64.6386 236.272C64.6386 235.307 64.524 234.525 64.2946 233.928C64.0706 233.331 63.7506 232.893 63.3346 232.616C62.924 232.333 62.4386 232.192 61.8786 232.192C61.3186 232.192 60.8306 232.333 60.4146 232.616C59.9986 232.893 59.676 233.333 59.4466 233.936C59.2173 234.533 59.1026 235.312 59.1026 236.272C59.1026 237.216 59.2173 237.979 59.4466 238.56C59.676 239.141 59.9986 239.568 60.4146 239.84C60.8306 240.107 61.3186 240.24 61.8786 240.24ZM69.4345 242V230.432H73.6905C74.5332 230.432 75.2878 230.579 75.9545 230.872C76.6212 231.16 77.1465 231.587 77.5305 232.152C77.9198 232.717 78.1145 233.408 78.1145 234.224C78.1145 234.992 77.9438 235.648 77.6025 236.192C77.2612 236.736 76.7812 237.152 76.1625 237.44C75.5492 237.728 74.8265 237.872 73.9945 237.872H71.7865V242H69.4345ZM71.7625 236.064H73.9305C74.5172 236.064 74.9972 235.877 75.3705 235.504C75.7438 235.125 75.9305 234.659 75.9305 234.104C75.9305 233.528 75.7332 233.072 75.3385 232.736C74.9438 232.395 74.4638 232.224 73.8985 232.224H71.7625V236.064ZM91.2386 230.432H93.5746V242H91.4706L85.9746 234.04V242H83.6466V230.432H85.9586L91.2386 238.088V230.432ZM101.162 242.16C100.069 242.16 99.1223 241.923 98.3223 241.448C97.5276 240.968 96.9116 240.288 96.4743 239.408C96.0423 238.523 95.8263 237.467 95.8263 236.24C95.8263 235.008 96.0449 233.947 96.4823 233.056C96.9249 232.165 97.5463 231.48 98.3463 231C99.1463 230.515 100.085 230.272 101.162 230.272C102.234 230.272 103.168 230.512 103.962 230.992C104.757 231.472 105.37 232.157 105.802 233.048C106.24 233.939 106.458 235.003 106.458 236.24C106.458 237.461 106.242 238.515 105.81 239.4C105.384 240.285 104.773 240.968 103.978 241.448C103.184 241.923 102.245 242.16 101.162 242.16ZM101.162 240.24C101.728 240.24 102.216 240.107 102.626 239.84C103.042 239.568 103.362 239.141 103.586 238.56C103.81 237.973 103.922 237.211 103.922 236.272C103.922 235.307 103.808 234.525 103.578 233.928C103.354 233.331 103.034 232.893 102.618 232.616C102.208 232.333 101.722 232.192 101.162 232.192C100.602 232.192 100.114 232.333 99.6983 232.616C99.2823 232.893 98.9596 233.333 98.7303 233.936C98.5009 234.533 98.3863 235.312 98.3863 236.272C98.3863 237.216 98.5009 237.979 98.7303 238.56C98.9596 239.141 99.2823 239.568 99.6983 239.84C100.114 240.107 100.602 240.24 101.162 240.24ZM122.286 230.432L118.87 242H117.006L114.83 234.44L112.638 242H110.806L107.398 230.432H109.686L111.838 238.072L113.99 230.432H115.678L117.854 238.072L120.006 230.432H122.286Z" fill="white"/>
<path d="M138.75 236H155.25" stroke="white" stroke-width="2" stroke-linecap="round" stroke-linejoin="round"/>
<path d="M148.5 229.25L155.25 236L148.5 242.75" stroke="white" stroke-width="2" stroke-linecap="round" stroke-linejoin="round"/>
</svg>
