<svg width="119" height="14" viewBox="0 0 119 14" fill="none" xmlns="http://www.w3.org/2000/svg">
<path d="M5.061 11.14C4.151 11.14 3.374 10.9323 2.73 10.517C2.09067 10.1017 1.60067 9.50433 1.26 8.725C0.924 7.94567 0.756 7.00533 0.756 5.904C0.756 4.80733 0.924 3.874 1.26 3.104C1.596 2.334 2.08367 1.74833 2.723 1.347C3.367 0.940999 4.14633 0.737999 5.061 0.737999C5.775 0.737999 6.40733 0.887333 6.958 1.186C7.50867 1.48 7.952 1.87433 8.288 2.369C8.624 2.86367 8.82233 3.40733 8.883 4H7.504C7.42933 3.60333 7.287 3.244 7.077 2.922C6.867 2.6 6.59167 2.34333 6.251 2.152C5.91033 1.96067 5.502 1.865 5.026 1.865C4.41467 1.865 3.89667 2.00967 3.472 2.299C3.052 2.58367 2.73233 3.02467 2.513 3.622C2.29833 4.21933 2.191 4.98467 2.191 5.918C2.191 7.32733 2.43133 8.36333 2.912 9.026C3.39733 9.684 4.102 10.013 5.026 10.013C5.502 10.013 5.91033 9.91267 6.251 9.712C6.59167 9.51133 6.867 9.243 7.077 8.907C7.287 8.571 7.42933 8.207 7.504 7.815H8.883C8.83167 8.24433 8.715 8.65967 8.533 9.061C8.35567 9.45767 8.11067 9.81233 7.798 10.125C7.48533 10.4377 7.10033 10.685 6.643 10.867C6.19033 11.049 5.663 11.14 5.061 11.14ZM13.3697 11.14C12.9917 11.1353 12.6347 11.0817 12.2987 10.979C11.9673 10.8717 11.6733 10.7153 11.4167 10.51C11.16 10.3047 10.957 10.0503 10.8077 9.747C10.663 9.439 10.5907 9.082 10.5907 8.676V3.762H11.8857V8.543C11.8857 9.01433 12.0303 9.397 12.3197 9.691C12.6137 9.985 13.0547 10.132 13.6427 10.132C14.1747 10.132 14.6017 9.99433 14.9237 9.719C15.2503 9.439 15.4137 9.02367 15.4137 8.473V3.762H16.7017V11H15.6727L15.5397 9.614C15.451 9.978 15.2993 10.272 15.0847 10.496C14.8747 10.72 14.6203 10.8857 14.3217 10.993C14.0277 11.0957 13.7103 11.1447 13.3697 11.14ZM21.4348 11.14C20.9308 11.14 20.4618 11.063 20.0278 10.909C19.5984 10.7503 19.2414 10.5053 18.9568 10.174C18.6721 9.838 18.4948 9.411 18.4248 8.893H19.6008C19.6614 9.17767 19.7781 9.41567 19.9508 9.607C20.1234 9.79367 20.3358 9.936 20.5878 10.034C20.8444 10.1273 21.1244 10.174 21.4278 10.174C21.9178 10.174 22.3121 10.083 22.6108 9.901C22.9094 9.719 23.0588 9.439 23.0588 9.061C23.0588 8.795 22.9794 8.58267 22.8208 8.424C22.6668 8.26067 22.4241 8.14167 22.0928 8.067L20.5948 7.696C20.0114 7.556 19.5448 7.33667 19.1948 7.038C18.8494 6.73933 18.6744 6.32167 18.6698 5.785C18.6698 5.36033 18.7724 4.987 18.9778 4.665C19.1831 4.343 19.4888 4.08867 19.8948 3.902C20.3054 3.71533 20.8164 3.622 21.4278 3.622C22.2164 3.622 22.8511 3.79933 23.3318 4.154C23.8124 4.504 24.0644 5.01967 24.0878 5.701H22.9398C22.8931 5.35567 22.7391 5.08267 22.4778 4.882C22.2164 4.67667 21.8618 4.574 21.4138 4.574C20.9564 4.574 20.5808 4.66733 20.2868 4.854C19.9974 5.036 19.8528 5.32067 19.8528 5.708C19.8528 5.96467 19.9554 6.16767 20.1608 6.317C20.3708 6.46167 20.6741 6.583 21.0708 6.681L22.5268 7.045C22.8581 7.13367 23.1334 7.25033 23.3528 7.395C23.5721 7.53967 23.7448 7.70067 23.8708 7.878C23.9968 8.05533 24.0854 8.242 24.1368 8.438C24.1928 8.62933 24.2208 8.81367 24.2208 8.991C24.2208 9.43433 24.1111 9.817 23.8918 10.139C23.6724 10.4563 23.3551 10.7037 22.9398 10.881C22.5244 11.0537 22.0228 11.14 21.4348 11.14ZM28.4154 11.035C27.9161 11.035 27.5287 10.9673 27.2534 10.832C26.9781 10.6967 26.7844 10.496 26.6724 10.23C26.5651 9.964 26.5114 9.63733 26.5114 9.25V4.707H25.3354V3.762H26.5464L26.8614 1.655H27.8134V3.755H29.4444V4.707H27.8134V9.208C27.8134 9.46467 27.8391 9.65367 27.8904 9.775C27.9464 9.89167 28.0374 9.96633 28.1634 9.999C28.2894 10.0317 28.4667 10.048 28.6954 10.048H29.4864V10.916C29.3977 10.9487 29.2624 10.9767 29.0804 11C28.9031 11.0233 28.6814 11.035 28.4154 11.035ZM33.9104 11.14C33.2431 11.14 32.6597 10.9977 32.1604 10.713C31.6657 10.4237 31.2807 10.0013 31.0054 9.446C30.7301 8.89067 30.5924 8.21167 30.5924 7.409C30.5924 6.653 30.7207 5.99033 30.9774 5.421C31.2341 4.85167 31.6097 4.41067 32.1044 4.098C32.5991 3.78067 33.2034 3.622 33.9174 3.622C34.5847 3.622 35.1634 3.769 35.6534 4.063C36.1434 4.35233 36.5237 4.77933 36.7944 5.344C37.0697 5.90867 37.2074 6.597 37.2074 7.409C37.2074 8.14633 37.0814 8.795 36.8294 9.355C36.5774 9.915 36.2064 10.3537 35.7164 10.671C35.2311 10.9837 34.6291 11.14 33.9104 11.14ZM33.9174 10.118C34.3467 10.118 34.7107 10.0083 35.0094 9.789C35.3081 9.56967 35.5344 9.25467 35.6884 8.844C35.8471 8.43333 35.9264 7.94567 35.9264 7.381C35.9264 6.863 35.8564 6.39867 35.7164 5.988C35.5811 5.57267 35.3664 5.24367 35.0724 5.001C34.7784 4.75833 34.3934 4.637 33.9174 4.637C33.4787 4.637 33.1077 4.74667 32.8044 4.966C32.5011 5.18067 32.2701 5.49333 32.1114 5.904C31.9574 6.31467 31.8804 6.807 31.8804 7.381C31.8804 7.88967 31.9481 8.35167 32.0834 8.767C32.2234 9.18233 32.4427 9.51133 32.7414 9.754C33.0447 9.99667 33.4367 10.118 33.9174 10.118ZM38.9284 11V3.762H40.1744V4.812C40.3751 4.49467 40.6504 4.217 41.0004 3.979C41.3504 3.741 41.8054 3.622 42.3654 3.622C42.6268 3.622 42.8928 3.66633 43.1634 3.755C43.4388 3.84367 43.6908 3.97667 43.9194 4.154C44.1481 4.33133 44.3254 4.54833 44.4514 4.805C44.6754 4.45033 44.9788 4.16567 45.3614 3.951C45.7441 3.73167 46.1758 3.622 46.6564 3.622C46.9084 3.622 47.1721 3.66167 47.4474 3.741C47.7228 3.81567 47.9771 3.951 48.2104 4.147C48.4484 4.33833 48.6421 4.60667 48.7914 4.952C48.9408 5.29267 49.0154 5.73133 49.0154 6.268V11H47.7134V6.394C47.7134 5.95533 47.6434 5.617 47.5034 5.379C47.3634 5.13633 47.1791 4.966 46.9504 4.868C46.7264 4.77 46.4861 4.721 46.2294 4.721C46.0054 4.721 45.7674 4.76533 45.5154 4.854C45.2634 4.94267 45.0488 5.092 44.8714 5.302C44.6941 5.512 44.6054 5.799 44.6054 6.163V11H43.3174V6.016C43.3174 5.73133 43.2404 5.49333 43.0864 5.302C42.9371 5.11067 42.7481 4.966 42.5194 4.868C42.2954 4.77 42.0714 4.721 41.8474 4.721C41.6001 4.721 41.3504 4.77 41.0984 4.868C40.8511 4.966 40.6411 5.12233 40.4684 5.337C40.3004 5.547 40.2164 5.82233 40.2164 6.163V11H38.9284ZM54.1007 11.14C53.4287 11.14 52.836 10.993 52.3227 10.699C51.8094 10.405 51.408 9.98267 51.1187 9.432C50.8294 8.88133 50.6847 8.221 50.6847 7.451C50.6847 6.69033 50.8154 6.023 51.0767 5.449C51.338 4.875 51.716 4.427 52.2107 4.105C52.71 3.783 53.3097 3.622 54.0097 3.622C54.691 3.622 55.2674 3.769 55.7387 4.063C56.21 4.357 56.567 4.77233 56.8097 5.309C57.057 5.841 57.1807 6.47333 57.1807 7.206V7.682H51.9937C51.9937 8.13933 52.0684 8.55467 52.2177 8.928C52.3717 9.29667 52.6027 9.59067 52.9107 9.81C53.2187 10.0293 53.6084 10.139 54.0797 10.139C54.5417 10.139 54.9384 10.0317 55.2697 9.817C55.6057 9.60233 55.8204 9.292 55.9137 8.886H57.1317C57.0477 9.376 56.8517 9.789 56.5437 10.125C56.2404 10.461 55.874 10.7153 55.4447 10.888C55.02 11.056 54.572 11.14 54.1007 11.14ZM52.0007 6.807H55.9347C55.9347 6.39167 55.8647 6.01833 55.7247 5.687C55.5847 5.351 55.37 5.08733 55.0807 4.896C54.796 4.7 54.4367 4.602 54.0027 4.602C53.55 4.602 53.1744 4.71167 52.8757 4.931C52.577 5.14567 52.3554 5.42333 52.2107 5.764C52.066 6.1 51.996 6.44767 52.0007 6.807ZM58.9714 11V3.762H60.2034V5.155C60.3247 4.80967 60.4951 4.525 60.7144 4.301C60.9337 4.07233 61.1834 3.902 61.4634 3.79C61.7481 3.678 62.0421 3.622 62.3454 3.622C62.4527 3.622 62.5577 3.629 62.6604 3.643C62.7631 3.657 62.8424 3.68033 62.8984 3.713V4.966C62.8284 4.93333 62.7374 4.91233 62.6254 4.903C62.5181 4.889 62.4271 4.882 62.3524 4.882C62.0631 4.86333 61.7924 4.882 61.5404 4.938C61.2884 4.98933 61.0667 5.08033 60.8754 5.211C60.6841 5.34167 60.5324 5.51433 60.4204 5.729C60.3131 5.939 60.2594 6.19567 60.2594 6.499V11H58.9714ZM71.5404 11.14C71.0458 11.14 70.5768 11.0817 70.1334 10.965C69.6901 10.8437 69.2864 10.664 68.9224 10.426C68.5631 10.188 68.2644 9.894 68.0264 9.544C67.7931 9.18933 67.6461 8.77867 67.5854 8.312H68.9434C69.0274 8.69467 69.1931 9.01667 69.4404 9.278C69.6924 9.53933 70.0028 9.73533 70.3714 9.866C70.7448 9.99667 71.1531 10.062 71.5964 10.062C72.0258 10.062 72.4201 9.99433 72.7794 9.859C73.1434 9.72367 73.4351 9.52767 73.6544 9.271C73.8738 9.00967 73.9834 8.697 73.9834 8.333C73.9834 7.93167 73.8528 7.60967 73.5914 7.367C73.3301 7.11967 72.9264 6.92133 72.3804 6.772L70.2944 6.233C69.8231 6.11633 69.4054 5.953 69.0414 5.743C68.6821 5.52833 68.3998 5.24833 68.1944 4.903C67.9891 4.553 67.8864 4.119 67.8864 3.601C67.8864 3.027 68.0451 2.52767 68.3624 2.103C68.6798 1.67367 69.1091 1.34233 69.6504 1.109C70.1964 0.870999 70.8124 0.751999 71.4984 0.751999C72.2918 0.751999 72.9591 0.889666 73.5004 1.165C74.0464 1.44033 74.4594 1.802 74.7394 2.25C75.0194 2.698 75.1594 3.17633 75.1594 3.685H73.8294C73.7874 3.223 73.6521 2.859 73.4234 2.593C73.1948 2.32233 72.9101 2.12867 72.5694 2.012C72.2288 1.89067 71.8578 1.83 71.4564 1.83C70.7331 1.83 70.1848 1.99567 69.8114 2.327C69.4428 2.65367 69.2584 3.04333 69.2584 3.496C69.2584 3.91133 69.3914 4.238 69.6574 4.476C69.9234 4.714 70.3154 4.89833 70.8334 5.029L72.8634 5.554C73.4654 5.694 73.9438 5.897 74.2984 6.163C74.6578 6.429 74.9144 6.73933 75.0684 7.094C75.2271 7.444 75.3064 7.82433 75.3064 8.235C75.3064 8.795 75.1501 9.29433 74.8374 9.733C74.5248 10.1717 74.0861 10.517 73.5214 10.769C72.9614 11.0163 72.3011 11.14 71.5404 11.14ZM79.8833 11.14C79.5053 11.1353 79.1483 11.0817 78.8123 10.979C78.481 10.8717 78.187 10.7153 77.9303 10.51C77.6737 10.3047 77.4707 10.0503 77.3213 9.747C77.1767 9.439 77.1043 9.082 77.1043 8.676V3.762H78.3993V8.543C78.3993 9.01433 78.544 9.397 78.8333 9.691C79.1273 9.985 79.5683 10.132 80.1563 10.132C80.6883 10.132 81.1153 9.99433 81.4373 9.719C81.764 9.439 81.9273 9.02367 81.9273 8.473V3.762H83.2153V11H82.1863L82.0533 9.614C81.9647 9.978 81.813 10.272 81.5983 10.496C81.3883 10.72 81.134 10.8857 80.8353 10.993C80.5413 11.0957 80.224 11.1447 79.8833 11.14ZM85.4265 13.254V3.762H86.7145L86.7285 5.022C86.8125 4.87267 86.9198 4.71633 87.0505 4.553C87.1858 4.38967 87.3491 4.238 87.5405 4.098C87.7365 3.958 87.9628 3.84367 88.2195 3.755C88.4808 3.66633 88.7771 3.622 89.1085 3.622C89.6871 3.622 90.1958 3.755 90.6345 4.021C91.0778 4.28233 91.4231 4.68367 91.6705 5.225C91.9178 5.76633 92.0415 6.45233 92.0415 7.283C92.0415 8.11367 91.9201 8.816 91.6775 9.39C91.4395 9.95933 91.0941 10.3933 90.6415 10.692C90.1888 10.9907 89.6428 11.14 89.0035 11.14C88.6815 11.14 88.3945 11.0933 88.1425 11C87.8951 10.9113 87.6781 10.7947 87.4915 10.65C87.3095 10.5007 87.1555 10.342 87.0295 10.174C86.9081 10.006 86.8078 9.845 86.7285 9.691V13.254H85.4265ZM88.7585 10.132C89.3558 10.132 89.8435 9.90567 90.2215 9.453C90.5995 8.99567 90.7885 8.28633 90.7885 7.325C90.7885 6.499 90.6158 5.84333 90.2705 5.358C89.9251 4.87267 89.4211 4.63 88.7585 4.63C88.0865 4.63 87.5778 4.87967 87.2325 5.379C86.8871 5.87367 86.7145 6.52233 86.7145 7.325C86.7145 7.843 86.7915 8.31433 86.9455 8.739C87.0995 9.16367 87.3281 9.502 87.6315 9.754C87.9348 10.006 88.3105 10.132 88.7585 10.132ZM93.7663 13.254V3.762H95.0543L95.0683 5.022C95.1523 4.87267 95.2596 4.71633 95.3903 4.553C95.5256 4.38967 95.689 4.238 95.8803 4.098C96.0763 3.958 96.3026 3.84367 96.5593 3.755C96.8206 3.66633 97.117 3.622 97.4483 3.622C98.027 3.622 98.5356 3.755 98.9743 4.021C99.4176 4.28233 99.763 4.68367 100.01 5.225C100.258 5.76633 100.381 6.45233 100.381 7.283C100.381 8.11367 100.26 8.816 100.017 9.39C99.7793 9.95933 99.434 10.3933 98.9813 10.692C98.5286 10.9907 97.9826 11.14 97.3433 11.14C97.0213 11.14 96.7343 11.0933 96.4823 11C96.235 10.9113 96.018 10.7947 95.8313 10.65C95.6493 10.5007 95.4953 10.342 95.3693 10.174C95.248 10.006 95.1476 9.845 95.0683 9.691V13.254H93.7663ZM97.0983 10.132C97.6956 10.132 98.1833 9.90567 98.5613 9.453C98.9393 8.99567 99.1283 8.28633 99.1283 7.325C99.1283 6.499 98.9556 5.84333 98.6103 5.358C98.265 4.87267 97.761 4.63 97.0983 4.63C96.4263 4.63 95.9176 4.87967 95.5723 5.379C95.227 5.87367 95.0543 6.52233 95.0543 7.325C95.0543 7.843 95.1313 8.31433 95.2853 8.739C95.4393 9.16367 95.668 9.502 95.9713 9.754C96.2746 10.006 96.6503 10.132 97.0983 10.132ZM105.004 11.14C104.337 11.14 103.753 10.9977 103.254 10.713C102.759 10.4237 102.374 10.0013 102.099 9.446C101.824 8.89067 101.686 8.21167 101.686 7.409C101.686 6.653 101.814 5.99033 102.071 5.421C102.328 4.85167 102.703 4.41067 103.198 4.098C103.693 3.78067 104.297 3.622 105.011 3.622C105.678 3.622 106.257 3.769 106.747 4.063C107.237 4.35233 107.617 4.77933 107.888 5.344C108.163 5.90867 108.301 6.597 108.301 7.409C108.301 8.14633 108.175 8.795 107.923 9.355C107.671 9.915 107.3 10.3537 106.81 10.671C106.325 10.9837 105.723 11.14 105.004 11.14ZM105.011 10.118C105.44 10.118 105.804 10.0083 106.103 9.789C106.402 9.56967 106.628 9.25467 106.782 8.844C106.941 8.43333 107.02 7.94567 107.02 7.381C107.02 6.863 106.95 6.39867 106.81 5.988C106.675 5.57267 106.46 5.24367 106.166 5.001C105.872 4.75833 105.487 4.637 105.011 4.637C104.572 4.637 104.201 4.74667 103.898 4.966C103.595 5.18067 103.364 5.49333 103.205 5.904C103.051 6.31467 102.974 6.807 102.974 7.381C102.974 7.88967 103.042 8.35167 103.177 8.767C103.317 9.18233 103.536 9.51133 103.835 9.754C104.138 9.99667 104.53 10.118 105.011 10.118ZM110.022 11V3.762H111.254V5.155C111.376 4.80967 111.546 4.525 111.765 4.301C111.985 4.07233 112.234 3.902 112.514 3.79C112.799 3.678 113.093 3.622 113.396 3.622C113.504 3.622 113.609 3.629 113.711 3.643C113.814 3.657 113.893 3.68033 113.949 3.713V4.966C113.879 4.93333 113.788 4.91233 113.676 4.903C113.569 4.889 113.478 4.882 113.403 4.882C113.114 4.86333 112.843 4.882 112.591 4.938C112.339 4.98933 112.118 5.08033 111.926 5.211C111.735 5.34167 111.583 5.51433 111.471 5.729C111.364 5.939 111.31 6.19567 111.31 6.499V11H110.022ZM117.939 11.035C117.44 11.035 117.052 10.9673 116.777 10.832C116.502 10.6967 116.308 10.496 116.196 10.23C116.089 9.964 116.035 9.63733 116.035 9.25V4.707H114.859V3.762H116.07L116.385 1.655H117.337V3.755H118.968V4.707H117.337V9.208C117.337 9.46467 117.363 9.65367 117.414 9.775C117.47 9.89167 117.561 9.96633 117.687 9.999C117.813 10.0317 117.99 10.048 118.219 10.048H119.01V10.916C118.921 10.9487 118.786 10.9767 118.604 11C118.427 11.0233 118.205 11.035 117.939 11.035Z" fill="#5F6C72"/>
</svg>
