<svg width="85" height="12" viewBox="0 0 85 12" fill="none" xmlns="http://www.w3.org/2000/svg">
<path d="M0.337 0.877999C0.374333 0.877999 0.528333 0.877999 0.799 0.877999C1.06967 0.877999 1.38 0.880333 1.73 0.885C2.08467 0.885 2.40433 0.887333 2.689 0.891999C4.54633 0.919999 5.888 1.35867 6.714 2.208C7.54 3.05267 7.953 4.27533 7.953 5.876C7.953 7.556 7.512 8.83 6.63 9.698C5.75267 10.566 4.39467 11 2.556 11H0.337V0.877999ZM1.667 1.991V9.887H2.556C3.39133 9.887 4.11 9.75867 4.712 9.502C5.314 9.24067 5.776 8.81833 6.098 8.235C6.42467 7.65167 6.588 6.87233 6.588 5.897C6.588 4.92167 6.42933 4.14933 6.112 3.58C5.79933 3.01067 5.34667 2.60467 4.754 2.362C4.16133 2.11467 3.44733 1.991 2.612 1.991H1.667ZM10.702 7.682C10.702 8.13933 10.7767 8.55467 10.926 8.928C11.08 9.29667 11.311 9.59067 11.619 9.81C11.9317 10.0293 12.3214 10.139 12.788 10.139C13.25 10.139 13.6467 10.0317 13.978 9.817C14.314 9.60233 14.5287 9.292 14.622 8.886H15.847C15.7584 9.376 15.5624 9.789 15.259 10.125C14.9557 10.461 14.5894 10.7153 14.16 10.888C13.7307 11.056 13.2827 11.14 12.816 11.14C12.1394 11.14 11.5444 10.993 11.031 10.699C10.5177 10.405 10.1164 9.98267 9.82703 9.432C9.5377 8.88133 9.39303 8.221 9.39303 7.451C9.39303 6.69033 9.5237 6.023 9.78503 5.449C10.0464 4.875 10.4244 4.427 10.919 4.105C11.4184 3.783 12.018 3.622 12.718 3.622C13.74 3.622 14.524 3.94633 15.07 4.595C15.616 5.239 15.889 6.10933 15.889 7.206V7.682H10.702ZM10.709 6.807H14.643C14.643 6.18633 14.4844 5.66367 14.167 5.239C13.8497 4.81433 13.3644 4.602 12.711 4.602C12.2584 4.602 11.8827 4.71167 11.584 4.931C11.2854 5.14567 11.0637 5.42333 10.919 5.764C10.7744 6.1 10.7044 6.44767 10.709 6.807ZM19.573 11.14C18.8683 11.14 18.2943 10.9557 17.851 10.587C17.4077 10.2183 17.186 9.70267 17.186 9.04C17.186 8.23733 17.466 7.64 18.026 7.248C18.586 6.856 19.4843 6.646 20.721 6.618L22.016 6.583V6.016C22.016 5.57267 21.8807 5.22267 21.61 4.966C21.344 4.70467 20.9333 4.574 20.378 4.574C19.9627 4.57867 19.5963 4.679 19.279 4.875C18.9617 5.06633 18.7587 5.37667 18.67 5.806H17.529C17.5663 5.10133 17.8417 4.56233 18.355 4.189C18.8683 3.811 19.5637 3.622 20.441 3.622C21.3837 3.622 22.0883 3.82033 22.555 4.217C23.0263 4.61367 23.262 5.19 23.262 5.946V11H22.156L22.065 9.642C21.7803 10.2067 21.4233 10.5987 20.994 10.818C20.5647 11.0327 20.091 11.14 19.573 11.14ZM19.965 10.209C20.287 10.209 20.6043 10.132 20.917 9.978C21.2343 9.824 21.4957 9.628 21.701 9.39C21.9063 9.14733 22.0113 8.89067 22.016 8.62V7.381L20.938 7.402C20.1073 7.416 19.4843 7.53967 19.069 7.773C18.6537 8.00167 18.446 8.382 18.446 8.914C18.446 9.32467 18.586 9.64433 18.866 9.873C19.1507 10.097 19.517 10.209 19.965 10.209ZM27.3003 11.091C26.7777 11.091 26.3857 11 26.1243 10.818C25.863 10.6313 25.688 10.391 25.5993 10.097C25.5153 9.79833 25.4733 9.47867 25.4733 9.138V0.598H26.7473V9.012C26.7473 9.38067 26.8173 9.656 26.9573 9.838C27.102 10.0153 27.3027 10.1133 27.5593 10.132L27.9513 10.139V10.979C27.718 11.0537 27.501 11.091 27.3003 11.091ZM32.0072 11.14C31.4985 11.14 31.0295 11.0607 30.6002 10.902C30.1709 10.7433 29.8115 10.5007 29.5222 10.174C29.2375 9.84267 29.0602 9.41567 28.9902 8.893H30.1662C30.2595 9.31767 30.4719 9.63733 30.8032 9.852C31.1392 10.0667 31.5382 10.174 32.0002 10.174C32.4855 10.174 32.8775 10.083 33.1762 9.901C33.4749 9.719 33.6242 9.439 33.6242 9.061C33.6242 8.55233 33.3045 8.221 32.6652 8.067L31.1672 7.696C30.5792 7.556 30.1102 7.33667 29.7602 7.038C29.4149 6.73933 29.2422 6.32167 29.2422 5.785C29.2375 5.15033 29.4662 4.63233 29.9282 4.231C30.3902 3.825 31.0809 3.622 32.0002 3.622C32.7842 3.622 33.4165 3.79933 33.8972 4.154C34.3825 4.50867 34.6345 5.02433 34.6532 5.701H33.5122C33.4609 5.35567 33.3045 5.08267 33.0432 4.882C32.7819 4.67667 32.4295 4.574 31.9862 4.574C31.5242 4.574 31.1485 4.66733 30.8592 4.854C30.5699 5.036 30.4252 5.32067 30.4252 5.708C30.4252 5.96467 30.5279 6.16767 30.7332 6.317C30.9385 6.46167 31.2419 6.583 31.6432 6.681L33.0922 7.045C33.5355 7.16167 33.8809 7.32733 34.1282 7.542C34.3755 7.75667 34.5482 7.99233 34.6462 8.249C34.7442 8.50567 34.7932 8.753 34.7932 8.991C34.7932 9.65833 34.5482 10.1833 34.0582 10.566C33.5682 10.9487 32.8845 11.14 32.0072 11.14ZM40.5204 7.682C40.5204 8.13933 40.5951 8.55467 40.7444 8.928C40.8984 9.29667 41.1294 9.59067 41.4374 9.81C41.7501 10.0293 42.1397 10.139 42.6064 10.139C43.0684 10.139 43.4651 10.0317 43.7964 9.817C44.1324 9.60233 44.3471 9.292 44.4404 8.886H45.6654C45.5767 9.376 45.3807 9.789 45.0774 10.125C44.7741 10.461 44.4077 10.7153 43.9784 10.888C43.5491 11.056 43.1011 11.14 42.6344 11.14C41.9577 11.14 41.3627 10.993 40.8494 10.699C40.3361 10.405 39.9347 9.98267 39.6454 9.432C39.3561 8.88133 39.2114 8.221 39.2114 7.451C39.2114 6.69033 39.3421 6.023 39.6034 5.449C39.8647 4.875 40.2427 4.427 40.7374 4.105C41.2367 3.783 41.8364 3.622 42.5364 3.622C43.5584 3.622 44.3424 3.94633 44.8884 4.595C45.4344 5.239 45.7074 6.10933 45.7074 7.206V7.682H40.5204ZM40.5274 6.807H44.4614C44.4614 6.18633 44.3027 5.66367 43.9854 5.239C43.6681 4.81433 43.1827 4.602 42.5294 4.602C42.0767 4.602 41.7011 4.71167 41.4024 4.931C41.1037 5.14567 40.8821 5.42333 40.7374 5.764C40.5927 6.1 40.5227 6.44767 40.5274 6.807ZM47.4851 11V3.762H48.7381V4.812C48.9154 4.50867 49.1931 4.24033 49.5711 4.007C49.9491 3.77367 50.4274 3.657 51.0061 3.657C51.4634 3.657 51.8834 3.748 52.2661 3.93C52.6534 4.112 52.9614 4.39667 53.1901 4.784C53.4234 5.16667 53.5401 5.66133 53.5401 6.268V11H52.2451V6.394C52.2451 5.82933 52.0957 5.41167 51.7971 5.141C51.5031 4.86567 51.1204 4.728 50.6491 4.728C50.3224 4.728 50.0167 4.78167 49.7321 4.889C49.4474 4.99167 49.2164 5.15033 49.0391 5.365C48.8617 5.575 48.7731 5.841 48.7731 6.163V11H47.4851ZM58.1761 11.14C57.2335 11.14 56.4868 10.818 55.9361 10.174C55.3901 9.53 55.1171 8.58967 55.1171 7.353C55.1171 6.22367 55.3645 5.32067 55.8591 4.644C56.3585 3.96267 57.0981 3.622 58.0781 3.622C58.5355 3.622 58.9251 3.69667 59.2471 3.846C59.5738 3.99533 59.8351 4.17033 60.0311 4.371C60.2318 4.57167 60.3718 4.75133 60.4511 4.91V0.598H61.7531V11H60.7661L60.6261 9.516C60.5655 9.70267 60.4511 9.92433 60.2831 10.181C60.1151 10.4377 59.8631 10.6617 59.5271 10.853C59.1911 11.0443 58.7408 11.14 58.1761 11.14ZM58.4071 10.146C59.1398 10.146 59.6625 9.92433 59.9751 9.481C60.2925 9.033 60.4511 8.30267 60.4511 7.29C60.4418 6.44533 60.2831 5.792 59.9751 5.33C59.6671 4.86333 59.1538 4.63 58.4351 4.63C57.8425 4.63 57.3571 4.84233 56.9791 5.267C56.6058 5.687 56.4191 6.36133 56.4191 7.29C56.4191 8.19533 56.5871 8.89767 56.9231 9.397C57.2638 9.89633 57.7585 10.146 58.4071 10.146ZM66.4603 11.14C65.9516 11.14 65.4826 11.0607 65.0533 10.902C64.624 10.7433 64.2646 10.5007 63.9753 10.174C63.6906 9.84267 63.5133 9.41567 63.4433 8.893H64.6193C64.7126 9.31767 64.925 9.63733 65.2563 9.852C65.5923 10.0667 65.9913 10.174 66.4533 10.174C66.9386 10.174 67.3306 10.083 67.6293 9.901C67.928 9.719 68.0773 9.439 68.0773 9.061C68.0773 8.55233 67.7576 8.221 67.1183 8.067L65.6203 7.696C65.0323 7.556 64.5633 7.33667 64.2133 7.038C63.868 6.73933 63.6953 6.32167 63.6953 5.785C63.6906 5.15033 63.9193 4.63233 64.3813 4.231C64.8433 3.825 65.534 3.622 66.4533 3.622C67.2373 3.622 67.8696 3.79933 68.3503 4.154C68.8356 4.50867 69.0876 5.02433 69.1063 5.701H67.9653C67.914 5.35567 67.7576 5.08267 67.4963 4.882C67.235 4.67667 66.8826 4.574 66.4393 4.574C65.9773 4.574 65.6016 4.66733 65.3123 4.854C65.023 5.036 64.8783 5.32067 64.8783 5.708C64.8783 5.96467 64.981 6.16767 65.1863 6.317C65.3916 6.46167 65.695 6.583 66.0963 6.681L67.5453 7.045C67.9886 7.16167 68.334 7.32733 68.5813 7.542C68.8286 7.75667 69.0013 7.99233 69.0993 8.249C69.1973 8.50567 69.2463 8.753 69.2463 8.991C69.2463 9.65833 69.0013 10.1833 68.5113 10.566C68.0213 10.9487 67.3376 11.14 66.4603 11.14ZM75.6553 0.885V2.229H74.3323V0.885H75.6553ZM75.6273 3.762V11H74.3743V3.762H75.6273ZM78.0007 11V3.762H79.2537V4.812C79.431 4.50867 79.7087 4.24033 80.0867 4.007C80.4647 3.77367 80.943 3.657 81.5217 3.657C81.979 3.657 82.399 3.748 82.7817 3.93C83.169 4.112 83.477 4.39667 83.7057 4.784C83.939 5.16667 84.0557 5.66133 84.0557 6.268V11H82.7607V6.394C82.7607 5.82933 82.6114 5.41167 82.3127 5.141C82.0187 4.86567 81.636 4.728 81.1647 4.728C80.838 4.728 80.5324 4.78167 80.2477 4.889C79.963 4.99167 79.732 5.15033 79.5547 5.365C79.3774 5.575 79.2887 5.841 79.2887 6.163V11H78.0007Z" fill="black"/>
</svg>
