<svg width="206" height="19" viewBox="0 0 206 19" fill="none" xmlns="http://www.w3.org/2000/svg">
<path d="M0.1 0.647999H11.452L11.44 3.12H3.064V8.112H10.456V10.548H3.064V18H0.1V0.647999ZM16.0339 12.468C16.0259 13.172 16.1379 13.796 16.3699 14.34C16.6019 14.884 16.9459 15.312 17.4019 15.624C17.8579 15.928 18.4219 16.08 19.0939 16.08C19.7819 16.08 20.3779 15.928 20.8819 15.624C21.3939 15.312 21.7339 14.84 21.9019 14.208H24.5779C24.4339 15.072 24.0899 15.804 23.5459 16.404C23.0019 17.004 22.3419 17.46 21.5659 17.772C20.7979 18.084 19.9979 18.24 19.1659 18.24C17.9659 18.24 16.9099 17.988 15.9979 17.484C15.0939 16.972 14.3859 16.244 13.8739 15.3C13.3699 14.356 13.1179 13.232 13.1179 11.928C13.1179 10.656 13.3499 9.528 13.8139 8.544C14.2779 7.552 14.9459 6.772 15.8179 6.204C16.6979 5.636 17.7539 5.352 18.9859 5.352C20.2099 5.352 21.2379 5.612 22.0699 6.132C22.9099 6.652 23.5419 7.38 23.9659 8.316C24.3979 9.244 24.6139 10.332 24.6139 11.58V12.468H16.0339ZM16.0339 10.656H21.8539C21.8539 10.056 21.7499 9.516 21.5419 9.036C21.3339 8.548 21.0139 8.164 20.5819 7.884C20.1579 7.596 19.6219 7.452 18.9739 7.452C18.3339 7.452 17.7939 7.608 17.3539 7.92C16.9139 8.232 16.5819 8.636 16.3579 9.132C16.1339 9.62 16.0259 10.128 16.0339 10.656ZM30.7345 18.24C29.9425 18.24 29.2305 18.096 28.5985 17.808C27.9745 17.512 27.4825 17.092 27.1225 16.548C26.7705 15.996 26.5945 15.328 26.5945 14.544C26.5945 13.176 27.0865 12.144 28.0705 11.448C29.0625 10.752 30.6425 10.388 32.8105 10.356L34.6585 10.308V9.468C34.6585 8.812 34.4625 8.3 34.0705 7.932C33.6865 7.556 33.0865 7.372 32.2705 7.38C31.6705 7.388 31.1185 7.532 30.6145 7.812C30.1185 8.084 29.7905 8.544 29.6305 9.192H27.1465C27.1945 8.344 27.4385 7.636 27.8785 7.068C28.3265 6.492 28.9385 6.064 29.7145 5.784C30.4905 5.496 31.3865 5.352 32.4025 5.352C33.5865 5.352 34.5505 5.508 35.2945 5.82C36.0385 6.132 36.5865 6.584 36.9385 7.176C37.2905 7.76 37.4665 8.468 37.4665 9.3V18H35.0065L34.7785 15.768C34.3305 16.704 33.7625 17.352 33.0745 17.712C32.3945 18.064 31.6145 18.24 30.7345 18.24ZM31.6825 16.26C32.0425 16.26 32.3985 16.196 32.7505 16.068C33.1025 15.932 33.4225 15.752 33.7105 15.528C33.9985 15.296 34.2265 15.04 34.3945 14.76C34.5705 14.48 34.6585 14.188 34.6585 13.884V11.928L33.1345 11.952C32.3825 11.96 31.7265 12.04 31.1665 12.192C30.6065 12.344 30.1665 12.588 29.8465 12.924C29.5345 13.252 29.3785 13.692 29.3785 14.244C29.3785 14.876 29.5985 15.372 30.0385 15.732C30.4785 16.084 31.0265 16.26 31.6825 16.26ZM47.3058 7.656H44.5338L44.5458 14.772C44.5458 15.14 44.5858 15.412 44.6658 15.588C44.7538 15.756 44.8898 15.868 45.0738 15.924C45.2658 15.972 45.5218 15.996 45.8418 15.996H47.3658V17.844C47.2058 17.908 46.9618 17.964 46.6338 18.012C46.3138 18.068 45.8818 18.096 45.3378 18.096C44.3538 18.096 43.5898 17.968 43.0458 17.712C42.5098 17.448 42.1378 17.076 41.9298 16.596C41.7218 16.116 41.6178 15.544 41.6178 14.88V7.656H39.6018V5.592H41.7018L42.4338 1.908H44.5338V5.58H47.3058V7.656ZM54.6066 18.24C53.9986 18.24 53.4106 18.152 52.8426 17.976C52.2826 17.792 51.7786 17.528 51.3306 17.184C50.8826 16.832 50.5266 16.4 50.2626 15.888C49.9986 15.376 49.8666 14.78 49.8666 14.1V5.592H52.7946V13.764C52.7946 14.436 53.0066 14.988 53.4306 15.42C53.8626 15.852 54.5106 16.068 55.3746 16.068C56.1586 16.068 56.7866 15.864 57.2586 15.456C57.7306 15.04 57.9666 14.444 57.9666 13.668V5.592H60.8706V18H58.6266L58.3026 15.576C58.1506 16.256 57.8826 16.792 57.4986 17.184C57.1226 17.568 56.6786 17.84 56.1666 18C55.6626 18.16 55.1426 18.24 54.6066 18.24ZM64.1091 18V5.592H66.9051V8.28C67.1051 7.664 67.3891 7.14 67.7571 6.708C68.1331 6.268 68.5731 5.932 69.0771 5.7C69.5811 5.468 70.1291 5.352 70.7211 5.352C70.8651 5.352 71.0051 5.36 71.1411 5.376C71.2771 5.392 71.3771 5.42 71.4411 5.46V8.256C71.3531 8.216 71.2371 8.188 71.0931 8.172C70.9571 8.156 70.8371 8.148 70.7331 8.148C70.1331 8.1 69.6011 8.124 69.1371 8.22C68.6811 8.316 68.2931 8.48 67.9731 8.712C67.6611 8.936 67.4251 9.224 67.2651 9.576C67.1051 9.92 67.0251 10.324 67.0251 10.788V18H64.1091ZM75.823 12.468C75.815 13.172 75.927 13.796 76.159 14.34C76.391 14.884 76.735 15.312 77.191 15.624C77.647 15.928 78.211 16.08 78.883 16.08C79.571 16.08 80.167 15.928 80.671 15.624C81.183 15.312 81.523 14.84 81.691 14.208H84.367C84.223 15.072 83.879 15.804 83.335 16.404C82.791 17.004 82.131 17.46 81.355 17.772C80.587 18.084 79.787 18.24 78.955 18.24C77.755 18.24 76.699 17.988 75.787 17.484C74.883 16.972 74.175 16.244 73.663 15.3C73.159 14.356 72.907 13.232 72.907 11.928C72.907 10.656 73.139 9.528 73.603 8.544C74.067 7.552 74.735 6.772 75.607 6.204C76.487 5.636 77.543 5.352 78.775 5.352C79.999 5.352 81.027 5.612 81.859 6.132C82.699 6.652 83.331 7.38 83.755 8.316C84.187 9.244 84.403 10.332 84.403 11.58V12.468H75.823ZM75.823 10.656H81.643C81.643 10.056 81.539 9.516 81.331 9.036C81.123 8.548 80.803 8.164 80.371 7.884C79.947 7.596 79.411 7.452 78.763 7.452C78.123 7.452 77.583 7.608 77.143 7.92C76.703 8.232 76.371 8.636 76.147 9.132C75.923 9.62 75.815 10.128 75.823 10.656ZM91.6728 18.24C90.0328 18.24 88.7448 17.676 87.8088 16.548C86.8728 15.42 86.4048 13.816 86.4048 11.736C86.4048 10.44 86.5928 9.316 86.9688 8.364C87.3528 7.404 87.9128 6.664 88.6488 6.144C89.3928 5.616 90.3128 5.352 91.4088 5.352C91.9208 5.352 92.3848 5.416 92.8008 5.544C93.2248 5.664 93.6008 5.824 93.9288 6.024C94.2568 6.224 94.5328 6.444 94.7568 6.684C94.9888 6.924 95.1688 7.164 95.2968 7.404V0.167999H98.2248V18H96.0648L95.7408 15.456C95.6448 15.752 95.5008 16.064 95.3088 16.392C95.1248 16.712 94.8728 17.012 94.5528 17.292C94.2408 17.572 93.8488 17.8 93.3768 17.976C92.9048 18.152 92.3368 18.24 91.6728 18.24ZM92.2728 16.092C93.3208 16.092 94.0848 15.752 94.5648 15.072C95.0528 14.384 95.2968 13.248 95.2968 11.664C95.2888 10.76 95.1768 10 94.9608 9.384C94.7528 8.768 94.4288 8.304 93.9888 7.992C93.5568 7.68 92.9968 7.524 92.3088 7.524C91.4288 7.524 90.7048 7.848 90.1368 8.496C89.5688 9.144 89.2848 10.2 89.2848 11.664C89.2848 13.12 89.5448 14.224 90.0648 14.976C90.5848 15.72 91.3208 16.092 92.2728 16.092ZM107.28 18V0.647999H113.436C114.684 0.647999 115.8 0.863999 116.784 1.296C117.776 1.72 118.556 2.348 119.124 3.18C119.692 4.012 119.976 5.036 119.976 6.252C119.976 7.396 119.716 8.376 119.196 9.192C118.684 10.008 117.968 10.632 117.048 11.064C116.128 11.496 115.052 11.712 113.82 11.712H110.244V18H107.28ZM110.22 9.372H113.748C114.764 9.372 115.592 9.068 116.232 8.46C116.88 7.852 117.204 7.06 117.204 6.084C117.204 5.092 116.868 4.324 116.196 3.78C115.524 3.228 114.68 2.952 113.664 2.952H110.22V9.372ZM122.304 18V5.592H125.1V8.28C125.3 7.664 125.584 7.14 125.952 6.708C126.328 6.268 126.768 5.932 127.272 5.7C127.776 5.468 128.324 5.352 128.916 5.352C129.06 5.352 129.2 5.36 129.336 5.376C129.472 5.392 129.572 5.42 129.636 5.46V8.256C129.548 8.216 129.432 8.188 129.288 8.172C129.152 8.156 129.032 8.148 128.928 8.148C128.328 8.1 127.796 8.124 127.332 8.22C126.876 8.316 126.488 8.48 126.168 8.712C125.856 8.936 125.62 9.224 125.46 9.576C125.3 9.92 125.22 10.324 125.22 10.788V18H122.304ZM136.874 18.24C135.69 18.24 134.658 17.988 133.778 17.484C132.898 16.972 132.214 16.24 131.726 15.288C131.246 14.336 131.006 13.192 131.006 11.856C131.006 10.56 131.238 9.424 131.702 8.448C132.174 7.472 132.85 6.712 133.73 6.168C134.61 5.624 135.662 5.352 136.886 5.352C138.07 5.352 139.098 5.612 139.97 6.132C140.842 6.652 141.514 7.396 141.986 8.364C142.466 9.332 142.706 10.496 142.706 11.856C142.706 13.112 142.478 14.22 142.022 15.18C141.574 16.132 140.914 16.88 140.042 17.424C139.178 17.968 138.122 18.24 136.874 18.24ZM136.886 16.02C137.558 16.02 138.11 15.836 138.542 15.468C138.982 15.1 139.306 14.596 139.514 13.956C139.73 13.316 139.838 12.588 139.838 11.772C139.838 11.012 139.742 10.312 139.55 9.672C139.366 9.032 139.054 8.52 138.614 8.136C138.182 7.744 137.606 7.548 136.886 7.548C136.206 7.548 135.642 7.728 135.194 8.088C134.754 8.44 134.422 8.936 134.198 9.576C133.982 10.208 133.874 10.94 133.874 11.772C133.874 12.524 133.97 13.224 134.162 13.872C134.362 14.512 134.682 15.032 135.122 15.432C135.562 15.824 136.15 16.02 136.886 16.02ZM149.845 18.24C148.205 18.24 146.917 17.676 145.981 16.548C145.045 15.42 144.577 13.816 144.577 11.736C144.577 10.44 144.765 9.316 145.141 8.364C145.525 7.404 146.085 6.664 146.821 6.144C147.565 5.616 148.485 5.352 149.581 5.352C150.093 5.352 150.557 5.416 150.973 5.544C151.397 5.664 151.773 5.824 152.101 6.024C152.429 6.224 152.705 6.444 152.929 6.684C153.161 6.924 153.341 7.164 153.469 7.404V0.167999H156.397V18H154.237L153.913 15.456C153.817 15.752 153.673 16.064 153.481 16.392C153.297 16.712 153.045 17.012 152.725 17.292C152.413 17.572 152.021 17.8 151.549 17.976C151.077 18.152 150.509 18.24 149.845 18.24ZM150.445 16.092C151.493 16.092 152.257 15.752 152.737 15.072C153.225 14.384 153.469 13.248 153.469 11.664C153.461 10.76 153.349 10 153.133 9.384C152.925 8.768 152.601 8.304 152.161 7.992C151.729 7.68 151.169 7.524 150.481 7.524C149.601 7.524 148.877 7.848 148.309 8.496C147.741 9.144 147.457 10.2 147.457 11.664C147.457 13.12 147.717 14.224 148.237 14.976C148.757 15.72 149.493 16.092 150.445 16.092ZM164.271 18.24C163.663 18.24 163.075 18.152 162.507 17.976C161.947 17.792 161.443 17.528 160.995 17.184C160.547 16.832 160.191 16.4 159.927 15.888C159.663 15.376 159.531 14.78 159.531 14.1V5.592H162.459V13.764C162.459 14.436 162.671 14.988 163.095 15.42C163.527 15.852 164.175 16.068 165.039 16.068C165.823 16.068 166.451 15.864 166.923 15.456C167.395 15.04 167.631 14.444 167.631 13.668V5.592H170.535V18H168.291L167.967 15.576C167.815 16.256 167.547 16.792 167.163 17.184C166.787 17.568 166.343 17.84 165.831 18C165.327 18.16 164.807 18.24 164.271 18.24ZM178.804 5.352C179.772 5.352 180.624 5.544 181.36 5.928C182.096 6.312 182.684 6.844 183.124 7.524C183.572 8.204 183.84 8.976 183.928 9.84H181.432C181.376 9.464 181.24 9.108 181.024 8.772C180.808 8.428 180.516 8.152 180.148 7.944C179.78 7.728 179.336 7.62 178.816 7.62C177.888 7.62 177.132 7.964 176.548 8.652C175.972 9.34 175.684 10.396 175.684 11.82C175.684 13.132 175.96 14.176 176.512 14.952C177.064 15.728 177.852 16.116 178.876 16.116C179.388 16.116 179.824 16.004 180.184 15.78C180.552 15.548 180.84 15.264 181.048 14.928C181.264 14.584 181.404 14.24 181.468 13.896H183.892C183.82 14.736 183.556 15.484 183.1 16.14C182.652 16.796 182.06 17.312 181.324 17.688C180.596 18.056 179.756 18.24 178.804 18.24C177.668 18.24 176.656 17.992 175.768 17.496C174.888 16.992 174.196 16.264 173.692 15.312C173.188 14.352 172.936 13.196 172.936 11.844C172.936 10.556 173.172 9.428 173.644 8.46C174.116 7.484 174.792 6.724 175.672 6.18C176.552 5.628 177.596 5.352 178.804 5.352ZM193.204 7.656H190.432L190.444 14.772C190.444 15.14 190.484 15.412 190.564 15.588C190.652 15.756 190.788 15.868 190.972 15.924C191.164 15.972 191.42 15.996 191.74 15.996H193.264V17.844C193.104 17.908 192.86 17.964 192.532 18.012C192.212 18.068 191.78 18.096 191.236 18.096C190.252 18.096 189.488 17.968 188.944 17.712C188.408 17.448 188.036 17.076 187.828 16.596C187.62 16.116 187.516 15.544 187.516 14.88V7.656H185.5V5.592H187.6L188.332 1.908H190.432V5.58H193.204V7.656ZM200.66 18.24C199.796 18.24 198.976 18.104 198.2 17.832C197.432 17.552 196.784 17.116 196.256 16.524C195.736 15.932 195.408 15.168 195.272 14.232H197.84C197.952 14.688 198.148 15.06 198.428 15.348C198.716 15.636 199.056 15.848 199.448 15.984C199.84 16.112 200.24 16.176 200.648 16.176C201.392 16.176 201.992 16.048 202.448 15.792C202.912 15.536 203.144 15.14 203.144 14.604C203.144 14.212 203.016 13.9 202.76 13.668C202.504 13.436 202.096 13.26 201.536 13.14L199.172 12.6C198.124 12.368 197.28 11.984 196.64 11.448C196.008 10.912 195.688 10.156 195.68 9.18C195.672 8.444 195.856 7.788 196.232 7.212C196.608 6.636 197.168 6.184 197.912 5.856C198.656 5.52 199.576 5.352 200.672 5.352C202.12 5.352 203.28 5.676 204.152 6.324C205.024 6.964 205.472 7.88 205.496 9.072H203.012C202.924 8.536 202.672 8.12 202.256 7.824C201.84 7.52 201.3 7.368 200.636 7.368C199.948 7.368 199.384 7.5 198.944 7.764C198.504 8.028 198.284 8.432 198.284 8.976C198.284 9.352 198.452 9.648 198.788 9.864C199.124 10.08 199.628 10.264 200.3 10.416L202.532 10.956C203.172 11.116 203.696 11.332 204.104 11.604C204.512 11.876 204.832 12.176 205.064 12.504C205.296 12.824 205.456 13.156 205.544 13.5C205.64 13.836 205.688 14.148 205.688 14.436C205.688 15.236 205.48 15.92 205.064 16.488C204.656 17.048 204.076 17.48 203.324 17.784C202.572 18.088 201.684 18.24 200.66 18.24Z" fill="#191C1F"/>
</svg>
