<svg width="70" height="22" viewBox="0 0 70 22" fill="none" xmlns="http://www.w3.org/2000/svg">
<path d="M0.1 0.647999H11.452L11.44 3.12H3.064V8.112H10.456V10.548H3.064V18H0.1V0.647999ZM14.1638 18V5.592H16.9598V8.28C17.2638 7.36 17.7518 6.644 18.4238 6.132C19.1038 5.612 19.8878 5.352 20.7758 5.352C20.9198 5.352 21.0558 5.36 21.1838 5.376C21.3198 5.392 21.4238 5.42 21.4958 5.46V8.256C21.4078 8.216 21.2918 8.188 21.1478 8.172C21.0118 8.156 20.8918 8.148 20.7878 8.148C19.5878 8.052 18.6678 8.24 18.0278 8.712C17.3958 9.176 17.0798 9.868 17.0798 10.788V18H14.1638ZM26.7743 0.659999V3.42H23.8823V0.659999H26.7743ZM26.7383 5.592V18H23.9303V5.592H26.7383ZM34.8134 18.24C33.1734 18.24 31.8854 17.676 30.9494 16.548C30.0134 15.42 29.5454 13.816 29.5454 11.736C29.5454 9.792 29.9694 8.244 30.8174 7.092C31.6654 5.932 32.9094 5.352 34.5494 5.352C35.5734 5.352 36.4134 5.576 37.0694 6.024C37.7254 6.472 38.1814 6.932 38.4374 7.404V0.167999H41.3654V18H39.2054L38.8814 15.456C38.7534 15.848 38.5374 16.26 38.2334 16.692C37.9374 17.124 37.5134 17.492 36.9614 17.796C36.4094 18.092 35.6934 18.24 34.8134 18.24ZM35.4134 16.092C36.4614 16.092 37.2254 15.752 37.7054 15.072C38.1934 14.384 38.4374 13.248 38.4374 11.664C38.4214 10.312 38.1774 9.284 37.7054 8.58C37.2334 7.876 36.4814 7.524 35.4494 7.524C34.5694 7.524 33.8454 7.848 33.2774 8.496C32.7094 9.144 32.4254 10.2 32.4254 11.664C32.4254 13.12 32.6854 14.224 33.2054 14.976C33.7254 15.72 34.4614 16.092 35.4134 16.092ZM48.1954 18.24C47.0034 18.24 46.0154 17.92 45.2314 17.28C44.4474 16.632 44.0554 15.72 44.0554 14.544C44.0554 13.176 44.5474 12.144 45.5314 11.448C46.5234 10.752 48.1034 10.388 50.2714 10.356L52.1194 10.308V9.468C52.1194 8.812 51.9234 8.3 51.5314 7.932C51.1394 7.564 50.5394 7.38 49.7314 7.38C49.1234 7.388 48.5714 7.532 48.0754 7.812C47.5794 8.092 47.2514 8.552 47.0914 9.192H44.6074C44.6714 7.92 45.1794 6.964 46.1314 6.324C47.0914 5.676 48.3354 5.352 49.8634 5.352C51.6314 5.352 52.9154 5.7 53.7154 6.396C54.5234 7.084 54.9274 8.052 54.9274 9.3V18H52.4674L52.2394 15.768C51.7834 16.704 51.2154 17.352 50.5354 17.712C49.8554 18.064 49.0754 18.24 48.1954 18.24ZM49.1434 16.26C49.6234 16.26 50.0914 16.148 50.5474 15.924C51.0034 15.692 51.3794 15.396 51.6754 15.036C51.9714 14.676 52.1194 14.292 52.1194 13.884V11.928L50.5954 11.952C49.4674 11.968 48.5594 12.148 47.8714 12.492C47.1834 12.836 46.8394 13.42 46.8394 14.244C46.8394 14.876 47.0594 15.372 47.4994 15.732C47.9394 16.084 48.4874 16.26 49.1434 16.26ZM59.5296 21.96C58.7376 21.96 58.1816 21.896 57.8616 21.768C57.5496 21.648 57.3936 21.588 57.3936 21.588V19.716L58.6416 19.752C59.3136 19.792 59.8216 19.736 60.1656 19.584C60.5096 19.44 60.7496 19.26 60.8856 19.044C61.0296 18.836 61.1336 18.652 61.1976 18.492L61.5216 17.58L56.6856 5.592H59.6016L62.8896 14.364L66.1776 5.592H69.0336L63.9216 18.456C63.5376 19.392 63.1216 20.112 62.6736 20.616C62.2336 21.128 61.7496 21.48 61.2216 21.672C60.7016 21.864 60.1376 21.96 59.5296 21.96Z" fill="white"/>
</svg>
