<svg width="41" height="12" viewBox="0 0 41 12" fill="none" xmlns="http://www.w3.org/2000/svg">
<path d="M0.337 11V0.877999H1.681V6.114L6.217 0.877999H7.764L4.383 4.854L8.058 11H6.595L3.438 5.799L1.681 7.808V11H0.337ZM9.61397 11V3.762H10.846V5.155C10.9673 4.80967 11.1376 4.525 11.357 4.301C11.5763 4.07233 11.826 3.902 12.106 3.79C12.3906 3.678 12.6846 3.622 12.988 3.622C13.0953 3.622 13.2003 3.629 13.303 3.643C13.4056 3.657 13.485 3.68033 13.541 3.713V4.966C13.471 4.93333 13.38 4.91233 13.268 4.903C13.1606 4.889 13.0696 4.882 12.995 4.882C12.7056 4.86333 12.435 4.882 12.183 4.938C11.931 4.98933 11.7093 5.08033 11.518 5.211C11.3266 5.34167 11.175 5.51433 11.063 5.729C10.9556 5.939 10.902 6.19567 10.902 6.499V11H9.61397ZM15.1177 11V3.762H16.3707V11H15.1177ZM15.0827 2.229V0.885H16.4057V2.229H15.0827ZM21.1457 11.14C20.6417 11.14 20.1727 11.063 19.7387 10.909C19.3094 10.7503 18.9524 10.5053 18.6677 10.174C18.383 9.838 18.2057 9.411 18.1357 8.893H19.3117C19.3724 9.17767 19.489 9.41567 19.6617 9.607C19.8344 9.79367 20.0467 9.936 20.2987 10.034C20.5554 10.1273 20.8354 10.174 21.1387 10.174C21.6287 10.174 22.023 10.083 22.3217 9.901C22.6204 9.719 22.7697 9.439 22.7697 9.061C22.7697 8.795 22.6904 8.58267 22.5317 8.424C22.3777 8.26067 22.135 8.14167 21.8037 8.067L20.3057 7.696C19.7224 7.556 19.2557 7.33667 18.9057 7.038C18.5604 6.73933 18.3854 6.32167 18.3807 5.785C18.3807 5.36033 18.4834 4.987 18.6887 4.665C18.894 4.343 19.1997 4.08867 19.6057 3.902C20.0164 3.71533 20.5274 3.622 21.1387 3.622C21.9274 3.622 22.562 3.79933 23.0427 4.154C23.5234 4.504 23.7754 5.01967 23.7987 5.701H22.6507C22.604 5.35567 22.45 5.08267 22.1887 4.882C21.9274 4.67667 21.5727 4.574 21.1247 4.574C20.6674 4.574 20.2917 4.66733 19.9977 4.854C19.7084 5.036 19.5637 5.32067 19.5637 5.708C19.5637 5.96467 19.6664 6.16767 19.8717 6.317C20.0817 6.46167 20.385 6.583 20.7817 6.681L22.2377 7.045C22.569 7.13367 22.8444 7.25033 23.0637 7.395C23.283 7.53967 23.4557 7.70067 23.5817 7.878C23.7077 8.05533 23.7964 8.242 23.8477 8.438C23.9037 8.62933 23.9317 8.81367 23.9317 8.991C23.9317 9.43433 23.822 9.817 23.6027 10.139C23.3834 10.4563 23.066 10.7037 22.6507 10.881C22.2354 11.0537 21.7337 11.14 21.1457 11.14ZM28.1263 11.035C27.627 11.035 27.2397 10.9673 26.9643 10.832C26.689 10.6967 26.4953 10.496 26.3833 10.23C26.276 9.964 26.2223 9.63733 26.2223 9.25V4.707H25.0463V3.762H26.2573L26.5723 1.655H27.5243V3.755H29.1553V4.707H27.5243V9.208C27.5243 9.46467 27.55 9.65367 27.6013 9.775C27.6573 9.89167 27.7483 9.96633 27.8743 9.999C28.0003 10.0317 28.1777 10.048 28.4063 10.048H29.1973V10.916C29.1087 10.9487 28.9733 10.9767 28.7913 11C28.614 11.0233 28.3923 11.035 28.1263 11.035ZM30.9498 11V3.762H32.2028V11H30.9498ZM30.9148 2.229V0.885H32.2378V2.229H30.9148ZM34.4558 11V3.762H35.7088V4.812C35.8254 4.61133 35.9864 4.42233 36.1918 4.245C36.4018 4.06767 36.6538 3.92533 36.9478 3.818C37.2464 3.71067 37.5894 3.657 37.9768 3.657C38.4341 3.657 38.8541 3.748 39.2368 3.93C39.6241 4.112 39.9321 4.39667 40.1608 4.784C40.3941 5.16667 40.5108 5.66133 40.5108 6.268V11H39.2158V6.394C39.2158 5.82933 39.0664 5.41167 38.7678 5.141C38.4738 4.86567 38.0911 4.728 37.6198 4.728C37.2931 4.728 36.9874 4.78167 36.7028 4.889C36.4181 4.99167 36.1871 5.15033 36.0098 5.365C35.8324 5.575 35.7438 5.841 35.7438 6.163V11H34.4558Z" fill="#475156"/>
</svg>
