<svg width="183" height="25" viewBox="0 0 183 25" fill="none" xmlns="http://www.w3.org/2000/svg">
<path d="M0.40975 0.863998H4.34575V20.64H14.7938V24H0.39375L0.40975 0.863998ZM23.396 24.32C22.34 24.32 21.3907 24.128 20.548 23.744C19.716 23.3493 19.06 22.7893 18.58 22.064C18.1107 21.328 17.876 20.4373 17.876 19.392C17.876 17.568 18.532 16.192 19.844 15.264C21.1667 14.336 23.2733 13.8507 26.164 13.808L28.628 13.744V12.624C28.628 11.7493 28.3667 11.0667 27.844 10.576C27.332 10.0747 26.532 9.82933 25.444 9.84C24.644 9.85067 23.908 10.0427 23.236 10.416C22.5747 10.7787 22.1373 11.392 21.924 12.256H18.612C18.676 11.1253 19.0013 10.1813 19.588 9.424C20.1853 8.656 21.0013 8.08533 22.036 7.712C23.0707 7.328 24.2653 7.136 25.62 7.136C27.1987 7.136 28.484 7.344 29.476 7.76C30.468 8.176 31.1987 8.77867 31.668 9.568C32.1373 10.3467 32.372 11.2907 32.372 12.4V24H29.092L28.788 21.024C28.1907 22.272 27.4333 23.136 26.516 23.616C25.6093 24.0853 24.5693 24.32 23.396 24.32ZM24.66 21.68C25.14 21.68 25.6147 21.5947 26.084 21.424C26.5533 21.2427 26.98 21.0027 27.364 20.704C27.748 20.3947 28.052 20.0533 28.276 19.68C28.5107 19.3067 28.628 18.9173 28.628 18.512V15.904L26.596 15.936C25.5933 15.9467 24.7187 16.0533 23.972 16.256C23.2253 16.4587 22.6387 16.784 22.212 17.232C21.796 17.6693 21.588 18.256 21.588 18.992C21.588 19.8347 21.8813 20.496 22.468 20.976C23.0547 21.4453 23.7853 21.68 24.66 21.68ZM45.491 10.208H41.795L41.811 19.696C41.811 20.1867 41.8643 20.5493 41.971 20.784C42.0883 21.008 42.2697 21.1573 42.515 21.232C42.771 21.296 43.1123 21.328 43.539 21.328H45.571V23.792C45.3577 23.8773 45.0323 23.952 44.595 24.016C44.1683 24.0907 43.5923 24.128 42.867 24.128C41.555 24.128 40.5363 23.9573 39.811 23.616C39.0963 23.264 38.6003 22.768 38.323 22.128C38.0457 21.488 37.907 20.7253 37.907 19.84V10.208H35.219V7.456H38.019L38.995 2.544H41.795V7.44H45.491V10.208ZM51.889 16.624C51.8783 17.5627 52.0277 18.3947 52.337 19.12C52.6463 19.8453 53.105 20.416 53.713 20.832C54.321 21.2373 55.073 21.44 55.969 21.44C56.8863 21.44 57.681 21.2373 58.353 20.832C59.0357 20.416 59.489 19.7867 59.713 18.944H63.281C63.089 20.096 62.6303 21.072 61.905 21.872C61.1797 22.672 60.2997 23.28 59.265 23.696C58.241 24.112 57.1743 24.32 56.065 24.32C54.465 24.32 53.057 23.984 51.841 23.312C50.6357 22.6293 49.6917 21.6587 49.009 20.4C48.337 19.1413 48.001 17.6427 48.001 15.904C48.001 14.208 48.3103 12.704 48.929 11.392C49.5477 10.0693 50.4383 9.02933 51.601 8.272C52.7743 7.51467 54.1823 7.136 55.825 7.136C57.457 7.136 58.8277 7.48267 59.937 8.176C61.057 8.86933 61.8997 9.84 62.465 11.088C63.041 12.3253 63.329 13.776 63.329 15.44V16.624H51.889ZM51.889 14.208H59.649C59.649 13.408 59.5103 12.688 59.233 12.048C58.9557 11.3973 58.529 10.8853 57.953 10.512C57.3877 10.128 56.673 9.936 55.809 9.936C54.9557 9.936 54.2357 10.144 53.649 10.56C53.0623 10.976 52.6197 11.5147 52.321 12.176C52.0223 12.8267 51.8783 13.504 51.889 14.208ZM73.1195 24.32C71.9675 24.32 70.8742 24.1387 69.8395 23.776C68.8155 23.4027 67.9515 22.8213 67.2475 22.032C66.5542 21.2427 66.1168 20.224 65.9355 18.976H69.3595C69.5088 19.584 69.7702 20.08 70.1435 20.464C70.5275 20.848 70.9808 21.1307 71.5035 21.312C72.0262 21.4827 72.5595 21.568 73.1035 21.568C74.0955 21.568 74.8955 21.3973 75.5035 21.056C76.1222 20.7147 76.4315 20.1867 76.4315 19.472C76.4315 18.9493 76.2608 18.5333 75.9195 18.224C75.5782 17.9147 75.0342 17.68 74.2875 17.52L71.1355 16.8C69.7382 16.4907 68.6128 15.9787 67.7595 15.264C66.9168 14.5493 66.4902 13.5413 66.4795 12.24C66.4688 11.2587 66.7142 10.384 67.2155 9.616C67.7168 8.848 68.4635 8.24533 69.4555 7.808C70.4475 7.36 71.6742 7.136 73.1355 7.136C75.0662 7.136 76.6128 7.568 77.7755 8.432C78.9382 9.28533 79.5355 10.5067 79.5675 12.096H76.2555C76.1382 11.3813 75.8022 10.8267 75.2475 10.432C74.6928 10.0267 73.9728 9.824 73.0875 9.824C72.1702 9.824 71.4182 10 70.8315 10.352C70.2448 10.704 69.9515 11.2427 69.9515 11.968C69.9515 12.4693 70.1755 12.864 70.6235 13.152C71.0715 13.44 71.7435 13.6853 72.6395 13.888L75.6155 14.608C76.4688 14.8213 77.1675 15.1093 77.7115 15.472C78.2555 15.8347 78.6822 16.2347 78.9915 16.672C79.3008 17.0987 79.5142 17.5413 79.6315 18C79.7595 18.448 79.8235 18.864 79.8235 19.248C79.8235 20.3147 79.5462 21.2267 78.9915 21.984C78.4475 22.7307 77.6742 23.3067 76.6715 23.712C75.6688 24.1173 74.4848 24.32 73.1195 24.32ZM92.5223 10.208H88.8263L88.8423 19.696C88.8423 20.1867 88.8956 20.5493 89.0023 20.784C89.1196 21.008 89.3009 21.1573 89.5463 21.232C89.8023 21.296 90.1436 21.328 90.5703 21.328H92.6023V23.792C92.3889 23.8773 92.0636 23.952 91.6263 24.016C91.1996 24.0907 90.6236 24.128 89.8983 24.128C88.5863 24.128 87.5676 23.9573 86.8423 23.616C86.1276 23.264 85.6316 22.768 85.3543 22.128C85.0769 21.488 84.9383 20.7253 84.9383 19.84V10.208H82.2503V7.456H85.0503L86.0263 2.544H88.8263V7.44H92.5223V10.208ZM119.124 0.863998H123.012V24H119.508L107.876 7.024V24H103.988V0.863998H107.796L119.124 17.392V0.863998ZM130.733 16.624C130.722 17.5627 130.871 18.3947 131.181 19.12C131.49 19.8453 131.949 20.416 132.557 20.832C133.165 21.2373 133.917 21.44 134.813 21.44C135.73 21.44 136.525 21.2373 137.197 20.832C137.879 20.416 138.333 19.7867 138.557 18.944H142.125C141.933 20.096 141.474 21.072 140.749 21.872C140.023 22.672 139.143 23.28 138.109 23.696C137.085 24.112 136.018 24.32 134.909 24.32C133.309 24.32 131.901 23.984 130.685 23.312C129.479 22.6293 128.535 21.6587 127.853 20.4C127.181 19.1413 126.845 17.6427 126.845 15.904C126.845 14.208 127.154 12.704 127.773 11.392C128.391 10.0693 129.282 9.02933 130.445 8.272C131.618 7.51467 133.026 7.136 134.669 7.136C136.301 7.136 137.671 7.48267 138.781 8.176C139.901 8.86933 140.743 9.84 141.309 11.088C141.885 12.3253 142.173 13.776 142.173 15.44V16.624H130.733ZM130.733 14.208H138.493C138.493 13.408 138.354 12.688 138.077 12.048C137.799 11.3973 137.373 10.8853 136.797 10.512C136.231 10.128 135.517 9.936 134.653 9.936C133.799 9.936 133.079 10.144 132.493 10.56C131.906 10.976 131.463 11.5147 131.165 12.176C130.866 12.8267 130.722 13.504 130.733 14.208ZM167.513 7.456L162.265 24H158.905L155.513 12.976L152.201 24H148.921L143.673 7.456H147.177L150.633 18.832H150.809L154.153 7.456H157.001L160.441 18.816H160.617L163.945 7.456H167.513ZM176.245 24.32C175.093 24.32 173.999 24.1387 172.965 23.776C171.941 23.4027 171.077 22.8213 170.373 22.032C169.679 21.2427 169.242 20.224 169.061 18.976H172.485C172.634 19.584 172.895 20.08 173.269 20.464C173.653 20.848 174.106 21.1307 174.629 21.312C175.151 21.4827 175.685 21.568 176.229 21.568C177.221 21.568 178.021 21.3973 178.629 21.056C179.247 20.7147 179.557 20.1867 179.557 19.472C179.557 18.9493 179.386 18.5333 179.045 18.224C178.703 17.9147 178.159 17.68 177.413 17.52L174.261 16.8C172.863 16.4907 171.738 15.9787 170.885 15.264C170.042 14.5493 169.615 13.5413 169.605 12.24C169.594 11.2587 169.839 10.384 170.341 9.616C170.842 8.848 171.589 8.24533 172.581 7.808C173.573 7.36 174.799 7.136 176.26 7.136C178.191 7.136 179.738 7.568 180.901 8.432C182.063 9.28533 182.661 10.5067 182.693 12.096H179.381C179.263 11.3813 178.927 10.8267 178.373 10.432C177.818 10.0267 177.098 9.824 176.213 9.824C175.295 9.824 174.543 10 173.957 10.352C173.37 10.704 173.077 11.2427 173.077 11.968C173.077 12.4693 173.301 12.864 173.749 13.152C174.197 13.44 174.869 13.6853 175.765 13.888L178.741 14.608C179.594 14.8213 180.293 15.1093 180.837 15.472C181.381 15.8347 181.807 16.2347 182.117 16.672C182.426 17.0987 182.639 17.5413 182.757 18C182.885 18.448 182.949 18.864 182.949 19.248C182.949 20.3147 182.671 21.2267 182.117 21.984C181.573 22.7307 180.799 23.3067 179.797 23.712C178.794 24.1173 177.61 24.32 176.245 24.32Z" fill="#191C1F"/>
</svg>
