<svg width="68" height="14" viewBox="0 0 68 14" fill="none" xmlns="http://www.w3.org/2000/svg">
<path d="M0.337 11V0.877999H1.576L6.924 8.746V0.877999H8.219V11H7.064L1.632 3.02V11H0.337ZM13.589 11.14C12.917 11.14 12.3243 10.993 11.811 10.699C11.2977 10.405 10.8963 9.98267 10.607 9.432C10.3177 8.88133 10.173 8.221 10.173 7.451C10.173 6.69033 10.3037 6.023 10.565 5.449C10.8263 4.875 11.2043 4.427 11.699 4.105C12.1983 3.783 12.798 3.622 13.498 3.622C14.1793 3.622 14.7557 3.769 15.227 4.063C15.6983 4.357 16.0553 4.77233 16.298 5.309C16.5453 5.841 16.669 6.47333 16.669 7.206V7.682H11.482C11.482 8.13933 11.5567 8.55467 11.706 8.928C11.86 9.29667 12.091 9.59067 12.399 9.81C12.707 10.0293 13.0967 10.139 13.568 10.139C14.03 10.139 14.4267 10.0317 14.758 9.817C15.094 9.60233 15.3087 9.292 15.402 8.886H16.62C16.536 9.376 16.34 9.789 16.032 10.125C15.7287 10.461 15.3623 10.7153 14.933 10.888C14.5083 11.056 14.0603 11.14 13.589 11.14ZM11.489 6.807H15.423C15.423 6.39167 15.353 6.01833 15.213 5.687C15.073 5.351 14.8583 5.08733 14.569 4.896C14.2843 4.7 13.925 4.602 13.491 4.602C13.0383 4.602 12.6627 4.71167 12.364 4.931C12.0653 5.14567 11.8437 5.42333 11.699 5.764C11.5543 6.1 11.4843 6.44767 11.489 6.807ZM21.5187 11.14C20.8467 11.14 20.254 10.993 19.7407 10.699C19.2273 10.405 18.826 9.98267 18.5367 9.432C18.2473 8.88133 18.1027 8.221 18.1027 7.451C18.1027 6.69033 18.2333 6.023 18.4947 5.449C18.756 4.875 19.134 4.427 19.6287 4.105C20.128 3.783 20.7277 3.622 21.4277 3.622C22.109 3.622 22.6853 3.769 23.1567 4.063C23.628 4.357 23.985 4.77233 24.2277 5.309C24.475 5.841 24.5987 6.47333 24.5987 7.206V7.682H19.4117C19.4117 8.13933 19.4863 8.55467 19.6357 8.928C19.7897 9.29667 20.0207 9.59067 20.3287 9.81C20.6367 10.0293 21.0263 10.139 21.4977 10.139C21.9597 10.139 22.3563 10.0317 22.6877 9.817C23.0237 9.60233 23.2383 9.292 23.3317 8.886H24.5497C24.4657 9.376 24.2697 9.789 23.9617 10.125C23.6583 10.461 23.292 10.7153 22.8627 10.888C22.438 11.056 21.99 11.14 21.5187 11.14ZM19.4187 6.807H23.3527C23.3527 6.39167 23.2827 6.01833 23.1427 5.687C23.0027 5.351 22.788 5.08733 22.4987 4.896C22.214 4.7 21.8547 4.602 21.4207 4.602C20.968 4.602 20.5923 4.71167 20.2937 4.931C19.995 5.14567 19.7733 5.42333 19.6287 5.764C19.484 6.1 19.414 6.44767 19.4187 6.807ZM29.0284 11.14C28.0857 11.14 27.339 10.818 26.7884 10.174C26.2424 9.53 25.9694 8.58967 25.9694 7.353C25.9694 6.60167 26.079 5.946 26.2984 5.386C26.5177 4.826 26.8467 4.392 27.2854 4.084C27.724 3.776 28.27 3.622 28.9234 3.622C29.2734 3.622 29.5814 3.66633 29.8474 3.755C30.1134 3.84367 30.3444 3.95567 30.5404 4.091C30.7364 4.22633 30.895 4.36633 31.0164 4.511C31.1424 4.65567 31.2357 4.78867 31.2964 4.91V0.598H32.6054V11H31.6114L31.4714 9.516C31.4247 9.656 31.35 9.81933 31.2474 10.006C31.1447 10.188 31 10.3677 30.8134 10.545C30.6314 10.7177 30.3934 10.86 30.0994 10.972C29.8054 11.084 29.4484 11.14 29.0284 11.14ZM29.2594 10.146C29.9874 10.146 30.5077 9.92433 30.8204 9.481C31.1377 9.033 31.2964 8.30267 31.2964 7.29C31.2917 6.72533 31.2217 6.24467 31.0864 5.848C30.951 5.45133 30.7364 5.15033 30.4424 4.945C30.153 4.735 29.7657 4.63 29.2804 4.63C28.6877 4.63 28.2047 4.84233 27.8314 5.267C27.458 5.69167 27.2714 6.366 27.2714 7.29C27.2714 8.19533 27.4394 8.89767 27.7754 9.397C28.1114 9.89633 28.606 10.146 29.2594 10.146ZM38.4132 11V0.877999H39.7082V5.19H45.1682V0.877999H46.4632V11H45.1682V6.331H39.7082V11H38.4132ZM51.8292 11.14C51.1572 11.14 50.5646 10.993 50.0512 10.699C49.5379 10.405 49.1366 9.98267 48.8472 9.432C48.5579 8.88133 48.4132 8.221 48.4132 7.451C48.4132 6.69033 48.5439 6.023 48.8052 5.449C49.0666 4.875 49.4446 4.427 49.9392 4.105C50.4386 3.783 51.0382 3.622 51.7382 3.622C52.4196 3.622 52.9959 3.769 53.4672 4.063C53.9386 4.357 54.2956 4.77233 54.5382 5.309C54.7856 5.841 54.9092 6.47333 54.9092 7.206V7.682H49.7222C49.7222 8.13933 49.7969 8.55467 49.9462 8.928C50.1002 9.29667 50.3312 9.59067 50.6392 9.81C50.9472 10.0293 51.3369 10.139 51.8082 10.139C52.2702 10.139 52.6669 10.0317 52.9982 9.817C53.3342 9.60233 53.5489 9.292 53.6422 8.886H54.8602C54.7762 9.376 54.5802 9.789 54.2722 10.125C53.9689 10.461 53.6026 10.7153 53.1732 10.888C52.7486 11.056 52.3006 11.14 51.8292 11.14ZM49.7292 6.807H53.6632C53.6632 6.39167 53.5932 6.01833 53.4532 5.687C53.3132 5.351 53.0986 5.08733 52.8092 4.896C52.5246 4.7 52.1652 4.602 51.7312 4.602C51.2786 4.602 50.9029 4.71167 50.6042 4.931C50.3056 5.14567 50.0839 5.42333 49.9392 5.764C49.7946 6.1 49.7246 6.44767 49.7292 6.807ZM58.5269 11.091C58.1349 11.091 57.8176 11.0373 57.5749 10.93C57.3369 10.8227 57.1526 10.678 57.0219 10.496C56.8959 10.314 56.8096 10.1063 56.7629 9.873C56.7209 9.635 56.6999 9.39 56.6999 9.138V0.598H57.9739V9.012C57.9739 9.376 58.0439 9.649 58.1839 9.831C58.3286 10.013 58.5292 10.1133 58.7859 10.132L59.1779 10.139V10.979C59.0706 11.0117 58.9586 11.0373 58.8419 11.056C58.7252 11.0793 58.6202 11.091 58.5269 11.091ZM60.8698 13.254V3.762H62.1578L62.1718 5.022C62.2558 4.87267 62.3632 4.71633 62.4938 4.553C62.6292 4.38967 62.7925 4.238 62.9838 4.098C63.1798 3.958 63.4062 3.84367 63.6628 3.755C63.9242 3.66633 64.2205 3.622 64.5518 3.622C65.1305 3.622 65.6392 3.755 66.0778 4.021C66.5212 4.28233 66.8665 4.68367 67.1138 5.225C67.3612 5.76633 67.4848 6.45233 67.4848 7.283C67.4848 8.11367 67.3635 8.816 67.1208 9.39C66.8828 9.95933 66.5375 10.3933 66.0848 10.692C65.6322 10.9907 65.0862 11.14 64.4468 11.14C64.1248 11.14 63.8378 11.0933 63.5858 11C63.3385 10.9113 63.1215 10.7947 62.9348 10.65C62.7528 10.5007 62.5988 10.342 62.4728 10.174C62.3515 10.006 62.2512 9.845 62.1718 9.691V13.254H60.8698ZM64.2018 10.132C64.7992 10.132 65.2868 9.90567 65.6648 9.453C66.0428 8.99567 66.2318 8.28633 66.2318 7.325C66.2318 6.499 66.0592 5.84333 65.7138 5.358C65.3685 4.87267 64.8645 4.63 64.2018 4.63C63.5298 4.63 63.0212 4.87967 62.6758 5.379C62.3305 5.87367 62.1578 6.52233 62.1578 7.325C62.1578 7.843 62.2348 8.31433 62.3888 8.739C62.5428 9.16367 62.7715 9.502 63.0748 9.754C63.3782 10.006 63.7538 10.132 64.2018 10.132Z" fill="#5F6C72"/>
</svg>
