<svg width="109" height="12" viewBox="0 0 109 12" fill="none" xmlns="http://www.w3.org/2000/svg">
<path d="M7.968 0.431999H9.912V12H8.16L2.344 3.512V12H0.4V0.431999H2.304L7.968 8.696V0.431999ZM12.7125 12V0.431999H20.3605L20.3525 2.104H14.6725V5.344H19.6885V6.992H14.6565V10.304L20.4725 10.312V12H12.7125ZM36.5091 0.431999L33.1091 12H31.4691L29.1331 3.8L26.7651 12H25.1651L21.7891 0.431999H23.7091L26.0531 8.784L28.4051 0.431999H29.8611L32.2291 8.784L34.5811 0.431999H36.5091ZM40.919 12L45.079 0.431999H47.183L51.335 12H49.383L48.351 9.096H43.935L42.879 12H40.919ZM44.383 7.368H47.871L46.135 2.328L44.383 7.368ZM61.931 12H59.899L57.907 7.304H55.219V12H53.275V0.431999H57.971C58.8563 0.431999 59.5843 0.570666 60.155 0.848C60.731 1.12 61.1577 1.50667 61.435 2.008C61.7123 2.504 61.851 3.08533 61.851 3.752C61.851 4.37067 61.7497 4.89067 61.547 5.312C61.3443 5.728 61.0803 6.06933 60.755 6.336C60.435 6.59733 60.091 6.81067 59.723 6.976L61.931 12ZM57.531 5.76C58.267 5.76 58.8403 5.58933 59.251 5.248C59.667 4.90667 59.875 4.432 59.875 3.824C59.875 3.22667 59.683 2.76533 59.299 2.44C58.915 2.11467 58.4083 1.952 57.779 1.952H55.219V5.76H57.531ZM72.9154 12H70.8834L68.8914 7.304H66.2034V12H64.2594V0.431999H68.9554C69.8407 0.431999 70.5687 0.570666 71.1394 0.848C71.7154 1.12 72.142 1.50667 72.4194 2.008C72.6967 2.504 72.8354 3.08533 72.8354 3.752C72.8354 4.37067 72.734 4.89067 72.5314 5.312C72.3287 5.728 72.0647 6.06933 71.7394 6.336C71.4194 6.59733 71.0754 6.81067 70.7074 6.976L72.9154 12ZM68.5154 5.76C69.2514 5.76 69.8247 5.58933 70.2354 5.248C70.6514 4.90667 70.8594 4.432 70.8594 3.824C70.8594 3.22667 70.6674 2.76533 70.2834 2.44C69.8994 2.11467 69.3927 1.952 68.7634 1.952H66.2034V5.76H68.5154ZM75.2438 0.431999H77.1878V12H75.2438V0.431999ZM89.2178 0.431999L85.1778 12H82.9218L78.9298 0.431999H80.8098L84.0498 9.752L87.3378 0.431999H89.2178ZM88.4815 12L92.6415 0.431999H94.7455L98.8975 12H96.9455L95.9135 9.096H91.4975L90.4415 12H88.4815ZM91.9455 7.368H95.4335L93.6975 2.328L91.9455 7.368ZM100.846 0.431999H102.814V10.32H108.038V12H100.838L100.846 0.431999Z" fill="#191C1F"/>
</svg>
