<svg width="200" height="260" viewBox="0 0 200 260" fill="none" xmlns="http://www.w3.org/2000/svg">
<path d="M10.944 19.944C10.5333 19.944 10.1147 19.8987 9.688 19.808C9.26133 19.7173 8.84267 19.5333 8.432 19.256C8.02667 18.984 7.648 18.5733 7.296 18.024C7.02933 18.0667 6.78933 18.0987 6.576 18.12C6.368 18.1467 6.15733 18.16 5.944 18.16C4.904 18.16 4.00267 17.9307 3.24 17.472C2.47733 17.0133 1.88533 16.344 1.464 15.464C1.048 14.5787 0.84 13.504 0.84 12.24C0.84 10.976 1.048 9.90133 1.464 9.016C1.88 8.12533 2.46933 7.44533 3.232 6.976C3.99467 6.50667 4.89867 6.272 5.944 6.272C6.984 6.272 7.88533 6.50667 8.648 6.976C9.41067 7.44533 9.99733 8.12533 10.408 9.016C10.8187 9.90133 11.024 10.976 11.024 12.24C11.024 13.3973 10.8507 14.3973 10.504 15.24C10.1627 16.0773 9.616 16.7573 8.864 17.28C9.04 17.68 9.31467 17.9813 9.688 18.184C10.0667 18.392 10.4853 18.504 10.944 18.52V19.944ZM5.944 16.696C6.96267 16.696 7.752 16.344 8.312 15.64C8.87733 14.9307 9.16 13.8027 9.16 12.256C9.16 10.7093 8.88 9.57067 8.32 8.84C7.76533 8.104 6.97333 7.736 5.944 7.736C4.91467 7.736 4.12 8.104 3.56 8.84C3.00533 9.576 2.728 10.72 2.728 12.272C2.728 13.8133 3.008 14.936 3.568 15.64C4.13333 16.344 4.92533 16.696 5.944 16.696ZM17.675 18.16C16.6403 18.16 15.803 17.9893 15.163 17.648C14.5283 17.3067 14.0643 16.808 13.771 16.152C13.483 15.496 13.339 14.696 13.339 13.752V6.432H15.107V13.968C15.107 14.8853 15.331 15.568 15.779 16.016C16.2323 16.4587 16.8643 16.68 17.675 16.68C18.2137 16.68 18.6777 16.584 19.067 16.392C19.4617 16.1947 19.763 15.896 19.971 15.496C20.179 15.0907 20.283 14.5813 20.283 13.968V6.432H22.019V13.888C22.019 14.7893 21.8697 15.56 21.571 16.2C21.2723 16.8347 20.803 17.32 20.163 17.656C19.5283 17.992 18.699 18.16 17.675 18.16ZM24.6515 18V6.432H26.3635V18H24.6515ZM33.6681 18.16C32.6228 18.16 31.7268 17.92 30.9801 17.44C30.2335 16.9547 29.6601 16.2667 29.2601 15.376C28.8655 14.48 28.6681 13.408 28.6681 12.16C28.6681 10.9173 28.8655 9.85867 29.2601 8.984C29.6548 8.104 30.2255 7.432 30.9721 6.968C31.7188 6.504 32.6175 6.272 33.6681 6.272C34.5001 6.272 35.2388 6.44267 35.8841 6.784C36.5295 7.12533 37.0468 7.584 37.4361 8.16C37.8308 8.736 38.0655 9.37333 38.1401 10.072H36.3161C36.2361 9.63467 36.0815 9.24 35.8521 8.888C35.6281 8.53067 35.3295 8.25067 34.9561 8.048C34.5828 7.84 34.1401 7.736 33.6281 7.736C32.9721 7.736 32.4148 7.89067 31.9561 8.2C31.4975 8.50933 31.1481 8.992 30.9081 9.648C30.6735 10.304 30.5561 11.1493 30.5561 12.184C30.5561 13.7467 30.8201 14.8907 31.3481 15.616C31.8761 16.336 32.6361 16.696 33.6281 16.696C34.1401 16.696 34.5828 16.5867 34.9561 16.368C35.3295 16.144 35.6281 15.848 35.8521 15.48C36.0815 15.1067 36.2361 14.7013 36.3161 14.264H38.1401C38.0761 14.7707 37.9428 15.2587 37.7401 15.728C37.5375 16.192 37.2548 16.608 36.8921 16.976C36.5348 17.344 36.0895 17.6347 35.5561 17.848C35.0228 18.056 34.3935 18.16 33.6681 18.16ZM40.4328 18V6.432H42.2168V12.232L47.1368 6.432H49.1528L45.3768 10.96L49.5048 18H47.6007L44.1368 12.208L42.2168 14.44V18H40.4328ZM55.3078 18L55.3158 6.432H57.0518V16.496H62.3958V18H55.3078ZM64.5421 18V6.432H66.2541V18H64.5421ZM69.1828 18V6.432H70.8388L76.7268 15.056V6.432H78.4468V18H76.9108L70.8948 9.192V18H69.1828ZM81.3703 18V6.432H83.1543V12.232L88.0743 6.432H90.0903L86.3143 10.96L90.4423 18H88.5382L85.0743 12.208L83.1543 14.44V18H81.3703ZM95.9491 18.16C95.3838 18.16 94.8398 18.0907 94.3171 17.952C93.7998 17.8133 93.3278 17.608 92.9011 17.336C92.4798 17.0587 92.1305 16.7147 91.8531 16.304C91.5811 15.8933 91.4105 15.4133 91.3411 14.864H93.1251C93.2158 15.28 93.3945 15.6293 93.6611 15.912C93.9331 16.1947 94.2718 16.408 94.6771 16.552C95.0878 16.696 95.5411 16.768 96.0371 16.768C96.4958 16.768 96.9198 16.696 97.3091 16.552C97.6985 16.408 98.0131 16.2 98.2531 15.928C98.4931 15.656 98.6131 15.3227 98.6131 14.928C98.6131 14.4853 98.4638 14.136 98.1651 13.88C97.8718 13.6187 97.4291 13.4107 96.8371 13.256L94.5171 12.68C93.9571 12.5467 93.4638 12.3573 93.0371 12.112C92.6105 11.8613 92.2798 11.5333 92.0451 11.128C91.8105 10.7173 91.6931 10.2107 91.6931 9.608C91.6931 8.936 91.8771 8.352 92.2451 7.856C92.6185 7.35467 93.1225 6.968 93.7571 6.696C94.3971 6.424 95.1198 6.288 95.9251 6.288C96.8478 6.288 97.6238 6.44533 98.2531 6.76C98.8878 7.07467 99.3678 7.49067 99.6931 8.008C100.024 8.52 100.192 9.07733 100.197 9.68H98.4531C98.4051 9.18933 98.2585 8.8 98.0131 8.512C97.7731 8.21867 97.4665 8.008 97.0931 7.88C96.7251 7.752 96.3171 7.688 95.8691 7.688C95.0798 7.688 94.4851 7.864 94.0851 8.216C93.6905 8.56267 93.4931 8.976 93.4931 9.456C93.4931 9.89867 93.6371 10.248 93.9251 10.504C94.2185 10.76 94.6505 10.9573 95.2211 11.096L97.4611 11.648C98.1651 11.8027 98.7278 12.0347 99.1491 12.344C99.5758 12.648 99.8825 13.008 100.069 13.424C100.256 13.8347 100.349 14.2853 100.349 14.776C100.349 15.432 100.165 16.016 99.7971 16.528C99.4291 17.0347 98.9145 17.4347 98.2531 17.728C97.5971 18.016 96.8291 18.16 95.9491 18.16Z" fill="white"/>
<path d="M4.809 57.14C4.31433 57.14 3.83833 57.0793 3.381 56.958C2.92833 56.8367 2.51533 56.657 2.142 56.419C1.77333 56.1763 1.46767 55.8753 1.225 55.516C0.987 55.1567 0.837667 54.7367 0.777 54.256H2.338C2.41733 54.62 2.57367 54.9257 2.807 55.173C3.045 55.4203 3.34133 55.607 3.696 55.733C4.05533 55.859 4.452 55.922 4.886 55.922C5.28733 55.922 5.65833 55.859 5.999 55.733C6.33967 55.607 6.615 55.425 6.825 55.187C7.035 54.949 7.14 54.6573 7.14 54.312C7.14 53.9247 7.00933 53.619 6.748 53.395C6.49133 53.1663 6.104 52.9843 5.586 52.849L3.556 52.345C3.066 52.2283 2.63433 52.0627 2.261 51.848C1.88767 51.6287 1.59833 51.3417 1.393 50.987C1.18767 50.6277 1.085 50.1843 1.085 49.657C1.085 49.069 1.246 48.558 1.568 48.124C1.89467 47.6853 2.33567 47.347 2.891 47.109C3.451 46.871 4.08333 46.752 4.788 46.752C5.59533 46.752 6.27433 46.8897 6.825 47.165C7.38033 47.4403 7.80033 47.8043 8.085 48.257C8.37433 48.705 8.52133 49.1927 8.526 49.72H7C6.958 49.2907 6.82967 48.95 6.615 48.698C6.405 48.4413 6.13667 48.257 5.81 48.145C5.488 48.033 5.131 47.977 4.739 47.977C4.04833 47.977 3.528 48.131 3.178 48.439C2.83267 48.7423 2.66 49.104 2.66 49.524C2.66 49.9113 2.786 50.217 3.038 50.441C3.29467 50.665 3.67267 50.8377 4.172 50.959L6.132 51.442C6.748 51.5773 7.24033 51.7803 7.609 52.051C7.98233 52.317 8.25067 52.632 8.414 52.996C8.57733 53.3553 8.659 53.7497 8.659 54.179C8.659 54.753 8.498 55.264 8.176 55.712C7.854 56.1553 7.40367 56.5053 6.825 56.762C6.251 57.014 5.579 57.14 4.809 57.14ZM10.4759 57V46.598H11.9529V50.819C12.0696 50.6277 12.2259 50.4457 12.4219 50.273C12.6226 50.1003 12.8653 49.9603 13.1499 49.853C13.4393 49.741 13.7753 49.685 14.1579 49.685C14.6293 49.685 15.0539 49.7737 15.4319 49.951C15.8146 50.1237 16.1179 50.3757 16.3419 50.707C16.5706 51.0337 16.6849 51.4233 16.6849 51.876V57H15.1869V52.149C15.1869 51.743 15.0469 51.4303 14.7669 51.211C14.4869 50.9917 14.1276 50.882 13.6889 50.882C13.3949 50.882 13.1149 50.9333 12.8489 51.036C12.5876 51.134 12.3753 51.2833 12.2119 51.484C12.0533 51.68 11.9739 51.9273 11.9739 52.226V57H10.4759ZM21.5787 57.14C20.902 57.14 20.3117 56.9953 19.8077 56.706C19.3037 56.412 18.9117 55.9873 18.6317 55.432C18.3517 54.8767 18.2117 54.2047 18.2117 53.416C18.2117 52.6553 18.3447 51.9903 18.6107 51.421C18.8767 50.8517 19.2594 50.4107 19.7587 50.098C20.2627 49.7807 20.8717 49.622 21.5857 49.622C22.267 49.622 22.8574 49.7713 23.3567 50.07C23.856 50.364 24.2434 50.7957 24.5187 51.365C24.794 51.9297 24.9317 52.6133 24.9317 53.416C24.9317 54.1487 24.8034 54.795 24.5467 55.355C24.29 55.915 23.912 56.3537 23.4127 56.671C22.918 56.9837 22.3067 57.14 21.5787 57.14ZM21.5857 55.985C22.001 55.985 22.3464 55.8777 22.6217 55.663C22.897 55.4437 23.1047 55.138 23.2447 54.746C23.3847 54.3493 23.4547 53.892 23.4547 53.374C23.4547 52.8933 23.3917 52.457 23.2657 52.065C23.1444 51.6683 22.946 51.3533 22.6707 51.12C22.4 50.8867 22.0384 50.77 21.5857 50.77C21.1704 50.77 20.8204 50.8773 20.5357 51.092C20.2557 51.302 20.0457 51.603 19.9057 51.995C19.7657 52.3823 19.6957 52.842 19.6957 53.374C19.6957 53.8453 19.7587 54.2793 19.8847 54.676C20.0107 55.0727 20.2114 55.39 20.4867 55.628C20.7667 55.866 21.133 55.985 21.5857 55.985ZM26.5677 59.254V49.762H28.0657L28.0797 50.966C28.1684 50.8073 28.2827 50.651 28.4227 50.497C28.5627 50.3383 28.7284 50.1937 28.9197 50.063C29.1157 49.9277 29.3374 49.8203 29.5847 49.741C29.8367 49.6617 30.1144 49.622 30.4177 49.622C30.9871 49.622 31.4887 49.755 31.9227 50.021C32.3614 50.2823 32.7021 50.686 32.9447 51.232C33.1921 51.7733 33.3157 52.4617 33.3157 53.297C33.3157 54.137 33.1921 54.8417 32.9447 55.411C32.7021 55.9803 32.3544 56.412 31.9017 56.706C31.4491 56.9953 30.9124 57.14 30.2917 57.14C29.9931 57.14 29.7247 57.098 29.4867 57.014C29.2487 56.93 29.0387 56.8203 28.8567 56.685C28.6747 56.545 28.5184 56.3957 28.3877 56.237C28.2617 56.0737 28.1567 55.9127 28.0727 55.754V59.254H26.5677ZM29.9767 55.999C30.5321 55.999 30.9871 55.7843 31.3417 55.355C31.7011 54.921 31.8807 54.2443 31.8807 53.325C31.8807 52.5363 31.7151 51.9133 31.3837 51.456C31.0571 50.994 30.5881 50.763 29.9767 50.763C29.3467 50.763 28.8707 51.0033 28.5487 51.484C28.2267 51.96 28.0657 52.5737 28.0657 53.325C28.0657 53.815 28.1357 54.263 28.2757 54.669C28.4204 55.0703 28.6351 55.3923 28.9197 55.635C29.2044 55.8777 29.5567 55.999 29.9767 55.999ZM38.4685 57V46.878H41.9755C42.6988 46.878 43.3452 47.0017 43.9145 47.249C44.4885 47.4963 44.9388 47.8603 45.2655 48.341C45.5968 48.8217 45.7625 49.412 45.7625 50.112C45.7625 50.784 45.6108 51.358 45.3075 51.834C45.0088 52.3053 44.5888 52.667 44.0475 52.919C43.5108 53.1663 42.8878 53.29 42.1785 53.29H39.9945V57H38.4685ZM39.9875 52.065H42.1365C42.7805 52.065 43.3055 51.8807 43.7115 51.512C44.1175 51.1387 44.3205 50.644 44.3205 50.028C44.3205 49.4027 44.1105 48.9243 43.6905 48.593C43.2705 48.257 42.7338 48.089 42.0805 48.089H39.9875V52.065ZM47.1713 57V49.762H48.6063V51.246C48.7276 50.8913 48.8956 50.595 49.1103 50.357C49.3296 50.1143 49.5839 49.9323 49.8733 49.811C50.1626 49.685 50.4683 49.622 50.7903 49.622C50.8883 49.622 50.9816 49.629 51.0703 49.643C51.1589 49.6523 51.2289 49.671 51.2803 49.699V51.141C51.2196 51.113 51.1403 51.0943 51.0423 51.085C50.9489 51.0757 50.8673 51.0687 50.7973 51.064C50.4799 51.0407 50.1906 51.057 49.9293 51.113C49.6679 51.169 49.4416 51.2623 49.2503 51.393C49.0636 51.5237 48.9189 51.694 48.8163 51.904C48.7183 52.114 48.6693 52.3613 48.6693 52.646V57H47.1713ZM55.608 57.14C54.9313 57.14 54.341 56.9953 53.837 56.706C53.333 56.412 52.941 55.9873 52.661 55.432C52.381 54.8767 52.241 54.2047 52.241 53.416C52.241 52.6553 52.374 51.9903 52.64 51.421C52.906 50.8517 53.2887 50.4107 53.788 50.098C54.292 49.7807 54.901 49.622 55.615 49.622C56.2963 49.622 56.8867 49.7713 57.386 50.07C57.8853 50.364 58.2727 50.7957 58.548 51.365C58.8233 51.9297 58.961 52.6133 58.961 53.416C58.961 54.1487 58.8327 54.795 58.576 55.355C58.3193 55.915 57.9413 56.3537 57.442 56.671C56.9473 56.9837 56.336 57.14 55.608 57.14ZM55.615 55.985C56.0303 55.985 56.3757 55.8777 56.651 55.663C56.9263 55.4437 57.134 55.138 57.274 54.746C57.414 54.3493 57.484 53.892 57.484 53.374C57.484 52.8933 57.421 52.457 57.295 52.065C57.1737 51.6683 56.9753 51.3533 56.7 51.12C56.4293 50.8867 56.0677 50.77 55.615 50.77C55.1997 50.77 54.8497 50.8773 54.565 51.092C54.285 51.302 54.075 51.603 53.935 51.995C53.795 52.3823 53.725 52.842 53.725 53.374C53.725 53.8453 53.788 54.2793 53.914 54.676C54.04 55.0727 54.2407 55.39 54.516 55.628C54.796 55.866 55.1623 55.985 55.615 55.985ZM63.264 57.14C62.3167 57.14 61.5677 56.8157 61.017 56.167C60.471 55.5137 60.198 54.5733 60.198 53.346C60.198 52.5947 60.3077 51.9413 60.527 51.386C60.751 50.826 61.08 50.392 61.514 50.084C61.948 49.776 62.4894 49.622 63.138 49.622C63.46 49.622 63.7494 49.6617 64.006 49.741C64.2627 49.8203 64.4867 49.923 64.678 50.049C64.8694 50.175 65.0304 50.3103 65.161 50.455C65.2917 50.5997 65.3897 50.735 65.455 50.861V46.598H66.967V57H65.84L65.672 55.516C65.6207 55.6747 65.5414 55.8473 65.434 56.034C65.3314 56.2207 65.1867 56.398 65 56.566C64.818 56.734 64.5847 56.8717 64.3 56.979C64.0154 57.0863 63.67 57.14 63.264 57.14ZM63.551 56.013C64.223 56.013 64.7084 55.803 65.007 55.383C65.3057 54.9583 65.455 54.263 65.455 53.297C65.4504 52.751 65.3827 52.289 65.252 51.911C65.126 51.533 64.9254 51.2483 64.65 51.057C64.3794 50.861 64.0224 50.763 63.579 50.763C63.0237 50.763 62.5687 50.9637 62.214 51.365C61.864 51.7617 61.689 52.4057 61.689 53.297C61.689 54.1743 61.8477 54.8463 62.165 55.313C62.487 55.7797 62.949 56.013 63.551 56.013ZM71.6516 57.14C71.2876 57.1353 70.9399 57.0817 70.6086 56.979C70.2772 56.8763 69.9809 56.7223 69.7196 56.517C69.4629 56.3117 69.2576 56.0573 69.1036 55.754C68.9542 55.4507 68.8796 55.0983 68.8796 54.697V49.762H70.3846V54.536C70.3846 54.97 70.5199 55.3223 70.7906 55.593C71.0612 55.8637 71.4696 55.999 72.0156 55.999C72.5102 55.999 72.9069 55.8707 73.2056 55.614C73.5042 55.3527 73.6536 54.9723 73.6536 54.473V49.762H75.1446V57H73.9826L73.8146 55.6C73.7306 55.978 73.5789 56.2813 73.3596 56.51C73.1449 56.734 72.8882 56.8973 72.5896 57C72.2956 57.098 71.9829 57.1447 71.6516 57.14ZM80.156 57.14C79.5027 57.14 78.9217 56.9977 78.413 56.713C77.9043 56.4237 77.5053 56.0013 77.216 55.446C76.9267 54.886 76.782 54.207 76.782 53.409C76.782 52.6577 76.915 51.9973 77.181 51.428C77.4517 50.8587 77.839 50.4153 78.343 50.098C78.847 49.7807 79.4513 49.622 80.156 49.622C80.702 49.622 81.185 49.7293 81.605 49.944C82.025 50.154 82.3657 50.448 82.627 50.826C82.893 51.204 83.054 51.645 83.11 52.149H81.808C81.7707 51.911 81.682 51.6893 81.542 51.484C81.402 51.2787 81.2177 51.1153 80.989 50.994C80.7603 50.868 80.4873 50.805 80.17 50.805C79.5867 50.805 79.113 51.0173 78.749 51.442C78.385 51.8667 78.203 52.5177 78.203 53.395C78.203 54.1977 78.3733 54.837 78.714 55.313C79.0547 55.789 79.547 56.027 80.191 56.027C80.5083 56.027 80.7813 55.9617 81.01 55.831C81.2387 55.7003 81.4207 55.5323 81.556 55.327C81.696 55.1217 81.7847 54.9093 81.822 54.69H83.096C83.04 55.1753 82.879 55.6023 82.613 55.971C82.3517 56.3397 82.011 56.6267 81.591 56.832C81.171 57.0373 80.6927 57.14 80.156 57.14ZM87.2881 57.049C86.7515 57.049 86.3361 56.9767 86.0421 56.832C85.7481 56.6873 85.5428 56.4797 85.4261 56.209C85.3095 55.9337 85.2511 55.6023 85.2511 55.215V50.84H84.0751V49.762H85.3001L85.6641 47.634H86.7561V49.755H88.3801V50.84H86.7561L86.7631 55.159C86.7631 55.397 86.7865 55.572 86.8331 55.684C86.8845 55.7913 86.9685 55.8613 87.0851 55.894C87.2065 55.922 87.3698 55.936 87.5751 55.936H88.4151V56.909C88.3265 56.9463 88.1888 56.979 88.0021 57.007C87.8201 57.035 87.5821 57.049 87.2881 57.049Z" fill="#929FA5"/>
<path d="M4.809 89.14C4.31433 89.14 3.83833 89.0793 3.381 88.958C2.92833 88.8367 2.51533 88.657 2.142 88.419C1.77333 88.1763 1.46767 87.8753 1.225 87.516C0.987 87.1567 0.837667 86.7367 0.777 86.256H2.338C2.41733 86.62 2.57367 86.9257 2.807 87.173C3.045 87.4203 3.34133 87.607 3.696 87.733C4.05533 87.859 4.452 87.922 4.886 87.922C5.28733 87.922 5.65833 87.859 5.999 87.733C6.33967 87.607 6.615 87.425 6.825 87.187C7.035 86.949 7.14 86.6573 7.14 86.312C7.14 85.9247 7.00933 85.619 6.748 85.395C6.49133 85.1663 6.104 84.9843 5.586 84.849L3.556 84.345C3.066 84.2283 2.63433 84.0627 2.261 83.848C1.88767 83.6287 1.59833 83.3417 1.393 82.987C1.18767 82.6277 1.085 82.1843 1.085 81.657C1.085 81.069 1.246 80.558 1.568 80.124C1.89467 79.6853 2.33567 79.347 2.891 79.109C3.451 78.871 4.08333 78.752 4.788 78.752C5.59533 78.752 6.27433 78.8897 6.825 79.165C7.38033 79.4403 7.80033 79.8043 8.085 80.257C8.37433 80.705 8.52133 81.1927 8.526 81.72H7C6.958 81.2907 6.82967 80.95 6.615 80.698C6.405 80.4413 6.13667 80.257 5.81 80.145C5.488 80.033 5.131 79.977 4.739 79.977C4.04833 79.977 3.528 80.131 3.178 80.439C2.83267 80.7423 2.66 81.104 2.66 81.524C2.66 81.9113 2.786 82.217 3.038 82.441C3.29467 82.665 3.67267 82.8377 4.172 82.959L6.132 83.442C6.748 83.5773 7.24033 83.7803 7.609 84.051C7.98233 84.317 8.25067 84.632 8.414 84.996C8.57733 85.3553 8.659 85.7497 8.659 86.179C8.659 86.753 8.498 87.264 8.176 87.712C7.854 88.1553 7.40367 88.5053 6.825 88.762C6.251 89.014 5.579 89.14 4.809 89.14ZM10.4759 89V78.598H11.9529V82.819C12.0696 82.6277 12.2259 82.4457 12.4219 82.273C12.6226 82.1003 12.8653 81.9603 13.1499 81.853C13.4393 81.741 13.7753 81.685 14.1579 81.685C14.6293 81.685 15.0539 81.7737 15.4319 81.951C15.8146 82.1237 16.1179 82.3757 16.3419 82.707C16.5706 83.0337 16.6849 83.4233 16.6849 83.876V89H15.1869V84.149C15.1869 83.743 15.0469 83.4303 14.7669 83.211C14.4869 82.9917 14.1276 82.882 13.6889 82.882C13.3949 82.882 13.1149 82.9333 12.8489 83.036C12.5876 83.134 12.3753 83.2833 12.2119 83.484C12.0533 83.68 11.9739 83.9273 11.9739 84.226V89H10.4759ZM21.5787 89.14C20.902 89.14 20.3117 88.9953 19.8077 88.706C19.3037 88.412 18.9117 87.9873 18.6317 87.432C18.3517 86.8767 18.2117 86.2047 18.2117 85.416C18.2117 84.6553 18.3447 83.9903 18.6107 83.421C18.8767 82.8517 19.2594 82.4107 19.7587 82.098C20.2627 81.7807 20.8717 81.622 21.5857 81.622C22.267 81.622 22.8574 81.7713 23.3567 82.07C23.856 82.364 24.2434 82.7957 24.5187 83.365C24.794 83.9297 24.9317 84.6133 24.9317 85.416C24.9317 86.1487 24.8034 86.795 24.5467 87.355C24.29 87.915 23.912 88.3537 23.4127 88.671C22.918 88.9837 22.3067 89.14 21.5787 89.14ZM21.5857 87.985C22.001 87.985 22.3464 87.8777 22.6217 87.663C22.897 87.4437 23.1047 87.138 23.2447 86.746C23.3847 86.3493 23.4547 85.892 23.4547 85.374C23.4547 84.8933 23.3917 84.457 23.2657 84.065C23.1444 83.6683 22.946 83.3533 22.6707 83.12C22.4 82.8867 22.0384 82.77 21.5857 82.77C21.1704 82.77 20.8204 82.8773 20.5357 83.092C20.2557 83.302 20.0457 83.603 19.9057 83.995C19.7657 84.3823 19.6957 84.842 19.6957 85.374C19.6957 85.8453 19.7587 86.2793 19.8847 86.676C20.0107 87.0727 20.2114 87.39 20.4867 87.628C20.7667 87.866 21.133 87.985 21.5857 87.985ZM26.5677 91.254V81.762H28.0657L28.0797 82.966C28.1684 82.8073 28.2827 82.651 28.4227 82.497C28.5627 82.3383 28.7284 82.1937 28.9197 82.063C29.1157 81.9277 29.3374 81.8203 29.5847 81.741C29.8367 81.6617 30.1144 81.622 30.4177 81.622C30.9871 81.622 31.4887 81.755 31.9227 82.021C32.3614 82.2823 32.7021 82.686 32.9447 83.232C33.1921 83.7733 33.3157 84.4617 33.3157 85.297C33.3157 86.137 33.1921 86.8417 32.9447 87.411C32.7021 87.9803 32.3544 88.412 31.9017 88.706C31.4491 88.9953 30.9124 89.14 30.2917 89.14C29.9931 89.14 29.7247 89.098 29.4867 89.014C29.2487 88.93 29.0387 88.8203 28.8567 88.685C28.6747 88.545 28.5184 88.3957 28.3877 88.237C28.2617 88.0737 28.1567 87.9127 28.0727 87.754V91.254H26.5677ZM29.9767 87.999C30.5321 87.999 30.9871 87.7843 31.3417 87.355C31.7011 86.921 31.8807 86.2443 31.8807 85.325C31.8807 84.5363 31.7151 83.9133 31.3837 83.456C31.0571 82.994 30.5881 82.763 29.9767 82.763C29.3467 82.763 28.8707 83.0033 28.5487 83.484C28.2267 83.96 28.0657 84.5737 28.0657 85.325C28.0657 85.815 28.1357 86.263 28.2757 86.669C28.4204 87.0703 28.6351 87.3923 28.9197 87.635C29.2044 87.8777 29.5567 87.999 29.9767 87.999ZM34.9836 89V81.762H36.4256V89H34.9836ZM34.9486 80.362V78.885H36.4536V80.362H34.9486ZM38.5716 89V81.762H40.0346V82.805C40.1513 82.609 40.3076 82.4247 40.5036 82.252C40.7043 82.0793 40.9493 81.9393 41.2386 81.832C41.5326 81.7247 41.871 81.671 42.2536 81.671C42.7063 81.671 43.124 81.762 43.5066 81.944C43.894 82.1213 44.2043 82.4013 44.4376 82.784C44.671 83.162 44.7876 83.652 44.7876 84.254V89H43.2896V84.415C43.2896 83.897 43.1496 83.512 42.8696 83.26C42.5943 83.008 42.2373 82.882 41.7986 82.882C41.5046 82.882 41.2246 82.931 40.9586 83.029C40.6926 83.127 40.478 83.2763 40.3146 83.477C40.1513 83.673 40.0696 83.9203 40.0696 84.219V89H38.5716ZM49.8494 91.394C48.6734 91.394 47.7634 91.2283 47.1194 90.897C46.4754 90.5703 46.1534 90.113 46.1534 89.525C46.1534 89.2683 46.2141 89.0513 46.3354 88.874C46.4614 88.692 46.6084 88.5427 46.7764 88.426C46.9491 88.3093 47.1077 88.2183 47.2524 88.153C47.3971 88.083 47.4904 88.034 47.5324 88.006C47.4531 87.9593 47.3504 87.901 47.2244 87.831C47.1031 87.7563 46.9934 87.6583 46.8954 87.537C46.7974 87.411 46.7484 87.2477 46.7484 87.047C46.7484 86.8137 46.8581 86.599 47.0774 86.403C47.3014 86.2023 47.6374 86.0553 48.0854 85.962C47.6467 85.7473 47.3061 85.458 47.0634 85.094C46.8207 84.73 46.6994 84.3427 46.6994 83.932C46.6994 83.4607 46.8324 83.0547 47.0984 82.714C47.3644 82.3687 47.7377 82.105 48.2184 81.923C48.7037 81.741 49.2731 81.65 49.9264 81.65C50.4071 81.65 50.8061 81.7037 51.1234 81.811C51.4454 81.9183 51.7417 82.0677 52.0124 82.259C52.1011 82.2263 52.2271 82.1773 52.3904 82.112C52.5584 82.042 52.7404 81.9673 52.9364 81.888C53.1324 81.8087 53.3191 81.7317 53.4964 81.657C53.6784 81.5823 53.8254 81.5217 53.9374 81.475L53.9304 82.777L52.6704 83.008C52.7357 83.148 52.7871 83.302 52.8244 83.47C52.8664 83.638 52.8874 83.792 52.8874 83.932C52.8874 84.352 52.7731 84.7393 52.5444 85.094C52.3157 85.444 51.9727 85.724 51.5154 85.934C51.0581 86.144 50.4864 86.249 49.8004 86.249C49.7351 86.249 49.6511 86.249 49.5484 86.249C49.4457 86.2443 49.3594 86.2373 49.2894 86.228C48.8554 86.242 48.5567 86.2933 48.3934 86.382C48.2301 86.466 48.1484 86.5593 48.1484 86.662C48.1484 86.7927 48.2534 86.8813 48.4634 86.928C48.6734 86.9747 49.0187 87.0143 49.4994 87.047C49.6721 87.061 49.8914 87.075 50.1574 87.089C50.4281 87.103 50.7267 87.1217 51.0534 87.145C51.8467 87.1917 52.4511 87.39 52.8664 87.74C53.2864 88.09 53.4964 88.5543 53.4964 89.133C53.4964 89.7957 53.1954 90.337 52.5934 90.757C51.9914 91.1817 51.0767 91.394 49.8494 91.394ZM50.1084 90.477C50.7477 90.477 51.2307 90.3837 51.5574 90.197C51.8841 90.015 52.0474 89.742 52.0474 89.378C52.0474 89.1073 51.9424 88.8857 51.7324 88.713C51.5224 88.5403 51.2074 88.44 50.7874 88.412L48.8554 88.286C48.6641 88.2767 48.4727 88.3187 48.2814 88.412C48.0947 88.5053 47.9407 88.636 47.8194 88.804C47.6981 88.9673 47.6374 89.1493 47.6374 89.35C47.6374 89.714 47.8381 89.9917 48.2394 90.183C48.6407 90.379 49.2637 90.477 50.1084 90.477ZM49.8424 85.332C50.3277 85.332 50.7174 85.2153 51.0114 84.982C51.3101 84.744 51.4594 84.4033 51.4594 83.96C51.4594 83.5027 51.3101 83.1503 51.0114 82.903C50.7174 82.651 50.3277 82.525 49.8424 82.525C49.3524 82.525 48.9557 82.651 48.6524 82.903C48.3537 83.155 48.2044 83.5073 48.2044 83.96C48.2044 84.3893 48.3467 84.7253 48.6314 84.968C48.9207 85.2107 49.3244 85.332 49.8424 85.332ZM62.8737 89.14C61.959 89.14 61.175 88.93 60.5217 88.51C59.8683 88.0853 59.3667 87.4833 59.0167 86.704C58.6713 85.92 58.4987 84.982 58.4987 83.89C58.4987 82.8027 58.6713 81.8763 59.0167 81.111C59.362 80.341 59.8613 79.753 60.5147 79.347C61.168 78.941 61.9543 78.738 62.8737 78.738C63.6017 78.738 64.248 78.8873 64.8127 79.186C65.3773 79.4847 65.83 79.886 66.1707 80.39C66.516 80.894 66.7213 81.4517 66.7867 82.063H65.1907C65.1207 81.6803 64.9853 81.335 64.7847 81.027C64.5887 80.7143 64.3273 80.4693 64.0007 80.292C63.674 80.11 63.2867 80.019 62.8387 80.019C62.2647 80.019 61.777 80.1543 61.3757 80.425C60.9743 80.6957 60.6687 81.118 60.4587 81.692C60.2533 82.266 60.1507 83.0057 60.1507 83.911C60.1507 85.2783 60.3817 86.2793 60.8437 86.914C61.3057 87.544 61.9707 87.859 62.8387 87.859C63.2867 87.859 63.674 87.7633 64.0007 87.572C64.3273 87.376 64.5887 87.117 64.7847 86.795C64.9853 86.4683 65.1207 86.1137 65.1907 85.731H66.7867C66.7307 86.1743 66.614 86.6013 66.4367 87.012C66.2593 87.418 66.012 87.782 65.6947 88.104C65.382 88.426 64.9923 88.6803 64.5257 88.867C64.059 89.049 63.5083 89.14 62.8737 89.14ZM70.4687 89.14C70.002 89.14 69.5867 89.056 69.2227 88.888C68.8633 88.72 68.581 88.4773 68.3757 88.16C68.1703 87.8427 68.0677 87.46 68.0677 87.012C68.0677 86.2093 68.35 85.6097 68.9147 85.213C69.484 84.8163 70.394 84.6063 71.6447 84.583L72.8347 84.548V84.023C72.8347 83.6077 72.711 83.281 72.4637 83.043C72.2163 82.805 71.8337 82.6883 71.3157 82.693C70.933 82.693 70.59 82.7817 70.2867 82.959C69.9833 83.1363 69.785 83.428 69.6917 83.834H68.3967C68.4247 83.3533 68.5623 82.9497 68.8097 82.623C69.0617 82.2917 69.407 82.042 69.8457 81.874C70.2843 81.706 70.7977 81.622 71.3857 81.622C72.0483 81.622 72.592 81.713 73.0167 81.895C73.4413 82.0723 73.7563 82.3337 73.9617 82.679C74.1717 83.0243 74.2767 83.4443 74.2767 83.939V89H73.0027L72.8907 87.67C72.62 88.2253 72.277 88.6103 71.8617 88.825C71.4463 89.035 70.982 89.14 70.4687 89.14ZM70.9377 88.097C71.1663 88.097 71.3927 88.0573 71.6167 87.978C71.8407 87.894 72.0437 87.782 72.2257 87.642C72.4077 87.4973 72.5523 87.3363 72.6597 87.159C72.7717 86.9817 72.83 86.7997 72.8347 86.613V85.416L71.8547 85.437C71.3553 85.4417 70.9307 85.493 70.5807 85.591C70.2353 85.689 69.9693 85.8407 69.7827 86.046C69.6007 86.2513 69.5097 86.5243 69.5097 86.865C69.5097 87.2523 69.6427 87.5557 69.9087 87.775C70.1793 87.9897 70.5223 88.097 70.9377 88.097ZM76.1966 89V81.762H77.6316V83.246C77.753 82.8913 77.921 82.595 78.1356 82.357C78.355 82.1143 78.6093 81.9323 78.8986 81.811C79.188 81.685 79.4936 81.622 79.8156 81.622C79.9136 81.622 80.007 81.629 80.0956 81.643C80.1843 81.6523 80.2543 81.671 80.3056 81.699V83.141C80.245 83.113 80.1656 83.0943 80.0676 83.085C79.9743 83.0757 79.8926 83.0687 79.8226 83.064C79.5053 83.0407 79.216 83.057 78.9546 83.113C78.6933 83.169 78.467 83.2623 78.2756 83.393C78.089 83.5237 77.9443 83.694 77.8416 83.904C77.7436 84.114 77.6946 84.3613 77.6946 84.646V89H76.1966ZM84.3487 89.049C83.812 89.049 83.3967 88.9767 83.1027 88.832C82.8087 88.6873 82.6034 88.4797 82.4867 88.209C82.37 87.9337 82.3117 87.6023 82.3117 87.215V82.84H81.1357V81.762H82.3607L82.7247 79.634H83.8167V81.755H85.4407V82.84H83.8167L83.8237 87.159C83.8237 87.397 83.847 87.572 83.8937 87.684C83.945 87.7913 84.029 87.8613 84.1457 87.894C84.267 87.922 84.4304 87.936 84.6357 87.936H85.4757V88.909C85.387 88.9463 85.2494 88.979 85.0627 89.007C84.8807 89.035 84.6427 89.049 84.3487 89.049Z" fill="#929FA5"/>
<path d="M3.241 121L0.308 110.878H1.806L3.948 118.564L6.118 110.878H7.266L9.436 118.564L11.606 110.878H13.097L10.136 121H8.82L6.685 113.489L4.522 121H3.241ZM14.4484 121V113.762H15.8904V121H14.4484ZM14.4134 112.362V110.885H15.9184V112.362H14.4134ZM20.6495 121.14C20.1455 121.14 19.6718 121.061 19.2285 120.902C18.7898 120.743 18.4211 120.494 18.1225 120.153C17.8285 119.812 17.6441 119.376 17.5695 118.844H18.9065C18.9671 119.119 19.0815 119.348 19.2495 119.53C19.4221 119.707 19.6275 119.84 19.8655 119.929C20.1081 120.013 20.3671 120.055 20.6425 120.055C21.0998 120.055 21.4708 119.973 21.7555 119.81C22.0401 119.642 22.1825 119.385 22.1825 119.04C22.1825 118.793 22.1055 118.594 21.9515 118.445C21.7975 118.296 21.5571 118.186 21.2305 118.116L19.7885 117.773C19.1911 117.633 18.7128 117.411 18.3535 117.108C17.9941 116.8 17.8121 116.371 17.8075 115.82C17.8075 115.395 17.9125 115.017 18.1225 114.686C18.3371 114.355 18.6545 114.096 19.0745 113.909C19.4991 113.718 20.0218 113.622 20.6425 113.622C21.4591 113.622 22.1148 113.804 22.6095 114.168C23.1088 114.532 23.3655 115.059 23.3795 115.75H22.0845C22.0378 115.419 21.8861 115.16 21.6295 114.973C21.3775 114.782 21.0438 114.686 20.6285 114.686C20.1991 114.686 19.8468 114.772 19.5715 114.945C19.2961 115.113 19.1585 115.372 19.1585 115.722C19.1585 115.96 19.2588 116.149 19.4595 116.289C19.6648 116.424 19.9658 116.536 20.3625 116.625L21.7345 116.968C22.0891 117.061 22.3808 117.185 22.6095 117.339C22.8381 117.488 23.0178 117.654 23.1485 117.836C23.2791 118.018 23.3701 118.207 23.4215 118.403C23.4775 118.599 23.5055 118.783 23.5055 118.956C23.5055 119.413 23.3888 119.805 23.1555 120.132C22.9268 120.454 22.6001 120.704 22.1755 120.881C21.7508 121.054 21.2421 121.14 20.6495 121.14ZM25.1185 121V110.598H26.5955V114.819C26.7122 114.628 26.8685 114.446 27.0645 114.273C27.2652 114.1 27.5078 113.96 27.7925 113.853C28.0818 113.741 28.4178 113.685 28.8005 113.685C29.2718 113.685 29.6965 113.774 30.0745 113.951C30.4572 114.124 30.7605 114.376 30.9845 114.707C31.2132 115.034 31.3275 115.423 31.3275 115.876V121H29.8295V116.149C29.8295 115.743 29.6895 115.43 29.4095 115.211C29.1295 114.992 28.7702 114.882 28.3315 114.882C28.0375 114.882 27.7575 114.933 27.4915 115.036C27.2302 115.134 27.0178 115.283 26.8545 115.484C26.6958 115.68 26.6165 115.927 26.6165 116.226V121H25.1185ZM35.2133 121.098C34.7839 121.098 34.4386 121.042 34.1773 120.93C33.9206 120.818 33.7246 120.669 33.5893 120.482C33.4539 120.291 33.3629 120.076 33.3163 119.838C33.2743 119.595 33.2533 119.346 33.2533 119.089V110.598H34.7303V118.935C34.7303 119.271 34.7956 119.528 34.9263 119.705C35.0616 119.882 35.2669 119.983 35.5423 120.006L35.9203 120.02V120.972C35.8036 121.009 35.6823 121.04 35.5563 121.063C35.4349 121.086 35.3206 121.098 35.2133 121.098ZM37.5539 121V113.762H38.9959V121H37.5539ZM37.5189 112.362V110.885H39.0239V112.362H37.5189ZM43.7549 121.14C43.2509 121.14 42.7773 121.061 42.3339 120.902C41.8953 120.743 41.5266 120.494 41.2279 120.153C40.9339 119.812 40.7496 119.376 40.6749 118.844H42.0119C42.0726 119.119 42.1869 119.348 42.3549 119.53C42.5276 119.707 42.7329 119.84 42.9709 119.929C43.2136 120.013 43.4726 120.055 43.7479 120.055C44.2053 120.055 44.5763 119.973 44.8609 119.81C45.1456 119.642 45.2879 119.385 45.2879 119.04C45.2879 118.793 45.2109 118.594 45.0569 118.445C44.9029 118.296 44.6626 118.186 44.3359 118.116L42.8939 117.773C42.2966 117.633 41.8183 117.411 41.4589 117.108C41.0996 116.8 40.9176 116.371 40.9129 115.82C40.9129 115.395 41.0179 115.017 41.2279 114.686C41.4426 114.355 41.7599 114.096 42.1799 113.909C42.6046 113.718 43.1273 113.622 43.7479 113.622C44.5646 113.622 45.2203 113.804 45.7149 114.168C46.2143 114.532 46.4709 115.059 46.4849 115.75H45.1899C45.1433 115.419 44.9916 115.16 44.7349 114.973C44.4829 114.782 44.1493 114.686 43.7339 114.686C43.3046 114.686 42.9523 114.772 42.6769 114.945C42.4016 115.113 42.2639 115.372 42.2639 115.722C42.2639 115.96 42.3643 116.149 42.5649 116.289C42.7703 116.424 43.0713 116.536 43.4679 116.625L44.8399 116.968C45.1946 117.061 45.4863 117.185 45.7149 117.339C45.9436 117.488 46.1233 117.654 46.2539 117.836C46.3846 118.018 46.4756 118.207 46.5269 118.403C46.5829 118.599 46.6109 118.783 46.6109 118.956C46.6109 119.413 46.4943 119.805 46.2609 120.132C46.0323 120.454 45.7056 120.704 45.2809 120.881C44.8563 121.054 44.3476 121.14 43.7549 121.14ZM50.8799 121.049C50.3433 121.049 49.9279 120.977 49.6339 120.832C49.3399 120.687 49.1346 120.48 49.0179 120.209C48.9013 119.934 48.8429 119.602 48.8429 119.215V114.84H47.6669V113.762H48.8919L49.2559 111.634H50.3479V113.755H51.9719V114.84H50.3479L50.3549 119.159C50.3549 119.397 50.3783 119.572 50.4249 119.684C50.4763 119.791 50.5603 119.861 50.6769 119.894C50.7983 119.922 50.9616 119.936 51.1669 119.936H52.0069V120.909C51.9183 120.946 51.7806 120.979 51.5939 121.007C51.4119 121.035 51.1739 121.049 50.8799 121.049Z" fill="#929FA5"/>
<path d="M5.11 153.14C4.19533 153.14 3.41133 152.93 2.758 152.51C2.10467 152.085 1.603 151.483 1.253 150.704C0.907667 149.92 0.735 148.982 0.735 147.89C0.735 146.803 0.907667 145.876 1.253 145.111C1.59833 144.341 2.09767 143.753 2.751 143.347C3.40433 142.941 4.19067 142.738 5.11 142.738C5.838 142.738 6.48433 142.887 7.049 143.186C7.61367 143.485 8.06633 143.886 8.407 144.39C8.75233 144.894 8.95767 145.452 9.023 146.063H7.427C7.357 145.68 7.22167 145.335 7.021 145.027C6.825 144.714 6.56367 144.469 6.237 144.292C5.91033 144.11 5.523 144.019 5.075 144.019C4.501 144.019 4.01333 144.154 3.612 144.425C3.21067 144.696 2.905 145.118 2.695 145.692C2.48967 146.266 2.387 147.006 2.387 147.911C2.387 149.278 2.618 150.279 3.08 150.914C3.542 151.544 4.207 151.859 5.075 151.859C5.523 151.859 5.91033 151.763 6.237 151.572C6.56367 151.376 6.825 151.117 7.021 150.795C7.22167 150.468 7.357 150.114 7.427 149.731H9.023C8.967 150.174 8.85033 150.601 8.673 151.012C8.49567 151.418 8.24833 151.782 7.931 152.104C7.61833 152.426 7.22867 152.68 6.762 152.867C6.29533 153.049 5.74467 153.14 5.11 153.14ZM13.7174 153.14C13.0407 153.14 12.4504 152.995 11.9464 152.706C11.4424 152.412 11.0504 151.987 10.7704 151.432C10.4904 150.877 10.3504 150.205 10.3504 149.416C10.3504 148.655 10.4834 147.99 10.7494 147.421C11.0154 146.852 11.398 146.411 11.8974 146.098C12.4014 145.781 13.0104 145.622 13.7244 145.622C14.4057 145.622 14.996 145.771 15.4954 146.07C15.9947 146.364 16.382 146.796 16.6574 147.365C16.9327 147.93 17.0704 148.613 17.0704 149.416C17.0704 150.149 16.942 150.795 16.6854 151.355C16.4287 151.915 16.0507 152.354 15.5514 152.671C15.0567 152.984 14.4454 153.14 13.7174 153.14ZM13.7244 151.985C14.1397 151.985 14.485 151.878 14.7604 151.663C15.0357 151.444 15.2434 151.138 15.3834 150.746C15.5234 150.349 15.5934 149.892 15.5934 149.374C15.5934 148.893 15.5304 148.457 15.4044 148.065C15.283 147.668 15.0847 147.353 14.8094 147.12C14.5387 146.887 14.177 146.77 13.7244 146.77C13.309 146.77 12.959 146.877 12.6744 147.092C12.3944 147.302 12.1844 147.603 12.0444 147.995C11.9044 148.382 11.8344 148.842 11.8344 149.374C11.8344 149.845 11.8974 150.279 12.0234 150.676C12.1494 151.073 12.35 151.39 12.6254 151.628C12.9054 151.866 13.2717 151.985 13.7244 151.985ZM18.7064 153V145.762H20.1624V146.805C20.3677 146.488 20.6477 146.212 21.0024 145.979C21.3571 145.741 21.8144 145.622 22.3744 145.622C22.6357 145.622 22.8994 145.666 23.1654 145.755C23.4361 145.844 23.6834 145.977 23.9074 146.154C24.1361 146.327 24.3157 146.541 24.4464 146.798C24.6751 146.453 24.9807 146.17 25.3634 145.951C25.7461 145.732 26.1754 145.622 26.6514 145.622C26.9081 145.622 27.1741 145.664 27.4494 145.748C27.7247 145.827 27.9791 145.965 28.2124 146.161C28.4504 146.352 28.6417 146.618 28.7864 146.959C28.9357 147.3 29.0104 147.731 29.0104 148.254V153H27.5054V148.415C27.5054 148.018 27.4377 147.708 27.3024 147.484C27.1717 147.26 26.9991 147.104 26.7844 147.015C26.5744 146.922 26.3504 146.875 26.1124 146.875C25.8977 146.875 25.6737 146.917 25.4404 147.001C25.2071 147.085 25.0087 147.225 24.8454 147.421C24.6821 147.617 24.6004 147.883 24.6004 148.219V153H23.1024V148.093C23.1024 147.827 23.0301 147.603 22.8854 147.421C22.7454 147.239 22.5681 147.104 22.3534 147.015C22.1434 146.922 21.9334 146.875 21.7234 146.875C21.4901 146.875 21.2567 146.922 21.0234 147.015C20.7901 147.108 20.5941 147.255 20.4354 147.456C20.2814 147.652 20.2044 147.906 20.2044 148.219V153H18.7064ZM30.9291 155.254V145.762H32.4271L32.4411 146.966C32.5297 146.807 32.6441 146.651 32.7841 146.497C32.9241 146.338 33.0897 146.194 33.2811 146.063C33.4771 145.928 33.6987 145.82 33.9461 145.741C34.1981 145.662 34.4757 145.622 34.7791 145.622C35.3484 145.622 35.8501 145.755 36.2841 146.021C36.7227 146.282 37.0634 146.686 37.3061 147.232C37.5534 147.773 37.6771 148.462 37.6771 149.297C37.6771 150.137 37.5534 150.842 37.3061 151.411C37.0634 151.98 36.7157 152.412 36.2631 152.706C35.8104 152.995 35.2737 153.14 34.6531 153.14C34.3544 153.14 34.0861 153.098 33.8481 153.014C33.6101 152.93 33.4001 152.82 33.2181 152.685C33.0361 152.545 32.8797 152.396 32.7491 152.237C32.6231 152.074 32.5181 151.913 32.4341 151.754V155.254H30.9291ZM34.3381 151.999C34.8934 151.999 35.3484 151.784 35.7031 151.355C36.0624 150.921 36.2421 150.244 36.2421 149.325C36.2421 148.536 36.0764 147.913 35.7451 147.456C35.4184 146.994 34.9494 146.763 34.3381 146.763C33.7081 146.763 33.2321 147.003 32.9101 147.484C32.5881 147.96 32.4271 148.574 32.4271 149.325C32.4271 149.815 32.4971 150.263 32.6371 150.669C32.7817 151.07 32.9964 151.392 33.2811 151.635C33.5657 151.878 33.9181 151.999 34.3381 151.999ZM41.2929 153.14C40.8262 153.14 40.4109 153.056 40.0469 152.888C39.6876 152.72 39.4052 152.477 39.1999 152.16C38.9946 151.843 38.8919 151.46 38.8919 151.012C38.8919 150.209 39.1742 149.61 39.7389 149.213C40.3082 148.816 41.2182 148.606 42.4689 148.583L43.6589 148.548V148.023C43.6589 147.608 43.5352 147.281 43.2879 147.043C43.0406 146.805 42.6579 146.688 42.1399 146.693C41.7572 146.693 41.4142 146.782 41.1109 146.959C40.8076 147.136 40.6092 147.428 40.5159 147.834H39.2209C39.2489 147.353 39.3866 146.95 39.6339 146.623C39.8859 146.292 40.2312 146.042 40.6699 145.874C41.1086 145.706 41.6219 145.622 42.2099 145.622C42.8726 145.622 43.4162 145.713 43.8409 145.895C44.2656 146.072 44.5806 146.334 44.7859 146.679C44.9959 147.024 45.1009 147.444 45.1009 147.939V153H43.8269L43.7149 151.67C43.4442 152.225 43.1012 152.61 42.6859 152.825C42.2706 153.035 41.8062 153.14 41.2929 153.14ZM41.7619 152.097C41.9906 152.097 42.2169 152.057 42.4409 151.978C42.6649 151.894 42.8679 151.782 43.0499 151.642C43.2319 151.497 43.3766 151.336 43.4839 151.159C43.5959 150.982 43.6542 150.8 43.6589 150.613V149.416L42.6789 149.437C42.1796 149.442 41.7549 149.493 41.4049 149.591C41.0596 149.689 40.7936 149.841 40.6069 150.046C40.4249 150.251 40.3339 150.524 40.3339 150.865C40.3339 151.252 40.4669 151.556 40.7329 151.775C41.0036 151.99 41.3466 152.097 41.7619 152.097ZM47.0209 153V145.762H48.4559V147.246C48.5772 146.891 48.7452 146.595 48.9599 146.357C49.1792 146.114 49.4335 145.932 49.7229 145.811C50.0122 145.685 50.3179 145.622 50.6399 145.622C50.7379 145.622 50.8312 145.629 50.9199 145.643C51.0085 145.652 51.0785 145.671 51.1299 145.699V147.141C51.0692 147.113 50.9899 147.094 50.8919 147.085C50.7985 147.076 50.7169 147.069 50.6469 147.064C50.3295 147.041 50.0402 147.057 49.7789 147.113C49.5175 147.169 49.2912 147.262 49.0999 147.393C48.9132 147.524 48.7685 147.694 48.6659 147.904C48.5679 148.114 48.5189 148.361 48.5189 148.646V153H47.0209ZM55.6256 153.14C54.9396 153.14 54.3353 152.993 53.8126 152.699C53.2899 152.4 52.8816 151.976 52.5876 151.425C52.2983 150.874 52.1536 150.219 52.1536 149.458C52.1536 148.707 52.2866 148.044 52.5526 147.47C52.8186 146.891 53.2036 146.439 53.7076 146.112C54.2116 145.785 54.8183 145.622 55.5276 145.622C56.2229 145.622 56.8109 145.771 57.2916 146.07C57.7723 146.369 58.1363 146.789 58.3836 147.33C58.6309 147.867 58.7546 148.501 58.7546 149.234V149.731H53.6586C53.6539 150.165 53.7239 150.555 53.8686 150.9C54.0133 151.241 54.2279 151.511 54.5126 151.712C54.8019 151.908 55.1613 152.006 55.5906 152.006C56.0246 152.006 56.3979 151.908 56.7106 151.712C57.0279 151.516 57.2356 151.224 57.3336 150.837H58.7196C58.6356 151.332 58.4373 151.752 58.1246 152.097C57.8119 152.442 57.4363 152.704 56.9976 152.881C56.5589 153.054 56.1016 153.14 55.6256 153.14ZM53.6586 148.758H57.3266C57.3266 148.38 57.2613 148.037 57.1306 147.729C56.9999 147.416 56.7993 147.171 56.5286 146.994C56.2626 146.812 55.9266 146.721 55.5206 146.721C55.1053 146.721 54.7599 146.821 54.4846 147.022C54.2093 147.223 54.0016 147.479 53.8616 147.792C53.7263 148.105 53.6586 148.427 53.6586 148.758Z" fill="#929FA5"/>
<path d="M3.514 185V176.243H0.308V174.878H8.085V176.243H5.026V185H3.514ZM9.01305 185V177.762H10.448V179.246C10.5694 178.891 10.7374 178.595 10.952 178.357C11.1714 178.114 11.4257 177.932 11.715 177.811C12.0044 177.685 12.31 177.622 12.632 177.622C12.73 177.622 12.8234 177.629 12.912 177.643C13.0007 177.652 13.0707 177.671 13.122 177.699V179.141C13.0614 179.113 12.982 179.094 12.884 179.085C12.7907 179.076 12.709 179.069 12.639 179.064C12.3217 179.041 12.0324 179.057 11.771 179.113C11.5097 179.169 11.2834 179.262 11.092 179.393C10.9054 179.524 10.7607 179.694 10.658 179.904C10.56 180.114 10.511 180.361 10.511 180.646V185H9.01305ZM16.3964 185.14C15.9297 185.14 15.5144 185.056 15.1504 184.888C14.7911 184.72 14.5087 184.477 14.3034 184.16C14.0981 183.843 13.9954 183.46 13.9954 183.012C13.9954 182.209 14.2777 181.61 14.8424 181.213C15.4117 180.816 16.3217 180.606 17.5724 180.583L18.7624 180.548V180.023C18.7624 179.608 18.6387 179.281 18.3914 179.043C18.1441 178.805 17.7614 178.688 17.2434 178.693C16.8607 178.693 16.5177 178.782 16.2144 178.959C15.9111 179.136 15.7127 179.428 15.6194 179.834H14.3244C14.3524 179.353 14.4901 178.95 14.7374 178.623C14.9894 178.292 15.3347 178.042 15.7734 177.874C16.2121 177.706 16.7254 177.622 17.3134 177.622C17.9761 177.622 18.5197 177.713 18.9444 177.895C19.3691 178.072 19.6841 178.334 19.8894 178.679C20.0994 179.024 20.2044 179.444 20.2044 179.939V185H18.9304L18.8184 183.67C18.5477 184.225 18.2047 184.61 17.7894 184.825C17.3741 185.035 16.9097 185.14 16.3964 185.14ZM16.8654 184.097C17.0941 184.097 17.3204 184.057 17.5444 183.978C17.7684 183.894 17.9714 183.782 18.1534 183.642C18.3354 183.497 18.4801 183.336 18.5874 183.159C18.6994 182.982 18.7577 182.8 18.7624 182.613V181.416L17.7824 181.437C17.2831 181.442 16.8584 181.493 16.5084 181.591C16.1631 181.689 15.8971 181.841 15.7104 182.046C15.5284 182.251 15.4374 182.524 15.4374 182.865C15.4374 183.252 15.5704 183.556 15.8364 183.775C16.1071 183.99 16.4501 184.097 16.8654 184.097ZM25.0994 185.14C24.446 185.14 23.865 184.998 23.3564 184.713C22.8477 184.424 22.4487 184.001 22.1594 183.446C21.87 182.886 21.7254 182.207 21.7254 181.409C21.7254 180.658 21.8584 179.997 22.1244 179.428C22.395 178.859 22.7824 178.415 23.2864 178.098C23.7904 177.781 24.3947 177.622 25.0994 177.622C25.6454 177.622 26.1284 177.729 26.5484 177.944C26.9684 178.154 27.309 178.448 27.5704 178.826C27.8364 179.204 27.9974 179.645 28.0534 180.149H26.7514C26.714 179.911 26.6254 179.689 26.4854 179.484C26.3454 179.279 26.161 179.115 25.9324 178.994C25.7037 178.868 25.4307 178.805 25.1134 178.805C24.53 178.805 24.0564 179.017 23.6924 179.442C23.3284 179.867 23.1464 180.518 23.1464 181.395C23.1464 182.198 23.3167 182.837 23.6574 183.313C23.998 183.789 24.4904 184.027 25.1344 184.027C25.4517 184.027 25.7247 183.962 25.9534 183.831C26.182 183.7 26.364 183.532 26.4994 183.327C26.6394 183.122 26.728 182.909 26.7654 182.69H28.0394C27.9834 183.175 27.8224 183.602 27.5564 183.971C27.295 184.34 26.9544 184.627 26.5344 184.832C26.1144 185.037 25.636 185.14 25.0994 185.14ZM29.6713 185V174.598H31.1693V181.213L34.3683 177.762H36.0482L33.4303 180.555L36.2023 185H34.6483L32.4713 181.507L31.1693 182.858V185H29.6713ZM45.1299 185.14C44.2105 185.14 43.4149 184.937 42.7429 184.531C42.0755 184.12 41.5599 183.53 41.1959 182.76C40.8365 181.985 40.6569 181.052 40.6569 179.96C40.6569 178.859 40.8389 177.921 41.2029 177.146C41.5715 176.367 42.0895 175.772 42.7569 175.361C43.4289 174.946 44.2199 174.738 45.1299 174.738C46.0352 174.738 46.8192 174.946 47.4819 175.361C48.1492 175.772 48.6625 176.367 49.0219 177.146C49.3859 177.921 49.5679 178.859 49.5679 179.96C49.5679 181.052 49.3882 181.983 49.0289 182.753C48.6695 183.523 48.1562 184.113 47.4889 184.524C46.8262 184.935 46.0399 185.14 45.1299 185.14ZM45.1299 183.859C45.7179 183.859 46.2195 183.724 46.6349 183.453C47.0549 183.182 47.3745 182.76 47.5939 182.186C47.8132 181.612 47.9229 180.877 47.9229 179.981C47.9229 179.062 47.8109 178.31 47.5869 177.727C47.3675 177.144 47.0479 176.714 46.6279 176.439C46.2125 176.159 45.7132 176.019 45.1299 176.019C44.5465 176.019 44.0425 176.159 43.6179 176.439C43.1979 176.719 42.8735 177.151 42.6449 177.734C42.4162 178.317 42.3019 179.066 42.3019 179.981C42.3019 180.882 42.4162 181.619 42.6449 182.193C42.8735 182.762 43.1979 183.182 43.6179 183.453C44.0425 183.724 44.5465 183.859 45.1299 183.859ZM51.1908 185V177.762H52.6258V179.246C52.7471 178.891 52.9151 178.595 53.1298 178.357C53.3491 178.114 53.6034 177.932 53.8928 177.811C54.1821 177.685 54.4878 177.622 54.8098 177.622C54.9078 177.622 55.0011 177.629 55.0898 177.643C55.1784 177.652 55.2484 177.671 55.2998 177.699V179.141C55.2391 179.113 55.1598 179.094 55.0618 179.085C54.9684 179.076 54.8868 179.069 54.8168 179.064C54.4994 179.041 54.2101 179.057 53.9488 179.113C53.6874 179.169 53.4611 179.262 53.2698 179.393C53.0831 179.524 52.9384 179.694 52.8358 179.904C52.7378 180.114 52.6888 180.361 52.6888 180.646V185H51.1908ZM59.3265 185.14C58.3792 185.14 57.6302 184.816 57.0795 184.167C56.5335 183.514 56.2605 182.573 56.2605 181.346C56.2605 180.595 56.3702 179.941 56.5895 179.386C56.8135 178.826 57.1425 178.392 57.5765 178.084C58.0105 177.776 58.5519 177.622 59.2005 177.622C59.5225 177.622 59.8119 177.662 60.0685 177.741C60.3252 177.82 60.5492 177.923 60.7405 178.049C60.9319 178.175 61.0929 178.31 61.2235 178.455C61.3542 178.6 61.4522 178.735 61.5175 178.861V174.598H63.0295V185H61.9025L61.7345 183.516C61.6832 183.675 61.6039 183.847 61.4965 184.034C61.3939 184.221 61.2492 184.398 61.0625 184.566C60.8805 184.734 60.6472 184.872 60.3625 184.979C60.0779 185.086 59.7325 185.14 59.3265 185.14ZM59.6135 184.013C60.2855 184.013 60.7709 183.803 61.0695 183.383C61.3682 182.958 61.5175 182.263 61.5175 181.297C61.5129 180.751 61.4452 180.289 61.3145 179.911C61.1885 179.533 60.9879 179.248 60.7125 179.057C60.4419 178.861 60.0849 178.763 59.6415 178.763C59.0862 178.763 58.6312 178.964 58.2765 179.365C57.9265 179.762 57.7515 180.406 57.7515 181.297C57.7515 182.174 57.9102 182.846 58.2275 183.313C58.5495 183.78 59.0115 184.013 59.6135 184.013ZM68.1901 185.14C67.5041 185.14 66.8997 184.993 66.3771 184.699C65.8544 184.4 65.4461 183.976 65.1521 183.425C64.8627 182.874 64.7181 182.219 64.7181 181.458C64.7181 180.707 64.8511 180.044 65.1171 179.47C65.3831 178.891 65.7681 178.439 66.2721 178.112C66.7761 177.785 67.3827 177.622 68.0921 177.622C68.7874 177.622 69.3754 177.771 69.8561 178.07C70.3367 178.369 70.7007 178.789 70.9481 179.33C71.1954 179.867 71.3191 180.501 71.3191 181.234V181.731H66.2231C66.2184 182.165 66.2884 182.555 66.4331 182.9C66.5777 183.241 66.7924 183.511 67.0771 183.712C67.3664 183.908 67.7257 184.006 68.1551 184.006C68.5891 184.006 68.9624 183.908 69.2751 183.712C69.5924 183.516 69.8001 183.224 69.8981 182.837H71.2841C71.2001 183.332 71.0017 183.752 70.6891 184.097C70.3764 184.442 70.0007 184.704 69.5621 184.881C69.1234 185.054 68.6661 185.14 68.1901 185.14ZM66.2231 180.758H69.8911C69.8911 180.38 69.8257 180.037 69.6951 179.729C69.5644 179.416 69.3637 179.171 69.0931 178.994C68.8271 178.812 68.4911 178.721 68.0851 178.721C67.6697 178.721 67.3244 178.821 67.0491 179.022C66.7737 179.223 66.5661 179.479 66.4261 179.792C66.2907 180.105 66.2231 180.427 66.2231 180.758ZM73.0248 185V177.762H74.4598V179.246C74.5811 178.891 74.7491 178.595 74.9638 178.357C75.1831 178.114 75.4374 177.932 75.7268 177.811C76.0161 177.685 76.3218 177.622 76.6438 177.622C76.7418 177.622 76.8351 177.629 76.9238 177.643C77.0124 177.652 77.0824 177.671 77.1338 177.699V179.141C77.0731 179.113 76.9938 179.094 76.8958 179.085C76.8024 179.076 76.7208 179.069 76.6508 179.064C76.3334 179.041 76.0441 179.057 75.7828 179.113C75.5214 179.169 75.2951 179.262 75.1038 179.393C74.9171 179.524 74.7724 179.694 74.6698 179.904C74.5718 180.114 74.5228 180.361 74.5228 180.646V185H73.0248Z" fill="#929FA5"/>
<path d="M5.11 217.14C4.19533 217.14 3.41133 216.93 2.758 216.51C2.10467 216.085 1.603 215.483 1.253 214.704C0.907667 213.92 0.735 212.982 0.735 211.89C0.735 210.803 0.907667 209.876 1.253 209.111C1.59833 208.341 2.09767 207.753 2.751 207.347C3.40433 206.941 4.19067 206.738 5.11 206.738C5.838 206.738 6.48433 206.887 7.049 207.186C7.61367 207.485 8.06633 207.886 8.407 208.39C8.75233 208.894 8.95767 209.452 9.023 210.063H7.427C7.357 209.68 7.22167 209.335 7.021 209.027C6.825 208.714 6.56367 208.469 6.237 208.292C5.91033 208.11 5.523 208.019 5.075 208.019C4.501 208.019 4.01333 208.154 3.612 208.425C3.21067 208.696 2.905 209.118 2.695 209.692C2.48967 210.266 2.387 211.006 2.387 211.911C2.387 213.278 2.618 214.279 3.08 214.914C3.542 215.544 4.207 215.859 5.075 215.859C5.523 215.859 5.91033 215.763 6.237 215.572C6.56367 215.376 6.825 215.117 7.021 214.795C7.22167 214.468 7.357 214.114 7.427 213.731H9.023C8.967 214.174 8.85033 214.601 8.673 215.012C8.49567 215.418 8.24833 215.782 7.931 216.104C7.61833 216.426 7.22867 216.68 6.762 216.867C6.29533 217.049 5.74467 217.14 5.11 217.14ZM13.423 217.14C13.059 217.135 12.7114 217.082 12.38 216.979C12.0487 216.876 11.7524 216.722 11.491 216.517C11.2344 216.312 11.029 216.057 10.875 215.754C10.7257 215.451 10.651 215.098 10.651 214.697V209.762H12.156V214.536C12.156 214.97 12.2914 215.322 12.562 215.593C12.8327 215.864 13.241 215.999 13.787 215.999C14.2817 215.999 14.6784 215.871 14.977 215.614C15.2757 215.353 15.425 214.972 15.425 214.473V209.762H16.916V217H15.754L15.586 215.6C15.502 215.978 15.3504 216.281 15.131 216.51C14.9164 216.734 14.6597 216.897 14.361 217C14.067 217.098 13.7544 217.145 13.423 217.14ZM21.6475 217.14C21.1435 217.14 20.6698 217.061 20.2265 216.902C19.7878 216.743 19.4192 216.494 19.1205 216.153C18.8265 215.812 18.6422 215.376 18.5675 214.844H19.9045C19.9652 215.119 20.0795 215.348 20.2475 215.53C20.4202 215.707 20.6255 215.84 20.8635 215.929C21.1062 216.013 21.3652 216.055 21.6405 216.055C22.0978 216.055 22.4688 215.973 22.7535 215.81C23.0382 215.642 23.1805 215.385 23.1805 215.04C23.1805 214.793 23.1035 214.594 22.9495 214.445C22.7955 214.296 22.5552 214.186 22.2285 214.116L20.7865 213.773C20.1892 213.633 19.7108 213.411 19.3515 213.108C18.9922 212.8 18.8102 212.371 18.8055 211.82C18.8055 211.395 18.9105 211.017 19.1205 210.686C19.3352 210.355 19.6525 210.096 20.0725 209.909C20.4972 209.718 21.0198 209.622 21.6405 209.622C22.4572 209.622 23.1128 209.804 23.6075 210.168C24.1068 210.532 24.3635 211.059 24.3775 211.75H23.0825C23.0358 211.419 22.8842 211.16 22.6275 210.973C22.3755 210.782 22.0418 210.686 21.6265 210.686C21.1972 210.686 20.8448 210.772 20.5695 210.945C20.2942 211.113 20.1565 211.372 20.1565 211.722C20.1565 211.96 20.2568 212.149 20.4575 212.289C20.6628 212.424 20.9638 212.536 21.3605 212.625L22.7325 212.968C23.0872 213.061 23.3788 213.185 23.6075 213.339C23.8362 213.488 24.0158 213.654 24.1465 213.836C24.2772 214.018 24.3682 214.207 24.4195 214.403C24.4755 214.599 24.5035 214.783 24.5035 214.956C24.5035 215.413 24.3868 215.805 24.1535 216.132C23.9248 216.454 23.5982 216.704 23.1735 216.881C22.7488 217.054 22.2402 217.14 21.6475 217.14ZM28.7725 217.049C28.2358 217.049 27.8205 216.977 27.5265 216.832C27.2325 216.687 27.0272 216.48 26.9105 216.209C26.7938 215.934 26.7355 215.602 26.7355 215.215V210.84H25.5595V209.762H26.7845L27.1485 207.634H28.2405V209.755H29.8645V210.84H28.2405L28.2475 215.159C28.2475 215.397 28.2708 215.572 28.3175 215.684C28.3688 215.791 28.4528 215.861 28.5695 215.894C28.6908 215.922 28.8542 215.936 29.0595 215.936H29.8995V216.909C29.8108 216.946 29.6732 216.979 29.4865 217.007C29.3045 217.035 29.0665 217.049 28.7725 217.049ZM34.3209 217.14C33.6442 217.14 33.0539 216.995 32.5499 216.706C32.0459 216.412 31.6539 215.987 31.3739 215.432C31.0939 214.877 30.9539 214.205 30.9539 213.416C30.9539 212.655 31.0869 211.99 31.3529 211.421C31.6189 210.852 32.0016 210.411 32.5009 210.098C33.0049 209.781 33.6139 209.622 34.3279 209.622C35.0092 209.622 35.5996 209.771 36.0989 210.07C36.5982 210.364 36.9856 210.796 37.2609 211.365C37.5362 211.93 37.6739 212.613 37.6739 213.416C37.6739 214.149 37.5456 214.795 37.2889 215.355C37.0322 215.915 36.6542 216.354 36.1549 216.671C35.6602 216.984 35.0489 217.14 34.3209 217.14ZM34.3279 215.985C34.7432 215.985 35.0886 215.878 35.3639 215.663C35.6392 215.444 35.8469 215.138 35.9869 214.746C36.1269 214.349 36.1969 213.892 36.1969 213.374C36.1969 212.893 36.1339 212.457 36.0079 212.065C35.8866 211.668 35.6882 211.353 35.4129 211.12C35.1422 210.887 34.7806 210.77 34.3279 210.77C33.9126 210.77 33.5626 210.877 33.2779 211.092C32.9979 211.302 32.7879 211.603 32.6479 211.995C32.5079 212.382 32.4379 212.842 32.4379 213.374C32.4379 213.845 32.5009 214.279 32.6269 214.676C32.7529 215.073 32.9536 215.39 33.2289 215.628C33.5089 215.866 33.8752 215.985 34.3279 215.985ZM39.3099 217V209.762H40.7659V210.805C40.9713 210.488 41.2513 210.212 41.6059 209.979C41.9606 209.741 42.4179 209.622 42.9779 209.622C43.2393 209.622 43.5029 209.666 43.7689 209.755C44.0396 209.844 44.2869 209.977 44.5109 210.154C44.7396 210.327 44.9193 210.541 45.0499 210.798C45.2786 210.453 45.5843 210.17 45.9669 209.951C46.3496 209.732 46.7789 209.622 47.2549 209.622C47.5116 209.622 47.7776 209.664 48.0529 209.748C48.3283 209.827 48.5826 209.965 48.8159 210.161C49.0539 210.352 49.2453 210.618 49.3899 210.959C49.5393 211.3 49.6139 211.731 49.6139 212.254V217H48.1089V212.415C48.1089 212.018 48.0413 211.708 47.9059 211.484C47.7753 211.26 47.6026 211.104 47.3879 211.015C47.1779 210.922 46.9539 210.875 46.7159 210.875C46.5013 210.875 46.2773 210.917 46.0439 211.001C45.8106 211.085 45.6123 211.225 45.4489 211.421C45.2856 211.617 45.2039 211.883 45.2039 212.219V217H43.7059V212.093C43.7059 211.827 43.6336 211.603 43.4889 211.421C43.3489 211.239 43.1716 211.104 42.9569 211.015C42.7469 210.922 42.5369 210.875 42.3269 210.875C42.0936 210.875 41.8603 210.922 41.6269 211.015C41.3936 211.108 41.1976 211.255 41.0389 211.456C40.8849 211.652 40.8079 211.906 40.8079 212.219V217H39.3099ZM54.6686 217.14C53.9826 217.14 53.3782 216.993 52.8556 216.699C52.3329 216.4 51.9246 215.976 51.6306 215.425C51.3412 214.874 51.1966 214.219 51.1966 213.458C51.1966 212.707 51.3296 212.044 51.5956 211.47C51.8616 210.891 52.2466 210.439 52.7506 210.112C53.2546 209.785 53.8612 209.622 54.5706 209.622C55.2659 209.622 55.8539 209.771 56.3346 210.07C56.8152 210.369 57.1792 210.789 57.4266 211.33C57.6739 211.867 57.7976 212.501 57.7976 213.234V213.731H52.7016C52.6969 214.165 52.7669 214.555 52.9116 214.9C53.0562 215.241 53.2709 215.511 53.5556 215.712C53.8449 215.908 54.2042 216.006 54.6336 216.006C55.0676 216.006 55.4409 215.908 55.7536 215.712C56.0709 215.516 56.2786 215.224 56.3766 214.837H57.7626C57.6786 215.332 57.4802 215.752 57.1676 216.097C56.8549 216.442 56.4792 216.704 56.0406 216.881C55.6019 217.054 55.1446 217.14 54.6686 217.14ZM52.7016 212.758H56.3696C56.3696 212.38 56.3042 212.037 56.1736 211.729C56.0429 211.416 55.8422 211.171 55.5716 210.994C55.3056 210.812 54.9696 210.721 54.5636 210.721C54.1482 210.721 53.8029 210.821 53.5276 211.022C53.2522 211.223 53.0446 211.479 52.9046 211.792C52.7692 212.105 52.7016 212.427 52.7016 212.758ZM59.5033 217V209.762H60.9383V211.246C61.0596 210.891 61.2276 210.595 61.4423 210.357C61.6616 210.114 61.9159 209.932 62.2053 209.811C62.4946 209.685 62.8003 209.622 63.1223 209.622C63.2203 209.622 63.3136 209.629 63.4023 209.643C63.4909 209.652 63.5609 209.671 63.6123 209.699V211.141C63.5516 211.113 63.4723 211.094 63.3743 211.085C63.2809 211.076 63.1993 211.069 63.1293 211.064C62.8119 211.041 62.5226 211.057 62.2613 211.113C61.9999 211.169 61.7736 211.262 61.5823 211.393C61.3956 211.524 61.2509 211.694 61.1483 211.904C61.0503 212.114 61.0013 212.361 61.0013 212.646V217H59.5033ZM68.656 217V206.878H70.154V211.12H75.334V206.878H76.832V217H75.334V212.422H70.154V217H68.656ZM82.1354 217.14C81.4494 217.14 80.845 216.993 80.3224 216.699C79.7997 216.4 79.3914 215.976 79.0974 215.425C78.808 214.874 78.6634 214.219 78.6634 213.458C78.6634 212.707 78.7964 212.044 79.0624 211.47C79.3284 210.891 79.7134 210.439 80.2174 210.112C80.7214 209.785 81.328 209.622 82.0374 209.622C82.7327 209.622 83.3207 209.771 83.8014 210.07C84.282 210.369 84.646 210.789 84.8934 211.33C85.1407 211.867 85.2644 212.501 85.2644 213.234V213.731H80.1684C80.1637 214.165 80.2337 214.555 80.3784 214.9C80.523 215.241 80.7377 215.511 81.0224 215.712C81.3117 215.908 81.671 216.006 82.1004 216.006C82.5344 216.006 82.9077 215.908 83.2204 215.712C83.5377 215.516 83.7454 215.224 83.8434 214.837H85.2294C85.1454 215.332 84.947 215.752 84.6344 216.097C84.3217 216.442 83.946 216.704 83.5074 216.881C83.0687 217.054 82.6114 217.14 82.1354 217.14ZM80.1684 212.758H83.8364C83.8364 212.38 83.771 212.037 83.6404 211.729C83.5097 211.416 83.309 211.171 83.0384 210.994C82.7724 210.812 82.4364 210.721 82.0304 210.721C81.615 210.721 81.2697 210.821 80.9944 211.022C80.719 211.223 80.5114 211.479 80.3714 211.792C80.236 212.105 80.1684 212.427 80.1684 212.758ZM88.9301 217.098C88.5007 217.098 88.1554 217.042 87.8941 216.93C87.6374 216.818 87.4414 216.669 87.3061 216.482C87.1707 216.291 87.0797 216.076 87.0331 215.838C86.9911 215.595 86.9701 215.346 86.9701 215.089V206.598H88.4471V214.935C88.4471 215.271 88.5124 215.528 88.6431 215.705C88.7784 215.882 88.9837 215.983 89.2591 216.006L89.6371 216.02V216.972C89.5204 217.009 89.3991 217.04 89.2731 217.063C89.1517 217.086 89.0374 217.098 88.9301 217.098ZM91.2357 219.254V209.762H92.7337L92.7477 210.966C92.8364 210.807 92.9507 210.651 93.0907 210.497C93.2307 210.338 93.3964 210.194 93.5877 210.063C93.7837 209.928 94.0054 209.82 94.2527 209.741C94.5047 209.662 94.7824 209.622 95.0857 209.622C95.655 209.622 96.1567 209.755 96.5907 210.021C97.0294 210.282 97.37 210.686 97.6127 211.232C97.86 211.773 97.9837 212.462 97.9837 213.297C97.9837 214.137 97.86 214.842 97.6127 215.411C97.37 215.98 97.0224 216.412 96.5697 216.706C96.117 216.995 95.5804 217.14 94.9597 217.14C94.661 217.14 94.3927 217.098 94.1547 217.014C93.9167 216.93 93.7067 216.82 93.5247 216.685C93.3427 216.545 93.1864 216.396 93.0557 216.237C92.9297 216.074 92.8247 215.913 92.7407 215.754V219.254H91.2357ZM94.6447 215.999C95.2 215.999 95.655 215.784 96.0097 215.355C96.369 214.921 96.5487 214.244 96.5487 213.325C96.5487 212.536 96.383 211.913 96.0517 211.456C95.725 210.994 95.256 210.763 94.6447 210.763C94.0147 210.763 93.5387 211.003 93.2167 211.484C92.8947 211.96 92.7337 212.574 92.7337 213.325C92.7337 213.815 92.8037 214.263 92.9437 214.669C93.0884 215.07 93.303 215.392 93.5877 215.635C93.8724 215.878 94.2247 215.999 94.6447 215.999Z" fill="#929FA5"/>
<path d="M0.525 249L4.179 238.878H5.831L9.478 249H7.966L7.014 246.347H3.003L2.044 249H0.525ZM3.374 244.989H6.622L4.998 240.334L3.374 244.989ZM14.7258 249.14C14.3198 249.14 13.9745 249.086 13.6898 248.979C13.4051 248.872 13.1695 248.734 12.9828 248.566C12.8008 248.398 12.6561 248.221 12.5488 248.034C12.4461 247.847 12.3668 247.675 12.3108 247.516L12.1498 249H11.0228V238.598H12.5348V242.861C12.6001 242.735 12.6958 242.6 12.8218 242.455C12.9525 242.31 13.1135 242.175 13.3048 242.049C13.5008 241.923 13.7271 241.82 13.9838 241.741C14.2405 241.662 14.5298 241.622 14.8518 241.622C15.7525 241.622 16.4665 241.939 16.9938 242.574C17.5258 243.209 17.7918 244.133 17.7918 245.346C17.7918 246.111 17.6775 246.779 17.4488 247.348C17.2201 247.913 16.8771 248.354 16.4198 248.671C15.9671 248.984 15.4025 249.14 14.7258 249.14ZM14.4318 248.013C14.9825 248.013 15.4305 247.798 15.7758 247.369C16.1258 246.94 16.3008 246.249 16.3008 245.297C16.3008 244.476 16.1375 243.848 15.8108 243.414C15.4888 242.98 15.0221 242.763 14.4108 242.763C13.9721 242.763 13.6151 242.861 13.3398 243.057C13.0645 243.248 12.8615 243.533 12.7308 243.911C12.6048 244.289 12.5395 244.751 12.5348 245.297C12.5348 246.263 12.6841 246.958 12.9828 247.383C13.2815 247.803 13.7645 248.013 14.4318 248.013ZM22.3853 249.14C21.7087 249.14 21.1183 248.995 20.6143 248.706C20.1103 248.412 19.7183 247.987 19.4383 247.432C19.1583 246.877 19.0183 246.205 19.0183 245.416C19.0183 244.655 19.1513 243.99 19.4173 243.421C19.6833 242.852 20.066 242.411 20.5653 242.098C21.0693 241.781 21.6783 241.622 22.3923 241.622C23.0737 241.622 23.664 241.771 24.1633 242.07C24.6627 242.364 25.05 242.796 25.3253 243.365C25.6007 243.93 25.7383 244.613 25.7383 245.416C25.7383 246.149 25.61 246.795 25.3533 247.355C25.0967 247.915 24.7187 248.354 24.2193 248.671C23.7247 248.984 23.1133 249.14 22.3853 249.14ZM22.3923 247.985C22.8077 247.985 23.153 247.878 23.4283 247.663C23.7037 247.444 23.9113 247.138 24.0513 246.746C24.1913 246.349 24.2613 245.892 24.2613 245.374C24.2613 244.893 24.1983 244.457 24.0723 244.065C23.951 243.668 23.7527 243.353 23.4773 243.12C23.2067 242.887 22.845 242.77 22.3923 242.77C21.977 242.77 21.627 242.877 21.3423 243.092C21.0623 243.302 20.8523 243.603 20.7123 243.995C20.5723 244.382 20.5023 244.842 20.5023 245.374C20.5023 245.845 20.5653 246.279 20.6913 246.676C20.8173 247.073 21.018 247.39 21.2933 247.628C21.5733 247.866 21.9397 247.985 22.3923 247.985ZM30.007 249.14C29.643 249.135 29.2954 249.082 28.964 248.979C28.6327 248.876 28.3364 248.722 28.075 248.517C27.8184 248.312 27.613 248.057 27.459 247.754C27.3097 247.451 27.235 247.098 27.235 246.697V241.762H28.74V246.536C28.74 246.97 28.8754 247.322 29.146 247.593C29.4167 247.864 29.825 247.999 30.371 247.999C30.8657 247.999 31.2624 247.871 31.561 247.614C31.8597 247.353 32.009 246.972 32.009 246.473V241.762H33.5V249H32.338L32.17 247.6C32.086 247.978 31.9344 248.281 31.715 248.51C31.5004 248.734 31.2437 248.897 30.945 249C30.651 249.098 30.3384 249.145 30.007 249.14ZM38.3155 249.049C37.7788 249.049 37.3635 248.977 37.0695 248.832C36.7755 248.687 36.5702 248.48 36.4535 248.209C36.3368 247.934 36.2785 247.602 36.2785 247.215V242.84H35.1025V241.762H36.3275L36.6915 239.634H37.7835V241.755H39.4075V242.84H37.7835L37.7905 247.159C37.7905 247.397 37.8138 247.572 37.8605 247.684C37.9118 247.791 37.9958 247.861 38.1125 247.894C38.2338 247.922 38.3972 247.936 38.6025 247.936H39.4425V248.909C39.3538 248.946 39.2162 248.979 39.0295 249.007C38.8475 249.035 38.6095 249.049 38.3155 249.049ZM48.4832 249.14C47.5779 249.14 46.8452 248.991 46.2852 248.692C45.7299 248.393 45.3239 247.957 45.0672 247.383C44.8152 246.809 44.6892 246.109 44.6892 245.283V238.878H46.2362V245.472C46.2362 246.275 46.4322 246.872 46.8242 247.264C47.2209 247.651 47.7739 247.845 48.4832 247.845C48.9545 247.845 49.3605 247.761 49.7012 247.593C50.0465 247.42 50.3102 247.159 50.4922 246.809C50.6742 246.454 50.7652 246.009 50.7652 245.472V238.878H52.2842V245.402C52.2842 246.191 52.1535 246.865 51.8922 247.425C51.6309 247.98 51.2202 248.405 50.6602 248.699C50.1049 248.993 49.3792 249.14 48.4832 249.14ZM57.0166 249.14C56.5126 249.14 56.039 249.061 55.5956 248.902C55.157 248.743 54.7883 248.494 54.4896 248.153C54.1956 247.812 54.0113 247.376 53.9366 246.844H55.2736C55.3343 247.119 55.4486 247.348 55.6166 247.53C55.7893 247.707 55.9946 247.84 56.2326 247.929C56.4753 248.013 56.7343 248.055 57.0096 248.055C57.467 248.055 57.838 247.973 58.1226 247.81C58.4073 247.642 58.5496 247.385 58.5496 247.04C58.5496 246.793 58.4726 246.594 58.3186 246.445C58.1646 246.296 57.9243 246.186 57.5976 246.116L56.1556 245.773C55.5583 245.633 55.08 245.411 54.7206 245.108C54.3613 244.8 54.1793 244.371 54.1746 243.82C54.1746 243.395 54.2796 243.017 54.4896 242.686C54.7043 242.355 55.0216 242.096 55.4416 241.909C55.8663 241.718 56.389 241.622 57.0096 241.622C57.8263 241.622 58.482 241.804 58.9766 242.168C59.476 242.532 59.7326 243.059 59.7466 243.75H58.4516C58.405 243.419 58.2533 243.16 57.9966 242.973C57.7446 242.782 57.411 242.686 56.9956 242.686C56.5663 242.686 56.214 242.772 55.9386 242.945C55.6633 243.113 55.5256 243.372 55.5256 243.722C55.5256 243.96 55.626 244.149 55.8266 244.289C56.032 244.424 56.333 244.536 56.7296 244.625L58.1016 244.968C58.4563 245.061 58.748 245.185 58.9766 245.339C59.2053 245.488 59.385 245.654 59.5156 245.836C59.6463 246.018 59.7373 246.207 59.7886 246.403C59.8446 246.599 59.8726 246.783 59.8726 246.956C59.8726 247.413 59.756 247.805 59.5226 248.132C59.294 248.454 58.9673 248.704 58.5426 248.881C58.118 249.054 57.6093 249.14 57.0166 249.14Z" fill="#929FA5"/>
</svg>
