<svg width="414" height="25" viewBox="0 0 414 25" fill="none" xmlns="http://www.w3.org/2000/svg">
<path d="M10.3071 24.32C9.15513 24.32 8.05113 24.1813 6.99513 23.904C5.93913 23.616 4.97379 23.1947 4.09913 22.64C3.23513 22.0747 2.52046 21.376 1.95513 20.544C1.38979 19.7013 1.04313 18.72 0.915125 17.6H4.94713C5.11779 18.3787 5.45379 19.0347 5.95513 19.568C6.46713 20.1013 7.11246 20.5067 7.89113 20.784C8.66979 21.0613 9.53913 21.2 10.4991 21.2C11.3525 21.2 12.1471 21.072 12.8831 20.816C13.6191 20.56 14.2165 20.1813 14.6751 19.68C15.1338 19.168 15.3631 18.5387 15.3631 17.792C15.3631 16.9493 15.0645 16.2933 14.4671 15.824C13.8805 15.344 13.0378 14.9653 11.9391 14.688L7.41113 13.616C6.23779 13.3493 5.21379 12.96 4.33913 12.448C3.47513 11.936 2.80313 11.264 2.32313 10.432C1.84313 9.58933 1.60313 8.56 1.60313 7.344C1.60313 5.95733 1.98179 4.75733 2.73913 3.744C3.50713 2.73067 4.54713 1.952 5.85913 1.408C7.17113 0.853332 8.64846 0.575998 10.2911 0.575998C12.1685 0.575998 13.7525 0.890665 15.0431 1.52C16.3338 2.13866 17.3151 2.97066 17.9871 4.016C18.6591 5.06133 19.0005 6.208 19.0111 7.456H15.0751C14.9898 6.528 14.7178 5.79733 14.2591 5.264C13.8005 4.72 13.2191 4.32533 12.5151 4.08C11.8111 3.83467 11.0325 3.712 10.1791 3.712C8.66446 3.712 7.53913 4.03733 6.80313 4.688C6.06713 5.33867 5.69913 6.10133 5.69913 6.976C5.69913 7.79733 5.97113 8.448 6.51513 8.928C7.05913 9.408 7.89113 9.78133 9.01113 10.048L13.3151 11.056C14.7551 11.3547 15.9125 11.8133 16.7871 12.432C17.6618 13.0507 18.2965 13.7867 18.6911 14.64C19.0965 15.4827 19.2991 16.416 19.2991 17.44C19.2991 18.784 18.9151 19.9733 18.1471 21.008C17.3898 22.0427 16.3391 22.8533 14.9951 23.44C13.6511 24.0267 12.0885 24.32 10.3071 24.32ZM29.3036 24.32C28.493 24.32 27.709 24.2027 26.9516 23.968C26.205 23.7227 25.533 23.3707 24.9356 22.912C24.3383 22.4427 23.8636 21.8667 23.5116 21.184C23.1596 20.5013 22.9836 19.7067 22.9836 18.8V7.456H26.8876V18.352C26.8876 19.248 27.1703 19.984 27.7356 20.56C28.3116 21.136 29.1756 21.424 30.3276 21.424C31.373 21.424 32.2103 21.152 32.8396 20.608C33.469 20.0533 33.7836 19.2587 33.7836 18.224V7.456H37.6556V24H34.6636L34.2316 20.768C34.029 21.6747 33.6716 22.3893 33.1596 22.912C32.6583 23.424 32.0663 23.7867 31.3836 24C30.7116 24.2133 30.0183 24.32 29.3036 24.32ZM50.9596 24.32C50.0743 24.32 49.317 24.2027 48.6876 23.968C48.0583 23.7333 47.5303 23.4293 47.1036 23.056C46.6876 22.6827 46.3516 22.2827 46.0956 21.856C45.8503 21.4187 45.6636 21.0027 45.5356 20.608L45.0876 24H42.2236V0.223999H46.1276V9.872C46.2983 9.552 46.533 9.232 46.8316 8.912C47.141 8.592 47.5143 8.29867 47.9516 8.032C48.389 7.76533 48.885 7.552 49.4396 7.392C50.005 7.22133 50.629 7.136 51.3116 7.136C53.3703 7.136 54.997 7.86667 56.1916 9.328C57.3863 10.7893 57.9836 12.896 57.9836 15.648C57.9836 17.3867 57.717 18.9067 57.1836 20.208C56.661 21.5093 55.877 22.5227 54.8316 23.248C53.797 23.9627 52.5063 24.32 50.9596 24.32ZM50.1596 21.456C51.3223 21.456 52.277 20.992 53.0236 20.064C53.7703 19.136 54.1436 17.632 54.1436 15.552C54.1436 13.7387 53.7916 12.368 53.0876 11.44C52.3836 10.5013 51.3916 10.032 50.1116 10.032C49.1943 10.032 48.4423 10.24 47.8556 10.656C47.2796 11.072 46.8476 11.6907 46.5596 12.512C46.2823 13.3333 46.1383 14.3467 46.1276 15.552C46.1276 17.664 46.4476 19.1787 47.0876 20.096C47.7383 21.0027 48.7623 21.456 50.1596 21.456ZM67.7784 24.32C66.6264 24.32 65.533 24.1387 64.4984 23.776C63.4744 23.4027 62.6104 22.8213 61.9064 22.032C61.213 21.2427 60.7757 20.224 60.5944 18.976H64.0184C64.1677 19.584 64.429 20.08 64.8024 20.464C65.1864 20.848 65.6344 21.1307 66.1464 21.312C66.669 21.4827 67.2077 21.568 67.7624 21.568C68.7544 21.568 69.5544 21.3973 70.1624 21.056C70.7704 20.7147 71.0744 20.1867 71.0744 19.472C71.0744 18.9493 70.9037 18.5333 70.5624 18.224C70.2317 17.9147 69.6877 17.68 68.9304 17.52L65.7944 16.8C64.3864 16.4907 63.261 15.9787 62.4184 15.264C61.5757 14.5493 61.149 13.5413 61.1384 12.24C61.1277 11.2587 61.373 10.384 61.8744 9.616C62.3757 8.848 63.1224 8.24533 64.1144 7.808C65.1064 7.36 66.3277 7.136 67.7784 7.136C69.709 7.136 71.2557 7.568 72.4184 8.432C73.5917 9.28533 74.1944 10.5067 74.2264 12.096H70.9144C70.797 11.3813 70.461 10.8267 69.9064 10.432C69.3517 10.0267 68.6317 9.824 67.7464 9.824C66.829 9.824 66.077 10 65.4904 10.352C64.9037 10.704 64.6104 11.2427 64.6104 11.968C64.6104 12.4693 64.829 12.864 65.2664 13.152C65.7144 13.44 66.3917 13.6853 67.2984 13.888L70.2744 14.608C71.1277 14.8213 71.8264 15.1093 72.3704 15.472C72.9144 15.8347 73.3357 16.2347 73.6344 16.672C73.9437 17.0987 74.157 17.5413 74.2744 18C74.4024 18.448 74.4664 18.864 74.4664 19.248C74.4664 20.3147 74.189 21.2267 73.6344 21.984C73.0904 22.7307 72.317 23.3067 71.3144 23.712C70.3224 24.1173 69.1437 24.32 67.7784 24.32ZM84.9489 24.32C83.4342 24.32 82.0849 23.9893 80.9009 23.328C79.7275 22.656 78.8049 21.6853 78.1329 20.416C77.4609 19.136 77.1249 17.5947 77.1249 15.792C77.1249 14.0747 77.4395 12.5707 78.0689 11.28C78.7089 9.97867 79.6102 8.96533 80.7729 8.24C81.9462 7.504 83.3382 7.136 84.9489 7.136C86.2395 7.136 87.3755 7.392 88.3569 7.904C89.3382 8.416 90.1222 9.12533 90.7089 10.032C91.3062 10.9387 91.6635 11.968 91.7809 13.12H88.4689C88.3835 12.6187 88.1969 12.144 87.9089 11.696C87.6209 11.2373 87.2315 10.8693 86.7409 10.592C86.2609 10.304 85.6742 10.16 84.9809 10.16C83.7329 10.16 82.7249 10.6187 81.9569 11.536C81.1889 12.4533 80.8049 13.8613 80.8049 15.76C80.8049 17.5093 81.1675 18.9013 81.8929 19.936C82.6289 20.9707 83.6795 21.488 85.0449 21.488C85.7275 21.488 86.3142 21.3387 86.8049 21.04C87.2955 20.7307 87.6795 20.352 87.9569 19.904C88.2449 19.4453 88.4262 18.9867 88.5009 18.528H91.7329C91.6369 19.648 91.2902 20.6453 90.6929 21.52C90.0955 22.3947 89.3062 23.0827 88.3249 23.584C87.3435 24.0747 86.2182 24.32 84.9489 24.32ZM95.3174 24V7.456H99.0454V11.04C99.312 10.2187 99.6907 9.52 100.181 8.944C100.683 8.35733 101.269 7.90933 101.941 7.6C102.613 7.29067 103.344 7.136 104.133 7.136C104.325 7.136 104.512 7.14667 104.693 7.168C104.875 7.18933 105.008 7.22667 105.093 7.28V11.008C104.976 10.9547 104.821 10.9173 104.629 10.896C104.448 10.8747 104.288 10.864 104.149 10.864C103.349 10.8 102.64 10.832 102.021 10.96C101.413 11.088 100.896 11.3067 100.469 11.616C100.053 11.9147 99.7387 12.2987 99.5254 12.768C99.312 13.2267 99.2054 13.7653 99.2054 14.384V24H95.3174ZM108.256 24V7.456H111.984V24H108.256ZM108.192 4.56V0.879999H112.048V4.56H108.192ZM125.335 24.32C124.449 24.32 123.692 24.2027 123.063 23.968C122.433 23.7333 121.905 23.4293 121.479 23.056C121.063 22.6827 120.727 22.2827 120.471 21.856C120.225 21.4187 120.039 21.0027 119.911 20.608L119.463 24H116.599V0.223999H120.503V9.872C120.673 9.552 120.908 9.232 121.207 8.912C121.516 8.592 121.889 8.29867 122.327 8.032C122.764 7.76533 123.26 7.552 123.815 7.392C124.38 7.22133 125.004 7.136 125.687 7.136C127.745 7.136 129.372 7.86667 130.567 9.328C131.761 10.7893 132.359 12.896 132.359 15.648C132.359 17.3867 132.092 18.9067 131.559 20.208C131.036 21.5093 130.252 22.5227 129.207 23.248C128.172 23.9627 126.881 24.32 125.335 24.32ZM124.535 21.456C125.697 21.456 126.652 20.992 127.399 20.064C128.145 19.136 128.519 17.632 128.519 15.552C128.519 13.7387 128.167 12.368 127.463 11.44C126.759 10.5013 125.767 10.032 124.487 10.032C123.569 10.032 122.817 10.24 122.231 10.656C121.655 11.072 121.223 11.6907 120.935 12.512C120.657 13.3333 120.513 14.3467 120.503 15.552C120.503 17.664 120.823 19.1787 121.463 20.096C122.113 21.0027 123.137 21.456 124.535 21.456ZM143.192 24.32C141.603 24.32 140.2 23.984 138.984 23.312C137.779 22.6293 136.835 21.6587 136.152 20.4C135.48 19.1413 135.144 17.6427 135.144 15.904C135.144 14.208 135.448 12.704 136.056 11.392C136.675 10.0693 137.565 9.02933 138.728 8.272C139.901 7.51467 141.315 7.136 142.968 7.136C144.6 7.136 145.971 7.48267 147.08 8.176C148.189 8.86933 149.032 9.84 149.608 11.088C150.184 12.3253 150.472 13.776 150.472 15.44V16.624H139.032C139.021 17.5627 139.171 18.3947 139.48 19.12C139.789 19.8453 140.248 20.416 140.856 20.832C141.464 21.2373 142.216 21.44 143.112 21.44C144.029 21.44 144.824 21.2373 145.496 20.832C146.179 20.416 146.632 19.7867 146.856 18.944H150.408C150.216 20.096 149.757 21.072 149.032 21.872C148.317 22.672 147.443 23.28 146.408 23.696C145.384 24.112 144.312 24.32 143.192 24.32ZM139.016 14.208H146.792C146.792 13.408 146.648 12.688 146.36 12.048C146.083 11.3973 145.661 10.8853 145.096 10.512C144.531 10.128 143.816 9.936 142.952 9.936C142.099 9.936 141.379 10.144 140.792 10.56C140.205 10.976 139.763 11.5147 139.464 12.176C139.165 12.8267 139.016 13.504 139.016 14.208ZM168.145 24.128C166.833 24.128 165.814 23.9573 165.089 23.616C164.374 23.264 163.878 22.768 163.601 22.128C163.324 21.488 163.185 20.7253 163.185 19.84V10.208H160.497V7.456H163.297L164.273 2.544H167.073V7.44H170.769V10.208H167.073L167.089 19.696C167.089 20.1867 167.142 20.5493 167.249 20.784C167.366 21.008 167.548 21.1573 167.793 21.232C168.049 21.296 168.385 21.328 168.801 21.328H170.849V23.792C170.625 23.8773 170.294 23.952 169.857 24.016C169.43 24.0907 168.86 24.128 168.145 24.128ZM180.918 24.32C179.339 24.32 177.963 23.984 176.79 23.312C175.616 22.6293 174.704 21.6533 174.054 20.384C173.414 19.1147 173.094 17.5893 173.094 15.808C173.094 14.08 173.408 12.5653 174.038 11.264C174.667 9.96267 175.563 8.94933 176.726 8.224C177.899 7.49867 179.302 7.136 180.934 7.136C182.512 7.136 183.883 7.48267 185.046 8.176C186.208 8.86933 187.104 9.86133 187.734 11.152C188.374 12.4427 188.694 13.9947 188.694 15.808C188.694 17.4827 188.39 18.96 187.782 20.24C187.184 21.5093 186.304 22.5067 185.142 23.232C183.99 23.9573 182.582 24.32 180.918 24.32ZM180.934 21.36C181.83 21.36 182.566 21.1147 183.142 20.624C183.728 20.1333 184.166 19.4613 184.454 18.608C184.742 17.7547 184.886 16.784 184.886 15.696C184.886 14.6827 184.758 13.7493 184.502 12.896C184.246 12.0427 183.824 11.36 183.238 10.848C182.662 10.3253 181.894 10.064 180.934 10.064C180.027 10.064 179.275 10.304 178.678 10.784C178.091 11.2533 177.654 11.9147 177.366 12.768C177.078 13.6107 176.934 14.5867 176.934 15.696C176.934 16.6987 177.062 17.632 177.318 18.496C177.574 19.3493 177.995 20.0427 178.582 20.576C179.168 21.0987 179.952 21.36 180.934 21.36ZM206.23 24.32C204.651 24.32 203.275 23.984 202.102 23.312C200.929 22.6293 200.017 21.6533 199.366 20.384C198.726 19.1147 198.406 17.5893 198.406 15.808C198.406 14.08 198.721 12.5653 199.35 11.264C199.979 9.96267 200.875 8.94933 202.038 8.224C203.211 7.49867 204.614 7.136 206.246 7.136C207.825 7.136 209.195 7.48267 210.358 8.176C211.521 8.86933 212.417 9.86133 213.046 11.152C213.686 12.4427 214.006 13.9947 214.006 15.808C214.006 17.4827 213.702 18.96 213.094 20.24C212.497 21.5093 211.617 22.5067 210.454 23.232C209.302 23.9573 207.894 24.32 206.23 24.32ZM206.246 21.36C207.142 21.36 207.878 21.1147 208.454 20.624C209.041 20.1333 209.478 19.4613 209.766 18.608C210.054 17.7547 210.198 16.784 210.198 15.696C210.198 14.6827 210.07 13.7493 209.814 12.896C209.558 12.0427 209.137 11.36 208.55 10.848C207.974 10.3253 207.206 10.064 206.246 10.064C205.339 10.064 204.587 10.304 203.99 10.784C203.403 11.2533 202.966 11.9147 202.678 12.768C202.39 13.6107 202.246 14.5867 202.246 15.696C202.246 16.6987 202.374 17.632 202.63 18.496C202.886 19.3493 203.307 20.0427 203.894 20.576C204.481 21.0987 205.265 21.36 206.246 21.36ZM223.554 24.32C222.743 24.32 221.959 24.2027 221.202 23.968C220.455 23.7227 219.783 23.3707 219.186 22.912C218.588 22.4427 218.114 21.8667 217.762 21.184C217.41 20.5013 217.234 19.7067 217.234 18.8V7.456H221.138V18.352C221.138 19.248 221.42 19.984 221.986 20.56C222.562 21.136 223.426 21.424 224.578 21.424C225.623 21.424 226.46 21.152 227.09 20.608C227.719 20.0533 228.034 19.2587 228.034 18.224V7.456H231.906V24H228.914L228.482 20.768C228.279 21.6747 227.922 22.3893 227.41 22.912C226.908 23.424 226.316 23.7867 225.634 24C224.962 24.2133 224.268 24.32 223.554 24.32ZM236.474 24V7.456H240.202V11.04C240.468 10.2187 240.847 9.52 241.338 8.944C241.839 8.35733 242.426 7.90933 243.098 7.6C243.77 7.29067 244.5 7.136 245.29 7.136C245.482 7.136 245.668 7.14667 245.85 7.168C246.031 7.18933 246.164 7.22667 246.25 7.28V11.008C246.132 10.9547 245.978 10.9173 245.786 10.896C245.604 10.8747 245.444 10.864 245.306 10.864C244.506 10.8 243.796 10.832 243.178 10.96C242.57 11.088 242.052 11.3067 241.626 11.616C241.21 11.9147 240.895 12.2987 240.682 12.768C240.468 13.2267 240.362 13.7653 240.362 14.384V24H236.474ZM256.817 24V7.456H260.625V9.824C260.881 9.39733 261.228 8.98667 261.665 8.592C262.113 8.19733 262.663 7.87733 263.313 7.632C263.964 7.38667 264.727 7.264 265.601 7.264C266.625 7.264 267.575 7.46667 268.449 7.872C269.335 8.27733 270.044 8.912 270.577 9.776C271.121 10.64 271.393 11.7547 271.393 13.12V24H267.489V13.584C267.489 12.496 267.191 11.6907 266.593 11.168C265.996 10.6347 265.244 10.368 264.337 10.368C263.719 10.368 263.132 10.4747 262.577 10.688C262.023 10.8907 261.569 11.2053 261.217 11.632C260.876 12.048 260.705 12.5707 260.705 13.2V24H256.817ZM282.879 24.32C281.29 24.32 279.887 23.984 278.671 23.312C277.466 22.6293 276.522 21.6587 275.839 20.4C275.167 19.1413 274.831 17.6427 274.831 15.904C274.831 14.208 275.135 12.704 275.743 11.392C276.362 10.0693 277.253 9.02933 278.415 8.272C279.589 7.51467 281.002 7.136 282.655 7.136C284.287 7.136 285.658 7.48267 286.767 8.176C287.877 8.86933 288.719 9.84 289.295 11.088C289.871 12.3253 290.159 13.776 290.159 15.44V16.624H278.719C278.709 17.5627 278.858 18.3947 279.167 19.12C279.477 19.8453 279.935 20.416 280.543 20.832C281.151 21.2373 281.903 21.44 282.799 21.44C283.717 21.44 284.511 21.2373 285.183 20.832C285.866 20.416 286.319 19.7867 286.543 18.944H290.095C289.903 20.096 289.445 21.072 288.719 21.872C288.005 22.672 287.13 23.28 286.095 23.696C285.071 24.112 283.999 24.32 282.879 24.32ZM278.703 14.208H286.479C286.479 13.408 286.335 12.688 286.047 12.048C285.77 11.3973 285.349 10.8853 284.783 10.512C284.218 10.128 283.503 9.936 282.639 9.936C281.786 9.936 281.066 10.144 280.479 10.56C279.893 10.976 279.45 11.5147 279.151 12.176C278.853 12.8267 278.703 13.504 278.703 14.208ZM297.216 24L291.968 7.456H295.472L298.912 18.832H299.104L302.448 7.456H305.28L308.72 18.816H308.912L312.24 7.456H315.808L310.56 24H307.2L303.808 12.976L300.496 24H297.216ZM324.56 24.32C323.408 24.32 322.314 24.1387 321.28 23.776C320.256 23.4027 319.392 22.8213 318.688 22.032C317.994 21.2427 317.557 20.224 317.376 18.976H320.8C320.949 19.584 321.21 20.08 321.584 20.464C321.968 20.848 322.416 21.1307 322.928 21.312C323.45 21.4827 323.989 21.568 324.544 21.568C325.536 21.568 326.336 21.3973 326.944 21.056C327.552 20.7147 327.856 20.1867 327.856 19.472C327.856 18.9493 327.685 18.5333 327.344 18.224C327.013 17.9147 326.469 17.68 325.712 17.52L322.576 16.8C321.168 16.4907 320.042 15.9787 319.2 15.264C318.357 14.5493 317.93 13.5413 317.92 12.24C317.909 11.2587 318.154 10.384 318.656 9.616C319.157 8.848 319.904 8.24533 320.896 7.808C321.888 7.36 323.109 7.136 324.56 7.136C326.49 7.136 328.037 7.568 329.2 8.432C330.373 9.28533 330.976 10.5067 331.008 12.096H327.696C327.578 11.3813 327.242 10.8267 326.688 10.432C326.133 10.0267 325.413 9.824 324.528 9.824C323.61 9.824 322.858 10 322.272 10.352C321.685 10.704 321.392 11.2427 321.392 11.968C321.392 12.4693 321.61 12.864 322.048 13.152C322.496 13.44 323.173 13.6853 324.08 13.888L327.056 14.608C327.909 14.8213 328.608 15.1093 329.152 15.472C329.696 15.8347 330.117 16.2347 330.416 16.672C330.725 17.0987 330.938 17.5413 331.056 18C331.184 18.448 331.248 18.864 331.248 19.248C331.248 20.3147 330.97 21.2267 330.416 21.984C329.872 22.7307 329.098 23.3067 328.096 23.712C327.104 24.1173 325.925 24.32 324.56 24.32ZM339.554 24.24C338.487 24.24 337.634 24.1067 336.994 23.84C336.354 23.5733 335.874 23.216 335.554 22.768C335.234 22.32 335.026 21.8187 334.93 21.264C334.834 20.6987 334.786 20.1227 334.786 19.536V0.223999H338.594V19.088C338.594 19.8027 338.738 20.3573 339.026 20.752C339.325 21.1467 339.805 21.376 340.466 21.44L341.298 21.472V23.92C341.01 24.0053 340.717 24.08 340.418 24.144C340.119 24.208 339.831 24.24 339.554 24.24ZM351.379 24.32C349.79 24.32 348.387 23.984 347.171 23.312C345.966 22.6293 345.022 21.6587 344.339 20.4C343.667 19.1413 343.331 17.6427 343.331 15.904C343.331 14.208 343.635 12.704 344.243 11.392C344.862 10.0693 345.753 9.02933 346.915 8.272C348.089 7.51467 349.502 7.136 351.155 7.136C352.787 7.136 354.158 7.48267 355.267 8.176C356.377 8.86933 357.219 9.84 357.795 11.088C358.371 12.3253 358.659 13.776 358.659 15.44V16.624H347.219C347.209 17.5627 347.358 18.3947 347.667 19.12C347.977 19.8453 348.435 20.416 349.043 20.832C349.651 21.2373 350.403 21.44 351.299 21.44C352.217 21.44 353.011 21.2373 353.683 20.832C354.366 20.416 354.819 19.7867 355.043 18.944H358.595C358.403 20.096 357.945 21.072 357.219 21.872C356.505 22.672 355.63 23.28 354.595 23.696C353.571 24.112 352.499 24.32 351.379 24.32ZM347.203 14.208H354.979C354.979 13.408 354.835 12.688 354.547 12.048C354.27 11.3973 353.849 10.8853 353.283 10.512C352.718 10.128 352.003 9.936 351.139 9.936C350.286 9.936 349.566 10.144 348.979 10.56C348.393 10.976 347.95 11.5147 347.651 12.176C347.353 12.8267 347.203 13.504 347.203 14.208ZM368.395 24.128C367.083 24.128 366.064 23.9573 365.339 23.616C364.624 23.264 364.128 22.768 363.851 22.128C363.574 21.488 363.435 20.7253 363.435 19.84V10.208H360.747V7.456H363.547L364.523 2.544H367.323V7.44H371.019V10.208H367.323L367.339 19.696C367.339 20.1867 367.392 20.5493 367.499 20.784C367.616 21.008 367.798 21.1573 368.043 21.232C368.299 21.296 368.635 21.328 369.051 21.328H371.099V23.792C370.875 23.8773 370.544 23.952 370.107 24.016C369.68 24.0907 369.11 24.128 368.395 24.128ZM379.989 24.128C378.677 24.128 377.658 23.9573 376.933 23.616C376.218 23.264 375.722 22.768 375.445 22.128C375.167 21.488 375.029 20.7253 375.029 19.84V10.208H372.341V7.456H375.141L376.117 2.544H378.917V7.44H382.613V10.208H378.917L378.933 19.696C378.933 20.1867 378.986 20.5493 379.093 20.784C379.21 21.008 379.391 21.1573 379.637 21.232C379.893 21.296 380.229 21.328 380.645 21.328H382.693V23.792C382.469 23.8773 382.138 23.952 381.701 24.016C381.274 24.0907 380.703 24.128 379.989 24.128ZM393.129 24.32C391.54 24.32 390.137 23.984 388.921 23.312C387.716 22.6293 386.772 21.6587 386.089 20.4C385.417 19.1413 385.081 17.6427 385.081 15.904C385.081 14.208 385.385 12.704 385.993 11.392C386.612 10.0693 387.503 9.02933 388.665 8.272C389.839 7.51467 391.252 7.136 392.905 7.136C394.537 7.136 395.908 7.48267 397.017 8.176C398.127 8.86933 398.969 9.84 399.545 11.088C400.121 12.3253 400.409 13.776 400.409 15.44V16.624H388.969C388.959 17.5627 389.108 18.3947 389.417 19.12C389.727 19.8453 390.185 20.416 390.793 20.832C391.401 21.2373 392.153 21.44 393.049 21.44C393.967 21.44 394.761 21.2373 395.433 20.832C396.116 20.416 396.569 19.7867 396.793 18.944H400.345C400.153 20.096 399.695 21.072 398.969 21.872C398.255 22.672 397.38 23.28 396.345 23.696C395.321 24.112 394.249 24.32 393.129 24.32ZM388.953 14.208H396.729C396.729 13.408 396.585 12.688 396.297 12.048C396.02 11.3973 395.599 10.8853 395.033 10.512C394.468 10.128 393.753 9.936 392.889 9.936C392.036 9.936 391.316 10.144 390.729 10.56C390.143 10.976 389.7 11.5147 389.401 12.176C389.103 12.8267 388.953 13.504 388.953 14.208ZM404.13 24V7.456H407.858V11.04C408.125 10.2187 408.503 9.52 408.994 8.944C409.495 8.35733 410.082 7.90933 410.754 7.6C411.426 7.29067 412.157 7.136 412.946 7.136C413.138 7.136 413.325 7.14667 413.506 7.168C413.687 7.18933 413.821 7.22667 413.906 7.28V11.008C413.789 10.9547 413.634 10.9173 413.442 10.896C413.261 10.8747 413.101 10.864 412.962 10.864C412.162 10.8 411.453 10.832 410.834 10.96C410.226 11.088 409.709 11.3067 409.282 11.616C408.866 11.9147 408.551 12.2987 408.338 12.768C408.125 13.2267 408.018 13.7653 408.018 14.384V24H404.13Z" fill="white"/>
</svg>
