<svg width="312" height="152" viewBox="0 0 312 152" fill="none" xmlns="http://www.w3.org/2000/svg">
<rect x="0.5" y="0.5" width="62" height="31" rx="1.5" stroke="#303639"/>
<path d="M17.103 21.14C16.2023 21.14 15.4253 20.9347 14.772 20.524C14.1187 20.1133 13.6147 19.523 13.26 18.753C12.91 17.9783 12.735 17.0497 12.735 15.967C12.735 14.875 12.9147 13.9393 13.274 13.16C13.638 12.376 14.1537 11.7763 14.821 11.361C15.4883 10.9457 16.2723 10.738 17.173 10.738C17.7097 10.738 18.2067 10.829 18.664 11.011C19.126 11.193 19.532 11.4403 19.882 11.753C20.2367 12.0657 20.5167 12.4203 20.722 12.817C20.9273 13.2137 21.044 13.629 21.072 14.063H19.476C19.4107 13.7037 19.2707 13.3723 19.056 13.069C18.846 12.761 18.5777 12.5137 18.251 12.327C17.9243 12.1403 17.5557 12.047 17.145 12.047C16.599 12.047 16.116 12.1823 15.696 12.453C15.276 12.7237 14.947 13.146 14.709 13.72C14.4757 14.2893 14.359 15.0267 14.359 15.932C14.359 16.6367 14.4313 17.2363 14.576 17.731C14.7253 18.2257 14.9283 18.6247 15.185 18.928C15.4417 19.2313 15.7427 19.453 16.088 19.593C16.4333 19.7283 16.802 19.796 17.194 19.796C17.5813 19.796 17.922 19.7283 18.216 19.593C18.51 19.4577 18.755 19.2827 18.951 19.068C19.1517 18.8533 19.3057 18.6223 19.413 18.375C19.525 18.123 19.5903 17.8803 19.609 17.647L19.658 16.828H17.292V15.75L21.219 15.764V21H20.134V19.516C19.9567 19.7913 19.735 20.0527 19.469 20.3C19.203 20.5473 18.8763 20.7503 18.489 20.909C18.1017 21.063 17.6397 21.14 17.103 21.14ZM25.4433 21.14C24.9766 21.14 24.5613 21.056 24.1973 20.888C23.8379 20.72 23.5556 20.4773 23.3503 20.16C23.1449 19.8427 23.0423 19.46 23.0423 19.012C23.0423 18.2093 23.3246 17.6097 23.8893 17.213C24.4586 16.8163 25.3686 16.6063 26.6193 16.583L27.8093 16.548V16.023C27.8093 15.6077 27.6856 15.281 27.4383 15.043C27.1909 14.805 26.8083 14.6883 26.2903 14.693C25.9076 14.693 25.5646 14.7817 25.2613 14.959C24.9579 15.1363 24.7596 15.428 24.6663 15.834H23.3713C23.3993 15.3533 23.5369 14.9497 23.7843 14.623C24.0363 14.2917 24.3816 14.042 24.8203 13.874C25.2589 13.706 25.7723 13.622 26.3603 13.622C27.0229 13.622 27.5666 13.713 27.9913 13.895C28.4159 14.0723 28.7309 14.3337 28.9363 14.679C29.1463 15.0243 29.2513 15.4443 29.2513 15.939V21H27.9773L27.8653 19.67C27.5946 20.2253 27.2516 20.6103 26.8363 20.825C26.4209 21.035 25.9566 21.14 25.4433 21.14ZM25.9123 20.097C26.1409 20.097 26.3673 20.0573 26.5913 19.978C26.8153 19.894 27.0183 19.782 27.2003 19.642C27.3823 19.4973 27.5269 19.3363 27.6343 19.159C27.7463 18.9817 27.8046 18.7997 27.8093 18.613V17.416L26.8293 17.437C26.3299 17.4417 25.9053 17.493 25.5553 17.591C25.2099 17.689 24.9439 17.8407 24.7573 18.046C24.5753 18.2513 24.4843 18.5243 24.4843 18.865C24.4843 19.2523 24.6173 19.5557 24.8833 19.775C25.1539 19.9897 25.4969 20.097 25.9123 20.097ZM31.1713 21V13.762H32.6273V14.805C32.8326 14.4877 33.1126 14.2123 33.4673 13.979C33.8219 13.741 34.2793 13.622 34.8393 13.622C35.1006 13.622 35.3643 13.6663 35.6303 13.755C35.9009 13.8437 36.1483 13.9767 36.3723 14.154C36.6009 14.3267 36.7806 14.5413 36.9113 14.798C37.1399 14.4527 37.4456 14.1703 37.8283 13.951C38.2109 13.7317 38.6403 13.622 39.1163 13.622C39.3729 13.622 39.6389 13.664 39.9143 13.748C40.1896 13.8273 40.4439 13.965 40.6773 14.161C40.9153 14.3523 41.1066 14.6183 41.2513 14.959C41.4006 15.2997 41.4753 15.7313 41.4753 16.254V21H39.9703V16.415C39.9703 16.0183 39.9026 15.708 39.7673 15.484C39.6366 15.26 39.4639 15.1037 39.2493 15.015C39.0393 14.9217 38.8153 14.875 38.5773 14.875C38.3626 14.875 38.1386 14.917 37.9052 15.001C37.6719 15.085 37.4736 15.225 37.3103 15.421C37.1469 15.617 37.0653 15.883 37.0653 16.219V21H35.5673V16.093C35.5673 15.827 35.4949 15.603 35.3503 15.421C35.2103 15.239 35.0329 15.1037 34.8183 15.015C34.6083 14.9217 34.3983 14.875 34.1883 14.875C33.9549 14.875 33.7216 14.9217 33.4883 15.015C33.2549 15.1083 33.0589 15.2553 32.9003 15.456C32.7463 15.652 32.6693 15.9063 32.6693 16.219V21H31.1713ZM46.5299 21.14C45.8439 21.14 45.2396 20.993 44.7169 20.699C44.1942 20.4003 43.7859 19.9757 43.4919 19.425C43.2026 18.8743 43.0579 18.2187 43.0579 17.458C43.0579 16.7067 43.1909 16.044 43.4569 15.47C43.7229 14.8913 44.1079 14.4387 44.6119 14.112C45.1159 13.7853 45.7226 13.622 46.4319 13.622C47.1272 13.622 47.7152 13.7713 48.1959 14.07C48.6766 14.3687 49.0406 14.7887 49.2879 15.33C49.5352 15.8667 49.6589 16.5013 49.6589 17.234V17.731H44.5629C44.5582 18.165 44.6282 18.5547 44.7729 18.9C44.9176 19.2407 45.1322 19.5113 45.4169 19.712C45.7062 19.908 46.0656 20.006 46.4949 20.006C46.9289 20.006 47.3022 19.908 47.6149 19.712C47.9322 19.516 48.1399 19.2243 48.2379 18.837H49.6239C49.5399 19.3317 49.3416 19.7517 49.0289 20.097C48.7162 20.4423 48.3406 20.7037 47.9019 20.881C47.4632 21.0537 47.0059 21.14 46.5299 21.14ZM44.5629 16.758H48.2309C48.2309 16.38 48.1656 16.037 48.0349 15.729C47.9042 15.4163 47.7036 15.1713 47.4329 14.994C47.1669 14.812 46.8309 14.721 46.4249 14.721C46.0096 14.721 45.6642 14.8213 45.3889 15.022C45.1136 15.2227 44.9059 15.4793 44.7659 15.792C44.6306 16.1047 44.5629 16.4267 44.5629 16.758Z" fill="white"/>
<rect x="71.5" y="0.5" width="68" height="31" rx="1.5" stroke="#303639"/>
<path d="M84.05 21V13.762H85.492V21H84.05ZM84.015 12.362V10.885H85.52V12.362H84.015ZM87.822 21V10.878H91.329C92.0523 10.878 92.6987 11.0017 93.268 11.249C93.842 11.4963 94.2923 11.8603 94.619 12.341C94.9503 12.8217 95.116 13.412 95.116 14.112C95.116 14.784 94.9643 15.358 94.661 15.834C94.3623 16.3053 93.9423 16.667 93.401 16.919C92.8643 17.1663 92.2413 17.29 91.532 17.29H89.348V21H87.822ZM89.341 16.065H91.49C92.134 16.065 92.659 15.8807 93.065 15.512C93.471 15.1387 93.674 14.644 93.674 14.028C93.674 13.4027 93.464 12.9243 93.044 12.593C92.624 12.257 92.0873 12.089 91.434 12.089H89.341V16.065ZM96.5248 21V10.598H98.0018V14.819C98.1184 14.6277 98.2748 14.4457 98.4708 14.273C98.6714 14.1003 98.9141 13.9603 99.1988 13.853C99.4881 13.741 99.8241 13.685 100.207 13.685C100.678 13.685 101.103 13.7737 101.481 13.951C101.863 14.1237 102.167 14.3757 102.391 14.707C102.619 15.0337 102.734 15.4233 102.734 15.876V21H101.236V16.149C101.236 15.743 101.096 15.4303 100.816 15.211C100.536 14.9917 100.176 14.882 99.7378 14.882C99.4438 14.882 99.1638 14.9333 98.8978 15.036C98.6364 15.134 98.4241 15.2833 98.2608 15.484C98.1021 15.68 98.0228 15.9273 98.0228 16.226V21H96.5248ZM107.628 21.14C106.951 21.14 106.361 20.9953 105.857 20.706C105.353 20.412 104.961 19.9873 104.681 19.432C104.401 18.8767 104.261 18.2047 104.261 17.416C104.261 16.6553 104.394 15.9903 104.66 15.421C104.926 14.8517 105.308 14.4107 105.808 14.098C106.312 13.7807 106.921 13.622 107.635 13.622C108.316 13.622 108.906 13.7713 109.406 14.07C109.905 14.364 110.292 14.7957 110.568 15.365C110.843 15.9297 110.981 16.6133 110.981 17.416C110.981 18.1487 110.852 18.795 110.596 19.355C110.339 19.915 109.961 20.3537 109.462 20.671C108.967 20.9837 108.356 21.14 107.628 21.14ZM107.635 19.985C108.05 19.985 108.395 19.8777 108.671 19.663C108.946 19.4437 109.154 19.138 109.294 18.746C109.434 18.3493 109.504 17.892 109.504 17.374C109.504 16.8933 109.441 16.457 109.315 16.065C109.193 15.6683 108.995 15.3533 108.72 15.12C108.449 14.8867 108.087 14.77 107.635 14.77C107.219 14.77 106.869 14.8773 106.585 15.092C106.305 15.302 106.095 15.603 105.955 15.995C105.815 16.3823 105.745 16.842 105.745 17.374C105.745 17.8453 105.808 18.2793 105.934 18.676C106.06 19.0727 106.26 19.39 106.536 19.628C106.816 19.866 107.182 19.985 107.635 19.985ZM112.617 21V13.762H114.08V14.805C114.196 14.609 114.353 14.4247 114.549 14.252C114.749 14.0793 114.994 13.9393 115.284 13.832C115.578 13.7247 115.916 13.671 116.299 13.671C116.751 13.671 117.169 13.762 117.552 13.944C117.939 14.1213 118.249 14.4013 118.483 14.784C118.716 15.162 118.833 15.652 118.833 16.254V21H117.335V16.415C117.335 15.897 117.195 15.512 116.915 15.26C116.639 15.008 116.282 14.882 115.844 14.882C115.55 14.882 115.27 14.931 115.004 15.029C114.738 15.127 114.523 15.2763 114.36 15.477C114.196 15.673 114.115 15.9203 114.115 16.219V21H112.617ZM123.887 21.14C123.201 21.14 122.597 20.993 122.074 20.699C121.552 20.4003 121.143 19.9757 120.849 19.425C120.56 18.8743 120.415 18.2187 120.415 17.458C120.415 16.7067 120.548 16.044 120.814 15.47C121.08 14.8913 121.465 14.4387 121.969 14.112C122.473 13.7853 123.08 13.622 123.789 13.622C124.485 13.622 125.073 13.7713 125.553 14.07C126.034 14.3687 126.398 14.7887 126.645 15.33C126.893 15.8667 127.016 16.5013 127.016 17.234V17.731H121.92C121.916 18.165 121.986 18.5547 122.13 18.9C122.275 19.2407 122.49 19.5113 122.774 19.712C123.064 19.908 123.423 20.006 123.852 20.006C124.286 20.006 124.66 19.908 124.972 19.712C125.29 19.516 125.497 19.2243 125.595 18.837H126.981C126.897 19.3317 126.699 19.7517 126.386 20.097C126.074 20.4423 125.698 20.7037 125.259 20.881C124.821 21.0537 124.363 21.14 123.887 21.14ZM121.92 16.758H125.588C125.588 16.38 125.523 16.037 125.392 15.729C125.262 15.4163 125.061 15.1713 124.79 14.994C124.524 14.812 124.188 14.721 123.782 14.721C123.367 14.721 123.022 14.8213 122.746 15.022C122.471 15.2227 122.263 15.4793 122.123 15.792C121.988 16.1047 121.92 16.4267 121.92 16.758Z" fill="white"/>
<rect x="148.5" y="0.5" width="42" height="31" rx="1.5" stroke="#303639"/>
<path d="M163.514 21V12.243H160.308V10.878H168.085V12.243H165.026V21H163.514ZM172.785 21L169.208 10.878H170.671L173.667 19.285L176.656 10.878H178.126L174.549 21H172.785Z" fill="white"/>
<rect x="199.5" y="0.5" width="112" height="31" rx="1.5" stroke="#303639"/>
<path d="M211.525 21L215.179 10.878H216.831L220.478 21H218.966L218.014 18.347H214.003L213.044 21H211.525ZM214.374 16.989H217.622L215.998 12.334L214.374 16.989ZM224.513 21.14C224.009 21.14 223.535 21.0607 223.092 20.902C222.653 20.7433 222.284 20.4937 221.986 20.153C221.692 19.8123 221.507 19.376 221.433 18.844H222.77C222.83 19.1193 222.945 19.348 223.113 19.53C223.285 19.7073 223.491 19.8403 223.729 19.929C223.971 20.013 224.23 20.055 224.506 20.055C224.963 20.055 225.334 19.9733 225.619 19.81C225.903 19.642 226.046 19.3853 226.046 19.04C226.046 18.7927 225.969 18.5943 225.815 18.445C225.661 18.2957 225.42 18.186 225.094 18.116L223.652 17.773C223.054 17.633 222.576 17.4113 222.217 17.108C221.857 16.8 221.675 16.3707 221.671 15.82C221.671 15.3953 221.776 15.0173 221.986 14.686C222.2 14.3547 222.518 14.0957 222.938 13.909C223.362 13.7177 223.885 13.622 224.506 13.622C225.322 13.622 225.978 13.804 226.473 14.168C226.972 14.532 227.229 15.0593 227.243 15.75H225.948C225.901 15.4187 225.749 15.1597 225.493 14.973C225.241 14.7817 224.907 14.686 224.492 14.686C224.062 14.686 223.71 14.7723 223.435 14.945C223.159 15.113 223.022 15.372 223.022 15.722C223.022 15.96 223.122 16.149 223.323 16.289C223.528 16.4243 223.829 16.5363 224.226 16.625L225.598 16.968C225.952 17.0613 226.244 17.185 226.473 17.339C226.701 17.4883 226.881 17.654 227.012 17.836C227.142 18.018 227.233 18.207 227.285 18.403C227.341 18.599 227.369 18.7833 227.369 18.956C227.369 19.4133 227.252 19.8053 227.019 20.132C226.79 20.454 226.463 20.7037 226.039 20.881C225.614 21.0537 225.105 21.14 224.513 21.14ZM231.642 21.14C231.278 21.1353 230.93 21.0817 230.599 20.979C230.267 20.8763 229.971 20.7223 229.71 20.517C229.453 20.3117 229.248 20.0573 229.094 19.754C228.944 19.4507 228.87 19.0983 228.87 18.697V13.762H230.375V18.536C230.375 18.97 230.51 19.3223 230.781 19.593C231.051 19.8637 231.46 19.999 232.006 19.999C232.5 19.999 232.897 19.8707 233.196 19.614C233.494 19.3527 233.644 18.9723 233.644 18.473V13.762H235.135V21H233.973L233.805 19.6C233.721 19.978 233.569 20.2813 233.35 20.51C233.135 20.734 232.878 20.8973 232.58 21C232.286 21.098 231.973 21.1447 231.642 21.14ZM239.866 21.14C239.362 21.14 238.889 21.0607 238.445 20.902C238.007 20.7433 237.638 20.4937 237.339 20.153C237.045 19.8123 236.861 19.376 236.786 18.844H238.123C238.184 19.1193 238.298 19.348 238.466 19.53C238.639 19.7073 238.844 19.8403 239.082 19.929C239.325 20.013 239.584 20.055 239.859 20.055C240.317 20.055 240.688 19.9733 240.972 19.81C241.257 19.642 241.399 19.3853 241.399 19.04C241.399 18.7927 241.322 18.5943 241.168 18.445C241.014 18.2957 240.774 18.186 240.447 18.116L239.005 17.773C238.408 17.633 237.93 17.4113 237.57 17.108C237.211 16.8 237.029 16.3707 237.024 15.82C237.024 15.3953 237.129 15.0173 237.339 14.686C237.554 14.3547 237.871 14.0957 238.291 13.909C238.716 13.7177 239.239 13.622 239.859 13.622C240.676 13.622 241.332 13.804 241.826 14.168C242.326 14.532 242.582 15.0593 242.596 15.75H241.301C241.255 15.4187 241.103 15.1597 240.846 14.973C240.594 14.7817 240.261 14.686 239.845 14.686C239.416 14.686 239.064 14.7723 238.788 14.945C238.513 15.113 238.375 15.372 238.375 15.722C238.375 15.96 238.476 16.149 238.676 16.289C238.882 16.4243 239.183 16.5363 239.579 16.625L240.951 16.968C241.306 17.0613 241.598 17.185 241.826 17.339C242.055 17.4883 242.235 17.654 242.365 17.836C242.496 18.018 242.587 18.207 242.638 18.403C242.694 18.599 242.722 18.7833 242.722 18.956C242.722 19.4133 242.606 19.8053 242.372 20.132C242.144 20.454 241.817 20.7037 241.392 20.881C240.968 21.0537 240.459 21.14 239.866 21.14ZM247.883 21L247.89 10.878H249.409V19.684H254.085V21H247.883ZM257.557 21.14C257.09 21.14 256.675 21.056 256.311 20.888C255.951 20.72 255.669 20.4773 255.464 20.16C255.258 19.8427 255.156 19.46 255.156 19.012C255.156 18.2093 255.438 17.6097 256.003 17.213C256.572 16.8163 257.482 16.6063 258.733 16.583L259.923 16.548V16.023C259.923 15.6077 259.799 15.281 259.552 15.043C259.304 14.805 258.922 14.6883 258.404 14.693C258.021 14.693 257.678 14.7817 257.375 14.959C257.071 15.1363 256.873 15.428 256.78 15.834H255.485C255.513 15.3533 255.65 14.9497 255.898 14.623C256.15 14.2917 256.495 14.042 256.934 13.874C257.372 13.706 257.886 13.622 258.474 13.622C259.136 13.622 259.68 13.713 260.105 13.895C260.529 14.0723 260.844 14.3337 261.05 14.679C261.26 15.0243 261.365 15.4443 261.365 15.939V21H260.091L259.979 19.67C259.708 20.2253 259.365 20.6103 258.95 20.825C258.534 21.035 258.07 21.14 257.557 21.14ZM258.026 20.097C258.254 20.097 258.481 20.0573 258.705 19.978C258.929 19.894 259.132 19.782 259.314 19.642C259.496 19.4973 259.64 19.3363 259.748 19.159C259.86 18.9817 259.918 18.7997 259.923 18.613V17.416L258.943 17.437C258.443 17.4417 258.019 17.493 257.669 17.591C257.323 17.689 257.057 17.8407 256.871 18.046C256.689 18.2513 256.598 18.5243 256.598 18.865C256.598 19.2523 256.731 19.5557 256.997 19.775C257.267 19.9897 257.61 20.097 258.026 20.097ZM263.285 23.254V13.762H264.783L264.797 14.966C264.885 14.8073 265 14.651 265.14 14.497C265.28 14.3383 265.445 14.1937 265.637 14.063C265.833 13.9277 266.054 13.8203 266.302 13.741C266.554 13.6617 266.831 13.622 267.135 13.622C267.704 13.622 268.206 13.755 268.64 14.021C269.078 14.2823 269.419 14.686 269.662 15.232C269.909 15.7733 270.033 16.4617 270.033 17.297C270.033 18.137 269.909 18.8417 269.662 19.411C269.419 19.9803 269.071 20.412 268.619 20.706C268.166 20.9953 267.629 21.14 267.009 21.14C266.71 21.14 266.442 21.098 266.204 21.014C265.966 20.93 265.756 20.8203 265.574 20.685C265.392 20.545 265.235 20.3957 265.105 20.237C264.979 20.0737 264.874 19.9127 264.79 19.754V23.254H263.285ZM266.694 19.999C267.249 19.999 267.704 19.7843 268.059 19.355C268.418 18.921 268.598 18.2443 268.598 17.325C268.598 16.5363 268.432 15.9133 268.101 15.456C267.774 14.994 267.305 14.763 266.694 14.763C266.064 14.763 265.588 15.0033 265.266 15.484C264.944 15.96 264.783 16.5737 264.783 17.325C264.783 17.815 264.853 18.263 264.993 18.669C265.137 19.0703 265.352 19.3923 265.637 19.635C265.921 19.8777 266.274 19.999 266.694 19.999ZM274.144 21.049C273.607 21.049 273.192 20.9767 272.898 20.832C272.604 20.6873 272.398 20.4797 272.282 20.209C272.165 19.9337 272.107 19.6023 272.107 19.215V14.84H270.931V13.762H272.156L272.52 11.634H273.612V13.755H275.236V14.84H273.612L273.619 19.159C273.619 19.397 273.642 19.572 273.689 19.684C273.74 19.7913 273.824 19.8613 273.941 19.894C274.062 19.922 274.225 19.936 274.431 19.936H275.271V20.909C275.182 20.9463 275.044 20.979 274.858 21.007C274.676 21.035 274.438 21.049 274.144 21.049ZM279.692 21.14C279.015 21.14 278.425 20.9953 277.921 20.706C277.417 20.412 277.025 19.9873 276.745 19.432C276.465 18.8767 276.325 18.2047 276.325 17.416C276.325 16.6553 276.458 15.9903 276.724 15.421C276.99 14.8517 277.373 14.4107 277.872 14.098C278.376 13.7807 278.985 13.622 279.699 13.622C280.38 13.622 280.971 13.7713 281.47 14.07C281.969 14.364 282.357 14.7957 282.632 15.365C282.907 15.9297 283.045 16.6133 283.045 17.416C283.045 18.1487 282.917 18.795 282.66 19.355C282.403 19.915 282.025 20.3537 281.526 20.671C281.031 20.9837 280.42 21.14 279.692 21.14ZM279.699 19.985C280.114 19.985 280.46 19.8777 280.735 19.663C281.01 19.4437 281.218 19.138 281.358 18.746C281.498 18.3493 281.568 17.892 281.568 17.374C281.568 16.8933 281.505 16.457 281.379 16.065C281.258 15.6683 281.059 15.3533 280.784 15.12C280.513 14.8867 280.152 14.77 279.699 14.77C279.284 14.77 278.934 14.8773 278.649 15.092C278.369 15.302 278.159 15.603 278.019 15.995C277.879 16.3823 277.809 16.842 277.809 17.374C277.809 17.8453 277.872 18.2793 277.998 18.676C278.124 19.0727 278.325 19.39 278.6 19.628C278.88 19.866 279.246 19.985 279.699 19.985ZM284.681 23.254V13.762H286.179L286.193 14.966C286.282 14.8073 286.396 14.651 286.536 14.497C286.676 14.3383 286.842 14.1937 287.033 14.063C287.229 13.9277 287.451 13.8203 287.698 13.741C287.95 13.6617 288.228 13.622 288.531 13.622C289.1 13.622 289.602 13.755 290.036 14.021C290.475 14.2823 290.815 14.686 291.058 15.232C291.305 15.7733 291.429 16.4617 291.429 17.297C291.429 18.137 291.305 18.8417 291.058 19.411C290.815 19.9803 290.468 20.412 290.015 20.706C289.562 20.9953 289.026 21.14 288.405 21.14C288.106 21.14 287.838 21.098 287.6 21.014C287.362 20.93 287.152 20.8203 286.97 20.685C286.788 20.545 286.632 20.3957 286.501 20.237C286.375 20.0737 286.27 19.9127 286.186 19.754V23.254H284.681ZM288.09 19.999C288.645 19.999 289.1 19.7843 289.455 19.355C289.814 18.921 289.994 18.2443 289.994 17.325C289.994 16.5363 289.828 15.9133 289.497 15.456C289.17 14.994 288.701 14.763 288.09 14.763C287.46 14.763 286.984 15.0033 286.662 15.484C286.34 15.96 286.179 16.5737 286.179 17.325C286.179 17.815 286.249 18.263 286.389 18.669C286.534 19.0703 286.748 19.3923 287.033 19.635C287.318 19.8777 287.67 19.999 288.09 19.999ZM295.716 21.14C295.212 21.14 294.738 21.0607 294.295 20.902C293.856 20.7433 293.488 20.4937 293.189 20.153C292.895 19.8123 292.711 19.376 292.636 18.844H293.973C294.034 19.1193 294.148 19.348 294.316 19.53C294.489 19.7073 294.694 19.8403 294.932 19.929C295.175 20.013 295.434 20.055 295.709 20.055C296.166 20.055 296.537 19.9733 296.822 19.81C297.107 19.642 297.249 19.3853 297.249 19.04C297.249 18.7927 297.172 18.5943 297.018 18.445C296.864 18.2957 296.624 18.186 296.297 18.116L294.855 17.773C294.258 17.633 293.779 17.4113 293.42 17.108C293.061 16.8 292.879 16.3707 292.874 15.82C292.874 15.3953 292.979 15.0173 293.189 14.686C293.404 14.3547 293.721 14.0957 294.141 13.909C294.566 13.7177 295.088 13.622 295.709 13.622C296.526 13.622 297.181 13.804 297.676 14.168C298.175 14.532 298.432 15.0593 298.446 15.75H297.151C297.104 15.4187 296.953 15.1597 296.696 14.973C296.444 14.7817 296.11 14.686 295.695 14.686C295.266 14.686 294.913 14.7723 294.638 14.945C294.363 15.113 294.225 15.372 294.225 15.722C294.225 15.96 294.325 16.149 294.526 16.289C294.731 16.4243 295.032 16.5363 295.429 16.625L296.801 16.968C297.156 17.0613 297.447 17.185 297.676 17.339C297.905 17.4883 298.084 17.654 298.215 17.836C298.346 18.018 298.437 18.207 298.488 18.403C298.544 18.599 298.572 18.7833 298.572 18.956C298.572 19.4133 298.455 19.8053 298.222 20.132C297.993 20.454 297.667 20.7037 297.242 20.881C296.817 21.0537 296.309 21.14 295.716 21.14Z" fill="white"/>
<rect x="0.5" y="40.5" width="84" height="31" rx="1.5" stroke="#303639"/>
<path d="M13.281 61V50.878H15.395L18.244 58.928L21.135 50.878H23.235V61H21.702V52.936L18.902 61H17.593L14.807 52.999V61H13.281ZM27.5488 61.14C27.0821 61.14 26.6668 61.056 26.3028 60.888C25.9434 60.72 25.6611 60.4773 25.4558 60.16C25.2504 59.8427 25.1478 59.46 25.1478 59.012C25.1478 58.2093 25.4301 57.6097 25.9948 57.213C26.5641 56.8163 27.4741 56.6063 28.7248 56.583L29.9148 56.548V56.023C29.9148 55.6077 29.7911 55.281 29.5438 55.043C29.2964 54.805 28.9138 54.6883 28.3958 54.693C28.0131 54.693 27.6701 54.7817 27.3668 54.959C27.0634 55.1363 26.8651 55.428 26.7718 55.834H25.4768C25.5048 55.3533 25.6424 54.9497 25.8898 54.623C26.1418 54.2917 26.4871 54.042 26.9258 53.874C27.3644 53.706 27.8778 53.622 28.4658 53.622C29.1284 53.622 29.6721 53.713 30.0968 53.895C30.5214 54.0723 30.8364 54.3337 31.0418 54.679C31.2518 55.0243 31.3568 55.4443 31.3568 55.939V61H30.0828L29.9708 59.67C29.7001 60.2253 29.3571 60.6103 28.9418 60.825C28.5264 61.035 28.0621 61.14 27.5488 61.14ZM28.0178 60.097C28.2464 60.097 28.4728 60.0573 28.6968 59.978C28.9208 59.894 29.1238 59.782 29.3058 59.642C29.4878 59.4973 29.6324 59.3363 29.7398 59.159C29.8518 58.9817 29.9101 58.7997 29.9148 58.613V57.416L28.9348 57.437C28.4354 57.4417 28.0108 57.493 27.6608 57.591C27.3154 57.689 27.0494 57.8407 26.8628 58.046C26.6808 58.2513 26.5898 58.5243 26.5898 58.865C26.5898 59.2523 26.7228 59.5557 26.9888 59.775C27.2594 59.9897 27.6024 60.097 28.0178 60.097ZM36.2517 61.14C35.5984 61.14 35.0174 60.9977 34.5087 60.713C34.0001 60.4237 33.6011 60.0013 33.3117 59.446C33.0224 58.886 32.8777 58.207 32.8777 57.409C32.8777 56.6577 33.0107 55.9973 33.2767 55.428C33.5474 54.8587 33.9347 54.4153 34.4387 54.098C34.9427 53.7807 35.5471 53.622 36.2517 53.622C36.7977 53.622 37.2807 53.7293 37.7007 53.944C38.1207 54.154 38.4614 54.448 38.7227 54.826C38.9887 55.204 39.1497 55.645 39.2057 56.149H37.9037C37.8664 55.911 37.7777 55.6893 37.6377 55.484C37.4977 55.2787 37.3134 55.1153 37.0847 54.994C36.8561 54.868 36.5831 54.805 36.2657 54.805C35.6824 54.805 35.2087 55.0173 34.8447 55.442C34.4807 55.8667 34.2987 56.5177 34.2987 57.395C34.2987 58.1977 34.4691 58.837 34.8097 59.313C35.1504 59.789 35.6427 60.027 36.2867 60.027C36.6041 60.027 36.8771 59.9617 37.1057 59.831C37.3344 59.7003 37.5164 59.5323 37.6517 59.327C37.7917 59.1217 37.8804 58.9093 37.9177 58.69H39.1917C39.1357 59.1753 38.9747 59.6023 38.7087 59.971C38.4474 60.3397 38.1067 60.6267 37.6867 60.832C37.2667 61.0373 36.7884 61.14 36.2517 61.14ZM44.5266 61.14C44.1206 61.14 43.7753 61.0863 43.4906 60.979C43.2059 60.8717 42.9703 60.734 42.7836 60.566C42.6016 60.398 42.4569 60.2207 42.3496 60.034C42.2469 59.8473 42.1676 59.6747 42.1116 59.516L41.9506 61H40.8236V50.598H42.3356V54.861C42.4009 54.735 42.4966 54.5997 42.6226 54.455C42.7533 54.3103 42.9143 54.175 43.1056 54.049C43.3016 53.923 43.5279 53.8203 43.7846 53.741C44.0413 53.6617 44.3306 53.622 44.6526 53.622C45.5533 53.622 46.2673 53.9393 46.7946 54.574C47.3266 55.2087 47.5926 56.1327 47.5926 57.346C47.5926 58.1113 47.4783 58.7787 47.2496 59.348C47.0209 59.9127 46.6779 60.3537 46.2206 60.671C45.7679 60.9837 45.2033 61.14 44.5266 61.14ZM44.2326 60.013C44.7833 60.013 45.2313 59.7983 45.5766 59.369C45.9266 58.9397 46.1016 58.249 46.1016 57.297C46.1016 56.4757 45.9383 55.848 45.6116 55.414C45.2896 54.98 44.8229 54.763 44.2116 54.763C43.7729 54.763 43.4159 54.861 43.1406 55.057C42.8653 55.2483 42.6623 55.533 42.5316 55.911C42.4056 56.289 42.3403 56.751 42.3356 57.297C42.3356 58.263 42.4849 58.9583 42.7836 59.383C43.0823 59.803 43.5653 60.013 44.2326 60.013ZM52.1861 61.14C51.5095 61.14 50.9191 60.9953 50.4151 60.706C49.9111 60.412 49.5191 59.9873 49.2391 59.432C48.9591 58.8767 48.8191 58.2047 48.8191 57.416C48.8191 56.6553 48.9521 55.9903 49.2181 55.421C49.4841 54.8517 49.8668 54.4107 50.3661 54.098C50.8701 53.7807 51.4791 53.622 52.1931 53.622C52.8745 53.622 53.4648 53.7713 53.9641 54.07C54.4635 54.364 54.8508 54.7957 55.1261 55.365C55.4015 55.9297 55.5391 56.6133 55.5391 57.416C55.5391 58.1487 55.4108 58.795 55.1541 59.355C54.8975 59.915 54.5195 60.3537 54.0201 60.671C53.5255 60.9837 52.9141 61.14 52.1861 61.14ZM52.1931 59.985C52.6085 59.985 52.9538 59.8777 53.2291 59.663C53.5045 59.4437 53.7121 59.138 53.8521 58.746C53.9921 58.3493 54.0621 57.892 54.0621 57.374C54.0621 56.8933 53.9991 56.457 53.8731 56.065C53.7518 55.6683 53.5535 55.3533 53.2781 55.12C53.0075 54.8867 52.6458 54.77 52.1931 54.77C51.7778 54.77 51.4278 54.8773 51.1431 55.092C50.8631 55.302 50.6531 55.603 50.5131 55.995C50.3731 56.3823 50.3031 56.842 50.3031 57.374C50.3031 57.8453 50.3661 58.2793 50.4921 58.676C50.6181 59.0727 50.8188 59.39 51.0941 59.628C51.3741 59.866 51.7405 59.985 52.1931 59.985ZM60.1432 61.14C59.4665 61.14 58.8762 60.9953 58.3722 60.706C57.8682 60.412 57.4762 59.9873 57.1962 59.432C56.9162 58.8767 56.7762 58.2047 56.7762 57.416C56.7762 56.6553 56.9092 55.9903 57.1752 55.421C57.4412 54.8517 57.8238 54.4107 58.3232 54.098C58.8272 53.7807 59.4362 53.622 60.1502 53.622C60.8315 53.622 61.4218 53.7713 61.9212 54.07C62.4205 54.364 62.8078 54.7957 63.0832 55.365C63.3585 55.9297 63.4962 56.6133 63.4962 57.416C63.4962 58.1487 63.3678 58.795 63.1112 59.355C62.8545 59.915 62.4765 60.3537 61.9772 60.671C61.4825 60.9837 60.8712 61.14 60.1432 61.14ZM60.1502 59.985C60.5655 59.985 60.9108 59.8777 61.1862 59.663C61.4615 59.4437 61.6692 59.138 61.8092 58.746C61.9492 58.3493 62.0192 57.892 62.0192 57.374C62.0192 56.8933 61.9562 56.457 61.8302 56.065C61.7088 55.6683 61.5105 55.3533 61.2352 55.12C60.9645 54.8867 60.6028 54.77 60.1502 54.77C59.7348 54.77 59.3848 54.8773 59.1002 55.092C58.8202 55.302 58.6102 55.603 58.4702 55.995C58.3302 56.3823 58.2602 56.842 58.2602 57.374C58.2602 57.8453 58.3232 58.2793 58.4492 58.676C58.5752 59.0727 58.7758 59.39 59.0512 59.628C59.3312 59.866 59.6975 59.985 60.1502 59.985ZM65.1322 61V50.598H66.6302V57.213L69.8292 53.762H71.5092L68.8912 56.555L71.6632 61H70.1092L67.9322 57.507L66.6302 58.858V61H65.1322Z" fill="white"/>
<rect x="93.5" y="40.5" width="52" height="31" rx="1.5" stroke="#303639"/>
<path d="M109.809 61.14C109.314 61.14 108.838 61.0793 108.381 60.958C107.928 60.8367 107.515 60.657 107.142 60.419C106.773 60.1763 106.468 59.8753 106.225 59.516C105.987 59.1567 105.838 58.7367 105.777 58.256H107.338C107.417 58.62 107.574 58.9257 107.807 59.173C108.045 59.4203 108.341 59.607 108.696 59.733C109.055 59.859 109.452 59.922 109.886 59.922C110.287 59.922 110.658 59.859 110.999 59.733C111.34 59.607 111.615 59.425 111.825 59.187C112.035 58.949 112.14 58.6573 112.14 58.312C112.14 57.9247 112.009 57.619 111.748 57.395C111.491 57.1663 111.104 56.9843 110.586 56.849L108.556 56.345C108.066 56.2283 107.634 56.0627 107.261 55.848C106.888 55.6287 106.598 55.3417 106.393 54.987C106.188 54.6277 106.085 54.1843 106.085 53.657C106.085 53.069 106.246 52.558 106.568 52.124C106.895 51.6853 107.336 51.347 107.891 51.109C108.451 50.871 109.083 50.752 109.788 50.752C110.595 50.752 111.274 50.8897 111.825 51.165C112.38 51.4403 112.8 51.8043 113.085 52.257C113.374 52.705 113.521 53.1927 113.526 53.72H112C111.958 53.2907 111.83 52.95 111.615 52.698C111.405 52.4413 111.137 52.257 110.81 52.145C110.488 52.033 110.131 51.977 109.739 51.977C109.048 51.977 108.528 52.131 108.178 52.439C107.833 52.7423 107.66 53.104 107.66 53.524C107.66 53.9113 107.786 54.217 108.038 54.441C108.295 54.665 108.673 54.8377 109.172 54.959L111.132 55.442C111.748 55.5773 112.24 55.7803 112.609 56.051C112.982 56.317 113.251 56.632 113.414 56.996C113.577 57.3553 113.659 57.7497 113.659 58.179C113.659 58.753 113.498 59.264 113.176 59.712C112.854 60.1553 112.404 60.5053 111.825 60.762C111.251 61.014 110.579 61.14 109.809 61.14ZM119.366 61.14C118.871 61.14 118.395 61.0793 117.938 60.958C117.485 60.8367 117.072 60.657 116.699 60.419C116.33 60.1763 116.024 59.8753 115.782 59.516C115.544 59.1567 115.394 58.7367 115.334 58.256H116.895C116.974 58.62 117.13 58.9257 117.364 59.173C117.602 59.4203 117.898 59.607 118.253 59.733C118.612 59.859 119.009 59.922 119.443 59.922C119.844 59.922 120.215 59.859 120.556 59.733C120.896 59.607 121.172 59.425 121.382 59.187C121.592 58.949 121.697 58.6573 121.697 58.312C121.697 57.9247 121.566 57.619 121.305 57.395C121.048 57.1663 120.661 56.9843 120.143 56.849L118.113 56.345C117.623 56.2283 117.191 56.0627 116.818 55.848C116.444 55.6287 116.155 55.3417 115.95 54.987C115.744 54.6277 115.642 54.1843 115.642 53.657C115.642 53.069 115.803 52.558 116.125 52.124C116.451 51.6853 116.892 51.347 117.448 51.109C118.008 50.871 118.64 50.752 119.345 50.752C120.152 50.752 120.831 50.8897 121.382 51.165C121.937 51.4403 122.357 51.8043 122.642 52.257C122.931 52.705 123.078 53.1927 123.083 53.72H121.557C121.515 53.2907 121.386 52.95 121.172 52.698C120.962 52.4413 120.693 52.257 120.367 52.145C120.045 52.033 119.688 51.977 119.296 51.977C118.605 51.977 118.085 52.131 117.735 52.439C117.389 52.7423 117.217 53.104 117.217 53.524C117.217 53.9113 117.343 54.217 117.595 54.441C117.851 54.665 118.229 54.8377 118.729 54.959L120.689 55.442C121.305 55.5773 121.797 55.7803 122.166 56.051C122.539 56.317 122.807 56.632 122.971 56.996C123.134 57.3553 123.216 57.7497 123.216 58.179C123.216 58.753 123.055 59.264 122.733 59.712C122.411 60.1553 121.96 60.5053 121.382 60.762C120.808 61.014 120.136 61.14 119.366 61.14ZM125.258 61V50.878C125.295 50.878 125.405 50.8803 125.587 50.885C125.773 50.885 125.997 50.885 126.259 50.885C126.52 50.8803 126.786 50.8803 127.057 50.885C127.332 50.885 127.577 50.8873 127.792 50.892C129.028 50.9107 130.034 51.116 130.809 51.508C131.583 51.9 132.15 52.4647 132.51 53.202C132.874 53.9347 133.056 54.8283 133.056 55.883C133.056 56.9797 132.862 57.9107 132.475 58.676C132.087 59.4367 131.495 60.0153 130.697 60.412C129.903 60.804 128.898 61 127.68 61H125.258ZM126.784 59.74H127.694C128.459 59.74 129.124 59.6163 129.689 59.369C130.258 59.117 130.699 58.711 131.012 58.151C131.324 57.5863 131.481 56.8327 131.481 55.89C131.481 54.966 131.331 54.231 131.033 53.685C130.734 53.1343 130.305 52.74 129.745 52.502C129.189 52.2593 128.52 52.138 127.736 52.138H126.784V59.74Z" fill="white"/>
<rect x="154.5" y="40.5" width="116" height="31" rx="1.5" fill="#303639"/>
<rect x="154.5" y="40.5" width="116" height="31" rx="1.5" stroke="white"/>
<path d="M171.103 61.14C170.202 61.14 169.425 60.9347 168.772 60.524C168.119 60.1133 167.615 59.523 167.26 58.753C166.91 57.9783 166.735 57.0497 166.735 55.967C166.735 54.875 166.915 53.9393 167.274 53.16C167.638 52.376 168.154 51.7763 168.821 51.361C169.488 50.9457 170.272 50.738 171.173 50.738C171.71 50.738 172.207 50.829 172.664 51.011C173.126 51.193 173.532 51.4403 173.882 51.753C174.237 52.0657 174.517 52.4203 174.722 52.817C174.927 53.2137 175.044 53.629 175.072 54.063H173.476C173.411 53.7037 173.271 53.3723 173.056 53.069C172.846 52.761 172.578 52.5137 172.251 52.327C171.924 52.1403 171.556 52.047 171.145 52.047C170.599 52.047 170.116 52.1823 169.696 52.453C169.276 52.7237 168.947 53.146 168.709 53.72C168.476 54.2893 168.359 55.0267 168.359 55.932C168.359 56.6367 168.431 57.2363 168.576 57.731C168.725 58.2257 168.928 58.6247 169.185 58.928C169.442 59.2313 169.743 59.453 170.088 59.593C170.433 59.7283 170.802 59.796 171.194 59.796C171.581 59.796 171.922 59.7283 172.216 59.593C172.51 59.4577 172.755 59.2827 172.951 59.068C173.152 58.8533 173.306 58.6223 173.413 58.375C173.525 58.123 173.59 57.8803 173.609 57.647L173.658 56.828H171.292V55.75L175.219 55.764V61H174.134V59.516C173.957 59.7913 173.735 60.0527 173.469 60.3C173.203 60.5473 172.876 60.7503 172.489 60.909C172.102 61.063 171.64 61.14 171.103 61.14ZM177.378 61V53.762H178.813V55.246C178.935 54.8913 179.103 54.595 179.317 54.357C179.537 54.1143 179.791 53.9323 180.08 53.811C180.37 53.685 180.675 53.622 180.997 53.622C181.095 53.622 181.189 53.629 181.277 53.643C181.366 53.6523 181.436 53.671 181.487 53.699V55.141C181.427 55.113 181.347 55.0943 181.249 55.085C181.156 55.0757 181.074 55.0687 181.004 55.064C180.687 55.0407 180.398 55.057 180.136 55.113C179.875 55.169 179.649 55.2623 179.457 55.393C179.271 55.5237 179.126 55.694 179.023 55.904C178.925 56.114 178.876 56.3613 178.876 56.646V61H177.378ZM184.762 61.14C184.295 61.14 183.88 61.056 183.516 60.888C183.156 60.72 182.874 60.4773 182.669 60.16C182.463 59.8427 182.361 59.46 182.361 59.012C182.361 58.2093 182.643 57.6097 183.208 57.213C183.777 56.8163 184.687 56.6063 185.938 56.583L187.128 56.548V56.023C187.128 55.6077 187.004 55.281 186.757 55.043C186.509 54.805 186.127 54.6883 185.609 54.693C185.226 54.693 184.883 54.7817 184.58 54.959C184.276 55.1363 184.078 55.428 183.985 55.834H182.69C182.718 55.3533 182.855 54.9497 183.103 54.623C183.355 54.2917 183.7 54.042 184.139 53.874C184.577 53.706 185.091 53.622 185.679 53.622C186.341 53.622 186.885 53.713 187.31 53.895C187.734 54.0723 188.049 54.3337 188.255 54.679C188.465 55.0243 188.57 55.4443 188.57 55.939V61H187.296L187.184 59.67C186.913 60.2253 186.57 60.6103 186.155 60.825C185.739 61.035 185.275 61.14 184.762 61.14ZM185.231 60.097C185.459 60.097 185.686 60.0573 185.91 59.978C186.134 59.894 186.337 59.782 186.519 59.642C186.701 59.4973 186.845 59.3363 186.953 59.159C187.065 58.9817 187.123 58.7997 187.128 58.613V57.416L186.148 57.437C185.648 57.4417 185.224 57.493 184.874 57.591C184.528 57.689 184.262 57.8407 184.076 58.046C183.894 58.2513 183.803 58.5243 183.803 58.865C183.803 59.2523 183.936 59.5557 184.202 59.775C184.472 59.9897 184.815 60.097 185.231 60.097ZM190.49 63.254V53.762H191.988L192.002 54.966C192.09 54.8073 192.205 54.651 192.345 54.497C192.485 54.3383 192.65 54.1937 192.842 54.063C193.038 53.9277 193.259 53.8203 193.507 53.741C193.759 53.6617 194.036 53.622 194.34 53.622C194.909 53.622 195.411 53.755 195.845 54.021C196.283 54.2823 196.624 54.686 196.867 55.232C197.114 55.7733 197.238 56.4617 197.238 57.297C197.238 58.137 197.114 58.8417 196.867 59.411C196.624 59.9803 196.276 60.412 195.824 60.706C195.371 60.9953 194.834 61.14 194.214 61.14C193.915 61.14 193.647 61.098 193.409 61.014C193.171 60.93 192.961 60.8203 192.779 60.685C192.597 60.545 192.44 60.3957 192.31 60.237C192.184 60.0737 192.079 59.9127 191.995 59.754V63.254H190.49ZM193.899 59.999C194.454 59.999 194.909 59.7843 195.264 59.355C195.623 58.921 195.803 58.2443 195.803 57.325C195.803 56.5363 195.637 55.9133 195.306 55.456C194.979 54.994 194.51 54.763 193.899 54.763C193.269 54.763 192.793 55.0033 192.471 55.484C192.149 55.96 191.988 56.5737 191.988 57.325C191.988 57.815 192.058 58.263 192.198 58.669C192.342 59.0703 192.557 59.3923 192.842 59.635C193.126 59.8777 193.479 59.999 193.899 59.999ZM198.87 61V50.598H200.347V54.819C200.464 54.6277 200.62 54.4457 200.816 54.273C201.017 54.1003 201.26 53.9603 201.544 53.853C201.834 53.741 202.17 53.685 202.552 53.685C203.024 53.685 203.448 53.7737 203.826 53.951C204.209 54.1237 204.512 54.3757 204.736 54.707C204.965 55.0337 205.079 55.4233 205.079 55.876V61H203.581V56.149C203.581 55.743 203.441 55.4303 203.161 55.211C202.881 54.9917 202.522 54.882 202.083 54.882C201.789 54.882 201.509 54.9333 201.243 55.036C200.982 55.134 200.77 55.2833 200.606 55.484C200.448 55.68 200.368 55.9273 200.368 56.226V61H198.87ZM207.04 61V53.762H208.482V61H207.04ZM207.005 52.362V50.885H208.51V52.362H207.005ZM213.521 61.14C212.868 61.14 212.287 60.9977 211.778 60.713C211.27 60.4237 210.871 60.0013 210.581 59.446C210.292 58.886 210.147 58.207 210.147 57.409C210.147 56.6577 210.28 55.9973 210.546 55.428C210.817 54.8587 211.204 54.4153 211.708 54.098C212.212 53.7807 212.817 53.622 213.521 53.622C214.067 53.622 214.55 53.7293 214.97 53.944C215.39 54.154 215.731 54.448 215.992 54.826C216.258 55.204 216.419 55.645 216.475 56.149H215.173C215.136 55.911 215.047 55.6893 214.907 55.484C214.767 55.2787 214.583 55.1153 214.354 54.994C214.126 54.868 213.853 54.805 213.535 54.805C212.952 54.805 212.478 55.0173 212.114 55.442C211.75 55.8667 211.568 56.5177 211.568 57.395C211.568 58.1977 211.739 58.837 212.079 59.313C212.42 59.789 212.912 60.027 213.556 60.027C213.874 60.027 214.147 59.9617 214.375 59.831C214.604 59.7003 214.786 59.5323 214.921 59.327C215.061 59.1217 215.15 58.9093 215.187 58.69H216.461C216.405 59.1753 216.244 59.6023 215.978 59.971C215.717 60.3397 215.376 60.6267 214.956 60.832C214.536 61.0373 214.058 61.14 213.521 61.14ZM220.829 61.14C220.325 61.14 219.851 61.0607 219.408 60.902C218.969 60.7433 218.601 60.4937 218.302 60.153C218.008 59.8123 217.824 59.376 217.749 58.844H219.086C219.147 59.1193 219.261 59.348 219.429 59.53C219.602 59.7073 219.807 59.8403 220.045 59.929C220.288 60.013 220.547 60.055 220.822 60.055C221.279 60.055 221.65 59.9733 221.935 59.81C222.22 59.642 222.362 59.3853 222.362 59.04C222.362 58.7927 222.285 58.5943 222.131 58.445C221.977 58.2957 221.737 58.186 221.41 58.116L219.968 57.773C219.371 57.633 218.892 57.4113 218.533 57.108C218.174 56.8 217.992 56.3707 217.987 55.82C217.987 55.3953 218.092 55.0173 218.302 54.686C218.517 54.3547 218.834 54.0957 219.254 53.909C219.679 53.7177 220.201 53.622 220.822 53.622C221.639 53.622 222.294 53.804 222.789 54.168C223.288 54.532 223.545 55.0593 223.559 55.75H222.264C222.217 55.4187 222.066 55.1597 221.809 54.973C221.557 54.7817 221.223 54.686 220.808 54.686C220.379 54.686 220.026 54.7723 219.751 54.945C219.476 55.113 219.338 55.372 219.338 55.722C219.338 55.96 219.438 56.149 219.639 56.289C219.844 56.4243 220.145 56.5363 220.542 56.625L221.914 56.968C222.269 57.0613 222.56 57.185 222.789 57.339C223.018 57.4883 223.197 57.654 223.328 57.836C223.459 58.018 223.55 58.207 223.601 58.403C223.657 58.599 223.685 58.7833 223.685 58.956C223.685 59.4133 223.568 59.8053 223.335 60.132C223.106 60.454 222.78 60.7037 222.355 60.881C221.93 61.0537 221.422 61.14 220.829 61.14ZM232.674 61.14C231.76 61.14 230.976 60.93 230.322 60.51C229.669 60.0853 229.167 59.4833 228.817 58.704C228.472 57.92 228.299 56.982 228.299 55.89C228.299 54.8027 228.472 53.8763 228.817 53.111C229.163 52.341 229.662 51.753 230.315 51.347C230.969 50.941 231.755 50.738 232.674 50.738C233.402 50.738 234.049 50.8873 234.613 51.186C235.178 51.4847 235.631 51.886 235.971 52.39C236.317 52.894 236.522 53.4517 236.587 54.063H234.991C234.921 53.6803 234.786 53.335 234.585 53.027C234.389 52.7143 234.128 52.4693 233.801 52.292C233.475 52.11 233.087 52.019 232.639 52.019C232.065 52.019 231.578 52.1543 231.176 52.425C230.775 52.6957 230.469 53.118 230.259 53.692C230.054 54.266 229.951 55.0057 229.951 55.911C229.951 57.2783 230.182 58.2793 230.644 58.914C231.106 59.544 231.771 59.859 232.639 59.859C233.087 59.859 233.475 59.7633 233.801 59.572C234.128 59.376 234.389 59.117 234.585 58.795C234.786 58.4683 234.921 58.1137 234.991 57.731H236.587C236.531 58.1743 236.415 58.6013 236.237 59.012C236.06 59.418 235.813 59.782 235.495 60.104C235.183 60.426 234.793 60.6803 234.326 60.867C233.86 61.049 233.309 61.14 232.674 61.14ZM240.269 61.14C239.803 61.14 239.387 61.056 239.023 60.888C238.664 60.72 238.382 60.4773 238.176 60.16C237.971 59.8427 237.868 59.46 237.868 59.012C237.868 58.2093 238.151 57.6097 238.715 57.213C239.285 56.8163 240.195 56.6063 241.445 56.583L242.635 56.548V56.023C242.635 55.6077 242.512 55.281 242.264 55.043C242.017 54.805 241.634 54.6883 241.116 54.693C240.734 54.693 240.391 54.7817 240.087 54.959C239.784 55.1363 239.586 55.428 239.492 55.834H238.197C238.225 55.3533 238.363 54.9497 238.61 54.623C238.862 54.2917 239.208 54.042 239.646 53.874C240.085 53.706 240.598 53.622 241.186 53.622C241.849 53.622 242.393 53.713 242.817 53.895C243.242 54.0723 243.557 54.3337 243.762 54.679C243.972 55.0243 244.077 55.4443 244.077 55.939V61H242.803L242.691 59.67C242.421 60.2253 242.078 60.6103 241.662 60.825C241.247 61.035 240.783 61.14 240.269 61.14ZM240.738 60.097C240.967 60.097 241.193 60.0573 241.417 59.978C241.641 59.894 241.844 59.782 242.026 59.642C242.208 59.4973 242.353 59.3363 242.46 59.159C242.572 58.9817 242.631 58.7997 242.635 58.613V57.416L241.655 57.437C241.156 57.4417 240.731 57.493 240.381 57.591C240.036 57.689 239.77 57.8407 239.583 58.046C239.401 58.2513 239.31 58.5243 239.31 58.865C239.31 59.2523 239.443 59.5557 239.709 59.775C239.98 59.9897 240.323 60.097 240.738 60.097ZM245.997 61V53.762H247.432V55.246C247.554 54.8913 247.722 54.595 247.936 54.357C248.156 54.1143 248.41 53.9323 248.699 53.811C248.989 53.685 249.294 53.622 249.616 53.622C249.714 53.622 249.808 53.629 249.896 53.643C249.985 53.6523 250.055 53.671 250.106 53.699V55.141C250.046 55.113 249.966 55.0943 249.868 55.085C249.775 55.0757 249.693 55.0687 249.623 55.064C249.306 55.0407 249.017 55.057 248.755 55.113C248.494 55.169 248.268 55.2623 248.076 55.393C247.89 55.5237 247.745 55.694 247.642 55.904C247.544 56.114 247.495 56.3613 247.495 56.646V61H245.997ZM254.133 61.14C253.186 61.14 252.437 60.8157 251.886 60.167C251.34 59.5137 251.067 58.5733 251.067 57.346C251.067 56.5947 251.177 55.9413 251.396 55.386C251.62 54.826 251.949 54.392 252.383 54.084C252.817 53.776 253.359 53.622 254.007 53.622C254.329 53.622 254.619 53.6617 254.875 53.741C255.132 53.8203 255.356 53.923 255.547 54.049C255.739 54.175 255.9 54.3103 256.03 54.455C256.161 54.5997 256.259 54.735 256.324 54.861V50.598H257.836V61H256.709L256.541 59.516C256.49 59.6747 256.411 59.8473 256.303 60.034C256.201 60.2207 256.056 60.398 255.869 60.566C255.687 60.734 255.454 60.8717 255.169 60.979C254.885 61.0863 254.539 61.14 254.133 61.14ZM254.42 60.013C255.092 60.013 255.578 59.803 255.876 59.383C256.175 58.9583 256.324 58.263 256.324 57.297C256.32 56.751 256.252 56.289 256.121 55.911C255.995 55.533 255.795 55.2483 255.519 55.057C255.249 54.861 254.892 54.763 254.448 54.763C253.893 54.763 253.438 54.9637 253.083 55.365C252.733 55.7617 252.558 56.4057 252.558 57.297C252.558 58.1743 252.717 58.8463 253.034 59.313C253.356 59.7797 253.818 60.013 254.42 60.013Z" fill="white"/>
<rect x="0.5" y="80.5" width="101" height="31" rx="1.5" stroke="#303639"/>
<path d="M13.281 101V90.878H16.788C17.5113 90.878 18.1577 91.0017 18.727 91.249C19.301 91.4963 19.7513 91.8603 20.078 92.341C20.4093 92.8217 20.575 93.412 20.575 94.112C20.575 94.784 20.4233 95.358 20.12 95.834C19.8213 96.3053 19.4013 96.667 18.86 96.919C18.3233 97.1663 17.7003 97.29 16.991 97.29H14.807V101H13.281ZM14.8 96.065H16.949C17.593 96.065 18.118 95.8807 18.524 95.512C18.93 95.1387 19.133 94.644 19.133 94.028C19.133 93.4027 18.923 92.9243 18.503 92.593C18.083 92.257 17.5463 92.089 16.893 92.089H14.8V96.065ZM24.8014 101.14C24.1247 101.14 23.5344 100.995 23.0304 100.706C22.5264 100.412 22.1344 99.9873 21.8544 99.432C21.5744 98.8767 21.4344 98.2047 21.4344 97.416C21.4344 96.6553 21.5674 95.9903 21.8334 95.421C22.0994 94.8517 22.482 94.4107 22.9814 94.098C23.4854 93.7807 24.0944 93.622 24.8084 93.622C25.4897 93.622 26.08 93.7713 26.5794 94.07C27.0787 94.364 27.466 94.7957 27.7414 95.365C28.0167 95.9297 28.1544 96.6133 28.1544 97.416C28.1544 98.1487 28.026 98.795 27.7694 99.355C27.5127 99.915 27.1347 100.354 26.6354 100.671C26.1407 100.984 25.5294 101.14 24.8014 101.14ZM24.8084 99.985C25.2237 99.985 25.569 99.8777 25.8444 99.663C26.1197 99.4437 26.3274 99.138 26.4674 98.746C26.6074 98.3493 26.6774 97.892 26.6774 97.374C26.6774 96.8933 26.6144 96.457 26.4884 96.065C26.367 95.6683 26.1687 95.3533 25.8934 95.12C25.6227 94.8867 25.261 94.77 24.8084 94.77C24.393 94.77 24.043 94.8773 23.7584 95.092C23.4784 95.302 23.2684 95.603 23.1284 95.995C22.9884 96.3823 22.9184 96.842 22.9184 97.374C22.9184 97.8453 22.9814 98.2793 23.1074 98.676C23.2334 99.0727 23.434 99.39 23.7094 99.628C23.9894 99.866 24.3557 99.985 24.8084 99.985ZM31.2423 101L28.9743 93.762H30.3393L31.9213 99.033H32.0193L33.5663 93.762H34.6793L36.2753 99.019H36.3733L37.8993 93.762H39.2853L37.0383 101H35.6663L34.0983 95.918L32.5933 101H31.2423ZM43.5905 101.14C42.9045 101.14 42.3001 100.993 41.7775 100.699C41.2548 100.4 40.8465 99.9757 40.5525 99.425C40.2631 98.8743 40.1185 98.2187 40.1185 97.458C40.1185 96.7067 40.2515 96.044 40.5175 95.47C40.7835 94.8913 41.1685 94.4387 41.6725 94.112C42.1765 93.7853 42.7831 93.622 43.4925 93.622C44.1878 93.622 44.7758 93.7713 45.2565 94.07C45.7371 94.3687 46.1011 94.7887 46.3485 95.33C46.5958 95.8667 46.7195 96.5013 46.7195 97.234V97.731H41.6235C41.6188 98.165 41.6888 98.5547 41.8335 98.9C41.9781 99.2407 42.1928 99.5113 42.4775 99.712C42.7668 99.908 43.1261 100.006 43.5555 100.006C43.9895 100.006 44.3628 99.908 44.6755 99.712C44.9928 99.516 45.2005 99.2243 45.2985 98.837H46.6845C46.6005 99.3317 46.4021 99.7517 46.0895 100.097C45.7768 100.442 45.4011 100.704 44.9625 100.881C44.5238 101.054 44.0665 101.14 43.5905 101.14ZM41.6235 96.758H45.2915C45.2915 96.38 45.2261 96.037 45.0955 95.729C44.9648 95.4163 44.7641 95.1713 44.4935 94.994C44.2275 94.812 43.8915 94.721 43.4855 94.721C43.0701 94.721 42.7248 94.8213 42.4495 95.022C42.1741 95.2227 41.9665 95.4793 41.8265 95.792C41.6911 96.1047 41.6235 96.4267 41.6235 96.758ZM48.4252 101V93.762H49.8602V95.246C49.9815 94.8913 50.1495 94.595 50.3642 94.357C50.5835 94.1143 50.8378 93.9323 51.1272 93.811C51.4165 93.685 51.7222 93.622 52.0442 93.622C52.1422 93.622 52.2355 93.629 52.3242 93.643C52.4128 93.6523 52.4828 93.671 52.5342 93.699V95.141C52.4735 95.113 52.3942 95.0943 52.2962 95.085C52.2028 95.0757 52.1212 95.0687 52.0512 95.064C51.7338 95.0407 51.4445 95.057 51.1832 95.113C50.9218 95.169 50.6955 95.2623 50.5042 95.393C50.3175 95.5237 50.1728 95.694 50.0702 95.904C49.9722 96.114 49.9232 96.3613 49.9232 96.646V101H48.4252ZM57.5779 101V90.878H60.9449C62.2002 90.878 63.1452 91.1043 63.7799 91.557C64.4192 92.0097 64.7389 92.663 64.7389 93.517C64.7389 94.0443 64.6012 94.4993 64.3259 94.882C64.0552 95.26 63.5792 95.5773 62.8979 95.834C63.2992 95.9227 63.6352 96.051 63.9059 96.219C64.1765 96.3823 64.3889 96.5713 64.5429 96.786C64.7015 97.0007 64.8135 97.234 64.8789 97.486C64.9489 97.738 64.9839 97.9993 64.9839 98.27C64.9839 99.1893 64.6595 99.8753 64.0109 100.328C63.3669 100.776 62.3845 101 61.0639 101H57.5779ZM59.0759 99.782H61.0709C61.8549 99.782 62.4499 99.649 62.8559 99.383C63.2619 99.1123 63.4649 98.7087 63.4649 98.172C63.4649 97.7847 63.3645 97.4673 63.1639 97.22C62.9632 96.9727 62.6925 96.7907 62.3519 96.674C62.0112 96.5573 61.6309 96.499 61.2109 96.499H59.0759V99.782ZM59.0759 95.26H61.2109C61.4629 95.26 61.7102 95.2343 61.9529 95.183C62.1955 95.1317 62.4172 95.0477 62.6179 94.931C62.8185 94.8097 62.9795 94.6487 63.1009 94.448C63.2222 94.2473 63.2829 94.0023 63.2829 93.713C63.2829 93.1623 63.0752 92.754 62.6599 92.488C62.2445 92.222 61.7055 92.089 61.0429 92.089H59.0759V95.26ZM68.8105 101.14C68.3438 101.14 67.9285 101.056 67.5645 100.888C67.2051 100.72 66.9228 100.477 66.7175 100.16C66.5121 99.8427 66.4095 99.46 66.4095 99.012C66.4095 98.2093 66.6918 97.6097 67.2565 97.213C67.8258 96.8163 68.7358 96.6063 69.9865 96.583L71.1765 96.548V96.023C71.1765 95.6077 71.0528 95.281 70.8055 95.043C70.5581 94.805 70.1755 94.6883 69.6575 94.693C69.2748 94.693 68.9318 94.7817 68.6285 94.959C68.3251 95.1363 68.1268 95.428 68.0335 95.834H66.7385C66.7665 95.3533 66.9041 94.9497 67.1515 94.623C67.4035 94.2917 67.7488 94.042 68.1875 93.874C68.6261 93.706 69.1395 93.622 69.7275 93.622C70.3901 93.622 70.9338 93.713 71.3585 93.895C71.7831 94.0723 72.0981 94.3337 72.3035 94.679C72.5135 95.0243 72.6185 95.4443 72.6185 95.939V101H71.3445L71.2325 99.67C70.9618 100.225 70.6188 100.61 70.2035 100.825C69.7881 101.035 69.3238 101.14 68.8105 101.14ZM69.2795 100.097C69.5081 100.097 69.7345 100.057 69.9585 99.978C70.1825 99.894 70.3855 99.782 70.5675 99.642C70.7495 99.4973 70.8941 99.3363 71.0015 99.159C71.1135 98.9817 71.1718 98.7997 71.1765 98.613V97.416L70.1965 97.437C69.6971 97.4417 69.2725 97.493 68.9225 97.591C68.5771 97.689 68.3111 97.8407 68.1245 98.046C67.9425 98.2513 67.8515 98.5243 67.8515 98.865C67.8515 99.2523 67.9845 99.5557 68.2505 99.775C68.5211 99.9897 68.8641 100.097 69.2795 100.097ZM74.5384 101V93.762H76.0014V94.805C76.1181 94.609 76.2744 94.4247 76.4704 94.252C76.6711 94.0793 76.9161 93.9393 77.2054 93.832C77.4994 93.7247 77.8378 93.671 78.2204 93.671C78.6731 93.671 79.0908 93.762 79.4734 93.944C79.8608 94.1213 80.1711 94.4013 80.4044 94.784C80.6378 95.162 80.7544 95.652 80.7544 96.254V101H79.2564V96.415C79.2564 95.897 79.1164 95.512 78.8364 95.26C78.5611 95.008 78.2041 94.882 77.7654 94.882C77.4714 94.882 77.1914 94.931 76.9254 95.029C76.6594 95.127 76.4448 95.2763 76.2814 95.477C76.1181 95.673 76.0364 95.9203 76.0364 96.219V101H74.5384ZM82.6732 101V90.598H84.1712V97.213L87.3702 93.762H89.0502L86.4322 96.555L89.2042 101H87.6502L85.4732 97.507L84.1712 98.858V101H82.6732Z" fill="white"/>
<rect x="110.5" y="80.5" width="86" height="31" rx="1.5" stroke="#303639"/>
<path d="M126.809 101.14C126.314 101.14 125.838 101.079 125.381 100.958C124.928 100.837 124.515 100.657 124.142 100.419C123.773 100.176 123.468 99.8753 123.225 99.516C122.987 99.1567 122.838 98.7367 122.777 98.256H124.338C124.417 98.62 124.574 98.9257 124.807 99.173C125.045 99.4203 125.341 99.607 125.696 99.733C126.055 99.859 126.452 99.922 126.886 99.922C127.287 99.922 127.658 99.859 127.999 99.733C128.34 99.607 128.615 99.425 128.825 99.187C129.035 98.949 129.14 98.6573 129.14 98.312C129.14 97.9247 129.009 97.619 128.748 97.395C128.491 97.1663 128.104 96.9843 127.586 96.849L125.556 96.345C125.066 96.2283 124.634 96.0627 124.261 95.848C123.888 95.6287 123.598 95.3417 123.393 94.987C123.188 94.6277 123.085 94.1843 123.085 93.657C123.085 93.069 123.246 92.558 123.568 92.124C123.895 91.6853 124.336 91.347 124.891 91.109C125.451 90.871 126.083 90.752 126.788 90.752C127.595 90.752 128.274 90.8897 128.825 91.165C129.38 91.4403 129.8 91.8043 130.085 92.257C130.374 92.705 130.521 93.1927 130.526 93.72H129C128.958 93.2907 128.83 92.95 128.615 92.698C128.405 92.4413 128.137 92.257 127.81 92.145C127.488 92.033 127.131 91.977 126.739 91.977C126.048 91.977 125.528 92.131 125.178 92.439C124.833 92.7423 124.66 93.104 124.66 93.524C124.66 93.9113 124.786 94.217 125.038 94.441C125.295 94.665 125.673 94.8377 126.172 94.959L128.132 95.442C128.748 95.5773 129.24 95.7803 129.609 96.051C129.982 96.317 130.251 96.632 130.414 96.996C130.577 97.3553 130.659 97.7497 130.659 98.179C130.659 98.753 130.498 99.264 130.176 99.712C129.854 100.155 129.404 100.505 128.825 100.762C128.251 101.014 127.579 101.14 126.809 101.14ZM132.476 101V93.762H133.932V94.805C134.137 94.4877 134.417 94.2123 134.772 93.979C135.127 93.741 135.584 93.622 136.144 93.622C136.405 93.622 136.669 93.6663 136.935 93.755C137.206 93.8437 137.453 93.9767 137.677 94.154C137.906 94.3267 138.085 94.5413 138.216 94.798C138.445 94.4527 138.75 94.1703 139.133 93.951C139.516 93.7317 139.945 93.622 140.421 93.622C140.678 93.622 140.944 93.664 141.219 93.748C141.494 93.8273 141.749 93.965 141.982 94.161C142.22 94.3523 142.411 94.6183 142.556 94.959C142.705 95.2997 142.78 95.7313 142.78 96.254V101H141.275V96.415C141.275 96.0183 141.207 95.708 141.072 95.484C140.941 95.26 140.769 95.1037 140.554 95.015C140.344 94.9217 140.12 94.875 139.882 94.875C139.667 94.875 139.443 94.917 139.21 95.001C138.977 95.085 138.778 95.225 138.615 95.421C138.452 95.617 138.37 95.883 138.37 96.219V101H136.872V96.093C136.872 95.827 136.8 95.603 136.655 95.421C136.515 95.239 136.338 95.1037 136.123 95.015C135.913 94.9217 135.703 94.875 135.493 94.875C135.26 94.875 135.026 94.9217 134.793 95.015C134.56 95.1083 134.364 95.2553 134.205 95.456C134.051 95.652 133.974 95.9063 133.974 96.219V101H132.476ZM146.736 101.14C146.27 101.14 145.854 101.056 145.49 100.888C145.131 100.72 144.849 100.477 144.643 100.16C144.438 99.8427 144.335 99.46 144.335 99.012C144.335 98.2093 144.618 97.6097 145.182 97.213C145.752 96.8163 146.662 96.6063 147.912 96.583L149.102 96.548V96.023C149.102 95.6077 148.979 95.281 148.731 95.043C148.484 94.805 148.101 94.6883 147.583 94.693C147.201 94.693 146.858 94.7817 146.554 94.959C146.251 95.1363 146.053 95.428 145.959 95.834H144.664C144.692 95.3533 144.83 94.9497 145.077 94.623C145.329 94.2917 145.675 94.042 146.113 93.874C146.552 93.706 147.065 93.622 147.653 93.622C148.316 93.622 148.86 93.713 149.284 93.895C149.709 94.0723 150.024 94.3337 150.229 94.679C150.439 95.0243 150.544 95.4443 150.544 95.939V101H149.27L149.158 99.67C148.888 100.225 148.545 100.61 148.129 100.825C147.714 101.035 147.25 101.14 146.736 101.14ZM147.205 100.097C147.434 100.097 147.66 100.057 147.884 99.978C148.108 99.894 148.311 99.782 148.493 99.642C148.675 99.4973 148.82 99.3363 148.927 99.159C149.039 98.9817 149.098 98.7997 149.102 98.613V97.416L148.122 97.437C147.623 97.4417 147.198 97.493 146.848 97.591C146.503 97.689 146.237 97.8407 146.05 98.046C145.868 98.2513 145.777 98.5243 145.777 98.865C145.777 99.2523 145.91 99.5557 146.176 99.775C146.447 99.9897 146.79 100.097 147.205 100.097ZM152.464 101V93.762H153.899V95.246C154.021 94.8913 154.189 94.595 154.403 94.357C154.623 94.1143 154.877 93.9323 155.166 93.811C155.456 93.685 155.761 93.622 156.083 93.622C156.181 93.622 156.275 93.629 156.363 93.643C156.452 93.6523 156.522 93.671 156.573 93.699V95.141C156.513 95.113 156.433 95.0943 156.335 95.085C156.242 95.0757 156.16 95.0687 156.09 95.064C155.773 95.0407 155.484 95.057 155.222 95.113C154.961 95.169 154.735 95.2623 154.543 95.393C154.357 95.5237 154.212 95.694 154.109 95.904C154.011 96.114 153.962 96.3613 153.962 96.646V101H152.464ZM160.616 101.049C160.08 101.049 159.664 100.977 159.37 100.832C159.076 100.687 158.871 100.48 158.754 100.209C158.638 99.9337 158.579 99.6023 158.579 99.215V94.84H157.403V93.762H158.628L158.992 91.634H160.084V93.755H161.708V94.84H160.084L160.091 99.159C160.091 99.397 160.115 99.572 160.161 99.684C160.213 99.7913 160.297 99.8613 160.413 99.894C160.535 99.922 160.698 99.936 160.903 99.936H161.743V100.909C161.655 100.946 161.517 100.979 161.33 101.007C161.148 101.035 160.91 101.049 160.616 101.049ZM169.223 101V92.243H166.017V90.878H173.794V92.243H170.735V101H169.223ZM178.494 101L174.917 90.878H176.38L179.376 99.285L182.365 90.878H183.835L180.258 101H178.494Z" fill="white"/>
<rect x="205.5" y="80.5" width="78" height="31" rx="1.5" stroke="#303639"/>
<path d="M221.809 101.14C221.314 101.14 220.838 101.079 220.381 100.958C219.928 100.837 219.515 100.657 219.142 100.419C218.773 100.176 218.468 99.8753 218.225 99.516C217.987 99.1567 217.838 98.7367 217.777 98.256H219.338C219.417 98.62 219.574 98.9257 219.807 99.173C220.045 99.4203 220.341 99.607 220.696 99.733C221.055 99.859 221.452 99.922 221.886 99.922C222.287 99.922 222.658 99.859 222.999 99.733C223.34 99.607 223.615 99.425 223.825 99.187C224.035 98.949 224.14 98.6573 224.14 98.312C224.14 97.9247 224.009 97.619 223.748 97.395C223.491 97.1663 223.104 96.9843 222.586 96.849L220.556 96.345C220.066 96.2283 219.634 96.0627 219.261 95.848C218.888 95.6287 218.598 95.3417 218.393 94.987C218.188 94.6277 218.085 94.1843 218.085 93.657C218.085 93.069 218.246 92.558 218.568 92.124C218.895 91.6853 219.336 91.347 219.891 91.109C220.451 90.871 221.083 90.752 221.788 90.752C222.595 90.752 223.274 90.8897 223.825 91.165C224.38 91.4403 224.8 91.8043 225.085 92.257C225.374 92.705 225.521 93.1927 225.526 93.72H224C223.958 93.2907 223.83 92.95 223.615 92.698C223.405 92.4413 223.137 92.257 222.81 92.145C222.488 92.033 222.131 91.977 221.739 91.977C221.048 91.977 220.528 92.131 220.178 92.439C219.833 92.7423 219.66 93.104 219.66 93.524C219.66 93.9113 219.786 94.217 220.038 94.441C220.295 94.665 220.673 94.8377 221.172 94.959L223.132 95.442C223.748 95.5773 224.24 95.7803 224.609 96.051C224.982 96.317 225.251 96.632 225.414 96.996C225.577 97.3553 225.659 97.7497 225.659 98.179C225.659 98.753 225.498 99.264 225.176 99.712C224.854 100.155 224.404 100.505 223.825 100.762C223.251 101.014 222.579 101.14 221.809 101.14ZM227.476 103.254V93.762H228.974L228.988 94.966C229.077 94.8073 229.191 94.651 229.331 94.497C229.471 94.3383 229.637 94.1937 229.828 94.063C230.024 93.9277 230.246 93.8203 230.493 93.741C230.745 93.6617 231.023 93.622 231.326 93.622C231.895 93.622 232.397 93.755 232.831 94.021C233.27 94.2823 233.61 94.686 233.853 95.232C234.1 95.7733 234.224 96.4617 234.224 97.297C234.224 98.137 234.1 98.8417 233.853 99.411C233.61 99.9803 233.263 100.412 232.81 100.706C232.357 100.995 231.821 101.14 231.2 101.14C230.901 101.14 230.633 101.098 230.395 101.014C230.157 100.93 229.947 100.82 229.765 100.685C229.583 100.545 229.427 100.396 229.296 100.237C229.17 100.074 229.065 99.9127 228.981 99.754V103.254H227.476ZM230.885 99.999C231.44 99.999 231.895 99.7843 232.25 99.355C232.609 98.921 232.789 98.2443 232.789 97.325C232.789 96.5363 232.623 95.9133 232.292 95.456C231.965 94.994 231.496 94.763 230.885 94.763C230.255 94.763 229.779 95.0033 229.457 95.484C229.135 95.96 228.974 96.5737 228.974 97.325C228.974 97.815 229.044 98.263 229.184 98.669C229.329 99.0703 229.543 99.3923 229.828 99.635C230.113 99.8777 230.465 99.999 230.885 99.999ZM238.993 101.14C238.307 101.14 237.702 100.993 237.18 100.699C236.657 100.4 236.249 99.9757 235.955 99.425C235.665 98.8743 235.521 98.2187 235.521 97.458C235.521 96.7067 235.654 96.044 235.92 95.47C236.186 94.8913 236.571 94.4387 237.075 94.112C237.579 93.7853 238.185 93.622 238.895 93.622C239.59 93.622 240.178 93.7713 240.659 94.07C241.139 94.3687 241.503 94.7887 241.751 95.33C241.998 95.8667 242.122 96.5013 242.122 97.234V97.731H237.026C237.021 98.165 237.091 98.5547 237.236 98.9C237.38 99.2407 237.595 99.5113 237.88 99.712C238.169 99.908 238.528 100.006 238.958 100.006C239.392 100.006 239.765 99.908 240.078 99.712C240.395 99.516 240.603 99.2243 240.701 98.837H242.087C242.003 99.3317 241.804 99.7517 241.492 100.097C241.179 100.442 240.803 100.704 240.365 100.881C239.926 101.054 239.469 101.14 238.993 101.14ZM237.026 96.758H240.694C240.694 96.38 240.628 96.037 240.498 95.729C240.367 95.4163 240.166 95.1713 239.896 94.994C239.63 94.812 239.294 94.721 238.888 94.721C238.472 94.721 238.127 94.8213 237.852 95.022C237.576 95.2227 237.369 95.4793 237.229 95.792C237.093 96.1047 237.026 96.4267 237.026 96.758ZM245.81 101.14C245.344 101.14 244.928 101.056 244.564 100.888C244.205 100.72 243.923 100.477 243.717 100.16C243.512 99.8427 243.409 99.46 243.409 99.012C243.409 98.2093 243.692 97.6097 244.256 97.213C244.826 96.8163 245.736 96.6063 246.986 96.583L248.176 96.548V96.023C248.176 95.6077 248.053 95.281 247.805 95.043C247.558 94.805 247.175 94.6883 246.657 94.693C246.275 94.693 245.932 94.7817 245.628 94.959C245.325 95.1363 245.127 95.428 245.033 95.834H243.738C243.766 95.3533 243.904 94.9497 244.151 94.623C244.403 94.2917 244.749 94.042 245.187 93.874C245.626 93.706 246.139 93.622 246.727 93.622C247.39 93.622 247.934 93.713 248.358 93.895C248.783 94.0723 249.098 94.3337 249.303 94.679C249.513 95.0243 249.618 95.4443 249.618 95.939V101H248.344L248.232 99.67C247.962 100.225 247.619 100.61 247.203 100.825C246.788 101.035 246.324 101.14 245.81 101.14ZM246.279 100.097C246.508 100.097 246.734 100.057 246.958 99.978C247.182 99.894 247.385 99.782 247.567 99.642C247.749 99.4973 247.894 99.3363 248.001 99.159C248.113 98.9817 248.172 98.7997 248.176 98.613V97.416L247.196 97.437C246.697 97.4417 246.272 97.493 245.922 97.591C245.577 97.689 245.311 97.8407 245.124 98.046C244.942 98.2513 244.851 98.5243 244.851 98.865C244.851 99.2523 244.984 99.5557 245.25 99.775C245.521 99.9897 245.864 100.097 246.279 100.097ZM251.538 101V90.598H253.036V97.213L256.235 93.762H257.915L255.297 96.555L258.069 101H256.515L254.338 97.507L253.036 98.858V101H251.538ZM262.276 101.14C261.59 101.14 260.986 100.993 260.463 100.699C259.94 100.4 259.532 99.9757 259.238 99.425C258.949 98.8743 258.804 98.2187 258.804 97.458C258.804 96.7067 258.937 96.044 259.203 95.47C259.469 94.8913 259.854 94.4387 260.358 94.112C260.862 93.7853 261.469 93.622 262.178 93.622C262.873 93.622 263.461 93.7713 263.942 94.07C264.423 94.3687 264.787 94.7887 265.034 95.33C265.281 95.8667 265.405 96.5013 265.405 97.234V97.731H260.309C260.304 98.165 260.374 98.5547 260.519 98.9C260.664 99.2407 260.878 99.5113 261.163 99.712C261.452 99.908 261.812 100.006 262.241 100.006C262.675 100.006 263.048 99.908 263.361 99.712C263.678 99.516 263.886 99.2243 263.984 98.837H265.37C265.286 99.3317 265.088 99.7517 264.775 100.097C264.462 100.442 264.087 100.704 263.648 100.881C263.209 101.054 262.752 101.14 262.276 101.14ZM260.309 96.758H263.977C263.977 96.38 263.912 96.037 263.781 95.729C263.65 95.4163 263.45 95.1713 263.179 94.994C262.913 94.812 262.577 94.721 262.171 94.721C261.756 94.721 261.41 94.8213 261.135 95.022C260.86 95.2227 260.652 95.4793 260.512 95.792C260.377 96.1047 260.309 96.4267 260.309 96.758ZM267.111 101V93.762H268.546V95.246C268.667 94.8913 268.835 94.595 269.05 94.357C269.269 94.1143 269.523 93.9323 269.813 93.811C270.102 93.685 270.408 93.622 270.73 93.622C270.828 93.622 270.921 93.629 271.01 93.643C271.098 93.6523 271.168 93.671 271.22 93.699V95.141C271.159 95.113 271.08 95.0943 270.982 95.085C270.888 95.0757 270.807 95.0687 270.737 95.064C270.419 95.0407 270.13 95.057 269.869 95.113C269.607 95.169 269.381 95.2623 269.19 95.393C269.003 95.5237 268.858 95.694 268.756 95.904C268.658 96.114 268.609 96.3613 268.609 96.646V101H267.111Z" fill="white"/>
<rect x="0.5" y="120.5" width="64" height="31" rx="1.5" stroke="#303639"/>
<path d="M15.514 141V132.243H12.308V130.878H20.085V132.243H17.026V141H15.514ZM22.6405 141.14C22.1739 141.14 21.7585 141.056 21.3945 140.888C21.0352 140.72 20.7529 140.477 20.5475 140.16C20.3422 139.843 20.2395 139.46 20.2395 139.012C20.2395 138.209 20.5219 137.61 21.0865 137.213C21.6559 136.816 22.5659 136.606 23.8165 136.583L25.0065 136.548V136.023C25.0065 135.608 24.8829 135.281 24.6355 135.043C24.3882 134.805 24.0055 134.688 23.4875 134.693C23.1049 134.693 22.7619 134.782 22.4585 134.959C22.1552 135.136 21.9569 135.428 21.8635 135.834H20.5685C20.5965 135.353 20.7342 134.95 20.9815 134.623C21.2335 134.292 21.5789 134.042 22.0175 133.874C22.4562 133.706 22.9695 133.622 23.5575 133.622C24.2202 133.622 24.7639 133.713 25.1885 133.895C25.6132 134.072 25.9282 134.334 26.1335 134.679C26.3435 135.024 26.4485 135.444 26.4485 135.939V141H25.1745L25.0625 139.67C24.7919 140.225 24.4489 140.61 24.0335 140.825C23.6182 141.035 23.1539 141.14 22.6405 141.14ZM23.1095 140.097C23.3382 140.097 23.5645 140.057 23.7885 139.978C24.0125 139.894 24.2155 139.782 24.3975 139.642C24.5795 139.497 24.7242 139.336 24.8315 139.159C24.9435 138.982 25.0019 138.8 25.0065 138.613V137.416L24.0265 137.437C23.5272 137.442 23.1025 137.493 22.7525 137.591C22.4072 137.689 22.1412 137.841 21.9545 138.046C21.7725 138.251 21.6815 138.524 21.6815 138.865C21.6815 139.252 21.8145 139.556 22.0805 139.775C22.3512 139.99 22.6942 140.097 23.1095 140.097ZM32.0715 141.14C31.6655 141.14 31.3202 141.086 31.0355 140.979C30.7508 140.872 30.5152 140.734 30.3285 140.566C30.1465 140.398 30.0018 140.221 29.8945 140.034C29.7918 139.847 29.7125 139.675 29.6565 139.516L29.4955 141H28.3685V130.598H29.8805V134.861C29.9458 134.735 30.0415 134.6 30.1675 134.455C30.2982 134.31 30.4592 134.175 30.6505 134.049C30.8465 133.923 31.0728 133.82 31.3295 133.741C31.5862 133.662 31.8755 133.622 32.1975 133.622C33.0982 133.622 33.8122 133.939 34.3395 134.574C34.8715 135.209 35.1375 136.133 35.1375 137.346C35.1375 138.111 35.0232 138.779 34.7945 139.348C34.5658 139.913 34.2228 140.354 33.7655 140.671C33.3128 140.984 32.7482 141.14 32.0715 141.14ZM31.7775 140.013C32.3282 140.013 32.7762 139.798 33.1215 139.369C33.4715 138.94 33.6465 138.249 33.6465 137.297C33.6465 136.476 33.4832 135.848 33.1565 135.414C32.8345 134.98 32.3678 134.763 31.7565 134.763C31.3178 134.763 30.9608 134.861 30.6855 135.057C30.4102 135.248 30.2072 135.533 30.0765 135.911C29.9505 136.289 29.8852 136.751 29.8805 137.297C29.8805 138.263 30.0298 138.958 30.3285 139.383C30.6272 139.803 31.1102 140.013 31.7775 140.013ZM38.723 141.098C38.2937 141.098 37.9484 141.042 37.687 140.93C37.4304 140.818 37.2344 140.669 37.099 140.482C36.9637 140.291 36.8727 140.076 36.826 139.838C36.784 139.595 36.763 139.346 36.763 139.089V130.598H38.24V138.935C38.24 139.271 38.3054 139.528 38.436 139.705C38.5714 139.882 38.7767 139.983 39.052 140.006L39.43 140.02V140.972C39.3134 141.009 39.192 141.04 39.066 141.063C38.9447 141.086 38.8304 141.098 38.723 141.098ZM43.8639 141.14C43.1779 141.14 42.5736 140.993 42.0509 140.699C41.5282 140.4 41.1199 139.976 40.8259 139.425C40.5366 138.874 40.3919 138.219 40.3919 137.458C40.3919 136.707 40.5249 136.044 40.7909 135.47C41.0569 134.891 41.4419 134.439 41.9459 134.112C42.4499 133.785 43.0566 133.622 43.7659 133.622C44.4612 133.622 45.0492 133.771 45.5299 134.07C46.0106 134.369 46.3746 134.789 46.6219 135.33C46.8692 135.867 46.9929 136.501 46.9929 137.234V137.731H41.8969C41.8922 138.165 41.9622 138.555 42.1069 138.9C42.2516 139.241 42.4662 139.511 42.7509 139.712C43.0402 139.908 43.3996 140.006 43.8289 140.006C44.2629 140.006 44.6362 139.908 44.9489 139.712C45.2662 139.516 45.4739 139.224 45.5719 138.837H46.9579C46.8739 139.332 46.6756 139.752 46.3629 140.097C46.0502 140.442 45.6746 140.704 45.2359 140.881C44.7972 141.054 44.3399 141.14 43.8639 141.14ZM41.8969 136.758H45.5649C45.5649 136.38 45.4996 136.037 45.3689 135.729C45.2382 135.416 45.0376 135.171 44.7669 134.994C44.5009 134.812 44.1649 134.721 43.7589 134.721C43.3436 134.721 42.9982 134.821 42.7229 135.022C42.4476 135.223 42.2399 135.479 42.0999 135.792C41.9646 136.105 41.8969 136.427 41.8969 136.758ZM51.1768 141.049C50.6401 141.049 50.2248 140.977 49.9308 140.832C49.6368 140.687 49.4315 140.48 49.3148 140.209C49.1981 139.934 49.1398 139.602 49.1398 139.215V134.84H47.9638V133.762H49.1888L49.5528 131.634H50.6448V133.755H52.2688V134.84H50.6448L50.6518 139.159C50.6518 139.397 50.6751 139.572 50.7218 139.684C50.7731 139.791 50.8571 139.861 50.9738 139.894C51.0951 139.922 51.2585 139.936 51.4638 139.936H52.3038V140.909C52.2151 140.946 52.0775 140.979 51.8908 141.007C51.7088 141.035 51.4708 141.049 51.1768 141.049Z" fill="white"/>
<rect x="73.5" y="120.5" width="94" height="31" rx="1.5" stroke="#303639"/>
<path d="M86.281 141V130.878H88.395L91.244 138.928L94.135 130.878H96.235V141H94.702V132.936L91.902 141H90.593L87.807 132.999V141H86.281ZM98.5598 141V133.762H100.002V141H98.5598ZM98.5248 132.362V130.885H100.03V132.362H98.5248ZM105.041 141.14C104.387 141.14 103.806 140.998 103.298 140.713C102.789 140.424 102.39 140.001 102.101 139.446C101.811 138.886 101.667 138.207 101.667 137.409C101.667 136.658 101.8 135.997 102.066 135.428C102.336 134.859 102.724 134.415 103.228 134.098C103.732 133.781 104.336 133.622 105.041 133.622C105.587 133.622 106.07 133.729 106.49 133.944C106.91 134.154 107.25 134.448 107.512 134.826C107.778 135.204 107.939 135.645 107.995 136.149H106.693C106.655 135.911 106.567 135.689 106.427 135.484C106.287 135.279 106.102 135.115 105.874 134.994C105.645 134.868 105.372 134.805 105.055 134.805C104.471 134.805 103.998 135.017 103.634 135.442C103.27 135.867 103.088 136.518 103.088 137.395C103.088 138.198 103.258 138.837 103.599 139.313C103.939 139.789 104.432 140.027 105.076 140.027C105.393 140.027 105.666 139.962 105.895 139.831C106.123 139.7 106.305 139.532 106.441 139.327C106.581 139.122 106.669 138.909 106.707 138.69H107.981C107.925 139.175 107.764 139.602 107.498 139.971C107.236 140.34 106.896 140.627 106.476 140.832C106.056 141.037 105.577 141.14 105.041 141.14ZM109.613 141V133.762H111.048V135.246C111.169 134.891 111.337 134.595 111.552 134.357C111.771 134.114 112.025 133.932 112.315 133.811C112.604 133.685 112.91 133.622 113.232 133.622C113.33 133.622 113.423 133.629 113.512 133.643C113.6 133.652 113.67 133.671 113.722 133.699V135.141C113.661 135.113 113.582 135.094 113.484 135.085C113.39 135.076 113.309 135.069 113.239 135.064C112.921 135.041 112.632 135.057 112.371 135.113C112.109 135.169 111.883 135.262 111.692 135.393C111.505 135.524 111.36 135.694 111.258 135.904C111.16 136.114 111.111 136.361 111.111 136.646V141H109.613ZM118.049 141.14C117.373 141.14 116.782 140.995 116.278 140.706C115.774 140.412 115.382 139.987 115.102 139.432C114.822 138.877 114.682 138.205 114.682 137.416C114.682 136.655 114.815 135.99 115.081 135.421C115.347 134.852 115.73 134.411 116.229 134.098C116.733 133.781 117.342 133.622 118.056 133.622C118.738 133.622 119.328 133.771 119.827 134.07C120.327 134.364 120.714 134.796 120.989 135.365C121.265 135.93 121.402 136.613 121.402 137.416C121.402 138.149 121.274 138.795 121.017 139.355C120.761 139.915 120.383 140.354 119.883 140.671C119.389 140.984 118.777 141.14 118.049 141.14ZM118.056 139.985C118.472 139.985 118.817 139.878 119.092 139.663C119.368 139.444 119.575 139.138 119.715 138.746C119.855 138.349 119.925 137.892 119.925 137.374C119.925 136.893 119.862 136.457 119.736 136.065C119.615 135.668 119.417 135.353 119.141 135.12C118.871 134.887 118.509 134.77 118.056 134.77C117.641 134.77 117.291 134.877 117.006 135.092C116.726 135.302 116.516 135.603 116.376 135.995C116.236 136.382 116.166 136.842 116.166 137.374C116.166 137.845 116.229 138.279 116.355 138.676C116.481 139.073 116.682 139.39 116.957 139.628C117.237 139.866 117.604 139.985 118.056 139.985ZM124.49 141L122.222 133.762H123.587L125.169 139.033H125.267L126.814 133.762H127.927L129.523 139.019H129.621L131.147 133.762H132.533L130.286 141H128.914L127.346 135.918L125.841 141H124.49ZM135.74 141.14C135.273 141.14 134.858 141.056 134.494 140.888C134.135 140.72 133.852 140.477 133.647 140.16C133.442 139.843 133.339 139.46 133.339 139.012C133.339 138.209 133.621 137.61 134.186 137.213C134.755 136.816 135.665 136.606 136.916 136.583L138.106 136.548V136.023C138.106 135.608 137.982 135.281 137.735 135.043C137.488 134.805 137.105 134.688 136.587 134.693C136.204 134.693 135.861 134.782 135.558 134.959C135.255 135.136 135.056 135.428 134.963 135.834H133.668C133.696 135.353 133.834 134.95 134.081 134.623C134.333 134.292 134.678 134.042 135.117 133.874C135.556 133.706 136.069 133.622 136.657 133.622C137.32 133.622 137.863 133.713 138.288 133.895C138.713 134.072 139.028 134.334 139.233 134.679C139.443 135.024 139.548 135.444 139.548 135.939V141H138.274L138.162 139.67C137.891 140.225 137.548 140.61 137.133 140.825C136.718 141.035 136.253 141.14 135.74 141.14ZM136.209 140.097C136.438 140.097 136.664 140.057 136.888 139.978C137.112 139.894 137.315 139.782 137.497 139.642C137.679 139.497 137.824 139.336 137.931 139.159C138.043 138.982 138.101 138.8 138.106 138.613V137.416L137.126 137.437C136.627 137.442 136.202 137.493 135.852 137.591C135.507 137.689 135.241 137.841 135.054 138.046C134.872 138.251 134.781 138.524 134.781 138.865C134.781 139.252 134.914 139.556 135.18 139.775C135.451 139.99 135.794 140.097 136.209 140.097ZM143.161 141L140.515 133.762H141.901L143.735 139.103H143.833L145.667 133.762H147.053L144.421 141H143.161ZM151.331 141.14C150.645 141.14 150.04 140.993 149.518 140.699C148.995 140.4 148.587 139.976 148.293 139.425C148.003 138.874 147.859 138.219 147.859 137.458C147.859 136.707 147.992 136.044 148.258 135.47C148.524 134.891 148.909 134.439 149.413 134.112C149.917 133.785 150.523 133.622 151.233 133.622C151.928 133.622 152.516 133.771 152.997 134.07C153.477 134.369 153.841 134.789 154.089 135.33C154.336 135.867 154.46 136.501 154.46 137.234V137.731H149.364C149.359 138.165 149.429 138.555 149.574 138.9C149.718 139.241 149.933 139.511 150.218 139.712C150.507 139.908 150.866 140.006 151.296 140.006C151.73 140.006 152.103 139.908 152.416 139.712C152.733 139.516 152.941 139.224 153.039 138.837H154.425C154.341 139.332 154.142 139.752 153.83 140.097C153.517 140.442 153.141 140.704 152.703 140.881C152.264 141.054 151.807 141.14 151.331 141.14ZM149.364 136.758H153.032C153.032 136.38 152.966 136.037 152.836 135.729C152.705 135.416 152.504 135.171 152.234 134.994C151.968 134.812 151.632 134.721 151.226 134.721C150.81 134.721 150.465 134.821 150.19 135.022C149.914 135.223 149.707 135.479 149.567 135.792C149.431 136.105 149.364 136.427 149.364 136.758Z" fill="white"/>
<rect x="176.5" y="120.5" width="85" height="31" rx="1.5" stroke="#303639"/>
<path d="M192.809 141.14C192.314 141.14 191.838 141.079 191.381 140.958C190.928 140.837 190.515 140.657 190.142 140.419C189.773 140.176 189.468 139.875 189.225 139.516C188.987 139.157 188.838 138.737 188.777 138.256H190.338C190.417 138.62 190.574 138.926 190.807 139.173C191.045 139.42 191.341 139.607 191.696 139.733C192.055 139.859 192.452 139.922 192.886 139.922C193.287 139.922 193.658 139.859 193.999 139.733C194.34 139.607 194.615 139.425 194.825 139.187C195.035 138.949 195.14 138.657 195.14 138.312C195.14 137.925 195.009 137.619 194.748 137.395C194.491 137.166 194.104 136.984 193.586 136.849L191.556 136.345C191.066 136.228 190.634 136.063 190.261 135.848C189.888 135.629 189.598 135.342 189.393 134.987C189.188 134.628 189.085 134.184 189.085 133.657C189.085 133.069 189.246 132.558 189.568 132.124C189.895 131.685 190.336 131.347 190.891 131.109C191.451 130.871 192.083 130.752 192.788 130.752C193.595 130.752 194.274 130.89 194.825 131.165C195.38 131.44 195.8 131.804 196.085 132.257C196.374 132.705 196.521 133.193 196.526 133.72H195C194.958 133.291 194.83 132.95 194.615 132.698C194.405 132.441 194.137 132.257 193.81 132.145C193.488 132.033 193.131 131.977 192.739 131.977C192.048 131.977 191.528 132.131 191.178 132.439C190.833 132.742 190.66 133.104 190.66 133.524C190.66 133.911 190.786 134.217 191.038 134.441C191.295 134.665 191.673 134.838 192.172 134.959L194.132 135.442C194.748 135.577 195.24 135.78 195.609 136.051C195.982 136.317 196.251 136.632 196.414 136.996C196.577 137.355 196.659 137.75 196.659 138.179C196.659 138.753 196.498 139.264 196.176 139.712C195.854 140.155 195.404 140.505 194.825 140.762C194.251 141.014 193.579 141.14 192.809 141.14ZM200.486 141.14C200.02 141.14 199.604 141.056 199.24 140.888C198.881 140.72 198.599 140.477 198.393 140.16C198.188 139.843 198.085 139.46 198.085 139.012C198.085 138.209 198.368 137.61 198.932 137.213C199.502 136.816 200.412 136.606 201.662 136.583L202.852 136.548V136.023C202.852 135.608 202.729 135.281 202.481 135.043C202.234 134.805 201.851 134.688 201.333 134.693C200.951 134.693 200.608 134.782 200.304 134.959C200.001 135.136 199.803 135.428 199.709 135.834H198.414C198.442 135.353 198.58 134.95 198.827 134.623C199.079 134.292 199.425 134.042 199.863 133.874C200.302 133.706 200.815 133.622 201.403 133.622C202.066 133.622 202.61 133.713 203.034 133.895C203.459 134.072 203.774 134.334 203.979 134.679C204.189 135.024 204.294 135.444 204.294 135.939V141H203.02L202.908 139.67C202.638 140.225 202.295 140.61 201.879 140.825C201.464 141.035 201 141.14 200.486 141.14ZM200.955 140.097C201.184 140.097 201.41 140.057 201.634 139.978C201.858 139.894 202.061 139.782 202.243 139.642C202.425 139.497 202.57 139.336 202.677 139.159C202.789 138.982 202.848 138.8 202.852 138.613V137.416L201.872 137.437C201.373 137.442 200.948 137.493 200.598 137.591C200.253 137.689 199.987 137.841 199.8 138.046C199.618 138.251 199.527 138.524 199.527 138.865C199.527 139.252 199.66 139.556 199.926 139.775C200.197 139.99 200.54 140.097 200.955 140.097ZM206.214 141V133.762H207.67V134.805C207.876 134.488 208.156 134.212 208.51 133.979C208.865 133.741 209.322 133.622 209.882 133.622C210.144 133.622 210.407 133.666 210.673 133.755C210.944 133.844 211.191 133.977 211.415 134.154C211.644 134.327 211.824 134.541 211.954 134.798C212.183 134.453 212.489 134.17 212.871 133.951C213.254 133.732 213.683 133.622 214.159 133.622C214.416 133.622 214.682 133.664 214.957 133.748C215.233 133.827 215.487 133.965 215.72 134.161C215.958 134.352 216.15 134.618 216.294 134.959C216.444 135.3 216.518 135.731 216.518 136.254V141H215.013V136.415C215.013 136.018 214.946 135.708 214.81 135.484C214.68 135.26 214.507 135.104 214.292 135.015C214.082 134.922 213.858 134.875 213.62 134.875C213.406 134.875 213.182 134.917 212.948 135.001C212.715 135.085 212.517 135.225 212.353 135.421C212.19 135.617 212.108 135.883 212.108 136.219V141H210.61V136.093C210.61 135.827 210.538 135.603 210.393 135.421C210.253 135.239 210.076 135.104 209.861 135.015C209.651 134.922 209.441 134.875 209.231 134.875C208.998 134.875 208.765 134.922 208.531 135.015C208.298 135.108 208.102 135.255 207.943 135.456C207.789 135.652 207.712 135.906 207.712 136.219V141H206.214ZM221.064 141.14C220.56 141.14 220.086 141.061 219.643 140.902C219.204 140.743 218.835 140.494 218.537 140.153C218.243 139.812 218.058 139.376 217.984 138.844H219.321C219.381 139.119 219.496 139.348 219.664 139.53C219.836 139.707 220.042 139.84 220.28 139.929C220.522 140.013 220.781 140.055 221.057 140.055C221.514 140.055 221.885 139.973 222.17 139.81C222.454 139.642 222.597 139.385 222.597 139.04C222.597 138.793 222.52 138.594 222.366 138.445C222.212 138.296 221.971 138.186 221.645 138.116L220.203 137.773C219.605 137.633 219.127 137.411 218.768 137.108C218.408 136.8 218.226 136.371 218.222 135.82C218.222 135.395 218.327 135.017 218.537 134.686C218.751 134.355 219.069 134.096 219.489 133.909C219.913 133.718 220.436 133.622 221.057 133.622C221.873 133.622 222.529 133.804 223.024 134.168C223.523 134.532 223.78 135.059 223.794 135.75H222.499C222.452 135.419 222.3 135.16 222.044 134.973C221.792 134.782 221.458 134.686 221.043 134.686C220.613 134.686 220.261 134.772 219.986 134.945C219.71 135.113 219.573 135.372 219.573 135.722C219.573 135.96 219.673 136.149 219.874 136.289C220.079 136.424 220.38 136.536 220.777 136.625L222.149 136.968C222.503 137.061 222.795 137.185 223.024 137.339C223.252 137.488 223.432 137.654 223.563 137.836C223.693 138.018 223.784 138.207 223.836 138.403C223.892 138.599 223.92 138.783 223.92 138.956C223.92 139.413 223.803 139.805 223.57 140.132C223.341 140.454 223.014 140.704 222.59 140.881C222.165 141.054 221.656 141.14 221.064 141.14ZM228.193 141.14C227.829 141.135 227.481 141.082 227.15 140.979C226.818 140.876 226.522 140.722 226.261 140.517C226.004 140.312 225.799 140.057 225.645 139.754C225.495 139.451 225.421 139.098 225.421 138.697V133.762H226.926V138.536C226.926 138.97 227.061 139.322 227.332 139.593C227.602 139.864 228.011 139.999 228.557 139.999C229.051 139.999 229.448 139.871 229.747 139.614C230.045 139.353 230.195 138.972 230.195 138.473V133.762H231.686V141H230.524L230.356 139.6C230.272 139.978 230.12 140.281 229.901 140.51C229.686 140.734 229.429 140.897 229.131 141C228.837 141.098 228.524 141.145 228.193 141.14ZM233.804 141V133.762H235.267V134.805C235.384 134.609 235.54 134.425 235.736 134.252C235.937 134.079 236.182 133.939 236.471 133.832C236.765 133.725 237.103 133.671 237.486 133.671C237.939 133.671 238.356 133.762 238.739 133.944C239.126 134.121 239.437 134.401 239.67 134.784C239.903 135.162 240.02 135.652 240.02 136.254V141H238.522V136.415C238.522 135.897 238.382 135.512 238.102 135.26C237.827 135.008 237.47 134.882 237.031 134.882C236.737 134.882 236.457 134.931 236.191 135.029C235.925 135.127 235.71 135.276 235.547 135.477C235.384 135.673 235.302 135.92 235.302 136.219V141H233.804ZM245.082 143.394C243.906 143.394 242.996 143.228 242.352 142.897C241.708 142.57 241.386 142.113 241.386 141.525C241.386 141.268 241.446 141.051 241.568 140.874C241.694 140.692 241.841 140.543 242.009 140.426C242.181 140.309 242.34 140.218 242.485 140.153C242.629 140.083 242.723 140.034 242.765 140.006C242.685 139.959 242.583 139.901 242.457 139.831C242.335 139.756 242.226 139.658 242.128 139.537C242.03 139.411 241.981 139.248 241.981 139.047C241.981 138.814 242.09 138.599 242.31 138.403C242.534 138.202 242.87 138.055 243.318 137.962C242.879 137.747 242.538 137.458 242.296 137.094C242.053 136.73 241.932 136.343 241.932 135.932C241.932 135.461 242.065 135.055 242.331 134.714C242.597 134.369 242.97 134.105 243.451 133.923C243.936 133.741 244.505 133.65 245.159 133.65C245.639 133.65 246.038 133.704 246.356 133.811C246.678 133.918 246.974 134.068 247.245 134.259C247.333 134.226 247.459 134.177 247.623 134.112C247.791 134.042 247.973 133.967 248.169 133.888C248.365 133.809 248.551 133.732 248.729 133.657C248.911 133.582 249.058 133.522 249.17 133.475L249.163 134.777L247.903 135.008C247.968 135.148 248.019 135.302 248.057 135.47C248.099 135.638 248.12 135.792 248.12 135.932C248.12 136.352 248.005 136.739 247.777 137.094C247.548 137.444 247.205 137.724 246.748 137.934C246.29 138.144 245.719 138.249 245.033 138.249C244.967 138.249 244.883 138.249 244.781 138.249C244.678 138.244 244.592 138.237 244.522 138.228C244.088 138.242 243.789 138.293 243.626 138.382C243.462 138.466 243.381 138.559 243.381 138.662C243.381 138.793 243.486 138.881 243.696 138.928C243.906 138.975 244.251 139.014 244.732 139.047C244.904 139.061 245.124 139.075 245.39 139.089C245.66 139.103 245.959 139.122 246.286 139.145C247.079 139.192 247.683 139.39 248.099 139.74C248.519 140.09 248.729 140.554 248.729 141.133C248.729 141.796 248.428 142.337 247.826 142.757C247.224 143.182 246.309 143.394 245.082 143.394ZM245.341 142.477C245.98 142.477 246.463 142.384 246.79 142.197C247.116 142.015 247.28 141.742 247.28 141.378C247.28 141.107 247.175 140.886 246.965 140.713C246.755 140.54 246.44 140.44 246.02 140.412L244.088 140.286C243.896 140.277 243.705 140.319 243.514 140.412C243.327 140.505 243.173 140.636 243.052 140.804C242.93 140.967 242.87 141.149 242.87 141.35C242.87 141.714 243.07 141.992 243.472 142.183C243.873 142.379 244.496 142.477 245.341 142.477ZM245.075 137.332C245.56 137.332 245.95 137.215 246.244 136.982C246.542 136.744 246.692 136.403 246.692 135.96C246.692 135.503 246.542 135.15 246.244 134.903C245.95 134.651 245.56 134.525 245.075 134.525C244.585 134.525 244.188 134.651 243.885 134.903C243.586 135.155 243.437 135.507 243.437 135.96C243.437 136.389 243.579 136.725 243.864 136.968C244.153 137.211 244.557 137.332 245.075 137.332Z" fill="white"/>
</svg>
