<svg width="154" height="13" viewBox="0 0 154 13" fill="none" xmlns="http://www.w3.org/2000/svg">
<path d="M0.4 0.431999H7.968L7.96 2.08H2.376V5.408H7.304V7.032H2.376V12H0.4V0.431999ZM10.0799 0.431999H12.0479V10.32H17.2719V12H10.0719L10.0799 0.431999ZM18.6846 12L22.8446 0.431999H24.9486L29.1006 12H27.1486L26.1166 9.096H21.7006L20.6446 12H18.6846ZM22.1486 7.368H25.6366L23.9006 2.328L22.1486 7.368ZM34.9663 12.16C34.4063 12.16 33.8596 12.0907 33.3263 11.952C32.7929 11.808 32.3076 11.5973 31.8703 11.32C31.4383 11.0373 31.0783 10.688 30.7903 10.272C30.5023 9.85067 30.3263 9.36 30.2623 8.8H32.2783C32.3636 9.18933 32.5316 9.51733 32.7823 9.784C33.0329 10.0507 33.3449 10.2533 33.7183 10.392C34.0969 10.5307 34.5103 10.6 34.9583 10.6C35.4383 10.6 35.8703 10.536 36.2543 10.408C36.6436 10.28 36.9503 10.0933 37.1743 9.848C37.4036 9.60267 37.5183 9.30133 37.5183 8.944C37.5183 8.62933 37.4356 8.36267 37.2703 8.144C37.1049 7.92533 36.8729 7.74667 36.5743 7.608C36.2809 7.464 35.9369 7.34933 35.5423 7.264L33.4143 6.8C32.5556 6.624 31.8756 6.28267 31.3743 5.776C30.8729 5.26933 30.6169 4.59467 30.6063 3.752C30.6009 3.05333 30.7849 2.44533 31.1583 1.928C31.5369 1.40533 32.0516 1.00267 32.7023 0.719999C33.3529 0.431999 34.0889 0.287999 34.9103 0.287999C35.8703 0.287999 36.6783 0.445333 37.3343 0.759999C37.9956 1.06933 38.4943 1.48533 38.8303 2.008C39.1716 2.53067 39.3449 3.104 39.3503 3.728H37.3823C37.3343 3.26933 37.1956 2.904 36.9663 2.632C36.7423 2.36 36.4543 2.16533 36.1023 2.048C35.7503 1.93067 35.3609 1.872 34.9343 1.872C34.6143 1.872 34.3156 1.90933 34.0383 1.984C33.7609 2.05867 33.5183 2.168 33.3103 2.312C33.1023 2.456 32.9396 2.632 32.8223 2.84C32.7103 3.04267 32.6543 3.27467 32.6543 3.536C32.6543 3.90933 32.7769 4.21333 33.0223 4.448C33.2729 4.67733 33.7396 4.872 34.4223 5.032L36.5023 5.496C37.1476 5.624 37.6676 5.816 38.0623 6.072C38.4569 6.328 38.7583 6.62133 38.9663 6.952C39.1743 7.27733 39.3129 7.61067 39.3823 7.952C39.4516 8.29333 39.4863 8.61867 39.4863 8.928C39.4863 9.53067 39.2996 10.0773 38.9263 10.568C38.5583 11.0587 38.0356 11.448 37.3583 11.736C36.6863 12.0187 35.8889 12.16 34.9663 12.16ZM49.2721 6.864H43.6721V12H41.7281V0.431999H43.6721V5.208H49.2721V0.431999H51.2161V12H49.2721V6.864ZM61.7006 12.16C61.1406 12.16 60.594 12.0907 60.0606 11.952C59.5273 11.808 59.042 11.5973 58.6046 11.32C58.1726 11.0373 57.8126 10.688 57.5246 10.272C57.2366 9.85067 57.0606 9.36 56.9966 8.8H59.0126C59.098 9.18933 59.266 9.51733 59.5166 9.784C59.7673 10.0507 60.0793 10.2533 60.4526 10.392C60.8313 10.5307 61.2446 10.6 61.6926 10.6C62.1726 10.6 62.6046 10.536 62.9886 10.408C63.378 10.28 63.6846 10.0933 63.9086 9.848C64.138 9.60267 64.2526 9.30133 64.2526 8.944C64.2526 8.62933 64.17 8.36267 64.0046 8.144C63.8393 7.92533 63.6073 7.74667 63.3086 7.608C63.0153 7.464 62.6713 7.34933 62.2766 7.264L60.1486 6.8C59.29 6.624 58.61 6.28267 58.1086 5.776C57.6073 5.26933 57.3513 4.59467 57.3406 3.752C57.3353 3.05333 57.5193 2.44533 57.8926 1.928C58.2713 1.40533 58.786 1.00267 59.4366 0.719999C60.0873 0.431999 60.8233 0.287999 61.6446 0.287999C62.6046 0.287999 63.4126 0.445333 64.0686 0.759999C64.73 1.06933 65.2286 1.48533 65.5646 2.008C65.906 2.53067 66.0793 3.104 66.0846 3.728H64.1166C64.0686 3.26933 63.93 2.904 63.7006 2.632C63.4766 2.36 63.1886 2.16533 62.8366 2.048C62.4846 1.93067 62.0953 1.872 61.6686 1.872C61.3486 1.872 61.05 1.90933 60.7726 1.984C60.4953 2.05867 60.2526 2.168 60.0446 2.312C59.8366 2.456 59.674 2.632 59.5566 2.84C59.4446 3.04267 59.3886 3.27467 59.3886 3.536C59.3886 3.90933 59.5113 4.21333 59.7566 4.448C60.0073 4.67733 60.474 4.872 61.1566 5.032L63.2366 5.496C63.882 5.624 64.402 5.816 64.7966 6.072C65.1913 6.328 65.4926 6.62133 65.7006 6.952C65.9086 7.27733 66.0473 7.61067 66.1166 7.952C66.186 8.29333 66.2206 8.61867 66.2206 8.928C66.2206 9.53067 66.034 10.0773 65.6606 10.568C65.2926 11.0587 64.77 11.448 64.0926 11.736C63.4206 12.0187 62.6233 12.16 61.7006 12.16ZM67.4034 12L71.5634 0.431999H73.6674L77.8194 12H75.8674L74.8354 9.096H70.4194L69.3634 12H67.4034ZM70.8674 7.368H74.3554L72.6194 2.328L70.8674 7.368ZM79.7674 0.431999H81.7354V10.32H86.9594V12H79.7594L79.7674 0.431999ZM88.9938 12V0.431999H96.6418L96.6337 2.104H90.9538V5.344H95.9698V6.992H90.9378V10.304L96.7538 10.312V12H88.9938ZM101.524 2.184V0.431999H110.548V2.184H107.076V12H105.124V2.184H101.524ZM116.821 12.16C115.754 12.16 114.831 11.9253 114.053 11.456C113.279 10.9867 112.679 10.3093 112.253 9.424C111.831 8.53867 111.621 7.47733 111.621 6.24C111.621 4.992 111.834 3.92267 112.261 3.032C112.687 2.14133 113.29 1.45867 114.069 0.983999C114.853 0.509333 115.77 0.271999 116.821 0.271999C117.871 0.271999 118.781 0.509333 119.549 0.983999C120.322 1.45867 120.919 2.14133 121.341 3.032C121.762 3.92267 121.973 4.992 121.973 6.24C121.973 7.47733 121.765 8.53867 121.349 9.424C120.933 10.304 120.338 10.9813 119.565 11.456C118.791 11.9253 117.877 12.16 116.821 12.16ZM116.821 10.528C117.45 10.528 117.991 10.3813 118.445 10.088C118.898 9.78933 119.245 9.328 119.485 8.704C119.73 8.07467 119.852 7.26133 119.852 6.264C119.852 5.25067 119.73 4.424 119.485 3.784C119.239 3.13867 118.89 2.664 118.437 2.36C117.983 2.056 117.445 1.904 116.821 1.904C116.191 1.904 115.647 2.05867 115.189 2.368C114.735 2.672 114.383 3.14667 114.133 3.792C113.882 4.432 113.757 5.256 113.757 6.264C113.757 7.26133 113.882 8.07467 114.133 8.704C114.383 9.328 114.735 9.78933 115.189 10.088C115.647 10.3813 116.191 10.528 116.821 10.528ZM124.181 0.431999C124.229 0.431999 124.371 0.431999 124.605 0.431999C124.84 0.431999 125.117 0.431999 125.437 0.431999C125.763 0.431999 126.091 0.434666 126.421 0.44C126.757 0.44 127.048 0.442666 127.293 0.447999C128.701 0.474666 129.845 0.717333 130.725 1.176C131.611 1.62933 132.259 2.27733 132.669 3.12C133.085 3.95733 133.293 4.968 133.293 6.152C133.293 7.38933 133.072 8.44267 132.629 9.312C132.192 10.1813 131.52 10.848 130.613 11.312C129.712 11.7707 128.565 12 127.173 12H124.181V0.431999ZM126.157 2.04V10.392H127.205C128 10.392 128.701 10.256 129.309 9.984C129.917 9.70667 130.392 9.25867 130.733 8.64C131.08 8.02133 131.253 7.19467 131.253 6.16C131.253 5.15733 131.093 4.35467 130.773 3.752C130.453 3.14933 129.995 2.71467 129.397 2.448C128.8 2.176 128.085 2.04 127.253 2.04H126.157ZM134.169 12L138.329 0.431999H140.433L144.585 12H142.633L141.601 9.096H137.185L136.129 12H134.169ZM137.633 7.368H141.121L139.385 2.328L137.633 7.368ZM153.9 0.431999L149.924 7.112V12H147.98V7.104L143.996 0.431999H146.108L148.964 5.408L151.772 0.431999H153.9Z" fill="#191C1F"/>
</svg>
