<svg width="200" height="260" viewBox="0 0 200 260" fill="none" xmlns="http://www.w3.org/2000/svg">
<path d="M4.016 18V7.992H0.352V6.432H9.24V7.992H5.744V18H4.016ZM15.452 18.16C14.4013 18.16 13.492 17.928 12.724 17.464C11.9613 16.9947 11.372 16.32 10.956 15.44C10.5453 14.5547 10.34 13.488 10.34 12.24C10.34 10.9813 10.548 9.90933 10.964 9.024C11.3853 8.13333 11.9773 7.45333 12.74 6.984C13.508 6.50933 14.412 6.272 15.452 6.272C16.4867 6.272 17.3827 6.50933 18.14 6.984C18.9027 7.45333 19.4893 8.13333 19.9 9.024C20.316 9.90933 20.524 10.9813 20.524 12.24C20.524 13.488 20.3187 14.552 19.908 15.432C19.4973 16.312 18.9107 16.9867 18.148 17.456C17.3907 17.9253 16.492 18.16 15.452 18.16ZM15.452 16.696C16.124 16.696 16.6973 16.5413 17.172 16.232C17.652 15.9227 18.0173 15.44 18.268 14.784C18.5187 14.128 18.644 13.288 18.644 12.264C18.644 11.2133 18.516 10.3547 18.26 9.688C18.0093 9.02133 17.644 8.53067 17.164 8.216C16.6893 7.896 16.1187 7.736 15.452 7.736C14.7853 7.736 14.2093 7.896 13.724 8.216C13.244 8.536 12.8733 9.02933 12.612 9.696C12.3507 10.3627 12.22 11.2187 12.22 12.264C12.22 13.2933 12.3507 14.136 12.612 14.792C12.8733 15.4427 13.244 15.9227 13.724 16.232C14.2093 16.5413 14.7853 16.696 15.452 16.696ZM22.8234 18V6.432H26.8314C27.658 6.432 28.3967 6.57333 29.0474 6.856C29.7034 7.13867 30.218 7.55467 30.5914 8.104C30.97 8.65333 31.1594 9.328 31.1594 10.128C31.1594 10.896 30.986 11.552 30.6394 12.096C30.298 12.6347 29.818 13.048 29.1994 13.336C28.586 13.6187 27.874 13.76 27.0634 13.76H24.5674V18H22.8234ZM24.5594 12.36H27.0154C27.7514 12.36 28.3514 12.1493 28.8154 11.728C29.2794 11.3013 29.5114 10.736 29.5114 10.032C29.5114 9.31733 29.2714 8.77067 28.7914 8.392C28.3114 8.008 27.698 7.816 26.9514 7.816H24.5594V12.36ZM41.2619 18.16C40.2165 18.16 39.3205 17.92 38.5739 17.44C37.8272 16.9547 37.2539 16.2667 36.8539 15.376C36.4592 14.48 36.2619 13.408 36.2619 12.16C36.2619 10.9173 36.4592 9.85867 36.8539 8.984C37.2485 8.104 37.8192 7.432 38.5659 6.968C39.3125 6.504 40.2112 6.272 41.2619 6.272C42.0939 6.272 42.8325 6.44267 43.4779 6.784C44.1232 7.12533 44.6405 7.584 45.0299 8.16C45.4245 8.736 45.6592 9.37333 45.7339 10.072H43.9099C43.8299 9.63467 43.6752 9.24 43.4459 8.888C43.2219 8.53067 42.9232 8.25067 42.5499 8.048C42.1765 7.84 41.7339 7.736 41.2219 7.736C40.5659 7.736 40.0085 7.89067 39.5499 8.2C39.0912 8.50933 38.7419 8.992 38.5019 9.648C38.2672 10.304 38.1499 11.1493 38.1499 12.184C38.1499 13.7467 38.4139 14.8907 38.9419 15.616C39.4699 16.336 40.2299 16.696 41.2219 16.696C41.7339 16.696 42.1765 16.5867 42.5499 16.368C42.9232 16.144 43.2219 15.848 43.4459 15.48C43.6752 15.1067 43.8299 14.7013 43.9099 14.264H45.7339C45.6699 14.7707 45.5365 15.2587 45.3339 15.728C45.1312 16.192 44.8485 16.608 44.4859 16.976C44.1285 17.344 43.6832 17.6347 43.1499 17.848C42.6165 18.056 41.9872 18.16 41.2619 18.16ZM46.9125 18L51.0885 6.432H52.9765L57.1445 18H55.4165L54.3285 14.968H49.7445L48.6485 18H46.9125ZM50.1685 13.416H53.8805L52.0245 8.096L50.1685 13.416ZM60.3598 18V7.992H56.6958V6.432H65.5838V7.992H62.0878V18H60.3598ZM67.4015 18V6.432H74.8735L74.8655 7.92H69.1215V11.432H74.2495V12.896H69.1135V16.488L75.0095 16.496V18H67.4015ZM81.7226 18.16C80.6933 18.16 79.8053 17.9253 79.0586 17.456C78.312 16.9867 77.736 16.312 77.3306 15.432C76.9306 14.5467 76.7306 13.4853 76.7306 12.248C76.7306 11 76.936 9.93067 77.3466 9.04C77.7626 8.144 78.352 7.45867 79.1146 6.984C79.8773 6.50933 80.7733 6.272 81.8026 6.272C82.416 6.272 82.984 6.376 83.5066 6.584C84.0346 6.792 84.4986 7.07467 84.8986 7.432C85.304 7.78933 85.624 8.19467 85.8586 8.648C86.0933 9.10133 86.2266 9.576 86.2586 10.072H84.4346C84.36 9.66133 84.2 9.28267 83.9546 8.936C83.7146 8.584 83.408 8.30133 83.0346 8.088C82.6613 7.87467 82.24 7.768 81.7706 7.768C81.1466 7.768 80.5946 7.92267 80.1146 8.232C79.6346 8.54133 79.2586 9.024 78.9866 9.68C78.72 10.3307 78.5866 11.1733 78.5866 12.208C78.5866 13.0133 78.6693 13.6987 78.8346 14.264C79.0053 14.8293 79.2373 15.2853 79.5306 15.632C79.824 15.9787 80.168 16.232 80.5626 16.392C80.9573 16.5467 81.3786 16.624 81.8266 16.624C82.2693 16.624 82.6586 16.5467 82.9946 16.392C83.3306 16.2373 83.6106 16.0373 83.8346 15.792C84.064 15.5467 84.24 15.2827 84.3626 15C84.4906 14.712 84.5653 14.4347 84.5866 14.168L84.6426 13.232H81.9386V12L86.4266 12.016V18H85.1866V16.304C84.984 16.6187 84.7306 16.9173 84.4266 17.2C84.1226 17.4827 83.7493 17.7147 83.3066 17.896C82.864 18.072 82.336 18.16 81.7226 18.16ZM93.6864 18.16C92.6357 18.16 91.7264 17.928 90.9584 17.464C90.1957 16.9947 89.6064 16.32 89.1904 15.44C88.7797 14.5547 88.5744 13.488 88.5744 12.24C88.5744 10.9813 88.7824 9.90933 89.1984 9.024C89.6197 8.13333 90.2117 7.45333 90.9744 6.984C91.7424 6.50933 92.6464 6.272 93.6864 6.272C94.721 6.272 95.617 6.50933 96.3744 6.984C97.137 7.45333 97.7237 8.13333 98.1344 9.024C98.5504 9.90933 98.7584 10.9813 98.7584 12.24C98.7584 13.488 98.553 14.552 98.1424 15.432C97.7317 16.312 97.145 16.9867 96.3824 17.456C95.625 17.9253 94.7264 18.16 93.6864 18.16ZM93.6864 16.696C94.3584 16.696 94.9317 16.5413 95.4064 16.232C95.8864 15.9227 96.2517 15.44 96.5024 14.784C96.753 14.128 96.8784 13.288 96.8784 12.264C96.8784 11.2133 96.7504 10.3547 96.4944 9.688C96.2437 9.02133 95.8784 8.53067 95.3984 8.216C94.9237 7.896 94.353 7.736 93.6864 7.736C93.0197 7.736 92.4437 7.896 91.9584 8.216C91.4784 8.536 91.1077 9.02933 90.8464 9.696C90.585 10.3627 90.4544 11.2187 90.4544 12.264C90.4544 13.2933 90.585 14.136 90.8464 14.792C91.1077 15.4427 91.4784 15.9227 91.9584 16.232C92.4437 16.5413 93.0197 16.696 93.6864 16.696ZM101.058 18V6.432H105.65C106.508 6.432 107.22 6.56533 107.786 6.832C108.351 7.09333 108.772 7.46667 109.05 7.952C109.327 8.43733 109.466 9.01067 109.466 9.672C109.466 10.296 109.359 10.816 109.146 11.232C108.938 11.648 108.666 11.9867 108.33 12.248C107.999 12.5093 107.65 12.7147 107.282 12.864L109.522 18H107.722L105.674 13.16H102.77V18H101.058ZM102.77 11.776H105.186C105.991 11.776 106.615 11.6027 107.058 11.256C107.5 10.904 107.722 10.4027 107.722 9.752C107.722 9.112 107.519 8.62667 107.114 8.296C106.714 7.96533 106.17 7.8 105.482 7.8H102.77V11.776ZM114.378 18V13.088L110.41 6.432H112.282L115.242 11.576L118.162 6.432H120.034L116.09 13.096V18H114.378Z" fill="white"/>
<path d="M5.11 57.14C4.19533 57.14 3.41133 56.93 2.758 56.51C2.10467 56.0853 1.603 55.4833 1.253 54.704C0.907667 53.92 0.735 52.982 0.735 51.89C0.735 50.8027 0.907667 49.8763 1.253 49.111C1.59833 48.341 2.09767 47.753 2.751 47.347C3.40433 46.941 4.19067 46.738 5.11 46.738C5.838 46.738 6.48433 46.8873 7.049 47.186C7.61367 47.4847 8.06633 47.886 8.407 48.39C8.75233 48.894 8.95767 49.4517 9.023 50.063H7.427C7.357 49.6803 7.22167 49.335 7.021 49.027C6.825 48.7143 6.56367 48.4693 6.237 48.292C5.91033 48.11 5.523 48.019 5.075 48.019C4.501 48.019 4.01333 48.1543 3.612 48.425C3.21067 48.6957 2.905 49.118 2.695 49.692C2.48967 50.266 2.387 51.0057 2.387 51.911C2.387 53.2783 2.618 54.2793 3.08 54.914C3.542 55.544 4.207 55.859 5.075 55.859C5.523 55.859 5.91033 55.7633 6.237 55.572C6.56367 55.376 6.825 55.117 7.021 54.795C7.22167 54.4683 7.357 54.1137 7.427 53.731H9.023C8.967 54.1743 8.85033 54.6013 8.673 55.012C8.49567 55.418 8.24833 55.782 7.931 56.104C7.61833 56.426 7.22867 56.6803 6.762 56.867C6.29533 57.049 5.74467 57.14 5.11 57.14ZM13.7174 57.14C13.0407 57.14 12.4504 56.9953 11.9464 56.706C11.4424 56.412 11.0504 55.9873 10.7704 55.432C10.4904 54.8767 10.3504 54.2047 10.3504 53.416C10.3504 52.6553 10.4834 51.9903 10.7494 51.421C11.0154 50.8517 11.398 50.4107 11.8974 50.098C12.4014 49.7807 13.0104 49.622 13.7244 49.622C14.4057 49.622 14.996 49.7713 15.4954 50.07C15.9947 50.364 16.382 50.7957 16.6574 51.365C16.9327 51.9297 17.0704 52.6133 17.0704 53.416C17.0704 54.1487 16.942 54.795 16.6854 55.355C16.4287 55.915 16.0507 56.3537 15.5514 56.671C15.0567 56.9837 14.4454 57.14 13.7174 57.14ZM13.7244 55.985C14.1397 55.985 14.485 55.8777 14.7604 55.663C15.0357 55.4437 15.2434 55.138 15.3834 54.746C15.5234 54.3493 15.5934 53.892 15.5934 53.374C15.5934 52.8933 15.5304 52.457 15.4044 52.065C15.283 51.6683 15.0847 51.3533 14.8094 51.12C14.5387 50.8867 14.177 50.77 13.7244 50.77C13.309 50.77 12.959 50.8773 12.6744 51.092C12.3944 51.302 12.1844 51.603 12.0444 51.995C11.9044 52.3823 11.8344 52.842 11.8344 53.374C11.8344 53.8453 11.8974 54.2793 12.0234 54.676C12.1494 55.0727 12.35 55.39 12.6254 55.628C12.9054 55.866 13.2717 55.985 13.7244 55.985ZM18.7064 57V49.762H20.1624V50.805C20.3677 50.4877 20.6477 50.2123 21.0024 49.979C21.3571 49.741 21.8144 49.622 22.3744 49.622C22.6357 49.622 22.8994 49.6663 23.1654 49.755C23.4361 49.8437 23.6834 49.9767 23.9074 50.154C24.1361 50.3267 24.3157 50.5413 24.4464 50.798C24.6751 50.4527 24.9807 50.1703 25.3634 49.951C25.7461 49.7317 26.1754 49.622 26.6514 49.622C26.9081 49.622 27.1741 49.664 27.4494 49.748C27.7247 49.8273 27.9791 49.965 28.2124 50.161C28.4504 50.3523 28.6417 50.6183 28.7864 50.959C28.9357 51.2997 29.0104 51.7313 29.0104 52.254V57H27.5054V52.415C27.5054 52.0183 27.4377 51.708 27.3024 51.484C27.1717 51.26 26.9991 51.1037 26.7844 51.015C26.5744 50.9217 26.3504 50.875 26.1124 50.875C25.8977 50.875 25.6737 50.917 25.4404 51.001C25.2071 51.085 25.0087 51.225 24.8454 51.421C24.6821 51.617 24.6004 51.883 24.6004 52.219V57H23.1024V52.093C23.1024 51.827 23.0301 51.603 22.8854 51.421C22.7454 51.239 22.5681 51.1037 22.3534 51.015C22.1434 50.9217 21.9334 50.875 21.7234 50.875C21.4901 50.875 21.2567 50.9217 21.0234 51.015C20.7901 51.1083 20.5941 51.2553 20.4354 51.456C20.2814 51.652 20.2044 51.9063 20.2044 52.219V57H18.7064ZM30.9291 59.254V49.762H32.4271L32.4411 50.966C32.5297 50.8073 32.6441 50.651 32.7841 50.497C32.9241 50.3383 33.0897 50.1937 33.2811 50.063C33.4771 49.9277 33.6987 49.8203 33.9461 49.741C34.1981 49.6617 34.4757 49.622 34.7791 49.622C35.3484 49.622 35.8501 49.755 36.2841 50.021C36.7227 50.2823 37.0634 50.686 37.3061 51.232C37.5534 51.7733 37.6771 52.4617 37.6771 53.297C37.6771 54.137 37.5534 54.8417 37.3061 55.411C37.0634 55.9803 36.7157 56.412 36.2631 56.706C35.8104 56.9953 35.2737 57.14 34.6531 57.14C34.3544 57.14 34.0861 57.098 33.8481 57.014C33.6101 56.93 33.4001 56.8203 33.2181 56.685C33.0361 56.545 32.8797 56.3957 32.7491 56.237C32.6231 56.0737 32.5181 55.9127 32.4341 55.754V59.254H30.9291ZM34.3381 55.999C34.8934 55.999 35.3484 55.7843 35.7031 55.355C36.0624 54.921 36.2421 54.2443 36.2421 53.325C36.2421 52.5363 36.0764 51.9133 35.7451 51.456C35.4184 50.994 34.9494 50.763 34.3381 50.763C33.7081 50.763 33.2321 51.0033 32.9101 51.484C32.5881 51.96 32.4271 52.5737 32.4271 53.325C32.4271 53.815 32.4971 54.263 32.6371 54.669C32.7817 55.0703 32.9964 55.3923 33.2811 55.635C33.5657 55.8777 33.9181 55.999 34.3381 55.999ZM41.9426 57.14C41.5786 57.1353 41.2309 57.0817 40.8996 56.979C40.5682 56.8763 40.2719 56.7223 40.0106 56.517C39.7539 56.3117 39.5486 56.0573 39.3946 55.754C39.2452 55.4507 39.1706 55.0983 39.1706 54.697V49.762H40.6756V54.536C40.6756 54.97 40.8109 55.3223 41.0816 55.593C41.3522 55.8637 41.7606 55.999 42.3066 55.999C42.8012 55.999 43.1979 55.8707 43.4966 55.614C43.7952 55.3527 43.9446 54.9723 43.9446 54.473V49.762H45.4356V57H44.2736L44.1056 55.6C44.0216 55.978 43.8699 56.2813 43.6506 56.51C43.4359 56.734 43.1792 56.8973 42.8806 57C42.5866 57.098 42.2739 57.1447 41.9426 57.14ZM50.251 57.049C49.7144 57.049 49.299 56.9767 49.005 56.832C48.711 56.6873 48.5057 56.4797 48.389 56.209C48.2724 55.9337 48.214 55.6023 48.214 55.215V50.84H47.038V49.762H48.263L48.627 47.634H49.719V49.755H51.343V50.84H49.719L49.726 55.159C49.726 55.397 49.7494 55.572 49.796 55.684C49.8474 55.7913 49.9314 55.8613 50.048 55.894C50.1694 55.922 50.3327 55.936 50.538 55.936H51.378V56.909C51.2894 56.9463 51.1517 56.979 50.965 57.007C50.783 57.035 50.545 57.049 50.251 57.049ZM55.9674 57.14C55.2814 57.14 54.6771 56.993 54.1544 56.699C53.6317 56.4003 53.2234 55.9757 52.9294 55.425C52.6401 54.8743 52.4954 54.2187 52.4954 53.458C52.4954 52.7067 52.6284 52.044 52.8944 51.47C53.1604 50.8913 53.5454 50.4387 54.0494 50.112C54.5534 49.7853 55.1601 49.622 55.8694 49.622C56.5647 49.622 57.1527 49.7713 57.6334 50.07C58.1141 50.3687 58.4781 50.7887 58.7254 51.33C58.9727 51.8667 59.0964 52.5013 59.0964 53.234V53.731H54.0004C53.9957 54.165 54.0657 54.5547 54.2104 54.9C54.3551 55.2407 54.5697 55.5113 54.8544 55.712C55.1437 55.908 55.5031 56.006 55.9324 56.006C56.3664 56.006 56.7397 55.908 57.0524 55.712C57.3697 55.516 57.5774 55.2243 57.6754 54.837H59.0614C58.9774 55.3317 58.7791 55.7517 58.4664 56.097C58.1537 56.4423 57.7781 56.7037 57.3394 56.881C56.9007 57.0537 56.4434 57.14 55.9674 57.14ZM54.0004 52.758H57.6684C57.6684 52.38 57.6031 52.037 57.4724 51.729C57.3417 51.4163 57.1411 51.1713 56.8704 50.994C56.6044 50.812 56.2684 50.721 55.8624 50.721C55.4471 50.721 55.1017 50.8213 54.8264 51.022C54.5511 51.2227 54.3434 51.4793 54.2034 51.792C54.0681 52.1047 54.0004 52.4267 54.0004 52.758ZM60.8021 57V49.762H62.2371V51.246C62.3584 50.8913 62.5264 50.595 62.7411 50.357C62.9604 50.1143 63.2148 49.9323 63.5041 49.811C63.7934 49.685 64.0991 49.622 64.4211 49.622C64.5191 49.622 64.6124 49.629 64.7011 49.643C64.7898 49.6523 64.8598 49.671 64.9111 49.699V51.141C64.8504 51.113 64.7711 51.0943 64.6731 51.085C64.5798 51.0757 64.4981 51.0687 64.4281 51.064C64.1108 51.0407 63.8214 51.057 63.5601 51.113C63.2988 51.169 63.0724 51.2623 62.8811 51.393C62.6944 51.5237 62.5498 51.694 62.4471 51.904C62.3491 52.114 62.3001 52.3613 62.3001 52.646V57H60.8021ZM72.4048 57.07C71.7235 57.07 71.1518 56.9603 70.6898 56.741C70.2278 56.517 69.8802 56.209 69.6468 55.817C69.4135 55.425 69.2968 54.9723 69.2968 54.459C69.2968 54.011 69.3855 53.6097 69.5628 53.255C69.7448 52.8957 70.0155 52.5643 70.3748 52.261C70.7388 51.9577 71.1938 51.6613 71.7398 51.372C71.4832 51.0967 71.2615 50.8353 71.0748 50.588C70.8882 50.336 70.7435 50.0817 70.6408 49.825C70.5428 49.5637 70.4938 49.2837 70.4938 48.985C70.4938 48.5603 70.6082 48.1777 70.8368 47.837C71.0655 47.4963 71.3828 47.2257 71.7888 47.025C72.1948 46.8243 72.6662 46.724 73.2028 46.724C73.7208 46.724 74.1968 46.815 74.6308 46.997C75.0648 47.1743 75.4125 47.4263 75.6738 47.753C75.9352 48.075 76.0658 48.4553 76.0658 48.894C76.0658 49.0853 76.0262 49.2883 75.9468 49.503C75.8722 49.713 75.7462 49.9347 75.5688 50.168C75.3915 50.4013 75.1512 50.6417 74.8478 50.889C74.5445 51.1317 74.1665 51.3767 73.7138 51.624L75.7578 54.018C75.8372 53.8873 75.9375 53.6983 76.0588 53.451C76.1802 53.2037 76.2922 52.912 76.3948 52.576C76.4975 52.24 76.5628 51.8713 76.5908 51.47H78.0888C78.0095 51.932 77.8858 52.3637 77.7178 52.765C77.5498 53.1617 77.3562 53.5373 77.1368 53.892C76.9222 54.242 76.7075 54.5803 76.4928 54.907L78.2778 57H76.5418L75.5898 55.908C75.0672 56.3233 74.5352 56.622 73.9938 56.804C73.4525 56.9813 72.9228 57.07 72.4048 57.07ZM72.7478 55.887C73.1072 55.887 73.4758 55.8077 73.8538 55.649C74.2318 55.4903 74.5632 55.2757 74.8478 55.005L72.4888 52.261C72.0362 52.513 71.6605 52.8187 71.3618 53.178C71.0632 53.5373 70.9302 53.9457 70.9628 54.403C70.9815 54.711 71.0748 54.977 71.2428 55.201C71.4155 55.4203 71.6325 55.5907 71.8938 55.712C72.1598 55.8287 72.4445 55.887 72.7478 55.887ZM73.0628 50.819C73.5062 50.5577 73.8468 50.322 74.0848 50.112C74.3275 49.8973 74.4932 49.6967 74.5818 49.51C74.6705 49.3187 74.7148 49.1273 74.7148 48.936C74.7148 48.642 74.6425 48.404 74.4978 48.222C74.3578 48.04 74.1758 47.9093 73.9518 47.83C73.7325 47.746 73.5038 47.7063 73.2658 47.711C72.8552 47.7157 72.5378 47.8347 72.3138 48.068C72.0945 48.3013 71.9848 48.5767 71.9848 48.894C71.9848 49.104 72.0292 49.314 72.1178 49.524C72.2112 49.7293 72.3208 49.9207 72.4468 50.098C72.5728 50.2707 72.6918 50.4177 72.8038 50.539L73.0628 50.819ZM83.49 57L83.497 46.878H85.016V55.684H89.692V57H83.49ZM93.164 57.14C92.6973 57.14 92.282 57.056 91.918 56.888C91.5587 56.72 91.2763 56.4773 91.071 56.16C90.8657 55.8427 90.763 55.46 90.763 55.012C90.763 54.2093 91.0453 53.6097 91.61 53.213C92.1793 52.8163 93.0893 52.6063 94.34 52.583L95.53 52.548V52.023C95.53 51.6077 95.4063 51.281 95.159 51.043C94.9117 50.805 94.529 50.6883 94.011 50.693C93.6283 50.693 93.2853 50.7817 92.982 50.959C92.6787 51.1363 92.4803 51.428 92.387 51.834H91.092C91.12 51.3533 91.2577 50.9497 91.505 50.623C91.757 50.2917 92.1023 50.042 92.541 49.874C92.9797 49.706 93.493 49.622 94.081 49.622C94.7437 49.622 95.2873 49.713 95.712 49.895C96.1367 50.0723 96.4517 50.3337 96.657 50.679C96.867 51.0243 96.972 51.4443 96.972 51.939V57H95.698L95.586 55.67C95.3153 56.2253 94.9723 56.6103 94.557 56.825C94.1417 57.035 93.6773 57.14 93.164 57.14ZM93.633 56.097C93.8617 56.097 94.088 56.0573 94.312 55.978C94.536 55.894 94.739 55.782 94.921 55.642C95.103 55.4973 95.2477 55.3363 95.355 55.159C95.467 54.9817 95.5253 54.7997 95.53 54.613V53.416L94.55 53.437C94.0507 53.4417 93.626 53.493 93.276 53.591C92.9307 53.689 92.6647 53.8407 92.478 54.046C92.296 54.2513 92.205 54.5243 92.205 54.865C92.205 55.2523 92.338 55.5557 92.604 55.775C92.8747 55.9897 93.2177 56.097 93.633 56.097ZM98.892 59.254V49.762H100.39L100.404 50.966C100.493 50.8073 100.607 50.651 100.747 50.497C100.887 50.3383 101.053 50.1937 101.244 50.063C101.44 49.9277 101.662 49.8203 101.909 49.741C102.161 49.6617 102.439 49.622 102.742 49.622C103.311 49.622 103.813 49.755 104.247 50.021C104.686 50.2823 105.026 50.686 105.269 51.232C105.516 51.7733 105.64 52.4617 105.64 53.297C105.64 54.137 105.516 54.8417 105.269 55.411C105.026 55.9803 104.679 56.412 104.226 56.706C103.773 56.9953 103.237 57.14 102.616 57.14C102.317 57.14 102.049 57.098 101.811 57.014C101.573 56.93 101.363 56.8203 101.181 56.685C100.999 56.545 100.843 56.3957 100.712 56.237C100.586 56.0737 100.481 55.9127 100.397 55.754V59.254H98.892ZM102.301 55.999C102.856 55.999 103.311 55.7843 103.666 55.355C104.025 54.921 104.205 54.2443 104.205 53.325C104.205 52.5363 104.039 51.9133 103.708 51.456C103.381 50.994 102.912 50.763 102.301 50.763C101.671 50.763 101.195 51.0033 100.873 51.484C100.551 51.96 100.39 52.5737 100.39 53.325C100.39 53.815 100.46 54.263 100.6 54.669C100.745 55.0703 100.959 55.3923 101.244 55.635C101.529 55.8777 101.881 55.999 102.301 55.999ZM109.751 57.049C109.214 57.049 108.799 56.9767 108.505 56.832C108.211 56.6873 108.006 56.4797 107.889 56.209C107.772 55.9337 107.714 55.6023 107.714 55.215V50.84H106.538V49.762H107.763L108.127 47.634H109.219V49.755H110.843V50.84H109.219L109.226 55.159C109.226 55.397 109.249 55.572 109.296 55.684C109.347 55.7913 109.431 55.8613 109.548 55.894C109.669 55.922 109.833 55.936 110.038 55.936H110.878V56.909C110.789 56.9463 110.652 56.979 110.465 57.007C110.283 57.035 110.045 57.049 109.751 57.049ZM115.299 57.14C114.623 57.14 114.032 56.9953 113.528 56.706C113.024 56.412 112.632 55.9873 112.352 55.432C112.072 54.8767 111.932 54.2047 111.932 53.416C111.932 52.6553 112.065 51.9903 112.331 51.421C112.597 50.8517 112.98 50.4107 113.479 50.098C113.983 49.7807 114.592 49.622 115.306 49.622C115.988 49.622 116.578 49.7713 117.077 50.07C117.577 50.364 117.964 50.7957 118.239 51.365C118.515 51.9297 118.652 52.6133 118.652 53.416C118.652 54.1487 118.524 54.795 118.267 55.355C118.011 55.915 117.633 56.3537 117.133 56.671C116.639 56.9837 116.027 57.14 115.299 57.14ZM115.306 55.985C115.722 55.985 116.067 55.8777 116.342 55.663C116.618 55.4437 116.825 55.138 116.965 54.746C117.105 54.3493 117.175 53.892 117.175 53.374C117.175 52.8933 117.112 52.457 116.986 52.065C116.865 51.6683 116.667 51.3533 116.391 51.12C116.121 50.8867 115.759 50.77 115.306 50.77C114.891 50.77 114.541 50.8773 114.256 51.092C113.976 51.302 113.766 51.603 113.626 51.995C113.486 52.3823 113.416 52.842 113.416 53.374C113.416 53.8453 113.479 54.2793 113.605 54.676C113.731 55.0727 113.932 55.39 114.207 55.628C114.487 55.866 114.854 55.985 115.306 55.985ZM120.288 59.254V49.762H121.786L121.8 50.966C121.889 50.8073 122.003 50.651 122.143 50.497C122.283 50.3383 122.449 50.1937 122.64 50.063C122.836 49.9277 123.058 49.8203 123.305 49.741C123.557 49.6617 123.835 49.622 124.138 49.622C124.708 49.622 125.209 49.755 125.643 50.021C126.082 50.2823 126.423 50.686 126.665 51.232C126.913 51.7733 127.036 52.4617 127.036 53.297C127.036 54.137 126.913 54.8417 126.665 55.411C126.423 55.9803 126.075 56.412 125.622 56.706C125.17 56.9953 124.633 57.14 124.012 57.14C123.714 57.14 123.445 57.098 123.207 57.014C122.969 56.93 122.759 56.8203 122.577 56.685C122.395 56.545 122.239 56.3957 122.108 56.237C121.982 56.0737 121.877 55.9127 121.793 55.754V59.254H120.288ZM123.697 55.999C124.253 55.999 124.708 55.7843 125.062 55.355C125.422 54.921 125.601 54.2443 125.601 53.325C125.601 52.5363 125.436 51.9133 125.104 51.456C124.778 50.994 124.309 50.763 123.697 50.763C123.067 50.763 122.591 51.0033 122.269 51.484C121.947 51.96 121.786 52.5737 121.786 53.325C121.786 53.815 121.856 54.263 121.996 54.669C122.141 55.0703 122.356 55.3923 122.64 55.635C122.925 55.8777 123.277 55.999 123.697 55.999Z" fill="#929FA5"/>
<path d="M4.809 89.14C4.31433 89.14 3.83833 89.0793 3.381 88.958C2.92833 88.8367 2.51533 88.657 2.142 88.419C1.77333 88.1763 1.46767 87.8753 1.225 87.516C0.987 87.1567 0.837667 86.7367 0.777 86.256H2.338C2.41733 86.62 2.57367 86.9257 2.807 87.173C3.045 87.4203 3.34133 87.607 3.696 87.733C4.05533 87.859 4.452 87.922 4.886 87.922C5.28733 87.922 5.65833 87.859 5.999 87.733C6.33967 87.607 6.615 87.425 6.825 87.187C7.035 86.949 7.14 86.6573 7.14 86.312C7.14 85.9247 7.00933 85.619 6.748 85.395C6.49133 85.1663 6.104 84.9843 5.586 84.849L3.556 84.345C3.066 84.2283 2.63433 84.0627 2.261 83.848C1.88767 83.6287 1.59833 83.3417 1.393 82.987C1.18767 82.6277 1.085 82.1843 1.085 81.657C1.085 81.069 1.246 80.558 1.568 80.124C1.89467 79.6853 2.33567 79.347 2.891 79.109C3.451 78.871 4.08333 78.752 4.788 78.752C5.59533 78.752 6.27433 78.8897 6.825 79.165C7.38033 79.4403 7.80033 79.8043 8.085 80.257C8.37433 80.705 8.52133 81.1927 8.526 81.72H7C6.958 81.2907 6.82967 80.95 6.615 80.698C6.405 80.4413 6.13667 80.257 5.81 80.145C5.488 80.033 5.131 79.977 4.739 79.977C4.04833 79.977 3.528 80.131 3.178 80.439C2.83267 80.7423 2.66 81.104 2.66 81.524C2.66 81.9113 2.786 82.217 3.038 82.441C3.29467 82.665 3.67267 82.8377 4.172 82.959L6.132 83.442C6.748 83.5773 7.24033 83.7803 7.609 84.051C7.98233 84.317 8.25067 84.632 8.414 84.996C8.57733 85.3553 8.659 85.7497 8.659 86.179C8.659 86.753 8.498 87.264 8.176 87.712C7.854 88.1553 7.40367 88.5053 6.825 88.762C6.251 89.014 5.579 89.14 4.809 89.14ZM10.4759 89V81.762H11.9319V82.805C12.1373 82.4877 12.4173 82.2123 12.7719 81.979C13.1266 81.741 13.5839 81.622 14.1439 81.622C14.4053 81.622 14.6689 81.6663 14.9349 81.755C15.2056 81.8437 15.4529 81.9767 15.6769 82.154C15.9056 82.3267 16.0853 82.5413 16.2159 82.798C16.4446 82.4527 16.7503 82.1703 17.1329 81.951C17.5156 81.7317 17.9449 81.622 18.4209 81.622C18.6776 81.622 18.9436 81.664 19.2189 81.748C19.4943 81.8273 19.7486 81.965 19.9819 82.161C20.2199 82.3523 20.4113 82.6183 20.5559 82.959C20.7053 83.2997 20.7799 83.7313 20.7799 84.254V89H19.2749V84.415C19.2749 84.0183 19.2073 83.708 19.0719 83.484C18.9413 83.26 18.7686 83.1037 18.5539 83.015C18.3439 82.9217 18.1199 82.875 17.8819 82.875C17.6673 82.875 17.4433 82.917 17.2099 83.001C16.9766 83.085 16.7783 83.225 16.6149 83.421C16.4516 83.617 16.3699 83.883 16.3699 84.219V89H14.8719V84.093C14.8719 83.827 14.7996 83.603 14.6549 83.421C14.5149 83.239 14.3376 83.1037 14.1229 83.015C13.9129 82.9217 13.7029 82.875 13.4929 82.875C13.2596 82.875 13.0263 82.9217 12.7929 83.015C12.5596 83.1083 12.3636 83.2553 12.2049 83.456C12.0509 83.652 11.9739 83.9063 11.9739 84.219V89H10.4759ZM24.7363 89.14C24.2696 89.14 23.8543 89.056 23.4903 88.888C23.1309 88.72 22.8486 88.4773 22.6433 88.16C22.4379 87.8427 22.3353 87.46 22.3353 87.012C22.3353 86.2093 22.6176 85.6097 23.1823 85.213C23.7516 84.8163 24.6616 84.6063 25.9123 84.583L27.1023 84.548V84.023C27.1023 83.6077 26.9786 83.281 26.7313 83.043C26.4839 82.805 26.1013 82.6883 25.5833 82.693C25.2006 82.693 24.8576 82.7817 24.5543 82.959C24.2509 83.1363 24.0526 83.428 23.9593 83.834H22.6643C22.6923 83.3533 22.8299 82.9497 23.0773 82.623C23.3293 82.2917 23.6746 82.042 24.1133 81.874C24.5519 81.706 25.0653 81.622 25.6533 81.622C26.3159 81.622 26.8596 81.713 27.2843 81.895C27.7089 82.0723 28.0239 82.3337 28.2293 82.679C28.4393 83.0243 28.5443 83.4443 28.5443 83.939V89H27.2703L27.1583 87.67C26.8876 88.2253 26.5446 88.6103 26.1293 88.825C25.7139 89.035 25.2496 89.14 24.7363 89.14ZM25.2053 88.097C25.4339 88.097 25.6603 88.0573 25.8843 87.978C26.1083 87.894 26.3113 87.782 26.4933 87.642C26.6753 87.4973 26.8199 87.3363 26.9273 87.159C27.0393 86.9817 27.0976 86.7997 27.1023 86.613V85.416L26.1223 85.437C25.6229 85.4417 25.1983 85.493 24.8483 85.591C24.5029 85.689 24.2369 85.8407 24.0503 86.046C23.8683 86.2513 23.7773 86.5243 23.7773 86.865C23.7773 87.2523 23.9103 87.5557 24.1763 87.775C24.4469 87.9897 24.7899 88.097 25.2053 88.097ZM30.4642 89V81.762H31.8992V83.246C32.0206 82.8913 32.1886 82.595 32.4032 82.357C32.6226 82.1143 32.8769 81.9323 33.1662 81.811C33.4556 81.685 33.7612 81.622 34.0832 81.622C34.1812 81.622 34.2746 81.629 34.3632 81.643C34.4519 81.6523 34.5219 81.671 34.5732 81.699V83.141C34.5126 83.113 34.4332 83.0943 34.3352 83.085C34.2419 83.0757 34.1602 83.0687 34.0902 83.064C33.7729 83.0407 33.4836 83.057 33.2222 83.113C32.9609 83.169 32.7346 83.2623 32.5432 83.393C32.3566 83.5237 32.2119 83.694 32.1092 83.904C32.0112 84.114 31.9622 84.3613 31.9622 84.646V89H30.4642ZM38.6163 89.049C38.0796 89.049 37.6643 88.9767 37.3703 88.832C37.0763 88.6873 36.8709 88.4797 36.7543 88.209C36.6376 87.9337 36.5793 87.6023 36.5793 87.215V82.84H35.4033V81.762H36.6283L36.9923 79.634H38.0843V81.755H39.7083V82.84H38.0843L38.0913 87.159C38.0913 87.397 38.1146 87.572 38.1613 87.684C38.2126 87.7913 38.2966 87.8613 38.4133 87.894C38.5346 87.922 38.6979 87.936 38.9033 87.936H39.7433V88.909C39.6546 88.9463 39.5169 88.979 39.3303 89.007C39.1483 89.035 38.9103 89.049 38.6163 89.049ZM41.654 89V78.878H45.161C45.8844 78.878 46.5307 79.0017 47.1 79.249C47.674 79.4963 48.1244 79.8603 48.451 80.341C48.7824 80.8217 48.948 81.412 48.948 82.112C48.948 82.784 48.7964 83.358 48.493 83.834C48.1944 84.3053 47.7744 84.667 47.233 84.919C46.6964 85.1663 46.0734 85.29 45.364 85.29H43.18V89H41.654ZM43.173 84.065H45.322C45.966 84.065 46.491 83.8807 46.897 83.512C47.303 83.1387 47.506 82.644 47.506 82.028C47.506 81.4027 47.296 80.9243 46.876 80.593C46.456 80.257 45.9194 80.089 45.266 80.089H43.173V84.065ZM50.3568 89V78.598H51.8338V82.819C51.9505 82.6277 52.1068 82.4457 52.3028 82.273C52.5035 82.1003 52.7461 81.9603 53.0308 81.853C53.3201 81.741 53.6561 81.685 54.0388 81.685C54.5101 81.685 54.9348 81.7737 55.3128 81.951C55.6955 82.1237 55.9988 82.3757 56.2228 82.707C56.4515 83.0337 56.5658 83.4233 56.5658 83.876V89H55.0678V84.149C55.0678 83.743 54.9278 83.4303 54.6478 83.211C54.3678 82.9917 54.0085 82.882 53.5698 82.882C53.2758 82.882 52.9958 82.9333 52.7298 83.036C52.4685 83.134 52.2561 83.2833 52.0928 83.484C51.9341 83.68 51.8548 83.9273 51.8548 84.226V89H50.3568ZM61.4596 89.14C60.7829 89.14 60.1926 88.9953 59.6886 88.706C59.1846 88.412 58.7926 87.9873 58.5126 87.432C58.2326 86.8767 58.0926 86.2047 58.0926 85.416C58.0926 84.6553 58.2256 83.9903 58.4916 83.421C58.7576 82.8517 59.1402 82.4107 59.6396 82.098C60.1436 81.7807 60.7526 81.622 61.4666 81.622C62.1479 81.622 62.7382 81.7713 63.2376 82.07C63.7369 82.364 64.1242 82.7957 64.3996 83.365C64.6749 83.9297 64.8126 84.6133 64.8126 85.416C64.8126 86.1487 64.6842 86.795 64.4276 87.355C64.1709 87.915 63.7929 88.3537 63.2936 88.671C62.7989 88.9837 62.1876 89.14 61.4596 89.14ZM61.4666 87.985C61.8819 87.985 62.2272 87.8777 62.5026 87.663C62.7779 87.4437 62.9856 87.138 63.1256 86.746C63.2656 86.3493 63.3356 85.892 63.3356 85.374C63.3356 84.8933 63.2726 84.457 63.1466 84.065C63.0252 83.6683 62.8269 83.3533 62.5516 83.12C62.2809 82.8867 61.9192 82.77 61.4666 82.77C61.0512 82.77 60.7012 82.8773 60.4166 83.092C60.1366 83.302 59.9266 83.603 59.7866 83.995C59.6466 84.3823 59.5766 84.842 59.5766 85.374C59.5766 85.8453 59.6396 86.2793 59.7656 86.676C59.8916 87.0727 60.0922 87.39 60.3676 87.628C60.6476 87.866 61.0139 87.985 61.4666 87.985ZM66.4486 89V81.762H67.9116V82.805C68.0283 82.609 68.1846 82.4247 68.3806 82.252C68.5813 82.0793 68.8263 81.9393 69.1156 81.832C69.4096 81.7247 69.7479 81.671 70.1306 81.671C70.5833 81.671 71.0009 81.762 71.3836 81.944C71.7709 82.1213 72.0813 82.4013 72.3146 82.784C72.5479 83.162 72.6646 83.652 72.6646 84.254V89H71.1666V84.415C71.1666 83.897 71.0266 83.512 70.7466 83.26C70.4713 83.008 70.1143 82.882 69.6756 82.882C69.3816 82.882 69.1016 82.931 68.8356 83.029C68.5696 83.127 68.3549 83.2763 68.1916 83.477C68.0283 83.673 67.9466 83.9203 67.9466 84.219V89H66.4486ZM77.7194 89.14C77.0334 89.14 76.429 88.993 75.9064 88.699C75.3837 88.4003 74.9754 87.9757 74.6814 87.425C74.392 86.8743 74.2474 86.2187 74.2474 85.458C74.2474 84.7067 74.3804 84.044 74.6464 83.47C74.9124 82.8913 75.2974 82.4387 75.8014 82.112C76.3054 81.7853 76.912 81.622 77.6214 81.622C78.3167 81.622 78.9047 81.7713 79.3854 82.07C79.866 82.3687 80.23 82.7887 80.4774 83.33C80.7247 83.8667 80.8484 84.5013 80.8484 85.234V85.731H75.7524C75.7477 86.165 75.8177 86.5547 75.9624 86.9C76.107 87.2407 76.3217 87.5113 76.6064 87.712C76.8957 87.908 77.255 88.006 77.6844 88.006C78.1184 88.006 78.4917 87.908 78.8044 87.712C79.1217 87.516 79.3294 87.2243 79.4274 86.837H80.8134C80.7294 87.3317 80.531 87.7517 80.2184 88.097C79.9057 88.4423 79.53 88.7037 79.0914 88.881C78.6527 89.0537 78.1954 89.14 77.7194 89.14ZM75.7524 84.758H79.4204C79.4204 84.38 79.355 84.037 79.2244 83.729C79.0937 83.4163 78.893 83.1713 78.6224 82.994C78.3564 82.812 78.0204 82.721 77.6144 82.721C77.199 82.721 76.8537 82.8213 76.5784 83.022C76.303 83.2227 76.0954 83.4793 75.9554 83.792C75.82 84.1047 75.7524 84.4267 75.7524 84.758Z" fill="#929FA5"/>
<path d="M1.281 121V110.878H2.779V115.12H7.959V110.878H9.457V121H7.959V116.422H2.779V121H1.281ZM14.7604 121.14C14.0744 121.14 13.47 120.993 12.9474 120.699C12.4247 120.4 12.0164 119.976 11.7224 119.425C11.433 118.874 11.2884 118.219 11.2884 117.458C11.2884 116.707 11.4214 116.044 11.6874 115.47C11.9534 114.891 12.3384 114.439 12.8424 114.112C13.3464 113.785 13.953 113.622 14.6624 113.622C15.3577 113.622 15.9457 113.771 16.4264 114.07C16.907 114.369 17.271 114.789 17.5184 115.33C17.7657 115.867 17.8894 116.501 17.8894 117.234V117.731H12.7934C12.7887 118.165 12.8587 118.555 13.0034 118.9C13.148 119.241 13.3627 119.511 13.6474 119.712C13.9367 119.908 14.296 120.006 14.7254 120.006C15.1594 120.006 15.5327 119.908 15.8454 119.712C16.1627 119.516 16.3704 119.224 16.4684 118.837H17.8544C17.7704 119.332 17.572 119.752 17.2594 120.097C16.9467 120.442 16.571 120.704 16.1324 120.881C15.6937 121.054 15.2364 121.14 14.7604 121.14ZM12.7934 116.758H16.4614C16.4614 116.38 16.396 116.037 16.2654 115.729C16.1347 115.416 15.934 115.171 15.6634 114.994C15.3974 114.812 15.0614 114.721 14.6554 114.721C14.24 114.721 13.8947 114.821 13.6194 115.022C13.344 115.223 13.1364 115.479 12.9964 115.792C12.861 116.105 12.7934 116.427 12.7934 116.758ZM21.578 121.14C21.1114 121.14 20.696 121.056 20.332 120.888C19.9727 120.72 19.6904 120.477 19.485 120.16C19.2797 119.843 19.177 119.46 19.177 119.012C19.177 118.209 19.4594 117.61 20.024 117.213C20.5934 116.816 21.5034 116.606 22.754 116.583L23.944 116.548V116.023C23.944 115.608 23.8204 115.281 23.573 115.043C23.3257 114.805 22.943 114.688 22.425 114.693C22.0424 114.693 21.6994 114.782 21.396 114.959C21.0927 115.136 20.8944 115.428 20.801 115.834H19.506C19.534 115.353 19.6717 114.95 19.919 114.623C20.171 114.292 20.5164 114.042 20.955 113.874C21.3937 113.706 21.907 113.622 22.495 113.622C23.1577 113.622 23.7014 113.713 24.126 113.895C24.5507 114.072 24.8657 114.334 25.071 114.679C25.281 115.024 25.386 115.444 25.386 115.939V121H24.112L24 119.67C23.7294 120.225 23.3864 120.61 22.971 120.825C22.5557 121.035 22.0914 121.14 21.578 121.14ZM22.047 120.097C22.2757 120.097 22.502 120.057 22.726 119.978C22.95 119.894 23.153 119.782 23.335 119.642C23.517 119.497 23.6617 119.336 23.769 119.159C23.881 118.982 23.9394 118.8 23.944 118.613V117.416L22.964 117.437C22.4647 117.442 22.04 117.493 21.69 117.591C21.3447 117.689 21.0787 117.841 20.892 118.046C20.71 118.251 20.619 118.524 20.619 118.865C20.619 119.252 20.752 119.556 21.018 119.775C21.2887 119.99 21.6317 120.097 22.047 120.097ZM29.973 121.14C29.0257 121.14 28.2767 120.816 27.726 120.167C27.18 119.514 26.907 118.573 26.907 117.346C26.907 116.595 27.0167 115.941 27.236 115.386C27.46 114.826 27.789 114.392 28.223 114.084C28.657 113.776 29.1983 113.622 29.847 113.622C30.169 113.622 30.4583 113.662 30.715 113.741C30.9717 113.82 31.1957 113.923 31.387 114.049C31.5783 114.175 31.7393 114.31 31.87 114.455C32.0007 114.6 32.0987 114.735 32.164 114.861V110.598H33.676V121H32.549L32.381 119.516C32.3297 119.675 32.2503 119.847 32.143 120.034C32.0403 120.221 31.8957 120.398 31.709 120.566C31.527 120.734 31.2937 120.872 31.009 120.979C30.7243 121.086 30.379 121.14 29.973 121.14ZM30.26 120.013C30.932 120.013 31.4173 119.803 31.716 119.383C32.0147 118.958 32.164 118.263 32.164 117.297C32.1593 116.751 32.0917 116.289 31.961 115.911C31.835 115.533 31.6343 115.248 31.359 115.057C31.0883 114.861 30.7313 114.763 30.288 114.763C29.7327 114.763 29.2777 114.964 28.923 115.365C28.573 115.762 28.398 116.406 28.398 117.297C28.398 118.174 28.5567 118.846 28.874 119.313C29.196 119.78 29.658 120.013 30.26 120.013ZM35.7826 123.254V113.762H37.2806L37.2946 114.966C37.3832 114.807 37.4976 114.651 37.6376 114.497C37.7776 114.338 37.9432 114.194 38.1346 114.063C38.3306 113.928 38.5522 113.82 38.7996 113.741C39.0516 113.662 39.3292 113.622 39.6326 113.622C40.2019 113.622 40.7036 113.755 41.1376 114.021C41.5762 114.282 41.9169 114.686 42.1596 115.232C42.4069 115.773 42.5306 116.462 42.5306 117.297C42.5306 118.137 42.4069 118.842 42.1596 119.411C41.9169 119.98 41.5692 120.412 41.1166 120.706C40.6639 120.995 40.1272 121.14 39.5066 121.14C39.2079 121.14 38.9396 121.098 38.7016 121.014C38.4636 120.93 38.2536 120.82 38.0716 120.685C37.8896 120.545 37.7332 120.396 37.6026 120.237C37.4766 120.074 37.3716 119.913 37.2876 119.754V123.254H35.7826ZM39.1916 119.999C39.7469 119.999 40.2019 119.784 40.5566 119.355C40.9159 118.921 41.0956 118.244 41.0956 117.325C41.0956 116.536 40.9299 115.913 40.5986 115.456C40.2719 114.994 39.8029 114.763 39.1916 114.763C38.5616 114.763 38.0856 115.003 37.7636 115.484C37.4416 115.96 37.2806 116.574 37.2806 117.325C37.2806 117.815 37.3506 118.263 37.4906 118.669C37.6352 119.07 37.8499 119.392 38.1346 119.635C38.4192 119.878 38.7716 119.999 39.1916 119.999ZM44.1634 121V110.598H45.6404V114.819C45.7571 114.628 45.9134 114.446 46.1094 114.273C46.3101 114.1 46.5528 113.96 46.8374 113.853C47.1268 113.741 47.4628 113.685 47.8454 113.685C48.3168 113.685 48.7414 113.774 49.1194 113.951C49.5021 114.124 49.8054 114.376 50.0294 114.707C50.2581 115.034 50.3724 115.423 50.3724 115.876V121H48.8744V116.149C48.8744 115.743 48.7344 115.43 48.4544 115.211C48.1744 114.992 47.8151 114.882 47.3764 114.882C47.0824 114.882 46.8024 114.933 46.5364 115.036C46.2751 115.134 46.0628 115.283 45.8994 115.484C45.7408 115.68 45.6614 115.927 45.6614 116.226V121H44.1634ZM55.2662 121.14C54.5895 121.14 53.9992 120.995 53.4952 120.706C52.9912 120.412 52.5992 119.987 52.3192 119.432C52.0392 118.877 51.8992 118.205 51.8992 117.416C51.8992 116.655 52.0322 115.99 52.2982 115.421C52.5642 114.852 52.9469 114.411 53.4462 114.098C53.9502 113.781 54.5592 113.622 55.2732 113.622C55.9545 113.622 56.5449 113.771 57.0442 114.07C57.5435 114.364 57.9309 114.796 58.2062 115.365C58.4815 115.93 58.6192 116.613 58.6192 117.416C58.6192 118.149 58.4909 118.795 58.2342 119.355C57.9775 119.915 57.5995 120.354 57.1002 120.671C56.6055 120.984 55.9942 121.14 55.2662 121.14ZM55.2732 119.985C55.6885 119.985 56.0339 119.878 56.3092 119.663C56.5845 119.444 56.7922 119.138 56.9322 118.746C57.0722 118.349 57.1422 117.892 57.1422 117.374C57.1422 116.893 57.0792 116.457 56.9532 116.065C56.8319 115.668 56.6335 115.353 56.3582 115.12C56.0875 114.887 55.7259 114.77 55.2732 114.77C54.8579 114.77 54.5079 114.877 54.2232 115.092C53.9432 115.302 53.7332 115.603 53.5932 115.995C53.4532 116.382 53.3832 116.842 53.3832 117.374C53.3832 117.845 53.4462 118.279 53.5722 118.676C53.6982 119.073 53.8989 119.39 54.1742 119.628C54.4542 119.866 54.8205 119.985 55.2732 119.985ZM60.2552 121V113.762H61.7182V114.805C61.8349 114.609 61.9912 114.425 62.1872 114.252C62.3879 114.079 62.6329 113.939 62.9222 113.832C63.2162 113.725 63.5546 113.671 63.9372 113.671C64.3899 113.671 64.8076 113.762 65.1902 113.944C65.5776 114.121 65.8879 114.401 66.1212 114.784C66.3546 115.162 66.4712 115.652 66.4712 116.254V121H64.9732V116.415C64.9732 115.897 64.8332 115.512 64.5532 115.26C64.2779 115.008 63.9209 114.882 63.4822 114.882C63.1882 114.882 62.9082 114.931 62.6422 115.029C62.3762 115.127 62.1616 115.276 61.9982 115.477C61.8349 115.673 61.7532 115.92 61.7532 116.219V121H60.2552ZM71.526 121.14C70.84 121.14 70.2357 120.993 69.713 120.699C69.1903 120.4 68.782 119.976 68.488 119.425C68.1987 118.874 68.054 118.219 68.054 117.458C68.054 116.707 68.187 116.044 68.453 115.47C68.719 114.891 69.104 114.439 69.608 114.112C70.112 113.785 70.7187 113.622 71.428 113.622C72.1233 113.622 72.7113 113.771 73.192 114.07C73.6727 114.369 74.0367 114.789 74.284 115.33C74.5313 115.867 74.655 116.501 74.655 117.234V117.731H69.559C69.5543 118.165 69.6243 118.555 69.769 118.9C69.9137 119.241 70.1283 119.511 70.413 119.712C70.7023 119.908 71.0617 120.006 71.491 120.006C71.925 120.006 72.2983 119.908 72.611 119.712C72.9283 119.516 73.136 119.224 73.234 118.837H74.62C74.536 119.332 74.3377 119.752 74.025 120.097C73.7123 120.442 73.3367 120.704 72.898 120.881C72.4593 121.054 72.002 121.14 71.526 121.14ZM69.559 116.758H73.227C73.227 116.38 73.1617 116.037 73.031 115.729C72.9003 115.416 72.6997 115.171 72.429 114.994C72.163 114.812 71.827 114.721 71.421 114.721C71.0057 114.721 70.6603 114.821 70.385 115.022C70.1097 115.223 69.902 115.479 69.762 115.792C69.6267 116.105 69.559 116.427 69.559 116.758Z" fill="#929FA5"/>
<line x1="1" y1="147" x2="23" y2="147" stroke="#EBC80C" stroke-width="2" stroke-linecap="round"/>
<path d="M32.525 153L36.179 142.878H37.831L41.478 153H39.966L39.014 150.347H35.003L34.044 153H32.525ZM35.374 148.989H38.622L36.998 144.334L35.374 148.989ZM45.8064 153.14C45.1531 153.14 44.5721 152.998 44.0634 152.713C43.5547 152.424 43.1557 152.001 42.8664 151.446C42.5771 150.886 42.4324 150.207 42.4324 149.409C42.4324 148.658 42.5654 147.997 42.8314 147.428C43.1021 146.859 43.4894 146.415 43.9934 146.098C44.4974 145.781 45.1017 145.622 45.8064 145.622C46.3524 145.622 46.8354 145.729 47.2554 145.944C47.6754 146.154 48.0161 146.448 48.2774 146.826C48.5434 147.204 48.7044 147.645 48.7604 148.149H47.4584C47.4211 147.911 47.3324 147.689 47.1924 147.484C47.0524 147.279 46.8681 147.115 46.6394 146.994C46.4107 146.868 46.1377 146.805 45.8204 146.805C45.2371 146.805 44.7634 147.017 44.3994 147.442C44.0354 147.867 43.8534 148.518 43.8534 149.395C43.8534 150.198 44.0237 150.837 44.3644 151.313C44.7051 151.789 45.1974 152.027 45.8414 152.027C46.1587 152.027 46.4317 151.962 46.6604 151.831C46.8891 151.7 47.0711 151.532 47.2064 151.327C47.3464 151.122 47.4351 150.909 47.4724 150.69H48.7464C48.6904 151.175 48.5294 151.602 48.2634 151.971C48.0021 152.34 47.6614 152.627 47.2414 152.832C46.8214 153.037 46.3431 153.14 45.8064 153.14ZM53.3943 153.14C52.741 153.14 52.16 152.998 51.6513 152.713C51.1426 152.424 50.7436 152.001 50.4543 151.446C50.165 150.886 50.0203 150.207 50.0203 149.409C50.0203 148.658 50.1533 147.997 50.4193 147.428C50.69 146.859 51.0773 146.415 51.5813 146.098C52.0853 145.781 52.6896 145.622 53.3943 145.622C53.9403 145.622 54.4233 145.729 54.8433 145.944C55.2633 146.154 55.604 146.448 55.8653 146.826C56.1313 147.204 56.2923 147.645 56.3483 148.149H55.0463C55.009 147.911 54.9203 147.689 54.7803 147.484C54.6403 147.279 54.456 147.115 54.2273 146.994C53.9986 146.868 53.7256 146.805 53.4083 146.805C52.825 146.805 52.3513 147.017 51.9873 147.442C51.6233 147.867 51.4413 148.518 51.4413 149.395C51.4413 150.198 51.6116 150.837 51.9523 151.313C52.293 151.789 52.7853 152.027 53.4293 152.027C53.7466 152.027 54.0196 151.962 54.2483 151.831C54.477 151.7 54.659 151.532 54.7943 151.327C54.9343 151.122 55.023 150.909 55.0603 150.69H56.3343C56.2783 151.175 56.1173 151.602 55.8513 151.971C55.59 152.34 55.2493 152.627 54.8293 152.832C54.4093 153.037 53.931 153.14 53.3943 153.14ZM61.1432 153.14C60.4572 153.14 59.8529 152.993 59.3302 152.699C58.8075 152.4 58.3992 151.976 58.1052 151.425C57.8159 150.874 57.6712 150.219 57.6712 149.458C57.6712 148.707 57.8042 148.044 58.0702 147.47C58.3362 146.891 58.7212 146.439 59.2252 146.112C59.7292 145.785 60.3359 145.622 61.0452 145.622C61.7405 145.622 62.3285 145.771 62.8092 146.07C63.2899 146.369 63.6539 146.789 63.9012 147.33C64.1485 147.867 64.2722 148.501 64.2722 149.234V149.731H59.1762C59.1715 150.165 59.2415 150.555 59.3862 150.9C59.5309 151.241 59.7455 151.511 60.0302 151.712C60.3195 151.908 60.6789 152.006 61.1082 152.006C61.5422 152.006 61.9155 151.908 62.2282 151.712C62.5455 151.516 62.7532 151.224 62.8512 150.837H64.2372C64.1532 151.332 63.9549 151.752 63.6422 152.097C63.3295 152.442 62.9539 152.704 62.5152 152.881C62.0765 153.054 61.6192 153.14 61.1432 153.14ZM59.1762 148.758H62.8442C62.8442 148.38 62.7789 148.037 62.6482 147.729C62.5175 147.416 62.3169 147.171 62.0462 146.994C61.7802 146.812 61.4442 146.721 61.0382 146.721C60.6229 146.721 60.2775 146.821 60.0022 147.022C59.7269 147.223 59.5192 147.479 59.3792 147.792C59.2439 148.105 59.1762 148.427 59.1762 148.758ZM68.6319 153.14C68.1279 153.14 67.6542 153.061 67.2109 152.902C66.7722 152.743 66.4035 152.494 66.1049 152.153C65.8109 151.812 65.6265 151.376 65.5519 150.844H66.8889C66.9495 151.119 67.0639 151.348 67.2319 151.53C67.4045 151.707 67.6099 151.84 67.8479 151.929C68.0905 152.013 68.3495 152.055 68.6249 152.055C69.0822 152.055 69.4532 151.973 69.7379 151.81C70.0225 151.642 70.1649 151.385 70.1649 151.04C70.1649 150.793 70.0879 150.594 69.9339 150.445C69.7799 150.296 69.5395 150.186 69.2129 150.116L67.7709 149.773C67.1735 149.633 66.6952 149.411 66.3359 149.108C65.9765 148.8 65.7945 148.371 65.7899 147.82C65.7899 147.395 65.8949 147.017 66.1049 146.686C66.3195 146.355 66.6369 146.096 67.0569 145.909C67.4815 145.718 68.0042 145.622 68.6249 145.622C69.4415 145.622 70.0972 145.804 70.5919 146.168C71.0912 146.532 71.3479 147.059 71.3619 147.75H70.0669C70.0202 147.419 69.8685 147.16 69.6119 146.973C69.3599 146.782 69.0262 146.686 68.6109 146.686C68.1815 146.686 67.8292 146.772 67.5539 146.945C67.2785 147.113 67.1409 147.372 67.1409 147.722C67.1409 147.96 67.2412 148.149 67.4419 148.289C67.6472 148.424 67.9482 148.536 68.3449 148.625L69.7169 148.968C70.0715 149.061 70.3632 149.185 70.5919 149.339C70.8205 149.488 71.0002 149.654 71.1309 149.836C71.2615 150.018 71.3525 150.207 71.4039 150.403C71.4599 150.599 71.4879 150.783 71.4879 150.956C71.4879 151.413 71.3712 151.805 71.1379 152.132C70.9092 152.454 70.5825 152.704 70.1579 152.881C69.7332 153.054 69.2245 153.14 68.6319 153.14ZM75.7686 153.14C75.2646 153.14 74.7909 153.061 74.3476 152.902C73.9089 152.743 73.5403 152.494 73.2416 152.153C72.9476 151.812 72.7633 151.376 72.6886 150.844H74.0256C74.0863 151.119 74.2006 151.348 74.3686 151.53C74.5413 151.707 74.7466 151.84 74.9846 151.929C75.2273 152.013 75.4863 152.055 75.7616 152.055C76.2189 152.055 76.5899 151.973 76.8746 151.81C77.1593 151.642 77.3016 151.385 77.3016 151.04C77.3016 150.793 77.2246 150.594 77.0706 150.445C76.9166 150.296 76.6763 150.186 76.3496 150.116L74.9076 149.773C74.3103 149.633 73.8319 149.411 73.4726 149.108C73.1133 148.8 72.9313 148.371 72.9266 147.82C72.9266 147.395 73.0316 147.017 73.2416 146.686C73.4563 146.355 73.7736 146.096 74.1936 145.909C74.6183 145.718 75.1409 145.622 75.7616 145.622C76.5783 145.622 77.2339 145.804 77.7286 146.168C78.2279 146.532 78.4846 147.059 78.4986 147.75H77.2036C77.1569 147.419 77.0053 147.16 76.7486 146.973C76.4966 146.782 76.1629 146.686 75.7476 146.686C75.3183 146.686 74.9659 146.772 74.6906 146.945C74.4153 147.113 74.2776 147.372 74.2776 147.722C74.2776 147.96 74.3779 148.149 74.5786 148.289C74.7839 148.424 75.0849 148.536 75.4816 148.625L76.8536 148.968C77.2083 149.061 77.4999 149.185 77.7286 149.339C77.9573 149.488 78.1369 149.654 78.2676 149.836C78.3983 150.018 78.4893 150.207 78.5406 150.403C78.5966 150.599 78.6246 150.783 78.6246 150.956C78.6246 151.413 78.5079 151.805 78.2746 152.132C78.0459 152.454 77.7193 152.704 77.2946 152.881C76.8699 153.054 76.3613 153.14 75.7686 153.14ZM83.2057 153.14C82.529 153.14 81.9387 152.995 81.4347 152.706C80.9307 152.412 80.5387 151.987 80.2587 151.432C79.9787 150.877 79.8387 150.205 79.8387 149.416C79.8387 148.655 79.9717 147.99 80.2377 147.421C80.5037 146.852 80.8863 146.411 81.3857 146.098C81.8897 145.781 82.4987 145.622 83.2127 145.622C83.894 145.622 84.4843 145.771 84.9837 146.07C85.483 146.364 85.8703 146.796 86.1457 147.365C86.421 147.93 86.5587 148.613 86.5587 149.416C86.5587 150.149 86.4303 150.795 86.1737 151.355C85.917 151.915 85.539 152.354 85.0397 152.671C84.545 152.984 83.9337 153.14 83.2057 153.14ZM83.2127 151.985C83.628 151.985 83.9733 151.878 84.2487 151.663C84.524 151.444 84.7317 151.138 84.8717 150.746C85.0117 150.349 85.0817 149.892 85.0817 149.374C85.0817 148.893 85.0187 148.457 84.8927 148.065C84.7713 147.668 84.573 147.353 84.2977 147.12C84.027 146.887 83.6653 146.77 83.2127 146.77C82.7973 146.77 82.4473 146.877 82.1627 147.092C81.8827 147.302 81.6727 147.603 81.5327 147.995C81.3927 148.382 81.3227 148.842 81.3227 149.374C81.3227 149.845 81.3857 150.279 81.5117 150.676C81.6377 151.073 81.8383 151.39 82.1137 151.628C82.3937 151.866 82.76 151.985 83.2127 151.985ZM88.1947 153V145.762H89.6297V147.246C89.751 146.891 89.919 146.595 90.1337 146.357C90.353 146.114 90.6074 145.932 90.8967 145.811C91.186 145.685 91.4917 145.622 91.8137 145.622C91.9117 145.622 92.005 145.629 92.0937 145.643C92.1824 145.652 92.2524 145.671 92.3037 145.699V147.141C92.243 147.113 92.1637 147.094 92.0657 147.085C91.9724 147.076 91.8907 147.069 91.8207 147.064C91.5034 147.041 91.214 147.057 90.9527 147.113C90.6914 147.169 90.465 147.262 90.2737 147.393C90.087 147.524 89.9424 147.694 89.8397 147.904C89.7417 148.114 89.6927 148.361 89.6927 148.646V153H88.1947ZM93.7805 153V145.762H95.2225V153H93.7805ZM93.7455 144.362V142.885H95.2505V144.362H93.7455ZM100.422 153.14C99.7365 153.14 99.1322 152.993 98.6095 152.699C98.0868 152.4 97.6785 151.976 97.3845 151.425C97.0952 150.874 96.9505 150.219 96.9505 149.458C96.9505 148.707 97.0835 148.044 97.3495 147.47C97.6155 146.891 98.0005 146.439 98.5045 146.112C99.0085 145.785 99.6152 145.622 100.324 145.622C101.02 145.622 101.608 145.771 102.088 146.07C102.569 146.369 102.933 146.789 103.18 147.33C103.428 147.867 103.551 148.501 103.551 149.234V149.731H98.4555C98.4508 150.165 98.5208 150.555 98.6655 150.9C98.8102 151.241 99.0248 151.511 99.3095 151.712C99.5988 151.908 99.9582 152.006 100.387 152.006C100.821 152.006 101.195 151.908 101.507 151.712C101.825 151.516 102.032 151.224 102.13 150.837H103.516C103.432 151.332 103.234 151.752 102.921 152.097C102.609 152.442 102.233 152.704 101.794 152.881C101.356 153.054 100.898 153.14 100.422 153.14ZM98.4555 148.758H102.123C102.123 148.38 102.058 148.037 101.927 147.729C101.797 147.416 101.596 147.171 101.325 146.994C101.059 146.812 100.723 146.721 100.317 146.721C99.9022 146.721 99.5568 146.821 99.2815 147.022C99.0062 147.223 98.7985 147.479 98.6585 147.792C98.5232 148.105 98.4555 148.427 98.4555 148.758ZM107.911 153.14C107.407 153.14 106.934 153.061 106.49 152.902C106.052 152.743 105.683 152.494 105.384 152.153C105.09 151.812 104.906 151.376 104.831 150.844H106.168C106.229 151.119 106.343 151.348 106.511 151.53C106.684 151.707 106.889 151.84 107.127 151.929C107.37 152.013 107.629 152.055 107.904 152.055C108.362 152.055 108.733 151.973 109.017 151.81C109.302 151.642 109.444 151.385 109.444 151.04C109.444 150.793 109.367 150.594 109.213 150.445C109.059 150.296 108.819 150.186 108.492 150.116L107.05 149.773C106.453 149.633 105.975 149.411 105.615 149.108C105.256 148.8 105.074 148.371 105.069 147.82C105.069 147.395 105.174 147.017 105.384 146.686C105.599 146.355 105.916 146.096 106.336 145.909C106.761 145.718 107.284 145.622 107.904 145.622C108.721 145.622 109.377 145.804 109.871 146.168C110.371 146.532 110.627 147.059 110.641 147.75H109.346C109.3 147.419 109.148 147.16 108.891 146.973C108.639 146.782 108.306 146.686 107.89 146.686C107.461 146.686 107.109 146.772 106.833 146.945C106.558 147.113 106.42 147.372 106.42 147.722C106.42 147.96 106.521 148.149 106.721 148.289C106.927 148.424 107.228 148.536 107.624 148.625L108.996 148.968C109.351 149.061 109.643 149.185 109.871 149.339C110.1 149.488 110.28 149.654 110.41 149.836C110.541 150.018 110.632 150.207 110.683 150.403C110.739 150.599 110.767 150.783 110.767 150.956C110.767 151.413 110.651 151.805 110.417 152.132C110.189 152.454 109.862 152.704 109.437 152.881C109.013 153.054 108.504 153.14 107.911 153.14Z" fill="white"/>
<path d="M5.11 185.14C4.19533 185.14 3.41133 184.93 2.758 184.51C2.10467 184.085 1.603 183.483 1.253 182.704C0.907667 181.92 0.735 180.982 0.735 179.89C0.735 178.803 0.907667 177.876 1.253 177.111C1.59833 176.341 2.09767 175.753 2.751 175.347C3.40433 174.941 4.19067 174.738 5.11 174.738C5.838 174.738 6.48433 174.887 7.049 175.186C7.61367 175.485 8.06633 175.886 8.407 176.39C8.75233 176.894 8.95767 177.452 9.023 178.063H7.427C7.357 177.68 7.22167 177.335 7.021 177.027C6.825 176.714 6.56367 176.469 6.237 176.292C5.91033 176.11 5.523 176.019 5.075 176.019C4.501 176.019 4.01333 176.154 3.612 176.425C3.21067 176.696 2.905 177.118 2.695 177.692C2.48967 178.266 2.387 179.006 2.387 179.911C2.387 181.278 2.618 182.279 3.08 182.914C3.542 183.544 4.207 183.859 5.075 183.859C5.523 183.859 5.91033 183.763 6.237 183.572C6.56367 183.376 6.825 183.117 7.021 182.795C7.22167 182.468 7.357 182.114 7.427 181.731H9.023C8.967 182.174 8.85033 182.601 8.673 183.012C8.49567 183.418 8.24833 183.782 7.931 184.104C7.61833 184.426 7.22867 184.68 6.762 184.867C6.29533 185.049 5.74467 185.14 5.11 185.14ZM12.705 185.14C12.2383 185.14 11.823 185.056 11.459 184.888C11.0997 184.72 10.8173 184.477 10.612 184.16C10.4067 183.843 10.304 183.46 10.304 183.012C10.304 182.209 10.5863 181.61 11.151 181.213C11.7203 180.816 12.6303 180.606 13.881 180.583L15.071 180.548V180.023C15.071 179.608 14.9473 179.281 14.7 179.043C14.4527 178.805 14.07 178.688 13.552 178.693C13.1693 178.693 12.8263 178.782 12.523 178.959C12.2197 179.136 12.0213 179.428 11.928 179.834H10.633C10.661 179.353 10.7987 178.95 11.046 178.623C11.298 178.292 11.6433 178.042 12.082 177.874C12.5207 177.706 13.034 177.622 13.622 177.622C14.2847 177.622 14.8283 177.713 15.253 177.895C15.6777 178.072 15.9927 178.334 16.198 178.679C16.408 179.024 16.513 179.444 16.513 179.939V185H15.239L15.127 183.67C14.8563 184.225 14.5133 184.61 14.098 184.825C13.6827 185.035 13.2183 185.14 12.705 185.14ZM13.174 184.097C13.4027 184.097 13.629 184.057 13.853 183.978C14.077 183.894 14.28 183.782 14.462 183.642C14.644 183.497 14.7887 183.336 14.896 183.159C15.008 182.982 15.0663 182.8 15.071 182.613V181.416L14.091 181.437C13.5917 181.442 13.167 181.493 12.817 181.591C12.4717 181.689 12.2057 181.841 12.019 182.046C11.837 182.251 11.746 182.524 11.746 182.865C11.746 183.252 11.879 183.556 12.145 183.775C12.4157 183.99 12.7587 184.097 13.174 184.097ZM18.433 185V177.762H19.889V178.805C20.0943 178.488 20.3743 178.212 20.729 177.979C21.0836 177.741 21.541 177.622 22.101 177.622C22.3623 177.622 22.626 177.666 22.892 177.755C23.1626 177.844 23.41 177.977 23.634 178.154C23.8626 178.327 24.0423 178.541 24.173 178.798C24.4016 178.453 24.7073 178.17 25.09 177.951C25.4726 177.732 25.902 177.622 26.378 177.622C26.6346 177.622 26.9006 177.664 27.176 177.748C27.4513 177.827 27.7056 177.965 27.939 178.161C28.177 178.352 28.3683 178.618 28.513 178.959C28.6623 179.3 28.737 179.731 28.737 180.254V185H27.232V180.415C27.232 180.018 27.1643 179.708 27.029 179.484C26.8983 179.26 26.7256 179.104 26.511 179.015C26.301 178.922 26.077 178.875 25.839 178.875C25.6243 178.875 25.4003 178.917 25.167 179.001C24.9336 179.085 24.7353 179.225 24.572 179.421C24.4086 179.617 24.327 179.883 24.327 180.219V185H22.829V180.093C22.829 179.827 22.7566 179.603 22.612 179.421C22.472 179.239 22.2946 179.104 22.08 179.015C21.87 178.922 21.66 178.875 21.45 178.875C21.2166 178.875 20.9833 178.922 20.75 179.015C20.5166 179.108 20.3206 179.255 20.162 179.456C20.008 179.652 19.931 179.906 19.931 180.219V185H18.433ZM33.7916 185.14C33.1056 185.14 32.5013 184.993 31.9786 184.699C31.456 184.4 31.0476 183.976 30.7536 183.425C30.4643 182.874 30.3196 182.219 30.3196 181.458C30.3196 180.707 30.4526 180.044 30.7186 179.47C30.9846 178.891 31.3696 178.439 31.8736 178.112C32.3776 177.785 32.9843 177.622 33.6936 177.622C34.389 177.622 34.977 177.771 35.4576 178.07C35.9383 178.369 36.3023 178.789 36.5496 179.33C36.797 179.867 36.9206 180.501 36.9206 181.234V181.731H31.8246C31.82 182.165 31.89 182.555 32.0346 182.9C32.1793 183.241 32.394 183.511 32.6786 183.712C32.968 183.908 33.3273 184.006 33.7566 184.006C34.1906 184.006 34.564 183.908 34.8766 183.712C35.194 183.516 35.4016 183.224 35.4996 182.837H36.8856C36.8016 183.332 36.6033 183.752 36.2906 184.097C35.978 184.442 35.6023 184.704 35.1636 184.881C34.725 185.054 34.2676 185.14 33.7916 185.14ZM31.8246 180.758H35.4926C35.4926 180.38 35.4273 180.037 35.2966 179.729C35.166 179.416 34.9653 179.171 34.6946 178.994C34.4286 178.812 34.0926 178.721 33.6866 178.721C33.2713 178.721 32.926 178.821 32.6506 179.022C32.3753 179.223 32.1676 179.479 32.0276 179.792C31.8923 180.105 31.8246 180.427 31.8246 180.758ZM38.6263 185V177.762H40.0613V179.246C40.1827 178.891 40.3507 178.595 40.5653 178.357C40.7847 178.114 41.039 177.932 41.3283 177.811C41.6177 177.685 41.9233 177.622 42.2453 177.622C42.3433 177.622 42.4367 177.629 42.5253 177.643C42.614 177.652 42.684 177.671 42.7353 177.699V179.141C42.6747 179.113 42.5953 179.094 42.4973 179.085C42.404 179.076 42.3223 179.069 42.2523 179.064C41.935 179.041 41.6457 179.057 41.3843 179.113C41.123 179.169 40.8967 179.262 40.7053 179.393C40.5187 179.524 40.374 179.694 40.2713 179.904C40.1733 180.114 40.1243 180.361 40.1243 180.646V185H38.6263ZM46.0097 185.14C45.543 185.14 45.1277 185.056 44.7637 184.888C44.4044 184.72 44.122 184.477 43.9167 184.16C43.7114 183.843 43.6087 183.46 43.6087 183.012C43.6087 182.209 43.891 181.61 44.4557 181.213C45.025 180.816 45.935 180.606 47.1857 180.583L48.3757 180.548V180.023C48.3757 179.608 48.252 179.281 48.0047 179.043C47.7574 178.805 47.3747 178.688 46.8567 178.693C46.474 178.693 46.131 178.782 45.8277 178.959C45.5244 179.136 45.326 179.428 45.2327 179.834H43.9377C43.9657 179.353 44.1034 178.95 44.3507 178.623C44.6027 178.292 44.948 178.042 45.3867 177.874C45.8254 177.706 46.3387 177.622 46.9267 177.622C47.5894 177.622 48.133 177.713 48.5577 177.895C48.9824 178.072 49.2974 178.334 49.5027 178.679C49.7127 179.024 49.8177 179.444 49.8177 179.939V185H48.5437L48.4317 183.67C48.161 184.225 47.818 184.61 47.4027 184.825C46.9874 185.035 46.523 185.14 46.0097 185.14ZM46.4787 184.097C46.7074 184.097 46.9337 184.057 47.1577 183.978C47.3817 183.894 47.5847 183.782 47.7667 183.642C47.9487 183.497 48.0934 183.336 48.2007 183.159C48.3127 182.982 48.371 182.8 48.3757 182.613V181.416L47.3957 181.437C46.8964 181.442 46.4717 181.493 46.1217 181.591C45.7764 181.689 45.5104 181.841 45.3237 182.046C45.1417 182.251 45.0507 182.524 45.0507 182.865C45.0507 183.252 45.1837 183.556 45.4497 183.775C45.7204 183.99 46.0634 184.097 46.4787 184.097ZM57.7896 185.07C57.1083 185.07 56.5366 184.96 56.0746 184.741C55.6126 184.517 55.2649 184.209 55.0316 183.817C54.7983 183.425 54.6816 182.972 54.6816 182.459C54.6816 182.011 54.7703 181.61 54.9476 181.255C55.1296 180.896 55.4003 180.564 55.7596 180.261C56.1236 179.958 56.5786 179.661 57.1246 179.372C56.8679 179.097 56.6463 178.835 56.4596 178.588C56.2729 178.336 56.1283 178.082 56.0256 177.825C55.9276 177.564 55.8786 177.284 55.8786 176.985C55.8786 176.56 55.9929 176.178 56.2216 175.837C56.4503 175.496 56.7676 175.226 57.1736 175.025C57.5796 174.824 58.0509 174.724 58.5876 174.724C59.1056 174.724 59.5816 174.815 60.0156 174.997C60.4496 175.174 60.7973 175.426 61.0586 175.753C61.3199 176.075 61.4506 176.455 61.4506 176.894C61.4506 177.085 61.4109 177.288 61.3316 177.503C61.2569 177.713 61.1309 177.935 60.9536 178.168C60.7763 178.401 60.5359 178.642 60.2326 178.889C59.9293 179.132 59.5513 179.377 59.0986 179.624L61.1426 182.018C61.2219 181.887 61.3223 181.698 61.4436 181.451C61.5649 181.204 61.6769 180.912 61.7796 180.576C61.8823 180.24 61.9476 179.871 61.9756 179.47H63.4736C63.3943 179.932 63.2706 180.364 63.1026 180.765C62.9346 181.162 62.7409 181.537 62.5216 181.892C62.3069 182.242 62.0923 182.58 61.8776 182.907L63.6626 185H61.9266L60.9746 183.908C60.4519 184.323 59.9199 184.622 59.3786 184.804C58.8373 184.981 58.3076 185.07 57.7896 185.07ZM58.1326 183.887C58.4919 183.887 58.8606 183.808 59.2386 183.649C59.6166 183.49 59.9479 183.276 60.2326 183.005L57.8736 180.261C57.4209 180.513 57.0453 180.819 56.7466 181.178C56.4479 181.537 56.3149 181.946 56.3476 182.403C56.3663 182.711 56.4596 182.977 56.6276 183.201C56.8003 183.42 57.0173 183.591 57.2786 183.712C57.5446 183.829 57.8293 183.887 58.1326 183.887ZM58.4476 178.819C58.8909 178.558 59.2316 178.322 59.4696 178.112C59.7123 177.897 59.8779 177.697 59.9666 177.51C60.0553 177.319 60.0996 177.127 60.0996 176.936C60.0996 176.642 60.0273 176.404 59.8826 176.222C59.7426 176.04 59.5606 175.909 59.3366 175.83C59.1173 175.746 58.8886 175.706 58.6506 175.711C58.2399 175.716 57.9226 175.835 57.6986 176.068C57.4793 176.301 57.3696 176.577 57.3696 176.894C57.3696 177.104 57.4139 177.314 57.5026 177.524C57.5959 177.729 57.7056 177.921 57.8316 178.098C57.9576 178.271 58.0766 178.418 58.1886 178.539L58.4476 178.819ZM68.8748 185V174.878H72.3818C73.1051 174.878 73.7514 175.002 74.3208 175.249C74.8948 175.496 75.3451 175.86 75.6718 176.341C76.0031 176.822 76.1688 177.412 76.1688 178.112C76.1688 178.784 76.0171 179.358 75.7138 179.834C75.4151 180.305 74.9951 180.667 74.4538 180.919C73.9171 181.166 73.2941 181.29 72.5848 181.29H70.4008V185H68.8748ZM70.3938 180.065H72.5428C73.1868 180.065 73.7118 179.881 74.1178 179.512C74.5238 179.139 74.7268 178.644 74.7268 178.028C74.7268 177.403 74.5168 176.924 74.0968 176.593C73.6768 176.257 73.1401 176.089 72.4868 176.089H70.3938V180.065ZM77.5775 185V174.598H79.0545V178.819C79.1712 178.628 79.3275 178.446 79.5235 178.273C79.7242 178.1 79.9668 177.96 80.2515 177.853C80.5408 177.741 80.8768 177.685 81.2595 177.685C81.7308 177.685 82.1555 177.774 82.5335 177.951C82.9162 178.124 83.2195 178.376 83.4435 178.707C83.6722 179.034 83.7865 179.423 83.7865 179.876V185H82.2885V180.149C82.2885 179.743 82.1485 179.43 81.8685 179.211C81.5885 178.992 81.2292 178.882 80.7905 178.882C80.4965 178.882 80.2165 178.933 79.9505 179.036C79.6892 179.134 79.4768 179.283 79.3135 179.484C79.1548 179.68 79.0755 179.927 79.0755 180.226V185H77.5775ZM88.6803 185.14C88.0036 185.14 87.4133 184.995 86.9093 184.706C86.4053 184.412 86.0133 183.987 85.7333 183.432C85.4533 182.877 85.3133 182.205 85.3133 181.416C85.3133 180.655 85.4463 179.99 85.7123 179.421C85.9783 178.852 86.3609 178.411 86.8603 178.098C87.3643 177.781 87.9733 177.622 88.6873 177.622C89.3686 177.622 89.9589 177.771 90.4583 178.07C90.9576 178.364 91.3449 178.796 91.6203 179.365C91.8956 179.93 92.0333 180.613 92.0333 181.416C92.0333 182.149 91.9049 182.795 91.6483 183.355C91.3916 183.915 91.0136 184.354 90.5143 184.671C90.0196 184.984 89.4083 185.14 88.6803 185.14ZM88.6873 183.985C89.1026 183.985 89.4479 183.878 89.7233 183.663C89.9986 183.444 90.2063 183.138 90.3463 182.746C90.4863 182.349 90.5563 181.892 90.5563 181.374C90.5563 180.893 90.4933 180.457 90.3673 180.065C90.2459 179.668 90.0476 179.353 89.7723 179.12C89.5016 178.887 89.1399 178.77 88.6873 178.77C88.2719 178.77 87.9219 178.877 87.6373 179.092C87.3573 179.302 87.1473 179.603 87.0073 179.995C86.8673 180.382 86.7973 180.842 86.7973 181.374C86.7973 181.845 86.8603 182.279 86.9863 182.676C87.1123 183.073 87.3129 183.39 87.5883 183.628C87.8683 183.866 88.2346 183.985 88.6873 183.985ZM96.1475 185.049C95.6108 185.049 95.1955 184.977 94.9015 184.832C94.6075 184.687 94.4022 184.48 94.2855 184.209C94.1688 183.934 94.1105 183.602 94.1105 183.215V178.84H92.9345V177.762H94.1595L94.5235 175.634H95.6155V177.755H97.2395V178.84H95.6155L95.6225 183.159C95.6225 183.397 95.6458 183.572 95.6925 183.684C95.7438 183.791 95.8278 183.861 95.9445 183.894C96.0658 183.922 96.2292 183.936 96.4345 183.936H97.2745V184.909C97.1858 184.946 97.0482 184.979 96.8615 185.007C96.6795 185.035 96.4415 185.049 96.1475 185.049ZM101.696 185.14C101.019 185.14 100.429 184.995 99.9249 184.706C99.4209 184.412 99.0289 183.987 98.7489 183.432C98.4689 182.877 98.3289 182.205 98.3289 181.416C98.3289 180.655 98.4619 179.99 98.7279 179.421C98.9939 178.852 99.3766 178.411 99.8759 178.098C100.38 177.781 100.989 177.622 101.703 177.622C102.384 177.622 102.975 177.771 103.474 178.07C103.973 178.364 104.361 178.796 104.636 179.365C104.911 179.93 105.049 180.613 105.049 181.416C105.049 182.149 104.921 182.795 104.664 183.355C104.407 183.915 104.029 184.354 103.53 184.671C103.035 184.984 102.424 185.14 101.696 185.14ZM101.703 183.985C102.118 183.985 102.464 183.878 102.739 183.663C103.014 183.444 103.222 183.138 103.362 182.746C103.502 182.349 103.572 181.892 103.572 181.374C103.572 180.893 103.509 180.457 103.383 180.065C103.262 179.668 103.063 179.353 102.788 179.12C102.517 178.887 102.156 178.77 101.703 178.77C101.288 178.77 100.938 178.877 100.653 179.092C100.373 179.302 100.163 179.603 100.023 179.995C99.8829 180.382 99.8129 180.842 99.8129 181.374C99.8129 181.845 99.8759 182.279 100.002 182.676C100.128 183.073 100.329 183.39 100.604 183.628C100.884 183.866 101.25 183.985 101.703 183.985Z" fill="#929FA5"/>
<path d="M3.514 217V208.243H0.308V206.878H8.085V208.243H5.026V217H3.514ZM12.7854 217L9.20839 206.878H10.6714L13.6674 215.285L16.6564 206.878H18.1264L14.5494 217H12.7854ZM25.4966 217.07C24.8153 217.07 24.2436 216.96 23.7816 216.741C23.3196 216.517 22.972 216.209 22.7386 215.817C22.5053 215.425 22.3886 214.972 22.3886 214.459C22.3886 214.011 22.4773 213.61 22.6546 213.255C22.8366 212.896 23.1073 212.564 23.4666 212.261C23.8306 211.958 24.2856 211.661 24.8316 211.372C24.575 211.097 24.3533 210.835 24.1666 210.588C23.98 210.336 23.8353 210.082 23.7326 209.825C23.6346 209.564 23.5856 209.284 23.5856 208.985C23.5856 208.56 23.7 208.178 23.9286 207.837C24.1573 207.496 24.4746 207.226 24.8806 207.025C25.2866 206.824 25.758 206.724 26.2946 206.724C26.8126 206.724 27.2886 206.815 27.7226 206.997C28.1566 207.174 28.5043 207.426 28.7656 207.753C29.027 208.075 29.1576 208.455 29.1576 208.894C29.1576 209.085 29.118 209.288 29.0386 209.503C28.964 209.713 28.838 209.935 28.6606 210.168C28.4833 210.401 28.243 210.642 27.9396 210.889C27.6363 211.132 27.2583 211.377 26.8056 211.624L28.8496 214.018C28.929 213.887 29.0293 213.698 29.1506 213.451C29.272 213.204 29.384 212.912 29.4866 212.576C29.5893 212.24 29.6546 211.871 29.6826 211.47H31.1806C31.1013 211.932 30.9776 212.364 30.8096 212.765C30.6416 213.162 30.448 213.537 30.2286 213.892C30.014 214.242 29.7993 214.58 29.5846 214.907L31.3696 217H29.6336L28.6816 215.908C28.159 216.323 27.627 216.622 27.0856 216.804C26.5443 216.981 26.0146 217.07 25.4966 217.07ZM25.8396 215.887C26.199 215.887 26.5676 215.808 26.9456 215.649C27.3236 215.49 27.655 215.276 27.9396 215.005L25.5806 212.261C25.128 212.513 24.7523 212.819 24.4536 213.178C24.155 213.537 24.022 213.946 24.0546 214.403C24.0733 214.711 24.1666 214.977 24.3346 215.201C24.5073 215.42 24.7243 215.591 24.9856 215.712C25.2516 215.829 25.5363 215.887 25.8396 215.887ZM26.1546 210.819C26.598 210.558 26.9386 210.322 27.1766 210.112C27.4193 209.897 27.585 209.697 27.6736 209.51C27.7623 209.319 27.8066 209.127 27.8066 208.936C27.8066 208.642 27.7343 208.404 27.5896 208.222C27.4496 208.04 27.2676 207.909 27.0436 207.83C26.8243 207.746 26.5956 207.706 26.3576 207.711C25.947 207.716 25.6296 207.835 25.4056 208.068C25.1863 208.301 25.0766 208.577 25.0766 208.894C25.0766 209.104 25.121 209.314 25.2096 209.524C25.303 209.729 25.4126 209.921 25.5386 210.098C25.6646 210.271 25.7836 210.418 25.8956 210.539L26.1546 210.819ZM36.5818 217V206.878H38.0798V211.12H43.2598V206.878H44.7578V217H43.2598V212.422H38.0798V217H36.5818ZM49.8932 217.14C49.2165 217.14 48.6262 216.995 48.1222 216.706C47.6182 216.412 47.2262 215.987 46.9462 215.432C46.6662 214.877 46.5262 214.205 46.5262 213.416C46.5262 212.655 46.6592 211.99 46.9252 211.421C47.1912 210.852 47.5738 210.411 48.0732 210.098C48.5772 209.781 49.1862 209.622 49.9002 209.622C50.5815 209.622 51.1718 209.771 51.6712 210.07C52.1705 210.364 52.5578 210.796 52.8332 211.365C53.1085 211.93 53.2462 212.613 53.2462 213.416C53.2462 214.149 53.1178 214.795 52.8612 215.355C52.6045 215.915 52.2265 216.354 51.7272 216.671C51.2325 216.984 50.6212 217.14 49.8932 217.14ZM49.9002 215.985C50.3155 215.985 50.6608 215.878 50.9362 215.663C51.2115 215.444 51.4192 215.138 51.5592 214.746C51.6992 214.349 51.7692 213.892 51.7692 213.374C51.7692 212.893 51.7062 212.457 51.5802 212.065C51.4588 211.668 51.2605 211.353 50.9852 211.12C50.7145 210.887 50.3528 210.77 49.9002 210.77C49.4848 210.77 49.1348 210.877 48.8502 211.092C48.5702 211.302 48.3602 211.603 48.2202 211.995C48.0802 212.382 48.0102 212.842 48.0102 213.374C48.0102 213.845 48.0732 214.279 48.1992 214.676C48.3252 215.073 48.5258 215.39 48.8012 215.628C49.0812 215.866 49.4475 215.985 49.9002 215.985ZM54.8822 217V209.762H56.3382V210.805C56.5435 210.488 56.8235 210.212 57.1782 209.979C57.5329 209.741 57.9902 209.622 58.5502 209.622C58.8115 209.622 59.0752 209.666 59.3412 209.755C59.6119 209.844 59.8592 209.977 60.0832 210.154C60.3119 210.327 60.4915 210.541 60.6222 210.798C60.8509 210.453 61.1565 210.17 61.5392 209.951C61.9219 209.732 62.3512 209.622 62.8272 209.622C63.0839 209.622 63.3499 209.664 63.6252 209.748C63.9005 209.827 64.1549 209.965 64.3882 210.161C64.6262 210.352 64.8175 210.618 64.9622 210.959C65.1115 211.3 65.1862 211.731 65.1862 212.254V217H63.6812V212.415C63.6812 212.018 63.6135 211.708 63.4782 211.484C63.3475 211.26 63.1749 211.104 62.9602 211.015C62.7502 210.922 62.5262 210.875 62.2882 210.875C62.0735 210.875 61.8495 210.917 61.6162 211.001C61.3829 211.085 61.1845 211.225 61.0212 211.421C60.8579 211.617 60.7762 211.883 60.7762 212.219V217H59.2782V212.093C59.2782 211.827 59.2059 211.603 59.0612 211.421C58.9212 211.239 58.7439 211.104 58.5292 211.015C58.3192 210.922 58.1092 210.875 57.8992 210.875C57.6659 210.875 57.4325 210.922 57.1992 211.015C56.9659 211.108 56.7699 211.255 56.6112 211.456C56.4572 211.652 56.3802 211.906 56.3802 212.219V217H54.8822ZM70.2408 217.14C69.5548 217.14 68.9505 216.993 68.4278 216.699C67.9052 216.4 67.4968 215.976 67.2028 215.425C66.9135 214.874 66.7688 214.219 66.7688 213.458C66.7688 212.707 66.9018 212.044 67.1678 211.47C67.4338 210.891 67.8188 210.439 68.3228 210.112C68.8268 209.785 69.4335 209.622 70.1428 209.622C70.8382 209.622 71.4262 209.771 71.9068 210.07C72.3875 210.369 72.7515 210.789 72.9988 211.33C73.2462 211.867 73.3698 212.501 73.3698 213.234V213.731H68.2738C68.2692 214.165 68.3392 214.555 68.4838 214.9C68.6285 215.241 68.8432 215.511 69.1278 215.712C69.4172 215.908 69.7765 216.006 70.2058 216.006C70.6398 216.006 71.0132 215.908 71.3258 215.712C71.6432 215.516 71.8508 215.224 71.9488 214.837H73.3348C73.2508 215.332 73.0525 215.752 72.7398 216.097C72.4272 216.442 72.0515 216.704 71.6128 216.881C71.1742 217.054 70.7168 217.14 70.2408 217.14ZM68.2738 212.758H71.9418C71.9418 212.38 71.8765 212.037 71.7458 211.729C71.6152 211.416 71.4145 211.171 71.1438 210.994C70.8778 210.812 70.5418 210.721 70.1358 210.721C69.7205 210.721 69.3752 210.821 69.0998 211.022C68.8245 211.223 68.6168 211.479 68.4768 211.792C68.3415 212.105 68.2738 212.427 68.2738 212.758ZM77.7295 217.14C77.2255 217.14 76.7519 217.061 76.3085 216.902C75.8699 216.743 75.5012 216.494 75.2025 216.153C74.9085 215.812 74.7242 215.376 74.6495 214.844H75.9865C76.0472 215.119 76.1615 215.348 76.3295 215.53C76.5022 215.707 76.7075 215.84 76.9455 215.929C77.1882 216.013 77.4472 216.055 77.7225 216.055C78.1799 216.055 78.5509 215.973 78.8355 215.81C79.1202 215.642 79.2625 215.385 79.2625 215.04C79.2625 214.793 79.1855 214.594 79.0315 214.445C78.8775 214.296 78.6372 214.186 78.3105 214.116L76.8685 213.773C76.2712 213.633 75.7929 213.411 75.4335 213.108C75.0742 212.8 74.8922 212.371 74.8875 211.82C74.8875 211.395 74.9925 211.017 75.2025 210.686C75.4172 210.355 75.7345 210.096 76.1545 209.909C76.5792 209.718 77.1019 209.622 77.7225 209.622C78.5392 209.622 79.1949 209.804 79.6895 210.168C80.1889 210.532 80.4455 211.059 80.4595 211.75H79.1645C79.1179 211.419 78.9662 211.16 78.7095 210.973C78.4575 210.782 78.1239 210.686 77.7085 210.686C77.2792 210.686 76.9269 210.772 76.6515 210.945C76.3762 211.113 76.2385 211.372 76.2385 211.722C76.2385 211.96 76.3389 212.149 76.5395 212.289C76.7449 212.424 77.0459 212.536 77.4425 212.625L78.8145 212.968C79.1692 213.061 79.4609 213.185 79.6895 213.339C79.9182 213.488 80.0979 213.654 80.2285 213.836C80.3592 214.018 80.4502 214.207 80.5015 214.403C80.5575 214.599 80.5855 214.783 80.5855 214.956C80.5855 215.413 80.4689 215.805 80.2355 216.132C80.0069 216.454 79.6802 216.704 79.2555 216.881C78.8309 217.054 78.3222 217.14 77.7295 217.14Z" fill="#929FA5"/>
<rect width="154" height="32" transform="translate(0 228)" fill="#191C1F"/>
<path d="M1.281 249V238.878H4.648C5.90333 238.878 6.84833 239.104 7.483 239.557C8.12233 240.01 8.442 240.663 8.442 241.517C8.442 242.044 8.30433 242.499 8.029 242.882C7.75833 243.26 7.28233 243.577 6.601 243.834C7.00233 243.923 7.33833 244.051 7.609 244.219C7.87967 244.382 8.092 244.571 8.246 244.786C8.40467 245.001 8.51667 245.234 8.582 245.486C8.652 245.738 8.687 245.999 8.687 246.27C8.687 247.189 8.36267 247.875 7.714 248.328C7.07 248.776 6.08767 249 4.767 249H1.281ZM2.779 247.782H4.774C5.558 247.782 6.153 247.649 6.559 247.383C6.965 247.112 7.168 246.709 7.168 246.172C7.168 245.785 7.06767 245.467 6.867 245.22C6.66633 244.973 6.39567 244.791 6.055 244.674C5.71433 244.557 5.334 244.499 4.914 244.499H2.779V247.782ZM2.779 243.26H4.914C5.166 243.26 5.41333 243.234 5.656 243.183C5.89867 243.132 6.12033 243.048 6.321 242.931C6.52167 242.81 6.68267 242.649 6.804 242.448C6.92533 242.247 6.986 242.002 6.986 241.713C6.986 241.162 6.77833 240.754 6.363 240.488C5.94767 240.222 5.40867 240.089 4.746 240.089H2.779V243.26ZM10.4486 249V241.762H11.8836V243.246C12.0049 242.891 12.1729 242.595 12.3876 242.357C12.6069 242.114 12.8613 241.932 13.1506 241.811C13.4399 241.685 13.7456 241.622 14.0676 241.622C14.1656 241.622 14.2589 241.629 14.3476 241.643C14.4363 241.652 14.5063 241.671 14.5576 241.699V243.141C14.4969 243.113 14.4176 243.094 14.3196 243.085C14.2263 243.076 14.1446 243.069 14.0746 243.064C13.7573 243.041 13.4679 243.057 13.2066 243.113C12.9453 243.169 12.7189 243.262 12.5276 243.393C12.3409 243.524 12.1963 243.694 12.0936 243.904C11.9956 244.114 11.9466 244.361 11.9466 244.646V249H10.4486ZM18.8853 249.14C18.2087 249.14 17.6183 248.995 17.1143 248.706C16.6103 248.412 16.2183 247.987 15.9383 247.432C15.6583 246.877 15.5183 246.205 15.5183 245.416C15.5183 244.655 15.6513 243.99 15.9173 243.421C16.1833 242.852 16.566 242.411 17.0653 242.098C17.5693 241.781 18.1783 241.622 18.8923 241.622C19.5737 241.622 20.164 241.771 20.6633 242.07C21.1627 242.364 21.55 242.796 21.8253 243.365C22.1007 243.93 22.2383 244.613 22.2383 245.416C22.2383 246.149 22.11 246.795 21.8533 247.355C21.5967 247.915 21.2187 248.354 20.7193 248.671C20.2247 248.984 19.6133 249.14 18.8853 249.14ZM18.8923 247.985C19.3077 247.985 19.653 247.878 19.9283 247.663C20.2037 247.444 20.4113 247.138 20.5513 246.746C20.6913 246.349 20.7613 245.892 20.7613 245.374C20.7613 244.893 20.6983 244.457 20.5723 244.065C20.451 243.668 20.2527 243.353 19.9773 243.12C19.7067 242.887 19.345 242.77 18.8923 242.77C18.477 242.77 18.127 242.877 17.8423 243.092C17.5623 243.302 17.3523 243.603 17.2123 243.995C17.0723 244.382 17.0023 244.842 17.0023 245.374C17.0023 245.845 17.0653 246.279 17.1913 246.676C17.3173 247.073 17.518 247.39 17.7933 247.628C18.0733 247.866 18.4397 247.985 18.8923 247.985ZM25.3263 249L23.0583 241.762H24.4233L26.0053 247.033H26.1033L27.6503 241.762H28.7633L30.3593 247.019H30.4573L31.9833 241.762H33.3693L31.1223 249H29.7503L28.1823 243.918L26.6773 249H25.3263ZM37.2334 249.14C36.7294 249.14 36.2558 249.061 35.8124 248.902C35.3738 248.743 35.0051 248.494 34.7064 248.153C34.4124 247.812 34.2281 247.376 34.1534 246.844H35.4904C35.5511 247.119 35.6654 247.348 35.8334 247.53C36.0061 247.707 36.2114 247.84 36.4494 247.929C36.6921 248.013 36.9511 248.055 37.2264 248.055C37.6838 248.055 38.0548 247.973 38.3394 247.81C38.6241 247.642 38.7664 247.385 38.7664 247.04C38.7664 246.793 38.6894 246.594 38.5354 246.445C38.3814 246.296 38.1411 246.186 37.8144 246.116L36.3724 245.773C35.7751 245.633 35.2968 245.411 34.9374 245.108C34.5781 244.8 34.3961 244.371 34.3914 243.82C34.3914 243.395 34.4964 243.017 34.7064 242.686C34.9211 242.355 35.2384 242.096 35.6584 241.909C36.0831 241.718 36.6058 241.622 37.2264 241.622C38.0431 241.622 38.6988 241.804 39.1934 242.168C39.6928 242.532 39.9494 243.059 39.9634 243.75H38.6684C38.6218 243.419 38.4701 243.16 38.2134 242.973C37.9614 242.782 37.6278 242.686 37.2124 242.686C36.7831 242.686 36.4308 242.772 36.1554 242.945C35.8801 243.113 35.7424 243.372 35.7424 243.722C35.7424 243.96 35.8428 244.149 36.0434 244.289C36.2488 244.424 36.5498 244.536 36.9464 244.625L38.3184 244.968C38.6731 245.061 38.9648 245.185 39.1934 245.339C39.4221 245.488 39.6018 245.654 39.7324 245.836C39.8631 246.018 39.9541 246.207 40.0054 246.403C40.0614 246.599 40.0894 246.783 40.0894 246.956C40.0894 247.413 39.9728 247.805 39.7394 248.132C39.5108 248.454 39.1841 248.704 38.7594 248.881C38.3348 249.054 37.8261 249.14 37.2334 249.14ZM44.8385 249.14C44.1525 249.14 43.5482 248.993 43.0255 248.699C42.5028 248.4 42.0945 247.976 41.8005 247.425C41.5112 246.874 41.3665 246.219 41.3665 245.458C41.3665 244.707 41.4995 244.044 41.7655 243.47C42.0315 242.891 42.4165 242.439 42.9205 242.112C43.4245 241.785 44.0312 241.622 44.7405 241.622C45.4358 241.622 46.0238 241.771 46.5045 242.07C46.9852 242.369 47.3492 242.789 47.5965 243.33C47.8438 243.867 47.9675 244.501 47.9675 245.234V245.731H42.8715C42.8668 246.165 42.9368 246.555 43.0815 246.9C43.2262 247.241 43.4408 247.511 43.7255 247.712C44.0148 247.908 44.3742 248.006 44.8035 248.006C45.2375 248.006 45.6108 247.908 45.9235 247.712C46.2408 247.516 46.4485 247.224 46.5465 246.837H47.9325C47.8485 247.332 47.6502 247.752 47.3375 248.097C47.0248 248.442 46.6492 248.704 46.2105 248.881C45.7718 249.054 45.3145 249.14 44.8385 249.14ZM42.8715 244.758H46.5395C46.5395 244.38 46.4742 244.037 46.3435 243.729C46.2128 243.416 46.0122 243.171 45.7415 242.994C45.4755 242.812 45.1395 242.721 44.7335 242.721C44.3182 242.721 43.9728 242.821 43.6975 243.022C43.4222 243.223 43.2145 243.479 43.0745 243.792C42.9392 244.105 42.8715 244.427 42.8715 244.758ZM52.4371 249L56.0911 238.878H57.7431L61.3901 249H59.8781L58.9261 246.347H54.9151L53.9561 249H52.4371ZM55.2861 244.989H58.5341L56.9101 240.334L55.2861 244.989ZM64.8949 249.098C64.4656 249.098 64.1203 249.042 63.8589 248.93C63.6023 248.818 63.4063 248.669 63.2709 248.482C63.1356 248.291 63.0446 248.076 62.9979 247.838C62.9559 247.595 62.9349 247.346 62.9349 247.089V238.598H64.4119V246.935C64.4119 247.271 64.4773 247.528 64.6079 247.705C64.7433 247.882 64.9486 247.983 65.2239 248.006L65.6019 248.02V248.972C65.4853 249.009 65.3639 249.04 65.2379 249.063C65.1166 249.086 65.0023 249.098 64.8949 249.098ZM69.0238 249.098C68.5945 249.098 68.2492 249.042 67.9878 248.93C67.7312 248.818 67.5352 248.669 67.3998 248.482C67.2645 248.291 67.1735 248.076 67.1268 247.838C67.0848 247.595 67.0638 247.346 67.0638 247.089V238.598H68.5408V246.935C68.5408 247.271 68.6062 247.528 68.7368 247.705C68.8722 247.882 69.0775 247.983 69.3528 248.006L69.7308 248.02V248.972C69.6142 249.009 69.4928 249.04 69.3668 249.063C69.2455 249.086 69.1312 249.098 69.0238 249.098ZM74.9998 249V238.878H78.5068C79.2301 238.878 79.8764 239.002 80.4458 239.249C81.0198 239.496 81.4701 239.86 81.7968 240.341C82.1281 240.822 82.2938 241.412 82.2938 242.112C82.2938 242.784 82.1421 243.358 81.8388 243.834C81.5401 244.305 81.1201 244.667 80.5788 244.919C80.0421 245.166 79.4191 245.29 78.7098 245.29H76.5258V249H74.9998ZM76.5188 244.065H78.6678C79.3118 244.065 79.8368 243.881 80.2428 243.512C80.6488 243.139 80.8518 242.644 80.8518 242.028C80.8518 241.403 80.6418 240.924 80.2218 240.593C79.8018 240.257 79.2651 240.089 78.6118 240.089H76.5188V244.065ZM83.7025 249V241.762H85.1375V243.246C85.2588 242.891 85.4268 242.595 85.6415 242.357C85.8608 242.114 86.1152 241.932 86.4045 241.811C86.6938 241.685 86.9995 241.622 87.3215 241.622C87.4195 241.622 87.5128 241.629 87.6015 241.643C87.6902 241.652 87.7602 241.671 87.8115 241.699V243.141C87.7508 243.113 87.6715 243.094 87.5735 243.085C87.4802 243.076 87.3985 243.069 87.3285 243.064C87.0112 243.041 86.7218 243.057 86.4605 243.113C86.1992 243.169 85.9728 243.262 85.7815 243.393C85.5948 243.524 85.4502 243.694 85.3475 243.904C85.2495 244.114 85.2005 244.361 85.2005 244.646V249H83.7025ZM92.1393 249.14C91.4626 249.14 90.8723 248.995 90.3683 248.706C89.8643 248.412 89.4723 247.987 89.1923 247.432C88.9123 246.877 88.7723 246.205 88.7723 245.416C88.7723 244.655 88.9053 243.99 89.1713 243.421C89.4373 242.852 89.8199 242.411 90.3193 242.098C90.8233 241.781 91.4323 241.622 92.1463 241.622C92.8276 241.622 93.4179 241.771 93.9173 242.07C94.4166 242.364 94.8039 242.796 95.0793 243.365C95.3546 243.93 95.4923 244.613 95.4923 245.416C95.4923 246.149 95.3639 246.795 95.1073 247.355C94.8506 247.915 94.4726 248.354 93.9733 248.671C93.4786 248.984 92.8673 249.14 92.1393 249.14ZM92.1463 247.985C92.5616 247.985 92.9069 247.878 93.1823 247.663C93.4576 247.444 93.6653 247.138 93.8053 246.746C93.9453 246.349 94.0153 245.892 94.0153 245.374C94.0153 244.893 93.9523 244.457 93.8263 244.065C93.7049 243.668 93.5066 243.353 93.2313 243.12C92.9606 242.887 92.5989 242.77 92.1463 242.77C91.7309 242.77 91.3809 242.877 91.0963 243.092C90.8163 243.302 90.6063 243.603 90.4663 243.995C90.3263 244.382 90.2563 244.842 90.2563 245.374C90.2563 245.845 90.3193 246.279 90.4453 246.676C90.5713 247.073 90.7719 247.39 91.0473 247.628C91.3273 247.866 91.6936 247.985 92.1463 247.985ZM99.7953 249.14C98.8479 249.14 98.0989 248.816 97.5483 248.167C97.0023 247.514 96.7293 246.573 96.7293 245.346C96.7293 244.595 96.8389 243.941 97.0583 243.386C97.2823 242.826 97.6113 242.392 98.0453 242.084C98.4793 241.776 99.0206 241.622 99.6693 241.622C99.9913 241.622 100.281 241.662 100.537 241.741C100.794 241.82 101.018 241.923 101.209 242.049C101.401 242.175 101.562 242.31 101.692 242.455C101.823 242.6 101.921 242.735 101.986 242.861V238.598H103.498V249H102.371L102.203 247.516C102.152 247.675 102.073 247.847 101.965 248.034C101.863 248.221 101.718 248.398 101.531 248.566C101.349 248.734 101.116 248.872 100.831 248.979C100.547 249.086 100.201 249.14 99.7953 249.14ZM100.082 248.013C100.754 248.013 101.24 247.803 101.538 247.383C101.837 246.958 101.986 246.263 101.986 245.297C101.982 244.751 101.914 244.289 101.783 243.911C101.657 243.533 101.457 243.248 101.181 243.057C100.911 242.861 100.554 242.763 100.11 242.763C99.5549 242.763 99.0999 242.964 98.7453 243.365C98.3953 243.762 98.2203 244.406 98.2203 245.297C98.2203 246.174 98.3789 246.846 98.6963 247.313C99.0183 247.78 99.4803 248.013 100.082 248.013ZM108.183 249.14C107.819 249.135 107.471 249.082 107.14 248.979C106.808 248.876 106.512 248.722 106.251 248.517C105.994 248.312 105.789 248.057 105.635 247.754C105.485 247.451 105.411 247.098 105.411 246.697V241.762H106.916V246.536C106.916 246.97 107.051 247.322 107.322 247.593C107.592 247.864 108.001 247.999 108.547 247.999C109.041 247.999 109.438 247.871 109.737 247.614C110.035 247.353 110.185 246.972 110.185 246.473V241.762H111.676V249H110.514L110.346 247.6C110.262 247.978 110.11 248.281 109.891 248.51C109.676 248.734 109.419 248.897 109.121 249C108.827 249.098 108.514 249.145 108.183 249.14ZM116.687 249.14C116.034 249.14 115.453 248.998 114.944 248.713C114.436 248.424 114.037 248.001 113.747 247.446C113.458 246.886 113.313 246.207 113.313 245.409C113.313 244.658 113.446 243.997 113.712 243.428C113.983 242.859 114.37 242.415 114.874 242.098C115.378 241.781 115.983 241.622 116.687 241.622C117.233 241.622 117.716 241.729 118.136 241.944C118.556 242.154 118.897 242.448 119.158 242.826C119.424 243.204 119.585 243.645 119.641 244.149H118.339C118.302 243.911 118.213 243.689 118.073 243.484C117.933 243.279 117.749 243.115 117.52 242.994C117.292 242.868 117.019 242.805 116.701 242.805C116.118 242.805 115.644 243.017 115.28 243.442C114.916 243.867 114.734 244.518 114.734 245.395C114.734 246.198 114.905 246.837 115.245 247.313C115.586 247.789 116.078 248.027 116.722 248.027C117.04 248.027 117.313 247.962 117.541 247.831C117.77 247.7 117.952 247.532 118.087 247.327C118.227 247.122 118.316 246.909 118.353 246.69H119.627C119.571 247.175 119.41 247.602 119.144 247.971C118.883 248.34 118.542 248.627 118.122 248.832C117.702 249.037 117.224 249.14 116.687 249.14ZM123.819 249.049C123.283 249.049 122.867 248.977 122.573 248.832C122.279 248.687 122.074 248.48 121.957 248.209C121.841 247.934 121.782 247.602 121.782 247.215V242.84H120.606V241.762H121.831L122.195 239.634H123.287V241.755H124.911V242.84H123.287L123.294 247.159C123.294 247.397 123.318 247.572 123.364 247.684C123.416 247.791 123.5 247.861 123.616 247.894C123.738 247.922 123.901 247.936 124.106 247.936H124.946V248.909C124.858 248.946 124.72 248.979 124.533 249.007C124.351 249.035 124.113 249.049 123.819 249.049Z" fill="#EBC80C"/>
<path d="M137.125 244H150.875" stroke="#EBC80C" stroke-width="1.5" stroke-linecap="round" stroke-linejoin="round"/>
<path d="M145.25 238.375L150.875 244L145.25 249.625" stroke="#EBC80C" stroke-width="1.5" stroke-linecap="round" stroke-linejoin="round"/>
</svg>
