<svg width="88" height="13" viewBox="0 0 88 13" fill="none" xmlns="http://www.w3.org/2000/svg">
<path d="M0.336 2.184V0.431999H9.36V2.184H5.888V12H3.936V2.184H0.336ZM15.633 12.16C14.5663 12.16 13.6437 11.9253 12.865 11.456C12.0917 10.9867 11.4917 10.3093 11.065 9.424C10.6437 8.53867 10.433 7.47733 10.433 6.24C10.433 4.992 10.6463 3.92267 11.073 3.032C11.4997 2.14133 12.1023 1.45867 12.881 0.983999C13.665 0.509333 14.5823 0.271999 15.633 0.271999C16.6837 0.271999 17.593 0.509333 18.361 0.983999C19.1343 1.45867 19.7317 2.14133 20.153 3.032C20.5743 3.92267 20.785 4.992 20.785 6.24C20.785 7.47733 20.577 8.53867 20.161 9.424C19.745 10.304 19.1503 10.9813 18.377 11.456C17.6037 11.9253 16.689 12.16 15.633 12.16ZM15.633 10.528C16.2623 10.528 16.8037 10.3813 17.257 10.088C17.7103 9.78933 18.057 9.328 18.297 8.704C18.5423 8.07467 18.665 7.26133 18.665 6.264C18.665 5.25067 18.5423 4.424 18.297 3.784C18.0517 3.13867 17.7023 2.664 17.249 2.36C16.7957 2.056 16.257 1.904 15.633 1.904C15.0037 1.904 14.4597 2.05867 14.001 2.368C13.5477 2.672 13.1957 3.14667 12.945 3.792C12.6943 4.432 12.569 5.256 12.569 6.264C12.569 7.26133 12.6943 8.07467 12.945 8.704C13.1957 9.328 13.5477 9.78933 14.001 10.088C14.4597 10.3813 15.0037 10.528 15.633 10.528ZM22.9938 12V0.431999H27.0978C27.9298 0.431999 28.6738 0.575999 29.3298 0.863999C29.9911 1.14667 30.5111 1.56533 30.8898 2.12C31.2684 2.67467 31.4578 3.35733 31.4578 4.168C31.4578 4.93067 31.2844 5.584 30.9378 6.128C30.5964 6.672 30.1191 7.088 29.5058 7.376C28.8924 7.664 28.1751 7.808 27.3538 7.808H24.9698V12H22.9938ZM24.9538 6.248H27.3058C27.9831 6.248 28.5351 6.04533 28.9618 5.64C29.3938 5.23467 29.6098 4.70667 29.6098 4.056C29.6098 3.39467 29.3858 2.88267 28.9378 2.52C28.4898 2.152 27.9271 1.968 27.2498 1.968H24.9538V6.248ZM45.4935 12H43.4615L41.4695 7.304H38.7815V12H36.8375V0.431999H41.5335C42.4188 0.431999 43.1468 0.570666 43.7175 0.848C44.2935 1.12 44.7202 1.50667 44.9975 2.008C45.2748 2.504 45.4135 3.08533 45.4135 3.752C45.4135 4.37067 45.3122 4.89067 45.1095 5.312C44.9068 5.728 44.6428 6.06933 44.3175 6.336C43.9975 6.59733 43.6535 6.81067 43.2855 6.976L45.4935 12ZM41.0935 5.76C41.8295 5.76 42.4028 5.58933 42.8135 5.248C43.2295 4.90667 43.4375 4.432 43.4375 3.824C43.4375 3.22667 43.2455 2.76533 42.8615 2.44C42.4775 2.11467 41.9708 1.952 41.3415 1.952H38.7815V5.76H41.0935ZM47.044 12L51.204 0.431999H53.308L57.46 12H55.508L54.476 9.096H50.06L49.004 12H47.044ZM50.508 7.368H53.996L52.26 2.328L50.508 7.368ZM57.2579 2.184V0.431999H66.2819V2.184H62.8099V12H60.8579V2.184H57.2579ZM68.025 12V0.431999H75.673L75.665 2.104H69.985V5.344H75.001V6.992H69.969V10.304L75.785 10.312V12H68.025ZM78.2281 0.431999C78.2761 0.431999 78.4175 0.431999 78.6521 0.431999C78.8868 0.431999 79.1641 0.431999 79.4841 0.431999C79.8095 0.431999 80.1375 0.434666 80.4681 0.44C80.8041 0.44 81.0948 0.442666 81.3401 0.447999C82.7481 0.474666 83.8921 0.717333 84.7721 1.176C85.6575 1.62933 86.3055 2.27733 86.7161 3.12C87.1321 3.95733 87.3401 4.968 87.3401 6.152C87.3401 7.38933 87.1188 8.44267 86.6761 9.312C86.2388 10.1813 85.5668 10.848 84.6601 11.312C83.7588 11.7707 82.6121 12 81.2201 12H78.2281V0.431999ZM80.2041 2.04V10.392H81.2521C82.0468 10.392 82.7481 10.256 83.3561 9.984C83.9641 9.70667 84.4388 9.25867 84.7801 8.64C85.1268 8.02133 85.3001 7.19467 85.3001 6.16C85.3001 5.15733 85.1401 4.35467 84.8201 3.752C84.5001 3.14933 84.0415 2.71467 83.4441 2.448C82.8468 2.176 82.1321 2.04 81.3001 2.04H80.2041Z" fill="#191C1F"/>
</svg>
