<svg width="77" height="12" viewBox="0 0 77 12" fill="none" xmlns="http://www.w3.org/2000/svg">
<path d="M3.591 11V2.068H0.322V0.877999H7.98V2.068H4.893V11H3.591ZM8.93233 11V3.762H10.1643V5.155C10.2857 4.80967 10.456 4.525 10.6753 4.301C10.8947 4.07233 11.1443 3.902 11.4243 3.79C11.709 3.678 12.003 3.622 12.3063 3.622C12.4137 3.622 12.5187 3.629 12.6213 3.643C12.724 3.657 12.8033 3.68033 12.8593 3.713V4.966C12.7893 4.93333 12.6983 4.91233 12.5863 4.903C12.479 4.889 12.388 4.882 12.3133 4.882C12.024 4.86333 11.7533 4.882 11.5013 4.938C11.2493 4.98933 11.0277 5.08033 10.8363 5.211C10.645 5.34167 10.4933 5.51433 10.3813 5.729C10.274 5.939 10.2203 6.19567 10.2203 6.499V11H8.93233ZM16.1713 11.14C15.7 11.14 15.2846 11.0583 14.9253 10.895C14.5706 10.727 14.2906 10.4867 14.0853 10.174C13.8846 9.86133 13.7843 9.48333 13.7843 9.04C13.7843 8.23733 14.0643 7.64 14.6243 7.248C15.1843 6.856 16.0826 6.646 17.3193 6.618L18.6073 6.583V6.016C18.6073 5.57267 18.4743 5.22267 18.2083 4.966C17.9423 4.70467 17.5316 4.574 16.9763 4.574C16.561 4.57867 16.1946 4.67667 15.8773 4.868C15.56 5.05933 15.357 5.372 15.2683 5.806H14.1273C14.1553 5.33467 14.286 4.938 14.5193 4.616C14.7573 4.28933 15.091 4.042 15.5203 3.874C15.9496 3.706 16.456 3.622 17.0393 3.622C17.6693 3.622 18.192 3.71067 18.6073 3.888C19.0273 4.06533 19.34 4.32667 19.5453 4.672C19.7553 5.01733 19.8603 5.442 19.8603 5.946V11H18.7543L18.6563 9.642C18.381 10.2067 18.0263 10.5987 17.5923 10.818C17.163 11.0327 16.6893 11.14 16.1713 11.14ZM16.5563 10.209C16.8036 10.209 17.0463 10.1647 17.2843 10.076C17.527 9.98733 17.7463 9.86833 17.9423 9.719C18.143 9.565 18.304 9.39467 18.4253 9.208C18.5466 9.01667 18.6073 8.82067 18.6073 8.62V7.381L17.5363 7.402C16.981 7.41133 16.519 7.46733 16.1503 7.57C15.7816 7.67267 15.504 7.83367 15.3173 8.053C15.1306 8.27233 15.0373 8.55933 15.0373 8.914C15.0373 9.32 15.1796 9.63733 15.4643 9.866C15.749 10.0947 16.113 10.209 16.5563 10.209ZM24.7916 11.14C24.1383 11.14 23.5596 10.9977 23.0556 10.713C22.5563 10.4283 22.1643 10.0083 21.8796 9.453C21.5996 8.89767 21.4596 8.21633 21.4596 7.409C21.4596 6.653 21.5879 5.99267 21.8446 5.428C22.1059 4.85867 22.4839 4.41533 22.9786 4.098C23.4779 3.78067 24.0823 3.622 24.7916 3.622C25.3096 3.622 25.7739 3.72233 26.1846 3.923C26.5999 4.119 26.9406 4.399 27.2066 4.763C27.4726 5.127 27.6359 5.55633 27.6966 6.051H26.5486C26.5066 5.799 26.4086 5.568 26.2546 5.358C26.1053 5.148 25.9069 4.98 25.6596 4.854C25.4169 4.728 25.1299 4.665 24.7986 4.665C24.1779 4.665 23.6716 4.889 23.2796 5.337C22.8923 5.785 22.6986 6.471 22.6986 7.395C22.6986 8.23033 22.8759 8.9 23.2306 9.404C23.5899 9.90333 24.1173 10.153 24.8126 10.153C25.1439 10.153 25.4333 10.09 25.6806 9.964C25.9279 9.83333 26.1263 9.663 26.2756 9.453C26.4249 9.23833 26.5206 9.00967 26.5626 8.767H27.6896C27.6289 9.25233 27.4633 9.67233 27.1926 10.027C26.9266 10.3817 26.5859 10.657 26.1706 10.853C25.7599 11.0443 25.3003 11.14 24.7916 11.14ZM29.4128 11V0.598H30.7008V7.381L34.1028 3.762H35.5868L32.9758 6.52L35.7688 11H34.3968L32.1288 7.367L30.7008 8.844V11H29.4128ZM44.7594 11.14C43.8588 11.14 43.0794 10.937 42.4214 10.531C41.7634 10.125 41.2548 9.537 40.8954 8.767C40.5408 7.99233 40.3634 7.05667 40.3634 5.96C40.3634 4.854 40.5431 3.91367 40.9024 3.139C41.2618 2.35967 41.7704 1.76467 42.4284 1.354C43.0911 0.943333 43.8681 0.737999 44.7594 0.737999C45.6554 0.737999 46.4301 0.943333 47.0834 1.354C47.7368 1.76 48.2408 2.35267 48.5954 3.132C48.9501 3.90667 49.1274 4.84933 49.1274 5.96C49.1274 7.05667 48.9501 7.99233 48.5954 8.767C48.2454 9.537 47.7438 10.125 47.0904 10.531C46.4371 10.937 45.6601 11.14 44.7594 11.14ZM44.7594 10.013C45.3848 10.013 45.9168 9.87067 46.3554 9.586C46.7941 9.30133 47.1278 8.86033 47.3564 8.263C47.5898 7.66567 47.7064 6.90267 47.7064 5.974C47.7064 5.03133 47.5898 4.25667 47.3564 3.65C47.1231 3.04333 46.7871 2.59533 46.3484 2.306C45.9098 2.012 45.3801 1.865 44.7594 1.865C44.1434 1.865 43.6138 2.012 43.1704 2.306C42.7271 2.6 42.3864 3.05033 42.1484 3.657C41.9104 4.26367 41.7914 5.036 41.7914 5.974C41.7914 6.90267 41.9104 7.66567 42.1484 8.263C42.3864 8.86033 42.7271 9.30133 43.1704 9.586C43.6138 9.87067 44.1434 10.013 44.7594 10.013ZM50.864 11V3.762H52.096V5.155C52.2173 4.80967 52.3876 4.525 52.607 4.301C52.8263 4.07233 53.076 3.902 53.356 3.79C53.6406 3.678 53.9346 3.622 54.238 3.622C54.3453 3.622 54.4503 3.629 54.553 3.643C54.6556 3.657 54.735 3.68033 54.791 3.713V4.966C54.721 4.93333 54.63 4.91233 54.518 4.903C54.4106 4.889 54.3196 4.882 54.245 4.882C53.9556 4.86333 53.685 4.882 53.433 4.938C53.181 4.98933 52.9593 5.08033 52.768 5.211C52.5766 5.34167 52.425 5.51433 52.313 5.729C52.2056 5.939 52.152 6.19567 52.152 6.499V11H50.864ZM58.8623 11.14C57.9197 11.14 57.173 10.818 56.6223 10.174C56.0763 9.53 55.8033 8.58967 55.8033 7.353C55.8033 6.60167 55.913 5.946 56.1323 5.386C56.3517 4.826 56.6807 4.392 57.1193 4.084C57.558 3.776 58.104 3.622 58.7573 3.622C59.1073 3.622 59.4153 3.66633 59.6813 3.755C59.9473 3.84367 60.1783 3.95567 60.3743 4.091C60.5703 4.22633 60.729 4.36633 60.8503 4.511C60.9763 4.65567 61.0697 4.78867 61.1303 4.91V0.598H62.4393V11H61.4453L61.3053 9.516C61.2587 9.656 61.184 9.81933 61.0813 10.006C60.9787 10.188 60.834 10.3677 60.6473 10.545C60.4653 10.7177 60.2273 10.86 59.9333 10.972C59.6393 11.084 59.2823 11.14 58.8623 11.14ZM59.0933 10.146C59.8213 10.146 60.3417 9.92433 60.6543 9.481C60.9717 9.033 61.1303 8.30267 61.1303 7.29C61.1257 6.72533 61.0557 6.24467 60.9203 5.848C60.785 5.45133 60.5703 5.15033 60.2763 4.945C59.987 4.735 59.5997 4.63 59.1143 4.63C58.5217 4.63 58.0387 4.84233 57.6653 5.267C57.292 5.69167 57.1053 6.366 57.1053 7.29C57.1053 8.19533 57.2733 8.89767 57.6093 9.397C57.9453 9.89633 58.44 10.146 59.0933 10.146ZM67.6359 11.14C66.9639 11.14 66.3712 10.993 65.8579 10.699C65.3445 10.405 64.9432 9.98267 64.6539 9.432C64.3645 8.88133 64.2199 8.221 64.2199 7.451C64.2199 6.69033 64.3505 6.023 64.6119 5.449C64.8732 4.875 65.2512 4.427 65.7459 4.105C66.2452 3.783 66.8449 3.622 67.5449 3.622C68.2262 3.622 68.8025 3.769 69.2739 4.063C69.7452 4.357 70.1022 4.77233 70.3449 5.309C70.5922 5.841 70.7159 6.47333 70.7159 7.206V7.682H65.5289C65.5289 8.13933 65.6035 8.55467 65.7529 8.928C65.9069 9.29667 66.1379 9.59067 66.4459 9.81C66.7539 10.0293 67.1435 10.139 67.6149 10.139C68.0769 10.139 68.4735 10.0317 68.8049 9.817C69.1409 9.60233 69.3555 9.292 69.4489 8.886H70.6669C70.5829 9.376 70.3869 9.789 70.0789 10.125C69.7755 10.461 69.4092 10.7153 68.9799 10.888C68.5552 11.056 68.1072 11.14 67.6359 11.14ZM65.5359 6.807H69.4699C69.4699 6.39167 69.3999 6.01833 69.2599 5.687C69.1199 5.351 68.9052 5.08733 68.6159 4.896C68.3312 4.7 67.9719 4.602 67.5379 4.602C67.0852 4.602 66.7095 4.71167 66.4109 4.931C66.1122 5.14567 65.8905 5.42333 65.7459 5.764C65.6012 6.1 65.5312 6.44767 65.5359 6.807ZM72.5065 11V3.762H73.7385V5.155C73.8599 4.80967 74.0302 4.525 74.2495 4.301C74.4689 4.07233 74.7185 3.902 74.9985 3.79C75.2832 3.678 75.5772 3.622 75.8805 3.622C75.9879 3.622 76.0929 3.629 76.1955 3.643C76.2982 3.657 76.3775 3.68033 76.4335 3.713V4.966C76.3635 4.93333 76.2725 4.91233 76.1605 4.903C76.0532 4.889 75.9622 4.882 75.8875 4.882C75.5982 4.86333 75.3275 4.882 75.0755 4.938C74.8235 4.98933 74.6019 5.08033 74.4105 5.211C74.2192 5.34167 74.0675 5.51433 73.9555 5.729C73.8482 5.939 73.7945 6.19567 73.7945 6.499V11H72.5065Z" fill="#5F6C72"/>
</svg>
