<svg width="34" height="14" viewBox="0 0 34 14" fill="none" xmlns="http://www.w3.org/2000/svg">
<path d="M7.876 7.402C7.876 8.58734 7.57733 9.50667 6.98 10.16C6.38733 10.8133 5.419 11.14 4.075 11.14C2.71233 11.14 1.73933 10.8063 1.156 10.139C0.572667 9.47167 0.281 8.51967 0.281 7.283V0.878003H1.828V7.472C1.828 8.27467 2.024 8.872 2.416 9.264C2.808 9.65134 3.361 9.845 4.075 9.845C4.78433 9.845 5.342 9.65134 5.748 9.264C6.154 8.87667 6.357 8.27934 6.357 7.472V0.878003H7.876V7.402ZM9.91344 13.254V3.762H11.4114L11.4254 4.966C11.5468 4.76067 11.7101 4.55534 11.9154 4.35C12.1254 4.14 12.3821 3.96734 12.6854 3.832C12.9934 3.692 13.3528 3.622 13.7634 3.622C14.6174 3.622 15.3128 3.92067 15.8494 4.518C16.3908 5.11534 16.6614 6.04167 16.6614 7.297C16.6614 8.557 16.3884 9.51367 15.8424 10.167C15.2964 10.8157 14.5614 11.14 13.6374 11.14C13.2408 11.14 12.8954 11.07 12.6014 10.93C12.3121 10.7853 12.0694 10.6057 11.8734 10.391C11.6821 10.1763 11.5304 9.964 11.4184 9.754V13.254H9.91344ZM13.3224 9.999C13.8778 9.999 14.3328 9.78434 14.6874 9.355C15.0468 8.921 15.2264 8.24434 15.2264 7.325C15.2264 6.53634 15.0608 5.91334 14.7294 5.456C14.4028 4.994 13.9338 4.763 13.3224 4.763C12.6878 4.763 12.2094 5.00334 11.8874 5.484C11.5701 5.96 11.4114 6.57367 11.4114 7.325C11.4114 7.815 11.4814 8.263 11.6214 8.669C11.7661 9.07034 11.9808 9.39234 12.2654 9.635C12.5501 9.87767 12.9024 9.999 13.3224 9.999ZM25.2091 4.84H23.5851L23.5921 9.159C23.5921 9.51367 23.6504 9.733 23.7671 9.817C23.8838 9.89634 24.0961 9.936 24.4041 9.936H25.2511V10.909C25.1578 10.9463 25.0178 10.979 24.8311 11.007C24.6444 11.035 24.4088 11.049 24.1241 11.049C23.5874 11.049 23.1698 10.9767 22.8711 10.832C22.5771 10.6873 22.3718 10.4797 22.2551 10.209C22.1431 9.93367 22.0871 9.60234 22.0871 9.215V4.84H20.9111V3.762H22.1291L22.5001 1.634H23.5851V3.755H25.2091V4.84ZM29.7109 11.14C28.6935 11.14 27.8769 10.818 27.2609 10.174C26.6495 9.52534 26.3439 8.606 26.3439 7.416C26.3439 6.65534 26.4745 5.99267 26.7359 5.428C27.0019 4.85867 27.3869 4.41534 27.8909 4.098C28.3949 3.78067 29.0039 3.622 29.7179 3.622C30.7352 3.622 31.5472 3.95334 32.1539 4.616C32.7605 5.27867 33.0639 6.212 33.0639 7.416C33.0639 8.14867 32.9355 8.795 32.6789 9.355C32.4222 9.915 32.0442 10.3537 31.5449 10.671C31.0455 10.9837 30.4342 11.14 29.7109 11.14ZM29.7179 9.985C30.3339 9.985 30.7982 9.747 31.1109 9.271C31.4282 8.79034 31.5869 8.158 31.5869 7.374C31.5869 6.89334 31.5239 6.457 31.3979 6.065C31.2719 5.66834 31.0712 5.35334 30.7959 5.12C30.5252 4.88667 30.1659 4.77 29.7179 4.77C29.0925 4.77 28.6189 5.00567 28.2969 5.477C27.9795 5.94834 27.8209 6.58067 27.8209 7.374C27.8209 7.84534 27.8839 8.27934 28.0099 8.676C28.1359 9.07267 28.3365 9.39 28.6119 9.628C28.8919 9.866 29.2605 9.985 29.7179 9.985Z" fill="white"/>
</svg>
