<svg width="143" height="54" viewBox="0 0 143 54" fill="none" xmlns="http://www.w3.org/2000/svg">
<path d="M16.08 18H12.456L8.184 11.328L3.984 18H0.816L6.636 9.168L1.008 0.647999H4.608L8.46 6.72L12.288 0.647999H15.432L9.996 8.82L16.08 18ZM21.5321 0.659999V3.42H18.6401V0.659999H21.5321ZM21.4961 5.592V18H18.6881V5.592H21.4961ZM28.5392 18.24C27.3472 18.24 26.3592 17.92 25.5752 17.28C24.7912 16.632 24.3992 15.72 24.3992 14.544C24.3992 13.176 24.8912 12.144 25.8752 11.448C26.8672 10.752 28.4472 10.388 30.6152 10.356L32.4632 10.308V9.468C32.4632 8.812 32.2672 8.3 31.8752 7.932C31.4832 7.564 30.8832 7.38 30.0752 7.38C29.4672 7.388 28.9152 7.532 28.4192 7.812C27.9232 8.092 27.5952 8.552 27.4352 9.192H24.9512C25.0152 7.92 25.5232 6.964 26.4752 6.324C27.4352 5.676 28.6792 5.352 30.2072 5.352C31.9752 5.352 33.2592 5.7 34.0592 6.396C34.8672 7.084 35.2712 8.052 35.2712 9.3V18H32.8112L32.5832 15.768C32.1272 16.704 31.5592 17.352 30.8792 17.712C30.1992 18.064 29.4192 18.24 28.5392 18.24ZM29.4872 16.26C29.9672 16.26 30.4352 16.148 30.8912 15.924C31.3472 15.692 31.7232 15.396 32.0192 15.036C32.3152 14.676 32.4632 14.292 32.4632 13.884V11.928L30.9392 11.952C29.8112 11.968 28.9032 12.148 28.2152 12.492C27.5272 12.836 27.1832 13.42 27.1832 14.244C27.1832 14.876 27.4032 15.372 27.8432 15.732C28.2832 16.084 28.8312 16.26 29.4872 16.26ZM43.8353 18.24C42.0513 18.24 40.6273 17.68 39.5633 16.56C38.4993 15.432 37.9673 13.864 37.9673 11.856C37.9673 10.56 38.1993 9.424 38.6633 8.448C39.1353 7.472 39.8073 6.712 40.6793 6.168C41.5593 5.624 42.6153 5.352 43.8473 5.352C45.6153 5.352 47.0273 5.928 48.0833 7.08C49.1393 8.232 49.6673 9.824 49.6673 11.856C49.6673 13.112 49.4393 14.22 48.9833 15.18C48.5353 16.14 47.8753 16.892 47.0033 17.436C46.1393 17.972 45.0833 18.24 43.8353 18.24ZM43.8473 16.02C44.8473 16.02 45.5873 15.62 46.0673 14.82C46.5553 14.02 46.7993 13.004 46.7993 11.772C46.7993 11.012 46.7033 10.312 46.5113 9.672C46.3193 9.032 46.0073 8.52 45.5753 8.136C45.1433 7.744 44.5673 7.548 43.8473 7.548C42.8233 7.548 42.0633 7.94 41.5673 8.724C41.0793 9.508 40.8353 10.524 40.8353 11.772C40.8353 12.524 40.9313 13.224 41.1233 13.872C41.3233 14.512 41.6433 15.032 42.0833 15.432C42.5233 15.824 43.1113 16.02 43.8473 16.02ZM52.2576 18V5.592H55.1016V7.368C55.4536 6.824 55.9376 6.352 56.5536 5.952C57.1776 5.552 57.9736 5.352 58.9416 5.352C59.5976 5.352 60.2616 5.524 60.9336 5.868C61.6136 6.204 62.1256 6.7 62.4696 7.356C62.8616 6.772 63.3816 6.292 64.0296 5.916C64.6856 5.54 65.4216 5.352 66.2376 5.352C66.6856 5.352 67.1456 5.424 67.6176 5.568C68.0896 5.712 68.5256 5.952 68.9256 6.288C69.3336 6.624 69.6616 7.084 69.9096 7.668C70.1576 8.244 70.2816 8.968 70.2816 9.84V18H67.3656V10.188C67.3656 9.268 67.1336 8.636 66.6696 8.292C66.2056 7.94 65.6896 7.764 65.1216 7.764C64.7776 7.764 64.4176 7.832 64.0416 7.968C63.6656 8.104 63.3496 8.328 63.0936 8.64C62.8376 8.952 62.7096 9.372 62.7096 9.9V18H59.7936V9.72C59.7936 9.288 59.6816 8.928 59.4576 8.64C59.2336 8.352 58.9496 8.136 58.6056 7.992C58.2616 7.84 57.9176 7.764 57.5736 7.764C57.2136 7.764 56.8456 7.84 56.4696 7.992C56.1016 8.144 55.7936 8.376 55.5456 8.688C55.2976 9 55.1736 9.404 55.1736 9.9V18H52.2576ZM76.4696 0.659999V3.42H73.5776V0.659999H76.4696ZM76.4336 5.592V18H73.6256V5.592H76.4336ZM2.1 32.648H13.452L13.44 35.12H5.064V40.112H12.456V42.548H5.064V50H2.1V32.648ZM19.7398 50.18C18.6678 50.18 17.8758 50.012 17.3638 49.676C16.8598 49.332 16.5318 48.888 16.3798 48.344C16.2358 47.8 16.1638 47.236 16.1638 46.652V32.168H19.0198V46.316C19.0198 46.852 19.1278 47.268 19.3438 47.564C19.5678 47.86 19.9278 48.032 20.4238 48.08L21.0478 48.104V49.94C20.8318 50.012 20.6078 50.068 20.3758 50.108C20.1518 50.156 19.9398 50.18 19.7398 50.18ZM26.6415 32.66V35.42H23.7495V32.66H26.6415ZM26.6055 37.592V50H23.7975V37.592H26.6055ZM30.2498 53.864V37.592H33.1658L33.1898 39.548C33.5178 39.004 34.0138 38.504 34.6778 38.048C35.3418 37.584 36.1618 37.352 37.1378 37.352C38.5698 37.352 39.7418 37.868 40.6537 38.9C41.5738 39.924 42.0338 41.512 42.0338 43.664C42.0338 45.864 41.5578 47.512 40.6058 48.608C39.6538 49.696 38.4098 50.24 36.8738 50.24C35.9298 50.24 35.1538 50 34.5458 49.52C33.9378 49.04 33.4818 48.52 33.1778 47.96V53.864H30.2498ZM36.2258 48.056C37.0978 48.056 37.8218 47.708 38.3978 47.012C38.9818 46.316 39.2738 45.216 39.2738 43.712C39.2738 42.416 39.0018 41.396 38.4578 40.652C37.9218 39.9 37.1778 39.524 36.2258 39.524C35.2018 39.524 34.4338 39.92 33.9218 40.712C33.4098 41.496 33.1538 42.496 33.1538 43.712C33.1538 44.496 33.2658 45.22 33.4898 45.884C33.7218 46.54 34.0618 47.068 34.5098 47.468C34.9658 47.86 35.5378 48.056 36.2258 48.056ZM45.1781 50V32.648H51.1421C53.3421 32.648 54.9861 33.04 56.0741 33.824C57.1701 34.6 57.7181 35.72 57.7181 37.184C57.7181 38.072 57.4901 38.84 57.0341 39.488C56.5781 40.136 55.7741 40.684 54.6221 41.132C55.5581 41.356 56.2781 41.688 56.7821 42.128C57.2941 42.56 57.6461 43.052 57.8381 43.604C58.0381 44.156 58.1381 44.728 58.1381 45.32C58.1381 46.904 57.5861 48.08 56.4821 48.848C55.3861 49.616 53.6861 50 51.3821 50H45.1781ZM48.0941 40.04H51.6341C52.1701 40.04 52.6861 39.96 53.1821 39.8C53.6861 39.64 54.0981 39.38 54.4181 39.02C54.7381 38.652 54.8981 38.164 54.8981 37.556C54.8981 36.692 54.5661 36.044 53.9021 35.612C53.2461 35.18 52.4021 34.964 51.3701 34.964H48.0941V40.04ZM48.0941 47.672H51.4181C52.6421 47.672 53.5741 47.452 54.2141 47.012C54.8541 46.564 55.1741 45.92 55.1741 45.08C55.1741 44.168 54.8341 43.496 54.1541 43.064C53.4741 42.624 52.6341 42.404 51.6341 42.404H48.0941V47.672ZM65.5598 50.24C64.7518 50.232 63.9878 50.072 63.2678 49.76C62.5478 49.448 61.9598 48.988 61.5038 48.38C61.0478 47.764 60.8198 47.004 60.8198 46.1V37.592H63.7478V45.764C63.7478 46.444 63.9598 47 64.3838 47.432C64.8158 47.856 65.4638 48.068 66.3278 48.068C67.1118 48.068 67.7398 47.864 68.2118 47.456C68.6838 47.04 68.9198 46.444 68.9198 45.668V37.592H71.8238V50H69.5798L69.2558 47.576C69.1038 48.256 68.8358 48.792 68.4518 49.184C68.0758 49.568 67.6318 49.84 67.1198 50C66.6158 50.16 66.0958 50.24 65.5598 50.24ZM79.4931 50.24C77.8531 50.24 76.5651 49.676 75.6291 48.548C74.6931 47.42 74.2251 45.816 74.2251 43.736C74.2251 41.792 74.6491 40.244 75.4971 39.092C76.3451 37.932 77.5891 37.352 79.2291 37.352C80.2531 37.352 81.0931 37.576 81.7491 38.024C82.4051 38.472 82.8611 38.932 83.1171 39.404V32.168H86.0451V50H83.8851L83.5611 47.456C83.4331 47.848 83.2171 48.26 82.9131 48.692C82.6171 49.124 82.1931 49.492 81.6411 49.796C81.0891 50.092 80.3731 50.24 79.4931 50.24ZM80.0931 48.092C81.1411 48.092 81.9051 47.752 82.3851 47.072C82.8731 46.384 83.1171 45.248 83.1171 43.664C83.1011 42.312 82.8571 41.284 82.3851 40.58C81.9131 39.876 81.1611 39.524 80.1291 39.524C79.2491 39.524 78.5251 39.848 77.9571 40.496C77.3891 41.144 77.1051 42.2 77.1051 43.664C77.1051 45.12 77.3651 46.224 77.8851 46.976C78.4051 47.72 79.1411 48.092 80.0931 48.092ZM94.0271 50.24C93.1631 50.24 92.3471 50.104 91.5791 49.832C90.8111 49.552 90.1631 49.116 89.6351 48.524C89.1071 47.932 88.7751 47.168 88.6391 46.232H91.2071C91.3671 46.92 91.7191 47.416 92.2631 47.72C92.8071 48.024 93.3911 48.176 94.0151 48.176C94.7591 48.176 95.3591 48.048 95.8151 47.792C96.2791 47.536 96.5111 47.14 96.5111 46.604C96.5111 46.212 96.3831 45.9 96.1271 45.668C95.8711 45.436 95.4631 45.26 94.9031 45.14L92.5391 44.6C91.4831 44.368 90.6391 43.984 90.0071 43.448C89.3751 42.912 89.0551 42.156 89.0471 41.18C89.0391 40.076 89.4551 39.164 90.2951 38.444C91.1431 37.716 92.3911 37.352 94.0391 37.352C95.4791 37.352 96.6351 37.676 97.5071 38.324C98.3871 38.964 98.8391 39.88 98.8631 41.072H96.3791C96.2911 40.544 96.0391 40.128 95.6231 39.824C95.2071 39.52 94.6671 39.368 94.0031 39.368C93.3151 39.368 92.7511 39.5 92.3111 39.764C91.8711 40.028 91.6511 40.432 91.6511 40.976C91.6511 41.352 91.8151 41.652 92.1431 41.876C92.4791 42.092 92.9871 42.272 93.6671 42.416L95.8991 42.956C96.7471 43.172 97.3991 43.48 97.8551 43.88C98.3111 44.28 98.6231 44.712 98.7911 45.176C98.9671 45.632 99.0551 46.052 99.0551 46.436C99.0551 47.636 98.5991 48.572 97.6871 49.244C96.7831 49.908 95.5631 50.24 94.0271 50.24ZM107.405 50V32.648H113.561C114.809 32.648 115.925 32.864 116.909 33.296C117.893 33.72 118.669 34.348 119.237 35.18C119.813 36.012 120.101 37.036 120.101 38.252C120.101 39.396 119.845 40.376 119.333 41.192C118.821 42.008 118.101 42.632 117.173 43.064C116.253 43.496 115.177 43.712 113.945 43.712H110.369V50H107.405ZM110.345 41.372H113.873C114.889 41.372 115.717 41.068 116.357 40.46C117.005 39.852 117.329 39.06 117.329 38.084C117.329 37.092 116.993 36.324 116.321 35.78C115.649 35.228 114.805 34.952 113.789 34.952H110.345V41.372ZM122.429 50V37.592H125.225V40.28C125.529 39.36 126.017 38.644 126.689 38.132C127.369 37.612 128.153 37.352 129.041 37.352C129.185 37.352 129.321 37.36 129.449 37.376C129.585 37.392 129.689 37.42 129.761 37.46V40.256C129.673 40.216 129.557 40.188 129.413 40.172C129.277 40.156 129.157 40.148 129.053 40.148C127.853 40.052 126.933 40.24 126.293 40.712C125.661 41.176 125.345 41.868 125.345 42.788V50H122.429ZM136.976 50.24C135.192 50.24 133.768 49.68 132.704 48.56C131.64 47.432 131.108 45.864 131.108 43.856C131.108 42.56 131.34 41.424 131.804 40.448C132.276 39.472 132.948 38.712 133.82 38.168C134.7 37.624 135.756 37.352 136.988 37.352C138.756 37.352 140.168 37.928 141.224 39.08C142.28 40.232 142.808 41.824 142.808 43.856C142.808 45.112 142.58 46.22 142.124 47.18C141.676 48.14 141.016 48.892 140.144 49.436C139.28 49.972 138.224 50.24 136.976 50.24ZM136.988 48.02C137.988 48.02 138.728 47.62 139.208 46.82C139.696 46.02 139.94 45.004 139.94 43.772C139.94 43.012 139.844 42.312 139.652 41.672C139.46 41.032 139.148 40.52 138.716 40.136C138.284 39.744 137.708 39.548 136.988 39.548C135.964 39.548 135.204 39.94 134.708 40.724C134.22 41.508 133.976 42.524 133.976 43.772C133.976 44.524 134.072 45.224 134.264 45.872C134.464 46.512 134.784 47.032 135.224 47.432C135.664 47.824 136.252 48.02 136.988 48.02Z" fill="#191C1F"/>
</svg>
