<svg width="162" height="48" viewBox="0 0 162 48" fill="none" xmlns="http://www.w3.org/2000/svg">
<rect x="1" y="1" width="160" height="46" rx="1" stroke="#FFE7D6" stroke-width="2"/>
<path d="M25.134 29V18.878H29.404C30.2113 18.878 30.8717 19.0063 31.385 19.263C31.8983 19.5197 32.2763 19.8767 32.519 20.334C32.7617 20.7867 32.883 21.3093 32.883 21.902C32.883 22.434 32.799 22.8843 32.631 23.253C32.4677 23.617 32.2507 23.9203 31.98 24.163C31.714 24.4057 31.4223 24.604 31.105 24.758L32.988 29H30.867L29.222 25.101H27.171V29H25.134ZM27.171 23.526H29.04C29.586 23.526 30.0177 23.379 30.335 23.085C30.657 22.791 30.818 22.413 30.818 21.951C30.818 21.4843 30.664 21.1157 30.356 20.845C30.048 20.5743 29.6583 20.439 29.187 20.439H27.171V23.526ZM35.05 29V18.878H42.001L41.994 20.6H37.101V23.057H41.35V24.744H37.087V27.257L42.071 27.264V29H35.05ZM43.3968 29L47.0158 18.878H49.1788L52.7978 29H50.7608L49.9348 26.655H46.2878L45.4478 29H43.3968ZM46.7498 24.87H49.4378L48.1008 20.845L46.7498 24.87ZM54.4857 29V18.878C54.537 18.878 54.6793 18.878 54.9127 18.878C55.1507 18.878 55.4283 18.878 55.7457 18.878C56.0677 18.878 56.3873 18.8803 56.7047 18.885C57.0267 18.885 57.295 18.8873 57.5097 18.892C58.737 18.92 59.738 19.1393 60.5127 19.55C61.2873 19.9607 61.8543 20.5347 62.2137 21.272C62.5777 22.0093 62.7597 22.882 62.7597 23.89C62.7597 24.94 62.5683 25.8477 62.1857 26.613C61.803 27.3737 61.2173 27.9617 60.4287 28.377C59.6447 28.7923 58.6483 29 57.4397 29H54.4857ZM56.5437 27.348H57.4817C58.0603 27.348 58.5853 27.236 59.0567 27.012C59.5327 26.788 59.913 26.4217 60.1977 25.913C60.4823 25.4043 60.6247 24.7253 60.6247 23.876C60.6247 23.0873 60.4987 22.448 60.2467 21.958C59.9947 21.4633 59.6353 21.1017 59.1687 20.873C58.702 20.6443 58.149 20.53 57.5097 20.53H56.5437V27.348ZM68.056 29V18.878H71.024L73.341 26.095L75.679 18.878H78.64V29H76.575V21.258L74.139 29H72.536L70.114 21.293V29H68.056ZM85.2826 29.14C84.3259 29.14 83.4976 28.9323 82.7976 28.517C82.1023 28.097 81.5633 27.502 81.1806 26.732C80.8026 25.9573 80.6136 25.0333 80.6136 23.96C80.6136 22.882 80.8049 21.9533 81.1876 21.174C81.5749 20.3947 82.1186 19.795 82.8186 19.375C83.5186 18.9503 84.3399 18.738 85.2826 18.738C86.2206 18.738 87.0373 18.948 87.7326 19.368C88.4279 19.788 88.9646 20.3877 89.3426 21.167C89.7253 21.9463 89.9166 22.8773 89.9166 23.96C89.9166 25.0287 89.7276 25.9503 89.3496 26.725C88.9763 27.4997 88.4419 28.097 87.7466 28.517C87.0513 28.9323 86.2299 29.14 85.2826 29.14ZM85.2826 27.46C85.7773 27.46 86.2043 27.3433 86.5636 27.11C86.9276 26.872 87.2076 26.4987 87.4036 25.99C87.5996 25.4767 87.6976 24.8093 87.6976 23.988C87.6976 23.1433 87.5973 22.4597 87.3966 21.937C87.2006 21.4143 86.9206 21.0317 86.5566 20.789C86.1973 20.5417 85.7726 20.418 85.2826 20.418C84.7926 20.418 84.3656 20.5417 84.0016 20.789C83.6376 21.0317 83.3553 21.4167 83.1546 21.944C82.9539 22.4667 82.8536 23.148 82.8536 23.988C82.8536 24.814 82.9539 25.4813 83.1546 25.99C83.3553 26.4987 83.6376 26.872 84.0016 27.11C84.3656 27.3433 84.7926 27.46 85.2826 27.46ZM91.894 29V18.878H96.164C96.9713 18.878 97.6317 19.0063 98.145 19.263C98.6583 19.5197 99.0363 19.8767 99.279 20.334C99.5217 20.7867 99.643 21.3093 99.643 21.902C99.643 22.434 99.559 22.8843 99.391 23.253C99.2277 23.617 99.0107 23.9203 98.74 24.163C98.474 24.4057 98.1823 24.604 97.865 24.758L99.748 29H97.627L95.982 25.101H93.931V29H91.894ZM93.931 23.526H95.8C96.346 23.526 96.7777 23.379 97.095 23.085C97.417 22.791 97.578 22.413 97.578 21.951C97.578 21.4843 97.424 21.1157 97.116 20.845C96.808 20.5743 96.4183 20.439 95.947 20.439H93.931V23.526ZM101.81 29V18.878H108.761L108.754 20.6H103.861V23.057H108.11V24.744H103.847V27.257L108.831 27.264V29H101.81Z" fill="#FA8232"/>
<path d="M121.125 24H134.875" stroke="#FA8232" stroke-width="1.5" stroke-linecap="round" stroke-linejoin="round"/>
<path d="M129.25 18.375L134.875 24L129.25 29.625" stroke="#FA8232" stroke-width="1.5" stroke-linecap="round" stroke-linejoin="round"/>
</svg>
