<svg width="154" height="32" viewBox="0 0 154 32" fill="none" xmlns="http://www.w3.org/2000/svg">
<rect width="154" height="32" fill="white"/>
<path d="M1.225 21V10.878H4.704C5.98733 10.878 6.94633 11.1067 7.581 11.564C8.22033 12.0167 8.54 12.67 8.54 13.524C8.54 14.042 8.407 14.49 8.141 14.868C7.875 15.246 7.406 15.5657 6.734 15.827C7.14467 15.925 7.483 16.0603 7.749 16.233C8.01967 16.401 8.22967 16.5947 8.379 16.814C8.52833 17.0287 8.63333 17.2597 8.694 17.507C8.75467 17.7543 8.785 18.0087 8.785 18.27C8.785 19.194 8.463 19.88 7.819 20.328C7.17967 20.776 6.188 21 4.844 21H1.225ZM2.926 19.642H4.865C5.58367 19.642 6.12733 19.5137 6.496 19.257C6.86933 18.9957 7.056 18.62 7.056 18.13C7.056 17.7753 6.965 17.4837 6.783 17.255C6.601 17.0217 6.35367 16.849 6.041 16.737C5.72833 16.625 5.37833 16.569 4.991 16.569H2.926V19.642ZM2.926 15.19H4.991C5.229 15.19 5.46 15.1643 5.684 15.113C5.908 15.0617 6.111 14.98 6.293 14.868C6.475 14.756 6.61967 14.6067 6.727 14.42C6.839 14.2333 6.895 14.007 6.895 13.741C6.895 13.2323 6.70133 12.8543 6.314 12.607C5.93133 12.355 5.439 12.229 4.837 12.229H2.926V15.19ZM10.4543 21V13.762H12.0853V15.33C12.2019 14.9707 12.3676 14.665 12.5823 14.413C12.8016 14.1563 13.0583 13.9603 13.3523 13.825C13.6463 13.6897 13.9659 13.622 14.3113 13.622C14.3953 13.622 14.4769 13.6267 14.5563 13.636C14.6356 13.6453 14.6939 13.6617 14.7313 13.685V15.316C14.6799 15.2927 14.6123 15.2763 14.5283 15.267C14.4489 15.2577 14.3789 15.253 14.3183 15.253C13.9683 15.225 13.6579 15.239 13.3873 15.295C13.1213 15.351 12.8949 15.4467 12.7083 15.582C12.5263 15.7127 12.3886 15.8807 12.2953 16.086C12.2019 16.2867 12.1553 16.5223 12.1553 16.793V21H10.4543ZM18.9534 21.14C18.2627 21.14 17.6607 20.993 17.1474 20.699C16.634 20.4003 16.235 19.9733 15.9504 19.418C15.6704 18.8627 15.5304 18.1953 15.5304 17.416C15.5304 16.66 15.6657 15.9973 15.9364 15.428C16.2117 14.8587 16.606 14.4153 17.1194 14.098C17.6327 13.7807 18.2464 13.622 18.9604 13.622C19.651 13.622 20.2507 13.7737 20.7594 14.077C21.268 14.3803 21.66 14.8143 21.9354 15.379C22.2154 15.9437 22.3554 16.6227 22.3554 17.416C22.3554 18.1487 22.2224 18.795 21.9564 19.355C21.695 19.9103 21.31 20.3467 20.8014 20.664C20.2974 20.9813 19.6814 21.14 18.9534 21.14ZM18.9604 19.845C19.3524 19.845 19.6744 19.7377 19.9264 19.523C20.183 19.3083 20.372 19.0143 20.4934 18.641C20.6194 18.2677 20.6824 17.843 20.6824 17.367C20.6824 16.9237 20.6264 16.5153 20.5144 16.142C20.407 15.7687 20.225 15.47 19.9684 15.246C19.7164 15.0173 19.3804 14.903 18.9604 14.903C18.5637 14.903 18.2347 15.008 17.9734 15.218C17.7167 15.4233 17.523 15.7127 17.3924 16.086C17.2664 16.4547 17.2034 16.8817 17.2034 17.367C17.2034 17.8057 17.2594 18.214 17.3714 18.592C17.488 18.9653 17.6747 19.2687 17.9314 19.502C18.188 19.7307 18.531 19.845 18.9604 19.845ZM33.365 13.762L31.069 21H29.599L28.115 16.177L26.666 21H25.231L22.935 13.762H24.468L25.98 18.739H26.057L27.52 13.762H28.766L30.271 18.732H30.348L31.804 13.762H33.365ZM37.1851 21.14C36.6811 21.14 36.2028 21.0607 35.7501 20.902C35.3021 20.7387 34.9241 20.4843 34.6161 20.139C34.3128 19.7937 34.1214 19.348 34.0421 18.802H35.5401C35.6054 19.068 35.7198 19.285 35.8831 19.453C36.0511 19.621 36.2494 19.7447 36.4781 19.824C36.7068 19.8987 36.9401 19.936 37.1781 19.936C37.6121 19.936 37.9621 19.8613 38.2281 19.712C38.4988 19.5627 38.6341 19.3317 38.6341 19.019C38.6341 18.7903 38.5594 18.6083 38.4101 18.473C38.2608 18.3377 38.0228 18.235 37.6961 18.165L36.3171 17.85C35.7058 17.7147 35.2134 17.4907 34.8401 17.178C34.4714 16.8653 34.2848 16.4243 34.2801 15.855C34.2754 15.4257 34.3828 15.043 34.6021 14.707C34.8214 14.371 35.1481 14.1073 35.5821 13.916C36.0161 13.72 36.5528 13.622 37.1921 13.622C38.0368 13.622 38.7134 13.811 39.2221 14.189C39.7308 14.5623 39.9921 15.0967 40.0061 15.792H38.5571C38.5058 15.4793 38.3588 15.2367 38.1161 15.064C37.8734 14.8867 37.5584 14.798 37.1711 14.798C36.7698 14.798 36.4408 14.875 36.1841 15.029C35.9274 15.183 35.7991 15.4187 35.7991 15.736C35.7991 15.9553 35.8971 16.128 36.0931 16.254C36.2891 16.38 36.5831 16.4873 36.9751 16.576L38.2771 16.891C38.6504 16.9843 38.9561 17.1103 39.1941 17.269C39.4321 17.4277 39.6188 17.6027 39.7541 17.794C39.8894 17.9807 39.9828 18.1743 40.0341 18.375C40.0901 18.571 40.1181 18.753 40.1181 18.921C40.1181 19.3877 39.9968 19.7867 39.7541 20.118C39.5161 20.4447 39.1778 20.6967 38.7391 20.874C38.3004 21.0513 37.7824 21.14 37.1851 21.14ZM43.0589 17.773C43.0542 18.1837 43.1195 18.5477 43.2549 18.865C43.3902 19.1823 43.5909 19.432 43.8569 19.614C44.1229 19.7913 44.4519 19.88 44.8439 19.88C45.2452 19.88 45.5929 19.7913 45.8869 19.614C46.1855 19.432 46.3839 19.1567 46.4819 18.788H48.0429C47.9589 19.292 47.7582 19.719 47.4409 20.069C47.1235 20.419 46.7385 20.685 46.2859 20.867C45.8379 21.049 45.3712 21.14 44.8859 21.14C44.1859 21.14 43.5699 20.993 43.0379 20.699C42.5105 20.4003 42.0975 19.9757 41.7989 19.425C41.5049 18.8743 41.3579 18.2187 41.3579 17.458C41.3579 16.716 41.4932 16.058 41.7639 15.484C42.0345 14.9053 42.4242 14.4503 42.9329 14.119C43.4462 13.7877 44.0622 13.622 44.7809 13.622C45.4949 13.622 46.0945 13.7737 46.5799 14.077C47.0699 14.3803 47.4385 14.805 47.6859 15.351C47.9379 15.8923 48.0639 16.527 48.0639 17.255V17.773H43.0589ZM43.0589 16.716H46.4539C46.4539 16.366 46.3932 16.051 46.2719 15.771C46.1505 15.4863 45.9639 15.2623 45.7119 15.099C45.4645 14.931 45.1519 14.847 44.7739 14.847C44.4005 14.847 44.0855 14.938 43.8289 15.12C43.5722 15.302 43.3785 15.5377 43.2479 15.827C43.1172 16.1117 43.0542 16.408 43.0589 16.716ZM52.183 21L55.823 10.878H57.664L61.297 21H59.589L58.686 18.459H54.822L53.898 21H52.183ZM55.214 16.947H58.266L56.747 12.537L55.214 16.947ZM64.8215 21.105C64.3549 21.105 63.9815 21.0467 63.7015 20.93C63.4215 20.8133 63.2115 20.657 63.0715 20.461C62.9315 20.265 62.8405 20.0457 62.7985 19.803C62.7565 19.5557 62.7355 19.3037 62.7355 19.047V10.598H64.4015V18.851C64.4015 19.1637 64.4645 19.4063 64.5905 19.579C64.7212 19.7517 64.9312 19.852 65.2205 19.88L65.5845 19.894V20.965C65.4585 21.0023 65.3302 21.035 65.1995 21.063C65.0689 21.091 64.9429 21.105 64.8215 21.105ZM68.9915 21.105C68.5248 21.105 68.1515 21.0467 67.8715 20.93C67.5915 20.8133 67.3815 20.657 67.2415 20.461C67.1015 20.265 67.0105 20.0457 66.9685 19.803C66.9265 19.5557 66.9055 19.3037 66.9055 19.047V10.598H68.5715V18.851C68.5715 19.1637 68.6345 19.4063 68.7605 19.579C68.8911 19.7517 69.1011 19.852 69.3905 19.88L69.7545 19.894V20.965C69.6285 21.0023 69.5001 21.035 69.3695 21.063C69.2388 21.091 69.1128 21.105 68.9915 21.105ZM74.6293 21V10.878H78.2203C78.9483 10.878 79.5993 11.004 80.1733 11.256C80.752 11.5033 81.207 11.8697 81.5383 12.355C81.8696 12.8403 82.0353 13.4377 82.0353 14.147C82.0353 14.8143 81.8836 15.386 81.5803 15.862C81.2816 16.338 80.864 16.702 80.3273 16.954C79.7906 17.206 79.163 17.332 78.4443 17.332H76.3583V21H74.6293ZM76.3443 15.967H78.4023C78.995 15.967 79.478 15.7897 79.8513 15.435C80.2293 15.0803 80.4183 14.6183 80.4183 14.049C80.4183 13.4703 80.2223 13.0223 79.8303 12.705C79.4383 12.383 78.946 12.222 78.3533 12.222H76.3443V15.967ZM83.3937 21V13.762H85.0247V15.33C85.1414 14.9707 85.3071 14.665 85.5217 14.413C85.7411 14.1563 85.9977 13.9603 86.2917 13.825C86.5857 13.6897 86.9054 13.622 87.2507 13.622C87.3347 13.622 87.4164 13.6267 87.4957 13.636C87.5751 13.6453 87.6334 13.6617 87.6707 13.685V15.316C87.6194 15.2927 87.5517 15.2763 87.4677 15.267C87.3884 15.2577 87.3184 15.253 87.2577 15.253C86.9077 15.225 86.5974 15.239 86.3267 15.295C86.0607 15.351 85.8344 15.4467 85.6477 15.582C85.4657 15.7127 85.3281 15.8807 85.2347 16.086C85.1414 16.2867 85.0947 16.5223 85.0947 16.793V21H83.3937ZM91.8928 21.14C91.2022 21.14 90.6002 20.993 90.0868 20.699C89.5735 20.4003 89.1745 19.9733 88.8898 19.418C88.6098 18.8627 88.4698 18.1953 88.4698 17.416C88.4698 16.66 88.6052 15.9973 88.8758 15.428C89.1512 14.8587 89.5455 14.4153 90.0588 14.098C90.5722 13.7807 91.1858 13.622 91.8998 13.622C92.5905 13.622 93.1902 13.7737 93.6988 14.077C94.2075 14.3803 94.5995 14.8143 94.8748 15.379C95.1548 15.9437 95.2948 16.6227 95.2948 17.416C95.2948 18.1487 95.1618 18.795 94.8958 19.355C94.6345 19.9103 94.2495 20.3467 93.7408 20.664C93.2368 20.9813 92.6208 21.14 91.8928 21.14ZM91.8998 19.845C92.2918 19.845 92.6138 19.7377 92.8658 19.523C93.1225 19.3083 93.3115 19.0143 93.4328 18.641C93.5588 18.2677 93.6218 17.843 93.6218 17.367C93.6218 16.9237 93.5658 16.5153 93.4538 16.142C93.3465 15.7687 93.1645 15.47 92.9078 15.246C92.6558 15.0173 92.3198 14.903 91.8998 14.903C91.5032 14.903 91.1742 15.008 90.9128 15.218C90.6562 15.4233 90.4625 15.7127 90.3318 16.086C90.2058 16.4547 90.1428 16.8817 90.1428 17.367C90.1428 17.8057 90.1988 18.214 90.3108 18.592C90.4275 18.9653 90.6142 19.2687 90.8708 19.502C91.1275 19.7307 91.4705 19.845 91.8998 19.845ZM99.4588 21.14C98.5022 21.14 97.7508 20.811 97.2048 20.153C96.6588 19.495 96.3858 18.5593 96.3858 17.346C96.3858 16.59 96.4955 15.9343 96.7148 15.379C96.9388 14.819 97.2655 14.3873 97.6948 14.084C98.1288 13.776 98.6655 13.622 99.3048 13.622C99.6035 13.622 99.8742 13.6593 100.117 13.734C100.364 13.804 100.584 13.8973 100.775 14.014C100.966 14.1307 101.127 14.259 101.258 14.399C101.393 14.539 101.498 14.679 101.573 14.819V10.598H103.281V21H102.021L101.832 19.516C101.776 19.6887 101.692 19.8707 101.58 20.062C101.473 20.2487 101.326 20.4237 101.139 20.587C100.957 20.7503 100.728 20.8833 100.453 20.986C100.178 21.0887 99.8462 21.14 99.4588 21.14ZM99.8088 19.887C100.42 19.887 100.866 19.6887 101.146 19.292C101.431 18.8907 101.573 18.228 101.573 17.304C101.568 16.7767 101.503 16.3333 101.377 15.974C101.256 15.6147 101.067 15.344 100.81 15.162C100.558 14.98 100.231 14.889 99.8298 14.889C99.3165 14.889 98.8942 15.078 98.5628 15.456C98.2315 15.834 98.0658 16.45 98.0658 17.304C98.0658 18.1533 98.2175 18.7973 98.5208 19.236C98.8242 19.67 99.2535 19.887 99.8088 19.887ZM107.874 21.14C107.519 21.14 107.176 21.0887 106.845 20.986C106.518 20.8787 106.224 20.7247 105.963 20.524C105.702 20.3187 105.494 20.0667 105.34 19.768C105.186 19.4693 105.109 19.1217 105.109 18.725V13.762H106.817V18.529C106.817 18.921 106.941 19.243 107.188 19.495C107.44 19.747 107.818 19.873 108.322 19.873C108.779 19.873 109.146 19.754 109.421 19.516C109.696 19.2733 109.834 18.9257 109.834 18.473V13.762H111.528V21H110.219L110.03 19.586C109.941 19.9827 109.785 20.2953 109.561 20.524C109.342 20.748 109.083 20.9067 108.784 21C108.49 21.0933 108.187 21.14 107.874 21.14ZM116.352 13.622C116.916 13.622 117.413 13.734 117.843 13.958C118.272 14.182 118.615 14.4923 118.872 14.889C119.133 15.2857 119.289 15.736 119.341 16.24H117.885C117.852 16.0207 117.773 15.813 117.647 15.617C117.521 15.4163 117.35 15.2553 117.136 15.134C116.921 15.008 116.662 14.945 116.359 14.945C115.817 14.945 115.376 15.1457 115.036 15.547C114.7 15.9483 114.532 16.5643 114.532 17.395C114.532 18.1603 114.693 18.7693 115.015 19.222C115.337 19.6747 115.796 19.901 116.394 19.901C116.692 19.901 116.947 19.8357 117.157 19.705C117.371 19.5697 117.539 19.404 117.661 19.208C117.787 19.0073 117.868 18.8067 117.906 18.606H119.32C119.278 19.096 119.124 19.5323 118.858 19.915C118.596 20.2977 118.251 20.5987 117.822 20.818C117.397 21.0327 116.907 21.14 116.352 21.14C115.689 21.14 115.099 20.9953 114.581 20.706C114.067 20.412 113.664 19.9873 113.37 19.432C113.076 18.872 112.929 18.1977 112.929 17.409C112.929 16.6577 113.066 15.9997 113.342 15.435C113.617 14.8657 114.011 14.4223 114.525 14.105C115.038 13.783 115.647 13.622 116.352 13.622ZM124.752 14.966H123.135L123.142 19.117C123.142 19.3317 123.165 19.4903 123.212 19.593C123.263 19.691 123.343 19.7563 123.45 19.789C123.562 19.817 123.711 19.831 123.898 19.831H124.787V20.909C124.694 20.9463 124.551 20.979 124.36 21.007C124.173 21.0397 123.921 21.056 123.604 21.056C123.03 21.056 122.584 20.9813 122.267 20.832C121.954 20.678 121.737 20.461 121.616 20.181C121.495 19.901 121.434 19.5673 121.434 19.18V14.966H120.258V13.762H121.483L121.91 11.613H123.135V13.755H124.752V14.966Z" fill="#2DA5F3"/>
<path d="M137.125 16H150.875" stroke="#2DA5F3" stroke-width="1.5" stroke-linecap="round" stroke-linejoin="round"/>
<path d="M145.25 10.375L150.875 16L145.25 21.625" stroke="#2DA5F3" stroke-width="1.5" stroke-linecap="round" stroke-linejoin="round"/>
</svg>
