<svg width="175" height="48" viewBox="0 0 175 48" fill="none" xmlns="http://www.w3.org/2000/svg">
<rect x="0.5" width="174" height="48" rx="2" fill="#FA8232"/>
<path d="M31.25 30.875C31.25 31.1511 31.0261 31.375 30.75 31.375C30.4739 31.375 30.25 31.1511 30.25 30.875C30.25 30.5989 30.4739 30.375 30.75 30.375C31.0261 30.375 31.25 30.5989 31.25 30.875Z" fill="white" stroke="white" stroke-width="1.5"/>
<path d="M38.875 32.125C39.5654 32.125 40.125 31.5654 40.125 30.875C40.125 30.1846 39.5654 29.625 38.875 29.625C38.1846 29.625 37.625 30.1846 37.625 30.875C37.625 31.5654 38.1846 32.125 38.875 32.125Z" fill="white"/>
<path d="M27.8047 19.625H41.8203L39.7578 26.8437C39.6842 27.1057 39.5266 27.3363 39.3093 27.5C39.0919 27.6638 38.8268 27.7516 38.5547 27.75H31.0703C30.7982 27.7516 30.5331 27.6638 30.3157 27.5C30.0984 27.3363 29.9408 27.1057 29.8672 26.8437L27.0391 16.9531C27.0017 16.8225 26.9227 16.7075 26.8142 16.6258C26.7056 16.544 26.5734 16.4999 26.4375 16.5H25.125" stroke="white" stroke-width="1.5" stroke-linecap="round" stroke-linejoin="round"/>
<path d="M52.885 29L56.511 18.878H58.667L62.286 29H60.249L59.423 26.655H55.783L54.936 29H52.885ZM56.238 24.87H58.933L57.596 20.852L56.238 24.87ZM63.9739 18.878C64.0252 18.878 64.1675 18.878 64.4009 18.878C64.6389 18.878 64.9165 18.878 65.2339 18.878C65.5559 18.878 65.8755 18.8803 66.1929 18.885C66.5149 18.885 66.7832 18.8873 66.9979 18.892C68.2252 18.92 69.2262 19.1393 70.0009 19.55C70.7755 19.9607 71.3425 20.5347 71.7019 21.272C72.0659 22.0093 72.2479 22.882 72.2479 23.89C72.2479 24.94 72.0565 25.8477 71.6739 26.613C71.2912 27.3737 70.7055 27.9617 69.9169 28.377C69.1329 28.7923 68.1365 29 66.9279 29H63.9739V18.878ZM66.0319 20.53V27.348H66.9699C67.5485 27.348 68.0735 27.236 68.5449 27.012C69.0209 26.788 69.4012 26.4217 69.6859 25.913C69.9705 25.4043 70.1129 24.7253 70.1129 23.876C70.1129 23.0873 69.9869 22.448 69.7349 21.958C69.4829 21.4633 69.1235 21.1017 68.6569 20.873C68.1902 20.6443 67.6372 20.53 66.9979 20.53H66.0319ZM74.218 18.878C74.2694 18.878 74.4117 18.878 74.645 18.878C74.883 18.878 75.1607 18.878 75.478 18.878C75.8 18.878 76.1197 18.8803 76.437 18.885C76.759 18.885 77.0274 18.8873 77.242 18.892C78.4694 18.92 79.4704 19.1393 80.245 19.55C81.0197 19.9607 81.5867 20.5347 81.946 21.272C82.31 22.0093 82.492 22.882 82.492 23.89C82.492 24.94 82.3007 25.8477 81.918 26.613C81.5354 27.3737 80.9497 27.9617 80.161 28.377C79.377 28.7923 78.3807 29 77.172 29H74.218V18.878ZM76.276 20.53V27.348H77.214C77.7927 27.348 78.3177 27.236 78.789 27.012C79.265 26.788 79.6454 26.4217 79.93 25.913C80.2147 25.4043 80.357 24.7253 80.357 23.876C80.357 23.0873 80.231 22.448 79.979 21.958C79.727 21.4633 79.3677 21.1017 78.901 20.873C78.4344 20.6443 77.8814 20.53 77.242 20.53H76.276ZM86.729 20.698V18.878H94.828V20.698H91.839V29H89.788V20.698H86.729ZM100.558 29.14C99.6013 29.14 98.773 28.9323 98.073 28.517C97.3776 28.097 96.8386 27.502 96.456 26.732C96.078 25.9573 95.889 25.0333 95.889 23.96C95.889 22.882 96.0803 21.9533 96.463 21.174C96.8503 20.3947 97.394 19.795 98.094 19.375C98.794 18.9503 99.6153 18.738 100.558 18.738C101.496 18.738 102.313 18.948 103.008 19.368C103.703 19.788 104.24 20.3877 104.618 21.167C105.001 21.9463 105.192 22.8773 105.192 23.96C105.192 25.0287 105.003 25.9503 104.625 26.725C104.252 27.4997 103.717 28.097 103.022 28.517C102.327 28.9323 101.505 29.14 100.558 29.14ZM100.558 27.46C101.053 27.46 101.48 27.3433 101.839 27.11C102.203 26.872 102.483 26.4987 102.679 25.99C102.875 25.4767 102.973 24.8093 102.973 23.988C102.973 23.1433 102.873 22.4597 102.672 21.937C102.476 21.4143 102.196 21.0317 101.832 20.789C101.473 20.5417 101.048 20.418 100.558 20.418C100.068 20.418 99.641 20.5417 99.277 20.789C98.913 21.0317 98.6306 21.4167 98.43 21.944C98.2293 22.4667 98.129 23.148 98.129 23.988C98.129 24.814 98.2293 25.4813 98.43 25.99C98.6306 26.4987 98.913 26.872 99.277 27.11C99.641 27.3433 100.068 27.46 100.558 27.46ZM114.427 18.738C115.188 18.738 115.864 18.892 116.457 19.2C117.054 19.5033 117.535 19.9187 117.899 20.446C118.268 20.9733 118.485 21.5683 118.55 22.231H116.408C116.343 21.881 116.224 21.5707 116.051 21.3C115.878 21.0247 115.652 20.81 115.372 20.656C115.092 20.4973 114.756 20.418 114.364 20.418C113.893 20.418 113.487 20.5323 113.146 20.761C112.805 20.9897 112.544 21.3583 112.362 21.867C112.18 22.3757 112.089 23.0477 112.089 23.883C112.089 25.143 112.29 26.0553 112.691 26.62C113.097 27.18 113.655 27.46 114.364 27.46C114.756 27.46 115.092 27.3713 115.372 27.194C115.652 27.012 115.878 26.774 116.051 26.48C116.224 26.1813 116.343 25.8547 116.408 25.5H118.55C118.489 25.9807 118.373 26.4403 118.2 26.879C118.027 27.313 117.782 27.7003 117.465 28.041C117.148 28.3817 116.739 28.65 116.24 28.846C115.741 29.042 115.136 29.14 114.427 29.14C113.484 29.14 112.67 28.9207 111.984 28.482C111.298 28.0433 110.768 27.4273 110.395 26.634C110.026 25.8407 109.842 24.9143 109.842 23.855C109.842 22.791 110.026 21.8787 110.395 21.118C110.764 20.3527 111.291 19.7647 111.977 19.354C112.663 18.9433 113.48 18.738 114.427 18.738ZM119.458 29L123.084 18.878H125.24L128.859 29H126.822L125.996 26.655H122.356L121.509 29H119.458ZM122.811 24.87H125.506L124.169 20.852L122.811 24.87ZM138.4 29H136.279L134.634 25.101H132.583V29H130.546V18.878H134.816C135.624 18.878 136.284 19.0063 136.797 19.263C137.311 19.5197 137.689 19.8767 137.931 20.334C138.174 20.7867 138.295 21.3093 138.295 21.902C138.295 22.434 138.211 22.8843 138.043 23.253C137.88 23.617 137.663 23.9203 137.392 24.163C137.126 24.4057 136.835 24.604 136.517 24.758L138.4 29ZM134.452 23.526C134.998 23.526 135.43 23.379 135.747 23.085C136.069 22.791 136.23 22.413 136.23 21.951C136.23 21.4843 136.076 21.1157 135.768 20.845C135.46 20.5743 135.071 20.439 134.599 20.439H132.583V23.526H134.452ZM140.462 18.878C140.514 18.878 140.656 18.878 140.889 18.878C141.127 18.878 141.405 18.878 141.722 18.878C142.044 18.878 142.364 18.8803 142.681 18.885C143.003 18.885 143.272 18.8873 143.486 18.892C144.714 18.92 145.715 19.1393 146.489 19.55C147.264 19.9607 147.831 20.5347 148.19 21.272C148.554 22.0093 148.736 22.882 148.736 23.89C148.736 24.94 148.545 25.8477 148.162 26.613C147.78 27.3737 147.194 27.9617 146.405 28.377C145.621 28.7923 144.625 29 143.416 29H140.462V18.878ZM142.52 20.53V27.348H143.458C144.037 27.348 144.562 27.236 145.033 27.012C145.509 26.788 145.89 26.4217 146.174 25.913C146.459 25.4043 146.601 24.7253 146.601 23.876C146.601 23.0873 146.475 22.448 146.223 21.958C145.971 21.4633 145.612 21.1017 145.145 20.873C144.679 20.6443 144.126 20.53 143.486 20.53H142.52Z" fill="white"/>
</svg>
