<svg width="154" height="32" viewBox="0 0 154 32" fill="none" xmlns="http://www.w3.org/2000/svg">
<rect width="154" height="32" fill="#191C1F"/>
<path d="M1.281 21V10.878H4.648C5.90333 10.878 6.84833 11.1043 7.483 11.557C8.12233 12.0097 8.442 12.663 8.442 13.517C8.442 14.0443 8.30433 14.4993 8.029 14.882C7.75833 15.26 7.28233 15.5773 6.601 15.834C7.00233 15.9227 7.33833 16.051 7.609 16.219C7.87967 16.3823 8.092 16.5713 8.246 16.786C8.40467 17.0007 8.51667 17.234 8.582 17.486C8.652 17.738 8.687 17.9993 8.687 18.27C8.687 19.1893 8.36267 19.8753 7.714 20.328C7.07 20.776 6.08767 21 4.767 21H1.281ZM2.779 19.782H4.774C5.558 19.782 6.153 19.649 6.559 19.383C6.965 19.1123 7.168 18.7087 7.168 18.172C7.168 17.7847 7.06767 17.4673 6.867 17.22C6.66633 16.9727 6.39567 16.7907 6.055 16.674C5.71433 16.5573 5.334 16.499 4.914 16.499H2.779V19.782ZM2.779 15.26H4.914C5.166 15.26 5.41333 15.2343 5.656 15.183C5.89867 15.1317 6.12033 15.0477 6.321 14.931C6.52167 14.8097 6.68267 14.6487 6.804 14.448C6.92533 14.2473 6.986 14.0023 6.986 13.713C6.986 13.1623 6.77833 12.754 6.363 12.488C5.94767 12.222 5.40867 12.089 4.746 12.089H2.779V15.26ZM10.4486 21V13.762H11.8836V15.246C12.0049 14.8913 12.1729 14.595 12.3876 14.357C12.6069 14.1143 12.8613 13.9323 13.1506 13.811C13.4399 13.685 13.7456 13.622 14.0676 13.622C14.1656 13.622 14.2589 13.629 14.3476 13.643C14.4363 13.6523 14.5063 13.671 14.5576 13.699V15.141C14.4969 15.113 14.4176 15.0943 14.3196 15.085C14.2263 15.0757 14.1446 15.0687 14.0746 15.064C13.7573 15.0407 13.4679 15.057 13.2066 15.113C12.9453 15.169 12.7189 15.2623 12.5276 15.393C12.3409 15.5237 12.1963 15.694 12.0936 15.904C11.9956 16.114 11.9466 16.3613 11.9466 16.646V21H10.4486ZM18.8853 21.14C18.2087 21.14 17.6183 20.9953 17.1143 20.706C16.6103 20.412 16.2183 19.9873 15.9383 19.432C15.6583 18.8767 15.5183 18.2047 15.5183 17.416C15.5183 16.6553 15.6513 15.9903 15.9173 15.421C16.1833 14.8517 16.566 14.4107 17.0653 14.098C17.5693 13.7807 18.1783 13.622 18.8923 13.622C19.5737 13.622 20.164 13.7713 20.6633 14.07C21.1627 14.364 21.55 14.7957 21.8253 15.365C22.1007 15.9297 22.2383 16.6133 22.2383 17.416C22.2383 18.1487 22.11 18.795 21.8533 19.355C21.5967 19.915 21.2187 20.3537 20.7193 20.671C20.2247 20.9837 19.6133 21.14 18.8853 21.14ZM18.8923 19.985C19.3077 19.985 19.653 19.8777 19.9283 19.663C20.2037 19.4437 20.4113 19.138 20.5513 18.746C20.6913 18.3493 20.7613 17.892 20.7613 17.374C20.7613 16.8933 20.6983 16.457 20.5723 16.065C20.451 15.6683 20.2527 15.3533 19.9773 15.12C19.7067 14.8867 19.345 14.77 18.8923 14.77C18.477 14.77 18.127 14.8773 17.8423 15.092C17.5623 15.302 17.3523 15.603 17.2123 15.995C17.0723 16.3823 17.0023 16.842 17.0023 17.374C17.0023 17.8453 17.0653 18.2793 17.1913 18.676C17.3173 19.0727 17.518 19.39 17.7933 19.628C18.0733 19.866 18.4397 19.985 18.8923 19.985ZM25.3263 21L23.0583 13.762H24.4233L26.0053 19.033H26.1033L27.6503 13.762H28.7633L30.3593 19.019H30.4573L31.9833 13.762H33.3693L31.1223 21H29.7503L28.1823 15.918L26.6773 21H25.3263ZM37.2334 21.14C36.7294 21.14 36.2558 21.0607 35.8124 20.902C35.3738 20.7433 35.0051 20.4937 34.7064 20.153C34.4124 19.8123 34.2281 19.376 34.1534 18.844H35.4904C35.5511 19.1193 35.6654 19.348 35.8334 19.53C36.0061 19.7073 36.2114 19.8403 36.4494 19.929C36.6921 20.013 36.9511 20.055 37.2264 20.055C37.6838 20.055 38.0548 19.9733 38.3394 19.81C38.6241 19.642 38.7664 19.3853 38.7664 19.04C38.7664 18.7927 38.6894 18.5943 38.5354 18.445C38.3814 18.2957 38.1411 18.186 37.8144 18.116L36.3724 17.773C35.7751 17.633 35.2968 17.4113 34.9374 17.108C34.5781 16.8 34.3961 16.3707 34.3914 15.82C34.3914 15.3953 34.4964 15.0173 34.7064 14.686C34.9211 14.3547 35.2384 14.0957 35.6584 13.909C36.0831 13.7177 36.6058 13.622 37.2264 13.622C38.0431 13.622 38.6988 13.804 39.1934 14.168C39.6928 14.532 39.9494 15.0593 39.9634 15.75H38.6684C38.6218 15.4187 38.4701 15.1597 38.2134 14.973C37.9614 14.7817 37.6278 14.686 37.2124 14.686C36.7831 14.686 36.4308 14.7723 36.1554 14.945C35.8801 15.113 35.7424 15.372 35.7424 15.722C35.7424 15.96 35.8428 16.149 36.0434 16.289C36.2488 16.4243 36.5498 16.5363 36.9464 16.625L38.3184 16.968C38.6731 17.0613 38.9648 17.185 39.1934 17.339C39.4221 17.4883 39.6018 17.654 39.7324 17.836C39.8631 18.018 39.9541 18.207 40.0054 18.403C40.0614 18.599 40.0894 18.7833 40.0894 18.956C40.0894 19.4133 39.9728 19.8053 39.7394 20.132C39.5108 20.454 39.1841 20.7037 38.7594 20.881C38.3348 21.0537 37.8261 21.14 37.2334 21.14ZM44.8385 21.14C44.1525 21.14 43.5482 20.993 43.0255 20.699C42.5028 20.4003 42.0945 19.9757 41.8005 19.425C41.5112 18.8743 41.3665 18.2187 41.3665 17.458C41.3665 16.7067 41.4995 16.044 41.7655 15.47C42.0315 14.8913 42.4165 14.4387 42.9205 14.112C43.4245 13.7853 44.0312 13.622 44.7405 13.622C45.4358 13.622 46.0238 13.7713 46.5045 14.07C46.9852 14.3687 47.3492 14.7887 47.5965 15.33C47.8438 15.8667 47.9675 16.5013 47.9675 17.234V17.731H42.8715C42.8668 18.165 42.9368 18.5547 43.0815 18.9C43.2262 19.2407 43.4408 19.5113 43.7255 19.712C44.0148 19.908 44.3742 20.006 44.8035 20.006C45.2375 20.006 45.6108 19.908 45.9235 19.712C46.2408 19.516 46.4485 19.2243 46.5465 18.837H47.9325C47.8485 19.3317 47.6502 19.7517 47.3375 20.097C47.0248 20.4423 46.6492 20.7037 46.2105 20.881C45.7718 21.0537 45.3145 21.14 44.8385 21.14ZM42.8715 16.758H46.5395C46.5395 16.38 46.4742 16.037 46.3435 15.729C46.2128 15.4163 46.0122 15.1713 45.7415 14.994C45.4755 14.812 45.1395 14.721 44.7335 14.721C44.3182 14.721 43.9728 14.8213 43.6975 15.022C43.4222 15.2227 43.2145 15.4793 43.0745 15.792C42.9392 16.1047 42.8715 16.4267 42.8715 16.758ZM52.4371 21L56.0911 10.878H57.7431L61.3901 21H59.8781L58.9261 18.347H54.9151L53.9561 21H52.4371ZM55.2861 16.989H58.5341L56.9101 12.334L55.2861 16.989ZM64.8949 21.098C64.4656 21.098 64.1203 21.042 63.8589 20.93C63.6023 20.818 63.4063 20.6687 63.2709 20.482C63.1356 20.2907 63.0446 20.076 62.9979 19.838C62.9559 19.5953 62.9349 19.3457 62.9349 19.089V10.598H64.4119V18.935C64.4119 19.271 64.4773 19.5277 64.6079 19.705C64.7433 19.8823 64.9486 19.9827 65.2239 20.006L65.6019 20.02V20.972C65.4853 21.0093 65.3639 21.0397 65.2379 21.063C65.1166 21.0863 65.0023 21.098 64.8949 21.098ZM69.0238 21.098C68.5945 21.098 68.2492 21.042 67.9878 20.93C67.7312 20.818 67.5352 20.6687 67.3998 20.482C67.2645 20.2907 67.1735 20.076 67.1268 19.838C67.0848 19.5953 67.0638 19.3457 67.0638 19.089V10.598H68.5408V18.935C68.5408 19.271 68.6062 19.5277 68.7368 19.705C68.8722 19.8823 69.0775 19.9827 69.3528 20.006L69.7308 20.02V20.972C69.6142 21.0093 69.4928 21.0397 69.3668 21.063C69.2455 21.0863 69.1312 21.098 69.0238 21.098ZM74.9998 21V10.878H78.5068C79.2301 10.878 79.8764 11.0017 80.4458 11.249C81.0198 11.4963 81.4701 11.8603 81.7968 12.341C82.1281 12.8217 82.2938 13.412 82.2938 14.112C82.2938 14.784 82.1421 15.358 81.8388 15.834C81.5401 16.3053 81.1201 16.667 80.5788 16.919C80.0421 17.1663 79.4191 17.29 78.7098 17.29H76.5258V21H74.9998ZM76.5188 16.065H78.6678C79.3118 16.065 79.8368 15.8807 80.2428 15.512C80.6488 15.1387 80.8518 14.644 80.8518 14.028C80.8518 13.4027 80.6418 12.9243 80.2218 12.593C79.8018 12.257 79.2651 12.089 78.6118 12.089H76.5188V16.065ZM83.7025 21V13.762H85.1375V15.246C85.2588 14.8913 85.4268 14.595 85.6415 14.357C85.8608 14.1143 86.1152 13.9323 86.4045 13.811C86.6938 13.685 86.9995 13.622 87.3215 13.622C87.4195 13.622 87.5128 13.629 87.6015 13.643C87.6902 13.6523 87.7602 13.671 87.8115 13.699V15.141C87.7508 15.113 87.6715 15.0943 87.5735 15.085C87.4802 15.0757 87.3985 15.0687 87.3285 15.064C87.0112 15.0407 86.7218 15.057 86.4605 15.113C86.1992 15.169 85.9728 15.2623 85.7815 15.393C85.5948 15.5237 85.4502 15.694 85.3475 15.904C85.2495 16.114 85.2005 16.3613 85.2005 16.646V21H83.7025ZM92.1393 21.14C91.4626 21.14 90.8723 20.9953 90.3683 20.706C89.8643 20.412 89.4723 19.9873 89.1923 19.432C88.9123 18.8767 88.7723 18.2047 88.7723 17.416C88.7723 16.6553 88.9053 15.9903 89.1713 15.421C89.4373 14.8517 89.8199 14.4107 90.3193 14.098C90.8233 13.7807 91.4323 13.622 92.1463 13.622C92.8276 13.622 93.4179 13.7713 93.9173 14.07C94.4166 14.364 94.8039 14.7957 95.0793 15.365C95.3546 15.9297 95.4923 16.6133 95.4923 17.416C95.4923 18.1487 95.3639 18.795 95.1073 19.355C94.8506 19.915 94.4726 20.3537 93.9733 20.671C93.4786 20.9837 92.8673 21.14 92.1393 21.14ZM92.1463 19.985C92.5616 19.985 92.9069 19.8777 93.1823 19.663C93.4576 19.4437 93.6653 19.138 93.8053 18.746C93.9453 18.3493 94.0153 17.892 94.0153 17.374C94.0153 16.8933 93.9523 16.457 93.8263 16.065C93.7049 15.6683 93.5066 15.3533 93.2313 15.12C92.9606 14.8867 92.5989 14.77 92.1463 14.77C91.7309 14.77 91.3809 14.8773 91.0963 15.092C90.8163 15.302 90.6063 15.603 90.4663 15.995C90.3263 16.3823 90.2563 16.842 90.2563 17.374C90.2563 17.8453 90.3193 18.2793 90.4453 18.676C90.5713 19.0727 90.7719 19.39 91.0473 19.628C91.3273 19.866 91.6936 19.985 92.1463 19.985ZM99.7953 21.14C98.8479 21.14 98.0989 20.8157 97.5483 20.167C97.0023 19.5137 96.7293 18.5733 96.7293 17.346C96.7293 16.5947 96.8389 15.9413 97.0583 15.386C97.2823 14.826 97.6113 14.392 98.0453 14.084C98.4793 13.776 99.0206 13.622 99.6693 13.622C99.9913 13.622 100.281 13.6617 100.537 13.741C100.794 13.8203 101.018 13.923 101.209 14.049C101.401 14.175 101.562 14.3103 101.692 14.455C101.823 14.5997 101.921 14.735 101.986 14.861V10.598H103.498V21H102.371L102.203 19.516C102.152 19.6747 102.073 19.8473 101.965 20.034C101.863 20.2207 101.718 20.398 101.531 20.566C101.349 20.734 101.116 20.8717 100.831 20.979C100.547 21.0863 100.201 21.14 99.7953 21.14ZM100.082 20.013C100.754 20.013 101.24 19.803 101.538 19.383C101.837 18.9583 101.986 18.263 101.986 17.297C101.982 16.751 101.914 16.289 101.783 15.911C101.657 15.533 101.457 15.2483 101.181 15.057C100.911 14.861 100.554 14.763 100.11 14.763C99.5549 14.763 99.0999 14.9637 98.7453 15.365C98.3953 15.7617 98.2203 16.4057 98.2203 17.297C98.2203 18.1743 98.3789 18.8463 98.6963 19.313C99.0183 19.7797 99.4803 20.013 100.082 20.013ZM108.183 21.14C107.819 21.1353 107.471 21.0817 107.14 20.979C106.808 20.8763 106.512 20.7223 106.251 20.517C105.994 20.3117 105.789 20.0573 105.635 19.754C105.485 19.4507 105.411 19.0983 105.411 18.697V13.762H106.916V18.536C106.916 18.97 107.051 19.3223 107.322 19.593C107.592 19.8637 108.001 19.999 108.547 19.999C109.041 19.999 109.438 19.8707 109.737 19.614C110.035 19.3527 110.185 18.9723 110.185 18.473V13.762H111.676V21H110.514L110.346 19.6C110.262 19.978 110.11 20.2813 109.891 20.51C109.676 20.734 109.419 20.8973 109.121 21C108.827 21.098 108.514 21.1447 108.183 21.14ZM116.687 21.14C116.034 21.14 115.453 20.9977 114.944 20.713C114.436 20.4237 114.037 20.0013 113.747 19.446C113.458 18.886 113.313 18.207 113.313 17.409C113.313 16.6577 113.446 15.9973 113.712 15.428C113.983 14.8587 114.37 14.4153 114.874 14.098C115.378 13.7807 115.983 13.622 116.687 13.622C117.233 13.622 117.716 13.7293 118.136 13.944C118.556 14.154 118.897 14.448 119.158 14.826C119.424 15.204 119.585 15.645 119.641 16.149H118.339C118.302 15.911 118.213 15.6893 118.073 15.484C117.933 15.2787 117.749 15.1153 117.52 14.994C117.292 14.868 117.019 14.805 116.701 14.805C116.118 14.805 115.644 15.0173 115.28 15.442C114.916 15.8667 114.734 16.5177 114.734 17.395C114.734 18.1977 114.905 18.837 115.245 19.313C115.586 19.789 116.078 20.027 116.722 20.027C117.04 20.027 117.313 19.9617 117.541 19.831C117.77 19.7003 117.952 19.5323 118.087 19.327C118.227 19.1217 118.316 18.9093 118.353 18.69H119.627C119.571 19.1753 119.41 19.6023 119.144 19.971C118.883 20.3397 118.542 20.6267 118.122 20.832C117.702 21.0373 117.224 21.14 116.687 21.14ZM123.819 21.049C123.283 21.049 122.867 20.9767 122.573 20.832C122.279 20.6873 122.074 20.4797 121.957 20.209C121.841 19.9337 121.782 19.6023 121.782 19.215V14.84H120.606V13.762H121.831L122.195 11.634H123.287V13.755H124.911V14.84H123.287L123.294 19.159C123.294 19.397 123.318 19.572 123.364 19.684C123.416 19.7913 123.5 19.8613 123.616 19.894C123.738 19.922 123.901 19.936 124.106 19.936H124.946V20.909C124.858 20.9463 124.72 20.979 124.533 21.007C124.351 21.035 124.113 21.049 123.819 21.049Z" fill="#EBC80C"/>
<path d="M137.125 16H150.875" stroke="#EBC80C" stroke-width="1.5" stroke-linecap="round" stroke-linejoin="round"/>
<path d="M145.25 10.375L150.875 16L145.25 21.625" stroke="#EBC80C" stroke-width="1.5" stroke-linecap="round" stroke-linejoin="round"/>
</svg>
