<svg width="94" height="48" viewBox="0 0 94 48" fill="none" xmlns="http://www.w3.org/2000/svg">
<rect width="94" height="48" rx="2" fill="#EFD33D"/>
<path d="M25.134 18.878H27.192V27.271H31.588V29H25.134V18.878ZM32.8382 29L36.4642 18.878H38.6202L42.2392 29H40.2022L39.3762 26.655H35.7362L34.8892 29H32.8382ZM36.1912 24.87H38.8862L37.5492 20.852L36.1912 24.87ZM43.927 29V18.878H47.595C48.9204 18.878 49.9027 19.1067 50.542 19.564C51.186 20.0167 51.508 20.6723 51.508 21.531C51.508 22.035 51.3797 22.4737 51.123 22.847C50.8664 23.2157 50.409 23.5377 49.751 23.813C50.1757 23.9203 50.5187 24.065 50.78 24.247C51.0414 24.429 51.242 24.632 51.382 24.856C51.522 25.0753 51.6177 25.3063 51.669 25.549C51.7204 25.787 51.746 26.0227 51.746 26.256C51.746 27.1893 51.4287 27.88 50.794 28.328C50.1594 28.776 49.149 29 47.763 29H43.927ZM45.964 27.418H47.805C48.421 27.418 48.8854 27.2943 49.198 27.047C49.5154 26.7997 49.674 26.4683 49.674 26.053C49.674 25.7543 49.597 25.5047 49.443 25.304C49.289 25.0987 49.079 24.9447 48.813 24.842C48.5517 24.7393 48.253 24.688 47.917 24.688H45.964V27.418ZM45.964 23.064H47.917C48.127 23.064 48.3277 23.0407 48.519 22.994C48.715 22.9427 48.8877 22.8657 49.037 22.763C49.191 22.6603 49.3124 22.5297 49.401 22.371C49.4897 22.2077 49.534 22.0163 49.534 21.797C49.534 21.3583 49.3684 21.027 49.037 20.803C48.7104 20.5743 48.2904 20.46 47.777 20.46H45.964V23.064ZM53.8704 29V18.878H60.8214L60.8144 20.6H55.9214V23.057H60.1704V24.744H55.9074V27.257L60.8914 27.264V29H53.8704ZM63.0072 18.878H65.0652V27.271H69.4612V29H63.0072V18.878Z" fill="#191C1F"/>
</svg>
