<svg width="48" height="48" viewBox="0 0 48 48" fill="none" xmlns="http://www.w3.org/2000/svg">
<rect width="48" height="48" rx="24" fill="#FA8232"/>
<path d="M24 32.25C24 32.25 14.625 27 14.625 20.625C14.625 19.498 15.0155 18.4059 15.73 17.5343C16.4445 16.6628 17.4388 16.0657 18.5439 15.8447C19.649 15.6237 20.7966 15.7923 21.7913 16.322C22.7861 16.8517 23.5665 17.7097 24 18.75C24.4335 17.7097 25.2139 16.8517 26.2087 16.322C27.2034 15.7923 28.351 15.6237 29.4561 15.8447C30.5612 16.0657 31.5555 16.6628 32.27 17.5343C32.9845 18.4059 33.375 19.498 33.375 20.625C33.375 27 24 32.25 24 32.25Z" stroke="white" stroke-width="1.5" stroke-linecap="round" stroke-linejoin="round"/>
</svg>
